<?xml version="1.0" encoding="UTF-8"?>
<svg id="Layer_2" data-name="Layer 2" xmlns="http://www.w3.org/2000/svg" viewBox="0 0 1972.33 1120.49">
  <defs>
    <style>
      .cls-1 {
        fill: #f27825;
      }

      .cls-2 {
        fill: #ff8533;
      }

      .cls-3 {
        fill: #dd6310;
      }

      .cls-4 {
        fill: #42220d;
      }
    </style>
  </defs>
  <g id="Layer_2-2" data-name="Layer 2">
    <g>
      <rect class="cls-2" x="3.33" width="1969" height="1118"/>
      <g>
        <g>
          <path class="cls-1" d="M200.12,934.85c-3.26-289.09-32.63-515.38-68.39-515.38s-65.13,226.29-68.39,515.38H200.12Z"/>
          <path class="cls-1" d="M463.83,992c-3.26-289.09-32.63-515.38-68.39-515.38s-65.13,226.29-68.39,515.38h136.77Z"/>
          <path class="cls-1" d="M336.52,934.85c-3.26-386.96-32.63-689.85-68.39-689.85s-65.13,302.89-68.39,689.85h136.77Z"/>
        </g>
        <g>
          <path class="cls-1" d="M1662.12,840.85c-3.26-289.09-32.63-515.38-68.39-515.38s-65.13,226.29-68.39,515.38h136.77Z"/>
          <path class="cls-1" d="M1925.83,898c-3.26-289.09-32.63-515.38-68.39-515.38s-65.13,226.29-68.39,515.38h136.77Z"/>
          <path class="cls-1" d="M1798.52,840.85c-3.26-386.96-32.63-689.85-68.39-689.85s-65.13,302.89-68.39,689.85h136.77Z"/>
        </g>
        <g>
          <path class="cls-3" d="M1353.26,1120.49c42.16-66.7,66.57-145.75,66.57-230.49,0-238.59-193.41-432-432-432s-432,193.41-432,432c0,84.75,24.41,163.79,66.57,230.49h730.86Z"/>
          <path class="cls-4" d="M1082.83,1086s-270-12-479-133S3.33,873.77,3.33,873.77c0,0-7.5,244.23,0,244.23H1082.83v-32Z"/>
          <path class="cls-4" d="M387.83,1079.4s394.96-14.47,700.7-160.43c305.73-145.95,878.43-95.57,878.43-95.57,0,0,10.97,294.6,0,294.6-10.97,0-1579.12,0-1579.12,0v-38.6Z"/>
        </g>
        <g>
          <path class="cls-4" d="M781.27,715.05s-7.96-12.69-16.93-7.25c-15.14,9.12,16.32,37.33,4.34,65.05,0,0,15.15,1.46,21.06-7.22,5.9-8.68-26.82-53.54-11.64-45.85l3.17-4.72Z"/>
          <path class="cls-4" d="M829.97,763.45c3.41,9.28,9.01,27.84-8.52,34.27-4.8,2.15-22.74,1.79-14.89-37.45,7.85-39.24,.11-34.65-.74-51.5-2.57-22.05,1.95-48.53-16.09-53.33-1.95-1.17-1.46-1.68,2.77-1.39,2.91,.98-11.37-15.32-2.24-7.76,4.82,4.49-6.18-8.66-2.41-6.27,1.94,.81,5.57,6.12,5.31,4.65-.28-1.91-6.34-7.95-4.44-7.48,1.9,.48,8.45,7.74,7.1,5.49-1.63-2.65-6.63-8.84,.31-2.57,14.12,13.83,25.71,49.9,30.95,71.2,2.47,13.59,2.97,36.18,2.91,52.14Z"/>
          <path class="cls-4" d="M817.06,754.97c49.41,29.03,24.48,34.57,15.07,88.04l-24.79,11.81-8.74-18.68c19.58-38.34-27.36-63.82,18.46-81.17Z"/>
          <path class="cls-4" d="M813.48,725.34c-6.17-14.66-.97-22.19-.97-22.19,15.64,5.51,8.13,14.34,17.94,22.66-2.04,2.65,1.33,10.92-2.4,14.58-16.93,6.11-5.85,7.07-14.57-15.05Z"/>
          <path class="cls-4" d="M813.48,725.34c-6.17-14.66-.97-22.19-.97-22.19,15.64,5.51,8.13,14.34,17.94,22.66-2.04,2.65,1.33,10.92-2.4,14.58-16.93,6.11-5.85,7.07-14.57-15.05Z"/>
          <path class="cls-4" d="M813.48,725.34c-6.17-14.66-.97-22.19-.97-22.19,15.64,5.51,8.13,14.34,17.94,22.66-2.04,2.65,1.33,10.92-2.4,14.58-16.93,6.11-5.85,7.07-14.57-15.05Z"/>
          <path class="cls-4" d="M787.07,720.94c-2.08,5.99-10.89,2.27-8.73-3.43,2.08-5.99,10.89-2.31,8.73,3.43Z"/>
          <path class="cls-4" d="M787.07,720.94c-2.08,5.99-10.89,2.27-8.73-3.43,2.08-5.99,10.89-2.31,8.73,3.43Z"/>
          <path class="cls-4" d="M813.56,706.99c-.19-.01-.36,.05-.5,.17l2.53,23.25c4.06,10.61,1.79,14.29,3.33,13.63,1.03-.45,2.11-.78,3.18-1.17,.52-1.38-5.28-38.97-8.54-35.89Z"/>
          <path class="cls-4" d="M821.16,708.4c-18.85-3.12-4.17,12.77-9.29,24.27-4.31,7.85-2.65,19.2-13.63,15.3-10.97-3.9-17.33-15.35-17.25-22.54,.08-18.47,24.52-36.04,40.16-17.03Z"/>
          <path class="cls-4" d="M691.51,1003.34c-14.5,20.73,22.94,18.97,16.41,24.07-4.26,1.75-8.16,2.65-15.26,.69-7.1-1.96-5.86-1.03-9.71,.72-3.85,1.75-10,0-6.9-7.04,3.9-8.5,3.01-31.67,9.38-34.36l6.08,15.92Z"/>
          <path class="cls-4" d="M814.63,857.99s51.27,27.31,71.52,34.56c20.25,7.25,16.85,13.32,19.38,28.12,5.71,21.21-1.5,91.47,31.74,101.96,18.14,5.93-1.05,7.76-8.77,5.3-6.36-1.14-5.84,1.6-10.61,1.52-4.78-.08-5.73-3.98-6.2-11.65-6.99-35.42-48.27-71.81-34.1-101.61,0,0-85.09-7.83-97.46-24.59l34.5-33.61Z"/>
          <path class="cls-4" d="M817.05,754.97c-36.2,13.67-14,28.94-13.59,61.32,6.34,1.82,21.67,5.4,34.79,1.88,6.94-26.74,17.54-32.21-1.1-49.05-3.21,1.04-6.47,1.19-9.77,.46l-6.63-12.21-3.7-2.41Z"/>
          <path class="cls-4" d="M815.13,855.86l-35.31,35.73c12.38,16.77,97.47,24.6,97.47,24.6-10.85,23.41,13.19,54.97,28.29,83.37,3.63,.03,7.11-.69,10.43-2.16-20.55-134.65,13.41-77.33-100.88-141.54Z"/>
          <path class="cls-4" d="M820.39,757.62c4.3,8.72,11.46,27.18-5.31,34.92-4.58,2.65-22.46,3.98-18.38-35.94,4.09-39.92-3.16-34.47-5.6-51.2-4.62-21.65-2.65-48.44-21.04-51.53-2.03-.97-1.59-1.54,2.65-1.64,2.99,.7-12.76-14.17-2.96-7.5,5.27,4.04-6.98-8.01-3-5.98,2,.61,6.12,5.57,5.77,4.12-.46-1.91-7.01-7.29-5.08-7.04,1.92,.25,9.09,6.91,7.54,4.8-1.88-2.53-7.43-8.18,0-2.59,15.35,12.43,30.32,47.3,37.52,67.98,3.81,13.3,6.45,35.69,7.88,51.59Z"/>
          <path class="cls-4" d="M798.6,836.14c-.61,2.21-5.49,7.32-5.88,7.09-18.3,7.83-25.21,30.29-34.64,46.5-9.47,15.03-27.92,42.34-34.96,48.53-8.92,5.18-41.37,25.29-43.56,63.54,0,0,3.3,3.7,11.73,1.9,15.92-26.43,82.79-80.45,97.91-97.75,24.6-21.29,37.34-35.79,42.94-62.99-10.38,3.99-33.53-6.81-33.53-6.81Z"/>
        </g>
        <g>
          <path class="cls-4" d="M1612.77,537.05s7.96-12.69,16.93-7.25c15.14,9.12-16.32,37.33-4.34,65.05,0,0-15.15,1.46-21.06-7.22-5.9-8.68,26.82-53.54,11.64-45.85l-3.17-4.72Z"/>
          <path class="cls-4" d="M1564.08,585.45c-3.41,9.28-9.01,27.84,8.52,34.27,4.8,2.15,22.74,1.79,14.89-37.45-7.85-39.24-.11-34.65,.74-51.5,2.57-22.05-1.95-48.53,16.09-53.33,1.95-1.17,1.46-1.68-2.77-1.39-2.91,.98,11.37-15.32,2.24-7.76-4.82,4.49,6.18-8.66,2.41-6.27-1.94,.81-5.57,6.12-5.31,4.65,.28-1.91,6.34-7.95,4.44-7.48-1.9,.48-8.45,7.74-7.1,5.49,1.63-2.65,6.63-8.84-.31-2.57-14.12,13.83-25.71,49.9-30.95,71.2-2.47,13.59-2.97,36.18-2.91,52.14Z"/>
          <path class="cls-4" d="M1576.99,576.97c-49.41,29.03-24.48,34.57-15.07,88.04l24.79,11.81,8.74-18.68c-19.58-38.34,27.36-63.82-18.46-81.17Z"/>
          <path class="cls-4" d="M1580.57,547.34c6.17-14.66,.97-22.19,.97-22.19-15.64,5.51-8.13,14.34-17.94,22.66,2.04,2.65-1.33,10.92,2.4,14.58,16.93,6.11,5.85,7.07,14.57-15.05Z"/>
          <path class="cls-4" d="M1580.57,547.34c6.17-14.66,.97-22.19,.97-22.19-15.64,5.51-8.13,14.34-17.94,22.66,2.04,2.65-1.33,10.92,2.4,14.58,16.93,6.11,5.85,7.07,14.57-15.05Z"/>
          <path class="cls-4" d="M1580.57,547.34c6.17-14.66,.97-22.19,.97-22.19-15.64,5.51-8.13,14.34-17.94,22.66,2.04,2.65-1.33,10.92,2.4,14.58,16.93,6.11,5.85,7.07,14.57-15.05Z"/>
          <path class="cls-4" d="M1606.97,542.94c2.08,5.99,10.89,2.27,8.73-3.43-2.08-5.99-10.89-2.31-8.73,3.43Z"/>
          <path class="cls-4" d="M1606.97,542.94c2.08,5.99,10.89,2.27,8.73-3.43-2.08-5.99-10.89-2.31-8.73,3.43Z"/>
          <path class="cls-4" d="M1580.49,528.99c.19-.01,.36,.05,.5,.17l-2.53,23.25c-4.06,10.61-1.79,14.29-3.33,13.63-1.03-.45-2.11-.78-3.18-1.17-.52-1.38,5.28-38.97,8.54-35.89Z"/>
          <path class="cls-4" d="M1572.89,530.4c18.85-3.12,4.17,12.77,9.29,24.27,4.31,7.85,2.65,19.2,13.63,15.3,10.97-3.9,17.33-15.35,17.25-22.54-.08-18.47-24.52-36.04-40.16-17.03Z"/>
          <path class="cls-4" d="M1702.53,825.34c14.5,20.73-22.94,18.97-16.41,24.07,4.26,1.75,8.16,2.65,15.26,.69,7.1-1.96,5.86-1.03,9.71,.72,3.85,1.75,10,0,6.9-7.04-3.9-8.5-3.01-31.67-9.38-34.36l-6.08,15.92Z"/>
          <path class="cls-4" d="M1579.41,679.99s-51.27,27.31-71.52,34.56c-20.25,7.25-16.85,13.32-19.38,28.12-5.71,21.21,1.5,91.47-31.74,101.96-18.14,5.93,1.05,7.76,8.77,5.3,6.36-1.14,5.84,1.6,10.61,1.52,4.78-.08,5.73-3.98,6.2-11.65,6.99-35.42,48.27-71.81,34.1-101.61,0,0,85.09-7.83,97.46-24.59l-34.5-33.61Z"/>
          <path class="cls-4" d="M1577,576.97c36.2,13.67,14,28.94,13.59,61.32-6.34,1.82-21.67,5.4-34.79,1.88-6.94-26.74-17.54-32.21,1.1-49.05,3.21,1.04,6.47,1.19,9.77,.46l6.63-12.21,3.7-2.41Z"/>
          <path class="cls-4" d="M1578.91,677.86l35.31,35.73c-12.38,16.77-97.47,24.6-97.47,24.6,10.85,23.41-13.19,54.97-28.29,83.37-3.63,.03-7.11-.69-10.43-2.16,20.55-134.65-13.41-77.33,100.88-141.54Z"/>
          <path class="cls-4" d="M1573.66,579.62c-4.3,8.72-11.46,27.18,5.31,34.92,4.58,2.65,22.46,3.98,18.38-35.94-4.09-39.92,3.16-34.47,5.6-51.2,4.62-21.65,2.65-48.44,21.04-51.53,2.03-.97,1.59-1.54-2.65-1.64-2.99,.7,12.76-14.17,2.96-7.5-5.27,4.04,6.98-8.01,3-5.98-2,.61-6.12,5.57-5.77,4.12,.46-1.91,7.01-7.29,5.08-7.04-1.92,.25-9.09,6.91-7.54,4.8,1.88-2.53,7.43-8.18,0-2.59-15.35,12.43-30.32,47.3-37.52,67.98-3.81,13.3-6.45,35.69-7.88,51.59Z"/>
          <path class="cls-4" d="M1595.44,658.14c.61,2.21,5.49,7.32,5.88,7.09,18.3,7.83,25.21,30.29,34.64,46.5,9.47,15.03,27.92,42.34,34.96,48.53,8.92,5.18,41.37,25.29,43.56,63.54,0,0-3.3,3.7-11.73,1.9-15.92-26.43-82.79-80.45-97.91-97.75-24.6-21.29-37.34-35.79-42.94-62.99,10.38,3.99,33.53-6.81,33.53-6.81Z"/>
        </g>
        <g>
          <path class="cls-4" d="M423.64,681.51v9.2s-43.02,3.98-63.52,4.44c0,0-48.8,28.75-53.1,36.72-35.58,5.58-50.2,.11-50.5,0,0,0,72.84-49.93,96.09-54.02,23.28-4.1,71.03,3.67,71.03,3.67Z"/>
          <path class="cls-4" d="M423.59,690.73c-1.31,.11-43.32,3.98-63.5,4.44,0,0-48.8,28.75-53.1,36.72-35.58,5.58-50.2,.11-50.5,0,0,0,1.91-1.32,5.21-3.53,10.24,2.44,33.1,6.72,46.16-.09,0,0,26.15-24.45,49.58-34.92l66.14-2.62Z"/>
          <path class="cls-4" d="M423.64,690.73s2.66,3.71,4.8,5.15c2.07,1.37,4.61,4.46,6.68,5.15,2.07,.68,1.1-2.46-2.98-7.01l13.43-1.87s21.58,1.37,18.02-3.03l-3.21-.57s1.19-.68,.16-1.94c0,0-6.59-.61-15.08-2.85-8.86-2.32-21.81-2.25-21.81-2.25v9.22Z"/>
          <path class="cls-4" d="M258.81,822.84c-31.22-4.26-64.85-24.68-68.13-26.7,22.18-27.98,37.37-39.86,41.18-42.62,6.91,42.28,31.56,59.81,31.56,59.81-4.96,2.3-4.61,9.52-4.61,9.52Z"/>
          <path class="cls-4" d="M197.66,886.83l-.02-.18c.32,.09,.02,.18,.02,.18Z"/>
          <path class="cls-4" d="M190.75,796.38c-.05-.07-.09-.11-.14-.16-.07-.09-.14-.18-.18-.25-.21-.32-.3-.48-.3-.5,.02,.02,.21,.27,.51,.73,.02,.07,.07,.11,.11,.18Z"/>
          <path class="cls-4" d="M190.61,796.2c.05,.07,.09,.11,.14,.18-.05-.05-.09-.11-.14-.18,0,.02,0,0,0,0Z"/>
          <path class="cls-4" d="M258.81,822.84c-22.38-3.05-46-14.41-58.79-21.35,18.02,7.6,54.5,17.8,54.5,17.8,1.22-3.8,4.29-5.58,4.29-5.58-28.58-23.7-27.09-58.28-26.97-60.19h.02c6.91,42.28,31.56,59.81,31.56,59.81-4.96,2.3-4.61,9.52-4.61,9.52Z"/>
          <path class="cls-4" d="M197.66,886.83l-.02-.18c.32,.09,.02,.18,.02,.18Z"/>
          <path class="cls-4" d="M384.96,717.36s10.33,21.86,7.58,34.15c-2.75,12.29-8.49,17.07-3.56,30.05,4.94,12.98,10.79,26.64-11.59,33.12-22.38,6.49,.76,23.22-29.41,25.61-30.16,2.39-48.02-27.39-43.59-48.83,22.98-110.78,80.58-74.1,80.58-74.1Z"/>
          <path class="cls-4" d="M378.8,729.27l-10.93,3.26s7.6,20.85-3.35,34.54c-10.95,13.7,6.06,61.97-32.64,50.02-11.36-3.51-20.29-13.98-27.2-26.98,23.16-109.09,70.87-75.38,70.87-75.38,0,0,.87,5.71,3.26,14.55Z"/>
          <path class="cls-4" d="M387.87,872.33v9.04s-76.17,1.82-83.56-7.74c-7.39-9.56,1.88-60.1,0-63.29-1.1-1.84-6.63-3.85-11.11-5.21,8.33-1.64,13.45-3.03,18.78-7.54,7.12-6.06,15.15-12.57,15.4-12.77,0,0,5.81,5.46,5.81,15.48s-5.81,55.09-5.81,55.09c0,0,8.22,1.82,20.34,6.83,12.1,5.03,40.15,10.11,40.15,10.11Z"/>
          <path class="cls-4" d="M384.15,881.37s-.07,.02-.23,.07c-15.7,.23-73.23,.43-79.63-7.81-7.39-9.56,1.88-60.1,0-63.29-1.1-1.84-6.63-3.85-11.11-5.21,1.58-.32,3.05-.61,4.43-.93,4.04,1.18,8.42,2.82,8.79,4.53,.71,3.21-6.89,57.64,0,62.74,13.41,9.9,77.75,9.9,77.75,9.9Z"/>
          <path class="cls-4" d="M415.14,873.54l-7.46-1.32c-1.17-.3-6.08-.73-6.08-.73l-13.7,.87v9.04c3.79,.87,13.02,1.59,16.12,2.3,4.09,.96,7.23-1.41-4.98-4.62l8.08-.14s13.45,2.34,15.82,1.84c2.43-.52,.02-1.62-1.81-2.25,1.4,.41,3.35,.91,4.29,.73,3.99-.77-10.26-5.71-10.26-5.71Z"/>
          <path class="cls-4" d="M421.11,878.5c-.67-.14-1.33-.3-2-.46-.67-.16-1.31-.34-1.97-.52-.64-.18-1.31-.36-1.95-.57-.64-.2-1.29-.41-1.93-.61l.05,.02c-.53-.09-1.06-.18-1.58-.3-.53-.09-1.06-.2-1.58-.32-.53-.11-1.06-.23-1.56-.36-.53-.14-1.03-.27-1.56-.41,.53,.02,1.08,.07,1.61,.11,.53,.05,1.06,.11,1.61,.16,.53,.07,1.06,.14,1.58,.2,.53,.07,1.06,.16,1.58,.23h.05c.64,.2,1.29,.41,1.93,.61,.64,.2,1.29,.43,1.93,.66,.64,.23,1.26,.48,1.91,.73,.67,.27,1.29,.52,1.91,.82Z"/>
          <path class="cls-4" d="M357.5,746.39s6.59,13.59-4.41,21.54c-1.81,1.32-4.36,0-4.38-2.21-.05-4.78,1.26-12.59,8.79-19.33Z"/>
          <path class="cls-4" d="M359.34,757.32c-2.39-.16-9.46,.27-9.23,10.75-.8-.46-1.4-1.32-1.4-2.37-.05-4.76,1.26-12.57,8.79-19.31,0,0,2.48,5.12,1.84,10.93Z"/>
          <path class="cls-4" d="M354.13,755.27s-26.15,6.97-29.82,12.13c-3.67,5.17,3.05,17.46,3.05,17.46,0,0-33.29,5.24-40.1-14.21-9.41-26.86,22.27-33.37,22.27-33.37,0,0,4.13,10.22,19.05-2.73,.02-.02,7,17.76,25.55,20.72Z"/>
          <path class="cls-4" d="M327.36,784.84c-.57,.09-33.36,5.08-40.1-14.21-5.78-16.51,3.95-25.34,12.33-29.69l1.38,1.14s-17.42,10.27-11.87,25c5.26,13.93,18.57,18.35,35.7,11.93,.09-.05,.21-.07,.3-.11l2.27,5.94Z"/>
          <path class="cls-4" d="M307.02,731.89l2.53,5.4s-32.96,13.07-20.43,34.15c12.53,21.08,35.97,7.49,35.97,7.49l2.27,5.94s-8.17,6.62-15.4,12.77c-7.23,6.15-14.12,6.49-29.27,9.56-15.15,3.07-19.28,6.15-19.28,6.15,0,0-24.7-17.55-31.59-59.87l24.7-21.58s14.55,5.62,50.5,0Z"/>
          <path class="cls-4" d="M354.13,755.27s-4.5,1.21-10.01,2.98c-5.74-.87-12.81-3.67-15.72-6.76-4.91-5.19-5.07-9.11-3.97-13.68,1.31-.87,2.71-1.94,4.2-3.26-.02-.02,6.96,17.76,25.5,20.72Z"/>
          <path class="cls-4" d="M377.98,719.53c-6.18-9.79-19.17-12.77-29.04-6.65,0,0-11.25,5.05-17.88,11.41-3.51,3.35-4.73,8.86-5.37,11.38-1.29,4.89-.62,7.99,4.52,13.48,4.06,4.3,16.07,8.04,21.51,6.78,3.65-.84,10.77-3.69,15.06-5.49,1.08-.36,2.16-.82,3.19-1.37,.23-.09,.34-.16,.34-.16l-.02-.02c.34-.18,.67-.36,.99-.57,9.87-6.1,12.88-19.01,6.7-28.8Z"/>
          <path class="cls-4" d="M350.45,725.58c-.21-.43-.41-.87-.67-1.25-.11-.18-.25-.36-.39-.52s-.3-.3-.44-.41c-.05-.02-.07-.05-.11-.09l-.14-.09-.3-.18c-.21-.14-.41-.27-.62-.41-.41-.3-.78-.61-1.15-.98-.71-.73-1.29-1.66-1.45-2.71-.07-.52-.07-1.05,.07-1.55,.11-.5,.34-.96,.62-1.34-.11,.96-.09,1.87,.18,2.69,.28,.8,.78,1.5,1.4,2.14,.3,.32,.64,.61,.99,.91l.53,.43,.28,.23c.09,.07,.18,.16,.3,.27,.21,.2,.37,.43,.48,.68,.11,.23,.21,.48,.28,.73,.11,.48,.16,.98,.14,1.46Z"/>
          <path class="cls-4" d="M354.86,720.3c-.21-1.39-1.19-5.3-5.69-7.51,0,0,2.13-.87,3.74,.02,1.61,.89,4.5,6.12,4.2,7.35-.23,.98-.78,1.59-1.54,1.18-.37-.2-.64-.59-.71-1.05Z"/>
          <path class="cls-4" d="M355.14,733.96c.46,.18,.9,.43,1.29,.75,.18,.16,.39,.34,.55,.55,.16,.2,.32,.43,.41,.71,.05,.14,.09,.27,.11,.39l.09,.34,.18,.66c.11,.43,.25,.87,.41,1.27,.32,.82,.76,1.57,1.38,2.14,.62,.59,1.42,1,2.36,1.3-.48,.09-.99,.09-1.49,0-.51-.09-.99-.3-1.45-.59-.9-.57-1.52-1.5-1.88-2.44-.18-.48-.32-.96-.41-1.43-.05-.25-.09-.48-.11-.73l-.05-.34-.02-.16s-.02-.09-.02-.14c-.02-.18-.09-.39-.18-.57-.09-.2-.21-.39-.32-.57-.25-.41-.55-.75-.85-1.14Z"/>
          <path class="cls-4" d="M361.84,732.21c1.17,.77,4.34,3.3,4.48,8.26,0,0,1.7-1.55,1.56-3.39-.14-1.82-3.7-6.62-4.96-6.88-.99-.2-1.79,.02-1.74,.89,.02,.46,.28,.87,.67,1.12Z"/>
          <path class="cls-4" d="M350.45,728.04c-.18,.52-.46,1.02-.78,1.48-.32,.46-.71,.89-1.17,1.25-.11,.09-.23,.18-.34,.27l-.18,.14-.18,.11c-.14,.07-.25,.16-.39,.2l-.41,.18c-.57,.2-1.19,.34-1.79,.3-.32,0-.55-.02-.83-.05-.25-.02-.51-.02-.73,0-.23,0-.46,.05-.62,.11-.09,.02-.16,.07-.21,.11-.05,.05-.11,.09-.14,.16-.07,.14-.11,.36-.11,.61s.02,.5,.05,.77c.05,.52,.14,1.07,.18,1.62-.28-.48-.53-.98-.73-1.5-.09-.27-.18-.55-.25-.84-.05-.3-.09-.64,.02-1,.11-.36,.44-.71,.76-.87,.32-.16,.64-.23,.96-.27,.3-.05,.6-.05,.9-.05,.28,0,.6,.05,.83,.02,.11,0,.23,.02,.37,0l.37-.05c.11,0,.23-.05,.34-.07,.11-.02,.23-.05,.34-.09,.46-.14,.92-.34,1.38-.59,.78-.5,1.61-1.18,2.39-1.98Z"/>
          <path class="cls-4" d="M334.87,732.53c.34,1.02,.73,1.98,1.17,2.91,.44,.93,.92,1.8,1.52,2.62,.57,.82,1.24,1.57,2,2.23,.76,.68,1.61,1.25,2.55,1.82-1.08-.11-2.13-.5-3.08-1.09s-1.77-1.39-2.41-2.3-1.12-1.91-1.42-2.96c-.3-1.07-.44-2.16-.32-3.23Z"/>
          <path class="cls-4" d="M364.41,749.49s7.58-6.99,8.26-13.14c.69-6.15-2.41-12.64,0-17.53,0,0-9.46-4.74-15.45-4.74-5.99-.02-15.2,9.15-19.65,9.29-4.45,.16-10.19,11.16-10.19,11.16,0,0,7.92-27.8,27.75-27.09,19.83,.71,24.04,3.76,26.06,9.52,2.04,5.74,2.5,32.46-16.78,32.53Z"/>
          <path class="cls-4" d="M364.41,749.49s8.56-5.94,10.1-13.07c1.54-7.13-1.38-15.62,0-19.05,0,0-2.53-.09-8.95-2.19-6.43-2.09-11.39-4.42-15.36-.18-3.97,4.26-12.42,6.62-17.08,8.51s-3.9,14.73-10.95,18.51c-7.05,3.8-11.48,5.33-12.4,16.03-.92,10.7-5.21,12.82-11.02,17.98-5.81,5.17-2.75,12.59,1.22,13.82,0,0-13.15,2.12-12.69-7.9,.46-10.02,12.1-11.04,10.26-23.9-3.37-23.52,23.12-25.54,27.55-38.77,5-14.91,44.37-30.26,59.87-1.91,0,0,7.58,19.81-1.72,29.21-9.3,9.38-18.82,2.91-18.82,2.91Z"/>
          <path class="cls-4" d="M360.12,754.59s18.3-1.73,23.81-17.78c5.46-15.91-4.04-35.88-26.42-35.31,0,0,19.9,4.26,21.28,24.4,1.38,20.15-18.66,28.68-18.66,28.68Z"/>
          <path class="cls-4" d="M363.84,747.66s7.37,.75,6.45,5.78c-.85,4.76-12.79,7.44-17.68,.07l11.23-5.85Z"/>
          <path class="cls-4" d="M99.52,867.96c6.98,11.47,35.12,19.81,68.52,18.78,33.4-1.02,29.61,.09,29.61,.09l-2.07-19.53c13.43,5.81,34.43,3.41,34.43,3.41v18.78s62.67,3.41,86.77-2.64c24.1-6.06,23.53-27.43,13.43-37.63-10.1-10.22-68.52-6.81-68.52-6.81-.34-6.47-2.89-19.53-2.89-19.53-32.85-4.48-68.39-26.86-68.39-26.86,0,0-16.53,23.18-24.1,37.86,0,0-52.68-1.78-62.33,6.62-9.64,8.33-6.93,23.43-4.48,27.46Z"/>
          <path class="cls-4" d="M229.09,871.01c-7.69-3.07-5.62-9.22-11.75-10.81-6.13-1.59-9.02,5.35-12.81,6.37-2.85,.77-8.93,.71-8.93,.71l.76,17.05,20.22-.23,8.49,.46,4.02-13.55Z"/>
          <path class="cls-4" d="M230.03,870.69s-2.94,.98-7.02,0c-2.94-.71-6.2-9.13-14.46-6.85-8.26,2.28-9.18,8.88-14.23,9.33-5.05,.46-13.08-2.96-18.14,0-5.05,2.96-4.36,4.55-8.49,7.29-4.13,2.73-7.58,7.4-4.59,9.97,2.98,2.55,6.66-1.78,8.49-1.78s13.7,1.71,24.4,1.78c10.72,.05,21.1-3.55,34.04-.96,0,0,1.58-9.24,0-18.78Z"/>
          <path class="cls-4" d="M429.74,686.61c1.17,.57,2.39,.98,3.63,1.27,.62,.16,1.26,.27,1.88,.36,.64,.09,1.26,.16,1.91,.2,1.26,.07,2.55,0,3.81-.18,1.29-.2,2.62-.3,3.93-.27,2.62,0,5.21,.25,7.78,.5,1.29,.11,2.57,.25,3.86,.32,.64,.05,1.29,.05,1.93,.02,.64-.02,1.29-.09,1.91-.3-.6,.27-1.24,.39-1.88,.48-.64,.07-1.31,.09-1.95,.11-1.31,0-2.59-.05-3.9-.14-2.59-.14-5.17-.36-7.74-.34-1.29,.02-2.55,.07-3.83,.25-1.31,.18-2.64,.2-3.95,.09s-2.59-.39-3.83-.77c-1.22-.41-2.43-.91-3.54-1.62Z"/>
          <path class="cls-4" d="M374.88,714.93c-3.01-.09-5.83,1.14-8.84,1-3.24-.14-6.43-.23-9.5-1.32-2.43-.87-4.73-2.16-7.23-2.75-2.57-.59-5-.2-7.28,1.07-.39,.2-.05,.8,.34,.59,2.64-1.48,5.33-1.55,8.17-.59,2.43,.82,4.71,2.07,7.16,2.78,2.78,.8,5.69,.8,8.56,.91,2.96,.14,5.72-1.09,8.65-1,.39,0,.39-.68-.05-.68Z"/>
          <path class="cls-4" d="M386.36,724.81c2.04,6.19,4.2,12.38,5.65,18.76,1.42,6.22,2.57,13.25,.92,19.53-1.52,5.83-5.3,10.81-6.24,16.8-.44,2.69-.41,5.42-.37,8.13,.02,2.55,.11,5.05-.83,7.47-1.88,4.87-6.89,7.17-11.64,8.47-.44,.11-.25,.77,.18,.66,4.06-1.12,8.29-2.87,10.79-6.42,3.05-4.33,2-9.7,2.2-14.64,.14-3.21,.73-6.31,2.02-9.24,1.26-2.85,2.71-5.6,3.76-8.54,2.2-6.15,1.7-12.73,.55-19.06-1.38-7.56-3.93-14.82-6.34-22.11-.14-.41-.8-.23-.67,.18Z"/>
          <path class="cls-4" d="M388.77,804.53c-1.79,6.6-6.36,11.75-12.49,14.78-4.71,2.32-10.35,3.55-14.07,7.51-2.04,2.16-2.89,4.92-2.71,7.88,.02,.43,.71,.43,.69,0-.16-2.91,.69-5.58,2.78-7.65,1.88-1.89,4.36-3.12,6.8-4.19,2.53-1.12,5.17-2.03,7.62-3.32,2.73-1.46,5.26-3.35,7.28-5.69,2.3-2.64,3.88-5.76,4.77-9.11,.11-.46-.55-.64-.67-.2Z"/>
          <path class="cls-4" d="M329.98,716.29c-2.43,1.91-3.76,4.74-5.74,7.03-2.27,2.64-5.37,3.28-8.47,4.55-4.8,1.98-8.42,6.51-10.05,11.34-.92,2.73-1.17,5.69-.28,8.47,.14,.41,.8,.23,.67-.18-2.11-6.53,2.16-14.27,7.67-17.85,2.98-1.91,6.75-2.19,9.53-4.46,2.89-2.39,4.18-6.12,7.14-8.42,.37-.27-.11-.75-.46-.48Z"/>
          <path class="cls-4" d="M319.12,740.11c-7.81,2.37-6.01,11.97-6.15,18.21-.05,1.68-.16,3.39-.71,5.01-.69,1.98-1.93,3.71-3.37,5.19-2.62,2.66-5.9,4.53-8.79,6.85-3.31,2.64-5.69,5.87-6.01,10.15-.02,.43,.67,.43,.69,0,.6-8.13,8.84-11.06,14.05-15.98,2.48-2.32,4.25-5.21,4.68-8.61,.44-3.53,0-7.1,.14-10.65,.18-4.1,1.29-8.15,5.67-9.49,.41-.16,.23-.82-.18-.68Z"/>
          <path class="cls-4" d="M300.27,755.02c-.73,3.21-1.81,6.31-3.67,9.06-1.88,2.78-4.48,4.8-6.68,7.29-1.93,2.16-3.35,4.92-3.44,7.85-.09,3.16,1.49,5.9,3.88,7.9,.34,.27,.83-.2,.48-.48-2.66-2.21-4.18-5.3-3.54-8.79,.62-3.28,2.73-5.71,5.1-7.97,2.02-1.94,3.95-4.01,5.39-6.42,1.54-2.55,2.46-5.37,3.12-8.26,.11-.43-.55-.61-.64-.18Z"/>
        </g>
      </g>
    </g>
  </g>
</svg>