<svg xmlns="http://www.w3.org/2000/svg" xmlns:xlink="http://www.w3.org/1999/xlink" width="1440" height="778"><defs><path id="a" d="M.391 778H1442V.11H.39V778z"/><linearGradient id="c" x1="54.641%" x2="54.641%" y1="-2.304%" y2="52.972%"><stop offset="0%" stop-color="#1B5DA7"/><stop offset="100%" stop-color="#2F8CF4"/></linearGradient><linearGradient id="d" x1="50%" x2="50%" y1="0%" y2="100%"><stop offset="2.353%" stop-color="#1797F6"/><stop offset="98.41%" stop-color="#084C8A"/></linearGradient><linearGradient id="e" x1="50%" x2="50%" y1="0%" y2="99.515%"><stop offset="0%" stop-color="#158BE5"/><stop offset="100%" stop-color="#003566"/></linearGradient><linearGradient id="f" x1="94.564%" x2="4.537%" y1="-2.557%" y2="106.212%"><stop offset="0%" stop-color="#0959A5"/><stop offset="100%" stop-color="#074375"/></linearGradient><linearGradient id="g" x1="108.707%" x2="0%" y1="-18.645%" y2="102.33%"><stop offset="0%" stop-color="#252145"/><stop offset="100%" stop-color="#282553"/></linearGradient><linearGradient id="h" x1="98.654%" x2="53.593%" y1="98.288%" y2="40.946%"><stop offset="0%" stop-color="#3D4184"/><stop offset="100%" stop-color="#2C2A5E"/></linearGradient><linearGradient id="i" x1="10.404%" x2="62.868%" y1="125.238%" y2="-41.394%"><stop offset="0%" stop-color="#494381"/><stop offset="100%" stop-color="#1A1738"/><stop offset="100%" stop-color="#191637"/></linearGradient><linearGradient id="j" x1="65.373%" x2="53.572%" y1="59.985%" y2="6.441%"><stop offset="0%" stop-color="#2E38A3"/><stop offset="100%" stop-color="#0D0942"/></linearGradient><linearGradient id="k" x1="68.81%" x2="63.054%" y1="100%" y2="0%"><stop offset="0%" stop-color="#F58E96"/><stop offset="32.28%" stop-color="#524667"/><stop offset="52.858%" stop-color="#1C2C4F"/><stop offset="100%" stop-color="#010008"/></linearGradient><linearGradient id="l" x1="76.924%" x2="76.924%" y1="3.678%" y2="17.392%"><stop offset="0%" stop-color="#BF7987"/><stop offset="100%" stop-color="#243257"/></linearGradient><linearGradient id="m" x1="50%" x2="50%" y1="0%" y2="88.975%"><stop offset="0%" stop-color="#BF9DAD"/><stop offset="100%" stop-color="#FBAD9A" stop-opacity="0"/></linearGradient><linearGradient id="n" x1="80.048%" x2="79.22%" y1="1.966%" y2="14.161%"><stop offset="0%" stop-color="#CC7787"/><stop offset="100%" stop-color="#8D576D"/></linearGradient><linearGradient id="o" x1="50%" x2="50%" y1="133.331%" y2="50%"><stop offset="0%" stop-color="#243257"/><stop offset="100%" stop-color="#243257"/></linearGradient><linearGradient id="p" x1="34.069%" x2="37.431%" y1="48.147%" y2="29.968%"><stop offset="0%" stop-color="#553A54"/><stop offset="100%" stop-color="#243257"/></linearGradient><linearGradient id="q" x1="43.09%" x2="44.919%" y1="36.363%" y2="17.79%"><stop offset="0%" stop-color="#553A54"/><stop offset="100%" stop-color="#243257"/></linearGradient><linearGradient id="r" x1="2.707%" x2="110.502%" y1="77.554%" y2="41.959%"><stop offset="0%" stop-color="#272643"/><stop offset="96.053%" stop-color="#302A48"/></linearGradient><linearGradient id="s" x1="79.409%" x2="84.557%" y1="55.67%" y2="13.156%"><stop offset="0%" stop-color="#243257"/><stop offset="100%" stop-color="#44385A"/></linearGradient><linearGradient id="t" x1="55.866%" x2="55.866%" y1="100%" y2="34.572%"><stop offset="0%" stop-color="#1B235B"/><stop offset="100%" stop-color="#444479"/></linearGradient><linearGradient id="u" x1="50%" x2="47.765%" y1="39.119%" y2="88.009%"><stop offset="0%" stop-color="#211E3B"/><stop offset="100%" stop-color="#243257"/></linearGradient><linearGradient id="v" x1="50%" x2="50%" y1="80.9%" y2="43.243%"><stop offset="0%" stop-color="#3A3659"/><stop offset="100%" stop-color="#19173F"/></linearGradient><linearGradient id="w" x1="50%" x2="50%" y1="35.794%" y2="78.882%"><stop offset="0%" stop-color="#19173F"/><stop offset="100%" stop-color="#423E60"/></linearGradient><linearGradient id="x" x1="43.209%" x2="39.965%" y1="40.167%" y2="81.249%"><stop offset="0%" stop-color="#243257"/><stop offset="100%" stop-color="#553955"/></linearGradient><linearGradient id="y" x1="77.737%" x2="31.341%" y1="1.882%" y2="73.906%"><stop offset="0%" stop-color="#8D576D"/><stop offset="99.916%" stop-color="#171961"/><stop offset="100%" stop-color="#19173F"/></linearGradient><linearGradient id="z" x1="94.564%" x2="2.231%" y1="-2.557%" y2="100%"><stop offset="0%" stop-color="#CC7787"/><stop offset="100%" stop-color="#170B3A"/></linearGradient><linearGradient id="A" x1="94.564%" x2="4.537%" y1="-2.557%" y2="106.212%"><stop offset="0%" stop-color="#CC7787"/><stop offset="100%" stop-color="#654369"/></linearGradient><linearGradient id="B" x1="50%" x2="50%" y1="100%" y2="58.598%"><stop offset="0%" stop-color="#443F61"/><stop offset="100%" stop-color="#19173F"/></linearGradient><linearGradient id="C" x1="66.492%" x2="-60.43%" y1="48.177%" y2="135.826%"><stop offset="0%" stop-color="#4C325E" stop-opacity="0"/><stop offset="1.142%" stop-color="#4C3663" stop-opacity="0"/><stop offset="100%" stop-color="#DD818A"/></linearGradient><radialGradient id="D" cx="51.201%" cy="40.75%" r="35.46%" fx="51.201%" fy="40.75%" gradientTransform="matrix(0 1 -1.1777 0 .992 -.105)"><stop offset="0%" stop-color="#7B3B53"/><stop offset="100%" stop-color="#2F3AA4" stop-opacity="0"/></radialGradient><linearGradient id="E" x1="80.281%" x2="31.969%" y1="72.632%" y2="40.51%"><stop offset="0%" stop-color="#484461" stop-opacity=".69"/><stop offset="100%" stop-color="#988C8C" stop-opacity=".017"/></linearGradient><radialGradient id="F" cx="71.332%" cy="61.617%" r="100%" fx="71.332%" fy="61.617%" gradientTransform="matrix(0 1 -.5439 0 1.048 -.097)"><stop offset="0%" stop-color="#6F3053"/><stop offset="100%"/></radialGradient><linearGradient id="G" x1="97.537%" x2="36.693%" y1="0%" y2="100%"><stop offset="0%" stop-color="#9A5087"/><stop offset="100%" stop-color="#19173F" stop-opacity="0"/></linearGradient><linearGradient id="H" x1="50%" x2="50%" y1="0%" y2="27.901%"><stop offset="0%" stop-color="#B45C99"/><stop offset="100%"/></linearGradient><linearGradient id="I" x1="-88.108%" x2="-88.108%" y1="81.464%" y2="-46.882%"><stop offset="0%" stop-color="#111935"/><stop offset="100%" stop-color="#0F0C47"/></linearGradient><linearGradient id="J" x1="41.345%" x2="4.733%" y1="-4.39%" y2="90.882%"><stop offset="0%" stop-color="#553A55"/><stop offset="56.489%" stop-color="#293258"/><stop offset="100%" stop-color="#191637"/></linearGradient><linearGradient id="K" x1="68.666%" x2="14.669%" y1="56.607%" y2="13.849%"><stop offset="0%" stop-color="#10143C"/><stop offset="100%" stop-color="#242541"/></linearGradient><linearGradient id="L" x1="-606.611%" x2="997.832%" y1="-14.421%" y2="415.213%"><stop offset="0%" stop-color="#3D4571"/><stop offset="100%" stop-color="#1A1738"/></linearGradient><linearGradient id="M" x1="91.212%" x2="46.011%" y1="161.37%" y2="50%"><stop offset="0%" stop-color="#4A4A7A" stop-opacity="0"/><stop offset="100%"/></linearGradient><linearGradient id="N" x1="78.279%" x2="49.75%" y1="6.829%" y2="96.161%"><stop offset="0%" stop-color="#191B3A"/><stop offset="100%" stop-color="#12132C"/></linearGradient><linearGradient id="O" x1="100%" x2="17.049%" y1="0%" y2="100%"><stop offset="0%" stop-color="#35386C"/><stop offset="100%" stop-color="#14142F"/></linearGradient><linearGradient id="P" x1="121.178%" x2="10.972%" y1="-8.28%" y2="100%"><stop offset="0%" stop-color="#2E3363"/><stop offset="100%" stop-color="#0C0C21"/></linearGradient><linearGradient id="Q" x1="100%" x2="0%" y1="0%" y2="96.738%"><stop offset="0%" stop-color="#595E96"/><stop offset="100%" stop-color="#32345A"/></linearGradient><linearGradient id="R" x1="67.195%" x2="32.316%" y1="18.143%" y2="100%"><stop offset="0%" stop-color="#575C93"/><stop offset="100%" stop-color="#434675"/></linearGradient><linearGradient id="S" x1="43.796%" x2="79.423%" y1="4.54%" y2="94.211%"><stop offset="0%" stop-color="#262950"/><stop offset="60.114%" stop-color="#0D0D22"/><stop offset="100%" stop-color="#101029"/></linearGradient><linearGradient id="T" x1="38.143%" x2="49.781%" y1="0%" y2="79.571%"><stop offset="0%" stop-color="#575B92"/><stop offset="100%" stop-color="#313359"/></linearGradient><linearGradient id="U" x1="32.899%" x2="64.862%" y1="58.331%" y2="93.738%"><stop offset="0%" stop-color="#3B4072"/><stop offset="100%" stop-color="#101028"/></linearGradient><linearGradient id="V" x1="15.411%" x2="65.5%" y1="15.414%" y2="83.005%"><stop offset="0%" stop-color="#363C72"/><stop offset="100%" stop-color="#080819"/></linearGradient><linearGradient id="W" x1="19.844%" x2="88.604%" y1="14.871%" y2="30.541%"><stop offset="0%" stop-color="#35386C"/><stop offset="100%" stop-color="#141635"/></linearGradient><linearGradient id="X" x1="9.215%" x2="86.817%" y1="16.538%" y2="85.056%"><stop offset="0%" stop-color="#313567"/><stop offset="100%" stop-color="#0A091B"/></linearGradient><linearGradient id="Y" x1="35.268%" x2="107.805%" y1="37.03%" y2="113.305%"><stop offset="0%" stop-color="#595E96"/><stop offset="100%" stop-color="#0F0E26"/></linearGradient></defs><g fill="none" fill-rule="evenodd"><g transform="translate(-1)"><mask id="b" fill="#fff"><use xlink:href="#a"/></mask><g mask="url(#b)"><g fill-rule="nonzero" transform="matrix(-1 0 0 1 1525.115 -36)"><path fill="url(#c)" d="M83.115 0h1452.014v866H83.115z"/><path fill="#2190E3" d="M486.014 166.615c-2.752.876-3.639 1.976-2.662 3.3 1.466 1.984 8.433 2.813 15.213 3.398 6.779.584 257.766 3.617 260.733 3.617 2.966 0 4.56 3.001 0 3.281-4.561.28-4.454 3.824 0 3.824h39.728c2.582 0 4.14 2.185 0 3.014-4.14.828-24.122 4.788-26.63 5.158-2.509.37-3.024 3.154 0 3.154h20.516c2.833 0 3.207 2.883 0 3.303-3.207.42-60.89 8.483-64.804 9.026-3.914.543-2.044 4.918 1.693 4.918 3.738 0 230.837-4.918 232.46-4.918 1.625 0 5.222-3.537 0-3.872-5.22-.334-19.37-1.618-20.829-1.618-1.458 0-4.925-2.263 0-3.536 4.925-1.273 126.645-6.644 130.819-6.914 4.173-.27 9.185-7.47 0-7.715-9.186-.246-133.817-4.387-139.812-5.358-5.995-.97-2.178-4.027 0-5.364 2.178-1.338 10.535-6.698 5.432-6.698H486.014z"/><path fill="#0766BE" d="M619.605 246.879c-5.332 1.273-5.332 2.4 0 3.378 7.998 1.468 128.015-2.823 221.442-7.057 4.232 0 4.232-2.98 0-2.98-7.676-.241-15.492-.568-19.684-.827-2.46 0-3.48-2.985 0-3.476 3.48-.492 62.73-1.087 92.618-3.428 4.878-.382 4.3-3.827 0-3.827s-71.951-1.72-114.033-2.89c-3.74-.15-4.137-2.743 0-2.949 4.137-.205 4.137-3.74 0-3.553-4.137.186-201.22-1.542-355.438 0-2.622 0-3.71 3.143 0 3.553 3.71.411 140.715 6.605 242.946 11.338 3.248 0 4.786 3.369.677 3.92-2.74.369-25.582 3.301-68.528 8.798z" opacity=".684"/><path fill="#0C76D9" d="M1082.035 334.74c-1.43.342-1.43.644 0 .906 2.145.394 34.325-.757 59.376-1.892 1.134 0 1.134-.8 0-.8-1.76-.051-3.52-.125-5.278-.221-.66 0-.933-.8 0-.932s16.82-.291 24.833-.92c1.308-.102 1.153-1.025 0-1.025s-19.292-.461-30.575-.775c-1.003-.04-1.11-.736 0-.79 1.109-.056 1.109-1.004 0-.954-1.11.05-53.953-.413-95.304 0-.703 0-.995.843 0 .953.995.11 37.73 1.771 65.141 3.04.87 0 1.284.903.182 1.051-.735.1-6.86.885-18.375 2.36v-.001z" opacity=".684"/><path fill="#2190E3" d="M1598.35 203.847c-258.88-53.266-391.69-80.742-398.433-82.43-10.114-2.533-8.48-12.84 3.937-12.84 4.245 0 150.065-.437 158.272-.437 9.617 0-12.334 6.667 0 9.045 8.223 1.585 86.965 4.676 236.224 9.273v77.389z" opacity=".684"/><path fill="#0075CB" d="M1334.715 192.938c2.06.503 9.823 4.128 0 7.4-9.823 3.273-107.864 19.375-113.397 20.306-5.533.931-8.002 5.518 0 5.518s240.525-12.663 248.066-13.28c7.54-.616 3.652-6.622 0-7.38s-6.954-4.487 0-5.163c6.954-.676 171.989-16.647 179.264-17.527 7.276-.88 5.287-6.58 0-6.58h-140.497c-6.392 0-4.966-5.211 0-6.77 4.967-1.56 27.911-8.413 32.307-11.568 4.396-3.155-.133-5.004-9.481-5.004-9.35 0-358.758-1.35-363.246-1.35-4.488 0-7.333 5.064 0 7.14 7.333 2.077 164.924 33.754 166.984 34.258z" opacity=".684"/><path fill="#0C76D9" d="M1250.103 343.955c-.222.054-1.057.444 0 .797 1.057.352 11.606.577 12.2.677.596.1.862.593 0 .593-.86 0-37.45.145-38.262.08-.811-.067-.613-.795 0-.795h2.692c.634 0 .634-.555 0-.555-.633 0-11.629-.284-12.412-.379-.783-.095-.569-.708 0-.708h17.12c.688 0 .535-.56 0-.728-.534-.168-3.003-.152-3.476-.491-.473-.34.015-.539 1.02-.539 1.007 0 40.517.332 41 .332.483 0 .79.545 0 .768-.789.224-19.66.894-19.882.948z" opacity=".684"/><path fill="#2B9BEF" fill-opacity=".3" d="M603.892 93.757c13.227 0 22.462 5.188 4.371 16.228-18.09 11.04-8.474 14.301 0 14.301h111.713c6.791 0 11.344-6.668 1.535-11.557-9.81-4.888-3.298-9.563 6.628-12.187 9.925-2.625 119.105-31.26 130.451-34.317 11.347-3.056 11.526-19.37 0-19.37-7.683 0-204.757-1.285-591.22-3.855v34.12C482.9 88.211 595.073 93.757 603.892 93.757z"/><g fill="#9CDAFF" transform="translate(702.975 108)"><ellipse cx="418.885" cy="152.437" rx="2.268" ry="2.259"/><ellipse cx="387.884" cy="50.036" rx="3.024" ry="3.012"/><ellipse cx="240.443" cy="183.308" rx="3.024" ry="3.012"/><ellipse cx="2.268" cy="90.695" rx="2.268" ry="2.259"/><ellipse cx="220.028" cy="1.847" rx="1.512" ry="1.506"/><ellipse cx="796.94" cy="106.507" rx="2.268" ry="2.259"/></g><path fill="#0087EB" d="M1004.291 336.274L814.186 431.69l374.462-4.317z"/><path fill="#096DCA" d="M1004.215 336.589l-52.16 52.254 26.08-13.381 54.963 53.689 155.46-1.7z"/><path fill="#0087EB" d="M1089.511 425.263L1395.638 274l306.168 151.263z"/><path fill="#096DCA" d="M1322.771 348.09l72.214-74.09 306.065 151.263h-420.291l67.492-77.173z"/><path fill="#4AB2FD" d="M1353.794 294.704l27.084-6.315-6.192 6.315 16.838-7.721 10.726 6.584 13.261-4.306 18.957 4.306-39.015-19.473z"/><path fill="#63BDFE" d="M1353.794 294.704l27.084-6.315 14.575-14.295z"/><path fill="#0959A5" d="M65.09 438.4c80.496-25.179 149.161-37.767 205.996-37.767 85.251 0 142.849 18.883 249.82 18.883 106.973 0 248.496-18.883 297.7-18.883 49.204 0 137.333 22.704 206.116 22.704 68.783 0 168.557-3.821 231.84-13.896 63.282-10.074 295.576-14.774 314.617-8.808 0 44.646-2.692 222.102-8.077 532.367H65.09V438.4z"/><path fill="url(#d)" d="M.074 11.325c60.317.299 101.386.448 123.207.448 32.731 0 122.524-7.752 166.975-7.998 9.342-.052 178.822 6.496 212.44 6.488 6.522-.001 131.627.81 156.418.385 24.79-.425 125.547-5.128 147.246-5.269 20.863-.136 237.867 4.179 260.88 4.129 23.012-.05 231.414-8.388 266.715-8.835 23.535-.298 80.05.736 169.547 3.102v508.859H.074V11.324v.001z" transform="translate(53 428)"/><path fill="#1C79D1" d="M1166.143 441.252l221.897-5.488-158.146 5.488h-63.751zm-95.753 19.544c2.514 0 68.241-2.73 197.18-8.192h-213.332c8.253 5.461 13.637 8.192 16.151 8.192h.001zm28.952 34.712h216.968l-191.264 27.014-25.704-27.014zm317.846-53.545h-97.864l89.67 6.942 8.194-6.942z"/><path fill="#31346D" d="M448.093 165.396c54.554 15.949 111.524 38.895 165.738 65.204 56.658 27.496 110.305 58.666 155.035 89.365 87.53 60.073 178.84 66.383 271.223 118.237 92.383 51.854 135.448 92.426 241.372 121.321 70.615 19.264 160.82 27.431 270.613 24.502V933.75H66.29V4.749c70.397-5.657 110.75-5.657 121.057 0 137.34 75.385 193.426 140.965 260.746 160.647z"/><path fill="#292558" d="M1208.457 556.11c-246.783-118.044-374.083-173.873-381.9-167.486-11.724 9.579 285.472 152.74 261.01 162.575-24.46 9.834-431.728-203.344-431.728-174.19 0 29.156 240.865 171.457 205.476 171.457-35.389 0-462.855-270.817-492.266-253.539-29.41 17.278 276.17 278.986 237.673 306.037-23.353 16.41-187.638-77.635-522.828-331.175-2.248-1.7-2.248-23.202 0-64.505v362.454c68.46-10.642 112.511-17.066 132.155-19.272 29.465-3.307 116.94-15.017 210.583 25.447s117.712 51.905 216.524 46.013c98.812-5.893 143.313-5.446 171.677 4.265 28.364 9.712 117.214 26.835 201.432 19.54-21.593-7.481-54.573-15.968-98.941-25.462-23.393-7.156-24.393-12.924-2.999-17.305 21.394-4.38 119.438-19.331 294.132-44.854z"/><g fill="#0959A5"><path d="M1351.867 403.971l3.089-13.181 3.09 13.181z"/><path d="M1357.126 403.971l1.608-8.584 1.73 8.584z"/><path d="M1359.393 404.721l1.608-8.584 1.73 8.584h-3.338zm-80.872 7.497l2.737-13.181 2.736 13.181h-5.473zm5.309-3.748l1.608-8.585 1.73 8.585h-3.338z"/><path d="M1276.273 410.719l1.609-8.584 1.729 8.584h-3.338zm207.78-10.538l3.089-13.181 3.09 13.181h-6.179zm30.274.042l3.09-13.181 3.089 13.181h-6.179zm-3.808 0l1.608-8.585 1.73 8.585h-3.338zm-18.135 0l1.608-8.585 1.73 8.585h-3.338zm3.022 2.249l1.609-8.584 1.729 8.584h-3.338zm-389.12 21.742l3.09-13.181 3.09 13.181h-6.18z"/><path d="M1111.546 424.214l1.608-8.584 1.73 8.584h-3.338zm3.022 2.249l1.609-8.584 1.729 8.584h-3.338z"/><path d="M1117.591 425.713l1.608-8.584 1.73 8.584h-3.338zm-15.868 0l1.608-8.584 1.73 8.584h-3.338zm-68.026 2.249l2.736-13.181 2.736 13.181h-5.472zm19.646 0l2.737-13.181 2.736 13.181h-5.473zm-14.338-3.748l1.609-8.584 1.729 8.584h-3.338z"/><path d="M1031.449 426.463l1.608-8.584 1.73 8.584h-3.338zm187.377-8.288l3.09-13.182 3.09 13.182h-6.18z"/></g><g fill="#292558"><path d="M1445.004 453.986c4.596-24.351 7.518-36.527 8.765-36.527 1.247 0 4.16 12.176 8.738 36.527h-17.503z"/><path d="M1456.419 443.332c4.967-26.888 8.07-40.332 9.31-40.332 1.24 0 4.731 13.444 10.476 40.332h-19.786z"/><path d="M1467.073 451.703c4.394-26.888 7.139-40.332 8.236-40.332 1.096 0 4.185 13.444 9.266 40.332h-17.502zm40.332-8.37c4.394-26.889 7.14-40.333 8.236-40.333 1.096 0 4.185 13.444 9.267 40.332h-17.503v.001z"/></g><g fill="#31346D"><path d="M1110.54 502.927c5.787-31.285 9.465-46.927 11.035-46.927 1.57 0 5.236 15.642 11 46.927h-22.035z"/><path d="M1130.17 508.958c6.29-34.3 10.22-51.45 11.79-51.45 1.57 0 5.991 17.15 13.265 51.45h-25.055z"/><path d="M1152.064 522.53c6.29-34.301 10.22-51.451 11.79-51.451 1.57 0 5.992 17.15 13.266 51.45h-25.056v.001z"/></g><path fill="#292558" d="M63.087 747.211c70.921 17.304 142.69 17.304 215.308 0 108.926-25.956 154.193-81.543 227.001-81.543 72.81 0 181.465 42.12 250.968 10.832 69.504-31.288 256.347 14.085 324.105 0 54.64-11.359 112.633-94.142 178.482-122.087 15.913-6.753-25.042-26.956-19.484-29.552 42.813-19.993 84.747-47.53 140.547-73.004 37.2-16.982 96.582-29.934 178.147-38.857v527H63.087l.001-192.789h-.001z"/><path fill="#252145" d="M1199.183 602.843c-2.891.696-9.809 3.765-2.767 6.952 3.524 1.875 7.832 2.433 23.082 5.584 27.138 5.607 99.262 20.843 143.91 30.57a32041.957 32041.957 0 0 0 86.1 18.64c17.435 4.434 22.965 11.06 16.592 19.88 3.176-1.366 12.083-18.27-10.145-23.91-14.818-3.761-45.173-10.535-91.064-20.322-102.105-20.856-155.028-31.645-158.77-32.367-5.613-1.085-10.595-2.972-6.938-5.027zm47.423-80.54c-1.682.753-5.943 2.888-6.756 3.211-.814.324-.829.658-.803.988.027.33 6.794 1.005 8.115 1.146 7.228.775 47.158 6.448 119.788 17.017l70.633 9.801c9.075 1.489 10.449 3.706 4.12 6.652 3.177-1.366 17.67-4.824-4.12-9.307-14.527-2.99-37.894-6.435-70.102-10.338-78.925-10.375-118.842-15.635-119.75-15.78-1.364-.218-3.83-.331-1.125-3.39z"/><path fill="#373A79" d="M1538.495 571.03c-3.336-12.957-15.395-27.47-37.715-27.47-22.32 0-15.421 33.028-32.713 33.028-17.29 0-15.932-11.052-31.881-11.052-15.95 0-25.207 31.923-38.922 31.923-13.715 0-20.912-10.643-35.18-10.643-14.27 0-31.013 10.728-53.421 50.417-1.842 3.263-1.842 5.518 0 6.765l233.638-4.725c-.313-36.858-1.581-59.606-3.806-68.244v.001z"/><path fill="#211E3B" d="M1539.863 576.91c-7.041-18.587-19.294-27.881-36.76-27.881-26.198 0-18.583 52.93-38.915 50.23-20.332-2.698-22.67-11.447-34.706-11.447-12.036 0-18.157 25.706-33.704 25.706-15.546 0-26.104-8.139-35.383-8.139-7.405 0-21.255 10.46-41.551 31.38l30.565 6.786 190.454-4.024c3.132-12.531 4.698-22.556 4.698-30.072 0-7.517-1.566-18.363-4.698-32.538v-.001z"/><path fill="#292558" d="M49.068 572.203C157.1 552.068 241.783 542 303.115 542c92 0 191.236 59.626 250.477 73.122 59.24 13.496 203.129-14.682 283.251 10.073 80.123 24.756 196.484 24.499 285.89 6.769 24.423-4.843 50.679 45.827 107.032 45.827 45.923 0 281.596-102.473 336.407-86.859V946H49.068V572.203z"/><path fill="#252145" d="M1349.787 643.442a39105.81 39105.81 0 0 0 99.66 21.612c17.421 4.441 22.947 11.078 16.579 19.911 3.173-1.368 12.073-18.298-10.137-23.947-14.807-3.767-46.803-10.828-95.99-21.183l-10.112 3.607z"/><path fill="#1E1B37" d="M1318.886 636.69l4.223-4.13 36.413 7.336-10.324 3.543z"/><path fill="#2B2E62" d="M1313.048 630.127l9.965 2.427-4.212 4.277-8.723-1.913z"/><path fill="url(#e)" d="M.592 403.628l644.927-247.102c22.416-8.428 22.416-15.584 0-21.468s-73.406-19.114-152.969-39.691c-27.554-7.82-25.799-14.273 5.266-19.36 30.51-4.998 130.83-24.833 311.777-48.909 7.599-1.01 7.28-2.967-.958-5.87L778.743 9.07 791.025.64c141.79 19.96 215.077 30.289 219.861 30.989 7.177 1.05 19.707 2.469.697 7.99-12.671 3.681-86.191 15.811-220.558 36.387-29.471 5.26-31.268 10.358-5.391 15.294 38.815 7.405 214.01 45.55 232.43 49.647 18.418 4.097 41.321 11.6 6.232 33.901-23.392 14.868-143.389 91.128-359.989 228.78H.592z" transform="translate(426 523)"/><path fill="url(#f)" d="M306.12 294.442c220.195-87.087 335.475-132.752 345.838-136.997 15.546-6.367 23.082-17.132 0-23.811-23.082-6.68-157.413-40.236-167.148-43.411-9.735-3.176-7.778-7.193 2.312-9.456s321.504-52.057 326.326-53.22c4.823-1.163 3.792-2.837.491-4.45-2.2-1.077-4.414-1.758-6.643-2.045 7.2 2.282 9.179 4.06 5.938 5.334-6.68 1.26-19.795 2.883-54.402 7.616-14.694 2.01-57.232 8.075-104.25 15.486-63.714 10.042-135.688 22.191-158.076 26.654-38.91 7.756-19.867 13.049-13.065 16.764 4.3 2.348 95.863 24.007 167.623 44.701.669.193 25.369 6.006-1.29 16.914-24.581 10.057-142.166 55.182-352.754 135.374l9.1 4.547z" transform="translate(426 523)"/><path fill="url(#g)" d="M298.115 289.276c221.033-84.269 336.73-128.525 347.094-132.77 15.546-6.367 26.66-13.61 3.578-20.29-23.082-6.679-156.144-40.32-165.878-43.496-9.735-3.176-8.736-11.452 1.354-13.715s322.31-50.778 327.132-51.941c4.823-1.164 3.792-2.837.491-4.45-2.2-1.077-4.414-1.758-6.643-2.045 7.2 2.281 9.179 4.06 5.938 5.334-6.68 1.26-20.767 3.366-55.374 8.1-14.695 2.01-57.233 8.074-104.251 15.485-63.713 10.042-138.739 21.841-161.777 25.334-27.588 4.183-16.993 17.19-11.931 19.086 5.06 1.896 158.758 42.023 166.233 44.312 7.475 2.29 25.603 4.455-1.056 15.362-24.581 10.058-142.585 53.773-354.01 131.146l9.1 4.548z" transform="translate(426 523)"/><path fill="#0959A5" d="M1239.162 526.751c61.348 19.267 162.648 36.242 184.947 38.81 7.836-1.393 13.044-2.765 15.734-3.62 2.69-.853 16.067-4.615.3-6.832-15.767-2.217-145.5-20.566-200.981-28.358zm-36.31 85.625c30.261 17.044 105.473 50.164 225.635 99.36l26.544-17.094c22.513-15.443 17.078-26.075-16.305-31.896-53.962-11.225-185.402-40.297-235.874-50.37z"/><path fill="#1955A6" d="M1420.844 574.138c-8.145 9.432-15.15 22.726-24.011 22.726-13.735 0-20.942-10.646-35.232-10.646-.436 0-.875.01-1.316.031l28.783-119.612a3.037 3.037 0 0 1 3.659-2.232 3.026 3.026 0 0 1 2.247 2.232l6.862 28.514-6.88 8.056v6.772l9.12-5.519 16.768 69.678z"/><path fill="#2B388E" d="M1388.626 468.595c4.344 5.253 6.516 10.247 6.516 14.982 0 7.102-4.237 15.24-4.237 24.95 0 9.708 1.248 21.048 9.912 34.592 8.664 13.543 8.36 23.404 0 38.569-2.362 4.284-5.44 9.227-9.111 14.65-6.136-.975-15.084-6.469-19.22-8.016-2.757-1.032-6.83-1.732-12.221-2.102l28.36-117.625h.001z"/><path fill="#1955A6" d="M1382.254 592.972c-.52-.247-.978-.47-1.348-.64-7.113-3.298-9.768-5.316-20.491-6.112-8.733.367-15.95 5.02-24.408 11.956l20.796-86.503a3.037 3.037 0 0 1 3.658-2.233 3.026 3.026 0 0 1 2.248 2.233l4.674 19.44-5.346 6.268v5.267l7.087-4.293 13.13 54.617z"/><path fill="#2B388E" d="M1356.65 510.734c3.302 4.09 4.953 7.98 4.953 11.669 0 5.532-3.221 11.87-3.221 19.432 0 7.562.948 16.395 7.534 26.944 4.29 6.873 5.68 12.64 4.375 19.012-2.766-.756-8.135-1.848-12.095-1.3-3.96.547-8.988 3.369-10.548 4.609-1.04.826-4.939 3.223-11.697 7.19l20.699-87.556z"/><g transform="translate(36.05 393)"><path fill="#31346D" d="M798.795 236.325l-10.553 27.92 55.152 13.876 20.298-5.671-9.995-22.221z"/><path fill="#1A1737" d="M788.242 264.245l-134.445 23.392 189.597-9.516-55.152-13.876zm55.196 14.317l20.298-5.67-9.995-22.222-10.303 27.892z"/><ellipse cx="777.279" cy="252.18" fill="#31346D" rx="9.451" ry="3.775"/><path fill="#1A1737" d="M773.12 252.545l1.879-.677v1.817l3.035-2.458 1.757 1.318 2.274-1.318-4.031-2.067z"/><path fill="url(#h)" d="M520.103 116.64c46.523 19.225 62.003 24.34 67.689 57.656 5.686 33.315 65.117 53.569 95.506 55.498 30.39 1.93 68.52-.748 80.385 4.006 11.865 4.754 14.922 7.673 12.711 13.184h2.494c3.013-6.6-1.669-12.033-14.044-16.301-18.564-6.403-23.784-5.633-57.216-5.633s-48.873-5.422-64.21-12.37c-15.336-6.948-32.061-24.184-15.002-34.914 17.058-10.73 49.721-23.924 19.452-51.123-30.27-27.2-91.983-59.712-183.871-68.506-91.888-8.794-122.37-61.531-230.568-36.748C167.87 36.406 55.467-23.914 18.1 12.705c-54.015 52.932 26.06 193.255 85.976 161.59 43.034-22.741 106.554-43.57 174.39-65.947C346.3 85.971 473.58 97.414 520.103 116.64z"/></g><g><path fill="#221D40" d="M592.95 746.443l-33.018-39.274 16.509 33.72-16.509-14.083-39.02-36.136 22.855 27.886-22.855-11.387-43.444-51.371 27.66 51.37-57.338-60.975 29.678 44.477 7.536 21.765 107.946 47.477-.001-13.47.001.001zm250.97 91.936s-41.527-35.801-44.179-39.274c-2.652-3.473 18.589 32.588 22.09 35.931 3.5 3.343-20.96-13.959-42.982-35.931-22.023-21.972 27.086 35.931 27.086 35.931s-12.872-6.831-17.913-9.916-41.333-38.223-49.918-52.184c-8.586-13.96 26.109 47.036 33.427 49.61 4.878 1.716-.997-1.03-17.626-8.24-21.683-19.147-36.62-34.575-44.813-46.284-12.29-17.564 22.99 41.618 29.012 43.951 4.014 1.556-.604-1.91-13.856-10.399-11.598-7.485-20.097-14.948-25.499-22.39-8.102-11.162 9.354 22.958 15.906 27.874 4.367 3.277 43.01 16.952 115.93 41.024l13.335-9.703zM237.397 574.563c-24.466-12.9-39.487-35.207-46.173-42.94-6.685-7.732 28.728 40.098 26.809 40.098-1.28 0-5.734-3.64-13.363-10.919-18.083-13.548-31.014-25.114-38.793-34.697 4.467 9.212 22.77 30.07 27.756 34.697 4.985 4.627-27.756-19.205-39.327-29.178 13.468 16.218 28.373 31.603 38.145 37.092 6.515 3.659 22.142 10.885 46.88 21.679 15.022-1.955 14.377-7.233-1.934-15.832z"/><path fill="#221D40" d="M0 512.51c176.74 0 369.45 134.208 563.564 219.505 194.114 85.297 331.747 136.892 544.918 148.436 142.114 7.696-227.38 7.696-1108.482 0V512.51z"/><path fill="url(#i)" d="M39.413 158.183c18.444-16.556 22.046-79.802 79.073-126.947 24.426 4.811 83.545 24.024 160.436 64.198 76.89 40.173 457.172 229.583 635.027 257.786-28.926 45.447-418.432 7.533-495.352 22.027-18.861 3.554-254.99-4.674-269.019-15.013-9.576-7.058 212.528-136.56 200.365-138.186-33.876-4.528-31.556-41.058-58.365-29.331C168.41 246.59 56.795 254.812 45.65 246.59c-11.144-8.221-49.428-49.64-6.237-88.408v.001z" transform="translate(0 512)"/><path fill="#221D40" d="M851.774 850.625c-16.397 8.767-74.67 8.724-78.95 9.605-4.28.882 35.41-12.4 40.245-12.625 4.835-.226-24.976-3.216-56.012-1.081-31.036 2.134 44.015-9.347 44.015-9.347s-14.196-3.29-20.025-4.27c-5.828-.978-56.27 1.731-71.91 6.635-15.638 4.904 50.564-18.37 57.776-15.51 4.807 1.905-1.428.123-18.708-5.346-28.926.225-50.322 2.069-64.187 5.531-20.797 5.194 44.655-16.327 50.73-14.137 4.051 1.46-1.709 1.046-17.279-1.241-13.663-1.96-24.974-1.904-33.933.169-13.438 3.108 22.121-11.19 30.29-10.601 5.447.392 43.583 15.423 114.409 45.095 8.116.37 12.369 1.397 12.757 3.084.94 4.09 27.179-4.728 10.782 4.039zm-265.586-93.723l-51.308-.048 36.442-9.028-21.4-3.594-52.763-6.664 36.054-.417-23.415-10.188-67.278-.26 57.133-11.83-83.567-4.73 53.148-5.855 21.518-8.217 105.754 52.173-10.318 8.658zM219.371 580.9c-26.422-8.18-52.816-3.028-63.011-2.287-10.195.74 48.667-8.04 47.31-9.397-.906-.904-6.629-1.48-17.17-1.728-22.367-3.206-39.689-4.171-51.965-2.896 9.672-3.356 37.364-5.162 44.16-4.909 6.797.254-33.206-6.046-48.44-7.176 20.991-1.944 42.41-2.284 53.2.746 7.195 2.019 23.354 7.959 48.48 17.82 9.239 12.003 5.051 15.28-12.564 9.827z" opacity=".596"/></g><g><path fill="#1A1737" d="M73.101 599.236l91.353-86.504 90.299-21.763 103.208-28.51 179.866-5.293 5.223-6.798-169.521.129 44.022-18.382 33.214-9.524v-3.907l-38.312 9.613-49.183 17.302-31.728 11.567-36.196 12.091 28.618-49.656-7.607-80.245 36.036-58.218-2.583-2.598-39.659 60.816 6.206 80.245-27.829 42.858-13.712 8.881-20.063 3.419-72.998 13.955 64.269-80.179V372.97l-57.58 49.049 33.858-84.872 39.515-32.671 58.794-63.623L334.261 190h-3.585l-14.021 47.786-57.951 57.21-50.049 35.923-16.272 38.482-6.198-42.422-29.346-33.334-29.658-56.851-18.326-16.782-1.946 2.615 16.118 14.167 28.961 62.245 28.91 31.88 5.287 42.051-5.287 22.568-4.391 12.997-5.958 13.484-14.513 36.916-82.935 61.682z"/><path fill="#3D4184" d="M238.61 417.787l7.414-9.252V372.97l-7.414 6.306-9.707 23.728 9.707 14.783zm-46.227-48.386l-6.199-42.422-29.346-33.334-29.657-56.851-18.326-16.782-.689 1.089 17.326 15.693 28.925 58.84 29.026 33.031 6.015 42.592 2.925-1.856zm-3.939 52.618l33.858-84.872 39.515-32.671 58.793-63.623L334.261 190h-1.213l-14.236 49.433-59.287 61.267-42.774 33.814-23.312 52.69-9.131 26.046-8.956 25.23 13.092-16.461z"/><path fill="#3D4184" d="M174.045 499.955l80.707-19.364c15.871-1.865 27.744-3.81 35.62-5.832 7.876-2.023 31.808-9.036 71.795-21.038l178.98-.93 1.903-2.423-180.883-2.129 50.286-17.928 38.311-9.85v-1.777l-38.311 9.613-49.184 17.302-31.727 11.567-35.848 12.06-15.42 4.19 8.253-6.092 30.675-47.723-6.775-80.245 38.536-59.42-1.153-1.396-39.66 60.816 6.207 80.245-27.83 42.858-13.711 8.88-20.064 3.42-72.727 13.655-7.98 11.541z"/><path fill="#1A1737" d="M333.371 314.059c2.414 8.56 7.234 12.407 21.338 8.956-1.483-7.386-4.708-10.63-9.005-12.632-4.297-2.003-10.195-1.248-12.333 3.676zm-225.353-75.062c4.047.544 6.612.356 7.693-.566 1.623-1.382 2.921-2.793 2.1-5.622-2.077-1.417-3.49-1.071-6.047.544-1.56.986-2.81 2.867-3.746 5.644z"/></g><g transform="translate(471.654 371)"><path fill="#1A1737" d="M0 22.34C0 13.22 5.866 0 25.104 0s25.211 15.23 25.211 22.34v87.665l-7.154 8.825v-13.705l-9.834 7.624V82.58h-4.63C10.638 82.58 0 66.588 0 58.235V22.34z"/><path fill="#3D4184" d="M50.315 22.34v87.665l-1.51 1.86V22.34C49.038 13.316 40.442 0 25.105 0c19.238 0 25.211 15.295 25.211 22.34h-.001z"/><path fill="#3D4184" d="M18.077 15.932c-2.291 0-4.594.756-6.342 2.57-3.497 3.629-3.4 9.223 0 12.851L25.539 46.17l13.803-14.817c3.401-3.628 3.497-9.222 0-12.85-3.496-3.478-9.188-3.478-12.684 0l-1.12 1.209-1.119-1.21c-1.749-1.814-4.05-2.57-6.342-2.57z"/><ellipse cx="17.153" cy="23.842" fill="#1A1737" rx="2.668" ry="2.649"/><ellipse cx="33.162" cy="23.842" fill="#1A1737" rx="2.668" ry="2.649"/></g><g><path fill="#1A1737" d="M302.548 666.188c3.01 11.693 3.01 24.44-1.49 30.125-4.499 5.685-14.18 11.812-33.688 18.01 6.952 4.728 16.778 6.394 25.625 3.856 8.847-2.538 24.983-2.538 27.448 4.663 2.464 7.201-11.058 22.564-14.885 24.732 6.126 2.248 29.126 3.005 42.397-9.51 13.271-12.516 34.453-12.316 42.615-12.316 8.162 0 36.809 2.346 52.726 6.427-2.888-6.427-20.134-16.745-34.66-22.498 0-5.843 16.994-6.46 23.977-15.305-6.312 0-17.397 2.095-25.253-3.743-7.857-5.838-4.24-21.967-5.238-25.587-.61-2.21 1.099-8.083-7.428-10.939-5.434-1.82-25.806-.839-38.535-.839-12.73 0-27.599 0-35.716 2.826-8.118 2.826-12.04 3.764-17.895 10.098z"/><path fill="#3D4184" d="M302.252 666.219c9.754 9.199 34.916 7.853 54.92 7.853 20.003 0 39.567-4.771 44.418-9.002-.609-2.216 1.096-8.102-7.41-10.964-5.422-1.825-25.745-.841-38.445-.841s-27.532 0-35.63 2.832c-8.1 2.833-12.012 3.773-17.853 10.122z"/><path fill="#1A1737" d="M327.737 659.795c-5.363.578-8.044 1.763-8.044 3.555 0 2.687 5.212 5.394 11.181 6.313 5.97.919 15.217.955 21.425 0 0-.414.035-.397-.389-.665-2.943.498-7.85.75-12.387.665-3.84-.071-7.469-.675-9.17-.92-3.71-.532-9.96-2.86-9.96-5.393.21-1.492 2.658-2.461 7.344-2.908v-.647zm46.665 9.815c5.487-.578 8.231-1.763 8.231-3.555 0-2.687-5.333-5.394-11.441-6.313-6.108-.919-15.571-.955-21.923 0 0 .414-.036.397.397.665 3.012-.498 8.034-.75 12.676-.665 3.93.071 7.643.675 9.383.92 3.797.532 10.191 2.86 10.191 5.393-.214 1.492-2.719 2.461-7.514 2.908v.647zm20.363-6.04c0-2.73-5.25-5.48-11.261-6.413-.972-.15-2.03-.278-3.147-.381 0 .381.019.381.019.802 1.541.188 2.824.394 3.652.514 3.738.54 10.031 2.906 10.031 5.479h.706v-.001z"/></g><g transform="translate(318.442 517)"><path fill="#1A1737" d="M11.303 13.091c-.792.53 1.355 10.919 3.514 15.703 2.16 4.785 5.307 9.812 10.65 13.505 5.342 3.693 3.695 11.646 0 16.127-3.695 4.48-8.795 10.312-13.778 19.654-4.983 9.342-8.188 14.2-10.144 22.875-1.956 8.674-2.977 24.545 2.738 33.929 5.716 9.384 17.777 18.643 31.612 21.64 13.835 2.997 27.151 1.693 30.272.818 3.12-.875 9.049 6.401 8.051 15.498-.997 9.096-5.261 16.033-24.83 23.631 7.8 3.607 31.058 4.621 46.633-4.688 15.575-9.31 18.905-30.917 11.82-46.045-4.696-10.023-9.197-17.109-21.224-22.319-10.165-4.404-27.43-4.535-31.124-4.535-3.694 0-1.758-5.415 0-8.721 1.758-3.307 4.125-4.971 6.544-10.332 2.42-5.362 4.13-21.75 0-29.786-4.129-8.036-6.544-8.677-8.302-10.275-1.758-1.598 0-7.418 1.758-11C57.25 45.186 66.68 36.3 70.449 33.257c2.513-2.029 4.102-5.111 4.767-9.248.301-3.83.301-6.396 0-7.698-.453-1.953-2.94-1.492-7.394 0-4.453 1.492-12 2.967-12.976 1.953-.976-1.014-1.507-5.976-14.99-5.174C36.4 6.902 28.797-.409 27.643.018c-1.155.426-2.175 7.438.569 20.835-5.962-6.061-16.116-8.291-16.908-7.762h-.001z"/><path fill="#3D4184" d="M51.823 112.336c-.753 3.902.344 7.464 3.449 6.701-3.702 0-1.761-5.419 0-8.728 1.761-3.31 4.134-4.975 6.558-10.34 2.424-5.366 4.351-21.8.214-29.843-4.138-8.042-6.23-8.57-8.157-10.307-1.928-1.736-.174-7.373 1.587-10.958 1.761-3.586 11.142-12.422 14.919-15.467 3.777-3.045 4.712-7.016 5.33-9.286.62-2.27.194-5.756-.26-7.711-.349-1.505-2.335-1.595-5.07-.867-1.085.144 1.13 7.827-.652 11.238-1.78 3.41-4.909 7.516-8.6 10.294-3.691 2.777-8.826 8.057-10.089 9.932-3.758 5.58-2.676 11.156-.594 14.876 2.081 3.72 6.623 7.31 8.62 12.187 1.996 4.877 1.996 14.465 1.406 17.879-.59 3.414-1.353 7.335-3.034 10.146-1.682 2.81-4.875 6.352-5.627 10.254zm-38.16-96.447c-.783.536 2.564 10.537 5.3 14.273 5.08-1.523 5.625-2.067 7.378-5.941-4.375-5.352-11.896-8.868-12.678-8.332z"/><ellipse cx="46.662" cy="22.622" fill="#3D4184" rx="2.258" ry="2.262"/><path fill="#1A1737" d="M75.999 20.36c.05-1.823-.025-3.145-.224-3.968-.368-1.526-2.053-1.718-4.953-.973-.85.219 3.44 4.94 5.177 4.94v.001z"/><path fill="#3D4184" d="M78.491 182.674c-.756 0-4.942 2.777-6.105 5.1-1.64-1.926-1.146-3.742-1.146-5.72-3.256 4.755-9.506 9.108-21.568 13.708 6.746 3.063 25.045 4.224 39.95-1.424-.285-1.393 0-2.628 2.536-4.355-3.84 0-5.17 2.351-6.293 4.106-.392-1.583-1.388-7.337 1.507-9.13-3.003 0-8.603 4.812-8.88 5.985-.468-.455-1.392-6.96 0-8.27h-.001zM68.895 30.153C62.36 36.51 57.557 40.093 54.484 40.9c-4.61 1.212-9.56 3.468-11.228 11.998 1.522-3.401 3.434-3.938 5.655-3.938-3.582 2.96-4.133 5.77-3.582 10.32 1.689-3.888 3.388-5.226 5.31-3.888.79-2.15 3.163-6.388 7.12-12.717l10.584-9.329.552-3.194v.001z"/></g><ellipse cx="1230.206" cy="232.5" fill="#ACE0FF" rx="18.526" ry="18.5"/><g fill="#0959A5"><path d="M1320.767 642c-17.097 46.726-24.764 70.667-23.001 71.821 1.763 1.155 21.927-18.291 60.492-58.338L1320.767 642z"/><path d="M1328.396 665.348c-19.826 51.912-28.737 78.61-26.733 80.097 2.005 1.486 25.138-19.64 69.398-63.375l-42.665-16.722z"/></g></g></g></g><g fill-rule="nonzero"><path fill="url(#j)" d="M172 0h1450v866H172z" transform="matrix(-1 0 0 1 1612 -100)"/><path fill="url(#k)" d="M172 101h1450v355H172z" transform="matrix(-1 0 0 1 1612 -100)"/><g transform="matrix(-1 0 0 1 822 23)"><ellipse cx="417.039" cy="151.175" fill="#9CDAFF" rx="1" ry="1"/><ellipse cx="385.826" cy="48.52" fill="#9CDAFF" rx="1.5" ry="1.496"/><ellipse cx="238.589" cy="181.792" fill="#9CDAFF" rx="1.5" ry="1.496"/><ellipse cx="1.5" cy="89.932" fill="#9CDAFF" rx="1.5" ry="1.496"/><ellipse cx="219.723" cy="1.847" fill="#9CDAFF" rx="1.51" ry="1.506"/><ellipse cx="795.07" cy="105.744" fill="#9CDAFF" rx="1.5" ry="1.496"/><ellipse cx="637.017" cy="17.499" fill="#00EAE1" rx="1" ry="1"/><ellipse cx="557.017" cy="67.499" fill="#00EAE1" rx="1" ry="1"/><ellipse cx="317.017" cy="87.499" fill="#00EAE1" rx="1" ry="1"/><ellipse cx="477.017" cy="107.499" fill="#00EAE1" rx="1" ry="1"/><ellipse cx="167.017" cy="107.499" fill="#1B9D98" rx="1" ry="1"/><ellipse cx="107.017" cy="47.499" fill="#1B9D98" rx="1" ry="1"/></g><g opacity=".077"><path fill="#454773" d="M520.103 236.274l189.841 95.416-275.157-3.176-45.915-27.303z"/><path fill="#0A0F21" d="M520.178 236.589l52.088 52.254-26.044-13.381-54.887 53.689-63.895-7.225-38.736-19.671z"/></g><g opacity=".104"><path fill="#233155" d="M435 325.263L129.298 174l-305.744 151.263z"/><path fill="#0A0F20" d="M202.064 248.09L129.95 174l-305.641 151.263h419.708l-67.398-77.173z"/><path fill="#63BDFE" d="M171.083 194.704l-27.046-6.315-14.555-14.295z"/></g><path fill="url(#l)" d="M154 438.4c80.384-25.179 148.954-37.767 205.71-37.767 85.133 0 142.65 18.883 249.474 18.883 106.824 0 248.15-18.883 297.286-18.883 49.136 0 137.143 22.704 205.83 22.704 68.689 0 168.324-3.821 231.519-13.896 63.194-10.074 295.166-14.774 314.181-8.808 0 44.646-2.689 222.102-8.066 532.367H154V438.4z" transform="matrix(-1 0 0 1 1612 -100)"/><path fill="url(#m)" d="M925 333.005c74.504-60.114 130.32-94.2 167.452-102.258 55.696-12.088 58.62 42.827 87.017 33.973 28.397-8.855 38.468-33.973 80.165-33.973s50.502 50.4 94.103 50.4c43.601 0 164.976 15.565 195.048 51.858 20.049 24.195-187.88 24.195-623.785 0z" opacity=".474" transform="translate(-863.108 -100)"/><g fill="#252151" opacity=".174"><path d="M173.008 303.971l-3.085-13.181-3.086 13.181z"/><path d="M167.756 303.971l-1.606-8.584-1.728 8.584z"/><path d="M165.492 304.721l-1.606-8.584-1.727 8.584zm80.759 7.497l-2.732-13.181-2.733 13.181zm-5.301-3.748l-1.606-8.585-1.727 8.585z"/><path d="M248.496 310.719l-1.606-8.584-1.727 8.584zM41.005 300.181L37.92 287l-3.086 13.181zm-30.232.042l-3.086-13.181-3.085 13.181zm3.802 0l-1.606-8.585-1.727 8.585zm18.11 0l-1.606-8.585-1.727 8.585zm-3.018 2.249l-1.606-8.584-1.727 8.584zm388.58 21.742l-3.085-13.181-3.085 13.181z"/><path d="M412.995 324.214l-1.606-8.584-1.727 8.584zm-3.018 2.249l-1.606-8.584-1.728 8.584z"/><path d="M406.959 325.713l-1.606-8.584-1.728 8.584zm15.846 0l-1.606-8.584-1.728 8.584zm67.931 2.249l-2.732-13.181-2.733 13.181zm-19.619 0l-2.732-13.181-2.733 13.181zm14.318-3.748l-1.606-8.584-1.727 8.584z"/><path d="M492.981 326.463l-1.606-8.584-1.727 8.584zm-187.118-8.288l-3.085-13.182-3.085 13.182z"/></g><path fill="url(#n)" d="M0 11.325c60.233.299 101.245.448 123.036.448 32.686 0 122.354-7.752 166.743-7.998 9.33-.052 178.574 6.496 212.146 6.488 6.513-.001 131.444.81 156.2.385 24.757-.425 125.374-5.128 147.043-5.269 20.834-.136 237.537 4.179 260.517 4.129 22.98-.05 231.094-8.388 266.346-8.835 23.502-.298 79.94.736 169.312 3.102v508.859H0V11.324z" transform="matrix(-1 0 0 1 1470 328)"/><path fill="#19173F" fill-opacity=".027" d="M358.474 341.252l-221.589-5.488 157.927 5.488zm95.621 19.544c-2.511 0-68.147-2.73-196.907-8.192h213.036c-8.241 5.461-13.617 8.192-16.129 8.192z"/><path fill="#69435F" d="M425.183 395.508H208.516l190.998 27.014z" opacity=".396"/><path fill="#19173F" fill-opacity=".027" d="M107.777 341.963h97.729l-89.546 6.942z"/><g fill="url(#o)" transform="matrix(-1 0 0 1 414 356)"><path d="M0 46.927C5.779 15.642 9.452 0 11.02 0c1.567 0 5.229 15.642 10.985 46.927H0z"/><path d="M19.602 52.958c6.282-34.3 10.206-51.45 11.774-51.45 1.567 0 5.983 17.15 13.247 51.45h-25.02z"/><path d="M41.467 66.53c6.281-34.301 10.206-51.451 11.773-51.451 1.568 0 5.984 17.15 13.248 51.45H41.467z"/></g><path fill="#243257" d="M579.361 304.554l9.894-46.026 15.686 43.789-4.796-31.367 16.685 32.378-2.938-33.581 7.612 12.915 1.373-28.893 10.747 23.575 4.51-12.302.38-29.305 8.25 15.943 2.418-21.57 6.065 8.36 7.585-37.25 7.515 23.524 5.82 18.993 3.788-9.628 3.787-18.299 3.644 23.651 1.894 5.66 6.34-5.815 4.081-6.648L708 253.474l5.397-22.014 9.513 31.29 4.947-32.555 4.1 5.931 4.593-37.72 5.76 5.28 4.689-23.5 5.485 16.825 4.513-8.46 6.291 21.18 4.246-8.251 6.527 20.102 5.721-19.572 11.253 28.948 7.134-20.883 5.126 15.443 4.665-44.547c3.125 5.51 4.607 7.346 4.446 5.51-.16-1.838 1.754-12.34 5.743-31.505l7.22 20.232 8.608 14.674 6.654-11.769 7.312 27.607 5.447-10.15 2.55 6.056 5.433-15.815 4.306-3.992 2.274-10.337 7.261 18.786 4.053 20.276 3.008-13.592 5.65-15.134 7.741 29.125 5.078-13.237 2.87-19.205 4.815 10.652 5.39-35.44 8.298 34.242 2.14-17.158 3.48-4.546 2.545-13.978 5.492 17.516 5.096-25.55 8.588 20.112 8.681-7.576 6.967-14.656 6.951 13.438 9.173-7.741 12.583 143.824-412.424 36.082-2.027-23.168z"/><path fill="#243257" d="M774 206.713l13.868-44.989 11.81 44.989-2.045-31.666 13.8 33.71v-33.71l6.457 13.53 3.887-28.663 8.651 24.421 5.566-11.861 3.543-36.135 6.218 23.575 4.899-28.251 4.703 15.831 10.938-43.97 10.393 22.397v19.657l5.566-4.553 4.074-20.594 2.266 15.908h3.91l2.999 15.506 4.646-6.267 6.452-18.54 7.295-11.46 6.75 32 7.764-42 3.569 6.267 7.863-27.177 5.278-4.237 6.718-23.003 3.998 17.24 5.234-8.035 4.42 21.648 4.95-17.85 4.75 20.594 7.405-18.998 8.686 29.818 8.928-20.182 3.76 15.831 8.53-43.97c2.633 5.76 3.95 7.72 3.95 5.875 0-1.844 2.822-12.139 8.466-30.884l5.43 20.784 7.296 15.369 7.654-11.144 4.878 18.139 6.311-9.636 2.013 6.254 6.79-15.281 4.638-3.6 3.166-20.1 5.596 19.346 2.27 20.553 4.181-13.278 6.949-14.584 5.173 29.688 6.212-12.744 4.533-18.882 3.867 11.032 8.458-34.835 5.283 34.835 3.628-6.907 3.862-4.225 3.754-13.703 3.944 17.928 7.304-25.009 6.802 20.784 9.309-6.791 8.218-13.993 5.753 13.993 9.813-6.912v164.373l-414 40v-23.256z"/><path fill="#211F46" d="M244.878 427.723l-1.77-33.976-4.611 11.915-4.374-19.892-7.747 14.574-6.51-10.302-3.38-8.305-8.25 7.943-10.547-15.935-3.52-16.525-7.516 16.524-5.82 7.993-5.574-25.926-5.878 9.494-6.787-29.178-10.69 24.77-6.419-18.651-6.317 10.681-5.024-22.732-6.573 12.05-6.12-12.84-5.76 5.281-4.688-23.5-5.485 16.825-4.514-8.46-9.936 10.643-5.33-8.326-7.112 14.258h-5.647l-6.242-19.976-9.098 18.537-13.654-18.537-7.05 14.044-4.954-23.314-4.602 21.131-4.498-15.531-4.755 15.532-7.71 94.502z"/><path fill="#211F46" d="M80 353.986c-4.59-24.351-7.508-36.527-8.753-36.527s-4.153 12.176-8.725 36.527H80z"/><path fill="#211F46" d="M68.601 343.332C63.641 316.444 60.541 303 59.304 303s-4.725 13.444-10.461 40.332H68.6z"/><path fill="#211F46" d="M57.962 351.703c-4.388-26.888-7.13-40.332-8.225-40.332-1.094 0-4.18 13.444-9.254 40.332h17.479zm-40.277-8.37C13.297 316.443 10.556 303 9.461 303c-1.095 0-4.18 13.444-9.254 40.332h17.478z"/><path fill="url(#p)" d="M536.471 165.396c54.478 15.949 111.37 38.895 165.508 65.204 56.58 27.496 110.152 58.666 154.82 89.365 87.41 60.073 178.592 66.383 270.847 118.237 92.255 51.854 135.26 92.426 241.037 121.321 70.518 19.264 160.597 27.431 270.238 24.502V933.75H155.198V4.749c70.3-5.657 110.596-5.657 120.889 0C413.236 80.134 469.245 145.714 536.47 165.396z" transform="matrix(-1 0 0 1 1612 -100)"/><path fill="#222440" d="M589.255 388.528l15.685 43.788-4.795-31.366 16.686 32.378-2.938-33.58 7.61 12.913 1.374-28.892 10.748 23.575 4.51-12.301.38-29.306 8.249 15.943 2.418-21.57 6.065 8.361 7.585-37.25 7.515 23.524 5.82 18.992 3.788-9.628 3.786-18.299 3.645 23.65 1.894 5.66 6.34-5.815 4.082-6.648 8.297 20.816 20.747-20.815 7.803-34.252 5.76 5.28 4.688-23.5 5.486 16.826 4.513-8.461 6.291 21.181 4.246-8.252 6.527 20.102 29.235 3.937 14.853-70.543 15.908 69.769-253.45 102.9z"/><path fill="#222440" d="M788.115 297.914l9.017 25.156 2.803-15.342 4.557 14.342 4.218-19.596 6.948 16.156 9.582-28.91 5.189 24.615 9.108-39.996 6.218 23.575 4.899-28.251 4.703 15.831 11.48-35.063 11.928 25.147 7.564-18.147 5.271 12.232 2.355-6.776 5.037 15.16 10.367-25.818 7.482 23.349 4.603-18.147 2.861 8.908 4.778-15.908 6.603 15.908 9.434-25.908 6.719-23.003 9.231 23.003 2.124-12.937 2.297 20.787L979 206.062l10.282 25.783 6.928-20.182 10.754 32.358 4.502 25.642-237.465 90.306zm318.246-63.36l9.894-46.026 15.685 43.789-4.795-31.367 16.685 32.378-2.938-33.581 7.612 12.915 1.373-28.893 10.747 23.575 4.51-12.302.38-29.305 8.25 15.943 2.418-21.57 6.065 8.36 7.585-37.25 7.515 23.524 5.82 18.993 3.788-9.628 3.786-18.299 3.644 23.651 1.895 5.66 6.34-5.815 4.081-6.648 8.298 20.816 5.397-22.014 9.513 31.29 4.946-32.555 4.101 5.931 4.593-37.72 5.76 5.28 4.689-23.5 5.485 16.825 4.513-8.46 6.291 21.18 4.246-8.251 6.527 20.102 5.721-19.572 11.252 28.948 7.135-20.883 5.126 15.443 4.665-44.547c3.125 5.51 4.607 7.346 4.446 5.51-.16-1.838 1.754-12.34 5.743-31.505l7.22 20.232 8.608 14.674 6.654-11.769 7.312 27.607 5.447-10.15 2.55 6.056 5.433-15.815 4.306-3.992 2.274-10.337 7.261 18.786 4.053 20.276 3.008-13.592 5.65-15.134 7.741 29.125 5.078-13.237 2.87-19.205 4.815 10.652 5.39-35.44 8.298 34.242 2.14-17.158 3.48-4.545 2.545-13.979 5.492 17.516 5.096-25.55 8.588 20.112 8.681-7.576 6.967-14.656 6.951 13.438 9.173-7.741 12.583 143.824-412.424 36.082-2.027-23.168z"/><path fill="url(#q)" d="M289.743 297.777c54.477 15.949 163.191-34.34 217.33-8.03 56.58 27.495 111.657 56.94 156.325 87.639C750.807 437.459 799.745 406.24 892 458.095S1087.276 609.105 1193.052 638c70.518 19.264 186.228-11.046 295.87-13.975V973.75H5.197c-11.198-392.395-.083-625 33.344-697.814 37.475-81.63 232.031 16.228 251.2 21.84z" transform="matrix(-1 0 0 1 1612 -100)"/><path fill="#222440" fill-opacity=".5" d="M581.283 452.109l68.036-15.423-33.73-1.402 28.097-2.59-20.035-3.097 3.204-2.64 16.831-1.75-9.479-2.567 17.106-3.376-7.627-4.383 5.633-3.842 23.19-3.094-7.678-3.807 16.015-1.826-5.34-3.128 26.022-3.17-17.439-7.36h12.577l13.142-2.63-16.783-7.133 8.503-3.553 6.195-2.425c-2.956-2.233-4.776-3.674-5.46-4.323-19.836 11.622-60.163 39.462-120.98 83.519z"/><path fill="#262642" fill-opacity=".5" d="M731.217 352.095l26.533 2.425-5.687-4.47 19.973 2.264-4.93-4.946H779l-14.128-8.445 7.383-.324c-.146-.112-1.223-.927-3.232-2.444-11.846 3.886-24.448 9.2-37.806 15.94z"/><path fill="url(#r)" fill-opacity=".3" d="M0 91.693l29.644 12.412-8.49-10.436 8.49 4.602-4.32-8.011 12.413 8.01-1.578-5.833 21.963 8.21-8.014-8.21 11.149 4.745-9.685-11.99L78.987 98.27l-9.569-14.515 21.747 9.913-6.584-9.913 39.487 6.504-8.774-15.353 31.008 4.008-12.442-10.717h13.609l-6.95-8.165 24.747 6.66-10.19-15.823 17.835 3.484-5.909-6.337 17.447 2.853-9.784-7.375h38.9l-9.928-9.105 8.507 1.255-13.885-9.574h34.03l-12.123-10.986h19.597L225.81.456c-32.932 19.266-54.064 32.546-63.394 39.841-2.59 2.026-20.313 12.135-38.894 20.907-8.435 3.983-18.09 7.055-27.075 9.612-10.013 2.85-19.294 4.915-27.029 6.329C55.11 79.76 39.067 82.73 20.27 86.579 15.556 87.544 8.8 89.25 0 91.693z" transform="translate(780.237 241)"/><path fill="#303051" d="M410.127 382.805c16.726 9.962 24.634 15.567 23.91 16.892-.724 1.324-13.033-1.814-39.95-6.93l16.04-9.962zm-18.503 11.303c24.783 15.206 33.608 19.663 32.622 22.024-.986 2.36-17.842-2.36-54.234-9.2l21.612-12.824zm-22.095 12.66c17.51 9.49 32.871 17.192 31.796 18.46-1.076 1.269-15.71-1.268-52.98-6.574l21.184-11.885z"/><path fill="url(#s)" d="M1236.918 710.644c-12.008-79.853 43.53-128.286 109.287-156.23 15.89-6.754-25.008-26.957-19.457-29.553 42.754-19.993 84.63-47.53 140.352-73.004 37.148-16.982 96.448-29.934 177.9-38.857v527c-267.439-122.21-403.466-198.663-408.082-229.356z" transform="matrix(-1 0 0 1 1612 -100)"/><path fill="url(#t)" d="M4.268 28.03C7.6 15.072 19.64.56 41.93.56s15.4 33.028 32.667 33.028c17.267 0 15.91-11.052 31.838-11.052 15.927 0 25.172 31.923 38.867 31.923 13.696 0 20.883-10.643 35.132-10.643 14.25 0 30.97 10.728 53.347 50.417 1.839 3.263 1.839 5.518 0 6.765L.467 96.273c.313-36.858 1.58-59.606 3.8-68.244z" transform="translate(-17.628 443)"/><path fill="url(#u)" d="M16.706 33.91C23.737 15.324 35.973 6.03 53.414 6.03c26.162 0 18.558 52.93 38.862 50.23 20.304-2.698 22.637-11.447 34.657-11.447 12.02 0 18.132 25.706 33.658 25.706 15.525 0 26.068-8.139 35.334-8.139 7.395 0 21.226 10.46 41.493 31.38l-30.522 6.786c-35.714 6.26-60.448 9.244-74.203 8.953-28.51-.603-67.172-4.929-115.987-12.977-3.128-12.531-4.692-22.556-4.692-30.072 0-7.517 1.564-18.363 4.692-32.538z" transform="translate(-31.432 443)"/><path fill="#1A1638" d="M657.276 505.701c5.867 6.312 10.912 15.208 17.295 15.208 9.894 0 15.085-7.124 25.378-7.124.314 0 .63.007.948.02l-20.733-80.04c-.28-1.084-1.46-1.753-2.635-1.494-.802.177-1.428.754-1.62 1.493l-4.942 19.081 4.956 5.392v4.53l-6.57-3.692-12.077 46.626z"/><path fill="url(#v)" d="M20.517 3.075c3.13 3.515 4.694 6.857 4.694 10.025 0 4.753-3.052 10.199-3.052 16.696 0 6.497.899 14.085 7.14 23.148 6.24 9.063 6.022 15.662 0 25.81-1.702 2.866-3.919 6.174-6.563 9.803-4.42-.652-10.865-4.329-13.844-5.364-1.986-.69-4.92-1.16-8.803-1.407L20.517 3.075z" transform="matrix(-1 0 0 1 701 432)"/><path fill="#1E193B" d="M631.48 517.83c.375-.164.706-.312.974-.427 5.138-2.198 7.056-3.543 14.802-4.074 6.31.245 11.523 3.348 17.633 7.971l-15.023-57.669c-.282-1.08-1.465-1.746-2.643-1.488-.804.176-1.432.751-1.624 1.488l-3.377 12.961 3.863 4.178v3.511l-5.12-2.862-9.485 36.411z"/><path fill="url(#w)" d="M15.024 1.005c2.385 2.727 3.577 5.32 3.577 7.78 0 3.687-2.326 7.913-2.326 12.955 0 5.041.685 10.93 5.442 17.962 3.1 4.582 4.104 8.426 3.161 12.675-1.998-.504-5.877-1.233-8.738-.867-2.86.365-6.492 2.246-7.62 3.072-.75.552-3.567 2.15-8.45 4.793l14.954-58.37z" transform="matrix(-1 0 0 1 665 462)"/><path fill="#141234" d="M715 476.713l13.868-44.989 11.81 44.989-2.045-31.666 13.8 33.71v-33.71l6.457 13.53 3.887-28.663 8.651 24.421 5.566-11.861 3.543-36.135 6.218 23.575 4.899-28.251 4.703 15.831 12.79-43.97 14.107 37.501 5.437-20.594 7.812 31.414 4.646-6.267 6.452 21.46 7.295-21.46 6.75 32 7.764-32 3.569 6.267 7.863-37.177 5.278 5.763 6.718-23.003 3.998 17.24 5.234-8.035 4.42 21.648 4.95-7.85 4.75 20.594 7.405-18.998 8.686 29.818 8.928-20.182 3.76 15.831 8.53-43.97c2.633 5.76 3.95 7.72 3.95 5.875 0-1.844 2.822-12.139 8.466-30.884l5.43 20.784 7.296 15.369 7.654-11.144 4.878 28.139 6.311-9.636 2.013 6.254 6.79-15.281 4.638-3.6 3.166-10.1 5.596 19.346 2.27 20.553 4.181-13.278 6.949-14.584 5.173 29.688 6.212-12.744 4.533-18.882 3.867 11.032 8.458-34.835 5.283 34.835 3.628-16.907 3.862-4.225 3.754-13.703 3.944 17.928 7.304-25.009 6.802 20.784 9.309-6.791 8.218-13.993 5.753 13.993 9.813-6.912v144.373H715v-23.256z"/><path fill="#141234" d="M1035 388.713l13.868-44.989 17.801 41.708 10.49-5.01 16.259-60.272 10.762 23.574 7.474-30.061 4.703 15.831 10.938-43.97 10.393 42.054 9.64-25.147 9.175 31.414 4.646-6.267 6.452 21.46 7.295-21.46 6.75 32 7.764-32 3.569 6.267 7.863-37.177 5.278 5.763 6.718-23.003 3.998 17.24 5.234-8.035 4.42 21.648 4.95-7.85 4.75 20.594 7.405-18.998 8.686 29.818 8.928-20.182 3.76 15.831 18.258-68.979 15.414 36.153 4.584-15.369 7.948 32.364 15.948-32.364 14.836 39.9 11.13-27.862 5.173 29.688 6.212-12.744 4.533-18.882 3.867 11.032 8.458-34.835 8 17.928 16.495-39.315 18.335 39.315 11.962-25.009L1449 285.524v126.445h-414v-23.256z"/><path fill="url(#x)" d="M.208 82.45c107.882-20.135 92.95 9.656 154.197 9.656 91.871 0 254.733 7.973 313.892 21.469 59.159 13.495 257.048 90.012 341.708 122.876 22.442 8.712 49.954 21.576 76.88 29.502 74.645 21.973 158.676 33.04 224.292 20.01 24.388-4.842 50.607 45.828 106.883 45.828 27.37 0 158.53-19.774 205.629-38.225 48.96-19.18 130.311-122.32 130.311-48.634V600H39L.208 82.45z" transform="matrix(-1 0 0 1 1514 246)"/><path fill="#1C1639" d="M715.06 478.165l47.604 11.437-16.573-13.821 16.573 5.55-11.022-9.916 5.716-1.933 19.575 11.848-10.591-14.127 24.76 14.127-8.737-14.127 8.737 2.28 21.983 8.682-10.15-10.962 28.81 14.127-12.095-14.127 47.625 4.212L838.748 454l26.698 3.568-14.818-15.02 26.415 1.595-9.768-8.409 9.768-4.184 21.139 4.184-18.737-11.566 36.546 11.566-6.964-8.487 22.171 10.463-11.207-10.463 8.353-3.08-8.353-6.277 11.207-1.675-11.207-7.97 5.543-2.786h7.643l-7.643-6.775c-8.382 3.051-14.55 5.31-18.503 6.775-7.313 2.712-14.303 5.217-20.923 7.677-52.729 19.591-83.466 31.268-92.305 34.767-10.849 4.294-37.096 14.382-78.743 30.262z" opacity=".3"/><path fill="#1C1639" fill-opacity=".3" d="M950.358 389.884l13.617 6.3-2.368-6.19 27.103 8.543-7.384-10.195-4.538-7.683z"/><g fill="#1B1739" fill-opacity=".29"><path d="M632.556 510.02c33.606 3.374 51.066 5.14 52.378 5.298 1.969.237 2.716-.778 2.716-1.857s-.884-2.073-1.928-2.465c-.695-.261-9.718-3.745-27.066-10.451l-26.1 9.475z"/><path d="M657.906 500.475c48.442 6.948 73.319 10.501 74.631 10.66 1.969.237 2.716-.778 2.716-1.858s-.884-2.072-1.928-2.464c-.695-.261-14.293-6.983-40.792-20.165l-34.627 13.827z"/></g><path fill="#252145" d="M175.086 543.442c-29.7 6.495-62.875 13.7-99.522 21.612-17.397 4.441-22.915 11.078-16.556 19.911-3.169-1.368-12.056-18.298 10.123-23.947 14.786-3.767 46.738-10.828 95.856-21.183l10.099 3.607z"/><path fill="#1E1B37" d="M205.945 536.69l-4.218-4.13-36.362 7.336 10.309 3.543z"/><path fill="#2B2E62" d="M211.774 530.127l-9.951 2.427 4.206 4.277 8.711-1.913z"/><path fill="url(#y)" d="M0 403.628l644.032-247.102c22.385-8.428 22.385-15.584 0-21.468-22.384-5.884-73.303-19.114-152.756-39.691-27.516-7.82-25.763-14.273 5.258-19.36 30.468-4.998 130.648-24.833 311.345-48.909 7.588-1.01 7.27-2.967-.957-5.87L777.072 9.07 789.336.64c141.593 19.96 214.779 30.289 219.557 30.989 7.167 1.05 19.68 2.469.696 7.99-12.655 3.682-86.073 15.811-220.253 36.388-29.43 5.26-31.224 10.358-5.383 15.294 38.761 7.405 213.713 45.55 232.107 49.647 18.394 4.097 41.265 11.6 6.224 33.901-23.36 14.868-143.19 91.128-359.49 228.78H0z" transform="matrix(-1 0 0 1 1097 423)"/><path fill="url(#z)" d="M300.907 291.736c219.92-85.54 337.825-131.126 348.174-135.37 11.484-4.711 17.442-9.205 12.82-14.373-1.753-1.962-8.406-4.356-11.233-4.82-.755-.123 24.236 6.44-2.386 17.348-24.548 10.057-141.969 55.182-352.265 135.374l4.89 1.84z" transform="matrix(-1 0 0 1 1097 423)"/><path fill="url(#A)" d="M485.989 79.662c4.734-.975 53.691-10.198 113.136-19.838C691.96 44.77 808.793 28.256 811.729 27.547c4.816-1.163 3.786-2.837.49-4.45-2.197-1.077-4.408-1.758-6.634-2.045 7.19 2.282 9.166 4.06 5.93 5.334-6.671 1.26-19.767 2.883-54.326 7.616-14.674 2.01-57.154 8.075-104.107 15.486-63.625 10.042-135.5 22.191-157.856 26.654-6.575 1.313-11.509 2.367-15.14 3.52-17.043 5.412-2.847 10.626.294 12.115-6.96-5.967-6.52-9.616 5.609-12.115z" transform="matrix(-1 0 0 1 1097 423)"/><path fill="#69435F" d="M285.557 426.751c-61.263 19.267-162.423 36.242-184.69 38.81-7.826-1.393-13.026-2.765-15.712-3.62-2.687-.853-16.045-4.615-.3-6.832 15.745-2.217 145.298-20.566 200.702-28.358z"/><path fill="#69435F" d="M161.31 584.9c2.33-.976 4.636-1.944 6.92-2.903 5.95 23.963 8.627 32.941 10.189 32.912 1.728-.034 6.214-14.333 13.456-42.898 65.42-27.796 108.735-47.674 129.942-59.635-50.402 10.073-181.66 39.145-235.547 50.37-33.337 5.821-38.765 16.453-16.283 31.896l26.508 17.093c13.338-5.468 26.12-10.737 38.349-15.808 7.217 25.884 10.538 35.926 12.35 35.8 2.011-.141 6.716-15.75 14.116-46.827z" opacity=".426"/><g fill="#12112C"><path fill-opacity=".105" d="M415.35 680c4.062 0 42.082 13.628 114.061 40.884h-20.456C442.491 693.628 411.29 680 415.351 680zm-165-11c4.062 0 42.082 13.628 114.061 40.884h-20.456C277.491 682.628 246.29 669 250.351 669zm297 6c4.062 0 42.082 13.628 114.061 40.884h-20.456C574.491 688.628 543.29 675 547.351 675z"/><path fill-opacity=".087" d="M332 497c34.42 2.443 47.738 5.84 39.956 10.194-7.782 4.353-21.1 8.836-39.956 13.45 20.895-7.882 30.343-13.142 28.345-15.782-1.999-2.64-11.447-5.26-28.345-7.862z"/><path fill-opacity=".092" d="M460.812 553.348c-24.08 0-38.862 2.33-44.346 6.993-5.483 4.663 5.245 11.787 32.187 21.372-16.86-9.167-23.722-15.496-20.585-18.987 3.138-3.49 14.052-6.617 32.744-9.378z" opacity=".253"/><path fill-opacity=".055" d="M362.185 481.686c136.489 13.173 167.202 25.466 92.14 36.88-36.394 5.533-126.674-7.06-141.732 10.19-23.482 26.898-47.86 31.105-75.232 34.254-40.447 4.653-76.55 43.768 0 71.634 76.55 27.865 157.376-1.603 216.965 14.501 17.094 4.62 40.492 17.603 70.192 38.948-41.168-45.02-77.006-67.53-107.512-67.53-45.759 0-58.984 5.681-104.413-18.715-45.43-24.397 65.222-14.773 90.608-38.838 25.386-24.065 86.715-24.065 110.524-34.255 23.809-10.19 18.102-31.681-12.175-36.794-20.185-3.409-66.64-6.834-139.365-10.275z"/></g><g><path fill="#252145" d="M325.48 502.843c2.887.696 9.795 3.765 2.764 6.952-3.52 1.875-7.822 2.433-23.051 5.584-27.1 5.607-99.125 20.843-143.71 30.57a31959.002 31959.002 0 0 1-85.982 18.64c-17.41 4.434-22.932 11.06-16.568 19.88-3.171-1.366-12.066-18.27 10.13-23.91 14.798-3.761 45.111-10.535 90.94-20.322 101.962-20.856 154.812-31.645 158.549-32.367 5.605-1.085 10.58-2.972 6.928-5.027z"/><path fill="#8B5494" d="M284.979 426.96c-.026.33-52.504 7.798-125.034 18.367L89.1 455.18c-9.062 1.489-12.961 1.818-6.054 6.066-1.117-.422-13.404-3.841 1.607-6.066 15.01-2.225 43.129-7.147 75.292-11.05 34.033-4.48 60.655-8.235 80.036-10.963 25.502-3.589 38.441-5.466 38.957-5.549 1.362-.217 6.067-.987 6.041-.658z"/></g><g><path fill="#444479" d="M104.383 474.138c8.133 9.432 15.127 22.726 23.977 22.726 13.716 0 20.913-10.646 35.183-10.646.436 0 .874.01 1.315.031l-28.744-119.612a3.033 3.033 0 0 0-3.654-2.232 3.024 3.024 0 0 0-2.244 2.232l-6.852 28.514 6.87 8.056v6.772l-9.107-5.519-16.744 69.678z"/><path fill="url(#B)" d="M28.444 4.595c4.339 5.253 6.508 10.247 6.508 14.982 0 7.102-4.232 15.24-4.232 24.95 0 9.708 1.246 21.048 9.899 34.592 8.652 13.543 8.349 23.404 0 38.569-2.359 4.284-5.433 9.227-9.1 14.65-6.126-.975-15.061-6.469-19.192-8.016-2.753-1.032-6.821-1.732-12.204-2.102L28.444 4.595z" transform="matrix(-1 0 0 1 165 364)"/><path fill="#444479" d="M142.663 492.746c.52-.247.977-.47 1.347-.64 7.103-3.298 9.754-5.316 20.462-6.112 8.721.367 15.928 5.02 24.374 11.956l-20.767-86.503a3.033 3.033 0 0 0-3.653-2.233 3.024 3.024 0 0 0-2.245 2.233l-4.668 19.44 5.34 6.268v5.267l-7.078-4.293-13.112 54.617z"/><path fill="url(#B)" d="M20.768 1.508c3.297 4.09 4.946 7.98 4.946 11.669 0 5.532-3.216 11.87-3.216 19.432 0 7.562.947 16.395 7.523 26.944 4.284 6.873 5.672 12.64 4.37 19.012-2.763-.756-8.125-1.848-12.08-1.3-3.954.547-8.974 3.369-10.532 4.609-1.038.826-4.932 3.223-11.681 7.19l20.67-87.556z" transform="matrix(-1 0 0 1 189 409)"/></g><path fill="url(#C)" d="M172 101h1450v784H172z" transform="matrix(-1 0 0 1 1612 -100)"/><g transform="matrix(-1 0 0 1 1504 163)"><ellipse cx="855" cy="406.5" fill="url(#D)" rx="62" ry="24.5"/><ellipse cx="828" cy="434.5" fill="url(#D)" rx="62" ry="24.5"/><path fill="url(#E)" d="M581.999 275.664c26.061-5.881 139.208 10.676 123.623 47.653-15.584 36.977 65.027 53.569 95.374 55.498 30.347 1.93 68.425-.748 80.273 4.006 11.85 4.755 14.901 7.673 12.694 13.184 5.499-6.599.824-12.032-11.535-16.301-18.538-6.403-23.75-5.633-57.136-5.633s-48.805-5.422-64.12-12.37c-15.315-6.948-32.018-24.184-14.983-34.914 17.036-10.73 49.653-23.923 19.425-51.123-30.227-27.2-105.768-42.169-183.615-68.505-77.848-26.337-108.696-135.282-253.996-103.064-65.88 14.609-276.4-129.186-297.951-99.484C-96.923 179.609 223.724 337.63 224.206 336.18c27.924-83.898 133.58-62.34 224.07-52.557 64.428 6.966 122.345-4.483 133.723-7.96z"/><path fill="url(#F)" d="M10.687.325c-.358 4.497-1.462 9.197-3.313 14.1a64.427 64.427 0 0 1-7.225 13.82L55.224 42.12l21.77-5.17-11.078-23.325L10.687.325z" transform="translate(775 362)"/><path fill="#1A1737" d="M830.27 403.898l20.268-5.006-9.98-22.222c-.737 4.3-2.007 8.838-3.811 13.614a89.856 89.856 0 0 1-6.476 13.614z" opacity=".68"/><path fill="#974272" d="M841.305 382c.463 4.151.695 7.267.695 9.347 0 2.08-.232 5.196-.695 9.347"/><path fill="url(#G)" d="M41.631 20L0 25.444l17.803 8.317z" transform="matrix(-1 0 0 1 884 382)"/><path fill="#1B1A47" fill-opacity=".382" d="M775.149 390.245L640.89 413.637l189.334-9.516zm-30 30L610.89 443.637l189.334-9.516z"/><path fill="url(#F)" d="M10.687.325c-.358 4.497-1.462 9.197-3.313 14.1a64.427 64.427 0 0 1-7.225 13.82L55.224 42.12l21.77-5.17-11.078-23.325L10.687.325z" transform="translate(744 392)"/><path fill="#1A1737" d="M799.27 433.898l20.268-5.006-9.98-22.222c-.737 4.3-2.007 8.838-3.811 13.614a89.856 89.856 0 0 1-6.476 13.614z" opacity=".68"/><path fill="#974272" d="M810.305 412c.463 4.151.695 7.267.695 9.347 0 2.08-.232 5.196-.695 9.347"/><path fill="url(#G)" d="M41.631 21L0 26.444l17.803 8.317z" transform="matrix(-1 0 0 1 853 412)"/><g transform="matrix(-1 0 0 1 904 396)"><ellipse cx="9.438" cy="3.775" fill="#12112C" opacity=".557" rx="9.438" ry="3.775"/><path fill="url(#H)" d="M5 3.385l1.876-.677v1.817l3.031-2.458 1.754 1.318 2.271-1.318L9.907 0z"/></g></g><g><path fill="url(#I)" d="M438.034 220.338l-32.97-39.274 16.485 33.72-16.486-14.083-38.966-36.136 22.823 27.886-22.823-11.387-43.384-51.371 27.623 51.37-57.26-60.975 29.637 44.477 7.526 21.765 107.795 47.477v-13.47zm250.624 91.936S647.188 276.473 644.54 273c-2.647-3.473 18.563 32.588 22.06 35.931 3.495 3.343-20.93-13.959-42.923-35.931-21.992-21.972 27.05 35.931 27.05 35.931s-12.855-6.831-17.89-9.916c-5.033-3.085-41.275-38.223-49.848-52.184-8.574-13.96 26.072 47.036 33.38 49.61 4.872 1.716-.995-1.03-17.6-8.24-21.654-19.147-36.571-34.575-44.752-46.284-12.272-17.564 22.958 41.618 28.972 43.951 4.009 1.556-.603-1.91-13.837-10.399-11.581-7.485-20.07-14.948-25.463-22.39-8.091-11.162 9.341 22.958 15.883 27.874 4.362 3.277 42.952 16.952 115.77 41.024l13.316-9.703zM82.977 48.458c-24.433-12.9-39.433-35.207-46.11-42.94-6.675-7.732 28.69 40.098 26.772 40.098-1.278 0-5.726-3.64-13.344-10.919C32.238 21.15 19.325 9.583 11.556 0c4.46 9.212 22.739 30.07 27.717 34.697C44.251 39.324 11.556 15.492 0 5.52 13.45 21.737 28.335 37.122 38.093 42.61 44.6 46.27 60.204 53.496 84.91 64.29c15-1.955 14.356-7.233-1.932-15.832z" transform="matrix(-1 0 0 1 1362.908 425.105)"/><path fill="#24284D" d="M1517 411.51c-176.495 0-368.937 134.208-562.782 219.505-193.845 85.297-331.288 136.892-544.163 148.436-141.917 7.696 227.065 7.696 1106.945 0v-367.94z"/><path fill="url(#J)" d="M39.042 91.724c13.81-7.428 39.699-26.857 77.663-58.288 24.393 4.812 107.12 29.272 183.904 69.446 75.71 39.612 436.96 251.834 768.873 275.13H45.272l-6.23-286.288z" transform="matrix(-1 0 0 1 1517 409)"/><path fill="#24284D" d="M666.37 746.554c16.39 8.773 74.617 8.77 78.894 9.653 4.277.884-35.39-12.416-40.221-12.645-4.832-.23 24.954-3.196 55.966-1.042 31.013 2.154-43.987-9.372-43.987-9.372s14.184-3.278 20.007-4.252c5.823-.975 56.227 1.768 71.857 6.68 15.63 4.911-50.536-18.394-57.74-15.542-4.803 1.901 1.427.125 18.689-5.329 28.904.245 50.284 2.102 64.14 5.572 20.784 5.205-44.63-16.348-50.7-14.163-4.046 1.456 1.709 1.046 17.265-1.23 13.651-1.949 24.953-1.885 33.906.193 13.43 3.116-22.11-11.198-30.274-10.616-5.441.388-43.163 18.621-115.589 45.346-8.11.364-11.055 1.032-11.442 2.718-.937 4.086-27.16-4.744-10.771 4.029zm271.299-99.518c15.185 2.441 34.174 3.659 56.964 3.653l-36.427-9.045 21.385-3.577 52.728-6.622-36.033-.441 23.394-10.165 67.24-.213-57.109-11.86 83.517-4.669-53.122-5.886-21.511-8.225-105.659 52.058c4.586 3.848 6.13 5.512 4.633 4.992zm362.91-173.337c27.764-2.454 61.12 2.181 71.31 2.928 10.188.747-48.64-8.067-47.284-9.422.904-.904 6.623-1.476 17.156-1.716 22.35-3.188 39.658-4.14 51.928-2.858-9.668-3.36-37.342-5.184-44.134-4.935-6.792.248 33.18-6.019 48.403-7.138-20.98-1.958-42.383-2.311-53.164.708-7.188 2.013-23.332 7.938-48.433 17.774 13.82 2.205 6.732-7.005 4.218 4.659z" opacity=".596"/></g><g><path fill="url(#K)" d="M469.297 404.37l-91.226-81.638-90.173-21.763-103.066-28.51-179.616-5.293L0 260.368l169.286.129-43.961-18.382-33.168-9.524v-3.907l38.259 9.613 49.115 17.302 31.684 11.567 36.145 12.091-28.578-49.656 7.596-80.245-35.986-58.218 2.58-2.598 39.604 60.816-6.198 80.245 27.791 42.858 13.693 8.881 20.036 3.419 72.896 13.955-64.18-80.179V182.97l57.5 49.049-33.811-84.872-39.46-32.671-58.712-63.623L208.5 0h3.58l14.001 47.786 57.87 57.21 49.98 35.923 16.249 38.482 6.191-42.422 29.305-33.334 29.616-56.851 18.301-16.782 1.943 2.615-16.096 14.167-28.921 62.245-28.87 31.88-5.278 42.051 5.278 22.568 4.386 12.997 5.95 13.484 14.492 36.916 82.82 71.141z" transform="translate(980.703 84)"/><path fill="url(#L)" d="M162.99 227.787l-7.404-9.252V182.97l7.404 6.306 9.693 23.728z" transform="translate(1121.731 84)"/><path fill="url(#L)" d="M35.016 179.401l6.191-42.422 29.305-33.334 29.616-56.851 18.301-16.782.688 1.089-17.302 15.693-28.886 58.84-28.985 33.031-6.006 42.592z" transform="translate(1295.867 84)"/><path fill="url(#L)" d="M247.724 232.019l-33.811-84.872-39.46-32.671-58.712-63.623L102.11 0h1.211l14.216 49.433 59.204 61.267 42.715 33.814 23.28 52.69 9.118 26.046 8.944 25.23z" transform="translate(1087.093 84)"/><path fill="url(#L)" d="M469.297 309.955l-80.595-19.364c-15.849-1.865-27.706-3.81-35.57-5.832-7.866-2.023-31.764-9.036-71.696-21.038l-178.732-.93-1.9-2.423 180.632-2.129-50.216-17.928-38.258-9.85v-1.777l38.258 9.613 49.115 17.302 31.684 11.567 35.798 12.06 15.398 4.19-8.241-6.092-30.632-47.723 6.765-80.245-38.483-59.42 1.152-1.396 39.604 60.816-6.197 80.245 27.79 42.858 13.693 8.88 20.036 3.42 72.626 13.655 7.97 11.541z" transform="translate(879.899 84)"/><path fill="#1A1737" d="M1190.091 208.059c-2.411 8.56-7.224 12.407-21.309 8.956 1.482-7.386 4.702-10.63 8.993-12.632 4.291-2.003 10.181-1.248 12.316 3.676zm225.045-75.068c-4.046.545-6.61.358-7.691-.561-1.621-1.38-2.919-2.788-2.097-5.615 2.078-1.417 3.491-1.072 6.046.54 1.56.984 2.807 2.863 3.742 5.636z"/></g><path fill="url(#M)" d="M118.818 739.466c7.168 5.383 25.424 10.314 54.768 14.793 29.344 4.48 79.92 50.597 151.726 138.351 81.086 13.1 137.582 13.1 169.487 0s43.223-46.903 33.952-101.412l-281.806-65.88-128.127 14.148z" opacity=".193" transform="translate(961.3 -100)"/><g transform="matrix(-1 0 0 1 1236 484)"><path fill="url(#N)" d="M140.425 108c-1.23 10.129-2.468 18.003-2.468 24.617 0 6.613 4.83 14.215 10.157 15.318 5.326 1.102 10.135 2.221 10.135 4.535 0 2.313-2.222 4.449-3.395 4.84-1.173.392-4.16.392-7.02.392-3.405 0-5.758-.114-7.07-.392-1.313-.277-3.723-1.192-6.756-4.078-3.033-2.887-11.741-26.311-12.942-34.206-1.2-7.895 20.589-21.155 19.359-11.026z"/><path fill="url(#O)" d="M127.379 13.091C123.927 6.902 116.334-.409 115.18.018c-1.153.426-2.172 7.438.568 20.835 2.546-6.422 9.13-7.056 11.63-7.762z"/><path fill="url(#P)" d="M99.287 10.091c-.79.53 1.353 10.919 3.51 15.703 2.156 4.785 5.3 9.812 10.634 13.505 5.336 3.693 4.719 14.11 2.172 20.059s-7.01 14.048-19.48 19.048c-12.469 5-23.335 17.79-29.467 27.43-6.133 9.64-16.898 26.552-11.19 35.936 5.707 9.384 26.835 9.751 40.409 5.205 6.922-2.318 27.078-10.392 27.078-26.127 0-15.736 18.708-10.38 20.463-13.687 1.755-3.307 4.12-4.971 6.535-10.332 2.416-5.362 4.124-21.75 0-29.786-4.123-8.036-6.535-8.677-8.29-10.275-1.756-1.598 0-7.418 1.755-11 1.755-3.583 11.172-12.47 14.936-15.512 2.509-2.029 4.095-5.111 4.76-9.248.3-3.83.3-6.396 0-7.698-.453-1.953-2.937-1.492-7.384 0-4.447 1.492-10.543 1.953-12.958 1.953-2.415 0-10.203-3.777-14.985-3.131-4.782.645-7.795.645-11.613 5.719-5.954-6.061-16.094-8.291-16.885-7.762z"/><path fill="url(#Q)" d="M136.496 52.009c-1.116.405-2.175 1.84-3.23 4.272-.55-4.55 0-7.36 3.577-10.32-2.218 0-4.127.537-5.647 3.938 1.666-8.53 6.609-10.786 11.212-11.998 2.001-.527 4.736-2.233 8.205-5.118 3.002-2.668 5.51-6.097 7.032-9.015 1.779-3.411-.433-11.094.65-11.238 2.731-.728 4.715-.638 5.064.867.453 1.955.878 5.441.26 7.711-.619 2.27-1.552 6.24-5.324 9.286-3.771 3.045-13.14 11.88-14.898 15.467-1.759 3.585-3.51 9.222-1.585 10.958 1.925 1.736 4.014 2.265 8.146 10.307 4.132 8.042 2.42 24.456 0 29.821-2.421 5.366-4.802 7.044-6.561 10.353-1.759 3.31-3.898 8.737-.202 8.737-3.1.763-4.196-2.799-3.444-6.701s3.94-7.443 5.619-10.254c1.68-2.811 2.44-6.732 3.03-10.146.59-3.414.59-13.002-1.404-17.879-1.994-4.877-6.53-8.468-8.608-12.187-1.056-1.89-1.854-4.257-1.892-6.861z"/><path fill="url(#R)" d="M101.644 12.89c-.782.535 2.561 10.536 5.293 14.272 5.073-1.523 5.617-2.067 7.368-5.941-4.37-5.352-11.88-8.868-12.661-8.332z"/><ellipse cx="134.597" cy="19.622" fill="#6D73AB" rx="2.255" ry="2.262"/><path fill="#282C58" d="M163.893 17.36c.05-1.823-.024-3.145-.223-3.968-.368-1.526-2.05-1.718-4.946-.973-.848.219 3.435 4.94 5.17 4.94z"/><path fill="url(#S)" d="M83.907 143.808c11.686 1.5 16.386 2.97 21.785 4.36 1.74.45 9.642 1.985 9.642 4.996 0 3.425-4.091 3.61-8.821 3.61H49.45c-6.238 0-15.278-.977-24.272-9.544-7.54-7.182-12.091-17.49-12.091-30.35s4.213-21.391 7.19-30.59C23.255 77.091 16.453 59.7.81 52.807 20.277 45.983 44.142 49.15 54.1 65.754c9.959 16.604 5.508 32.121 3.972 39.765-1.537 7.643-10.159 31.119-1.181 36.161 8.978 5.043 15.33.628 27.016 2.128z"/><path fill="url(#T)" d="M20.784 78.815C19.631 69.6 12.831 58.103.81 52.807 20.277 45.983 44.142 49.15 54.1 65.754c-4.892-3.036-7.959-3.633-10.863-2.703 3.264 3.507 4.303 6.92 1.86 9.285-.315-2.847-5.098-7.548-8.397-7.548.437 2.046 3.41 7.896 0 10.045-1.152-3.971-7.157-7.339-7.774-7.236-.24-2.073 3.23 8.013-.938 9.53.698-4.897-5.262-7.46-5.492-7.156 2.561 4.517 0 8.301-1.712 8.844z"/></g><g transform="translate(990 276)"><path fill="#181A3A" d="M28.885 24C12.295 33.866 4 48.866 4 69c35.43 0 47.771-26.436 46.963-33.26-7.631 1.238-14.99-2.675-22.078-11.74z"/><path fill="url(#U)" d="M68 23c-1.693 33.739-18.652 51.183-50.878 52.333C12.57 80.096 12.57 82.74 6.48 88.481 7.892 77.66 12.172 70.178 12.295 67.7c.568-11.493 8.216-32.262 16.542-37.44C36.621 25.42 49.676 23 68 23z"/><path fill="url(#V)" d="M26.037 33C8.679 44.989 0 60.989 0 81c35.391 0 49.775-30.015 48.968-36.798C41.345 45.433 33.7 41.7 26.037 33z"/><circle cx="45.5" cy="22.5" r="22.5" fill="url(#W)"/><path fill="url(#X)" d="M67.945 23.47C67.555 35.425 57.645 45 45.48 45 33.064 45 23 35.032 23 22.737a4.9 4.9 0 0 1 .044-.658C23.144 14.839 29.1 9 36.434 9c3.508 0 6.7 1.335 9.087 3.52A13.415 13.415 0 0 1 54.608 9C62.004 9 68 14.938 68 22.263c0 .407-.018.81-.055 1.206z"/><path fill="url(#Y)" d="M65.992 22.936c.005.088.008.176.008.265C66 34.136 56.822 43 45.5 43S25 34.136 25 23.201c0-.089.003-.177.008-.265-.005-.145-.008-.29-.008-.436C25 16.149 30.149 11 36.5 11c3.486 0 6.61 1.551 8.719 4a57.643 57.643 0 0 1 .562 0c2.11-2.449 5.233-4 8.719-4C60.851 11 66 16.149 66 22.5c0 .146-.003.291-.008.436z"/><path fill="#0D0E29" d="M59.875 21.885c-.284-1.262-1.848-2.589-4.683-1.455-1.89.756-2.954 2.92-3.192 6.49 2.916.24 4.994-.061 6.232-.905 1.858-1.267 1.927-2.868 1.643-4.13z"/><circle cx="55.5" cy="23.5" r="1.5" fill="#6D73AB"/><path fill="#0D0E29" d="M32.125 21.885c.284-1.262 1.848-2.589 4.683-1.455 1.89.756 2.954 2.92 3.192 6.49-2.916.24-4.994-.061-6.232-.905-1.858-1.267-1.927-2.868-1.643-4.13z"/><circle cx="36.5" cy="23.5" r="1.5" fill="#6D73AB"/><path fill="#0D0F2C" d="M48.602 33.187c-.816 1.16-2.996 3.686-2.996 4.813 0-1.147-2.379-3.68-3.23-4.83-.24-.204-.376-.433-.376-.675C42 31.669 43.567 31 45.5 31s3.5.67 3.5 1.495c0 .25-.144.485-.398.692z"/></g></g></g></svg>