<?xml version="1.0" ?>
<!-- Uploaded to: SVG Repo, www.svgrepo.com, Generator: SVG Repo Mixer Tools -->
<svg fill="#000000" width="800px" height="800px" viewBox="0 0 64 64" xmlns="http://www.w3.org/2000/svg">
<title/>
<g data-name="Layer 45" id="Layer_45">
<rect height="2" width="1" x="46" y="16"/>
<rect height="2" width="1" x="52" y="37"/>
<rect height="2" width="1" x="46" y="30"/>
<rect height="2" width="1" x="40" y="23"/>
<rect height="2" width="1" x="40" y="16"/>
<rect height="2" width="1" x="46" y="23"/>
<rect height="2" width="1" x="40" y="37"/>
<rect height="2" width="1" x="46" y="37"/>
<rect height="2" width="1" x="52" y="16"/>
<rect height="2" width="1" x="52" y="30"/>
<rect height="2" width="1" x="40" y="30"/>
<rect height="2" width="1" x="52" y="23"/>
<path d="M59,57V55H58V11H48V9h8V3H46v8H35V29H33a11,11,0,0,0-21.9,0H6V55H5v2H3v4H61V57ZM48,5h6V7H48ZM22,22a2,2,0,1,1-2,2A2,2,0,0,1,22,22ZM32,53H10V47H32Zm0-7H10V40H32Zm0-7H10V33H32ZM53,55H41V50.5A5.51,5.51,0,0,1,46.5,45h1A5.51,5.51,0,0,1,53,50.5ZM50,14h5v6H50Zm0,7h5v6H50Zm0,7h5v6H50Zm0,7h5v6H50ZM44,14h5v6H44Zm0,7h5v6H44Zm0,7h5v6H44Zm0,7h5v6H44ZM38,14h5v6H38Zm0,7h5v6H38Zm0,7h5v6H38Zm0,7h5v6H38Z"/>
</g>
</svg>