<?xml version="1.0" encoding="utf-8"?>
<!-- Uploaded to: SVG Repo, www.svgrepo.com, Generator: SVG Repo Mixer Tools -->
<svg fill="#000000" height="800px" width="800px" version="1.2" baseProfile="tiny" id="Layer_1" xmlns="http://www.w3.org/2000/svg" xmlns:xlink="http://www.w3.org/1999/xlink"
	  viewBox="0 0 256 256" xml:space="preserve">
<g>
	<path d="M34.5,110.2c10.4-1.3,18.5-8,22.7-12.2c2.2,5.5,7.7,13.7,20.5,13.7c0.7,0,1.3,0,2-0.1c7.1-0.5,10.7-5.4,13.7-9.4
		c2.2-2.9,4.1-5.5,6.8-5.8c2-0.2,3.5,0.1,4.4,1.1c1.9,1.9,1.9,5.9,1.7,7.3c-0.2,1.4,0.8,2.7,2.2,2.8c1.4,0.2,2.7-0.8,2.8-2.2
		c0.1-0.8,0.8-7.5-3.1-11.5c-1.4-1.5-4.1-3.1-8.6-2.6c-4.9,0.6-7.6,4.2-10.2,7.8c-2.7,3.6-5.2,7-9.9,7.3c-16.2,1-18.5-13.4-18.6-14
		c-0.1-1-0.9-1.8-1.9-2.1c-1-0.3-2,0.1-2.7,0.9c-0.1,0.1-9.4,12.2-22.4,13.8c-6.9,0.9-13.8-1.3-20.3-6.5c-5.5-4.4-8.3-11.3-7.7-19
		c0.6-7.3,4.3-14,9.1-16.6c10.6-5.8,23.3-2,23.4-1.9c0.7,0.2,1.5,0.1,2.2-0.3c0.6-0.4,1.1-1.1,1.1-1.9c0.1-0.8,2.1-18.4,19.1-17.2
		c6.5,0.5,11.4,2.8,14.6,6.8c6.4,7.9,4.7,20.2,4.6,20.3c-0.2,1.4,0.8,2.7,2.1,2.9c1.4,0.2,2.7-0.8,2.9-2.1
		c0.1-0.6,2.1-14.5-5.7-24.2c-4.2-5.2-10.3-8.2-18.3-8.8c-15.7-1.1-22.3,10.6-24.1,18.9c-4.9-1-15.2-2.1-24.5,3
		C6.1,62.1,1.5,70.2,0.7,79.3c-0.8,9.4,2.7,17.9,9.6,23.4C18,108.7,26.1,111.3,34.5,110.2z"/>
	<path d="M235.4,158l-4.4-98.6h-17.5l-3.6,98.6h-15.3l-4.4-98.6h-17.5l-3.6,98.6h-22v22.1h-15.7c-6.1-23.6-8.9-48.1-3.2-61.2H56.8
		C70.1,149.5,37.5,241.3,24,241.3c73.9,0,158.1,0,232,0V158H235.4z"/>
	<path d="M112.8,50.4c5.3,4.2,10.8,5.9,16.5,5.2c7.1-0.9,12.6-5.5,15.5-8.4c1.5,3.7,5.2,9.4,14,9.4c0.5,0,0.9,0,1.4,0
		c4.8-0.3,7.3-3.7,9.3-6.4c1.5-2,2.8-3.7,4.6-3.9c1.4-0.2,2.4,0.1,3,0.8c1.3,1.3,1.3,4,1.2,5c-0.1,0.9,0.5,1.8,1.5,1.9
		c0.9,0.1,1.8-0.5,1.9-1.5c0.1-0.5,0.6-5.1-2.1-7.9c-1-1-2.8-2.1-5.9-1.8c-3.3,0.4-5.2,2.9-7,5.3c-1.8,2.5-3.6,4.8-6.8,5
		c-11.1,0.7-12.6-9.2-12.7-9.6c-0.1-0.7-0.6-1.3-1.3-1.4c-0.7-0.2-1.4,0.1-1.8,0.6c-0.1,0.1-6.4,8.3-15.3,9.4
		c-4.7,0.6-9.4-0.9-13.9-4.5c-3.8-3-5.7-7.7-5.2-12.9c0.4-4.8,2.7-9.2,5.9-11.1c0,0,0.4-0.4,0.5-0.5c6.4-5.1,12.2-4.3,15.4-2
		c2.4,1.8,3.5,4.5,2.6,6.7c-0.3,0.7,0,1.4,0.5,1.9c0.1,0.1,0.3,0.2,0.4,0.3c0,0,0,0,0,0c0.1,0,0.1,0,0.2,0c0,0,0,0,0,0
		c0.1,0,0.3,0.1,0.4,0.1c0.3,0,0.5-0.1,0.7-0.2c0.5-0.1,1.1-0.3,1.9-0.7c4.6-2.1,6.9-0.6,9.9,3.1c0.6,0.8,1.2,1.7,1.9,2.7
		c2.1,3.3,4.6,7.3,10.4,7.5c3.2,0.1,5.6-2.1,7.9-4.2c2.3-2.1,4.5-4.1,7.1-3.7c2.6,0.3,4.4,1.3,5.5,2.9c2.1,3,1,7.5,1,7.6
		c-0.2,0.9,0.3,1.9,1.2,2.1c0.1,0,0.3,0.1,0.4,0.1c0.8,0,1.5-0.5,1.7-1.3c0.1-0.2,1.5-6-1.5-10.4c-1.7-2.5-4.3-4-7.9-4.4
		c-4.3-0.6-7.3,2.2-9.9,4.6c-1.9,1.7-3.7,3.4-5.5,3.3c-3.9-0.1-5.6-2.8-7.6-5.9c-0.7-1-1.3-2.1-2.1-3c-3.1-3.8-6.9-6.9-13.2-4.4
		c-0.2-2.7-1.7-5.4-4.3-7.3c-4.2-3-11.4-4.2-19.3,1.9c-4.3,2.4-7.4,7.9-8,14.1C105.8,40.9,108.2,46.7,112.8,50.4z"/>
</g>
</svg>