<?xml version="1.0" encoding="utf-8"?>
<!-- Uploaded to: SVG Repo, www.svgrepo.com, Generator: SVG Repo Mixer Tools -->
<svg fill="#000000" height="800px" width="800px" version="1.2" baseProfile="tiny" id="earth" xmlns="http://www.w3.org/2000/svg" xmlns:xlink="http://www.w3.org/1999/xlink"
	  viewBox="-63 65 128 128" xml:space="preserve">
<path id="Layer_1_1_" d="M47.7,155.4L18.9,162c-0.2,1.4-0.8,2.9-1.7,4.1c-1.7,2.6-4.3,4.5-7.3,5.3c-3,0.7-6.2,0.2-8.8-1.6L-23.7,154
	c-1.2-0.7-1.4-2.1-0.7-3.2s2.1-1.4,3.1-0.7l24.9,15.8c3.3,2,7.6,1.1,9.7-2.1s1.1-7.6-2.1-9.7l-31-19.6c-5.1-3.2-11-5.7-16.6-2.9
	l-25.7,14.6l0.1,28.4l18.3-12.7c2.9-0.7,6.1-0.1,8.8,1.6l21.6,13.6c5.3,3.3,11.8,4.1,17.4,2.6L50.9,169c3.7-0.8,6.2-4.5,5.3-8.5
	C55.2,156.9,51.5,154.6,47.7,155.4z M27.6,147.9c21.6-1.3,38-19.9,36.6-41.5c-1.3-21.6-19.9-38-41.5-36.6
	c-21.6,1.3-38,19.9-36.6,41.5C-12.6,132.8,6,149.2,27.6,147.9z M16.4,100.8c-1.1-2.1,2-3.3,3.6-4.9c2-2.1,6.3-5.6,5.8-6.9
	c-0.5-1.4-4.9-5.3-7.3-4.4c-0.5,0-3.3,3.1-3.9,3.6c0-1.1-0.2-1.7-0.2-2.7c0-0.7-1.4-1.3-1.3-1.8c0.1-1.2,3.1-3.5,3.8-4.4
	c-0.6-0.4-2.6-1.8-3.1-1.6c-1.3,0.7-2.9,1.2-4.3,1.8c0-0.5-0.1-1-0.2-1.3c2.7-1.4,5.6-2.4,8.6-3.1l2.7,1l2,2.1l2,1.9
	c0,0,1.2,0.5,1.7,0.5c0.6-0.1,2.5-2.6,2.5-2.6L28,76.1l-0.1-1.7c5.4,0.5,10.4,2.1,14.9,4.9c-0.7,0.1-1.7,0.2-2.6,0.5
	c-0.4-0.2-2.5,0.2-2.4,1.1c0.1,0.7,3.8,3.7,5.4,6.3c1.6,2.7,6.1,4.4,6.9,7.4c0.8,3.5-0.5,8,0.1,12.2c0.6,4.1,5.1,8.4,5.1,8.4
	s2,0.6,3.6,0.2c-1.2,6.1-3.9,11.7-8.1,16.5c-4.7,5.3-10.6,9-17.3,10.6c0.8-2.4,2.4-4.7,3.9-6c1.3-1.2,2.9-3.3,3.5-4.9
	c0.6-1.7,1.4-3.1,2.4-4.7c1.2-2.1-3.7-5.1-5.3-5.6c-3.6-1.3-6.3-3.1-9.4-5.1c-2.3-1.4-9.2,1.8-11.8,0.8c-3.5-1.3-4.7-2.4-7.8-4.4
	c-3.2-2.1-2.3-6.6-2.5-9.9c2.4,0,5.7-1,7.4,0.8c0.5,0.6,2.4,3.1,3.5,2.1C18.6,104.5,16.8,101.5,16.4,100.8z M-2.8,88.5
	c0.2,1.7,1.1,3,1.1,4.2c0,4.7-0.4,7.5,2.6,11.2c1.2,1.4,1.6,3.6,2.1,5.4c0.6,1.7,2.6,2.5,4.1,3.5c2.9,1.9,5.7,4.3,8.8,6
	c2,1.1,3.2,1.7,2.9,4.1c-0.4,1.9-0.4,3.1-1.3,4.9c-0.2,0.6,1.4,3.8,1.9,4.2c1.6,1.3,3.1,2.6,4.8,3.8c2.6,1.9,0,4.7-1,7.6
	c-7.6-0.5-14.9-3.5-20.8-8.6c-6.9-6.1-11-14.6-11.6-23.7C-9.8,102.7-7.8,95-2.8,88.5z"/>
</svg>