<svg xmlns="http://www.w3.org/2000/svg" xmlns:xlink="http://www.w3.org/1999/xlink" viewBox="0,0,256,256" width="52px" height="52px"><g fill="#ffffff" fill-rule="nonzero" stroke="none" stroke-width="1" stroke-linecap="butt" stroke-linejoin="miter" stroke-miterlimit="10" stroke-dasharray="" stroke-dashoffset="0" font-family="none" font-weight="none" font-size="none" text-anchor="none" style="mix-blend-mode: normal"><g transform="scale(9.84615,9.84615)"><path d="M7.54688,0c-4.15625,0 -7.54687,3.39063 -7.54687,7.54688v10.90625c0,4.15625 3.39063,7.54688 7.54688,7.54688h10.90625c4.15625,0 7.54688,-3.39062 7.54688,-7.54687v-10.90625c0,-4.15625 -3.39062,-7.54687 -7.54687,-7.54687zM7.54688,2h10.90625c3.07422,0 5.54688,2.46875 5.54688,5.54688v10.90625c0,3.07422 -2.46875,5.54688 -5.54687,5.54688h-10.90625c-3.07422,0 -5.54687,-2.46875 -5.54687,-5.54687v-10.90625c0,-3.07422 2.46875,-5.54687 5.54688,-5.54687zM20.5,4c-0.82812,0 -1.5,0.67188 -1.5,1.5c0,0.82813 0.67188,1.5 1.5,1.5c0.82813,0 1.5,-0.67187 1.5,-1.5c0,-0.82812 -0.67187,-1.5 -1.5,-1.5zM13,6c-3.85547,0 -7,3.14453 -7,7c0,3.85547 3.14453,7 7,7c3.85547,0 7,-3.14453 7,-7c0,-3.85547 -3.14453,-7 -7,-7zM13,8c2.77344,0 5,2.22656 5,5c0,2.77344 -2.22656,5 -5,5c-2.77344,0 -5,-2.22656 -5,-5c0,-2.77344 2.22656,-5 5,-5z"></path></g></g></svg>