<?xml version="1.0" encoding="iso-8859-1"?>
<!-- Generator: Adobe Illustrator 19.0.0, SVG Export Plug-In . SVG Version: 6.00 Build 0)  -->
<svg version="1.1" id="Layer_1" xmlns="http://www.w3.org/2000/svg" xmlns:xlink="http://www.w3.org/1999/xlink" x="0px" y="0px"
	 viewBox="0 0 512 512" style="enable-background:new 0 0 512 512;" xml:space="preserve">
<path style="fill:#BF4D00;" d="M482.358,428.463H29.642c-11.906,0-21.558-9.651-21.558-21.558V105.095
	c0-11.906,9.651-21.558,21.558-21.558h452.716c11.906,0,21.558,9.651,21.558,21.558v301.811
	C503.916,418.812,494.264,428.463,482.358,428.463z"/>
<path style="fill:#A54300;" d="M256,428.463H29.642c-11.906,0-21.558-9.651-21.558-21.558V105.095
	c0-11.906,9.651-21.558,21.558-21.558H256V428.463z"/>
<path d="M482.358,75.453H29.642C13.298,75.453,0,88.75,0,105.095v301.811c0,16.345,13.298,29.642,29.642,29.642h452.716
	c16.344,0,29.642-13.297,29.642-29.642V105.095C512,88.75,498.702,75.453,482.358,75.453z M264.084,210.904
	c21.418,3.83,37.726,22.594,37.726,45.096s-16.309,41.267-37.726,45.096V210.904z M16.168,220.968h30.062
	c-8.612,9.165-13.894,21.493-13.894,35.032s5.282,25.866,13.894,35.032H16.168V220.968z M16.168,307.2h67.368
	c28.231,0,51.2-22.969,51.2-51.2s-22.969-51.2-51.2-51.2H16.168v-26.947h67.368c43.091,0,78.147,35.056,78.147,78.147
	s-35.056,78.147-78.147,78.147H16.168V307.2z M48.505,256c0-16.535,11.515-30.431,26.947-34.09v68.18
	C60.02,286.431,48.505,272.535,48.505,256z M91.621,290.09v-68.18c15.432,3.658,26.947,17.555,26.947,34.09
	S107.053,286.431,91.621,290.09z M247.916,301.096c-21.418-3.83-37.726-22.594-37.726-45.096s16.309-41.267,37.726-45.096V301.096z
	 M247.916,194.546c-30.371,3.973-53.895,30.018-53.895,61.454s23.524,57.482,53.895,61.454v102.925H29.642
	c-7.43,0-13.474-6.044-13.474-13.474v-56.589h67.368c52.006,0,94.316-42.31,94.316-94.316s-42.31-94.316-94.316-94.316H16.168
	v-56.589c0-7.43,6.044-13.474,13.474-13.474h218.274V194.546z M495.832,291.032h-30.063c8.611-9.165,13.894-21.493,13.894-35.032
	s-5.282-25.866-13.894-35.032h30.063V291.032z M495.832,204.8h-67.368c-28.231,0-51.2,22.969-51.2,51.2s22.969,51.2,51.2,51.2
	h67.368v26.947h-67.368c-43.091,0-78.147-35.056-78.147-78.147s35.056-78.147,78.147-78.147h67.368V204.8z M463.495,256
	c0,16.535-11.515,30.431-26.947,34.09v-68.18C451.98,225.569,463.495,239.465,463.495,256z M420.379,221.91v68.18
	c-15.432-3.658-26.947-17.555-26.947-34.09S404.947,225.569,420.379,221.91z M495.832,161.684h-67.368
	c-52.006,0-94.316,42.31-94.316,94.316s42.31,94.316,94.316,94.316h67.368v56.589c0,7.43-6.044,13.474-13.474,13.474H264.084
	V317.454c30.371-3.973,53.895-30.018,53.895-61.454s-23.524-57.482-53.895-61.454V91.621h218.274c7.43,0,13.474,6.044,13.474,13.474
	V161.684z"/>
<g>
</g>
<g>
</g>
<g>
</g>
<g>
</g>
<g>
</g>
<g>
</g>
<g>
</g>
<g>
</g>
<g>
</g>
<g>
</g>
<g>
</g>
<g>
</g>
<g>
</g>
<g>
</g>
<g>
</g>
</svg>
