<svg version="1.1" id="Layer_1" xmlns="http://www.w3.org/2000/svg" xmlns:xlink="http://www.w3.org/1999/xlink" x="0px" y="0px"
	 width="100%" viewBox="0 0 706 695" enable-background="new 0 0 706 695" xml:space="preserve">
<path fill="#FFFFFF" opacity="1.000000" stroke="none" 
	d="
M393.000000,696.000000 
	C262.000000,696.000000 131.500000,696.000000 1.000000,696.000000 
	C1.000000,464.333344 1.000000,232.666672 1.000000,1.000000 
	C236.333328,1.000000 471.666656,1.000000 707.000000,1.000000 
	C707.000000,232.666672 707.000000,464.333344 707.000000,696.000000 
	C602.500000,696.000000 498.000000,696.000000 393.000000,696.000000 
M325.396576,34.055359 
	C295.297729,29.354923 265.311188,30.074404 235.482620,36.175877 
	C92.625351,65.397491 4.303445,211.931442 44.988667,352.155029 
	C89.035156,503.963318 260.842285,577.941528 401.084595,505.285980 
	C414.152100,498.516052 426.391815,490.148224 439.447327,482.261719 
	C450.021484,492.857025 461.010284,503.999146 472.181488,514.955261 
	C474.538025,517.266418 475.389893,519.464233 475.044739,522.787537 
	C473.020081,542.282104 479.286560,558.775940 493.424530,572.358887 
	C499.191528,577.899536 504.754578,583.652405 510.410736,589.308411 
	C538.691589,617.588257 567.006287,645.834473 595.237915,674.163391 
	C607.495300,686.462952 622.194458,693.373169 639.540344,692.540649 
	C664.181335,691.357971 682.483704,679.487122 691.616089,656.285156 
	C700.758484,633.058044 697.212585,610.980774 679.578491,592.941406 
	C644.634399,557.194153 609.061584,522.059448 573.590454,486.830719 
	C561.610413,474.932617 546.789734,469.506927 529.995483,470.943237 
	C523.994141,471.456573 520.199890,469.693207 516.240479,465.530701 
	C506.276733,455.055817 495.866180,445.005981 485.634277,434.785248 
	C486.382446,433.717773 486.843231,433.028503 487.335510,432.362518 
	C527.938782,377.432648 544.191833,315.951050 534.979736,248.370316 
	C525.472351,178.622437 491.304535,122.837502 435.359772,80.476845 
	C402.966553,55.949097 366.319000,40.912621 325.396576,34.055359 
z"/>
<path fill="#010101" opacity="1.000000" stroke="none" 
	d="
M325.830750,34.109810 
	C366.319000,40.912621 402.966553,55.949097 435.359772,80.476845 
	C491.304535,122.837502 525.472351,178.622437 534.979736,248.370316 
	C544.191833,315.951050 527.938782,377.432648 487.335510,432.362518 
	C486.843231,433.028503 486.382446,433.717773 485.634277,434.785248 
	C495.866180,445.005981 506.276733,455.055817 516.240479,465.530701 
	C520.199890,469.693207 523.994141,471.456573 529.995483,470.943237 
	C546.789734,469.506927 561.610413,474.932617 573.590454,486.830719 
	C609.061584,522.059448 644.634399,557.194153 679.578491,592.941406 
	C697.212585,610.980774 700.758484,633.058044 691.616089,656.285156 
	C682.483704,679.487122 664.181335,691.357971 639.540344,692.540649 
	C622.194458,693.373169 607.495300,686.462952 595.237915,674.163391 
	C567.006287,645.834473 538.691589,617.588257 510.410736,589.308411 
	C504.754578,583.652405 499.191528,577.899536 493.424530,572.358887 
	C479.286560,558.775940 473.020081,542.282104 475.044739,522.787537 
	C475.389893,519.464233 474.538025,517.266418 472.181488,514.955261 
	C461.010284,503.999146 450.021484,492.857025 439.447327,482.261719 
	C426.391815,490.148224 414.152100,498.516052 401.084595,505.285980 
	C260.842285,577.941528 89.035156,503.963318 44.988667,352.155029 
	C4.303445,211.931442 92.625351,65.397491 235.482620,36.175877 
	C265.311188,30.074404 295.297729,29.354923 325.830750,34.109810 
M428.667328,140.833939 
	C375.599884,89.306992 312.575592,69.339790 240.407913,85.944122 
	C132.200027,110.840584 66.650093,215.296692 89.005974,323.947021 
	C106.490654,408.923187 183.108551,476.097595 269.657135,481.819977 
	C330.275055,485.827881 383.084198,466.993927 426.233490,424.193298 
	C473.027069,377.777893 492.444000,320.911896 484.644135,255.509399 
	C479.375336,211.330032 460.088654,173.357559 428.667328,140.833939 
z"/>
<path fill="#FFFFFF" opacity="1.000000" stroke="none" 
	d="
M428.908966,141.092239 
	C460.088654,173.357559 479.375336,211.330032 484.644135,255.509399 
	C492.444000,320.911896 473.027069,377.777893 426.233490,424.193298 
	C383.084198,466.993927 330.275055,485.827881 269.657135,481.819977 
	C183.108551,476.097595 106.490654,408.923187 89.005974,323.947021 
	C66.650093,215.296692 132.200027,110.840584 240.407913,85.944122 
	C312.575592,69.339790 375.599884,89.306992 428.908966,141.092239 
z"/>
</svg>