<svg version="1.1" id="Layer_1" xmlns="http://www.w3.org/2000/svg" xmlns:xlink="http://www.w3.org/1999/xlink" x="0px" y="0px"
	 width="100%" viewBox="0 0 432 336" enable-background="new 0 0 432 336" xml:space="preserve">
<path fill="#000000" opacity="1.000000" stroke="none" 
	d="
M272.428467,281.634338 
	C220.840240,293.262695 171.121689,289.458374 123.675468,266.276459 
	C98.594971,254.022293 77.793137,236.604630 65.355965,210.860092 
	C54.891846,189.199738 54.237549,166.929138 62.898403,144.548248 
	C70.391975,125.183769 84.652687,119.271400 103.650803,127.317665 
	C118.674042,133.680466 133.646088,140.164581 148.620804,146.641251 
	C153.085297,148.572174 157.532059,150.390930 162.566574,149.693924 
	C167.684814,148.985306 171.869278,146.732697 173.903442,141.843613 
	C175.957443,136.906876 174.749466,132.301010 171.038681,128.523071 
	C164.501724,121.867874 157.815613,115.359451 151.249664,108.732384 
	C139.471634,96.844711 141.486084,82.238129 156.028152,73.820732 
	C167.416458,67.228821 180.121841,65.221893 192.861084,63.927776 
	C220.732132,61.096478 248.396759,62.776489 275.566193,69.811981 
	C303.695404,77.096001 329.507385,89.071426 350.709076,109.472137 
	C370.106384,128.136658 382.077240,150.371979 381.262573,178.016006 
	C380.599274,200.523483 371.198975,219.520706 356.059937,235.732452 
	C333.353577,260.047760 304.711456,273.778717 272.428467,281.634338 
M216.512314,278.719666 
	C235.092316,279.204926 253.417191,277.129547 271.410858,272.611786 
	C300.850098,265.220276 327.659729,252.717560 348.804626,230.261978 
	C380.345642,196.765884 379.942078,152.839584 348.103973,119.630585 
	C332.925568,103.798653 314.489563,93.047089 294.205017,85.223740 
	C260.172424,72.098053 224.871933,69.829887 189.010757,73.559334 
	C178.953568,74.605255 168.875534,76.548119 160.029480,82.110146 
	C151.279160,87.611977 150.445663,94.975487 157.757767,102.365364 
	C164.321930,108.999329 171.099670,115.426308 177.548141,122.169373 
	C188.769989,133.903931 184.750412,151.302841 169.630081,157.220261 
	C162.351395,160.068817 155.322449,159.273880 148.298737,156.251022 
	C131.777206,149.140533 115.231392,142.085815 98.665276,135.079773 
	C86.659744,130.002441 78.543854,133.065109 72.778801,144.719864 
	C72.262634,145.763336 71.817566,146.845642 71.396996,147.932175 
	C65.440392,163.321014 64.327568,179.021423 68.967346,194.900726 
	C75.592628,217.575272 90.380203,234.178711 109.390297,247.236435 
	C141.315903,269.165619 177.230682,278.036041 216.512314,278.719666 
z"/>
<path fill="#000000" opacity="1.000000" stroke="none" 
	d="
M301.753052,225.076355 
	C296.717834,217.109818 298.121490,210.818817 305.868591,206.408188 
	C314.851166,201.294159 324.061279,201.487274 332.880127,206.585770 
	C342.289368,212.025604 342.171234,222.443649 332.946930,228.193359 
	C323.416260,234.134018 310.737183,232.976440 301.753052,225.076355 
M308.421753,216.790817 
	C308.578949,217.575165 308.490082,218.553909 308.932007,219.113327 
	C312.693726,223.875031 325.510345,223.972900 329.518494,219.386139 
	C331.470367,217.152466 330.074432,215.801132 328.382294,214.505753 
	C323.400269,210.691971 313.485931,211.516418 308.421753,216.790817 
z"/>
<path fill="#000000" opacity="1.000000" stroke="none" 
	d="
M273.179871,90.771355 
	C279.082153,90.649879 284.192474,91.905357 288.850067,94.778053 
	C297.382050,100.040413 297.704956,110.182938 289.240997,115.583855 
	C280.202271,121.351547 270.614960,121.552818 261.345825,116.225288 
	C251.646027,110.650238 251.812469,100.065353 261.385498,94.318596 
	C264.879944,92.220879 268.736786,91.274841 273.179871,90.771355 
M264.803467,103.094978 
	C262.240936,105.598839 263.801941,107.359993 266.056061,108.579178 
	C271.537445,111.543877 277.188446,111.566170 282.805817,108.880501 
	C284.331970,108.150848 285.747162,107.149757 285.684631,105.176918 
	C285.621521,103.186188 284.048615,102.256302 282.539124,101.666862 
	C276.699097,99.386345 270.902069,99.164856 264.803467,103.094978 
z"/>
<path fill="#000000" opacity="1.000000" stroke="none" 
	d="
M358.083313,167.214752 
	C361.080200,173.809479 360.333374,177.971115 355.656128,182.241348 
	C347.563354,189.629913 331.598907,189.747040 323.429443,182.477829 
	C317.051086,176.802353 317.283142,169.014603 323.989227,163.690033 
	C333.672028,156.001953 349.611206,157.508575 358.083313,167.214752 
M332.904175,169.086014 
	C330.741211,170.025284 328.243896,171.008972 328.554230,173.810059 
	C328.850952,176.487793 331.455292,177.197159 333.685455,177.877304 
	C338.472992,179.337372 343.218903,179.222382 347.686707,176.841614 
	C351.567230,174.773773 351.591705,171.965210 347.724792,169.889740 
	C343.248016,167.486969 338.449432,167.778961 332.904175,169.086014 
z"/>
<path fill="#000000" opacity="1.000000" stroke="none" 
	d="
M255.263092,236.601440 
	C263.090057,225.377594 281.697266,223.460342 291.280975,232.571609 
	C296.821564,237.839050 296.646759,245.450928 290.869690,250.481400 
	C282.709259,257.587219 267.186493,257.751556 258.965088,250.683990 
	C254.709763,247.025848 252.743210,242.546158 255.263092,236.601440 
M263.516846,241.479401 
	C267.326996,247.274857 279.286407,248.688324 284.305145,243.942017 
	C286.338470,242.019058 286.192871,240.276611 284.009552,238.547958 
	C278.878571,234.485489 268.049103,235.664642 263.516846,241.479401 
z"/>
<path fill="#000000" opacity="1.000000" stroke="none" 
	d="
M328.979736,120.673851 
	C331.103882,121.741142 332.996948,122.503456 334.562225,123.695999 
	C341.470123,128.958801 341.547699,137.332779 334.845520,142.832581 
	C326.893280,149.358154 312.110596,149.501984 304.021545,143.132492 
	C296.644318,137.323547 296.864227,128.245392 304.725708,123.103127 
	C312.174408,118.230888 320.226227,117.516640 328.979736,120.673851 
M312.080231,129.316559 
	C310.232208,130.153122 308.188385,131.007477 308.319641,133.426575 
	C308.459930,136.010864 310.700470,136.853149 312.733795,137.612656 
	C316.933441,139.181351 321.204590,139.228760 325.421661,137.718918 
	C327.596710,136.940216 330.372833,136.102036 330.367523,133.451172 
	C330.361633,130.534042 327.454224,129.594620 325.091888,128.896149 
	C321.034424,127.696457 316.900421,127.672180 312.080231,129.316559 
z"/>
<path fill="#000000" opacity="1.000000" stroke="none" 
	d="
M237.640167,248.705841 
	C240.809387,254.635956 236.759018,261.612640 231.846008,264.251740 
	C222.220428,269.422241 212.658447,269.472687 203.486908,263.453094 
	C195.637482,258.301239 195.657791,249.039764 203.205902,243.472168 
	C213.891006,235.590714 230.229279,237.930374 237.640167,248.705841 
M208.788269,256.088257 
	C214.635025,259.756592 220.690918,259.819885 226.650330,256.637299 
	C230.406982,254.631104 230.369278,252.110321 226.581360,250.113602 
	C220.955490,247.148056 215.123367,247.269821 209.498795,250.224045 
	C207.234573,251.413284 205.699753,253.173111 208.788269,256.088257 
z"/>
<path fill="#000000" opacity="1.000000" stroke="none" 
	d="
M177.460663,254.503357 
	C168.349091,261.133026 156.431549,261.676239 147.728012,256.095062 
	C138.585785,250.232544 138.636627,239.923264 148.063293,234.495544 
	C156.970947,229.366684 166.223831,229.510208 175.115479,234.487457 
	C183.611404,239.243195 184.478775,247.027786 177.460663,254.503357 
M166.579727,240.567291 
	C161.939316,239.975464 157.261749,239.453827 153.024704,242.058456 
	C149.512955,244.217209 149.575287,246.866928 153.179840,248.817902 
	C157.465729,251.137619 162.078659,251.335449 166.700317,250.058334 
	C169.221985,249.361496 172.358536,248.665421 172.492004,245.461700 
	C172.616959,242.462433 169.649750,241.756302 166.579727,240.567291 
z"/>
</svg>