<svg version="1.1" id="Layer_1" xmlns="http://www.w3.org/2000/svg" xmlns:xlink="http://www.w3.org/1999/xlink" x="0px" y="0px"
	 width="100%" viewBox="0 0 371 408" enable-background="new 0 0 371 408" xml:space="preserve">
<path fill="#FEFEFE" opacity="1.000000" stroke="none" 
	d="
M199.000000,409.000000 
	C132.666672,409.000000 66.833359,409.000000 1.000026,409.000000 
	C1.000018,273.000031 1.000018,137.000076 1.000009,1.000081 
	C124.666603,1.000054 248.333206,1.000054 371.999878,1.000027 
	C371.999908,136.999924 371.999908,272.999847 371.999939,408.999878 
	C314.500000,409.000000 257.000000,409.000000 199.000000,409.000000 
M101.500008,57.039799 
	C85.335861,57.040112 69.171608,57.003799 53.007599,57.051804 
	C38.935265,57.093597 31.721706,64.274620 31.721407,78.126572 
	C31.719419,169.945877 31.719215,261.765167 31.721882,353.584473 
	C31.722279,367.219604 38.820988,374.701385 52.475800,374.713501 
	C141.462143,374.792419 230.448593,374.789764 319.434937,374.716797 
	C333.137573,374.705566 340.277161,367.262848 340.277924,353.673157 
	C340.281464,290.516144 340.279663,227.359116 340.279633,164.202103 
	C340.279633,134.706604 340.309418,105.211067 340.261536,75.715645 
	C340.246704,66.586159 335.338989,60.257782 326.469330,58.005531 
	C323.765839,57.319046 320.882874,57.087395 318.080963,57.080002 
	C292.418365,57.012295 266.755585,57.039959 241.092834,57.039799 
	C239.471344,57.039787 237.849869,57.039799 236.570175,57.039799 
	C235.819946,51.851841 236.023849,46.784374 234.273361,42.518986 
	C230.739838,33.908936 223.016159,31.285990 214.289444,31.260298 
	C195.459137,31.204863 176.628510,31.217894 157.798233,31.275654 
	C155.483826,31.282755 153.127151,31.530354 150.864761,32.015133 
	C141.786499,33.960396 136.231247,40.866779 136.129623,50.140110 
	C136.104965,52.390453 136.125977,54.641293 136.125977,57.039799 
	C124.467758,57.039799 113.483887,57.039799 101.500008,57.039799 
z"/>
<path fill="#030303" opacity="1.000000" stroke="none" 
	d="
M102.000015,57.039799 
	C113.483887,57.039799 124.467758,57.039799 136.125977,57.039799 
	C136.125977,54.641293 136.104965,52.390453 136.129623,50.140110 
	C136.231247,40.866779 141.786499,33.960396 150.864761,32.015133 
	C153.127151,31.530354 155.483826,31.282755 157.798233,31.275654 
	C176.628510,31.217894 195.459137,31.204863 214.289444,31.260298 
	C223.016159,31.285990 230.739838,33.908936 234.273361,42.518986 
	C236.023849,46.784374 235.819946,51.851841 236.570175,57.039799 
	C237.849869,57.039799 239.471344,57.039787 241.092834,57.039799 
	C266.755585,57.039959 292.418365,57.012295 318.080963,57.080002 
	C320.882874,57.087395 323.765839,57.319046 326.469330,58.005531 
	C335.338989,60.257782 340.246704,66.586159 340.261536,75.715645 
	C340.309418,105.211067 340.279633,134.706604 340.279633,164.202103 
	C340.279663,227.359116 340.281464,290.516144 340.277924,353.673157 
	C340.277161,367.262848 333.137573,374.705566 319.434937,374.716797 
	C230.448593,374.789764 141.462143,374.792419 52.475800,374.713501 
	C38.820988,374.701385 31.722279,367.219604 31.721882,353.584473 
	C31.719215,261.765167 31.719419,169.945877 31.721407,78.126572 
	C31.721706,64.274620 38.935265,57.093597 53.007599,57.051804 
	C69.171608,57.003799 85.335861,57.040112 102.000015,57.039799 
M118.026375,108.635986 
	C117.416473,107.339989 116.311081,106.056076 116.279137,104.745987 
	C116.105507,97.623741 116.196655,90.495033 116.196655,83.232460 
	C97.782639,83.232460 79.736023,83.232460 61.720406,83.232460 
	C61.720406,171.860199 61.720406,260.163422 61.720406,348.700012 
	C144.637573,348.700012 227.388138,348.700012 310.174438,348.700012 
	C310.174438,260.047882 310.174438,171.645187 310.174438,83.151299 
	C291.982971,83.151299 274.064148,83.151299 255.725281,83.151299 
	C255.725281,91.635475 255.725281,99.886131 255.725281,108.652664 
	C209.851486,108.652664 164.397110,108.652664 118.026375,108.635986 
M194.426331,50.766861 
	C185.530167,46.459328 175.438919,49.091789 172.093384,56.592751 
	C169.477509,62.457829 171.825211,68.831589 177.843277,72.203003 
	C184.807404,76.104408 194.751190,74.140472 198.863556,68.051414 
	C202.694183,62.379509 201.359146,56.383675 194.426331,50.766861 
z"/>
<path fill="#FEFEFE" opacity="1.000000" stroke="none" 
	d="
M118.484558,108.644325 
	C164.397110,108.652664 209.851486,108.652664 255.725281,108.652664 
	C255.725281,99.886131 255.725281,91.635475 255.725281,83.151299 
	C274.064148,83.151299 291.982971,83.151299 310.174438,83.151299 
	C310.174438,171.645187 310.174438,260.047882 310.174438,348.700012 
	C227.388138,348.700012 144.637573,348.700012 61.720406,348.700012 
	C61.720406,260.163422 61.720406,171.860199 61.720406,83.232460 
	C79.736023,83.232460 97.782639,83.232460 116.196655,83.232460 
	C116.196655,90.495033 116.105507,97.623741 116.279137,104.745987 
	C116.311081,106.056076 117.416473,107.339989 118.484558,108.644325 
M114.499931,211.685532 
	C134.934113,211.685532 155.368286,211.685532 175.806015,211.685532 
	C175.806015,205.630829 175.806015,200.193207 175.806015,194.741089 
	C147.544891,194.741089 119.524895,194.741089 91.676407,194.741089 
	C91.676407,200.584427 91.676407,205.993774 91.676407,211.685516 
	C99.207390,211.685516 106.353676,211.685516 114.499931,211.685532 
M167.424866,297.314484 
	C142.167252,297.314484 116.909653,297.314484 91.597687,297.314484 
	C91.597687,303.421844 91.597687,308.828644 91.597687,314.440063 
	C119.814842,314.440063 147.722321,314.440063 175.687347,314.440063 
	C175.687347,308.650879 175.687347,303.114044 175.687347,297.314484 
	C173.020645,297.314484 170.708923,297.314484 167.424866,297.314484 
M172.365204,142.954025 
	C145.465607,142.954025 118.566017,142.954025 91.620605,142.954025 
	C91.620605,148.969040 91.620605,154.376343 91.620605,159.840607 
	C119.820160,159.840607 147.724350,159.840607 176.019684,159.840607 
	C176.019684,154.859085 176.145462,150.066925 175.899277,145.293945 
	C175.856888,144.472244 174.232895,143.732147 172.365204,142.954025 
M176.021439,249.628326 
	C176.664001,246.395004 175.111923,245.875580 172.181961,245.888428 
	C146.378372,246.001602 120.574043,245.949310 94.769966,245.970520 
	C93.685081,245.971420 92.600395,246.213806 91.700897,246.321487 
	C91.700897,252.096649 91.700897,257.482391 91.700897,262.774292 
	C119.971107,262.774292 147.865311,262.774292 176.021454,262.774292 
	C176.021454,258.536713 176.021454,254.568069 176.021439,249.628326 
M223.263245,213.227524 
	C226.750305,216.230377 230.237381,219.233231 233.824829,222.322525 
	C248.426422,209.717392 262.686584,197.406998 277.108185,184.957245 
	C273.248901,181.637009 269.980042,178.824753 266.664886,175.972687 
	C255.635147,185.461075 244.808868,194.774445 233.848618,204.203049 
	C229.376877,200.435791 225.094727,196.828262 220.764359,193.180099 
	C217.237610,196.242691 214.003799,199.050888 210.453934,202.133560 
	C214.746704,205.867203 218.725830,209.328033 223.263245,213.227524 
M252.035843,291.547882 
	C246.001144,296.741821 239.966446,301.935791 233.818253,307.227417 
	C229.335953,303.423035 225.073135,299.804962 220.769791,296.152496 
	C217.183533,299.287537 213.962540,302.103302 210.439789,305.182831 
	C218.400330,312.038666 226.025635,318.605804 233.819092,325.317749 
	C248.359543,312.771790 262.647552,300.443634 277.102234,287.971680 
	C273.341522,284.728516 270.077576,281.913818 266.687592,278.990387 
	C261.867004,283.113342 257.215118,287.092010 252.035843,291.547882 
M273.798553,136.357544 
	C274.820404,135.402573 275.842255,134.447601 277.020325,133.346619 
	C273.372711,130.233398 270.018463,127.370575 266.647064,124.493103 
	C255.400146,134.160828 244.597687,143.446472 233.800690,152.727448 
	C229.203308,148.796341 225.058563,145.252258 220.841309,141.646179 
	C217.278763,144.722534 214.016663,147.539459 210.423447,150.642288 
	C218.257095,157.405060 225.893433,163.997513 233.781494,170.807266 
	C247.069748,159.375000 260.174774,148.100372 273.798553,136.357544 
M252.325958,239.836044 
	C246.159119,245.121658 239.992264,250.407272 233.789581,255.723602 
	C229.303513,251.885315 225.155334,248.336121 220.838196,244.642380 
	C217.297287,247.712311 213.986938,250.582367 210.432816,253.663773 
	C218.389893,260.529633 225.929413,267.035187 233.783752,273.812378 
	C248.219910,261.381805 262.572845,249.022858 277.151062,236.469925 
	C273.584229,233.416733 270.198730,230.518799 266.650269,227.481354 
	C261.907074,231.566315 257.380585,235.464661 252.325958,239.836044 
z"/>
<path fill="#FAFAFA" opacity="1.000000" stroke="none" 
	d="
M194.763077,50.957466 
	C201.359146,56.383675 202.694183,62.379509 198.863556,68.051414 
	C194.751190,74.140472 184.807404,76.104408 177.843277,72.203003 
	C171.825211,68.831589 169.477509,62.457829 172.093384,56.592751 
	C175.438919,49.091789 185.530167,46.459328 194.763077,50.957466 
z"/>
<path fill="#0D0D0D" opacity="1.000000" stroke="none" 
	d="
M113.999939,211.685516 
	C106.353676,211.685516 99.207390,211.685516 91.676407,211.685516 
	C91.676407,205.993774 91.676407,200.584427 91.676407,194.741089 
	C119.524895,194.741089 147.544891,194.741089 175.806015,194.741089 
	C175.806015,200.193207 175.806015,205.630829 175.806015,211.685532 
	C155.368286,211.685532 134.934113,211.685532 113.999939,211.685516 
z"/>
<path fill="#0D0D0D" opacity="1.000000" stroke="none" 
	d="
M167.911026,297.314484 
	C170.708923,297.314484 173.020645,297.314484 175.687347,297.314484 
	C175.687347,303.114044 175.687347,308.650879 175.687347,314.440063 
	C147.722321,314.440063 119.814842,314.440063 91.597687,314.440063 
	C91.597687,308.828644 91.597687,303.421844 91.597687,297.314484 
	C116.909653,297.314484 142.167252,297.314484 167.911026,297.314484 
z"/>
<path fill="#010101" opacity="1.000000" stroke="none" 
	d="
M172.852356,142.954193 
	C174.232895,143.732147 175.856888,144.472244 175.899277,145.293945 
	C176.145462,150.066925 176.019684,154.859085 176.019684,159.840607 
	C147.724350,159.840607 119.820160,159.840607 91.620605,159.840607 
	C91.620605,154.376343 91.620605,148.969040 91.620605,142.954025 
	C118.566017,142.954025 145.465607,142.954025 172.852356,142.954193 
z"/>
<path fill="#010101" opacity="1.000000" stroke="none" 
	d="
M176.021454,250.113876 
	C176.021454,254.568069 176.021454,258.536713 176.021454,262.774292 
	C147.865311,262.774292 119.971107,262.774292 91.700897,262.774292 
	C91.700897,257.482391 91.700897,252.096649 91.700897,246.321487 
	C92.600395,246.213806 93.685081,245.971420 94.769966,245.970520 
	C120.574043,245.949310 146.378372,246.001602 172.181961,245.888428 
	C175.111923,245.875580 176.664001,246.395004 176.021454,250.113876 
z"/>
<path fill="#050505" opacity="1.000000" stroke="none" 
	d="
M222.984100,213.008194 
	C218.725830,209.328033 214.746704,205.867203 210.453934,202.133560 
	C214.003799,199.050888 217.237610,196.242691 220.764359,193.180099 
	C225.094727,196.828262 229.376877,200.435791 233.848618,204.203049 
	C244.808868,194.774445 255.635147,185.461075 266.664886,175.972687 
	C269.980042,178.824753 273.248901,181.637009 277.108185,184.957245 
	C262.686584,197.406998 248.426422,209.717392 233.824829,222.322525 
	C230.237381,219.233231 226.750305,216.230377 222.984100,213.008194 
z"/>
<path fill="#050505" opacity="1.000000" stroke="none" 
	d="
M252.299530,291.309296 
	C257.215118,287.092010 261.867004,283.113342 266.687592,278.990387 
	C270.077576,281.913818 273.341522,284.728516 277.102234,287.971680 
	C262.647552,300.443634 248.359543,312.771790 233.819092,325.317749 
	C226.025635,318.605804 218.400330,312.038666 210.439789,305.182831 
	C213.962540,302.103302 217.183533,299.287537 220.769791,296.152496 
	C225.073135,299.804962 229.335953,303.423035 233.818253,307.227417 
	C239.966446,301.935791 246.001144,296.741821 252.299530,291.309296 
z"/>
<path fill="#050505" opacity="1.000000" stroke="none" 
	d="
M273.539185,136.591644 
	C260.174774,148.100372 247.069748,159.375000 233.781494,170.807266 
	C225.893433,163.997513 218.257095,157.405060 210.423447,150.642288 
	C214.016663,147.539459 217.278763,144.722534 220.841309,141.646179 
	C225.058563,145.252258 229.203308,148.796341 233.800690,152.727448 
	C244.597687,143.446472 255.400146,134.160828 266.647064,124.493103 
	C270.018463,127.370575 273.372711,130.233398 277.020325,133.346619 
	C275.842255,134.447601 274.820404,135.402573 273.539185,136.591644 
z"/>
<path fill="#050505" opacity="1.000000" stroke="none" 
	d="
M252.590027,239.599518 
	C257.380585,235.464661 261.907074,231.566315 266.650269,227.481354 
	C270.198730,230.518799 273.584229,233.416733 277.151062,236.469925 
	C262.572845,249.022858 248.219910,261.381805 233.783752,273.812378 
	C225.929413,267.035187 218.389893,260.529633 210.432816,253.663773 
	C213.986938,250.582367 217.297287,247.712311 220.838196,244.642380 
	C225.155334,248.336121 229.303513,251.885315 233.789581,255.723602 
	C239.992264,250.407272 246.159119,245.121658 252.590027,239.599518 
z"/>
</svg>