<svg version="1.1" id="Layer_1" xmlns="http://www.w3.org/2000/svg" xmlns:xlink="http://www.w3.org/1999/xlink" x="0px" y="0px"
	 width="100%" viewBox="0 0 416 400" enable-background="new 0 0 416 400" xml:space="preserve">
<path fill="#000000" opacity="1.000000" stroke="none" 
	d="
M99.073097,316.314636 
	C97.251648,316.306488 95.916748,316.251587 94.585564,316.299713 
	C91.802109,316.400330 90.779472,315.037933 90.770462,312.330505 
	C90.760765,309.417389 92.218727,308.640076 94.824379,308.649445 
	C107.657227,308.695526 120.493736,308.491760 133.321564,308.747437 
	C137.875656,308.838226 139.278824,307.144592 139.766571,302.788269 
	C142.132660,281.655121 144.869049,260.563721 147.392609,239.447784 
	C149.561691,221.298111 151.601898,203.133087 153.734970,184.979050 
	C155.131531,173.093262 156.320251,161.172607 158.164108,149.355240 
	C158.855530,144.923935 157.464355,144.201157 153.644348,144.221100 
	C134.145309,144.322998 114.645462,144.270218 95.145905,144.257416 
	C93.481789,144.256317 91.772614,144.374390 90.163048,144.048492 
	C86.786995,143.364960 84.381241,141.378204 83.813736,137.844193 
	C83.272705,134.475052 84.856857,131.969391 87.812714,130.490097 
	C95.111633,126.837204 102.458969,123.280357 109.805710,119.723862 
	C126.450867,111.666107 143.054688,103.519402 159.797318,95.669075 
	C163.851303,93.768219 165.418274,90.978409 165.686325,86.805359 
	C165.930969,82.996819 166.384521,79.187859 167.001083,75.420837 
	C167.651932,71.444305 169.553848,68.570282 174.183472,68.625946 
	C178.587646,68.678902 180.932083,70.869530 181.450562,75.208420 
	C181.864014,78.668381 182.714264,82.108536 182.783554,85.569229 
	C182.874741,90.122787 185.259705,91.632561 189.342590,92.542572 
	C232.514847,102.164940 275.654388,111.934311 318.798584,121.682373 
	C330.313141,124.283989 341.822662,126.909508 353.315247,129.606049 
	C358.989960,130.937531 361.133392,133.480042 360.400726,138.018280 
	C359.593689,143.017197 355.823792,144.178818 351.534027,144.236847 
	C344.702148,144.329254 337.865875,144.359131 331.035858,144.211975 
	C327.743347,144.141022 326.214874,145.082474 326.244904,148.719528 
	C326.384033,165.551331 326.381866,182.385529 326.247894,199.217407 
	C326.219513,202.785355 327.578064,203.825302 330.967560,203.762772 
	C339.797638,203.599869 348.634766,203.821243 357.464935,203.660522 
	C361.166107,203.593140 362.408386,205.030487 362.367920,208.668579 
	C362.223419,221.666672 362.238708,234.668030 362.360992,247.666580 
	C362.393616,251.132675 361.083130,252.344574 357.655823,252.330597 
	C333.990082,252.234085 310.323578,252.220139 286.657837,252.310196 
	C282.916260,252.324432 281.699554,250.766983 281.727692,247.221954 
	C281.829620,234.389725 281.878906,221.554733 281.706024,208.724030 
	C281.650879,204.631470 283.453766,203.600922 287.142639,203.666168 
	C295.806366,203.819382 304.476807,203.601822 313.140137,203.766281 
	C316.599640,203.831940 317.842621,202.587128 317.820129,199.124161 
	C317.710846,182.291977 317.728271,165.458420 317.818665,148.625961 
	C317.835999,145.399841 316.609283,144.225983 313.397003,144.231186 
	C273.731354,144.295441 234.065521,144.312485 194.399994,144.223236 
	C190.415741,144.214264 190.029984,146.317810 190.398972,149.319443 
	C192.243744,164.325928 194.143066,179.325806 195.952744,194.336487 
	C198.119553,212.309357 200.183685,230.294586 202.350067,248.267502 
	C204.636429,267.235809 207.056610,286.188324 209.254074,305.166718 
	C209.642960,308.525269 211.599243,308.661621 214.097794,308.658203 
	C227.097473,308.640442 240.097778,308.727325 253.096481,308.614929 
	C256.460388,308.585876 258.191833,309.612000 257.738831,313.196442 
	C257.497498,315.105988 256.636139,316.277222 254.553253,316.261627 
	C252.887283,316.249146 251.220871,316.313354 249.554657,316.313446 
	C199.556885,316.316101 149.559097,316.315033 99.073097,316.314636 
M329.412354,136.606506 
	C334.428131,136.606506 339.443909,136.606506 344.459686,136.606506 
	C344.480865,136.243896 344.502075,135.881302 344.523254,135.518692 
	C291.457611,123.535072 238.391983,111.551445 184.577286,99.398666 
	C185.884430,110.416931 187.368942,120.577202 188.173309,130.791031 
	C188.528305,135.298782 189.961594,136.734711 194.506088,136.719055 
	C239.148712,136.565231 283.792053,136.615891 329.412354,136.606506 
M345.391052,211.412018 
	C328.755463,211.412048 312.119080,211.499130 295.484894,211.345993 
	C291.702972,211.311203 290.066498,212.287109 290.207977,216.382767 
	C290.477661,224.192169 290.442139,232.021912 290.220001,239.834290 
	C290.112244,243.623627 291.586517,244.682755 295.188141,244.656219 
	C313.153595,244.523926 331.121307,244.500595 349.086273,244.659943 
	C352.961090,244.694290 353.930389,243.139526 353.842834,239.621429 
	C353.669098,232.638962 353.804932,225.648880 353.805634,218.661957 
	C353.806396,211.439407 353.802673,211.439407 345.391052,211.412018 
M109.539207,136.618408 
	C124.501579,136.616257 139.465454,136.498428 154.425278,136.692612 
	C158.207382,136.741699 159.933899,135.449463 160.250259,131.766174 
	C160.519424,128.632217 161.087936,125.525246 161.436783,122.396606 
	C162.122086,116.250648 162.746765,110.097923 163.526932,102.713722 
	C140.067047,113.993729 117.688957,124.753593 95.310867,135.513458 
	C95.422951,135.881485 95.535034,136.249512 95.647118,136.617538 
	C99.950737,136.617538 104.254356,136.617538 109.539207,136.618408 
M200.710419,304.394318 
	C200.362625,301.264984 199.776108,298.139465 199.725830,295.005371 
	C199.658997,290.838257 198.046371,289.157898 193.686554,289.232849 
	C180.728256,289.455688 167.763000,289.385345 154.801956,289.267181 
	C151.289673,289.235168 149.121521,289.863861 149.108444,294.077484 
	C149.097733,297.530518 148.520981,301.031525 147.773087,304.418060 
	C147.071045,307.596954 148.099136,308.678131 151.206879,308.667297 
	C166.495316,308.614105 181.784119,308.629822 197.072662,308.665802 
	C199.463333,308.671448 200.967545,307.952423 200.710419,304.394318 
M186.418457,262.317322 
	C176.774490,262.323059 167.130539,262.336304 157.486572,262.329346 
	C155.054520,262.327576 152.705429,262.335754 152.389740,265.630951 
	C151.902161,270.720306 151.358154,275.804230 150.842072,280.851379 
	C152.688583,281.961670 154.386475,281.625732 156.004303,281.630493 
	C166.313278,281.660919 176.622406,281.646881 186.931473,281.649689 
	C197.593689,281.652557 197.593689,281.653656 196.724014,270.917633 
	C196.026566,262.307800 196.026566,262.307800 186.418457,262.317322 
M166.553421,235.314865 
	C156.621399,235.314072 156.616653,235.313309 155.011276,245.375916 
	C154.749634,247.015900 154.560684,248.667358 154.321198,250.311020 
	C153.842194,253.598694 155.294510,254.739929 158.542953,254.693420 
	C167.873886,254.559830 177.207993,254.648331 186.540848,254.648346 
	C194.669937,254.648346 194.676926,254.646805 193.779755,246.735596 
	C193.498840,244.258469 192.988632,241.792877 192.905930,239.311264 
	C192.794388,235.964096 191.033478,235.205566 188.036819,235.269333 
	C181.206924,235.414673 174.371826,235.315323 166.553421,235.314865 
M161.893219,227.642532 
	C171.601852,227.642532 181.310486,227.642532 191.522980,227.642532 
	C190.854248,222.133392 190.295593,217.566025 189.749939,212.997086 
	C189.671326,212.338852 189.673889,211.671249 189.607056,211.011200 
	C189.355515,208.526840 187.554184,208.320099 185.620102,208.317886 
	C180.807465,208.312378 175.994843,208.303986 171.182205,208.302780 
	C159.768600,208.299942 159.771973,208.301849 158.071701,219.808655 
	C157.878113,221.118729 157.573807,222.413208 157.402191,223.725571 
	C157.047501,226.438309 158.159714,227.852173 161.893219,227.642532 
M160.572510,199.113022 
	C160.924042,199.942627 161.537872,200.537323 162.436234,200.543121 
	C169.929901,200.591614 177.423828,200.606674 184.917694,200.614120 
	C187.451630,200.616638 187.948608,198.992767 187.719498,196.912262 
	C187.156052,191.795486 186.519714,186.686539 185.985062,181.566879 
	C185.729813,179.122742 184.462021,178.093094 182.040970,178.112488 
	C177.045013,178.152527 172.047195,178.147583 167.052200,178.052719 
	C163.598679,177.987122 162.510895,179.762253 162.270462,182.981201 
	C161.887299,188.110931 161.092361,193.209930 160.572510,199.113022 
M165.311584,158.581085 
	C164.994904,161.043854 164.640793,163.502548 164.372437,165.970581 
	C164.118973,168.301544 164.842896,169.884354 167.552750,169.876663 
	C172.204224,169.863480 176.855881,169.913177 181.507324,169.898346 
	C183.464706,169.892090 184.662674,169.179901 184.347519,166.880997 
	C183.469910,160.479202 182.664200,154.067429 181.858795,147.655975 
	C181.633835,145.865204 181.097031,144.662918 178.969757,144.276611 
	C169.866425,142.623459 167.418198,144.257690 166.034195,153.265244 
	C165.807587,154.740051 165.574326,156.213821 165.311584,158.581085 
M168.485809,134.938812 
	C170.340866,137.957123 173.295868,136.278503 175.760300,136.590164 
	C179.397324,137.050125 180.673141,135.851044 180.060654,131.768311 
	C178.584259,121.926949 177.736694,111.991585 176.612762,102.096710 
	C176.430069,100.488350 176.500687,98.723732 173.579285,97.218407 
	C170.232254,109.535919 170.076920,121.968590 168.485809,134.938812 
z"/>
</svg>