<?xml version="1.0" encoding="UTF-8" standalone="no"?>
<svg width="231px" height="178px" viewBox="0 0 231 178" version="1.1" xmlns="http://www.w3.org/2000/svg" xmlns:xlink="http://www.w3.org/1999/xlink">
    <defs></defs>
    <g id="Page-1" stroke="none" stroke-width="1" fill="none" fill-rule="evenodd">
        <g id="Desktop-HD" transform="translate(-100.000000, -100.000000)">
            <g id="Bear" transform="translate(100.000000, 100.000000)">
                <path d="M85.102,161.346 C85.102,166.112 79.754,172.517 74.598,172.517 L56.964,172.517 C51.806,172.517 47.627,172.883 47.627,168.117 L47.627,95.027 C47.627,90.261 47.627,68.392 57.609,57.305 C57.609,57.305 64.225,51.574 74.728,51.624 C77.239,51.636 84.454,52.487 89.64,55.359 C98.068,60.027 105.384,71.759 105.384,93.466 C105.384,115.461 95.232,119.992 93.443,121.737 L77.302,153.588 C76.845,154.491 77.114,155.596 77.936,156.188 L85.102,161.346" id="Fill-37" fill="#2D1607"></path>
                <path d="M89.64,168.925 C89.64,173.486 86.275,177.184 82.125,177.184 L55.142,177.184 C50.993,177.184 47.627,173.486 47.627,168.925 C47.627,164.366 50.993,160.67 55.142,160.67 L82.125,160.67 C86.275,160.67 89.64,164.366 89.64,168.925" id="Fill-38" fill="#2D1607"></path>
                <path d="M156.804,0.832 C112.767,0.832 96.574,19.637 91.834,25.218 C91.429,25.696 89.779,26.134 88.088,26.459 L76.317,26.459 C62.395,26.956 34.675,28.272 15.49,49.848 C4.478,62.233 0.285,79.024 0.285,95.027 L0.285,168.117 C0.285,172.883 4.511,172.517 9.723,172.517 L27.552,172.517 C32.765,172.517 38.171,166.112 38.171,161.346 L30.923,156.187 C30.093,155.596 29.82,154.491 30.282,153.588 L42.465,129.813 C45.706,123.631 50.993,123.16 52.195,123.16 L95.099,123.16 C96.187,123.16 97.067,124.031 97.067,125.106 L97.067,165.344 C97.067,167.893 107.931,177.184 110.508,177.184 L139.998,177.184 L139.998,136.08 C140.024,124.409 152.703,123.83 153.789,123.83 L171.224,123.83 C172.31,123.83 182.928,125.447 182.928,136.986 L182.928,166.395 C182.928,168.945 196.906,177.184 199.483,177.184 L210.179,177.183 C212.358,177.183 221.502,169.543 221.502,167.386 L221.502,65.527 C221.502,38.706 208.323,0.832 156.804,0.832" id="Fill-39" fill="#542F13"></path>
                <path d="M42.299,168.925 C42.299,173.486 38.932,177.184 34.782,177.184 L7.8,177.184 C3.649,177.184 0.285,173.486 0.285,168.925 C0.285,164.366 3.649,160.67 7.8,160.67 L34.782,160.67 C38.932,160.67 42.299,164.366 42.299,168.925" id="Fill-40" fill="#542F13"></path>
                <path d="M147.461,167.386 C147.461,172.796 143.425,177.184 138.446,177.184 L106.08,177.184 C101.104,177.184 97.067,172.796 97.067,167.386 L97.067,157.588 L138.446,157.588 C143.425,157.588 147.461,161.975 147.461,167.386" id="Fill-41" fill="#80562A"></path>
                <path d="M230.27,167.364 C230.27,172.776 226.481,177.162 221.813,177.162 L191.442,177.162 C186.771,177.162 182.984,172.776 182.984,167.364 L182.984,157.567 L221.813,157.567 C226.481,157.567 230.27,161.954 230.27,167.364" id="Fill-42" fill="#80562A"></path>
                <path d="M210.657,68.11 L195.304,31.571 C193.101,28.672 189.649,26.957 186.011,26.957 L134.599,26.957 C130.959,26.957 127.508,28.672 125.303,31.571 L109.95,68.11 C105.298,78.707 103.757,89.904 115.727,101.102 L133.804,114.905 C143.033,121.528 150.425,121.518 154.077,121.518 L165.375,121.518 C169.03,121.518 176.171,121.528 186.437,115.652 L204.883,101.102 C216.854,89.904 215.31,78.707 210.657,68.11" id="Fill-43" fill="#80562A"></path>
                <path d="M197.641,58.049 C199.992,60.402 203.809,60.402 206.162,58.049 L212.992,43.042 C216.839,35.32 212.321,31.985 207.298,32.386 L188.515,32.386 L197.641,58.049" id="Fill-44" fill="#80562A"></path>
                <path d="M122.966,58.049 C120.614,60.402 116.8,60.402 114.443,58.049 L107.616,43.042 C103.769,35.32 108.287,31.985 113.31,32.386 L132.093,32.386 L122.966,58.049" id="Fill-45" fill="#80562A"></path>
                <path d="M180.891,100.206 C180.891,107.634 175.494,113.658 168.841,113.658 L151.768,113.658 C145.114,113.658 139.718,107.634 139.718,100.206 L139.718,78.907 C139.718,71.479 145.114,65.456 151.768,65.456 L168.841,65.456 C175.494,65.456 180.891,71.479 180.891,78.907 L180.891,100.206" id="Fill-46" fill="#CA9B78"></path>
                <path d="M173.082,79.598 C173.082,84.637 169.001,88.72 163.961,88.72 L156.647,88.72 C151.607,88.72 147.526,84.637 147.526,79.598 C147.526,74.561 151.607,70.478 156.647,70.478 L163.961,70.478 C169.001,70.478 173.082,74.561 173.082,79.598" id="Fill-47" fill="#2D1607"></path>
            </g>
        </g>
    </g>
</svg>