<?xml version="1.0" encoding="UTF-8"?>
<!DOCTYPE svg PUBLIC "-//W3C//DTD SVG 1.1//EN" "http://www.w3.org/Graphics/SVG/1.1/DTD/svg11.dtd">
<svg xmlns="http://www.w3.org/2000/svg" version="1.1" width="480px" height="480px" style="shape-rendering:geometricPrecision; text-rendering:geometricPrecision; image-rendering:optimizeQuality; fill-rule:evenodd; clip-rule:evenodd" xmlns:xlink="http://www.w3.org/1999/xlink">
<g><path style="opacity:0.944" fill="#000000" d="M 157.5,-0.5 C 164.167,-0.5 170.833,-0.5 177.5,-0.5C 194.958,4.11781 206.958,14.9511 213.5,32C 246.317,36.6626 269.983,53.8292 284.5,83.5C 296.197,81.9699 306.364,85.3032 315,93.5C 318.922,100.342 322.588,107.342 326,114.5C 330.789,131.152 325.955,143.985 311.5,153C 314.694,165.628 316.36,178.462 316.5,191.5C 333.17,191.333 349.837,191.5 366.5,192C 385.042,195.52 400.542,204.354 413,218.5C 422.5,233.5 432,248.5 441.5,263.5C 461.246,269.246 473.912,281.912 479.5,301.5C 479.5,308.167 479.5,314.833 479.5,321.5C 476.994,331.673 471.994,340.506 464.5,348C 471.567,352.995 476.567,359.495 479.5,367.5C 479.5,383.833 479.5,400.167 479.5,416.5C 474.818,430.337 465.152,438.17 450.5,440C 353.501,440.5 256.501,440.667 159.5,440.5C 159.5,434.833 159.5,429.167 159.5,423.5C 256.501,423.667 353.501,423.5 450.5,423C 458.04,421.092 462.207,416.259 463,408.5C 463.897,395.785 463.564,383.118 462,370.5C 460.167,366 457,362.833 452.5,361C 310.5,360.333 168.5,360.333 26.5,361C 22,362.833 18.8333,366 17,370.5C 16.3333,384.5 16.3333,398.5 17,412.5C 18.0014,415.173 19.5014,417.507 21.5,419.5C 17.8752,423.795 14.0419,427.795 10,431.5C 4.74421,427.323 1.24421,421.989 -0.5,415.5C -0.5,399.5 -0.5,383.5 -0.5,367.5C 2.43726,359.987 7.10392,353.653 13.5,348.5C 6.9699,341.096 2.30324,332.763 -0.5,323.5C -0.5,317.167 -0.5,310.833 -0.5,304.5C 5.23334,285.603 17.7333,273.603 37,268.5C 46,253.167 55,237.833 64,222.5C 76.0202,205.827 92.1868,195.66 112.5,192C 109.504,179.155 113.17,168.655 123.5,160.5C 112.476,135.878 111.643,110.878 121,85.5C 122.787,81.4234 124.954,77.59 127.5,74C 119.927,62.9694 117.427,50.8027 120,37.5C 125.349,17.6518 137.849,4.98517 157.5,-0.5 Z M 160.5,16.5 C 174.801,14.6481 186.135,19.4814 194.5,31C 172.487,33.6009 153.82,42.7675 138.5,58.5C 133.564,44.7839 136.564,32.9506 147.5,23C 151.647,20.2599 155.98,18.0933 160.5,16.5 Z M 131.5,122.5 C 133.46,123.138 135.293,123.138 137,122.5C 138.838,117.65 140.672,112.817 142.5,108C 139.65,106.829 136.816,105.662 134,104.5C 133.752,99.8279 134.919,95.4946 137.5,91.5C 143.337,94.9175 149.004,98.5842 154.5,102.5C 158.675,98.662 162.008,94.162 164.5,89C 158.5,84.6667 152.5,80.3333 146.5,76C 151.469,69.3533 157.469,63.8533 164.5,59.5C 164.833,59.8333 165.167,60.1667 165.5,60.5C 168.683,68.2483 172.516,75.5816 177,82.5C 182.169,80.8317 187.003,78.4984 191.5,75.5C 188.106,67.7118 184.439,60.0451 180.5,52.5C 188.173,48.8988 196.173,47.8988 204.5,49.5C 202.359,56.3957 200.693,63.3957 199.5,70.5C 204.774,71.9229 210.108,72.7563 215.5,73C 217.732,65.4712 220.065,57.9712 222.5,50.5C 227.037,52.1205 231.371,54.1205 235.5,56.5C 233.818,59.6452 233.151,62.8118 233.5,66C 237.958,67.6465 242.458,69.1465 247,70.5C 248.765,69.7679 249.932,68.4346 250.5,66.5C 258.358,73.192 264.525,81.192 269,90.5C 276.333,107.833 283.667,125.167 291,142.5C 300.488,168.439 301.821,194.772 295,221.5C 291.73,231.217 286.563,239.717 279.5,247C 256.124,247.177 232.791,247.677 209.5,248.5C 186.171,233.667 168.671,213.667 157,188.5C 150.255,174.677 143.255,161.01 136,147.5C 132.89,139.45 131.39,131.116 131.5,122.5 Z M 291.5,101.5 C 295.435,100.178 298.935,101.178 302,104.5C 305.842,111.352 309.009,118.519 311.5,126C 310.972,129.563 309.306,132.396 306.5,134.5C 301.679,123.348 296.679,112.348 291.5,101.5 Z M 130.5,176.5 C 131.458,176.953 132.292,177.619 133,178.5C 137.911,188.657 143.078,198.657 148.5,208.5C 143.529,209.942 139.362,208.609 136,204.5C 132.885,197.939 130.052,191.272 127.5,184.5C 128.199,181.69 129.199,179.023 130.5,176.5 Z M 115.5,208.5 C 116.978,208.238 118.311,208.571 119.5,209.5C 128.694,224.959 142.027,230.126 159.5,225C 165.75,234.586 173.417,242.919 182.5,250C 141.451,254.405 100.451,258.738 59.5,263C 66.7098,252.084 73.5431,240.917 80,229.5C 89.3984,218.223 101.232,211.223 115.5,208.5 Z M 314.5,208.5 C 331.17,208.333 347.837,208.5 364.5,209C 378.448,211.223 389.948,217.723 399,228.5C 406.625,240.249 414.125,252.082 421.5,264C 394.301,266.297 367.134,268.797 340,271.5C 330.896,265.4 322.063,258.9 313.5,252C 309.878,249.356 305.878,247.523 301.5,246.5C 309.025,234.923 313.359,222.257 314.5,208.5 Z M 207.5,264.5 C 238.835,264.333 270.168,264.5 301.5,265C 305.783,267.615 309.783,270.615 313.5,274C 282.481,278.574 251.481,283.241 220.5,288C 170.423,306.137 120.423,324.47 70.5,343C 60.8333,343.667 51.1667,343.667 41.5,343C 28.6461,341.145 20.4794,333.978 17,321.5C 14.5237,303.276 22.0237,291.443 39.5,286C 51.8981,282.067 64.5648,279.401 77.5,278C 121.017,273.816 164.35,269.316 207.5,264.5 Z M 421.5,280.5 C 445.943,277.211 459.943,287.711 463.5,312C 462.239,326.926 454.572,336.926 440.5,342C 431.219,343.519 421.886,343.853 412.5,343C 351.963,337.747 291.463,332.247 231,326.5C 214.908,332.197 198.741,337.697 182.5,343C 161.5,343.667 140.5,343.667 119.5,343C 154.91,330.197 190.244,317.197 225.5,304C 260.821,298.906 296.155,293.906 331.5,289C 361.692,286.597 391.692,283.763 421.5,280.5 Z M 83.5,392.5 C 89.7227,391.271 93.7227,393.605 95.5,399.5C 90.8163,404.857 86.483,410.523 82.5,416.5C 74.1848,408.018 74.5181,400.018 83.5,392.5 Z M 112.5,412.5 C 119.707,411.762 124.707,414.596 127.5,421C 124.552,428.821 119.886,430.154 113.5,425C 108.923,423.356 104.256,422.022 99.5,421C 102.953,416.62 107.287,413.787 112.5,412.5 Z"/></g>
<g><path style="opacity:0.916" fill="#000000" d="M 253.5,105.5 C 260.441,104.964 267.108,105.964 273.5,108.5C 272.061,113.43 270.394,118.263 268.5,123C 252.522,120.322 240.855,126.156 233.5,140.5C 228.52,138.452 223.686,136.119 219,133.5C 222.164,123.75 228.331,116.25 237.5,111C 242.715,108.429 248.048,106.596 253.5,105.5 Z"/></g>
<g><path style="opacity:0.911" fill="#000000" d="M 271.5,128.5 C 272.75,128.577 273.583,129.244 274,130.5C 275.158,135.457 275.992,140.457 276.5,145.5C 265.298,147.352 255.465,152.018 247,159.5C 243.31,155.311 239.81,150.978 236.5,146.5C 238.745,143.088 241.745,140.588 245.5,139C 253.929,134.587 262.596,131.087 271.5,128.5 Z"/></g>
<g><path style="opacity:0.921" fill="#000000" d="M 181.5,138.5 C 188.563,138.212 195.563,138.712 202.5,140C 202.957,140.414 203.291,140.914 203.5,141.5C 201.755,146.4 200.422,151.4 199.5,156.5C 187.169,153.335 176.669,156.335 168,165.5C 166.985,168.21 165.485,170.543 163.5,172.5C 158.236,170.866 153.236,168.7 148.5,166C 154.862,151.167 165.862,142 181.5,138.5 Z"/></g>
<g><path style="opacity:0.921" fill="#000000" d="M 223.5,144.5 C 231.059,159.286 238.392,174.286 245.5,189.5C 240.286,192.024 235.12,194.691 230,197.5C 223.235,182.136 216.068,166.97 208.5,152C 213.592,149.454 218.592,146.954 223.5,144.5 Z"/></g>
<g><path style="opacity:0.909" fill="#000000" d="M 198.5,161.5 C 199.833,161.5 201.167,161.5 202.5,161.5C 202.927,166.803 203.927,171.97 205.5,177C 194.531,179.985 184.531,184.819 175.5,191.5C 170.544,188.074 167.044,183.741 165,178.5C 175.07,170.549 186.237,164.882 198.5,161.5 Z"/></g>
<g><path style="opacity:0.915" fill="#000000" d="M 253.5,197.5 C 256.882,200.567 260.048,203.901 263,207.5C 264.368,208.993 264.535,210.493 263.5,212C 251.805,220.177 238.805,224.677 224.5,225.5C 224.5,219.833 224.5,214.167 224.5,208.5C 235.405,207.759 245.072,204.092 253.5,197.5 Z"/></g>
<g><path style="opacity:0.952" fill="#000000" d="M 115.5,479.5 C 110.5,479.5 105.5,479.5 100.5,479.5C 96.4238,477.953 92.7571,475.62 89.5,472.5C 85.7326,475.378 81.7326,477.712 77.5,479.5C 72.5,479.5 67.5,479.5 62.5,479.5C 46.9196,473.005 41.5862,461.672 46.5,445.5C 41.1317,441.298 36.6317,436.298 33,430.5C 29.0308,408.783 38.1975,397.283 60.5,396C 69.2975,375.216 83.6309,370.216 103.5,381C 107.772,384.884 110.772,389.551 112.5,395C 127.16,394.689 137.327,401.189 143,414.5C 145.513,426.97 141.346,436.47 130.5,443C 136.907,459.96 131.907,472.127 115.5,479.5 Z M 83.5,392.5 C 74.5181,400.018 74.1848,408.018 82.5,416.5C 86.483,410.523 90.8163,404.857 95.5,399.5C 93.7227,393.605 89.7227,391.271 83.5,392.5 Z M 112.5,412.5 C 107.287,413.787 102.953,416.62 99.5,421C 104.256,422.022 108.923,423.356 113.5,425C 119.886,430.154 124.552,428.821 127.5,421C 124.707,414.596 119.707,411.762 112.5,412.5 Z M 53.5,413.5 C 55.9201,413.292 58.2534,413.626 60.5,414.5C 63.5329,420.7 67.5329,426.2 72.5,431C 62.973,434.486 55.1397,432.319 49,424.5C 47.3926,419.438 48.8926,415.772 53.5,413.5 Z M 100.5,438.5 C 109.7,440.201 115.033,445.701 116.5,455C 115.339,461.166 111.672,463.832 105.5,463C 103.208,461.71 101.208,460.043 99.5,458C 101.738,451.631 102.071,445.131 100.5,438.5 Z M 82.5,444.5 C 85.0825,454.578 80.9159,460.912 70,463.5C 61.7851,461.673 59.6184,457.173 63.5,450C 70.4908,449.979 76.8242,448.146 82.5,444.5 Z"/></g>
</svg>
