<?xml version="1.0" encoding="UTF-8"?>
<!DOCTYPE svg PUBLIC "-//W3C//DTD SVG 1.1//EN" "http://www.w3.org/Graphics/SVG/1.1/DTD/svg11.dtd">
<svg xmlns="http://www.w3.org/2000/svg" version="1.1" width="128px" height="128px" style="shape-rendering:geometricPrecision; text-rendering:geometricPrecision; image-rendering:optimizeQuality; fill-rule:evenodd; clip-rule:evenodd" xmlns:xlink="http://www.w3.org/1999/xlink">
<g><path style="opacity:0.808" fill="#000000" d="M 127.5,64.5 C 127.5,72.1667 127.5,79.8333 127.5,87.5C 124.833,87.5 122.167,87.5 119.5,87.5C 119.667,99.8378 119.5,112.171 119,124.5C 113.667,125.833 108.333,125.833 103,124.5C 102.5,112.171 102.333,99.8378 102.5,87.5C 99.5525,87.2229 96.7191,87.5562 94,88.5C 93.4846,92.5773 92.6513,96.5773 91.5,100.5C 93.3168,107.063 94.1501,113.729 94,120.5C 91.5647,125.224 87.7314,126.724 82.5,125C 81.3333,123.833 80.1667,122.667 79,121.5C 77.1258,113.255 75.7925,104.922 75,96.5C 74.3109,97.3567 73.4776,98.0233 72.5,98.5C 71.9388,106.581 71.1054,114.581 70,122.5C 64.967,126.779 60.3003,126.446 56,121.5C 55.3333,111.833 55.3333,102.167 56,92.5C 56.7845,90.714 57.9512,89.214 59.5,88C 51.5069,87.5003 43.5069,87.3336 35.5,87.5C 33.9713,92.8899 31.638,97.8899 28.5,102.5C 27.2638,103.246 25.9305,103.579 24.5,103.5C 24.6663,110.508 24.4996,117.508 24,124.5C 18.918,125.637 13.7513,125.804 8.5,125C 7.51119,112.58 7.17786,100.08 7.5,87.5C 4.83333,87.5 2.16667,87.5 -0.5,87.5C -0.5,81.1667 -0.5,74.8333 -0.5,68.5C 0.551975,68.6495 1.55198,68.4828 2.5,68C 1.36362,66.8549 0.363622,65.6883 -0.5,64.5C -0.5,61.1667 -0.5,57.8333 -0.5,54.5C 7.43298,44.3003 15.7663,43.967 24.5,53.5C 27.95,51.7758 31.6166,51.1091 35.5,51.5C 35.2965,49.6096 35.9632,48.1096 37.5,47C 43.0001,43.8854 48.6667,41.0521 54.5,38.5C 56.9574,35.086 59.2907,31.586 61.5,28C 49.3936,27.5652 44.2269,21.3985 46,9.5C 50.8838,1.3107 57.7171,-0.689301 66.5,3.5C 70.1242,7.08158 71.7909,11.4149 71.5,16.5C 84.9648,17.4643 93.4648,24.4643 97,37.5C 97.4996,44.1583 97.6663,50.825 97.5,57.5C 104.508,57.3337 111.508,57.5004 118.5,58C 122.279,59.2105 125.279,61.3772 127.5,64.5 Z M 56.5,5.5 C 65.1091,6.09011 68.2758,10.4234 66,18.5C 63.0453,22.2765 59.212,23.4432 54.5,22C 47.9903,15.6792 48.6569,10.1792 56.5,5.5 Z M 70.5,21.5 C 80.46,21.4757 87.46,25.9757 91.5,35C 93.1326,42.0905 93.6326,49.2572 93,56.5C 89.4249,53.3959 85.2582,51.7292 80.5,51.5C 81.9932,46.7769 81.8265,42.1103 80,37.5C 78.5038,34.9976 76.3371,33.3309 73.5,32.5C 69.4772,37.3655 65.8105,42.5321 62.5,48C 55.9546,51.4396 49.2879,54.6062 42.5,57.5C 38.8945,55.4733 38.5612,52.9733 41.5,50C 47.573,47.2146 53.4064,44.0479 59,40.5C 62.8446,34.1389 66.6779,27.8055 70.5,21.5 Z M 73.5,38.5 C 75.6491,39.5904 76.9825,41.4238 77.5,44C 76.6777,46.4339 76.3444,48.9339 76.5,51.5C 72.8183,51.6653 69.1516,51.4986 65.5,51C 69.0615,47.3701 71.7281,43.2035 73.5,38.5 Z M 10.5,50.5 C 18.456,51.2936 21.6227,55.627 20,63.5C 12.6458,70.896 7.14578,69.7294 3.5,60C 3.78207,55.2305 6.1154,52.0638 10.5,50.5 Z M 30.5,55.5 C 33.9902,55.1506 36.3235,56.6506 37.5,60C 39.0344,60.923 40.701,61.423 42.5,61.5C 47.2624,59.967 51.929,58.1336 56.5,56C 64.5,55.3333 72.5,55.3333 80.5,56C 84.381,56.6072 87.7144,58.2738 90.5,61C 99.1667,61.3333 107.833,61.6667 116.5,62C 119.743,62.9082 122.077,64.9082 123.5,68C 93.1685,68.5 62.8352,68.6666 32.5,68.5C 34.2564,79.6886 31.923,89.8553 25.5,99C 23.1738,99.1849 21.8405,98.0182 21.5,95.5C 22.5671,92.4662 23.7337,89.4662 25,86.5C 25.3333,77.5 25.6667,68.5 26,59.5C 26.9066,57.3909 28.4066,56.0576 30.5,55.5 Z M 3.5,72.5 C 9.16667,72.5 14.8333,72.5 20.5,72.5C 20.5,76.1667 20.5,79.8333 20.5,83.5C 14.8333,83.5 9.16667,83.5 3.5,83.5C 3.5,79.8333 3.5,76.1667 3.5,72.5 Z M 36.5,72.5 C 65.5,72.5 94.5,72.5 123.5,72.5C 123.5,76.1667 123.5,79.8333 123.5,83.5C 94.5,83.5 65.5,83.5 36.5,83.5C 36.5,79.8333 36.5,76.1667 36.5,72.5 Z M 12.5,87.5 C 14.924,87.1924 17.2573,87.5258 19.5,88.5C 16.1072,92.7893 15.9405,97.1226 19,101.5C 19.4996,108.158 19.6663,114.825 19.5,121.5C 17.1667,121.5 14.8333,121.5 12.5,121.5C 12.5,110.167 12.5,98.8333 12.5,87.5 Z M 64.5,87.5 C 68.5138,87.3345 72.5138,87.5012 76.5,88C 73.6667,90.8333 70.8333,93.6667 68,96.5C 67.6667,104.167 67.3333,111.833 67,119.5C 64.6667,122.167 62.3333,122.167 60,119.5C 59.3333,111.167 59.3333,102.833 60,94.5C 61.7498,92.2657 63.2498,89.9324 64.5,87.5 Z M 83.5,87.5 C 85.5,87.5 87.5,87.5 89.5,87.5C 86.8416,97.5798 87.1749,107.58 90.5,117.5C 88.94,121.848 86.44,122.515 83,119.5C 81.9262,112.984 80.7596,106.484 79.5,100C 79.9004,95.4557 81.2337,91.289 83.5,87.5 Z M 107.5,87.5 C 109.833,87.5 112.167,87.5 114.5,87.5C 114.5,98.8333 114.5,110.167 114.5,121.5C 112.167,121.5 109.833,121.5 107.5,121.5C 107.5,110.167 107.5,98.8333 107.5,87.5 Z"/></g>
</svg>
