<?xml version="1.0" encoding="UTF-8"?>
<!DOCTYPE svg PUBLIC "-//W3C//DTD SVG 1.1//EN" "http://www.w3.org/Graphics/SVG/1.1/DTD/svg11.dtd">
<svg xmlns="http://www.w3.org/2000/svg" version="1.1" width="480px" height="480px" style="shape-rendering:geometricPrecision; text-rendering:geometricPrecision; image-rendering:optimizeQuality; fill-rule:evenodd; clip-rule:evenodd" xmlns:xlink="http://www.w3.org/1999/xlink">
<g><path style="opacity:0.969" fill="#000000" d="M 479.5,233.5 C 479.5,240.167 479.5,246.833 479.5,253.5C 475.929,269.458 467.262,281.958 453.5,291C 467.196,300.513 475.863,313.347 479.5,329.5C 479.5,335.833 479.5,342.167 479.5,348.5C 477.235,360.194 471.902,370.36 463.5,379C 467.5,379.333 471.5,379.667 475.5,380C 476.949,381.102 478.282,382.269 479.5,383.5C 479.5,396.833 479.5,410.167 479.5,423.5C 478.282,424.731 476.949,425.898 475.5,427C 471.514,427.499 467.514,427.666 463.5,427.5C 463.666,436.839 463.5,446.173 463,455.5C 462.167,457 461,458.167 459.5,459C 446.167,459.667 432.833,459.667 419.5,459C 418.333,457.833 417.167,456.667 416,455.5C 411.5,446.5 407,437.5 402.5,428.5C 385.513,427.501 368.513,427.167 351.5,427.5C 351.666,436.839 351.5,446.173 351,455.5C 350.167,457 349,458.167 347.5,459C 243.5,459.667 139.5,459.667 35.5,459C 34.3333,457.833 33.1667,456.667 32,455.5C 27.5,446.5 23,437.5 18.5,428.5C 12.2015,427.504 5.86818,427.17 -0.5,427.5C -0.5,422.167 -0.5,416.833 -0.5,411.5C 16.8365,411.667 34.1699,411.5 51.5,411C 23.7342,389.744 11.9009,361.578 16,326.5C 17.0125,317.121 20.1792,308.621 25.5,301C 35.7572,299.244 46.0905,299.077 56.5,300.5C 60.456,272.09 74.7893,250.59 99.5,236C 102.167,235.333 104.833,235.333 107.5,236C 114.638,240.324 121.138,245.491 127,251.5C 127.333,220.833 127.667,190.167 128,159.5C 128.374,158.584 128.874,157.75 129.5,157C 132.957,155.257 136.623,154.257 140.5,154C 170.811,149.281 201.144,144.781 231.5,140.5C 231.665,137.482 231.498,134.482 231,131.5C 204.29,122.094 194.29,103.427 201,75.5C 207.576,53.8284 219.076,35.3284 235.5,20C 238.964,19.1834 242.298,19.5167 245.5,21C 262.505,37.8347 273.671,58.0014 279,81.5C 282.405,106.547 272.238,123.047 248.5,131C 247.577,133.041 247.244,135.208 247.5,137.5C 277.19,133.219 306.856,128.719 336.5,124C 340.167,123.333 343.833,123.333 347.5,124C 349,124.833 350.167,126 351,127.5C 351.5,147.497 351.667,167.497 351.5,187.5C 378.835,187.333 406.169,187.5 433.5,188C 458.014,194.015 473.347,209.181 479.5,233.5 Z M 238.5,41.5 C 240.716,42.2026 242.549,43.5359 244,45.5C 252.391,56.6173 258.391,68.9507 262,82.5C 265.172,96.4828 260.505,106.816 248,113.5C 247.501,108.845 247.334,104.179 247.5,99.5C 242.167,99.5 236.833,99.5 231.5,99.5C 231.666,104.179 231.499,108.845 231,113.5C 220.516,108.002 215.349,99.5021 215.5,88C 219.316,70.5356 226.982,55.0356 238.5,41.5 Z M 330.5,141.5 C 332.167,141.5 333.833,141.5 335.5,141.5C 335.5,156.833 335.5,172.167 335.5,187.5C 324.162,187.333 312.828,187.5 301.5,188C 276.758,193.076 261.591,207.909 256,232.5C 252.906,251.98 258.073,268.813 271.5,283C 241.846,290.161 225.513,308.995 222.5,339.5C 223.125,354.909 228.792,368.076 239.5,379C 235.5,379.333 231.5,379.667 227.5,380C 225.667,380.5 224.5,381.667 224,383.5C 223.333,396.833 223.333,410.167 224,423.5C 224.5,425.333 225.667,426.5 227.5,427C 231.486,427.499 235.486,427.666 239.5,427.5C 239.5,432.833 239.5,438.167 239.5,443.5C 220.155,443.833 200.822,443.5 181.5,442.5C 183.833,437.833 186.167,433.167 188.5,428.5C 194.798,427.504 201.132,427.17 207.5,427.5C 207.5,422.167 207.5,416.833 207.5,411.5C 190.163,411.667 172.83,411.5 155.5,411C 188.981,383.609 199.147,349.109 186,307.5C 185.117,304.898 183.617,302.731 181.5,301C 171.243,299.244 160.909,299.077 150.5,300.5C 149.666,292.161 147.499,284.161 144,276.5C 143.5,241.168 143.333,205.835 143.5,170.5C 206.035,161.282 268.368,151.616 330.5,141.5 Z M 310.5,203.5 C 342.549,203.029 374.549,203.529 406.5,205C 419.498,210.833 424.665,220.667 422,234.5C 419.5,242.333 414.333,247.5 406.5,250C 377.54,251.626 348.54,251.959 319.5,251C 314.833,250.333 312.167,247.667 311.5,243C 312.104,240.532 313.438,238.532 315.5,237C 335.446,235.548 355.446,235.048 375.5,235.5C 375.5,230.167 375.5,224.833 375.5,219.5C 354.497,219.333 333.497,219.5 312.5,220C 297.242,226.356 292.075,237.523 297,253.5C 300.314,260.149 305.481,264.649 312.5,267C 344.5,267.667 376.5,267.667 408.5,267C 431.608,259.644 441.774,243.81 439,219.5C 438.131,214.597 436.298,210.097 433.5,206C 449.086,210.259 458.586,220.426 462,236.5C 463.753,264.08 450.92,279.58 423.5,283C 383.141,283.953 342.807,283.619 302.5,282C 277.988,273.142 268.488,255.976 274,230.5C 280.716,213.93 292.883,204.93 310.5,203.5 Z M 102.5,253.5 C 116.03,262.184 125.53,274.184 131,289.5C 132.246,294.317 133.413,299.151 134.5,304C 128.621,307.618 122.621,311.285 116.5,315C 111.993,318.676 107.659,322.51 103.5,326.5C 94.7345,317.908 84.7345,311.075 73.5,306C 73.9054,291.657 78.7387,278.823 88,267.5C 92.7287,262.603 97.562,257.936 102.5,253.5 Z M 278.5,299.5 C 315.882,299.025 353.215,299.525 390.5,301C 403.498,306.833 408.665,316.667 406,330.5C 403.5,338.333 398.333,343.5 390.5,346C 361.54,347.626 332.54,347.959 303.5,347C 298.87,346.37 296.203,343.704 295.5,339C 296.585,336.828 297.919,334.828 299.5,333C 319.446,331.548 339.446,331.048 359.5,331.5C 359.5,326.167 359.5,320.833 359.5,315.5C 338.497,315.333 317.497,315.5 296.5,316C 281.242,322.356 276.075,333.523 281,349.5C 284.314,356.149 289.481,360.649 296.5,363C 328.5,363.667 360.5,363.667 392.5,363C 415.628,355.594 425.794,339.761 423,315.5C 421.922,310.013 419.756,305.013 416.5,300.5C 444.146,299.307 459.813,312.473 463.5,340C 460.367,363.466 447.034,376.466 423.5,379C 372.475,379.963 321.475,379.63 270.5,378C 245.988,369.142 236.488,351.976 242,326.5C 248.972,310.283 261.139,301.283 278.5,299.5 Z M 37.5,315.5 C 59.5656,315.952 77.8989,324.286 92.5,340.5C 79.7439,361.723 75.9106,384.057 81,407.5C 43.1828,391.54 27.5162,363.207 34,322.5C 34.517,319.744 35.6837,317.411 37.5,315.5 Z M 166.5,315.5 C 170.597,315.869 172.764,318.202 173,322.5C 179.33,360.003 165.83,387.503 132.5,405C 121.809,409.643 110.809,411.477 99.5,410.5C 91.016,378.919 99.016,352.419 123.5,331C 136.307,321.344 150.641,316.177 166.5,315.5 Z M 239.5,395.5 C 314.167,395.5 388.833,395.5 463.5,395.5C 463.5,400.833 463.5,406.167 463.5,411.5C 388.833,411.5 314.167,411.5 239.5,411.5C 239.5,406.167 239.5,400.833 239.5,395.5 Z M 37.5,427.5 C 81.505,427.167 125.505,427.5 169.5,428.5C 167.167,433.167 164.833,437.833 162.5,442.5C 123.167,443.833 83.8333,443.833 44.5,442.5C 41.8817,437.599 39.5484,432.599 37.5,427.5 Z M 255.5,427.5 C 264.192,427.169 272.859,427.502 281.5,428.5C 279.167,433.167 276.833,437.833 274.5,442.5C 268.202,443.496 261.868,443.83 255.5,443.5C 255.5,438.167 255.5,432.833 255.5,427.5 Z M 300.5,427.5 C 312.167,427.5 323.833,427.5 335.5,427.5C 335.5,432.833 335.5,438.167 335.5,443.5C 321.484,443.833 307.484,443.499 293.5,442.5C 296.118,437.599 298.452,432.599 300.5,427.5 Z M 421.5,427.5 C 430.167,427.5 438.833,427.5 447.5,427.5C 447.5,432.833 447.5,438.167 447.5,443.5C 441.132,443.83 434.798,443.496 428.5,442.5C 425.882,437.599 423.548,432.599 421.5,427.5 Z"/></g>
<g><path style="opacity:0.985" fill="#000000" d="M 159.5,187.5 C 164.833,187.5 170.167,187.5 175.5,187.5C 175.5,209.167 175.5,230.833 175.5,252.5C 170.167,252.5 164.833,252.5 159.5,252.5C 159.5,230.833 159.5,209.167 159.5,187.5 Z"/></g>
<g><path style="opacity:0.941" fill="#000000" d="M 159.5,267.5 C 164.833,267.5 170.167,267.5 175.5,267.5C 175.5,273.167 175.5,278.833 175.5,284.5C 170.167,284.5 164.833,284.5 159.5,284.5C 159.5,278.833 159.5,273.167 159.5,267.5 Z"/></g>
</svg>
