<?xml version="1.0" encoding="utf-8"?><!-- Uploaded to: SVG Repo, www.svgrepo.com, Generator: SVG Repo Mixer Tools -->
<svg width="800px" height="800px" viewBox="0 0 24 24" id="Layer_1" data-name="Layer 1" xmlns="http://www.w3.org/2000/svg"><defs><style>.cls-1{fill:none;stroke:#020202;stroke-miterlimit:10;stroke-width:1.91px;}</style></defs><rect class="cls-1" x="7.23" y="16.77" width="9.55" height="5.73"/><line class="cls-1" x1="12" y1="16.77" x2="12" y2="22.5"/><line class="cls-1" x1="7.23" y1="6.27" x2="16.77" y2="6.27"/><line class="cls-1" x1="9.14" y1="4.36" x2="9.14" y2="8.18"/><line class="cls-1" x1="14.86" y1="4.36" x2="14.86" y2="8.18"/><line class="cls-1" x1="5.32" y1="12.95" x2="7.23" y2="12.95"/><line class="cls-1" x1="9.14" y1="12.95" x2="11.05" y2="12.95"/><line class="cls-1" x1="12.95" y1="12.95" x2="14.86" y2="12.95"/><line class="cls-1" x1="16.77" y1="12.95" x2="18.68" y2="12.95"/><path class="cls-1" d="M20.59,9.14V6.27A4.78,4.78,0,0,0,15.82,1.5H8.18A4.78,4.78,0,0,0,3.41,6.27V9.14H1.5V22.5h21V9.14Z"/><line class="cls-1" x1="6.27" y1="9.14" x2="3.41" y2="9.14"/><line class="cls-1" x1="17.73" y1="9.14" x2="20.59" y2="9.14"/></svg>