<?xml version="1.0" encoding="utf-8"?>

<!-- Uploaded to: SVG Repo, www.svgrepo.com, Generator: SVG Repo Mixer Tools -->
<svg version="1.1" id="Icons" xmlns="http://www.w3.org/2000/svg" xmlns:xlink="http://www.w3.org/1999/xlink" 
	 viewBox="0 0 32 32" xml:space="preserve">
<style type="text/css">
	.st0{fill:none;stroke:#000000;stroke-width:2;stroke-linecap:round;stroke-linejoin:round;stroke-miterlimit:10;}
</style>
<path d="M27,15c-0.4,0-0.7,0.1-1.1,0.2c-0.1-1.7-0.7-3.3-1.6-4.6c-0.1-0.2-0.1-0.3-0.3-0.4c0,0,0,0,0,0c-1-1.4-2.5-2.6-4.1-3.3V6
	c0-2.2-1.8-4-4-4s-4,1.8-4,4v0.8c-3.3,1.4-5.7,4.6-6,8.4C5.7,15.1,5.4,15,5,15c-1.7,0-3,1.3-3,3v6c0,1.7,1.3,3,3,3v1
	c0,1.1,0.9,2,2,2h18c1.1,0,2-0.9,2-2v-1c1.7,0,3-1.3,3-3v-6C30,16.3,28.7,15,27,15z M14,10h4c0.6,0,1,0.4,1,1s-0.4,1-1,1h-4
	c-0.6,0-1-0.4-1-1S13.4,10,14,10z M14,6c0-1.1,0.9-2,2-2s2,0.9,2,2v0.2C17.4,6.1,16.7,6,16,6c-0.7,0-1.4,0.1-2,0.2V6z M8.8,12.5
	c1.9,1.6,4.5,2.5,7.2,2.5c2.7,0,5.3-0.9,7.2-2.5c0.5,1,0.8,2.2,0.8,3.5v1H8v-1C8,14.8,8.3,13.6,8.8,12.5z M20,22h-8
	c-0.6,0-1-0.4-1-1s0.4-1,1-1h8c0.6,0,1,0.4,1,1S20.6,22,20,22z"/>
</svg>