<?xml version="1.0" encoding="utf-8"?>
<!-- Generator: Adobe Illustrator 26.0.1, SVG Export Plug-In . SVG Version: 6.00 Build 0)  -->
<svg version="1.1" id="Capa_1" xmlns="http://www.w3.org/2000/svg" xmlns:xlink="http://www.w3.org/1999/xlink" x="0px" y="0px"
	 viewBox="0 0 425.2 425.2" style="enable-background:new 0 0 425.2 425.2;" xml:space="preserve">
<style type="text/css">
	.st0{fill:#F7F8F8;}
	.st1{fill:#CCCDD2;}
	.st2{fill:#FFFFFF;}
	.st3{fill:#004A7C;}
	.st4{clip-path:url(#SVGID_00000146495594109653040270000016375869464085572232_);}
	.st5{fill:#732313;}
	.st6{fill:#F5BA93;}
	.st7{fill:#E55747;}
	.st8{fill:#DA9B7E;}
	.st9{fill:#CB4639;}
	.st10{fill:#E44E40;}
	.st11{fill:#2D120E;}
	.st12{fill:#170000;}
	.st13{fill:#B0AFB5;}
	.st14{fill:#D8DADE;}
	.st15{fill:#C3C5CA;}
	.st16{clip-path:url(#SVGID_00000104671284875750329490000018000956162676151699_);}
	.st17{fill:#51361D;}
	.st18{fill:#9D6B3F;}
	.st19{fill:#5AB9BD;}
	.st20{fill:#815931;}
	.st21{fill:#843921;}
	.st22{clip-path:url(#SVGID_00000174567988132866215890000006815865762853700744_);}
	.st23{fill:#DE8021;}
	.st24{fill:#F2D4B6;}
	.st25{fill:#B3211B;}
	.st26{fill:#E24E70;}
	.st27{fill:#E56681;}
	.st28{opacity:0.07;fill:#737277;}
	.st29{fill:#E1AB81;}
	.st30{fill:#CE966D;}
	.st31{fill:#434041;}
	.st32{fill:#40290F;}
	.st33{fill:#EDEEF0;}
	.st34{fill:#89878C;}
</style>
<rect y="0" class="st0" width="425.2" height="425.2"/>
<g>
	<g>
		<g>
			<path class="st1" d="M175.65,244.82c0,7.72-6.26,13.97-13.98,13.97H64.61c-7.72,0-13.98-6.26-13.98-13.97V134.55
				c0-7.72,6.26-13.98,13.98-13.98h97.06c7.72,0,13.98,6.26,13.98,13.98V244.82z"/>
			<path class="st2" d="M174.25,243.06c0,7.72-6.26,13.98-13.98,13.98H63.21c-7.72,0-13.98-6.26-13.98-13.98V132.8
				c0-7.72,6.26-13.98,13.98-13.98h97.06c7.72,0,13.98,6.26,13.98,13.98V243.06z"/>
			<path class="st3" d="M174.25,139.79v-6.99c0-7.72-6.26-13.98-13.98-13.98H63.21c-7.72,0-13.98,6.26-13.98,13.98v6.99H174.25z"/>
			<path class="st2" d="M147.46,133.89c0,0.63-0.51,1.15-1.14,1.15h-7.62c-0.63,0-1.14-0.52-1.14-1.15v-7.62
				c0-0.63,0.51-1.14,1.14-1.14h7.62c0.63,0,1.14,0.51,1.14,1.14V133.89z"/>
			<path class="st2" d="M161.83,133.89c0,0.63-0.51,1.15-1.14,1.15h-7.61c-0.63,0-1.14-0.52-1.14-1.15v-7.62
				c0-0.63,0.51-1.14,1.14-1.14h7.61c0.63,0,1.14,0.51,1.14,1.14V133.89z"/>
			<path class="st2" d="M130.96,130.08c0,2.73-2.21,4.95-4.95,4.95H61.95c-2.74,0-4.95-2.22-4.95-4.95l0,0
				c0-2.74,2.21-4.95,4.95-4.95h64.06C128.75,125.13,130.96,127.35,130.96,130.08L130.96,130.08z"/>
			<g>
				<g>
					<defs>
						<path id="SVGID_1_" d="M118.74,182.56c0,16.57-13.43,30-29.99,30c-16.57,0-30-13.43-30-30c0-16.56,13.43-29.99,30-29.99
							C105.31,152.57,118.74,166,118.74,182.56z"/>
					</defs>
					<use xlink:href="#SVGID_1_"  style="overflow:visible;fill:#D8DADE;"/>
					<clipPath id="SVGID_00000115508033342617300130000010825045017044441258_">
						<use xlink:href="#SVGID_1_"  style="overflow:visible;"/>
					</clipPath>
					<g style="clip-path:url(#SVGID_00000115508033342617300130000010825045017044441258_);">
						<path class="st5" d="M103.75,199.8c0.95,4.43-30.25,3.94-30.25,0c4.87-8.41,0.16-14.03-0.41-25.11
							c-0.57-11.08,29.85-8.09,30.49,0C104.21,182.78,99.5,193.91,103.75,199.8z"/>
						<path class="st6" d="M98.3,220.52h4.48l-0.12-1.58c0,0-0.49-13.89-1.02-17.79c-0.54-3.9-3.61-3.86-3.61-3.86l-2.23,6.54
							c0,0,1.98,12.35,2.22,14.99C98.05,219.19,98.15,219.78,98.3,220.52z"/>
						<path class="st6" d="M77.37,220.52c0.16-0.81,0.27-1.45,0.31-1.86c0.24-2.64,2.23-14.99,2.23-14.99l-2.23-6.54
							c0,0-3.07-0.04-3.61,3.86c-0.54,3.9-1.02,17.79-1.02,17.79l-0.13,1.74H77.37z"/>
						<path class="st7" d="M78.19,215.11l1.21,5.41h16.94l1.8-5.41c0,0,2.84-2.1,2.81-4.05c-0.03-1.94-3.62-7.24-3.62-7.24
							l1.25-6.68l-5.35-2.52h-10.4l-5.23,2.41l1.08,6.8c0,0-2.91,5.13-2.95,7.24C75.67,213.17,78.19,215.11,78.19,215.11z"/>
						<path class="st6" d="M93.22,194.61c0,0,1.89,7.39,0.87,9.28c-1.15,2.13-10.45,1.95-11.7,0c-1.25-1.95,0.43-9.28,0.43-9.28
							l1.6-0.08v-7.8h7.15v7.47L93.22,194.61z"/>
						<path class="st8" d="M90.37,193.46c0.42-0.12,0.81-0.26,1.2-0.42v-6.31h-7.15v5.69C86.31,193.32,88.16,194.09,90.37,193.46z"
							/>
						<path class="st6" d="M103.63,182.44c-0.98,0.41-2.12-0.29-2.12-0.29s-5.04,0.26-5.04-1.05c0-1.32,0-2.05,0-4.4
							c0-3.13,5.04-2.82,5.04-2.82s1.14-1.59,2.66-0.51C106.58,175.09,105.52,181.64,103.63,182.44z"/>
						<path class="st6" d="M73.86,182.44c0.98,0.41,2.12-0.29,2.12-0.29s5.04,0.26,5.04-1.05c0-1.32,0-2.05,0-4.4
							c0-3.13-5.04-2.82-5.04-2.82s-1.14-1.59-2.66-0.51C70.91,175.09,71.97,181.64,73.86,182.44z"/>
						<path class="st6" d="M101.64,180.64c0,5.83-8.44,12.29-12.97,12.29c-4.97,0-12.96-6.88-12.96-12.66c0-6.82,0-6.82,0-12.19
							c0-17.22,25.93-18.36,25.93,0C101.64,179.79,101.64,172.27,101.64,180.64z"/>
						<path class="st5" d="M76.49,174.06c-0.09-1.64,2.63-2.96,2.9-8.94c2.26,1.25,13.19,7.67,21.45,8.91
							c-0.09,3.47,0.73,4.6,0.97,5.6c0,0,0.02-3,0-4.54c-0.02-1.54,1.94-2.09,1.94-2.09v-5.31c0-2.85-2.92-16.1-15.15-13
							c-11.65-2.7-16.92,9.53-16.68,12.53c0.24,3.01,0.57,7.08,0.57,7.08s2.67-2.48,3.03,0.94c0.2,1.84,0.04,3.78,1.37,4.08
							C76.72,177.68,76.61,176.15,76.49,174.06z"/>
						<polygon class="st8" points="88.43,174.95 88.43,183.49 89.93,182.31 						"/>
						<path class="st5" d="M86.17,173.27c0,0-2.29-1.54-3.76-1.06c-1.46,0.49-3.29,2.07-3.29,2.07l-0.2-0.75
							c0,0,1.37-1.66,3.35-1.81C84.27,171.55,86.17,173.27,86.17,173.27z"/>
						<g>
							<path class="st9" d="M84.9,186.49c0,0,1.21,1.16,1.9,1.21c0.69,0.05,3.21,0.16,4.06-0.13c0.29-0.1,1.29-1.06,1.29-1.06
								s-2.9-0.14-3.43-0.17C88.2,186.32,84.9,186.49,84.9,186.49z"/>
							<path class="st10" d="M82.98,185.59c0,0,1.78,0.64,2.49,0.57c0.71-0.08,1.91-1.09,2.19-0.96c0.28,0.12,1,0.42,1,0.42
								s0.93-0.47,1.21-0.42c0.28,0.05,1.76,1.03,2.28,0.96c0.51-0.07,1.72-0.57,1.72-0.57s-1.49,0.99-2.08,1.16
								c-1.1,0.33-2.27-0.02-3.05-0.07c-0.94-0.06-2.3,0.6-3.37,0.03C84.29,186.16,82.98,185.59,82.98,185.59z"/>
						</g>
						<path class="st5" d="M91.32,173.13c0,0,2.3-1.55,3.76-1.06c1.46,0.49,3.29,2.07,3.29,2.07l0.2-0.76c0,0-1.36-1.66-3.36-1.82
							C93.23,171.4,91.32,173.13,91.32,173.13z"/>
						<g>
							<path class="st11" d="M94.51,174.56c1.67,0,1.42,1.24,1.95,1.58c0.15-0.09,1.07-0.4,1.07-0.4s-0.88-1.48-3.02-1.48
								c-2.13,0-2.93,1.45-2.93,1.45s0.33,0,0.48,0.09C92.59,175.46,92.84,174.56,94.51,174.56z"/>
							<path class="st2" d="M97.12,175.74c0,0-0.34,1.26-2.48,1.26c-2.13,0-3.01-1.29-3.01-1.29s0.88-1.23,3.01-1.23
								C96.77,174.48,97.12,175.74,97.12,175.74z"/>
							<g>
								<path class="st11" d="M93.18,175.71c0,0.5,0.25,0.95,0.62,1.22c0.27,0.04,0.55,0.07,0.84,0.07c0.29,0,0.57-0.03,0.84-0.07
									c0.38-0.27,0.62-0.72,0.62-1.22c0-0.51-0.25-0.95-0.62-1.22c-0.27-0.04-0.55-0.06-0.84-0.06c-0.29,0-0.57,0.02-0.84,0.06
									C93.42,174.76,93.18,175.2,93.18,175.71z"/>
							</g>
							<path class="st12" d="M95.23,175.74c0,0.33-0.27,0.6-0.6,0.6c-0.33,0-0.59-0.27-0.59-0.6c0-0.33,0.27-0.6,0.59-0.6
								C94.97,175.14,95.23,175.41,95.23,175.74z"/>
							<path class="st2" d="M94.48,175.17c0,0.15-0.12,0.26-0.27,0.26c-0.15,0-0.27-0.12-0.27-0.26c0-0.15,0.12-0.27,0.27-0.27
								C94.36,174.9,94.48,175.02,94.48,175.17z"/>
							<path class="st2" d="M94.65,175.75c0,0.08-0.06,0.14-0.14,0.14c-0.08,0-0.14-0.06-0.14-0.14c0-0.07,0.06-0.14,0.14-0.14
								C94.59,175.61,94.65,175.68,94.65,175.75z"/>
						</g>
						<g>
							<path class="st11" d="M82.99,174.56c-1.67,0-1.42,1.24-1.95,1.58c-0.15-0.09-1.07-0.4-1.07-0.4s0.88-1.48,3.02-1.48
								c2.13,0,2.93,1.45,2.93,1.45s-0.33,0-0.48,0.09C84.9,175.46,84.66,174.56,82.99,174.56z"/>
							<path class="st2" d="M80.38,175.74c0,0,0.34,1.26,2.48,1.26c2.13,0,3.01-1.29,3.01-1.29s-0.88-1.23-3.01-1.23
								C80.72,174.48,80.38,175.74,80.38,175.74z"/>
							<g>
								<path class="st11" d="M84.32,175.71c0,0.5-0.25,0.95-0.62,1.22c-0.27,0.04-0.55,0.07-0.84,0.07c-0.29,0-0.57-0.03-0.84-0.07
									c-0.38-0.27-0.62-0.72-0.62-1.22c0-0.51,0.24-0.95,0.62-1.22c0.27-0.04,0.55-0.06,0.84-0.06c0.29,0,0.57,0.02,0.84,0.06
									C84.07,174.76,84.32,175.2,84.32,175.71z"/>
							</g>
							<path class="st12" d="M82.26,175.74c0,0.33,0.26,0.6,0.59,0.6c0.33,0,0.59-0.27,0.59-0.6c0-0.33-0.26-0.6-0.59-0.6
								C82.52,175.14,82.26,175.41,82.26,175.74z"/>
							<path class="st2" d="M83.01,175.17c0,0.15,0.12,0.26,0.27,0.26c0.15,0,0.27-0.12,0.27-0.26c0-0.15-0.12-0.27-0.27-0.27
								C83.13,174.9,83.01,175.02,83.01,175.17z"/>
							<path class="st2" d="M82.84,175.75c0,0.08,0.06,0.14,0.14,0.14c0.07,0,0.14-0.06,0.14-0.14c0-0.07-0.07-0.14-0.14-0.14
								C82.9,175.61,82.84,175.68,82.84,175.75z"/>
						</g>
					</g>
				</g>
			</g>
			<rect x="123.69" y="154.79" class="st13" width="40.27" height="7.62"/>
			<rect x="123.69" y="167.85" class="st14" width="40.27" height="3.81"/>
			<rect x="123.69" y="175.65" class="st14" width="40.27" height="3.81"/>
			<rect x="123.69" y="183.44" class="st14" width="40.27" height="3.81"/>
			<rect x="123.69" y="191.24" class="st14" width="40.27" height="3.81"/>
			<rect x="123.69" y="199.05" class="st14" width="40.27" height="3.81"/>
			<rect x="123.69" y="206.84" class="st14" width="40.27" height="3.81"/>
			<rect x="64.19" y="222.81" class="st14" width="99.77" height="3.81"/>
			<rect x="64.19" y="232.25" class="st14" width="99.77" height="3.81"/>
		</g>
	</g>
	<g>
		<path class="st15" d="M381.27,174.32c-2.07-3.11-5.61-5.15-9.62-5.15h-80.28c-6.39,0-11.56,5.18-11.56,11.56v5.78v85.42
			c0,3.04,1.18,5.8,3.1,7.86c2.07,3.1,5.61,5.15,9.62,5.15h80.28c6.38,0,11.56-5.17,11.56-11.56v-91.2
			C384.37,179.13,383.18,176.38,381.27,174.32z"/>
		<g>
			<path class="st1" d="M389.03,270.71c0,6.38-5.18,11.56-11.56,11.56h-80.28c-6.38,0-11.56-5.17-11.56-11.56v-91.2
				c0-6.38,5.18-11.56,11.56-11.56h80.28c6.38,0,11.56,5.17,11.56,11.56V270.71z"/>
			<path class="st2" d="M387.87,269.25c0,6.39-5.18,11.56-11.56,11.56h-80.28c-6.39,0-11.56-5.17-11.56-11.56v-91.2
				c0-6.39,5.18-11.56,11.56-11.56h80.28c6.39,0,11.56,5.18,11.56,11.56V269.25z"/>
			<path class="st3" d="M387.87,183.84v-5.78c0-6.39-5.18-11.56-11.56-11.56h-80.28c-6.39,0-11.56,5.18-11.56,11.56v5.78H387.87z"/>
			<path class="st2" d="M365.72,178.96c0,0.52-0.42,0.95-0.95,0.95h-6.3c-0.52,0-0.94-0.43-0.94-0.95v-6.3
				c0-0.52,0.42-0.94,0.94-0.94h6.3c0.52,0,0.95,0.42,0.95,0.94V178.96z"/>
			<path class="st2" d="M377.6,178.96c0,0.52-0.42,0.95-0.95,0.95h-6.3c-0.52,0-0.94-0.43-0.94-0.95v-6.3
				c0-0.52,0.42-0.94,0.94-0.94h6.3c0.52,0,0.95,0.42,0.95,0.94V178.96z"/>
			<path class="st2" d="M352.07,175.81c0,2.26-1.83,4.09-4.09,4.09h-52.98c-2.26,0-4.1-1.83-4.1-4.09l0,0c0-2.26,1.83-4.09,4.1-4.09
				h52.98C350.24,171.72,352.07,173.55,352.07,175.81L352.07,175.81z"/>
			<g>
				<g>
					<defs>
						<path id="SVGID_00000101097915388571405110000015798145152988541370_" d="M341.96,219.22c0,13.7-11.11,24.81-24.81,24.81
							c-13.71,0-24.81-11.11-24.81-24.81c0-13.7,11.1-24.81,24.81-24.81C330.85,194.41,341.96,205.52,341.96,219.22z"/>
					</defs>
					<use xlink:href="#SVGID_00000101097915388571405110000015798145152988541370_"  style="overflow:visible;fill:#D8DADE;"/>
					<clipPath id="SVGID_00000142151209442732420620000010365389777753800089_">
						<use xlink:href="#SVGID_00000101097915388571405110000015798145152988541370_"  style="overflow:visible;"/>
					</clipPath>
					<g style="clip-path:url(#SVGID_00000142151209442732420620000010365389777753800089_);">
						<path class="st17" d="M321.96,242.09c0.86,4.01-12.4,1.14-12.4-2.43c4.42-7.63-6.28-8.21-6.61-24.77
							c-0.2-10.07,27.58-7.36,27.66,0C330.76,229.56,318.09,236.75,321.96,242.09z"/>
						<path class="st18" d="M325.81,256.48h4.06l-0.11-1.44c0,0-0.44-12.6-0.93-16.14c-0.48-3.54-3.27-3.5-3.27-3.5l-2.03,5.93
							c0,0,1.8,11.2,2.02,13.6C325.59,255.27,325.68,255.81,325.81,256.48z"/>
						<path class="st18" d="M306.83,256.48c0.14-0.73,0.25-1.32,0.28-1.69c0.22-2.4,2.02-13.6,2.02-13.6l-2.03-5.93
							c0,0-2.79-0.04-3.27,3.5c-0.49,3.54-0.93,16.14-0.93,16.14l-0.12,1.58H306.83z"/>
						<path class="st19" d="M307.57,251.57l1.09,4.91h15.37l1.63-4.91c0,0,2.57-1.91,2.55-3.67c-0.03-1.77-3.28-6.57-3.28-6.57
							l1.13-6.06l-4.86-2.29h-9.44l-4.75,2.19l0.99,6.17c0,0-2.64,4.65-2.68,6.57C305.29,249.81,307.57,251.57,307.57,251.57z"/>
						<path class="st18" d="M321.21,232.97c0,0,1.71,6.71,0.78,8.43c-1.04,1.93-9.48,1.77-10.61,0c-1.13-1.77,0.39-8.43,0.39-8.43
							l1.45-0.07v-7.07h6.49v6.78L321.21,232.97z"/>
						<path class="st20" d="M318.62,231.93c0.38-0.11,0.74-0.24,1.09-0.38v-5.72h-6.49v5.17
							C314.94,231.79,316.62,232.49,318.62,231.93z"/>
						<path class="st18" d="M330.65,221.93c-0.89,0.37-1.92-0.27-1.92-0.27s-4.57,0.24-4.57-0.95c0-1.19,0-1.87,0-3.99
							c0-2.84,4.57-2.56,4.57-2.56s1.03-1.44,2.42-0.46C333.33,215.26,332.37,221.21,330.65,221.93z"/>
						<path class="st18" d="M303.64,221.93c0.89,0.37,1.92-0.27,1.92-0.27s4.57,0.24,4.57-0.95c0-1.19,0-1.87,0-3.99
							c0-2.84-4.57-2.56-4.57-2.56s-1.04-1.44-2.42-0.46C300.96,215.26,301.93,221.21,303.64,221.93z"/>
						<path class="st18" d="M328.84,220.29c0,5.29-7.66,11.16-11.76,11.16c-4.52,0-11.76-6.24-11.76-11.48c0-6.19,0-6.19,0-11.06
							c0-15.63,23.53-16.66,23.53,0C328.84,219.52,328.84,212.7,328.84,220.29z"/>
						<path class="st17" d="M306.03,214.33c-0.08-1.49,8.3-3.54,10.58-10.05c2.21,5.6,4.02,8.89,11.51,10.01
							c-0.08,3.15,0.66,4.17,0.88,5.08c0,0,0.02-2.72,0-4.12c-0.02-1.4,1.76-1.9,1.76-1.9v-4.82c0-2.58-2.65-14.61-13.75-11.79
							c-10.57-2.45-15.14,7.76-15.13,11.37c0,2.74,0.52,6.43,0.52,6.43s2.42-2.25,2.75,0.85c0.18,1.67,0.04,3.43,1.24,3.7
							C306.24,217.6,306.13,216.22,306.03,214.33z"/>
						<polygon class="st20" points="316.86,215.13 316.86,222.88 318.22,221.81 						"/>
						<path class="st17" d="M314.81,213.61c0,0-2.08-1.4-3.41-0.96c-1.32,0.44-2.99,1.88-2.99,1.88l-0.18-0.69
							c0,0,1.24-1.5,3.04-1.64C313.08,212.05,314.81,213.61,314.81,213.61z"/>
						<g>
							<path class="st21" d="M313.66,225.6c0,0,1.1,1.06,1.72,1.1c0.63,0.04,2.91,0.14,3.68-0.12c0.26-0.08,1.17-0.96,1.17-0.96
								s-2.63-0.13-3.11-0.15C316.66,225.45,313.66,225.6,313.66,225.6z"/>
							<path class="st21" d="M311.92,224.79c0,0,1.62,0.58,2.26,0.51c0.64-0.07,1.73-0.98,1.99-0.87c0.26,0.11,0.9,0.38,0.9,0.38
								s0.84-0.43,1.1-0.38c0.26,0.05,1.6,0.94,2.07,0.87c0.47-0.06,1.56-0.51,1.56-0.51s-1.35,0.89-1.89,1.05
								c-0.99,0.3-2.06-0.01-2.77-0.06c-0.85-0.06-2.09,0.54-3.05,0.03C313.11,225.3,311.92,224.79,311.92,224.79z"/>
						</g>
						<path class="st17" d="M319.48,213.48c0,0,2.08-1.4,3.41-0.96c1.33,0.44,2.99,1.88,2.99,1.88l0.18-0.69c0,0-1.24-1.5-3.04-1.64
							C321.21,211.92,319.48,213.48,319.48,213.48z"/>
						<g>
							<path class="st11" d="M322.38,214.77c1.52,0,1.28,1.13,1.77,1.43c0.13-0.08,0.97-0.36,0.97-0.36s-0.8-1.34-2.73-1.34
								c-1.94,0-2.66,1.32-2.66,1.32s0.3,0,0.43,0.08C320.64,215.6,320.86,214.77,322.38,214.77z"/>
							<path class="st2" d="M324.74,215.84c0,0-0.31,1.14-2.25,1.14c-1.94,0-2.73-1.17-2.73-1.17s0.79-1.12,2.73-1.12
								C324.43,214.7,324.74,215.84,324.74,215.84z"/>
							<g>
								<path class="st11" d="M321.17,215.82c0,0.46,0.23,0.86,0.57,1.11c0.24,0.04,0.5,0.06,0.76,0.06c0.26,0,0.52-0.02,0.76-0.06
									c0.34-0.24,0.57-0.65,0.57-1.11c0-0.46-0.22-0.86-0.57-1.1c-0.25-0.04-0.5-0.06-0.76-0.06c-0.26,0-0.52,0.02-0.76,0.06
									C321.39,214.96,321.17,215.36,321.17,215.82z"/>
							</g>
							<path class="st12" d="M323.03,215.84c0,0.3-0.24,0.54-0.54,0.54c-0.3,0-0.54-0.24-0.54-0.54c0-0.3,0.24-0.54,0.54-0.54
								C322.79,215.31,323.03,215.55,323.03,215.84z"/>
							<path class="st2" d="M322.35,215.33c0,0.14-0.11,0.24-0.24,0.24c-0.13,0-0.24-0.11-0.24-0.24c0-0.13,0.11-0.24,0.24-0.24
								C322.24,215.09,322.35,215.2,322.35,215.33z"/>
							<path class="st2" d="M322.51,215.86c0,0.07-0.06,0.13-0.13,0.13c-0.07,0-0.13-0.06-0.13-0.13c0-0.07,0.06-0.13,0.13-0.13
								C322.45,215.73,322.51,215.79,322.51,215.86z"/>
						</g>
						<g>
							<path class="st11" d="M311.92,214.77c-1.52,0-1.28,1.13-1.77,1.43c-0.13-0.08-0.96-0.36-0.96-0.36s0.8-1.34,2.73-1.34
								c1.94,0,2.66,1.32,2.66,1.32s-0.3,0-0.43,0.08C313.66,215.6,313.44,214.77,311.92,214.77z"/>
							<path class="st2" d="M309.55,215.84c0,0,0.31,1.14,2.25,1.14c1.93,0,2.73-1.17,2.73-1.17s-0.8-1.12-2.73-1.12
								C309.87,214.7,309.55,215.84,309.55,215.84z"/>
							<g>
								<path class="st11" d="M313.13,215.82c0,0.46-0.22,0.86-0.56,1.11c-0.25,0.04-0.5,0.06-0.76,0.06
									c-0.26,0-0.52-0.02-0.76-0.06c-0.35-0.24-0.57-0.65-0.57-1.11c0-0.46,0.22-0.86,0.57-1.1c0.24-0.04,0.5-0.06,0.76-0.06
									c0.26,0,0.52,0.02,0.76,0.06C312.9,214.96,313.13,215.36,313.13,215.82z"/>
							</g>
							<path class="st12" d="M311.26,215.84c0,0.3,0.24,0.54,0.54,0.54c0.3,0,0.54-0.24,0.54-0.54c0-0.3-0.24-0.54-0.54-0.54
								C311.5,215.31,311.26,215.55,311.26,215.84z"/>
							<path class="st2" d="M311.95,215.33c0,0.14,0.11,0.24,0.24,0.24c0.13,0,0.24-0.11,0.24-0.24c0-0.13-0.11-0.24-0.24-0.24
								C312.06,215.09,311.95,215.2,311.95,215.33z"/>
							<path class="st2" d="M311.79,215.86c0,0.07,0.06,0.13,0.12,0.13c0.07,0,0.13-0.06,0.13-0.13c0-0.07-0.05-0.13-0.13-0.13
								C311.85,215.73,311.79,215.79,311.79,215.86z"/>
						</g>
					</g>
				</g>
			</g>
			<rect x="346.05" y="196.24" class="st13" width="33.31" height="6.3"/>
			<rect x="346.05" y="207.05" class="st14" width="33.31" height="3.15"/>
			<polygon class="st14" points="379.36,216.65 369.75,216.65 346.05,216.65 346.05,213.5 379.36,213.5 			"/>
			<rect x="346.05" y="219.95" class="st14" width="33.31" height="3.15"/>
			<rect x="346.05" y="226.4" class="st14" width="33.31" height="3.15"/>
			<rect x="346.05" y="232.85" class="st14" width="33.31" height="3.15"/>
			<rect x="346.05" y="239.3" class="st14" width="33.31" height="3.15"/>
			<rect x="296.84" y="252.51" class="st14" width="82.52" height="3.15"/>
			<rect x="296.84" y="260.31" class="st14" width="82.52" height="3.15"/>
		</g>
	</g>
	<g>
		<path class="st14" d="M313.79,65.37c-1.71-2.57-4.64-4.26-7.95-4.26h-66.35c-5.28,0-9.55,4.28-9.55,9.55v4.78v70.6
			c0,2.51,0.98,4.79,2.56,6.49c1.71,2.57,4.63,4.26,7.95,4.26h66.35c5.28,0,9.55-4.28,9.55-9.56V71.86
			C316.35,69.35,315.38,67.07,313.79,65.37z"/>
		<g>
			<path class="st1" d="M320.11,143.47c0,5.28-4.28,9.56-9.55,9.56H244.2c-5.28,0-9.55-4.28-9.55-9.56V68.1
				c0-5.28,4.28-9.56,9.55-9.56h66.35c5.28,0,9.55,4.28,9.55,9.56V143.47z"/>
			<path class="st2" d="M319.15,142.28c0,5.28-4.28,9.55-9.55,9.55h-66.35c-5.28,0-9.55-4.28-9.55-9.55V66.9
				c0-5.28,4.28-9.55,9.55-9.55h66.35c5.28,0,9.55,4.28,9.55,9.55V142.28z"/>
			<path class="st3" d="M319.15,71.68V66.9c0-5.28-4.28-9.55-9.55-9.55h-66.35c-5.28,0-9.55,4.28-9.55,9.55v4.78H319.15z"/>
			<path class="st2" d="M300.84,67.65c0,0.43-0.35,0.78-0.78,0.78h-5.2c-0.43,0-0.78-0.35-0.78-0.78v-5.21
				c0-0.43,0.35-0.78,0.78-0.78h5.2c0.43,0,0.78,0.35,0.78,0.78V67.65z"/>
			<path class="st2" d="M310.66,67.65c0,0.43-0.35,0.78-0.78,0.78h-5.21c-0.43,0-0.78-0.35-0.78-0.78v-5.21
				c0-0.43,0.35-0.78,0.78-0.78h5.21c0.43,0,0.78,0.35,0.78,0.78V67.65z"/>
			<path class="st2" d="M289.56,65.04c0,1.87-1.52,3.38-3.38,3.38h-43.79c-1.87,0-3.38-1.51-3.38-3.38l0,0
				c0-1.87,1.51-3.38,3.38-3.38h43.79C288.04,61.66,289.56,63.18,289.56,65.04L289.56,65.04z"/>
			<g>
				<g>
					<defs>
						<path id="SVGID_00000033333978946040866000000016209096690073971385_" d="M281.2,100.92c0,11.33-9.18,20.5-20.5,20.5
							c-11.32,0-20.5-9.18-20.5-20.5c0-11.32,9.18-20.5,20.5-20.5C272.02,80.42,281.2,89.6,281.2,100.92z"/>
					</defs>
					<use xlink:href="#SVGID_00000033333978946040866000000016209096690073971385_"  style="overflow:visible;fill:#D8DADE;"/>
					<clipPath id="SVGID_00000152259776253789255760000014112551372568571272_">
						<use xlink:href="#SVGID_00000033333978946040866000000016209096690073971385_"  style="overflow:visible;"/>
					</clipPath>
					<g style="clip-path:url(#SVGID_00000152259776253789255760000014112551372568571272_);">
						<path class="st23" d="M267.49,108.75c-3.35,3.05-10.83,2.53-13.08,0.81c-2.24-1.71-6.46-4.23-4.85-12.51
							c1.6-8.2,21.25-6.09,21.7,0C271.71,103.15,270.69,105.84,267.49,108.75z"/>
						<path class="st24" d="M267.5,129.38h3.19l-0.09-1.12c0,0-0.34-9.89-0.73-12.67c-0.38-2.77-2.57-2.75-2.57-2.75l-1.59,4.66
							c0,0,1.41,8.79,1.59,10.67C267.33,128.44,267.4,128.86,267.5,129.38z"/>
						<path class="st24" d="M252.6,129.38c0.11-0.57,0.19-1.03,0.22-1.32c0.17-1.88,1.58-10.67,1.58-10.67l-1.59-4.66
							c0,0-2.19-0.03-2.57,2.75c-0.38,2.77-0.73,12.66-0.73,12.66l-0.09,1.23H252.6z"/>
						<path class="st25" d="M253.19,125.54l0.86,3.85h12.05l1.28-3.85c0,0,2.02-1.49,2-2.88c-0.02-1.39-2.58-5.16-2.58-5.16
							l0.89-4.75l-3.81-1.8h-7.4l-3.73,1.72l0.77,4.84c0,0-2.07,3.65-2.1,5.16C251.39,124.16,253.19,125.54,253.19,125.54z"/>
						<path class="st24" d="M263.88,110.95c0,0,1.34,5.26,0.62,6.61c-0.82,1.51-7.44,1.39-8.33,0c-0.89-1.39,0.31-6.61,0.31-6.61
							l1.14-0.54v-5.07h5.09v4.84L263.88,110.95z"/>
						<path class="st8" d="M261.86,110.13c0.29-0.08,0.58-0.19,0.85-0.3v-4.49h-5.09v4.05
							C258.97,110.02,260.28,110.57,261.86,110.13z"/>
						<path class="st24" d="M271.3,102.28c-0.7,0.29-1.51-0.21-1.51-0.21s-3.59,0.19-3.59-0.75c0-0.93,0-1.46,0-3.13
							c0-2.23,3.59-2.01,3.59-2.01s0.81-1.14,1.89-0.36C273.4,97.05,272.64,101.72,271.3,102.28z"/>
						<path class="st24" d="M250.11,102.28c0.7,0.29,1.51-0.21,1.51-0.21s3.59,0.19,3.59-0.75c0-0.93,0-1.46,0-3.13
							c0-2.23-3.59-2.01-3.59-2.01s-0.81-1.14-1.89-0.36C248,97.05,248.76,101.72,250.11,102.28z"/>
						<path class="st24" d="M269.88,101c0,4.15-6.01,8.75-9.23,8.75c-3.54,0-9.23-4.89-9.23-9.01c0-4.86,0-4.86,0-8.67
							c0-12.26,18.46-13.07,18.46,0C269.88,100.39,269.88,95.04,269.88,101z"/>
						<path class="st23" d="M251.98,96.32c-0.07-1.17,1.87-2.11,2.06-6.36c1.61,0.89,9.39,5.46,15.27,6.34
							c-0.07,2.47,0.52,3.27,0.69,3.98c0,0,0.02-2.13,0-3.23c-0.01-1.1,1.39-1.49,1.39-1.49v-3.78c0-2.03-2.08-11.46-10.79-9.25
							c-8.29-1.92-12.04,6.78-11.87,8.92c0.17,2.14,0.41,5.04,0.41,5.04s1.9-1.76,2.16,0.67c0.14,1.31,0.03,2.69,0.97,2.91
							C252.14,98.89,252.06,97.81,251.98,96.32z"/>
						<polygon class="st8" points="260.47,96.95 260.47,103.03 261.54,102.19 						"/>
						<path class="st23" d="M258.87,95.76c0,0-1.63-1.1-2.67-0.75c-1.04,0.35-2.34,1.47-2.34,1.47l-0.14-0.54
							c0,0,0.97-1.18,2.39-1.29C257.51,94.53,258.87,95.76,258.87,95.76z"/>
						<g>
							<path class="st26" d="M257.96,105.16c0,0,0.86,0.83,1.35,0.86c0.49,0.03,2.29,0.11,2.89-0.09c0.21-0.07,0.92-0.75,0.92-0.75
								s-2.07-0.1-2.44-0.12C260.31,105.04,257.96,105.16,257.96,105.16z"/>
							<path class="st27" d="M256.6,104.52c0,0,1.27,0.46,1.77,0.4c0.51-0.06,1.36-0.77,1.56-0.68c0.2,0.08,0.71,0.3,0.71,0.3
								s0.66-0.33,0.86-0.3c0.2,0.04,1.25,0.73,1.62,0.68c0.37-0.05,1.22-0.4,1.22-0.4s-1.06,0.7-1.48,0.83
								c-0.78,0.23-1.62-0.01-2.17-0.05c-0.67-0.04-1.64,0.42-2.4,0.03C257.53,104.93,256.6,104.52,256.6,104.52z"/>
						</g>
						<path class="st23" d="M262.53,95.65c0,0,1.63-1.1,2.67-0.75c1.04,0.35,2.34,1.47,2.34,1.47l0.14-0.54c0,0-0.97-1.18-2.39-1.29
							C263.89,94.43,262.53,95.65,262.53,95.65z"/>
						<g>
							<path class="st11" d="M264.8,96.67c1.19,0,1.01,0.88,1.39,1.12c0.1-0.07,0.76-0.28,0.76-0.28s-0.63-1.06-2.15-1.06
								c-1.52,0-2.09,1.04-2.09,1.04s0.24,0,0.34,0.06C263.44,97.31,263.61,96.67,264.8,96.67z"/>
							<path class="st2" d="M266.66,97.51c0,0-0.25,0.9-1.76,0.9c-1.52,0-2.14-0.92-2.14-0.92s0.63-0.88,2.14-0.88
								C266.41,96.61,266.66,97.51,266.66,97.51z"/>
							<g>
								<path class="st11" d="M263.86,97.49c0,0.36,0.17,0.68,0.44,0.87c0.19,0.03,0.39,0.05,0.6,0.05c0.21,0,0.41-0.02,0.6-0.05
									c0.27-0.19,0.44-0.51,0.44-0.87c0-0.36-0.18-0.68-0.44-0.87c-0.19-0.03-0.39-0.04-0.6-0.04c-0.21,0-0.4,0.02-0.6,0.04
									C264.03,96.81,263.86,97.13,263.86,97.49z"/>
							</g>
							<path class="st12" d="M265.32,97.51c0,0.23-0.19,0.42-0.42,0.42c-0.23,0-0.42-0.19-0.42-0.42c0-0.23,0.19-0.42,0.42-0.42
								C265.13,97.08,265.32,97.27,265.32,97.51z"/>
							<path class="st2" d="M264.78,97.1c0,0.11-0.09,0.19-0.19,0.19c-0.11,0-0.19-0.09-0.19-0.19c0-0.11,0.08-0.19,0.19-0.19
								C264.7,96.92,264.78,97,264.78,97.1z"/>
							<path class="st2" d="M264.91,97.52c0,0.06-0.04,0.1-0.1,0.1c-0.05,0-0.1-0.04-0.1-0.1c0-0.06,0.04-0.1,0.1-0.1
								C264.86,97.42,264.91,97.46,264.91,97.52z"/>
						</g>
						<g>
							<path class="st11" d="M256.6,96.67c-1.19,0-1,0.88-1.39,1.12c-0.11-0.07-0.76-0.28-0.76-0.28s0.63-1.06,2.15-1.06
								c1.52,0,2.08,1.04,2.08,1.04s-0.23,0-0.34,0.06C257.96,97.31,257.79,96.67,256.6,96.67z"/>
							<path class="st2" d="M254.74,97.51c0,0,0.25,0.9,1.76,0.9c1.52,0,2.14-0.92,2.14-0.92s-0.62-0.88-2.14-0.88
								C254.99,96.61,254.74,97.51,254.74,97.51z"/>
							<g>
								<path class="st11" d="M257.55,97.49c0,0.36-0.18,0.68-0.45,0.87c-0.19,0.03-0.39,0.05-0.6,0.05c-0.21,0-0.4-0.02-0.6-0.05
									c-0.27-0.19-0.45-0.51-0.45-0.87c0-0.36,0.18-0.68,0.45-0.87c0.19-0.03,0.39-0.04,0.6-0.04c0.21,0,0.41,0.02,0.6,0.04
									C257.37,96.81,257.55,97.13,257.55,97.49z"/>
							</g>
							<path class="st12" d="M256.08,97.51c0,0.23,0.19,0.42,0.42,0.42c0.23,0,0.42-0.19,0.42-0.42c0-0.23-0.19-0.42-0.42-0.42
								C256.27,97.08,256.08,97.27,256.08,97.51z"/>
							<path class="st2" d="M256.62,97.1c0,0.11,0.08,0.19,0.19,0.19S257,97.21,257,97.1c0-0.11-0.09-0.19-0.19-0.19
								S256.62,97,256.62,97.1z"/>
							<path class="st2" d="M256.5,97.52c0,0.06,0.04,0.1,0.1,0.1c0.05,0,0.1-0.04,0.1-0.1c0-0.06-0.05-0.1-0.1-0.1
								C256.54,97.42,256.5,97.46,256.5,97.52z"/>
						</g>
					</g>
				</g>
			</g>
			<rect x="284.59" y="81.93" class="st13" width="27.53" height="5.21"/>
			<rect x="284.59" y="90.86" class="st14" width="27.53" height="2.61"/>
			<rect x="284.59" y="96.19" class="st14" width="27.53" height="2.61"/>
			<rect x="284.59" y="101.53" class="st14" width="27.53" height="2.6"/>
			<rect x="284.59" y="106.86" class="st14" width="27.53" height="2.6"/>
			<rect x="284.59" y="112.19" class="st14" width="27.53" height="2.6"/>
			<rect x="284.59" y="117.52" class="st14" width="27.53" height="2.6"/>
			<rect x="243.92" y="128.43" class="st14" width="68.2" height="2.6"/>
			<rect x="243.92" y="134.88" class="st14" width="68.2" height="2.6"/>
		</g>
	</g>
</g>
<g>
	<g>
		<path class="st28" d="M296.86,382.15c0,4.87-37.73,8.82-84.27,8.82c-46.54,0-84.27-3.95-84.27-8.82c0-4.87,37.73-8.82,84.27-8.82
			C259.14,373.33,296.86,377.28,296.86,382.15z"/>
		<path class="st28" d="M290.19,382.15c0,4.49-34.74,8.12-77.6,8.12c-42.86,0-77.6-3.64-77.6-8.12c0-4.48,34.74-8.12,77.6-8.12
			C255.45,374.03,290.19,377.66,290.19,382.15z"/>
		<path class="st28" d="M329.04,382.15c0,6.73-52.13,12.19-116.44,12.19c-64.31,0-116.44-5.46-116.44-12.19
			c0-6.73,52.13-12.18,116.44-12.18C276.91,369.96,329.04,375.42,329.04,382.15z"/>
		<path class="st28" d="M319.82,382.15c0,6.2-48.01,11.22-107.22,11.22s-107.22-5.02-107.22-11.22c0-6.2,48-11.22,107.22-11.22
			S319.82,375.95,319.82,382.15z"/>
		<path class="st28" d="M312.02,382.15c0,5.75-44.51,10.41-99.42,10.41c-54.91,0-99.42-4.66-99.42-10.41
			c0-5.75,44.51-10.4,99.42-10.4C267.51,371.74,312.02,376.4,312.02,382.15z"/>
		<ellipse class="st28" cx="212.6" cy="382.15" rx="90.92" ry="9.51"/>
		<path class="st28" d="M250.23,382.15c0,2.18-16.85,3.94-37.64,3.94c-20.79,0-37.64-1.76-37.64-3.94c0-2.17,16.85-3.94,37.64-3.94
			C233.38,378.21,250.23,379.97,250.23,382.15z"/>
		<path class="st28" d="M247.26,382.15c0,2-15.52,3.63-34.66,3.63c-19.14,0-34.66-1.62-34.66-3.63c0-2,15.52-3.63,34.66-3.63
			C231.74,378.52,247.26,380.14,247.26,382.15z"/>
		<path class="st28" d="M244.74,382.15c0,1.86-14.39,3.36-32.14,3.36c-17.75,0-32.14-1.51-32.14-3.36c0-1.86,14.39-3.36,32.14-3.36
			C230.35,378.79,244.74,380.29,244.74,382.15z"/>
		<path class="st28" d="M241.99,382.15c0,1.7-13.16,3.08-29.39,3.08c-16.23,0-29.39-1.38-29.39-3.08c0-1.7,13.16-3.08,29.39-3.08
			C228.83,379.07,241.99,380.45,241.99,382.15z"/>
		<path class="st28" d="M264.21,382.15c0,2.98-23.11,5.4-51.61,5.4c-28.5,0-51.61-2.42-51.61-5.4c0-2.98,23.11-5.4,51.61-5.4
			C241.1,376.75,264.21,379.17,264.21,382.15z"/>
		<path class="st28" d="M260.13,382.15c0,2.75-21.28,4.97-47.53,4.97c-26.25,0-47.53-2.23-47.53-4.97s21.28-4.97,47.53-4.97
			C238.85,377.17,260.13,379.4,260.13,382.15z"/>
		<ellipse class="st28" cx="212.6" cy="382.15" rx="44.07" ry="4.61"/>
		<path class="st28" d="M252.9,382.15c0,2.33-18.04,4.22-40.3,4.22c-22.26,0-40.3-1.89-40.3-4.22c0-2.33,18.04-4.22,40.3-4.22
			C234.86,377.93,252.9,379.82,252.9,382.15z"/>
		<ellipse class="st28" cx="212.6" cy="382.15" rx="71.32" ry="7.46"/>
		<path class="st28" d="M278.27,382.15c0,3.8-29.4,6.87-65.67,6.87c-36.27,0-65.67-3.08-65.67-6.87c0-3.79,29.4-6.87,65.67-6.87
			C248.87,375.28,278.27,378.35,278.27,382.15z"/>
		<path class="st28" d="M273.5,382.15c0,3.52-27.27,6.37-60.9,6.37c-33.63,0-60.9-2.85-60.9-6.37c0-3.52,27.27-6.37,60.9-6.37
			C246.23,375.77,273.5,378.63,273.5,382.15z"/>
		<path class="st28" d="M268.29,382.15c0,3.22-24.93,5.83-55.69,5.83c-30.76,0-55.69-2.61-55.69-5.83c0-3.22,24.93-5.83,55.69-5.83
			C243.35,376.32,268.29,378.93,268.29,382.15z"/>
		<path class="st28" d="M238.55,382.15c0,1.5-11.62,2.72-25.95,2.72c-14.33,0-25.95-1.22-25.95-2.72c0-1.5,11.62-2.72,25.95-2.72
			C226.93,379.43,238.55,380.65,238.55,382.15z"/>
		<path class="st28" d="M236.26,382.15c0,1.37-10.59,2.48-23.66,2.48c-13.07,0-23.66-1.11-23.66-2.48c0-1.37,10.59-2.48,23.66-2.48
			C225.67,379.67,236.26,380.78,236.26,382.15z"/>
		<path class="st28" d="M234.65,382.15c0,1.28-9.87,2.31-22.05,2.31c-12.18,0-22.05-1.03-22.05-2.31c0-1.27,9.87-2.31,22.05-2.31
			C224.78,379.84,234.65,380.87,234.65,382.15z"/>
		<path class="st28" d="M232.91,382.15c0,1.17-9.09,2.13-20.31,2.13c-11.22,0-20.31-0.95-20.31-2.13c0-1.17,9.09-2.12,20.31-2.12
			C223.82,380.02,232.91,380.97,232.91,382.15z"/>
		<path class="st28" d="M231.43,382.15c0,1.09-8.43,1.97-18.83,1.97c-10.4,0-18.83-0.88-18.83-1.97c0-1.09,8.43-1.97,18.83-1.97
			C223,380.18,231.43,381.06,231.43,382.15z"/>
		<path class="st28" d="M229.82,382.15c0,1-7.71,1.8-17.22,1.8c-9.51,0-17.22-0.81-17.22-1.8c0-1,7.71-1.8,17.22-1.8
			C222.11,380.35,229.82,381.15,229.82,382.15z"/>
		<path class="st28" d="M227.81,382.15c0,0.88-6.81,1.59-15.21,1.59c-8.4,0-15.21-0.71-15.21-1.59c0-0.88,6.81-1.59,15.21-1.59
			C221,380.56,227.81,381.27,227.81,382.15z"/>
		<path class="st28" d="M226.46,382.15c0,0.8-6.21,1.45-13.86,1.45c-7.66,0-13.86-0.65-13.86-1.45c0-0.8,6.21-1.45,13.86-1.45
			C220.25,380.7,226.46,381.35,226.46,382.15z"/>
		<path class="st28" d="M226.46,382.15c0,0.8-6.21,1.45-13.86,1.45c-7.66,0-13.86-0.65-13.86-1.45c0-0.8,6.21-1.45,13.86-1.45
			C220.25,380.7,226.46,381.35,226.46,382.15z"/>
		<path class="st28" d="M225.37,382.15c0,0.74-5.72,1.34-12.77,1.34c-7.05,0-12.77-0.6-12.77-1.34c0-0.74,5.72-1.34,12.77-1.34
			C219.65,380.81,225.37,381.41,225.37,382.15z"/>
		<path class="st28" d="M224.44,382.15c0,0.68-5.3,1.24-11.84,1.24c-6.54,0-11.84-0.55-11.84-1.24c0-0.68,5.3-1.24,11.84-1.24
			C219.14,380.91,224.44,381.46,224.44,382.15z"/>
		<path class="st28" d="M223.42,382.15c0,0.63-4.85,1.13-10.83,1.13c-5.98,0-10.83-0.51-10.83-1.13c0-0.62,4.85-1.13,10.83-1.13
			C218.58,381.01,223.42,381.52,223.42,382.15z"/>
		<path class="st28" d="M222.16,382.15c0,0.55-4.28,1-9.56,1c-5.28,0-9.56-0.45-9.56-1c0-0.55,4.28-1,9.56-1
			C217.88,381.15,222.16,381.6,222.16,382.15z"/>
		<path class="st28" d="M221.31,382.15c0,0.5-3.9,0.91-8.71,0.91c-4.81,0-8.71-0.41-8.71-0.91c0-0.5,3.9-0.91,8.71-0.91
			C217.41,381.24,221.31,381.64,221.31,382.15z"/>
		<path class="st28" d="M220.72,382.15c0,0.47-3.64,0.85-8.12,0.85c-4.49,0-8.12-0.38-8.12-0.85s3.64-0.85,8.12-0.85
			C217.09,381.3,220.72,381.68,220.72,382.15z"/>
		<path class="st28" d="M220.08,382.15c0,0.43-3.35,0.78-7.48,0.78c-4.13,0-7.48-0.35-7.48-0.78c0-0.43,3.35-0.78,7.48-0.78
			C216.73,381.37,220.08,381.72,220.08,382.15z"/>
		<path class="st28" d="M219.54,382.15c0,0.4-3.11,0.73-6.94,0.73c-3.83,0-6.94-0.33-6.94-0.73c0-0.4,3.11-0.73,6.94-0.73
			C216.43,381.42,219.54,381.75,219.54,382.15z"/>
		<path class="st28" d="M218.94,382.15c0,0.37-2.84,0.66-6.34,0.66c-3.5,0-6.34-0.3-6.34-0.66c0-0.37,2.84-0.66,6.34-0.66
			C216.1,381.48,218.94,381.78,218.94,382.15z"/>
		<path class="st28" d="M218.2,382.15c0,0.32-2.51,0.59-5.6,0.59c-3.09,0-5.6-0.26-5.6-0.59c0-0.32,2.51-0.59,5.6-0.59
			C215.69,381.56,218.2,381.82,218.2,382.15z"/>
		<path class="st28" d="M217.71,382.15c0,0.3-2.29,0.54-5.11,0.54c-2.82,0-5.11-0.24-5.11-0.54c0-0.29,2.29-0.53,5.11-0.53
			C215.42,381.61,217.71,381.85,217.71,382.15z"/>
		<path class="st28" d="M216.98,382.15c0,0.25-1.96,0.46-4.38,0.46c-2.42,0-4.38-0.21-4.38-0.46c0-0.25,1.96-0.46,4.38-0.46
			C215.02,381.69,216.98,381.89,216.98,382.15z"/>
		<path class="st28" d="M216.21,382.15c0,0.21-1.62,0.38-3.61,0.38c-1.99,0-3.61-0.17-3.61-0.38c0-0.21,1.62-0.38,3.61-0.38
			C214.59,381.77,216.21,381.94,216.21,382.15z"/>
		<path class="st28" d="M215.09,382.15c0,0.14-1.12,0.26-2.49,0.26c-1.38,0-2.49-0.12-2.49-0.26c0-0.14,1.12-0.26,2.49-0.26
			C213.97,381.89,215.09,382,215.09,382.15z"/>
		<path class="st28" d="M214.29,382.15c0,0.1-0.76,0.18-1.69,0.18c-0.93,0-1.69-0.08-1.69-0.18c0-0.1,0.76-0.18,1.69-0.18
			C213.53,381.97,214.29,382.05,214.29,382.15z"/>
	</g>
	<g>
		<g>
			<path class="st29" d="M124.12,346.27c2.51,5.44,7.23,9.73,12.06,12.64c1.1,0.66,2.19,1.32,3.29,1.98c2.15,1.3,4.3,2.59,6.45,3.89
				c1.27,0.76,2.53,1.52,3.79,2.29c1.01,0.61,2.67,0.4,2.97-0.94c0.32-1.45-0.81-2.44-1.79-3.24c-0.88-0.72-1.68-1.54-2.54-2.27
				c-1.8-1.55-3.51-3.19-5.3-4.75c-0.4-0.34-0.77-0.73-1.19-1.06c0.47,0.34,0.94,0.68,1.41,1.02c1.15,0.83,2.3,1.66,3.44,2.49
				c1.45,1.05,2.89,2.09,4.34,3.14c1.37,0.99,2.74,1.99,4.11,2.98c1,0.72,1.97,1.48,3.01,2.14c0.89,0.57,2.4,0.88,3.19-0.05
				c0.42-0.5,0.38-1.19,0.31-1.81c-0.07-0.67-0.66-1.64-1.16-2.1c-0.5-0.46-0.98-0.93-1.45-1.42c-1.26-1.34-2.73-2.58-4.13-3.77
				c-1.55-1.32-3.09-2.65-4.65-3.95c-1.31-1.08-2.61-2.16-3.91-3.25c-0.61-0.51-1.22-1.04-1.86-1.51c-0.01-0.01-0.03-0.02-0.04-0.02
				c0,0,18.29,14.36,18.35,14.4c1.22,0.96,4.22,2.57,5.51,0.47c0.45-0.74,0.19-2.33-0.19-3.04c-0.42-0.79-1.15-1.34-1.8-1.93
				c-1.35-1.23-2.64-2.5-4.04-3.68c-2.87-2.42-5.72-4.85-8.68-7.17c-0.65-0.51-1.29-1.06-1.96-1.55c2.09,1.85,4.6,3.54,6.92,5.11
				c2.74,1.87,4.49,3.42,6.64,4.69c0.56,0.33,1.32,0.92,1.99,0.92c0.96,0.01,2.22-0.23,2.7-0.96c0.69-1.03-0.05-2.95-0.98-3.76
				c-5.4-4.67-9.2-7.8-14.17-10.88c0,0-4.23-2.57-4.58-3c0,0,8.13,4.45,13.46,3.46c0,0,7.01-3.53-4.38-5.91
				c0,0-6.43-2.87-10.43-4.83c0,0-7.71-4.15-16.97-1.38c0,0-7.44-4.58-9.37-6.2l-7.14,9.24
				C115.33,332.71,122.27,342.26,124.12,346.27z"/>
			<path class="st29" d="M304.15,337.18c0.5,5.96-1.49,12.03-4.25,16.94c-0.63,1.12-1.26,2.23-1.88,3.34
				c-1.23,2.19-2.46,4.38-3.69,6.57c-0.73,1.29-1.45,2.57-2.17,3.86c-0.58,1.03-2.13,1.67-3.05,0.65c-0.99-1.1-0.5-2.53-0.04-3.7
				c0.41-1.05,0.7-2.16,1.08-3.23c0.8-2.23,1.48-4.51,2.27-6.74c0.18-0.49,0.31-1.02,0.51-1.51c-0.24,0.53-0.48,1.05-0.72,1.58
				c-0.59,1.29-1.18,2.58-1.77,3.87c-0.74,1.62-1.49,3.25-2.22,4.87c-0.7,1.54-1.4,3.08-2.11,4.62c-0.51,1.12-0.98,2.26-1.56,3.34
				c-0.49,0.93-1.65,1.95-2.8,1.53c-0.61-0.23-0.92-0.85-1.16-1.42c-0.27-0.62-0.23-1.76-0.03-2.4c0.21-0.65,0.39-1.29,0.55-1.95
				c0.44-1.79,1.1-3.59,1.73-5.32c0.7-1.91,1.38-3.83,2.1-5.73c0.6-1.58,1.21-3.17,1.8-4.75c0.28-0.74,0.55-1.5,0.87-2.23
				c0.01-0.01,0.01-0.03,0.02-0.04c0,0-8.82,21.51-8.85,21.58c-0.59,1.44-2.41,4.32-4.56,3.13c-0.76-0.42-1.31-1.94-1.33-2.74
				c-0.02-0.89,0.34-1.73,0.61-2.57c0.57-1.73,1.06-3.47,1.7-5.19c1.31-3.52,2.58-7.05,4.01-10.52c0.32-0.77,0.59-1.56,0.94-2.31
				c-0.91,2.65-2.26,5.35-3.5,7.86c-1.47,2.98-2.21,5.19-3.47,7.36c-0.32,0.56-0.7,1.45-1.27,1.78c-0.83,0.48-2.04,0.9-2.83,0.5
				c-1.11-0.56-1.41-2.6-1-3.76c2.4-6.72,4.16-11.32,6.96-16.46c0,0,2.41-4.32,2.51-4.87c0,0-4.88,7.89-10,9.65
				c0,0-7.84,0.39,0.9-7.3c0,0,4.18-5.67,6.69-9.34c0,0,4.66-7.42,14.09-9.58c0,0,4.21-7.66,5.09-10.01l15.45,6.48
				C309.79,323.03,303.77,332.78,304.15,337.18z"/>
			<g>
				<path class="st30" d="M194.6,208.16c0,0,3.66,10.33-6.84,18.15c0,0,24,24.65,55.5,0c0,0-12-1.2-7.5-24.66L194.6,208.16z"/>
				<path class="st31" d="M316.77,313.66l-21.79-56.96c-4.84-14.19-17.25-22.77-30.21-28.08c-7.05-2.88-14.1-5.75-21.15-8.62
					c-23.65,25.84-53.29,0-53.29,0c-4.38,2.41-8.74,4.86-13.12,7.29c-12.17,6.77-26.55,11.82-34.1,24.29l-34.67,60.75
					c0,0,3.17,22.83,12.12,28.62c0,0,2.54-13.95,21.16-12l-2.95-14.41l30.67-31.22l4.86,53h81.73l6.4-52.97l25.83,29.81
					l-11.54,20.67c19.33-8,27.49,5.17,27.49,5.17S313.9,327.3,316.77,313.66"/>
				<path class="st29" d="M251.12,169.51c-0.05-30.55-16.76-47.18-37.36-47.18c-20.6,0-37.31,16.63-37.36,47.18
					c-1.18,0.02-7.35,0.44-3.84,7.45c0,0,3.76,4.58,4.03,10.46c0,0,1.33,3.16,3.31,1.71c4.6,12.34,13.07,21.76,21.28,27.66
					c0,0,13.94,9.14,24.28,1.01c9.88-6.08,18.41-15.19,22.7-28.38c1.67,0.56,2.76-2.01,2.76-2.01c0.27-5.88,4.03-10.46,4.03-10.46
					C258.47,169.95,252.31,169.53,251.12,169.51z"/>
				<path class="st32" d="M251.52,169.66c-1.22,2.6-6.86,6.17-6.25,9.54c0,0.19,0,0.19,0,0c-0.76-1.18,0.11-4.84,0-6.29
					c-0.2-2.5-0.67-4.81-1.25-7.26c-1.21-5.11-2.71-9.69-5.68-14.06c-3.5-5.15-7.47-8.53-14.32-8.19
					c-4.12,0.21-10.31,1.2-10.99,6.18c-3.51-8.35-18.53-8.23-23.51-1.31c-2.92,4.05-4.11,8.6-4.8,13.44
					c-0.41,2.92-0.58,5.88-1.14,8.75c-0.34,1.73-0.6,5.28-1.55,6.44c0,0-0.97-5.05-5.61-7.4c-4.58-2.31-0.44-24.84,0.54-28.19
					c4.72-16.08,18.78-25.47,34.9-27.17c8.1-0.86,16.12-2.98,24.4-2.39c-1.8,1.31-3.66,3.07-5.21,4.84
					c4.71-0.76,9.16-2.24,14.18-1.86c-2.66,1.95-1.44,4.93-2.77,7.85c5.83-0.35,10.15,6.86,13.16,11.01
					c-2.79-0.74-5.43-2.18-8.2-2.97C259.69,134.15,255.21,161.81,251.52,169.66z"/>
				<path class="st33" d="M190.32,220l-9.48,5.26c0,0,16.81,15.32,34.12,15.4c0.19,0,0.37,0,0.56,0c17.5-0.25,29.64-5.23,36.2-17.37
					l-8.1-3.3c0,0-13.29,11.79-24.69,11.48C218.92,231.48,206.77,232.08,190.32,220z"/>
			</g>
			<g>
				<path d="M282.23,361.85c0,3.28-2.66,5.94-5.94,5.94H150.82c-3.28,0-5.94-2.66-5.94-5.94v-91.51c0-3.28,2.66-5.94,5.94-5.94
					h125.47c3.28,0,5.94,2.66,5.94,5.94V361.85z"/>
				<path class="st34" d="M146.52,271.6v51.19c0,23.31,2.59,42.21,5.79,42.21H274.7c3.2,0,5.79-18.9,5.79-42.21V271.6H146.52z"/>
				<rect x="165.45" y="366.25" class="st34" width="18.97" height="4.47"/>
				<rect x="239.33" y="366.25" class="st34" width="18.97" height="4.47"/>
				<path d="M130.93,372.53H296.6c0,0-2.29,7.25-6.43,10.01H145.92C145.92,382.55,132.37,381.16,130.93,372.53z"/>
			</g>
		</g>
		<g>
			<path d="M232,167.15c-2.05,0.16-4.01,0.51-5.78,1.05c-0.46,0.14-0.92,0.3-1.36,0.47c-8.54,2.76-15.32,1.28-18.57,0.17
				c-0.66-0.32-1.36-0.61-2.1-0.86l0,0l0,0c-1.94-0.66-4.12-1.07-6.41-1.25c-16.07-1.25-18.67,5.46-15.97,13.4
				c2.4,7.04,6.21,10.65,15.08,10.65c8.87,0,13.38-2.4,15.08-10.65c0.28-1.37,0.34-2.62,0.2-3.76c2.14-1.89,4.27-0.98,5.52-0.08
				c-0.22,1.28-0.2,2.7,0.12,4.27c1.7,8.25,6.21,10.65,15.08,10.65c8.87,0,12.68-3.61,15.08-10.65
				C250.67,172.61,248.07,165.89,232,167.15z M209.84,180.24c-1.41,6.43-5.14,8.3-12.48,8.3c-7.34,0-10.5-2.81-12.48-8.3
				c-2.24-6.2-0.08-11.44,13.22-10.46C205.41,170.32,211.3,173.53,209.84,180.24z M244.91,180.67c-1.98,5.49-5.14,8.3-12.48,8.3
				c-7.34,0-11.07-1.87-12.48-8.3c-1.47-6.71,4.42-9.92,11.75-10.46C244.99,169.23,247.14,174.47,244.91,180.67z"/>
			<polygon points="183.65,178.1 179.76,179.1 178.26,169.04 184.46,169.04 			"/>
			<polygon points="246.26,178.1 250.15,179.1 251.65,169.04 245.45,169.04 			"/>
		</g>
	</g>
</g>
</svg>
