<?xml version="1.0" encoding="utf-8"?>
<!-- Generator: Adobe Illustrator 26.0.1, SVG Export Plug-In . SVG Version: 6.00 Build 0)  -->
<svg version="1.1" xmlns="http://www.w3.org/2000/svg" xmlns:xlink="http://www.w3.org/1999/xlink" x="0px" y="0px"
	 viewBox="0 0 750 500" style="enable-background:new 0 0 750 500;" xml:space="preserve">
<style type="text/css">
	.st0{fill:#BEBCC7;}
	.st1{opacity:0.4;fill:url(#SVGID_1_);}
	.st2{fill:#98969F;}
	.st3{fill:#B1D9DD;}
	.st4{fill:#ADCCCF;}
	.st5{fill:url(#SVGID_00000137094576230678929290000012958363068616735141_);}
	.st6{opacity:0.5;fill:#B1D9DD;}
	.st7{opacity:0.4;fill:url(#SVGID_00000094611756496965625560000015939305252044603812_);}
	.st8{opacity:0.4;fill:url(#SVGID_00000093140462985248852880000006766587411009093532_);}
	.st9{opacity:0.4;fill:url(#SVGID_00000035489640124254856300000017405014689595304876_);}
	.st10{opacity:0.4;fill:url(#SVGID_00000132785125640083206510000014012495409529343633_);}
	.st11{opacity:0.4;fill:url(#SVGID_00000013871344945277727990000014433774443389499566_);}
	.st12{opacity:0.4;fill:url(#SVGID_00000178888089825528668110000005336884243994462909_);}
	.st13{fill:#212221;}
	.st14{fill:#DBDDDE;}
	.st15{fill:#B3A394;}
	.st16{fill:#6B6259;}
	.st17{opacity:0.5;fill:url(#SVGID_00000058574325640000968590000000241588827742677949_);}
	.st18{clip-path:url(#SVGID_00000093150353542079731710000016647728447524070318_);}
	.st19{opacity:0.4;}
	.st20{fill:#66C0E2;}
	.st21{fill:#356577;}
	.st22{fill:#52525E;}
	.st23{fill:#6C6C7C;}
	.st24{fill:#9D9DAE;}
	.st25{fill:#222238;}
	.st26{fill:#131321;}
	.st27{fill:#424263;}
	.st28{opacity:0.5;fill:url(#SVGID_00000029761369759178660740000010075268692813900177_);}
	.st29{fill:#25253B;}
	.st30{opacity:0.3;fill:url(#SVGID_00000136386259645959491510000017330818382476633743_);}
	.st31{opacity:0.3;fill:url(#SVGID_00000106131612376185731110000014487425395201613222_);}
	.st32{opacity:0.3;fill:url(#SVGID_00000161595029945074787960000004726277464533261206_);}
	.st33{opacity:0.5;fill:url(#SVGID_00000183930726215624823120000004210524057720122511_);}
	.st34{opacity:0.3;fill:url(#SVGID_00000078725570056544288650000008298178276668832702_);}
	.st35{opacity:0.3;fill:url(#SVGID_00000096025144680045253600000008795405438433227935_);}
	.st36{opacity:0.3;fill:url(#SVGID_00000114793474877401623530000002467862767284193210_);}
	.st37{opacity:0.5;fill:url(#SVGID_00000158723877740679274560000003491102126906905504_);}
	.st38{opacity:0.5;fill:url(#SVGID_00000046312692278846373830000012068273233329603202_);}
	.st39{opacity:0.5;fill:url(#SVGID_00000163036900181553052080000003004337985639244731_);}
	.st40{opacity:0.5;fill:url(#SVGID_00000091011378815274260100000008522506405854046348_);}
	.st41{opacity:0.5;fill:url(#SVGID_00000160909644668964022460000001242289400742488721_);}
	.st42{opacity:0.7;}
	.st43{fill:url(#SVGID_00000047049905583121477270000011945354961390881673_);}
	.st44{opacity:0.3;fill:url(#SVGID_00000117655039222509237260000017405492340554970758_);}
	.st45{opacity:0.3;fill:url(#SVGID_00000114075862968874716010000000577355726056520082_);}
	.st46{fill:#181818;}
	.st47{fill:#393939;}
	.st48{fill:#A7784C;}
	.st49{fill:#805535;}
	.st50{opacity:0.2;fill:#25253B;}
	.st51{fill:#8F5F3B;}
	.st52{opacity:0.5;fill:#25253B;}
	.st53{opacity:0.4;fill:#25253B;}
	.st54{fill:#3A3B3D;}
	.st55{fill:#4D4D4D;}
	.st56{fill:#808080;}
	.st57{fill:#10182B;}
	.st58{fill:#3F4E6A;}
	.st59{fill:#1F3051;}
	.st60{opacity:0.1;}
	.st61{fill:url(#SVGID_00000063633031889123164370000002316833265024351895_);}
	.st62{fill:url(#SVGID_00000018211102361625042340000017280253880534139808_);}
	.st63{fill:url(#SVGID_00000171717591583662668290000015556530696201769868_);}
	.st64{fill:url(#SVGID_00000026877554690291304270000014877294611301034657_);}
	.st65{fill:url(#SVGID_00000037672955923532688750000010692287407328286106_);}
	.st66{fill:#152039;}
	.st67{fill:#BF9E6B;}
	.st68{fill:#141414;}
	.st69{fill:#2E2E2E;}
	.st70{fill:#565656;}
	.st71{opacity:0.3;fill:url(#SVGID_00000008867758885370992730000003861480113901126058_);}
	.st72{fill:#37311F;}
	.st73{fill:#526A0E;}
	.st74{opacity:0.3;}
	.st75{fill:url(#SVGID_00000127032468137423809640000005270358837145111958_);}
	.st76{fill:#6D8D13;}
	.st77{fill:url(#SVGID_00000023248759286442948240000006749122650248328112_);}
	.st78{opacity:0.3;fill:url(#SVGID_00000109727975046754366420000001702003497787611324_);}
	.st79{fill:url(#SVGID_00000093866510103191482280000006869224742253929656_);}
	.st80{fill:#7E9E33;}
	.st81{fill:url(#SVGID_00000150061002813233243600000007499752562378817682_);}
	.st82{fill:url(#SVGID_00000075848606681009589760000000679025371460815748_);}
	.st83{opacity:0.3;fill:url(#SVGID_00000144317185499326562870000002931202709563771821_);}
	.st84{opacity:0.4;fill:url(#SVGID_00000139285361864857961450000010342905511830944144_);}
	.st85{fill:url(#SVGID_00000124160523523074831250000016395773561441059724_);}
	.st86{fill:#91BC19;}
	.st87{opacity:0.4;fill:url(#SVGID_00000180352698755180245250000008172631252551767456_);}
	.st88{opacity:0.3;fill:url(#SVGID_00000102532956779545183850000009613789388533726337_);}
	.st89{fill:url(#SVGID_00000054247526923699220280000007829766676832478638_);}
	.st90{opacity:0.3;fill:url(#SVGID_00000173868740165535632770000005261441296890653866_);}
	.st91{fill:url(#SVGID_00000128472226292070091790000000494756687682419868_);}
	.st92{fill:url(#SVGID_00000168822389235701349930000012011326344105629060_);}
	.st93{opacity:0.3;fill:url(#SVGID_00000020378047475867778690000017340905472416877964_);}
	.st94{fill:url(#SVGID_00000110438525616338439020000014830523494554303108_);}
	.st95{opacity:0.3;fill:url(#SVGID_00000033350483301065745400000006826576854551774397_);}
	.st96{fill:url(#SVGID_00000040551011150185140620000000114968423012904359_);}
	.st97{fill:url(#SVGID_00000143612125996578782180000014091050835717611422_);}
	.st98{fill:url(#SVGID_00000162314319380842897800000000936169556363009952_);}
	.st99{fill:#93562F;}
	.st100{fill:#8F785F;}
	.st101{opacity:0.35;fill:url(#SVGID_00000182496980069448948320000003063484675089208991_);}
	.st102{opacity:0.35;fill:url(#SVGID_00000036965279204584916140000006467007492568386176_);}
	.st103{opacity:0.3;fill:url(#SVGID_00000026850716847126992070000003940154652540311201_);}
	.st104{opacity:0.3;fill:url(#SVGID_00000019647413759069931500000018222056922809187225_);}
	.st105{opacity:0.3;fill:url(#SVGID_00000080908706236010292790000004659065766448924086_);}
	.st106{opacity:0.4;fill:url(#SVGID_00000025418362563315009780000009598743519761369504_);}
	.st107{fill:#6E4931;}
	.st108{fill:#583A27;}
	.st109{fill:#482F20;}
	.st110{fill:#DCB548;}
	.st111{fill:#FEB417;}
	.st112{fill:#E5A215;}
	.st113{fill:#BC7B02;}
	.st114{fill:#C2881A;}
	.st115{fill:#A06902;}
	.st116{fill:#FFC307;}
	.st117{fill:#FEBF38;}
	.st118{fill:#E6B006;}
	.st119{opacity:0.3;fill:url(#SVGID_00000036929596736017967440000001478352295500699041_);}
	.st120{fill:#555454;}
	.st121{fill:#424141;}
	.st122{fill:#FEDD55;}
	.st123{fill:#494848;}
	.st124{opacity:0.3;fill:url(#SVGID_00000120536030445081056980000011047021018193334941_);}
	.st125{opacity:0.3;fill:url(#SVGID_00000052787033818757328620000003128563521032753590_);}
	.st126{opacity:0.5;fill:url(#SVGID_00000113326743070941217890000014780845472238669187_);}
	.st127{opacity:0.3;fill:url(#SVGID_00000065774776517010056420000013541623557180791456_);}
	.st128{opacity:0.3;fill:url(#SVGID_00000067942342703417733730000004202595112317521070_);}
	.st129{opacity:0.3;fill:url(#SVGID_00000123443152072376569870000003234712240825869448_);}
</style>
<g id="BACKGROUND">
	<g>
		<rect x="0" class="st0" width="750" height="500"/>
		<linearGradient id="SVGID_1_" gradientUnits="userSpaceOnUse" x1="374.9991" y1="242.2324" x2="374.9991" y2="-9.094947e-13">
			<stop  offset="0" style="stop-color:#FFFFFF"/>
			<stop  offset="1" style="stop-color:#000000"/>
		</linearGradient>
		<polygon class="st1" points="0,242.23 0,0 750,0 750,44.58 		"/>
		<rect x="0" y="240.21" class="st2" width="750" height="259.79"/>
		<g>
			<g>
				<rect x="43.85" y="39.02" class="st3" width="523.42" height="300.1"/>
				<polygon class="st4" points="567.27,189.33 567.27,339.12 43.85,339.12 43.85,77.23 61.25,77.23 61.25,80.79 71.49,80.79 
					71.49,85.2 77.49,85.2 77.49,94.17 74.2,94.17 74.2,99.73 77.49,99.73 77.49,108.7 74.2,108.7 74.2,114.27 77.49,114.27 
					77.49,123.23 74.2,123.23 74.2,128.79 77.49,128.79 77.49,137.77 74.2,137.77 74.2,143.35 77.49,143.35 77.49,149.1 
					121.19,149.1 121.19,196.95 130.32,196.95 130.32,214.52 142.77,214.52 142.77,197.98 145.14,197.98 145.14,194.75 
					146.61,194.75 146.61,191.36 151.56,191.36 151.56,194.75 153.03,194.75 153.03,197.98 155.4,197.98 155.4,213.54 
					160.01,213.54 160.01,210.42 163.86,210.42 163.86,207.04 160.01,207.04 160.01,201.59 163.86,201.59 163.86,198.21 
					160.01,198.21 160.01,192.77 163.86,192.77 163.86,189.39 160.01,189.39 160.01,183.94 163.86,183.94 163.86,180.56 
					160.01,180.56 160.01,175.12 163.86,175.12 163.86,171.74 160.01,171.74 160.01,166.29 163.86,166.29 163.86,162.91 
					160.01,162.91 160.01,157.47 163.86,157.47 163.86,154.09 160.01,154.09 160.01,148.66 166.23,148.66 166.23,145.97 
					179.14,145.97 179.14,143.81 203.13,143.81 203.13,145.97 215.17,145.97 215.17,148.66 222.2,148.66 222.2,154.09 
					218.33,154.09 218.33,157.47 222.2,157.47 222.2,162.91 218.33,162.91 218.33,166.29 222.2,166.29 222.2,171.74 218.33,171.74 
					218.33,175.12 222.2,175.12 222.2,180.56 218.33,180.56 218.33,183.94 222.2,183.94 222.2,189.39 218.33,189.39 218.33,192.77 
					222.2,192.77 222.2,198.21 218.33,198.21 218.33,201.59 222.2,201.59 222.2,207.04 218.33,207.04 218.33,210.42 222.2,210.42 
					222.2,214.52 229.34,214.52 229.34,175.95 263.72,175.95 263.72,221.35 268.01,221.35 268.01,213.02 271.27,213.02 
					271.27,208.82 287.88,208.82 287.88,213.02 291.16,213.02 291.16,220.56 301.67,220.56 301.67,228.35 309.59,228.35 
					309.59,220.56 320.09,220.56 320.09,183.25 345.45,183.25 345.45,173.54 350.35,173.54 350.35,149.27 364.9,149.27 
					364.9,173.54 372.05,173.54 372.05,183.25 389.38,183.25 389.38,217.53 404.85,217.53 404.85,123.51 408.61,123.51 
					408.61,111.85 410.85,111.85 410.85,107.34 430.63,107.34 430.63,111.85 433.62,111.85 433.62,123.51 437.16,123.51 
					437.16,217.53 443.66,217.53 443.66,214.76 446.62,214.76 446.62,210.86 443.66,210.86 443.66,207.97 446.62,207.97 
					446.62,204.08 443.66,204.08 443.66,201.17 446.62,201.17 446.62,197.29 443.66,197.29 443.66,194.38 446.62,194.38 
					446.62,190.51 443.66,190.51 443.66,187.59 446.62,187.59 446.62,183.7 443.66,183.7 443.66,180.81 446.62,180.81 
					446.62,176.91 443.66,176.91 443.66,174 446.62,174 446.62,170.12 443.66,170.12 443.66,167.22 446.62,167.22 446.62,163.35 
					443.66,163.35 443.66,160.43 446.62,160.43 446.62,156.54 443.66,156.54 443.66,153.64 446.62,153.64 446.62,149.76 
					443.66,149.76 443.66,146.84 446.62,146.84 446.62,142.97 443.66,142.97 443.66,140.05 446.62,140.05 446.62,136.18 
					443.66,136.18 443.66,133.26 446.62,133.26 446.62,129.39 443.66,129.39 443.66,126.47 446.62,126.47 446.62,122.59 
					443.66,122.59 443.66,119.67 446.62,119.67 446.62,115.1 449.6,115.1 449.6,111.47 468.03,111.47 468.03,115.1 471.09,115.1 
					471.09,119.67 474.06,119.67 474.06,122.59 471.09,122.59 471.09,126.47 474.06,126.47 474.06,129.39 471.09,129.39 
					471.09,133.26 474.06,133.26 474.06,136.18 471.09,136.18 471.09,140.05 474.06,140.05 474.06,142.97 471.09,142.97 
					471.09,146.84 474.06,146.84 474.06,149.76 471.09,149.76 471.09,153.64 474.06,153.64 474.06,156.54 471.09,156.54 
					471.09,160.43 474.06,160.43 474.06,163.35 471.09,163.35 471.09,167.22 474.06,167.22 474.06,170.12 471.09,170.12 471.09,174 
					474.06,174 474.06,176.91 471.09,176.91 471.09,180.81 474.06,180.81 474.06,183.7 471.09,183.7 471.09,187.59 474.06,187.59 
					474.06,190.51 471.09,190.51 471.09,194.38 474.06,194.38 474.06,197.29 471.09,197.29 471.09,201.17 474.06,201.17 
					474.06,204.08 471.09,204.08 471.09,207.97 474.06,207.97 474.06,210.86 471.09,210.86 471.09,214.76 474.06,214.76 
					474.06,217.53 476.33,217.53 476.33,182.79 507.05,182.79 507.05,223.38 510.89,223.38 510.89,215.96 513.81,215.96 
					513.81,212.2 528.66,212.2 528.66,215.96 531.58,215.96 531.58,222.69 540.98,222.69 540.98,229.65 548.09,229.65 
					548.09,222.69 557.47,222.69 557.47,189.33 				"/>
				
					<linearGradient id="SVGID_00000098221643710761165600000017349123181973561475_" gradientUnits="userSpaceOnUse" x1="43.8506" y1="171.8215" x2="567.2686" y2="171.8215">
					<stop  offset="0" style="stop-color:#FFFFFF"/>
					<stop  offset="1" style="stop-color:#B1D9DD"/>
				</linearGradient>
				<polygon style="fill:url(#SVGID_00000098221643710761165600000017349123181973561475_);" points="43.85,304.62 43.85,39.02 
					567.27,39.02 567.27,115.53 				"/>
				<polygon class="st6" points="53.81,52.35 567.27,52.35 567.27,39.02 43.85,39.02 43.85,339.12 53.81,339.12 				"/>
				<g>
					
						<linearGradient id="SVGID_00000119815237106693546400000017967560590897564315_" gradientUnits="userSpaceOnUse" x1="195.7822" y1="197.522" x2="567.2686" y2="197.522">
						<stop  offset="0" style="stop-color:#FFFFFF;stop-opacity:0"/>
						<stop  offset="1" style="stop-color:#FFFFFF"/>
					</linearGradient>
					<polygon style="opacity:0.4;fill:url(#SVGID_00000119815237106693546400000017967560590897564315_);" points="567.27,55.92 
						195.78,339.12 237.34,339.12 567.27,87.6 					"/>
					
						<linearGradient id="SVGID_00000080914859513298291100000011304852955133311926_" gradientUnits="userSpaceOnUse" x1="300.127" y1="237.2961" x2="567.2686" y2="237.2961">
						<stop  offset="0" style="stop-color:#FFFFFF;stop-opacity:0"/>
						<stop  offset="1" style="stop-color:#FFFFFF"/>
					</linearGradient>
					<polygon style="opacity:0.4;fill:url(#SVGID_00000080914859513298291100000011304852955133311926_);" points="567.27,135.47 
						300.13,339.12 452.28,339.12 567.27,251.46 					"/>
					
						<linearGradient id="SVGID_00000168832694722029708330000013773083093464838541_" gradientUnits="userSpaceOnUse" x1="105.9453" y1="189.071" x2="541.1582" y2="189.071">
						<stop  offset="0" style="stop-color:#FFFFFF;stop-opacity:0"/>
						<stop  offset="1" style="stop-color:#FFFFFF"/>
					</linearGradient>
					<polygon style="opacity:0.4;fill:url(#SVGID_00000168832694722029708330000013773083093464838541_);" points="105.95,339.12 
						147.5,339.12 541.16,39.02 499.6,39.02 					"/>
					
						<linearGradient id="SVGID_00000031178939007657154150000016490231680760299165_" gradientUnits="userSpaceOnUse" x1="43.8506" y1="81.2905" x2="154.7471" y2="81.2905">
						<stop  offset="0" style="stop-color:#FFFFFF;stop-opacity:0"/>
						<stop  offset="1" style="stop-color:#FFFFFF"/>
					</linearGradient>
					<polygon style="opacity:0.4;fill:url(#SVGID_00000031178939007657154150000016490231680760299165_);" points="43.85,91.88 
						43.85,123.56 154.75,39.02 113.19,39.02 					"/>
					
						<linearGradient id="SVGID_00000007411755164344818120000008797908115503799192_" gradientUnits="userSpaceOnUse" x1="43.8506" y1="115.5344" x2="244.583" y2="115.5344">
						<stop  offset="0" style="stop-color:#FFFFFF;stop-opacity:0"/>
						<stop  offset="1" style="stop-color:#FFFFFF"/>
					</linearGradient>
					<polygon style="opacity:0.4;fill:url(#SVGID_00000007411755164344818120000008797908115503799192_);" points="43.85,160.37 
						43.85,192.05 244.58,39.02 203.03,39.02 					"/>
					
						<linearGradient id="SVGID_00000053517463605760126850000003141777706452130962_" gradientUnits="userSpaceOnUse" x1="43.8506" y1="189.071" x2="448.2217" y2="189.071">
						<stop  offset="0" style="stop-color:#FFFFFF;stop-opacity:0"/>
						<stop  offset="1" style="stop-color:#FFFFFF"/>
					</linearGradient>
					<polygon style="opacity:0.4;fill:url(#SVGID_00000053517463605760126850000003141777706452130962_);" points="43.85,231.3 
						43.85,339.12 54.57,339.12 448.22,39.02 296.07,39.02 					"/>
				</g>
				<path class="st13" d="M38.71,35.1v307.95h533.7V35.1H38.71z M565.21,335.2H45.61V42.94h516.52h3.08V335.2z"/>
			</g>
			<g>
				<g>
					<rect x="179.1" y="38.46" class="st13" width="6.08" height="301.3"/>
				</g>
				<g>
					<rect x="425.94" y="38.46" class="st13" width="6.08" height="301.3"/>
				</g>
			</g>
		</g>
		<rect x="0" y="364.15" class="st14" width="750" height="13.16"/>
		<rect x="0" y="377.32" class="st15" width="750" height="122.68"/>
		<g>
			<g>
				<rect x="0" y="384.97" class="st16" width="750" height="0.98"/>
			</g>
			<g>
				<rect x="0" y="398.04" class="st16" width="750" height="0.98"/>
			</g>
			<g>
				<rect x="0" y="411.11" class="st16" width="750" height="0.98"/>
			</g>
			<g>
				<rect x="0" y="424.18" class="st16" width="750" height="0.98"/>
			</g>
			<g>
				<rect x="0" y="437.25" class="st16" width="750" height="0.98"/>
			</g>
			<g>
				<rect x="0" y="450.32" class="st16" width="750" height="0.98"/>
			</g>
			<g>
				<rect x="0" y="463.39" class="st16" width="750" height="0.98"/>
			</g>
			<g>
				<rect x="0" y="476.46" class="st16" width="750" height="0.98"/>
			</g>
			<g>
				<rect x="0" y="489.53" class="st16" width="750" height="0.98"/>
			</g>
		</g>
		
			<linearGradient id="SVGID_00000141431448208320437610000016977966852916039810_" gradientUnits="userSpaceOnUse" x1="333.9482" y1="500" x2="333.9482" y2="377.3203">
			<stop  offset="0" style="stop-color:#000000"/>
			<stop  offset="1" style="stop-color:#FFFFFF"/>
		</linearGradient>
		<path style="opacity:0.5;fill:url(#SVGID_00000141431448208320437610000016977966852916039810_);" d="M667.9,377.32v50.85
			c0,0-296.43-1.86-511.55,71.83H0V377.32H667.9z"/>
		<line class="st3" x1="750" y1="142.35" x2="750" y2="134.03"/>
		<g>
			<g>
				<defs>
					<polygon id="SVGID_00000002359392095339558740000004870328378697641915_" points="750,0 750,500 679.17,438.03 661.01,422.14 
						636.95,401.09 633.01,397.64 617.2,383.8 609.79,377.32 609.79,0 					"/>
				</defs>
				<clipPath id="SVGID_00000151541737548702250070000012120426218385377665_">
					<use xlink:href="#SVGID_00000002359392095339558740000004870328378697641915_"  style="overflow:visible;"/>
				</clipPath>
				<g style="clip-path:url(#SVGID_00000151541737548702250070000012120426218385377665_);">
					<polygon class="st3" points="750,0 750,500 679.17,438.03 661.01,422.14 636.95,401.09 633.01,397.64 617.2,383.8 
						609.79,377.32 609.79,0 					"/>
					<g class="st19">
						<g>
							<polygon class="st20" points="750,111.47 750,377.27 609.79,377.27 609.79,152.69 623.1,152.41 623.1,219.97 629.77,219.97 
								629.77,135.92 633.13,135.92 633.13,125.47 635.13,125.47 635.13,121.44 641.61,121.44 643.98,94.32 645.87,121.44 
								652.82,121.44 652.82,125.47 655.48,125.47 655.48,135.92 658.65,135.92 658.65,219.97 664.47,219.97 664.47,217.49 
								667.13,217.49 667.13,214.01 664.47,214.01 664.47,211.41 667.13,211.41 667.13,207.96 664.47,207.96 664.47,205.35 
								667.13,205.35 667.13,201.88 664.47,201.88 664.47,199.27 667.13,199.27 667.13,195.81 664.47,195.81 664.47,193.2 
								667.13,193.2 667.13,189.73 664.47,189.73 664.47,187.12 667.13,187.12 667.13,183.67 664.47,183.67 664.47,181.06 
								667.13,181.06 667.13,177.59 664.47,177.59 664.47,174.98 667.13,174.98 667.13,171.52 664.47,171.52 664.47,168.91 
								667.13,168.91 667.13,165.44 664.47,165.44 664.47,162.83 667.13,162.83 667.13,159.37 664.47,159.37 664.47,156.78 
								667.13,156.78 667.13,153.3 664.47,153.3 664.47,150.69 667.13,150.69 667.13,147.22 664.47,147.22 664.47,144.61 
								667.13,144.61 667.13,141.15 664.47,141.15 664.47,138.54 667.13,138.54 667.13,135.08 664.47,135.08 664.47,132.47 
								667.13,132.47 667.13,128.39 669.78,128.39 669.78,125.13 686.26,125.13 686.26,128.39 689,128.39 689,132.47 691.65,132.47 
								691.65,135.08 689,135.08 689,138.54 691.65,138.54 691.65,141.15 689,141.15 689,144.61 691.65,144.61 691.65,147.22 
								689,147.22 689,150.69 691.65,150.69 691.65,153.3 689,153.3 689,156.78 691.65,156.78 691.65,159.37 689,159.37 689,162.83 
								691.65,162.83 691.65,165.44 689,165.44 689,168.91 691.65,168.91 691.65,171.52 689,171.52 689,174.98 691.65,174.98 
								691.65,177.59 689,177.59 689,181.06 691.65,181.06 691.65,183.67 689,183.67 689,187.12 691.65,187.12 691.65,189.73 
								689,189.73 689,193.2 691.65,193.2 691.65,195.81 689,195.81 689,199.27 691.65,199.27 691.65,201.88 689,201.88 689,205.35 
								691.65,205.35 691.65,207.96 689,207.96 689,211.41 691.65,211.41 691.65,214.01 689,214.01 689,217.49 691.65,217.49 
								691.65,220.1 689,220.1 689,221.09 693.2,221.09 693.2,123.51 696.96,123.51 696.96,111.85 699.2,111.85 699.2,107.34 
								718.98,107.34 718.98,111.85 721.98,111.85 721.98,123.51 725.51,123.51 725.51,217.53 732.03,217.53 732.03,214.76 
								734.99,214.76 734.99,210.86 732.03,210.86 732.03,207.97 734.99,207.97 734.99,204.08 732.03,204.08 732.03,201.17 
								734.99,201.17 734.99,197.29 732.03,197.29 732.03,194.38 734.99,194.38 734.99,190.51 732.03,190.51 732.03,187.59 
								734.99,187.59 734.99,183.7 732.03,183.7 732.03,180.81 734.99,180.81 734.99,176.91 732.03,176.91 732.03,174 734.99,174 
								734.99,170.12 732.03,170.12 732.03,167.22 734.99,167.22 734.99,163.35 732.03,163.35 732.03,160.43 734.99,160.43 
								734.99,156.54 732.03,156.54 732.03,153.64 734.99,153.64 734.99,149.76 732.03,149.76 732.03,146.84 734.99,146.84 
								734.99,142.97 732.03,142.97 732.03,140.05 734.99,140.05 734.99,136.18 732.03,136.18 732.03,133.26 734.99,133.26 
								734.99,129.39 732.03,129.39 732.03,126.47 734.99,126.47 734.99,122.59 732.03,122.59 732.03,119.67 734.99,119.67 
								734.99,115.1 737.96,115.1 737.96,111.47 							"/>
						</g>
					</g>
					<g class="st19">
						<polygon class="st21" points="885.32,377.32 885.32,500 750,500 670.74,430.65 657.01,418.64 609.79,377.32 						"/>
						<g>
							<g>
								<polygon class="st22" points="885.32,306.97 885.32,384.85 817.25,384.85 627.89,306.97 								"/>
								<polygon class="st23" points="817.25,384.85 817.25,381.05 627.89,303.17 627.89,306.97 								"/>
								<polygon class="st24" points="885.32,303.17 885.32,381.05 817.25,381.05 627.89,303.17 								"/>
							</g>
							<g>
								<rect x="688.07" y="363.77" class="st25" width="3.38" height="16.65"/>
								<rect x="688.07" y="363.77" class="st26" width="3.38" height="5.84"/>
								<path class="st26" d="M718.44,395.29v-7.17l-1.31-1.59l-27.07-5.35l-0.05-0.11l-0.26,0.05l-0.26-0.05l-0.04,0.11
									l-27.07,5.35l-1.3,1.59v7.17c-1.61,0.64-2.75,2.21-2.75,4.05c0,2.41,1.95,4.37,4.37,4.37s4.37-1.96,4.37-4.37
									c0-1.84-1.14-3.41-2.75-4.05v-5.84l18.04-3.57l-8.59,5.55l-0.74,1.36v2.45c-1.69,0.6-2.9,2.2-2.9,4.1
									c0,2.41,1.96,4.37,4.37,4.37c2.41,0,4.37-1.96,4.37-4.37c0-1.78-1.07-3.3-2.59-3.98v-1.68l13.5-8.72l13.5,8.72v1.68
									c-1.53,0.68-2.59,2.21-2.59,3.98c0,2.41,1.96,4.37,4.37,4.37c2.41,0,4.37-1.96,4.37-4.37c0-1.9-1.21-3.49-2.9-4.1v-2.45
									l-0.74-1.36l-8.59-5.55l18.05,3.57v5.84c-1.61,0.64-2.75,2.21-2.75,4.05c0,2.41,1.96,4.37,4.37,4.37
									c2.41,0,4.37-1.96,4.37-4.37C721.19,397.5,720.05,395.94,718.44,395.29z"/>
								<path class="st26" d="M692.85,385.51v-5.61c0-1.71-1.38-3.09-3.09-3.09c-1.71,0-3.09,1.38-3.09,3.09v5.61H692.85z"/>
								<path class="st27" d="M660.58,291.49v30.44c0,14.14,51.19,14.14,51.19,0v-30.44c0-7.07-2.86-13.46-7.49-18.1
									c-4.64-4.63-11.04-7.5-18.1-7.5c-12.8,0-23.41,9.41-25.3,21.67C660.69,288.84,660.58,290.15,660.58,291.49z"/>
								
									<linearGradient id="SVGID_00000098916689782537404220000017116992996770137761_" gradientUnits="userSpaceOnUse" x1="779.1426" y1="310.0498" x2="830.335" y2="310.0498" gradientTransform="matrix(-1 0 0 1 1490.918 0)">
									<stop  offset="0" style="stop-color:#000000"/>
									<stop  offset="1" style="stop-color:#FFFFFF"/>
								</linearGradient>
								<path style="opacity:0.5;fill:url(#SVGID_00000098916689782537404220000017116992996770137761_);" d="M660.58,291.49v30.44
									c0,14.14,51.19,14.14,51.19,0v-18.71c-3.47-1.37-9.34-5.17-13.43-15.66h-37.46C660.69,288.84,660.58,290.15,660.58,291.49z"
									/>
								<path class="st29" d="M655.06,291.49v30.44c0,14.14,51.19,14.14,51.19,0v-30.44c0-7.07-2.86-13.46-7.49-18.1
									c-4.63-4.63-11.03-7.5-18.1-7.5c-7.27,0-13.83,3.03-18.49,7.91C657.76,278.39,655.06,284.62,655.06,291.49z"/>
								
									<linearGradient id="SVGID_00000000205104963298409030000003414436465622782140_" gradientUnits="userSpaceOnUse" x1="784.666" y1="303.1685" x2="835.8584" y2="303.1685" gradientTransform="matrix(-1 0 0 1 1490.918 0)">
									<stop  offset="0" style="stop-color:#000000"/>
									<stop  offset="1" style="stop-color:#FFFFFF"/>
								</linearGradient>
								<path style="opacity:0.3;fill:url(#SVGID_00000000205104963298409030000003414436465622782140_);" d="M655.06,291.49v30.44
									c0,14.14,51.19,14.14,51.19,0v-13.59c-12.47-2.7-33.65-10.73-44.09-34.54C657.76,278.39,655.06,284.62,655.06,291.49z"/>
								<path class="st27" d="M735.3,353.22c0,1.89-1.53,3.42-3.42,3.42h-44.36c-1.89,0-3.42-1.53-3.42-3.42v-5.39
									c0-1.89,1.53-3.42,3.42-3.42h44.36c1.89,0,3.42,1.53,3.42,3.42V353.22z"/>
								
									<linearGradient id="SVGID_00000138550693551929601250000013086216064646689461_" gradientUnits="userSpaceOnUse" x1="755.6133" y1="352.0566" x2="806.8125" y2="352.0566" gradientTransform="matrix(-1 0 0 1 1490.918 0)">
									<stop  offset="0" style="stop-color:#000000"/>
									<stop  offset="1" style="stop-color:#FFFFFF"/>
								</linearGradient>
								<path style="opacity:0.3;fill:url(#SVGID_00000138550693551929601250000013086216064646689461_);" d="M684.11,347.82v5.39
									c0,1.89,1.54,3.42,3.42,3.42h44.36c1.88,0,3.42-1.53,3.42-3.42v-5.39c0-0.12-0.01-0.23-0.02-0.35
									c-0.19,1.71-1.65,3.05-3.4,3.05h-44.36c-1.76,0-3.21-1.33-3.41-3.05C684.11,347.59,684.11,347.7,684.11,347.82z"/>
								<path class="st29" d="M706.26,353.22c0,1.89-1.53,3.42-3.42,3.42h-44.36c-1.89,0-3.42-1.53-3.42-3.42v-5.39
									c0-1.89,1.53-3.42,3.42-3.42h44.36c1.89,0,3.42,1.53,3.42,3.42V353.22z"/>
								
									<linearGradient id="SVGID_00000132774450767266312550000017024693621053818245_" gradientUnits="userSpaceOnUse" x1="784.666" y1="352.0566" x2="835.8584" y2="352.0566" gradientTransform="matrix(-1 0 0 1 1490.918 0)">
									<stop  offset="0" style="stop-color:#000000"/>
									<stop  offset="1" style="stop-color:#FFFFFF"/>
								</linearGradient>
								<path style="opacity:0.3;fill:url(#SVGID_00000132774450767266312550000017024693621053818245_);" d="M655.06,347.82v5.39
									c0,1.89,1.53,3.42,3.42,3.42h44.36c1.89,0,3.42-1.53,3.42-3.42v-5.39c0-0.12-0.01-0.23-0.02-0.35
									c-0.19,1.71-1.64,3.05-3.4,3.05h-44.36c-1.76,0-3.21-1.33-3.4-3.05C655.07,347.59,655.06,347.7,655.06,347.82z"/>
								<rect x="686.18" y="356.63" class="st25" width="35.12" height="4.06"/>
								<rect x="663.22" y="356.63" class="st26" width="35.12" height="4.06"/>
								<path class="st25" d="M683.54,360.68c0,1.71,1.38,3.09,3.09,3.09h23.43c1.71,0,3.09-1.38,3.09-3.09H683.54z"/>
								<path class="st26" d="M665.86,360.68c0,1.71,1.38,3.09,3.09,3.09h23.43c1.7,0,3.09-1.38,3.09-3.09H665.86z"/>
								<path class="st25" d="M685.73,356.49v-41.01c0-1.46-1.18-2.63-2.63-2.63h-2.49c-1.46,0-2.63,1.18-2.63,2.63v41.01H685.73z"
									/>
								<path class="st26" d="M683.6,356.49v-41.01c0-1.46-1.18-2.63-2.63-2.63h-2.49c-1.46,0-2.63,1.18-2.63,2.63v41.01H683.6z"/>
							</g>
							<g>
								<rect x="746.16" y="408.98" class="st25" width="3.38" height="16.65"/>
								<rect x="746.16" y="408.98" class="st26" width="3.38" height="5.84"/>
								<path class="st26" d="M776.53,440.5v-7.17l-1.31-1.59l-27.07-5.35l-0.05-0.11l-0.26,0.05l-0.26-0.05l-0.04,0.11l-27.07,5.35
									l-1.3,1.59v7.17c-1.61,0.64-2.75,2.21-2.75,4.05c0,2.41,1.95,4.37,4.37,4.37c2.41,0,4.37-1.96,4.37-4.37
									c0-1.84-1.14-3.41-2.75-4.05v-5.84l18.04-3.57l-8.59,5.55l-0.74,1.36v2.45c-1.69,0.6-2.9,2.2-2.9,4.1
									c0,2.41,1.96,4.37,4.37,4.37c2.41,0,4.37-1.96,4.37-4.37c0-1.78-1.07-3.3-2.59-3.98v-1.68l13.5-8.72l13.5,8.72v1.68
									c-1.53,0.68-2.59,2.21-2.59,3.98c0,2.41,1.96,4.37,4.37,4.37c2.41,0,4.37-1.96,4.37-4.37c0-1.9-1.21-3.49-2.9-4.1v-2.45
									l-0.74-1.36l-8.59-5.55l18.04,3.57v5.84c-1.61,0.64-2.75,2.21-2.75,4.05c0,2.41,1.96,4.37,4.37,4.37
									c2.41,0,4.37-1.96,4.37-4.37C779.27,442.71,778.13,441.14,776.53,440.5z"/>
								<path class="st26" d="M750.93,430.72v-5.61c0-1.71-1.38-3.09-3.09-3.09c-1.71,0-3.09,1.38-3.09,3.09v5.61H750.93z"/>
								<path class="st27" d="M718.67,336.7v30.44c0,14.14,51.19,14.14,51.19,0V336.7c0-7.07-2.86-13.46-7.49-18.1
									c-4.64-4.63-11.04-7.5-18.1-7.5c-12.8,0-23.41,9.41-25.3,21.67C718.77,334.05,718.67,335.36,718.67,336.7z"/>
								
									<linearGradient id="SVGID_00000026144499264254585410000000103208595157554322_" gradientUnits="userSpaceOnUse" x1="721.0557" y1="355.2588" x2="772.2481" y2="355.2588" gradientTransform="matrix(-1 0 0 1 1490.918 0)">
									<stop  offset="0" style="stop-color:#000000"/>
									<stop  offset="1" style="stop-color:#FFFFFF"/>
								</linearGradient>
								<path style="opacity:0.5;fill:url(#SVGID_00000026144499264254585410000000103208595157554322_);" d="M718.67,336.7v30.44
									c0,14.14,51.19,14.14,51.19,0v-18.71c-3.47-1.37-9.34-5.17-13.43-15.66h-37.46C718.77,334.05,718.67,335.36,718.67,336.7z"
									/>
								<path class="st29" d="M713.15,336.7v30.44c0,14.14,51.19,14.14,51.19,0V336.7c0-7.07-2.86-13.46-7.49-18.1
									c-4.63-4.63-11.03-7.5-18.1-7.5c-7.27,0-13.83,3.03-18.49,7.91C715.85,323.6,713.15,329.83,713.15,336.7z"/>
								
									<linearGradient id="SVGID_00000033344267245662683200000010522406097346737838_" gradientUnits="userSpaceOnUse" x1="726.5791" y1="348.3775" x2="777.7715" y2="348.3775" gradientTransform="matrix(-1 0 0 1 1490.918 0)">
									<stop  offset="0" style="stop-color:#000000"/>
									<stop  offset="1" style="stop-color:#FFFFFF"/>
								</linearGradient>
								<path style="opacity:0.3;fill:url(#SVGID_00000033344267245662683200000010522406097346737838_);" d="M713.15,336.7v30.44
									c0,14.14,51.19,14.14,51.19,0v-13.59c-12.47-2.7-33.65-10.73-44.09-34.54C715.85,323.6,713.15,329.83,713.15,336.7z"/>
								<path class="st27" d="M793.39,398.43c0,1.89-1.53,3.42-3.42,3.42h-44.36c-1.89,0-3.42-1.53-3.42-3.42v-5.39
									c0-1.89,1.53-3.42,3.42-3.42h44.36c1.89,0,3.42,1.53,3.42,3.42V398.43z"/>
								
									<linearGradient id="SVGID_00000116204285824575648570000005952748045987601291_" gradientUnits="userSpaceOnUse" x1="697.5264" y1="397.2657" x2="748.7256" y2="397.2657" gradientTransform="matrix(-1 0 0 1 1490.918 0)">
									<stop  offset="0" style="stop-color:#000000"/>
									<stop  offset="1" style="stop-color:#FFFFFF"/>
								</linearGradient>
								<path style="opacity:0.3;fill:url(#SVGID_00000116204285824575648570000005952748045987601291_);" d="M742.19,393.03v5.39
									c0,1.89,1.54,3.42,3.42,3.42h44.36c1.88,0,3.42-1.53,3.42-3.42v-5.39c0-0.12-0.01-0.23-0.02-0.35
									c-0.19,1.71-1.65,3.05-3.4,3.05h-44.36c-1.76,0-3.21-1.33-3.41-3.05C742.2,392.8,742.19,392.91,742.19,393.03z"/>
								<path class="st29" d="M764.34,398.43c0,1.89-1.53,3.42-3.42,3.42h-44.36c-1.89,0-3.42-1.53-3.42-3.42v-5.39
									c0-1.89,1.53-3.42,3.42-3.42h44.36c1.89,0,3.42,1.53,3.42,3.42V398.43z"/>
								
									<linearGradient id="SVGID_00000157997429726072974970000013908128309534747037_" gradientUnits="userSpaceOnUse" x1="726.5791" y1="397.2657" x2="777.7715" y2="397.2657" gradientTransform="matrix(-1 0 0 1 1490.918 0)">
									<stop  offset="0" style="stop-color:#000000"/>
									<stop  offset="1" style="stop-color:#FFFFFF"/>
								</linearGradient>
								<path style="opacity:0.3;fill:url(#SVGID_00000157997429726072974970000013908128309534747037_);" d="M713.15,393.03v5.39
									c0,1.89,1.53,3.42,3.42,3.42h44.36c1.89,0,3.42-1.53,3.42-3.42v-5.39c0-0.12-0.01-0.23-0.02-0.35
									c-0.19,1.71-1.64,3.05-3.4,3.05h-44.36c-1.76,0-3.21-1.33-3.4-3.05C713.16,392.8,713.15,392.91,713.15,393.03z"/>
								<rect x="744.27" y="401.84" class="st25" width="35.12" height="4.06"/>
								<rect x="721.31" y="401.84" class="st26" width="35.12" height="4.06"/>
								<path class="st25" d="M741.63,405.89c0,1.71,1.38,3.09,3.09,3.09h23.43c1.71,0,3.09-1.38,3.09-3.09H741.63z"/>
								<path class="st26" d="M723.94,405.89c0,1.71,1.38,3.09,3.09,3.09h23.43c1.71,0,3.09-1.38,3.09-3.09H723.94z"/>
								<path class="st25" d="M743.81,401.7v-41.01c0-1.45-1.18-2.63-2.63-2.63h-2.49c-1.46,0-2.63,1.18-2.63,2.63v41.01H743.81z"/>
								<path class="st26" d="M741.69,401.7v-41.01c0-1.45-1.18-2.63-2.63-2.63h-2.49c-1.46,0-2.63,1.18-2.63,2.63v41.01H741.69z"/>
							</g>
						</g>
					</g>
					<g>
						
							<linearGradient id="SVGID_00000064346414132270170800000006632166731254675333_" gradientUnits="userSpaceOnUse" x1="669.6657" y1="53.0321" x2="623.4024" y2="27.4794">
							<stop  offset="0" style="stop-color:#FFFFFF"/>
							<stop  offset="1" style="stop-color:#FFFFFF;stop-opacity:0"/>
						</linearGradient>
						<polygon style="opacity:0.5;fill:url(#SVGID_00000064346414132270170800000006632166731254675333_);" points="698.96,0 
							609.79,89.17 609.79,52.13 661.92,0 						"/>
						
							<linearGradient id="SVGID_00000005234453822404884130000010387934407403690421_" gradientUnits="userSpaceOnUse" x1="718.0685" y1="198.1649" x2="641.7156" y2="64.7853">
							<stop  offset="0" style="stop-color:#FFFFFF"/>
							<stop  offset="1" style="stop-color:#FFFFFF;stop-opacity:0"/>
						</linearGradient>
						<polygon style="opacity:0.5;fill:url(#SVGID_00000005234453822404884130000010387934407403690421_);" points="750,2.8 
							750,119.94 609.79,260.15 609.79,143.01 						"/>
						
							<linearGradient id="SVGID_00000112622651906164635970000002765075215881648521_" gradientUnits="userSpaceOnUse" x1="750.9017" y1="499.6615" x2="707.3073" y2="383.1769">
							<stop  offset="0" style="stop-color:#FFFFFF"/>
							<stop  offset="1" style="stop-color:#FFFFFF;stop-opacity:0"/>
						</linearGradient>
						<polygon style="opacity:0.5;fill:url(#SVGID_00000112622651906164635970000002765075215881648521_);" points="750,367.2 
							750,500 679.17,438.03 						"/>
						
							<linearGradient id="SVGID_00000023982711873677023980000012940013290916131519_" gradientUnits="userSpaceOnUse" x1="711.7777" y1="277.8566" x2="648.0065" y2="242.6337">
							<stop  offset="0" style="stop-color:#FFFFFF"/>
							<stop  offset="1" style="stop-color:#FFFFFF;stop-opacity:0"/>
						</linearGradient>
						<polygon style="opacity:0.5;fill:url(#SVGID_00000023982711873677023980000012940013290916131519_);" points="750,171.62 
							750,208.66 609.79,348.87 609.79,311.83 						"/>
						
							<linearGradient id="SVGID_00000129174962694902373930000012285418383612719498_" gradientUnits="userSpaceOnUse" x1="720.6995" y1="341.0834" x2="659.4702" y2="307.2645">
							<stop  offset="0" style="stop-color:#FFFFFF"/>
							<stop  offset="1" style="stop-color:#FFFFFF;stop-opacity:0"/>
						</linearGradient>
						<polygon style="opacity:0.5;fill:url(#SVGID_00000129174962694902373930000012285418383612719498_);" points="750,251 
							750,288.04 636.95,401.09 633.01,397.64 617.2,383.8 						"/>
					</g>
					<g>
						<g class="st42">
							<polygon class="st3" points="750,114.94 750,132.66 668.74,105.74 668.74,427 655.01,414.99 655.01,83.36 							"/>
						</g>
						<g>
							<g>
								<polygon class="st13" points="750,113.65 750,123.51 661.01,93.3 661.01,422.14 653.01,415.85 653.01,80.73 								"/>
							</g>
						</g>
					</g>
				</g>
			</g>
			
				<linearGradient id="SVGID_00000087391640808643740130000003067058982193836422_" gradientUnits="userSpaceOnUse" x1="679.8921" y1="172.6904" x2="679.8921" y2="-9.094947e-13">
				<stop  offset="0" style="stop-color:#FFFFFF"/>
				<stop  offset="0.1695" style="stop-color:#FAFDFD"/>
				<stop  offset="0.3692" style="stop-color:#ECF8F9"/>
				<stop  offset="0.5842" style="stop-color:#D4F0F2"/>
				<stop  offset="0.8083" style="stop-color:#B3E5E8"/>
				<stop  offset="1" style="stop-color:#91D9DD"/>
			</linearGradient>
			<polygon style="fill:url(#SVGID_00000087391640808643740130000003067058982193836422_);" points="750,0 750,78.7 609.79,172.69 
				609.79,0 			"/>
		</g>
	</g>
</g>
<g id="OBJECTS">
	
		<linearGradient id="SVGID_00000085249399178432331390000014959393969144648612_" gradientUnits="userSpaceOnUse" x1="339.0851" y1="191.1846" x2="339.8482" y2="191.1846">
		<stop  offset="0" style="stop-color:#000000"/>
		<stop  offset="0.0874" style="stop-color:#070707"/>
		<stop  offset="0.2167" style="stop-color:#1B1B1B"/>
		<stop  offset="0.3719" style="stop-color:#3C3C3C"/>
		<stop  offset="0.5474" style="stop-color:#6A6A6A"/>
		<stop  offset="0.7399" style="stop-color:#A4A4A4"/>
		<stop  offset="0.9436" style="stop-color:#EAEAEA"/>
		<stop  offset="1" style="stop-color:#FFFFFF"/>
	</linearGradient>
	<path style="opacity:0.3;fill:url(#SVGID_00000085249399178432331390000014959393969144648612_);" d="M339.23,190.81
		c0.21,0.22,0.42,0.44,0.62,0.66l-0.17,0.09C339.09,191.3,338.94,191.05,339.23,190.81z"/>
	<g>
		<g>
			
				<linearGradient id="SVGID_00000165938550503726925770000007497730024331275194_" gradientUnits="userSpaceOnUse" x1="56.8345" y1="398.8818" x2="329.6016" y2="398.8818">
				<stop  offset="0" style="stop-color:#000000"/>
				<stop  offset="1" style="stop-color:#FFFFFF"/>
			</linearGradient>
			<polygon style="opacity:0.3;fill:url(#SVGID_00000165938550503726925770000007497730024331275194_);" points="329.6,408.88 
				56.83,408.88 73.06,388.88 315.11,388.88 			"/>
			<g>
				<g>
					<polygon class="st46" points="113.94,312.23 272.99,352.64 272.5,353.6 113.45,313.2 					"/>
					<polygon class="st46" points="272.5,312.23 113.45,352.64 113.94,353.6 272.99,313.2 					"/>
				</g>
				<rect x="115.14" y="308.99" class="st46" width="157.13" height="9.1"/>
				<rect x="56.83" y="302.41" class="st47" width="272.77" height="7.64"/>
				<rect x="56.83" y="302.41" class="st46" width="19.22" height="7.64"/>
				<g>
					<g>
						<g>
							<rect x="272.26" y="310.05" class="st48" width="42.85" height="94.32"/>
							<rect x="266.27" y="310.05" class="st49" width="5.99" height="94.33"/>
							<rect x="266.27" y="310.05" class="st50" width="5.99" height="12.76"/>
							<g>
								<rect x="277.24" y="314.34" class="st51" width="32.89" height="16.96"/>
								<rect x="279.55" y="318.1" class="st52" width="28.28" height="3.15"/>
							</g>
							<g>
								<rect x="277.24" y="337.71" class="st51" width="32.89" height="16.96"/>
								<rect x="279.55" y="341.47" class="st52" width="28.28" height="3.15"/>
							</g>
							<g>
								<rect x="277.24" y="361.09" class="st51" width="32.89" height="16.96"/>
								<rect x="279.55" y="364.85" class="st52" width="28.28" height="3.15"/>
							</g>
							<g>
								<rect x="277.24" y="384.47" class="st51" width="32.89" height="16.96"/>
								<rect x="279.55" y="388.23" class="st52" width="28.28" height="3.14"/>
							</g>
						</g>
						<polygon class="st53" points="272.26,310.09 315.11,310.09 315.11,350.89 272.26,322.86 						"/>
					</g>
					<g>
						<g>
							<rect x="79.05" y="310.05" class="st48" width="42.85" height="94.32"/>
							<rect x="73.06" y="310.05" class="st49" width="6" height="94.33"/>
							<rect x="73.06" y="310.05" class="st50" width="6" height="12.76"/>
							<g>
								<rect x="84.03" y="314.34" class="st51" width="32.89" height="16.96"/>
								<rect x="86.34" y="318.1" class="st52" width="28.28" height="3.15"/>
							</g>
							<g>
								<rect x="84.03" y="337.71" class="st51" width="32.89" height="16.96"/>
								<rect x="86.34" y="341.47" class="st52" width="28.28" height="3.15"/>
							</g>
							<g>
								<rect x="84.03" y="361.09" class="st51" width="32.89" height="16.96"/>
								<rect x="86.34" y="364.85" class="st52" width="28.28" height="3.15"/>
							</g>
							<g>
								<rect x="84.03" y="384.47" class="st51" width="32.89" height="16.96"/>
								<rect x="86.34" y="388.23" class="st52" width="28.28" height="3.14"/>
							</g>
						</g>
						<polygon class="st53" points="79.05,310.09 121.9,310.09 121.9,350.89 79.05,322.86 						"/>
					</g>
				</g>
				<g>
					<rect x="87.28" y="299.17" class="st54" width="48.58" height="3.24"/>
					<rect x="101.04" y="287.65" class="st54" width="27.59" height="11.52"/>
					<rect x="101.04" y="287.65" class="st50" width="27.59" height="7.04"/>
					<rect x="102.9" y="287.65" class="st55" width="27.59" height="11.52"/>
					<rect x="92.49" y="299.17" class="st56" width="48.58" height="3.24"/>
					<g>
						<path class="st54" d="M69.38,283.04c0,4.78,3.87,8.65,8.65,8.65h71.54c4.77,0,8.64-3.87,8.64-8.65v-44.91
							c0-4.77-3.87-8.65-8.64-8.65H78.03c-4.77,0-8.65,3.87-8.65,8.65V283.04z"/>
						<path class="st57" d="M78.03,229.48h71.54c4.77,0,8.64,3.87,8.64,8.65v44.91H69.38v-44.91
							C69.38,233.35,73.25,229.48,78.03,229.48z"/>
					</g>
					<polygon class="st50" points="130.49,291.68 130.49,299.17 102.9,294.76 102.9,291.68 					"/>
				</g>
				<path class="st56" d="M72.28,283.04c0,4.78,3.87,8.65,8.65,8.65h71.54c4.77,0,8.65-3.87,8.65-8.65v-44.91
					c0-4.77-3.87-8.65-8.65-8.65H80.92c-4.77,0-8.65,3.87-8.65,8.65V283.04z"/>
				<path class="st58" d="M161.11,238.13v44.91H72.28v-44.91c0-4.77,3.86-8.65,8.65-8.65h71.53
					C157.24,229.48,161.11,233.35,161.11,238.13z"/>
				<path class="st59" d="M115.14,286.13c0,0.9,0.73,1.62,1.62,1.62c0.89,0,1.62-0.73,1.62-1.62c0-0.9-0.73-1.62-1.62-1.62
					C115.86,284.51,115.14,285.23,115.14,286.13z"/>
				<g class="st60">
					
						<linearGradient id="SVGID_00000101793708615103279270000002488694412483994516_" gradientUnits="userSpaceOnUse" x1="129.3003" y1="245.3813" x2="161.1084" y2="245.3813">
						<stop  offset="0" style="stop-color:#FFFFFF"/>
						<stop  offset="1" style="stop-color:#FFFFFF;stop-opacity:0"/>
					</linearGradient>
					<polygon style="fill:url(#SVGID_00000101793708615103279270000002488694412483994516_);" points="161.11,261.29 129.3,229.48 
						136.39,229.48 161.11,254.2 					"/>
					
						<linearGradient id="SVGID_00000072251998147800184460000005983033994070197433_" gradientUnits="userSpaceOnUse" x1="92.1621" y1="256.2573" x2="161.1084" y2="256.2573">
						<stop  offset="0" style="stop-color:#FFFFFF"/>
						<stop  offset="1" style="stop-color:#FFFFFF;stop-opacity:0"/>
					</linearGradient>
					<polygon style="fill:url(#SVGID_00000072251998147800184460000005983033994070197433_);" points="120.26,229.48 161.11,270.33 
						161.11,283.04 145.72,283.04 92.16,229.48 					"/>
					
						<linearGradient id="SVGID_00000108999142526617168430000000661118992167403177_" gradientUnits="userSpaceOnUse" x1="72.2788" y1="258.4179" x2="122.6841" y2="258.4179">
						<stop  offset="0" style="stop-color:#FFFFFF"/>
						<stop  offset="1" style="stop-color:#FFFFFF;stop-opacity:0"/>
					</linearGradient>
					<path style="fill:url(#SVGID_00000108999142526617168430000000661118992167403177_);" d="M72.28,248.05v-9.93
						c0-1.58,0.43-3.05,1.17-4.32l49.24,49.24h-15.42L72.28,248.05z"/>
					
						<linearGradient id="SVGID_00000136383635414611896470000000937005041740128911_" gradientUnits="userSpaceOnUse" x1="72.2788" y1="268.2773" x2="101.7984" y2="268.2773">
						<stop  offset="0" style="stop-color:#FFFFFF"/>
						<stop  offset="1" style="stop-color:#FFFFFF;stop-opacity:0"/>
					</linearGradient>
					<polygon style="fill:url(#SVGID_00000136383635414611896470000000937005041740128911_);" points="72.28,268.94 72.28,253.52 
						101.8,283.04 86.38,283.04 					"/>
					
						<linearGradient id="SVGID_00000024718558572332998780000016397249210901933723_" gradientUnits="userSpaceOnUse" x1="77.4033" y1="256.2573" x2="137.2954" y2="256.2573">
						<stop  offset="0" style="stop-color:#FFFFFF"/>
						<stop  offset="1" style="stop-color:#FFFFFF;stop-opacity:0"/>
					</linearGradient>
					<path style="fill:url(#SVGID_00000024718558572332998780000016397249210901933723_);" d="M77.4,230.23
						c1.08-0.48,2.27-0.75,3.52-0.75h2.81l53.56,53.56h-7.09L77.4,230.23z"/>
				</g>
				<path class="st66" d="M80.92,231.28h71.54c3.78,0,6.85,3.07,6.85,6.85v43.12H74.08v-43.12
					C74.08,234.35,77.15,231.28,80.92,231.28 M80.92,229.48c-4.77,0-8.65,3.87-8.65,8.65v44.91h88.83v-44.91
					c0-4.77-3.87-8.65-8.65-8.65H80.92L80.92,229.48z"/>
				<rect x="56.83" y="305.99" class="st67" width="272.77" height="4.32"/>
				<rect x="56.83" y="305.99" class="st49" width="19.22" height="4.32"/>
			</g>
		</g>
		<g>
			<g>
				<g>
					<path class="st68" d="M308.56,297.19l-4.86-2.22l15.8-30.29L292.6,251l2.58-4.45l31.46,15.99L308.56,297.19L308.56,297.19z
						 M323.79,263.4l-27.74-14.1l-0.52,0.89l26.82,13.64l-15.76,30.21l0.97,0.45L323.79,263.4L323.79,263.4z"/>
				</g>
			</g>
			<path class="st69" d="M306.61,294.16c5.02,0,9.09,3.81,9.09,8.51h-18.17C297.52,297.97,301.59,294.16,306.61,294.16z"/>
			<path class="st46" d="M304.15,294.48c0.78-0.21,1.61-0.32,2.46-0.32c5.02,0,9.09,3.81,9.09,8.51h-4.92
				C310.78,298.77,307.97,295.49,304.15,294.48z"/>
			<path class="st69" d="M316.84,264.09c0,3.06,2.65,5.54,5.91,5.54c3.27,0,5.91-2.48,5.91-5.54c0-3.06-2.65-5.54-5.91-5.54
				C319.49,258.55,316.84,261.03,316.84,264.09z"/>
			<path class="st68" d="M320.47,264.09c0,1.18,1.03,2.14,2.29,2.14c1.26,0,2.29-0.96,2.29-2.14c0-1.19-1.02-2.14-2.29-2.14
				C321.49,261.94,320.47,262.9,320.47,264.09z"/>
			<g>
				<path class="st68" d="M294.85,250.88c0.39,0,0.79-0.13,1.1-0.4l6.43-5.57c0.66-0.57,0.7-1.53,0.09-2.15
					c-0.61-0.62-1.63-0.66-2.29-0.09l-6.43,5.57c-0.66,0.57-0.7,1.53-0.09,2.15C293.98,250.72,294.41,250.88,294.85,250.88
					L294.85,250.88z"/>
			</g>
			<path class="st69" d="M288.28,248.48l2.64-2.29c2.15-1.86,5.51-1.74,7.5,0.28c1.99,2.02,1.86,5.17-0.3,7.03l-2.64,2.29
				l-4.97,13.16l-16.63-16.88L288.28,248.48z"/>
			<path class="st70" d="M299.82,250.2c-0.21-0.36-0.47-0.71-0.78-1.02c-1.99-2.02-5.34-2.15-7.5-0.28l-2.64,2.28l-12.75,3.19
				l-2.26-2.3l14.39-3.59l2.64-2.29c2.16-1.86,5.52-1.74,7.51,0.28C299.47,247.52,299.93,248.88,299.82,250.2z"/>
			<polygon class="st68" points="288.28,248.48 289.32,247.58 296.31,255.08 295.48,255.79 295.08,256.84 287.48,248.68 			"/>
		</g>
	</g>
	<g>
		
			<linearGradient id="SVGID_00000080896775464131766720000007428521672465449607_" gradientUnits="userSpaceOnUse" x1="357.4986" y1="393.6958" x2="450.9331" y2="393.6958">
			<stop  offset="0" style="stop-color:#000000"/>
			<stop  offset="1" style="stop-color:#FFFFFF"/>
		</linearGradient>
		<path style="opacity:0.3;fill:url(#SVGID_00000080896775464131766720000007428521672465449607_);" d="M450.93,393.7
			c0,3.48-20.92,6.3-46.72,6.3c-25.8,0-46.72-2.82-46.72-6.3c0-3.48,20.92-6.3,46.72-6.3C430.02,387.39,450.93,390.22,450.93,393.7z
			"/>
		<g>
			<g>
				<g>
					<path class="st72" d="M423.26,348.22l-1.25-0.68c2.12-6.78,4.56-14,8.04-20.88c1.71-3.38,3.84-6.15,5.9-8.83
						c0.46-0.6,0.92-1.2,1.38-1.81c0.74-0.98,1.68-1.73,2.59-2.45c1.01-0.8,1.96-1.56,2.53-2.54l1.07,1.09
						c-0.73,1.25-1.83,2.13-2.91,2.98c-0.84,0.67-1.7,1.35-2.32,2.17c-0.46,0.61-0.93,1.22-1.39,1.82
						c-2.11,2.74-4.09,5.33-5.72,8.55C427.76,334.4,425.36,341.53,423.26,348.22z"/>
				</g>
				<g>
					<path class="st72" d="M416.07,348.56l-1.35-0.07c0.07-2.6,1.22-5.57,2.23-8.19c0.27-0.69,0.52-1.34,0.73-1.94
						c2.4-6.79,6.32-12.54,10.46-18.32c1.21-1.69,2.38-3.45,3.52-5.15c3.1-4.64,6.3-9.43,10.39-13.05c3.78-3.35,9.1-4.88,12.9-5.57
						c1.14-0.21,2.35-0.14,3.52-0.07c0.55,0.03,1.1,0.06,1.63,0.06c1.04,0,2.04,0.25,3.01,0.49c0.92,0.23,1.82,0.43,2.63,0.43
						l0.02,1.79c-0.96,0.01-1.95-0.22-2.89-0.46c-0.91-0.22-1.85-0.45-2.76-0.45c-0.55,0-1.11-0.03-1.68-0.06
						c-1.11-0.06-2.26-0.13-3.28,0.06c-3.66,0.67-8.77,2.13-12.34,5.29c-3.94,3.49-6.94,7.99-10.13,12.75
						c-1.15,1.71-2.33,3.49-3.55,5.2c-4.06,5.67-7.9,11.3-10.22,17.84c-0.22,0.61-0.48,1.28-0.75,1.99
						C417.25,343.44,416.13,346.35,416.07,348.56z"/>
				</g>
				<g>
					<path class="st72" d="M412.24,349.07l-1.28-0.57c0.81-3.18,0.9-7.21,0.98-11.1c0.04-1.81,0.08-3.53,0.18-5.14l0.12-1.79
						c0.39-5.71,0.79-11.62,0.57-17.26c-0.32-8.37-1-16.26-1.73-24.62c-0.29-3.33-0.58-6.68-0.85-10.06
						c-0.5-6.4-1.22-12.03-2.19-17.23c-0.14-0.76-0.27-2.43-0.42-4.55c-0.24-3.18-0.73-9.79-1.37-10.61l0.61-1.58
						c1.08,0.65,1.51,4.08,2.1,12.01c0.14,1.88,0.27,3.66,0.39,4.29c0.99,5.28,1.71,10.99,2.22,17.47
						c0.27,3.38,0.56,6.72,0.84,10.04c0.7,8.02,1.42,16.32,1.74,24.74c0.22,5.77-0.19,11.74-0.58,17.51l-0.12,1.78
						c-0.1,1.57-0.14,3.25-0.18,5.04C413.21,341.48,413.12,345.64,412.24,349.07z"/>
				</g>
				<g>
					<path class="st72" d="M414.56,350.31c-0.45-3.33-0.41-6.83-0.38-10.21c0.01-0.92,0.02-1.83,0.02-2.73
						c0-14.39,1.01-28.74,2.91-41.5c1.37-9.18,2.86-18.12,5.95-26.47l1.21,0.79c-3.02,8.16-4.49,16.97-5.84,26.03
						c-1.89,12.65-2.88,26.88-2.88,41.15c0,0.91-0.01,1.83-0.02,2.76c-0.04,3.3-0.07,6.7,0.35,9.87L414.56,350.31z"/>
				</g>
				<g>
					<path class="st72" d="M420.93,348.4c-0.32-5.7,1.26-12.21,2.64-17.95c0.45-1.84,0.87-3.58,1.21-5.24
						c2.98-14.16,9.93-25.93,17-36.55c7.66-11.5,14.62-17.51,21.3-18.38l0.13,1.78c-6.32,0.82-13,6.63-20.42,17.78
						c-6.96,10.46-13.81,22.04-16.71,35.85c-0.36,1.69-0.78,3.44-1.23,5.3c-1.35,5.59-2.88,11.93-2.58,17.28L420.93,348.4z"/>
				</g>
				<g>
					<path class="st72" d="M425.49,351.5c-0.67-1.65-0.39-4.92,0.03-8.7c0.09-0.8,0.17-1.51,0.2-2.03
						c0.32-4.49,0.86-8.16,1.66-11.22c1.41-5.41,3.02-9.6,5.05-13.2c0.73-1.3,1.6-2.43,2.44-3.52c0.52-0.67,1.05-1.36,1.54-2.08
						c0.24-0.35,0.46-0.75,0.69-1.17c0.49-0.88,0.99-1.8,1.73-2.41l0.71,1.52c-0.52,0.43-0.93,1.16-1.35,1.95
						c-0.24,0.44-0.5,0.9-0.78,1.32c-0.51,0.75-1.06,1.47-1.59,2.16c-0.84,1.09-1.63,2.12-2.31,3.31
						c-1.95,3.45-3.49,7.49-4.85,12.72c-0.76,2.92-1.29,6.45-1.59,10.8c-0.04,0.55-0.12,1.29-0.21,2.12
						c-0.26,2.37-0.69,6.33-0.17,7.59L425.49,351.5z"/>
				</g>
				<g>
					<path class="st72" d="M418.97,344.94l-1.29-0.52c0.57-2.47,0.59-5.6,0.61-8.64c0.01-1.18,0.02-2.33,0.05-3.41
						c0.19-5.17,0.79-10.46,1.74-15.28c1.04-5.27,1.92-10.7,2.78-15.95c1.24-7.63,2.53-15.52,4.31-23.09
						c2.59-10.99,6-22.29,10.72-35.57c3-8.44,6.31-15.09,10.12-20.32l0.97,1.24c-3.71,5.09-6.94,11.59-9.88,19.85
						c-4.7,13.2-8.08,24.43-10.65,35.34c-1.77,7.5-3.04,15.35-4.28,22.94c-0.86,5.27-1.75,10.72-2.79,16.02
						c-0.93,4.71-1.52,9.87-1.7,14.92c-0.04,1.06-0.05,2.18-0.05,3.33C419.62,338.96,419.6,342.23,418.97,344.94z"/>
				</g>
				<g>
					<path class="st72" d="M406.12,352.61l-1.23-2.01c-1.01-1.65-0.9-2.76-0.62-3.41c0.1-0.23,0.23-0.43,0.39-0.6
						c-0.17-5.4-0.59-10.65-1.27-15.92c-0.37-2.86-0.69-5.79-1-8.62c-1.12-10.16-2.28-20.66-5.73-30.05
						c-2.33-6.36-5.27-12.36-8.11-18.17c-2.53-5.17-5.14-10.51-7.33-16.09l1.2-0.82c2.16,5.51,4.76,10.82,7.27,15.94
						c2.86,5.85,5.83,11.91,8.2,18.36c3.54,9.64,4.71,20.28,5.85,30.57c0.31,2.82,0.63,5.75,1,8.58c0.66,5.16,1.08,10.29,1.27,15.56
						c0.36-0.06,0.77-0.06,1.21-0.01c-0.12-2.04-0.03-4.59,0.12-7.45c0.08-1.57,0.14-2.92,0.11-3.75c-0.09-2.49,0.03-4.97,0.15-7.38
						c0.14-2.73,0.28-5.56,0.09-8.34c-0.48-7.1-2.14-13.41-3.85-19.17c-1.42-4.78-2.46-9.73-3.46-14.52
						c-0.91-4.34-1.85-8.83-3.06-13.09c-1.27-4.47-3.1-8.23-5.04-12.21l-0.64-1.31c-0.29-0.59-0.67-1.56-1.12-2.67
						c-0.79-1.98-2.88-7.22-3.71-7.32l-0.09-1.78c1.48-0.16,3.02,3.33,4.99,8.27c0.43,1.08,0.81,2.02,1.06,2.55l0.64,1.31
						c1.98,4.06,3.85,7.9,5.17,12.55c1.23,4.34,2.18,8.86,3.09,13.25c0.99,4.75,2.02,9.66,3.41,14.35
						c1.75,5.89,3.44,12.34,3.94,19.67c0.2,2.92,0.05,5.82-0.09,8.62c-0.12,2.35-0.24,4.79-0.15,7.17c0.04,0.94-0.03,2.34-0.11,3.96
						c-0.11,2.23-0.27,5.45-0.07,7.76c0.99,0.56,1.47,1.54,1.58,2.41c0.11,0.8-0.11,1.52-0.55,1.83c-0.16,0.11-0.71,0.4-1.33-0.39
						c-0.43-0.56-0.72-1.39-0.9-2.45c-0.02,0-0.03-0.01-0.05-0.01c-0.54-0.1-0.98-0.08-1.3-0.01c0.02,0.76,0.03,1.53,0.04,2.3
						L406.12,352.61z"/>
				</g>
				<g>
					<path class="st73" d="M424.47,232.1c-0.88-7.94-4.74-15-8.1-21.42c-1.03-1.97-2.82-4.86-3.86-7.59
						c-1.68,3.84-5.2,8.26-6.91,10.79c-3.81,5.63-6.85,11.87-8.84,18.96c-1.49,5.3-2.85,10.49-2.86,16.15
						c-0.01,5.27-0.15,13.04,1.62,17.79c1.79,4.79,5.83,6.41,9.39,5.42c3.22-0.89,4.84-2.82,6.28-5.8
						c2.75,4.66,8.68,2.32,11.42-3.15c1.84-3.67,2.51-7.84,2.52-12.17C425.14,244.98,425.14,238.15,424.47,232.1z"/>
				</g>
				<g class="st74">
					
						<linearGradient id="SVGID_00000155130820974936438640000005878863239044808093_" gradientUnits="userSpaceOnUse" x1="409.5178" y1="272.472" x2="409.5178" y2="203.084">
						<stop  offset="0" style="stop-color:#000000"/>
						<stop  offset="1" style="stop-color:#FFFFFF"/>
					</linearGradient>
					<path style="fill:url(#SVGID_00000155130820974936438640000005878863239044808093_);" d="M424.47,232.1
						c-0.88-7.94-4.74-15-8.1-21.42c-1.03-1.97-2.82-4.86-3.86-7.59c-1.68,3.84-5.2,8.26-6.91,10.79
						c-3.81,5.63-6.85,11.87-8.84,18.96c-1.49,5.3-2.85,10.49-2.86,16.15c-0.01,5.27-0.15,13.04,1.62,17.79
						c1.79,4.79,5.83,6.41,9.39,5.42c3.22-0.89,4.84-2.82,6.28-5.8c2.75,4.66,8.68,2.32,11.42-3.15c1.84-3.67,2.51-7.84,2.52-12.17
						C425.14,244.98,425.14,238.15,424.47,232.1z"/>
				</g>
				<g>
					<path class="st72" d="M410.38,350.16h-1.35c0-7.69,0-16.4,1.21-24.43c0.3-1.95,0.66-3.92,1.02-5.81
						c0.46-2.48,0.94-5.04,1.27-7.62c0.59-4.64,0.86-9.39,1.12-13.98c0.12-2.09,0.24-4.18,0.38-6.27
						c0.49-6.87,0.43-14.08,0.37-21.05c-0.02-2.26-0.04-4.5-0.04-6.72c0-2.96,0.04-5.97,0.09-8.88c0.04-2.98,0.09-6.07,0.09-9.11
						c-0.01-8.51,0.54-17.91,1.73-29.57l1.34,0.24c-1.18,11.58-1.72,20.89-1.72,29.32c0,3.06-0.04,6.16-0.09,9.15
						c-0.04,2.9-0.09,5.9-0.09,8.84c0,2.22,0.02,4.46,0.04,6.7c0.06,7.02,0.11,14.27-0.38,21.24c-0.15,2.08-0.26,4.16-0.38,6.24
						c-0.26,4.63-0.53,9.42-1.14,14.14c-0.34,2.65-0.82,5.24-1.29,7.75c-0.35,1.88-0.71,3.82-1,5.74
						C410.38,333.93,410.38,342.55,410.38,350.16z"/>
				</g>
				<g>
					<path class="st76" d="M389.23,222.21c-2.69-8.91-11.52-5.91-16.9-4.09c-4.59,1.55-9.03,3-13.88,2.6
						c-4.83-0.39-9.18-4.1-13.81-5.57c-6.64-2.11-11.47,2.75-17.54,5.35c-2.71,1.16-5.43,3.13-8.28,3.41
						c1.67,1.78,3.42,4.41,3.79,5.21c1.08,2.32,0.97,4.71,2.53,6.8c1.25,1.66,3.02,3.03,4.44,4.22c7.09,5.93,15.62,1.43,23.64,1.42
						c5.72-0.01,11.72,2.92,17.36,1.43c3.06-0.81,12.68-4.84,13.23-10.93C387.46,231.18,390.81,227.42,389.23,222.21z"/>
				</g>
				<g class="st74">
					
						<linearGradient id="SVGID_00000123426729643472867860000010907800521840831886_" gradientUnits="userSpaceOnUse" x1="318.8277" y1="229.0114" x2="389.6315" y2="229.0114">
						<stop  offset="0" style="stop-color:#FFFFFF"/>
						<stop  offset="1" style="stop-color:#000000"/>
					</linearGradient>
					<path style="fill:url(#SVGID_00000123426729643472867860000010907800521840831886_);" d="M388.36,228.93
						c-1.1,1.6-2.79,2.7-4.54,3.11c-0.01,0.14-0.03,0.28-0.06,0.42c-0.94,5.86-10.18,9.72-13.17,10.51
						c-2.45,0.65-4.97,0.46-7.5,0.04c-3.3-0.54-6.62-1.47-9.85-1.46c-8.02,0.01-16.56,4.51-23.64-1.42c-1.42-1.2-3.2-2.55-4.44-4.22
						c-1.56-2.09-1.45-4.47-2.53-6.8c-0.37-0.8-2.11-3.42-3.79-5.2c0.33-0.04,0.67-0.09,1.01-0.17c2.49-0.57,4.88-2.21,7.27-3.24
						c6.07-2.6,10.89-7.46,17.54-5.35c4.63,1.47,8.98,5.18,13.81,5.57c0.69,0.05,1.38,0.07,2.06,0.05c4.04-0.08,7.83-1.3,11.73-2.62
						c0.04-0.02,0.06-0.03,0.1-0.04c5.38-1.82,14.21-4.82,16.9,4.09C390.05,224.91,389.54,227.22,388.36,228.93z"/>
				</g>
				
					<linearGradient id="SVGID_00000124161921454747547550000018176477694213420969_" gradientUnits="userSpaceOnUse" x1="318.8277" y1="233.5624" x2="383.7569" y2="233.5624">
					<stop  offset="0" style="stop-color:#000000"/>
					<stop  offset="0.0874" style="stop-color:#070707"/>
					<stop  offset="0.2167" style="stop-color:#1B1B1B"/>
					<stop  offset="0.3719" style="stop-color:#3C3C3C"/>
					<stop  offset="0.5474" style="stop-color:#6A6A6A"/>
					<stop  offset="0.7399" style="stop-color:#A4A4A4"/>
					<stop  offset="0.9436" style="stop-color:#EAEAEA"/>
					<stop  offset="1" style="stop-color:#FFFFFF"/>
				</linearGradient>
				<path style="opacity:0.3;fill:url(#SVGID_00000124161921454747547550000018176477694213420969_);" d="M383.76,232.47
					c-0.94,5.86-10.18,9.72-13.17,10.51c-2.45,0.65-4.97,0.46-7.5,0.04c-3.3-0.54-6.62-1.47-9.85-1.46
					c-8.02,0.01-16.56,4.51-23.64-1.42c-1.42-1.2-3.2-2.55-4.44-4.22c-1.56-2.09-1.45-4.47-2.53-6.8c-0.37-0.8-2.11-3.42-3.79-5.2
					c0.33-0.04,0.67-0.09,1.01-0.17c1.34,0.26,2.7,0.52,4.06,0.79c6.21,1.23,12.64,2.6,18.82,3.77c6.6,1.25,12.28-1.13,18.82-0.27
					c3.03,0.4,5.46,2.17,8.43,2.63c2.72,0.44,5.66-0.41,8.4-0.01C380.28,230.93,382.08,231.54,383.76,232.47z"/>
				<g class="st74">
					
						<linearGradient id="SVGID_00000057140000294554371600000009072646586730187443_" gradientUnits="userSpaceOnUse" x1="378.0036" y1="239.8975" x2="365.2074" y2="217.8884">
						<stop  offset="0" style="stop-color:#000000"/>
						<stop  offset="1" style="stop-color:#FFFFFF"/>
					</linearGradient>
					<path style="fill:url(#SVGID_00000057140000294554371600000009072646586730187443_);" d="M388.36,228.93
						c-1.1,1.6-2.79,2.7-4.54,3.11c-0.55,6.09-10.17,10.12-13.23,10.93c-2.45,0.65-4.97,0.46-7.5,0.04
						c-0.29-0.75-0.56-1.53-0.78-2.33c-1.63-5.74-1.74-10.44-1.74-16.37c0-1.23-0.01-2.41-0.05-3.54c4.04-0.08,7.83-1.3,11.73-2.62
						c1.91,2.28,3.32,5.31,5.8,6.55c0.98,0.49,1.97,0.86,2.97,1.2C383.49,226.75,385.99,227.35,388.36,228.93z"/>
				</g>
				<g>
					<path class="st80" d="M428.06,299.78c-2.3-2.3-4.69-4.52-7.65-4.09c-2.43,0.35-3.37,2.49-4.88,4.14
						c-2.12-7.1-6.15-14.93-11.98-16.41c-3.82-0.97-7.85-0.1-9.16,5.12c-1.2,4.82-0.48,9.9,0.84,14.6
						c1.54,5.44,4.34,8.93,6.91,13.45c1.87,3.28,4.4,7.05,5.63,11.16c3.01-3.63,15.32-4.03,16.9-4.76
						c3.37-1.55,6.31-6.73,7.14-11.01C432.85,306.76,431.19,302.92,428.06,299.78z"/>
				</g>
				<g class="st74">
					
						<linearGradient id="SVGID_00000170998206592803861980000002159276607667345296_" gradientUnits="userSpaceOnUse" x1="415.1341" y1="293.1103" x2="404.4491" y2="331.5089">
						<stop  offset="0" style="stop-color:#000000"/>
						<stop  offset="1" style="stop-color:#FFFFFF"/>
					</linearGradient>
					<path style="fill:url(#SVGID_00000170998206592803861980000002159276607667345296_);" d="M428.06,299.78
						c-2.3-2.3-4.69-4.52-7.65-4.09c-2.43,0.35-3.37,2.49-4.88,4.14c-2.12-7.1-6.15-14.93-11.98-16.41
						c-3.82-0.97-7.85-0.1-9.16,5.12c-1.2,4.82-0.48,9.9,0.84,14.6c1.54,5.44,4.34,8.93,6.91,13.45c1.87,3.28,4.4,7.05,5.63,11.16
						c3.01-3.63,15.32-4.03,16.9-4.76c3.37-1.55,6.31-6.73,7.14-11.01C432.85,306.76,431.19,302.92,428.06,299.78z"/>
				</g>
				<g class="st74">
					
						<linearGradient id="SVGID_00000145018546308706638520000000992229174693482146_" gradientUnits="userSpaceOnUse" x1="415.1319" y1="293.1092" x2="404.4474" y2="331.5058">
						<stop  offset="0" style="stop-color:#000000"/>
						<stop  offset="0.0874" style="stop-color:#070707"/>
						<stop  offset="0.2167" style="stop-color:#1B1B1B"/>
						<stop  offset="0.3719" style="stop-color:#3C3C3C"/>
						<stop  offset="0.5474" style="stop-color:#6A6A6A"/>
						<stop  offset="0.7399" style="stop-color:#A4A4A4"/>
						<stop  offset="0.9436" style="stop-color:#EAEAEA"/>
						<stop  offset="1" style="stop-color:#FFFFFF"/>
					</linearGradient>
					<path style="fill:url(#SVGID_00000145018546308706638520000000992229174693482146_);" d="M431.82,311.99
						c-0.81,4.18-3.63,9.21-6.9,10.89c-0.08,0.04-0.15,0.08-0.23,0.12c-1.58,0.72-13.84,1.13-16.88,4.74
						c-0.01,0.01-0.01,0.01-0.02,0.02c-0.69-2.31-1.8-4.52-2.98-6.6c-0.9-1.61-1.83-3.14-2.65-4.57c-1.3-2.28-2.66-4.31-3.89-6.44
						c-1.2-2.1-2.27-4.32-3.02-7c-1.33-4.7-2.05-9.79-0.84-14.61c1.3-5.21,5.34-6.08,9.16-5.11c5.82,1.47,9.86,9.3,11.97,16.41
						c0.32-0.34,0.59-0.7,0.87-1.06c1.09-1.4,2.08-2.81,4.01-3.08c2.96-0.43,5.35,1.78,7.65,4.09c0.65,0.65,1.23,1.33,1.74,2.05
						C431.76,304.58,432.63,307.85,431.82,311.99z"/>
				</g>
				
					<linearGradient id="SVGID_00000120545336965540069620000014563491309734018482_" gradientUnits="userSpaceOnUse" x1="393.793" y1="305.4188" x2="416.4097" y2="305.4188">
					<stop  offset="0" style="stop-color:#000000"/>
					<stop  offset="0.0874" style="stop-color:#070707"/>
					<stop  offset="0.2167" style="stop-color:#1B1B1B"/>
					<stop  offset="0.3719" style="stop-color:#3C3C3C"/>
					<stop  offset="0.5474" style="stop-color:#6A6A6A"/>
					<stop  offset="0.7399" style="stop-color:#A4A4A4"/>
					<stop  offset="0.9436" style="stop-color:#EAEAEA"/>
					<stop  offset="1" style="stop-color:#FFFFFF"/>
				</linearGradient>
				<path style="opacity:0.3;fill:url(#SVGID_00000120545336965540069620000014563491309734018482_);" d="M416.41,298.78
					c-0.43,5.43-2.07,10.98-3.98,15.27c-1.97,4.41-3.65,8.95-4.62,13.69c-0.01,0.01-0.01,0.01-0.02,0.02
					c-0.69-2.31-1.8-4.52-2.98-6.6c-0.9-1.61-1.83-3.14-2.65-4.57c-1.3-2.28-2.66-4.31-3.89-6.44c-1.2-2.1-2.27-4.32-3.02-7
					c-1.33-4.7-2.05-9.79-0.84-14.61c1.3-5.21,5.34-6.08,9.16-5.11c5.82,1.47,9.86,9.3,11.97,16.41
					C415.85,299.5,416.13,299.14,416.41,298.78z"/>
				
					<linearGradient id="SVGID_00000127754904634215156700000006269708269809699225_" gradientUnits="userSpaceOnUse" x1="398.272" y1="315.6525" x2="406.2707" y2="315.6525">
					<stop  offset="0" style="stop-color:#FFFFFF"/>
					<stop  offset="0.0564" style="stop-color:#EAEAEA"/>
					<stop  offset="0.2601" style="stop-color:#A4A4A4"/>
					<stop  offset="0.4526" style="stop-color:#6A6A6A"/>
					<stop  offset="0.6281" style="stop-color:#3C3C3C"/>
					<stop  offset="0.7833" style="stop-color:#1B1B1B"/>
					<stop  offset="0.9126" style="stop-color:#070707"/>
					<stop  offset="1" style="stop-color:#000000"/>
				</linearGradient>
				<path style="opacity:0.4;fill:url(#SVGID_00000127754904634215156700000006269708269809699225_);" d="M404.82,321.16
					c-0.9-1.61-1.83-3.14-2.65-4.57c-1.3-2.28-2.66-4.31-3.89-6.44c1.8-0.04,3.54,0.19,5.03,1.29
					C406.89,314.11,407.01,318.18,404.82,321.16z"/>
				<g class="st19">
					
						<linearGradient id="SVGID_00000058584890929828888390000009025968846901379235_" gradientUnits="userSpaceOnUse" x1="420.8912" y1="312.3604" x2="432.1248" y2="312.3604">
						<stop  offset="0" style="stop-color:#000000"/>
						<stop  offset="0.0874" style="stop-color:#070707"/>
						<stop  offset="0.2167" style="stop-color:#1B1B1B"/>
						<stop  offset="0.3719" style="stop-color:#3C3C3C"/>
						<stop  offset="0.5474" style="stop-color:#6A6A6A"/>
						<stop  offset="0.7399" style="stop-color:#A4A4A4"/>
						<stop  offset="0.9436" style="stop-color:#EAEAEA"/>
						<stop  offset="1" style="stop-color:#FFFFFF"/>
					</linearGradient>
					<path style="fill:url(#SVGID_00000058584890929828888390000009025968846901379235_);" d="M431.82,311.99
						c-0.81,4.18-3.63,9.21-6.9,10.89c-1.18-0.94-2.21-2.22-3.05-3.87c-1.87-3.68-1.19-9.61,3.08-9.21l0.04,0.09
						c0.05-0.55,0.18-1.11,0.36-1.64c0.72-2.13,2.53-4.7,4.46-6.41C431.76,304.58,432.63,307.85,431.82,311.99z"/>
				</g>
				<path class="st86" d="M401.33,307.81c-3.25-2.41-7.69-0.65-11.25-1.1c-3.8-0.48-6.47-0.27-10.06,1.25
					c-3.07,1.3-6.04,0.27-8.78-1.8c1.73,3.64-1.01,7.46,1.59,10.88c2.35,3.1,5.03,4.35,8.04,5.8c2.95,1.42,6.29,3.78,9.43,3.51
					c3.07-0.26,3.51-2.48,4.13-5.04c2.36,0.39,4.57-0.32,6.87-2.18C404.95,316.18,405.62,311,401.33,307.81z"/>
				
					<linearGradient id="SVGID_00000138547378774543608860000004232622866991643269_" gradientUnits="userSpaceOnUse" x1="371.2456" y1="316.2577" x2="404.2972" y2="316.2577">
					<stop  offset="0" style="stop-color:#FFFFFF"/>
					<stop  offset="0.0564" style="stop-color:#EAEAEA"/>
					<stop  offset="0.2601" style="stop-color:#A4A4A4"/>
					<stop  offset="0.4526" style="stop-color:#6A6A6A"/>
					<stop  offset="0.6281" style="stop-color:#3C3C3C"/>
					<stop  offset="0.7833" style="stop-color:#1B1B1B"/>
					<stop  offset="0.9126" style="stop-color:#070707"/>
					<stop  offset="1" style="stop-color:#000000"/>
				</linearGradient>
				<path style="opacity:0.4;fill:url(#SVGID_00000138547378774543608860000004232622866991643269_);" d="M401.31,319.12
					c-2.08,1.68-4.08,2.43-6.19,2.26c-0.23-0.01-0.46-0.04-0.68-0.07c-0.62,2.56-1.06,4.78-4.13,5.04
					c-3.14,0.27-6.47-2.08-9.43-3.51c-3.01-1.45-5.69-2.7-8.04-5.8c-2.61-3.42,0.13-7.24-1.59-10.88c0.12,0.09,0.24,0.18,0.36,0.27
					c0,0,0,0,0.01,0.01c2.63,1.89,5.47,2.78,8.4,1.53c3.6-1.52,6.26-1.73,10.06-1.25c3.57,0.45,8.01-1.31,11.25,1.11
					C405.62,310.99,404.95,316.18,401.31,319.12z"/>
				
					<linearGradient id="SVGID_00000091015078249881504700000007416768794600306578_" gradientUnits="userSpaceOnUse" x1="371.2456" y1="316.2577" x2="395.1177" y2="316.2577">
					<stop  offset="0" style="stop-color:#000000"/>
					<stop  offset="0.0874" style="stop-color:#070707"/>
					<stop  offset="0.2167" style="stop-color:#1B1B1B"/>
					<stop  offset="0.3719" style="stop-color:#3C3C3C"/>
					<stop  offset="0.5474" style="stop-color:#6A6A6A"/>
					<stop  offset="0.7399" style="stop-color:#A4A4A4"/>
					<stop  offset="0.9436" style="stop-color:#EAEAEA"/>
					<stop  offset="1" style="stop-color:#FFFFFF"/>
				</linearGradient>
				<path style="opacity:0.3;fill:url(#SVGID_00000091015078249881504700000007416768794600306578_);" d="M395.12,321.38
					c-0.23-0.01-0.46-0.04-0.68-0.07c-0.62,2.56-1.06,4.78-4.13,5.04c-3.14,0.27-6.47-2.08-9.43-3.51c-3.01-1.45-5.69-2.7-8.04-5.8
					c-2.61-3.42,0.13-7.24-1.59-10.88c0.12,0.09,0.24,0.18,0.36,0.27c0,0,0,0,0.01,0.01c1.05,1.15,2.2,2.24,3.33,3.33
					c4.63,4.47,10.38,3.1,15.3,6.55C391.57,317.24,393.48,319.18,395.12,321.38z"/>
				<g>
					<path class="st86" d="M451.21,303.06c-3.16-2.76-6.74-5.59-10.57-5.28c-2.73,0.22-6.76,4.81-7.92,8.26
						c-0.18,0.53-0.3,1.09-0.36,1.65l-0.03-0.09c-4.28-0.39-4.95,5.54-3.09,9.21c2.07,4.08,5.35,5.91,8.93,5.96
						c3.19,0.05,12.91-4.07,16.9-0.69c0.27-2.93,1.5-6.65,1.53-7.95C456.7,309.83,453.83,305.33,451.21,303.06z"/>
				</g>
				<g class="st19">
					
						<linearGradient id="SVGID_00000077300251910002395000000010346116622969244559_" gradientUnits="userSpaceOnUse" x1="428.2567" y1="310.2637" x2="456.5972" y2="310.2637">
						<stop  offset="0" style="stop-color:#000000"/>
						<stop  offset="0.0874" style="stop-color:#070707"/>
						<stop  offset="0.2167" style="stop-color:#1B1B1B"/>
						<stop  offset="0.3719" style="stop-color:#3C3C3C"/>
						<stop  offset="0.5474" style="stop-color:#6A6A6A"/>
						<stop  offset="0.7399" style="stop-color:#A4A4A4"/>
						<stop  offset="0.9436" style="stop-color:#EAEAEA"/>
						<stop  offset="1" style="stop-color:#FFFFFF"/>
					</linearGradient>
					<path style="fill:url(#SVGID_00000077300251910002395000000010346116622969244559_);" d="M456.59,314.14
						c-0.03,1.27-1.21,4.87-1.51,7.77c-0.01,0.05-0.01,0.12-0.02,0.17c-3.99-3.38-13.71,0.74-16.9,0.69
						c-3.58-0.05-6.87-1.89-8.93-5.97c-1.86-3.68-1.2-9.61,3.09-9.21l0.03,0.09c0.04-0.31,0.09-0.62,0.16-0.93
						c0.05-0.24,0.13-0.49,0.21-0.72c1.16-3.46,5.19-8.04,7.92-8.27c3.83-0.31,7.41,2.53,10.57,5.29
						C453.83,305.33,456.69,309.83,456.59,314.14z"/>
				</g>
				
					<linearGradient id="SVGID_00000015334568689547733000000013137971870828085437_" gradientUnits="userSpaceOnUse" x1="428.2567" y1="314.7692" x2="455.0845" y2="314.7692">
					<stop  offset="0" style="stop-color:#000000"/>
					<stop  offset="0.0874" style="stop-color:#070707"/>
					<stop  offset="0.2167" style="stop-color:#1B1B1B"/>
					<stop  offset="0.3719" style="stop-color:#3C3C3C"/>
					<stop  offset="0.5474" style="stop-color:#6A6A6A"/>
					<stop  offset="0.7399" style="stop-color:#A4A4A4"/>
					<stop  offset="0.9436" style="stop-color:#EAEAEA"/>
					<stop  offset="1" style="stop-color:#FFFFFF"/>
				</linearGradient>
				<path style="opacity:0.3;fill:url(#SVGID_00000015334568689547733000000013137971870828085437_);" d="M455.08,321.91
					c-0.01,0.05-0.01,0.12-0.02,0.17c-3.99-3.38-13.71,0.74-16.9,0.69c-3.58-0.05-6.87-1.89-8.93-5.97
					c-1.86-3.68-1.2-9.61,3.09-9.21l0.03,0.09c0.04-0.31,0.09-0.62,0.16-0.93c0.95,0.86,1.85,1.77,3.03,2.5
					c4.48,2.79,10.12,2.06,14.44,5.86C451.14,316.13,453.47,318.96,455.08,321.91z"/>
				<g>
					<path class="st76" d="M497.94,302.83c-1.09-2.24-2.28-2.48-3.88-3.79c-3.18-2.62-5.55-6.94-8.92-9.67
						c-3.3-2.67-7.05-5.16-10.75-6.7c-3.66-1.53-7.91-0.17-11.51,0.83c-2.52,0.7-7.74,3.57-8.32,7.13c-0.36,2.2,0.22,4.31,1.21,6.1
						c-1.9,1.52-3.69,4.04-4.41,6.08c-1.83,5.2,2.54,8.45,5.68,9.6c1.89,0.69,3.83,0.76,5.67,1.64c1.88,0.9,3.62,2.36,5.57,2.99
						c3.58,1.15,7.59,0.6,11.23,0.36c3.96-0.26,7.35,0.07,11.01-1.99c3.15-1.78,5.23-5,8.76-5.75c0.26-0.06,0.66-0.18,1.11-0.3
						c-0.18-0.24-0.31-0.46-0.38-0.59C499.1,306.88,498.84,304.69,497.94,302.83z"/>
				</g>
				<g class="st74">
					
						<linearGradient id="SVGID_00000113312795893375621870000015865919739588146606_" gradientUnits="userSpaceOnUse" x1="450.9327" y1="299.8666" x2="500.4014" y2="299.8666">
						<stop  offset="0" style="stop-color:#000000"/>
						<stop  offset="1" style="stop-color:#FFFFFF"/>
					</linearGradient>
					<path style="fill:url(#SVGID_00000113312795893375621870000015865919739588146606_);" d="M500.4,309.36
						c-0.45,0.13-0.85,0.24-1.11,0.31c-3.53,0.75-5.62,3.97-8.76,5.75c-3.66,2.06-7.06,1.73-11.01,1.99
						c-3.65,0.24-7.66,0.8-11.23-0.35c-1.95-0.63-3.69-2.09-5.56-2.99c-1.84-0.88-3.77-0.94-5.67-1.64c-3.14-1.15-7.5-4.4-5.68-9.61
						c0.72-2.04,2.51-4.57,4.41-6.09c-0.69-1.25-1.18-2.65-1.29-4.13v-0.01c-0.05-0.65-0.04-1.29,0.07-1.96
						c0.58-3.57,5.81-6.44,8.32-7.14c3.6-1,7.85-2.35,11.51-0.83c3.15,1.31,6.33,3.32,9.24,5.54c0.51,0.38,1.01,0.77,1.5,1.17
						c3.37,2.72,5.74,7.05,8.93,9.67c1.59,1.31,2.79,1.55,3.87,3.79c0.91,1.86,1.16,4.04,2.08,5.93
						C500.09,308.9,500.23,309.12,500.4,309.36z"/>
				</g>
				<g class="st74">
					
						<linearGradient id="SVGID_00000042009965685048009220000011122332552156642177_" gradientUnits="userSpaceOnUse" x1="454.4618" y1="288.268" x2="483.6392" y2="288.268">
						<stop  offset="0" style="stop-color:#000000"/>
						<stop  offset="1" style="stop-color:#FFFFFF"/>
					</linearGradient>
					<path style="fill:url(#SVGID_00000042009965685048009220000011122332552156642177_);" d="M483.64,288.2
						c-2.38,1.04-4.75,2.11-7.11,3.16c-4.46,1.98-8.57,4.06-13.32,2.83c-2.86-0.75-5.78-1.09-8.72-1.59v-0.01
						c-0.05-0.65-0.04-1.29,0.07-1.96c0.58-3.57,5.81-6.44,8.32-7.14c3.6-1,7.85-2.35,11.51-0.83
						C477.55,283.98,480.73,285.98,483.64,288.2z"/>
				</g>
				<g>
					<path class="st86" d="M502.02,271.24c-1.27,0.44-2.5,1.21-3.63,1.76c-2.48,1.21-5.12,1.1-7.69,1.95
						c-6.35,2.1-12.59,4.99-18.76,7.72c-4.46,1.98-8.58,4.07-13.32,2.84c-3.6-0.94-7.3-1.24-11.01-2.03
						c-2.57-0.55-10.06-2.71-6.57-7.8c1.38-2.02,4.29-3.35,6.78-4.09c0.25-0.08,0.49-0.14,0.73-0.21c0.39-1.55,1.18-3.17,1.69-4.03
						c1.61-2.66,3.38-4.1,5.69-5.21c4.04-1.94,8.63-3.49,13.04-3.05c2.36,0.23,4.3,1.59,6.51,2.37c2.09,0.74,4.31,0.6,6.52,0.6
						c4.69,0,8.35,1.15,12.65,3.65c1.4,0.83,4.06,3.42,6.5,4.99C501.43,270.91,501.73,271.08,502.02,271.24z"/>
				</g>
				
					<linearGradient id="SVGID_00000139289656705388711520000017642953408614780809_" gradientUnits="userSpaceOnUse" x1="440.1272" y1="277.7921" x2="502.0196" y2="277.7921">
					<stop  offset="0" style="stop-color:#000000"/>
					<stop  offset="0.0874" style="stop-color:#070707"/>
					<stop  offset="0.2167" style="stop-color:#1B1B1B"/>
					<stop  offset="0.3719" style="stop-color:#3C3C3C"/>
					<stop  offset="0.5474" style="stop-color:#6A6A6A"/>
					<stop  offset="0.7399" style="stop-color:#A4A4A4"/>
					<stop  offset="0.9436" style="stop-color:#EAEAEA"/>
					<stop  offset="1" style="stop-color:#FFFFFF"/>
				</linearGradient>
				<path style="opacity:0.3;fill:url(#SVGID_00000139289656705388711520000017642953408614780809_);" d="M502.02,271.24
					c-1.27,0.44-2.5,1.21-3.63,1.76c-2.48,1.21-5.12,1.1-7.69,1.95c-6.35,2.1-12.59,4.99-18.76,7.72
					c-4.46,1.98-8.58,4.07-13.32,2.84c-3.6-0.94-7.3-1.24-11.01-2.03c-2.57-0.55-10.06-2.71-6.57-7.8c1.38-2.02,4.29-3.35,6.78-4.09
					c7.01,2.99,15.33,1,22.92,0.22c4.66-0.48,9.4,0.53,13.86-0.63c4.19-1.1,9-2.04,13.45-1.1c1.02,0.22,2.05,0.42,3.09,0.62
					C501.43,270.91,501.73,271.08,502.02,271.24z"/>
				<g>
					<path class="st76" d="M478.26,189.32c-4.66,1.38-8.68-1.69-13.81-1.04c-7.26,0.91-15.65-2.55-22.7,0.96
						c-11.42,5.69-17.18,21.73-12.07,36.17c1.42,4.02,4.85,8.28,8.48,8.4c1.8,0.06,3.5-0.77,5.17-1.68
						c0.45,1.53,1.11,2.97,1.57,3.77c1.42,2.46,3.31,3.9,5.62,4.15c2.3,0.25,4.95,0.19,7.18-0.23c3.06-0.58,5.16-3.23,7.65-5.42
						c3.57-3.15,7.36-5.09,10.61-8.86c2.99-3.47,3.8-8.14,3.99-13.16c0.2-5.19-0.37-10.67-1.3-15.54
						C478.36,195.24,477.83,191.65,478.26,189.32z"/>
				</g>
				<g class="st74">
					
						<linearGradient id="SVGID_00000046339551431806647340000000722925309320277133_" gradientUnits="userSpaceOnUse" x1="427.8108" y1="213.9175" x2="480.0054" y2="213.9175">
						<stop  offset="0" style="stop-color:#000000"/>
						<stop  offset="1" style="stop-color:#FFFFFF"/>
					</linearGradient>
					<path style="fill:url(#SVGID_00000046339551431806647340000000722925309320277133_);" d="M479.96,212.39
						c-0.2,5.01-1,9.69-3.99,13.16c-3.25,3.77-7.04,5.71-10.61,8.86c-2.49,2.18-4.59,4.83-7.65,5.42c-2.23,0.42-4.89,0.48-7.18,0.23
						c-1.66-0.19-3.1-0.98-4.31-2.32c-0.48-0.53-0.91-1.14-1.31-1.83c-0.44-0.77-1.07-2.14-1.52-3.6c-0.02-0.05-0.04-0.12-0.05-0.17
						c-1.67,0.91-3.37,1.74-5.18,1.68c-3.62-0.13-7.06-4.39-8.48-8.4c-5.11-14.44,0.65-30.49,12.07-36.18
						c0.76-0.38,1.55-0.68,2.34-0.91c6.52-1.9,13.88,0.76,20.36-0.05c5.03-0.63,8.99,2.29,13.52,1.12c0.1-0.02,0.2-0.04,0.3-0.07
						c-0.43,2.32,0.09,5.91,0.4,7.52C479.59,201.71,480.17,207.19,479.96,212.39z"/>
				</g>
				
					<linearGradient id="SVGID_00000121979577346390745000000000628243197124291495_" gradientUnits="userSpaceOnUse" x1="443.3916" y1="214.7649" x2="480.0054" y2="214.7649">
					<stop  offset="0" style="stop-color:#000000"/>
					<stop  offset="0.0874" style="stop-color:#070707"/>
					<stop  offset="0.2167" style="stop-color:#1B1B1B"/>
					<stop  offset="0.3719" style="stop-color:#3C3C3C"/>
					<stop  offset="0.5474" style="stop-color:#6A6A6A"/>
					<stop  offset="0.7399" style="stop-color:#A4A4A4"/>
					<stop  offset="0.9436" style="stop-color:#EAEAEA"/>
					<stop  offset="1" style="stop-color:#FFFFFF"/>
				</linearGradient>
				<path style="opacity:0.3;fill:url(#SVGID_00000121979577346390745000000000628243197124291495_);" d="M479.96,212.39
					c-0.2,5.01-1,9.69-3.99,13.16c-3.25,3.77-7.04,5.71-10.61,8.86c-2.49,2.18-4.59,4.83-7.65,5.42c-2.23,0.42-4.89,0.48-7.18,0.23
					c-1.66-0.19-3.1-0.98-4.31-2.32c-0.48-0.53-0.91-1.14-1.31-1.83c-0.44-0.77-1.07-2.14-1.52-3.6c1.04-2.07,1.82-4.11,2.8-6.27
					c2.5-5.57,4.87-11.47,9.46-15.57c7.06-6.32,14.76-11.38,20.83-19.04c0.43-0.55,0.93-1.29,1.48-2.02c0.1-0.02,0.2-0.04,0.3-0.07
					c-0.43,2.32,0.09,5.91,0.4,7.52C479.59,201.71,480.17,207.19,479.96,212.39z"/>
				<g class="st74">
					
						<linearGradient id="SVGID_00000088097085776062827870000011150559424362995857_" gradientUnits="userSpaceOnUse" x1="437.4453" y1="236.9344" x2="442.4536" y2="188.1853">
						<stop  offset="0" style="stop-color:#000000"/>
						<stop  offset="1" style="stop-color:#FFFFFF"/>
					</linearGradient>
					<path style="fill:url(#SVGID_00000088097085776062827870000011150559424362995857_);" d="M450.69,223.21
						c-1.02,5.32-1.98,10.14-4.47,14.53c-0.48-0.53-0.91-1.14-1.31-1.83c-0.46-0.8-1.12-2.25-1.57-3.77
						c-1.67,0.91-3.37,1.74-5.18,1.68c-3.62-0.13-7.06-4.39-8.48-8.4c-5.11-14.44,0.65-30.49,12.07-36.18
						c0.76-0.38,1.55-0.68,2.34-0.91c3.06,4.57,6.45,10.23,7.38,16.43C452.38,210.79,451.81,217.34,450.69,223.21z"/>
				</g>
				<g>
					<path class="st80" d="M442.72,192.67c-0.94-6.26-4.39-11.98-7.48-16.57c-0.54-0.8-2.42-4.67-3.05-7.51
						c-3.66,2.42-11.53,2.86-13.58,3.63c-7.59,2.85-12.96,8.77-18.48,15.69c-7.76,9.73-6.21,27.74,0.55,37.87
						c3.1,4.64,6.45,6.5,11.19,4.99c1.68-0.53,3.12-2.17,4.23-4.2c3.34,10.57,15.64,8.46,20.94-0.19c2.82-4.6,3.82-9.63,4.89-15.25
						C443.07,205.26,443.62,198.71,442.72,192.67z"/>
				</g>
				<g class="st74">
					
						<linearGradient id="SVGID_00000070112942772853583170000000950050714221326229_" gradientUnits="userSpaceOnUse" x1="412.3797" y1="228.1432" x2="429.1127" y2="168.4245">
						<stop  offset="0" style="stop-color:#000000"/>
						<stop  offset="1" style="stop-color:#FFFFFF"/>
					</linearGradient>
					<path style="fill:url(#SVGID_00000070112942772853583170000000950050714221326229_);" d="M441.94,211.13
						c-1.07,5.61-2.07,10.65-4.89,15.24c-5.3,8.66-17.59,10.77-20.94,0.2c-1.11,2.02-2.54,3.66-4.22,4.2
						c-4.74,1.5-8.09-0.35-11.18-5c-6.77-10.12-8.31-28.13-0.56-37.87c5.52-6.91,10.88-12.83,18.48-15.68
						c1.91-0.72,8.87-1.15,12.77-3.16c0.29-0.14,0.55-0.31,0.8-0.47c0.63,2.84,2.52,6.71,3.05,7.51c3.09,4.59,6.54,10.31,7.48,16.57
						C443.62,198.71,443.07,205.26,441.94,211.13z"/>
				</g>
				<g>
					<path class="st80" d="M392.95,226.96c-3.67-3.18-7.8-3.31-11.68-5.26c-2.95-1.48-4.38-5.46-6.91-7.75
						c-2.39-2.16-5.28-2.99-8.09-3.36c-1.09-0.14-2.3,0.21-3.41,0.12c0.85,3.27,0.93,6.66,0.93,10.6c0,5.92,0.12,10.62,1.74,16.36
						c1.38,4.87,4.06,8.74,6.41,12.79c2.23,3.85,3.86,8.25,6.06,12.19c3.05,5.45,6.56,10.31,11.85,11.02c2.79,0.37,5.2-1,6.07-4.76
						c0.13-0.55,0.23-1.18,0.3-1.83c1.19,1.11,2.57,1.88,3.74,2.13c4.33,0.94,6.77-2.65,7.37-8.1
						C408.91,246.62,401.44,234.31,392.95,226.96z"/>
				</g>
				<g class="st74">
					
						<linearGradient id="SVGID_00000057112472711707821490000004008677391170168731_" gradientUnits="userSpaceOnUse" x1="401.8553" y1="270.6034" x2="365.7925" y2="208.5766">
						<stop  offset="0" style="stop-color:#000000"/>
						<stop  offset="1" style="stop-color:#FFFFFF"/>
					</linearGradient>
					<path style="fill:url(#SVGID_00000057112472711707821490000004008677391170168731_);" d="M407.53,256.73
						c0.03,1.43-0.04,2.89-0.2,4.38c-0.58,5.46-3.03,9.04-7.36,8.11c-1.17-0.26-2.55-1.03-3.74-2.13c-0.01,0.05-0.01,0.11-0.02,0.16
						c-0.07,0.59-0.16,1.16-0.28,1.66c-0.87,3.77-3.28,5.13-6.08,4.76c-5.29-0.7-8.8-5.57-11.86-11.02
						c-2.2-3.94-3.83-8.33-6.06-12.19c-2.35-4.05-5.03-7.93-6.41-12.79c-1.63-5.74-1.74-10.44-1.74-16.37
						c0-3.86-0.09-7.2-0.89-10.41c-0.01-0.06-0.03-0.13-0.04-0.2c1.11,0.1,2.32-0.25,3.41-0.12c2.81,0.37,5.7,1.2,8.09,3.36
						c2.53,2.28,3.96,6.27,6.91,7.75c0.98,0.49,1.97,0.86,2.97,1.2c2.97,1.01,5.97,1.67,8.72,4.05
						C400.56,233.55,407.36,244.14,407.53,256.73z"/>
				</g>
				<g>
					<path class="st80" d="M438.4,249.28c-0.04-0.11-0.1-0.29-0.19-0.53c-0.52-1.48-1.89-5.28-2.55-8.18
						c-0.05-0.25-0.11-0.5-0.15-0.74c-1.74,1.84-5.09,3.03-6.33,3.19c-3.46,0.48-6.21-0.54-9.66,1.8
						c-3.68,2.48-5.14,7.94-7.24,12.49c-0.07,0.15-0.14,0.31-0.22,0.47c-2.1,4.61-4.14,10.28-3.56,15.9
						c0.6,5.79,5.22,9.56,9.22,7.21c1.12-0.66,2.17-1.6,3.14-2.7c0,0.4,0.03,0.79,0.1,1.2c0.1,0.64,0.31,1.29,0.64,1.96
						c2.45,4.93,7.89,0.82,10.07-2.54c2.71-4.19,4.37-9.39,6.22-14.34C439.72,259.54,440.1,254.41,438.4,249.28z"/>
				</g>
				<path class="st99" d="M440.43,364.19c-3.46,3.87-8.05,12.08-8.94,28.45c0,2.03-7.64,3.69-17.06,3.69
					c-9.42,0-17.05-1.65-17.05-3.69c-0.04-0.75-0.09-1.5-0.14-2.22c-1.17-14.92-5.54-22.56-8.84-26.25c0,0,0.01,0,0.01-0.01
					c1.46,1.64,12.56,2.9,26.03,2.9c2.82,0,5.55-0.05,8.09-0.16C432.04,366.51,439.17,365.47,440.43,364.19z"/>
				<path class="st100" d="M440.44,364.17c-0.01,0.03-0.01,0.03-0.02,0.03c-1.59,1.62-12.63,2.87-26,2.87
					c-6.05,0-11.62-0.25-16.04-0.68c-5.45-0.53-9.19-1.32-9.99-2.22c4.97-4.12,6.68-12.93,7.23-20.29c0.21-2.75,0.24-5.28,0.23-7.31
					h37.14c-0.01,2,0.03,4.54,0.23,7.28c0,0.01,0,0.01,0,0.01C433.77,351.22,435.46,360.05,440.44,364.17z"/>
			</g>
			
				<linearGradient id="SVGID_00000054972735303112549970000001735360062416488383_" gradientUnits="userSpaceOnUse" x1="398.3799" y1="351.8125" x2="440.4434" y2="351.8125">
				<stop  offset="0" style="stop-color:#000000"/>
				<stop  offset="1" style="stop-color:#FFFFFF"/>
			</linearGradient>
			<path style="opacity:0.35;fill:url(#SVGID_00000054972735303112549970000001735360062416488383_);" d="M440.44,364.17
				c-0.01,0.03-0.01,0.03-0.02,0.03c-1.59,1.62-12.63,2.87-26,2.87c-6.05,0-11.62-0.25-16.04-0.68
				c14.92-6.72,21.27-21.45,23.75-29.81h10.86c-0.01,2,0.03,4.54,0.23,7.28c0,0.01,0,0.01,0,0.01
				C433.77,351.22,435.46,360.05,440.44,364.17z"/>
			
				<linearGradient id="SVGID_00000013911937938790846770000008187984153803328186_" gradientUnits="userSpaceOnUse" x1="397.2295" y1="380.2593" x2="440.4253" y2="380.2593">
				<stop  offset="0" style="stop-color:#000000"/>
				<stop  offset="1" style="stop-color:#FFFFFF"/>
			</linearGradient>
			<path style="opacity:0.35;fill:url(#SVGID_00000013911937938790846770000008187984153803328186_);" d="M440.43,364.19
				c-3.46,3.87-8.05,12.08-8.94,28.45c0,2.03-7.64,3.69-17.06,3.69c-9.42,0-17.05-1.65-17.05-3.69c-0.04-0.75-0.09-1.5-0.14-2.22
				c6.35-1.6,19.81-6.89,25.28-23.52C432.04,366.51,439.17,365.47,440.43,364.19z"/>
		</g>
		
			<linearGradient id="SVGID_00000112621097155513408690000011505902972618511028_" gradientUnits="userSpaceOnUse" x1="362.9043" y1="242.3193" x2="396.2139" y2="242.3193">
			<stop  offset="0" style="stop-color:#000000"/>
			<stop  offset="0.0874" style="stop-color:#070707"/>
			<stop  offset="0.2167" style="stop-color:#1B1B1B"/>
			<stop  offset="0.3719" style="stop-color:#3C3C3C"/>
			<stop  offset="0.5474" style="stop-color:#6A6A6A"/>
			<stop  offset="0.7399" style="stop-color:#A4A4A4"/>
			<stop  offset="0.9436" style="stop-color:#EAEAEA"/>
			<stop  offset="1" style="stop-color:#FFFFFF"/>
		</linearGradient>
		<path style="opacity:0.3;fill:url(#SVGID_00000112621097155513408690000011505902972618511028_);" d="M396.21,267.25
			c-0.07,0.59-0.16,1.16-0.28,1.66c-0.87,3.77-3.28,5.13-6.08,4.76c-5.29-0.7-8.8-5.57-11.86-11.02c-2.2-3.94-3.83-8.33-6.06-12.19
			c-2.35-4.05-5.03-7.93-6.41-12.79c-1.63-5.74-1.74-10.44-1.74-16.37c0-3.86-0.09-7.2-0.89-10.41c8.39,4.35,13.4,13.14,17.9,22.11
			c3.33,6.62,5.96,13.57,9.25,20.16C392.38,257.81,394.29,262.53,396.21,267.25z"/>
		
			<linearGradient id="SVGID_00000124131189702265496440000006043651189947809678_" gradientUnits="userSpaceOnUse" x1="416.104" y1="201.1484" x2="443.1701" y2="201.1484">
			<stop  offset="0" style="stop-color:#000000"/>
			<stop  offset="0.0874" style="stop-color:#070707"/>
			<stop  offset="0.2167" style="stop-color:#1B1B1B"/>
			<stop  offset="0.3719" style="stop-color:#3C3C3C"/>
			<stop  offset="0.5474" style="stop-color:#6A6A6A"/>
			<stop  offset="0.7399" style="stop-color:#A4A4A4"/>
			<stop  offset="0.9436" style="stop-color:#EAEAEA"/>
			<stop  offset="1" style="stop-color:#FFFFFF"/>
		</linearGradient>
		<path style="opacity:0.3;fill:url(#SVGID_00000124131189702265496440000006043651189947809678_);" d="M441.94,211.13
			c-1.07,5.61-2.07,10.65-4.89,15.24c-5.3,8.66-17.59,10.77-20.94,0.2c1.08-11.86,4.15-23.29,7.42-34.94
			c2-7.15,3.74-15.84,7.87-22.58c0.29-0.14,0.55-0.31,0.8-0.47c0.63,2.84,2.52,6.71,3.05,7.51c3.09,4.59,6.54,10.31,7.48,16.57
			C443.62,198.71,443.07,205.26,441.94,211.13z"/>
		
			<linearGradient id="SVGID_00000011015768917648685810000001387900892684424381_" gradientUnits="userSpaceOnUse" x1="408.3987" y1="260.7159" x2="435.6616" y2="260.7159">
			<stop  offset="0" style="stop-color:#000000"/>
			<stop  offset="0.0874" style="stop-color:#070707"/>
			<stop  offset="0.2167" style="stop-color:#1B1B1B"/>
			<stop  offset="0.3719" style="stop-color:#3C3C3C"/>
			<stop  offset="0.5474" style="stop-color:#6A6A6A"/>
			<stop  offset="0.7399" style="stop-color:#A4A4A4"/>
			<stop  offset="0.9436" style="stop-color:#EAEAEA"/>
			<stop  offset="1" style="stop-color:#FFFFFF"/>
		</linearGradient>
		<path style="opacity:0.3;fill:url(#SVGID_00000011015768917648685810000001387900892684424381_);" d="M435.66,240.57
			c-1.37,6.44-4.91,12.16-7.77,18.4c-2.27,4.92-3.95,10.01-5.7,15.06c-0.62,1.77-0.94,3.57-1.23,5.35c-0.07-0.4-0.1-0.8-0.1-1.2
			c-0.96,1.1-2.01,2.04-3.14,2.7c-4,2.36-8.62-1.42-9.22-7.21c-0.58-5.62,1.46-11.29,3.56-15.9c0.07-0.16,0.14-0.31,0.22-0.47
			c2.1-4.55,3.57-10,7.24-12.49c3.45-2.34,6.2-1.32,9.66-1.8c1.24-0.16,4.58-1.35,6.33-3.19
			C435.55,240.07,435.61,240.32,435.66,240.57z"/>
	</g>
	<g>
		
			<linearGradient id="SVGID_00000047748806145157833160000014234069701780772000_" gradientUnits="userSpaceOnUse" x1="462.7539" y1="399.6899" x2="645.8125" y2="399.6899">
			<stop  offset="0" style="stop-color:#000000"/>
			<stop  offset="1" style="stop-color:#FFFFFF"/>
		</linearGradient>
		<polygon style="opacity:0.4;fill:url(#SVGID_00000047748806145157833160000014234069701780772000_);" points="645.81,408.84 
			531.72,416.95 462.75,393.7 510.72,382.43 615.63,382.43 		"/>
		<g>
			<g>
				<polygon class="st107" points="504.47,354.67 499.94,370.2 492.81,394.67 486.98,394.67 493.2,364.34 495.19,354.67 				"/>
				<polygon class="st108" points="495.19,354.67 504.47,354.67 499.94,370.2 493.2,364.34 				"/>
				<polygon class="st107" points="551.09,363.14 550.69,381.59 550.03,411.35 543.41,410.03 543.41,363.14 				"/>
				<polygon class="st108" points="543.41,363.14 551.09,363.14 550.69,381.59 543.41,376.45 				"/>
				<polygon class="st108" points="597.72,394.67 592.95,394.67 585.42,367.83 582.09,355.99 591.44,354.67 593.98,370.8 				"/>
				<polygon class="st109" points="593.98,370.8 585.42,367.83 582.09,355.99 591.44,354.67 				"/>
				<polygon class="st108" points="560.89,361.02 560.89,387.25 555.86,387.25 555.09,372 554.54,361.02 				"/>
				<polygon class="st109" points="554.54,361.02 560.89,361.02 560.89,372 555.09,372 				"/>
				<path class="st110" d="M613.61,289.5l-18.01,67.28h-6.18l18.01-67.28c6.18-19.27,3.25-23.95,0.81-24.98l4.05-0.19
					C612.29,264.33,622.62,261.41,613.61,289.5z"/>
				<path class="st111" d="M607.43,289.5l-18.01,67.28h-49.19l-3.78-43.33l-3.38-38.79c0,0-1.85-6.36,3.59-6.89l32.24-1.46l28.6-1.3
					l10.75-0.49C610.68,265.55,613.61,270.23,607.43,289.5z"/>
				<path class="st112" d="M607.43,289.5l-18.01,67.28h-18.51c0.08-0.21,0.17-0.41,0.25-0.61c6.63-16.06,14.11-31.2,19.77-47.64
					c2.73-7.92,5.02-15.67,6.63-23.72c0.97-4.87,2.75-14.34-0.07-19.81l10.75-0.49C610.68,265.55,613.61,270.23,607.43,289.5z"/>
				<path class="st113" d="M589.42,356.78l-32.76,8.75c-1.36,0.26-2.71,0.44-4.01,0.56c-6.61,0.55-12.15-0.56-12.15-0.56
					l-44.24-7.68c-7.42-0.79-6.9-4.23-6.9-4.23v-22.25c0.2-0.49,0.55-0.93,1.06-1.37c0.92,0.84,2.64,1.67,5.84,2.01l22.84,3.96
					l21.4,3.71c0,0,7.95,1.6,16.16,0l6.45-0.8l28.33-3.53C592.4,342.22,589.42,356.78,589.42,356.78z"/>
				<path class="st114" d="M521.23,338.1c-1.74-0.39-3.68-0.31-5.52-0.39c-7.15-0.34-14.7-0.69-21.05,2.7
					c-2.98,1.58-4.49,5.36-5.08,8.37c-0.06,0.33-0.14,0.66-0.23,1.01v-18.43c0.2-0.49,0.55-0.93,1.06-1.37
					c0.92,0.84,2.64,1.67,5.84,2.01l22.84,3.96C519.85,336.67,520.56,337.38,521.23,338.1z"/>
				<path class="st115" d="M589.42,356.78l-32.76,8.75c-1.36,0.26-2.71,0.44-4.01,0.56c0.12-4.43,0.67-8.75,2.57-13.07
					c1.83-4.15,4.32-10.05,7.89-14.14l28.33-3.53C592.4,342.22,589.42,356.78,589.42,356.78z"/>
				<path class="st113" d="M489.36,353.61v0.29C489.34,353.71,489.36,353.61,489.36,353.61z"/>
				<path class="st113" d="M489.36,333.03c0.04,0.23,0.05,0.43,0,0.57V333.03z"/>
				<path class="st115" d="M591.61,339.71c-0.03-0.76-0.08-1.48-0.17-2.13l-34.78,4.34c-8.22,1.59-16.16,0-16.16,0l-44.24-7.68
					c-4.66-0.47-5.98-2.04-6.9-2.88c0.2-0.49,0.55-0.93,1.06-1.37c0.92,0.84,2.64,1.67,5.84,2.01l44.24,7.68c0,0,7.95,1.6,16.16,0
					l34.78-4.33C591.61,336.59,591.66,338.09,591.61,339.71z"/>
				<path class="st113" d="M489.36,331.35v1.68C489.26,332.44,489,331.67,489.36,331.35z"/>
				<path class="st116" d="M591.44,335.34l-34.78,4.33c-8.22,1.6-16.16,0-16.16,0L496.26,332c-3.2-0.34-4.93-1.17-5.84-2.01
					c1.75-1.47,5.29-2.55,9.69-3.34c14.21-2.59,37.31-2.19,37.31-2.19c16.94-0.98,28.68,0.03,36.76,1.68
					c13.82,2.85,16.92,7.6,16.92,7.6C591.24,334.2,591.35,334.74,591.44,335.34z"/>
			</g>
			<path class="st117" d="M568.9,266.31c-0.58,0.17-1.17,0.38-1.75,0.62c-3.87,1.64-7.51,3.71-10.61,6.53
				c-9.19,8.36-13.98,18.56-18.09,30.31c-1.04,2.97-1.64,6.29-2,9.68l-3.38-38.79c0,0-1.85-6.36,3.59-6.89L568.9,266.31z"/>
			<path class="st118" d="M591.44,335.34l-34.78,4.33c-8.22,1.6-16.16,0-16.16,0L496.26,332c-3.2-0.34-4.93-1.17-5.84-2.01
				c1.75-1.47,5.29-2.55,9.69-3.34c3.1,1.89,7.83,2.79,10.79,3.41c5.5,1.15,10.96,2.39,16.56,2.85c10.7,0.88,22.35,1.38,32.77-1.14
				c4.92-1.19,9.41-2.79,13.79-5.52c0.05-0.04,0.11-0.07,0.16-0.11c13.82,2.85,16.92,7.6,16.92,7.6
				C591.24,334.2,591.35,334.74,591.44,335.34z"/>
		</g>
	</g>
	<g>
		<g>
			<g>
				
					<linearGradient id="SVGID_00000139977024309930475670000014598432403329180827_" gradientUnits="userSpaceOnUse" x1="164.7324" y1="337.0039" x2="164.7324" y2="136.5298">
					<stop  offset="0" style="stop-color:#FFFFFF;stop-opacity:0"/>
					<stop  offset="0.2718" style="stop-color:#FFFDBE;stop-opacity:0.2718"/>
					<stop  offset="0.6247" style="stop-color:#FFFC6F;stop-opacity:0.6247"/>
					<stop  offset="0.8762" style="stop-color:#FFFA3D;stop-opacity:0.8762"/>
					<stop  offset="1" style="stop-color:#FFFA2A"/>
				</linearGradient>
				<polygon style="opacity:0.3;fill:url(#SVGID_00000139977024309930475670000014598432403329180827_);" points="201.45,136.53 
					128.02,136.53 123.02,337 206.44,337 				"/>
				<g>
					<g>
						<rect x="163.23" class="st120" width="3" height="118.2"/>
					</g>
					<g>
						<path class="st121" d="M171.81,77.1c0,4.14-14.14,4.14-14.14,0s3.17-7.49,7.07-7.49C168.64,69.61,171.81,72.96,171.81,77.1z"
							/>
						<g>
							<path class="st122" d="M201.45,136.45c0,1.31-16.44,2.38-36.71,2.38c-20.28,0-36.71-1.07-36.71-2.38
								c0-1.31,16.44-2.38,36.71-2.38C185.01,134.07,201.45,135.14,201.45,136.45z"/>
							<path class="st123" d="M183.67,77.19c0-0.68-8.48-1.23-18.94-1.23c-10.46,0-18.94,0.55-18.94,1.23l-17.77,59.26
								c0-1.31,16.44-2.38,36.71-2.38c20.28,0,36.71,1.07,36.71,2.38L183.67,77.19z"/>
							<path class="st121" d="M201.45,136.45L189.31,96c-8.66,12.92-25.95,29.26-56.35,23.97l-4.95,16.49
								c0-1.31,16.44-2.38,36.71-2.38C185.01,134.07,201.45,135.14,201.45,136.45z"/>
							<path class="st120" d="M183.67,77.19c0-0.68-8.48-1.23-18.94-1.23c-10.46,0-18.94,0.55-18.94,1.23l-9.41,31.38l0,0
								c33.37,4.75,48.88-26.07,48.88-26.07l0,0L183.67,77.19z"/>
						</g>
					</g>
				</g>
			</g>
			<g>
				
					<linearGradient id="SVGID_00000054238345446139772440000006179040541434707597_" gradientUnits="userSpaceOnUse" x1="446.3867" y1="337.0039" x2="446.3867" y2="136.5298">
					<stop  offset="0" style="stop-color:#FFFFFF;stop-opacity:0"/>
					<stop  offset="0.2718" style="stop-color:#FFFDBE;stop-opacity:0.2718"/>
					<stop  offset="0.6247" style="stop-color:#FFFC6F;stop-opacity:0.6247"/>
					<stop  offset="0.8762" style="stop-color:#FFFA3D;stop-opacity:0.8762"/>
					<stop  offset="1" style="stop-color:#FFFA2A"/>
				</linearGradient>
				<polygon style="opacity:0.3;fill:url(#SVGID_00000054238345446139772440000006179040541434707597_);" points="483.1,136.53 
					409.67,136.53 404.68,337 488.09,337 				"/>
				<g>
					<g>
						<rect x="444.89" class="st120" width="3" height="118.2"/>
					</g>
					<g>
						<path class="st121" d="M453.46,77.1c0,4.14-14.14,4.14-14.14,0s3.17-7.49,7.07-7.49C450.29,69.61,453.46,72.96,453.46,77.1z"
							/>
						<g>
							<path class="st122" d="M483.1,136.45c0,1.31-16.44,2.38-36.71,2.38c-20.28,0-36.71-1.07-36.71-2.38
								c0-1.31,16.44-2.38,36.71-2.38C466.66,134.07,483.1,135.14,483.1,136.45z"/>
							<path class="st123" d="M465.33,77.19c0-0.68-8.48-1.23-18.94-1.23c-10.46,0-18.94,0.55-18.94,1.23l-17.77,59.26
								c0-1.31,16.44-2.38,36.71-2.38c20.28,0,36.71,1.07,36.71,2.38L465.33,77.19z"/>
							<path class="st121" d="M483.1,136.45L470.97,96c-8.66,12.92-25.95,29.26-56.35,23.97l-4.95,16.49
								c0-1.31,16.44-2.38,36.71-2.38C466.66,134.07,483.1,135.14,483.1,136.45z"/>
							<path class="st120" d="M465.33,77.19c0-0.68-8.48-1.23-18.94-1.23c-10.46,0-18.94,0.55-18.94,1.23l-9.41,31.38l0,0
								c33.37,4.75,48.88-26.07,48.88-26.07l0,0L465.33,77.19z"/>
						</g>
					</g>
				</g>
			</g>
		</g>
	</g>
	<g>
		
			<linearGradient id="SVGID_00000122717336214365962040000000808844129537735103_" gradientUnits="userSpaceOnUse" x1="144.6904" y1="415.1982" x2="269.4033" y2="415.1982">
			<stop  offset="0" style="stop-color:#000000"/>
			<stop  offset="1" style="stop-color:#FFFFFF"/>
		</linearGradient>
		<path style="opacity:0.3;fill:url(#SVGID_00000122717336214365962040000000808844129537735103_);" d="M269.4,415.2
			c0,3.87-27.92,7.01-62.36,7.01c-34.44,0-62.36-3.14-62.36-7.01c0-3.87,27.92-7.01,62.36-7.01
			C241.48,408.19,269.4,411.33,269.4,415.2z"/>
		<g>
			<rect x="215.63" y="365.53" class="st25" width="4.2" height="20.71"/>
			<rect x="215.63" y="365.53" class="st26" width="4.2" height="7.27"/>
			<path class="st26" d="M182.05,404.73v-8.92l1.62-1.98l33.67-6.65l0.06-0.14l0.33,0.06l0.33-0.06l0.06,0.14l33.67,6.65l1.62,1.98
				v8.92c2,0.8,3.42,2.75,3.42,5.04c0,3-2.43,5.43-5.43,5.43c-3,0-5.43-2.43-5.43-5.43c0-2.29,1.42-4.24,3.42-5.04v-7.26
				l-22.44-4.44l10.69,6.91l0.92,1.69v3.04c2.1,0.75,3.61,2.74,3.61,5.1c0,3-2.43,5.43-5.43,5.43c-3,0-5.43-2.43-5.43-5.43
				c0-2.21,1.33-4.11,3.23-4.96v-2.09l-16.79-10.85l-16.79,10.85v2.09c1.9,0.85,3.23,2.74,3.23,4.96c0,3-2.43,5.43-5.43,5.43
				c-3,0-5.43-2.43-5.43-5.43c0-2.36,1.51-4.34,3.61-5.1v-3.04l0.92-1.69l10.69-6.91l-22.45,4.44v7.26c2,0.8,3.42,2.75,3.42,5.04
				c0,3-2.43,5.43-5.43,5.43c-3,0-5.43-2.43-5.43-5.43C178.63,407.48,180.05,405.53,182.05,404.73z"/>
			<path class="st26" d="M213.89,392.57v-6.98c0-2.12,1.72-3.84,3.84-3.84s3.84,1.72,3.84,3.84v6.98H213.89z"/>
			<path class="st27" d="M254.02,275.6v37.87c0,17.59-63.68,17.59-63.68,0V275.6c0-8.79,3.56-16.75,9.32-22.51
				c5.77-5.76,13.73-9.33,22.52-9.33c15.92,0,29.12,11.7,31.47,26.96C253.89,272.31,254.02,273.95,254.02,275.6z"/>
			
				<linearGradient id="SVGID_00000119828062540091399890000007116476157325321404_" gradientUnits="userSpaceOnUse" x1="190.3413" y1="298.6958" x2="254.021" y2="298.6958">
				<stop  offset="0" style="stop-color:#000000"/>
				<stop  offset="1" style="stop-color:#FFFFFF"/>
			</linearGradient>
			<path style="opacity:0.5;fill:url(#SVGID_00000119828062540091399890000007116476157325321404_);" d="M254.02,275.6v37.87
				c0,17.59-63.68,17.59-63.68,0v-23.27c4.32-1.7,11.62-6.43,16.71-19.48h46.6C253.89,272.31,254.02,273.95,254.02,275.6z"/>
			<path class="st29" d="M260.89,275.6v37.87c0,17.59-63.68,17.59-63.68,0V275.6c0-8.79,3.56-16.75,9.32-22.51
				c5.76-5.76,13.72-9.33,22.52-9.33c9.04,0,17.21,3.77,23,9.84C257.53,259.31,260.89,267.06,260.89,275.6z"/>
			
				<linearGradient id="SVGID_00000021096612163568797160000012251411319199333549_" gradientUnits="userSpaceOnUse" x1="197.211" y1="290.1358" x2="260.8911" y2="290.1358">
				<stop  offset="0" style="stop-color:#000000"/>
				<stop  offset="1" style="stop-color:#FFFFFF"/>
			</linearGradient>
			<path style="opacity:0.3;fill:url(#SVGID_00000021096612163568797160000012251411319199333549_);" d="M260.89,275.6v37.87
				c0,17.59-63.68,17.59-63.68,0v-16.91c15.51-3.36,41.86-13.35,54.84-42.96C257.53,259.31,260.89,267.06,260.89,275.6z"/>
			<g>
				<path class="st27" d="M161.07,352.39c0,2.35,1.9,4.25,4.25,4.25h55.18c2.35,0,4.25-1.9,4.25-4.25v-6.7
					c0-2.35-1.9-4.25-4.25-4.25h-55.18c-2.35,0-4.25,1.9-4.25,4.25V352.39z"/>
				
					<linearGradient id="SVGID_00000080188539030604694810000012867618847407570061_" gradientUnits="userSpaceOnUse" x1="161.0713" y1="350.9497" x2="224.7612" y2="350.9497">
					<stop  offset="0" style="stop-color:#000000"/>
					<stop  offset="1" style="stop-color:#FFFFFF"/>
				</linearGradient>
				<path style="opacity:0.3;fill:url(#SVGID_00000080188539030604694810000012867618847407570061_);" d="M224.76,345.68v6.71
					c0,2.35-1.91,4.25-4.26,4.25h-55.18c-2.34,0-4.25-1.9-4.25-4.25v-6.71c0-0.15,0.01-0.29,0.02-0.43
					c0.24,2.13,2.05,3.79,4.23,3.79h55.18c2.19,0,4-1.66,4.24-3.79C224.75,345.39,224.76,345.54,224.76,345.68z"/>
				<path class="st29" d="M197.21,352.39c0,2.35,1.9,4.25,4.25,4.25h55.18c2.35,0,4.25-1.9,4.25-4.25v-6.7
					c0-2.35-1.9-4.25-4.25-4.25h-55.18c-2.35,0-4.25,1.9-4.25,4.25V352.39z"/>
				
					<linearGradient id="SVGID_00000005975109718218926040000008248194243156515464_" gradientUnits="userSpaceOnUse" x1="197.211" y1="350.9497" x2="260.8911" y2="350.9497">
					<stop  offset="0" style="stop-color:#000000"/>
					<stop  offset="1" style="stop-color:#FFFFFF"/>
				</linearGradient>
				<path style="opacity:0.3;fill:url(#SVGID_00000005975109718218926040000008248194243156515464_);" d="M260.89,345.68v6.71
					c0,2.35-1.9,4.25-4.25,4.25h-55.18c-2.35,0-4.25-1.9-4.25-4.25v-6.71c0-0.15,0.01-0.29,0.02-0.43c0.24,2.13,2.04,3.79,4.23,3.79
					h55.18c2.19,0,3.99-1.66,4.23-3.79C260.88,345.39,260.89,345.54,260.89,345.68z"/>
				<rect x="178.49" y="356.64" class="st25" width="43.69" height="5.05"/>
				<rect x="207.05" y="356.64" class="st26" width="43.69" height="5.05"/>
				<path class="st25" d="M225.46,361.68c0,2.12-1.72,3.84-3.84,3.84h-29.14c-2.12,0-3.84-1.72-3.84-3.84H225.46z"/>
				<path class="st26" d="M247.46,361.68c0,2.12-1.72,3.84-3.84,3.84h-29.14c-2.12,0-3.84-1.72-3.84-3.84H247.46z"/>
			</g>
			<path class="st25" d="M222.74,356.46v-51.01c0-1.81,1.47-3.28,3.28-3.28h3.1c1.81,0,3.28,1.47,3.28,3.28v51.01H222.74z"/>
			<path class="st26" d="M225.39,356.46v-51.01c0-1.81,1.47-3.28,3.28-3.28h3.1c1.81,0,3.28,1.47,3.28,3.28v51.01H225.39z"/>
		</g>
	</g>
</g>
</svg>
