<?xml version="1.0" ?>
<!-- Uploaded to: SVG Repo, www.svgrepo.com, Generator: SVG Repo Mixer Tools -->
<svg fill="#000000" width="800px" height="800px" viewBox="0 0 24 24" version="1.1" xml:space="preserve" xmlns="http://www.w3.org/2000/svg" xmlns:xlink="http://www.w3.org/1999/xlink">
<g id="Guides"/>
<g id="_x32_0"/>
<g id="_x31_9"/>
<g id="_x31_8"/>
<g id="_x31_7"/>
<g id="_x31_6"/>
<g id="_x31_5"/>
<g id="_x31_4"/>
<g id="_x31_3"/>
<g id="_x31_2"/>
<g id="_x31_1"/>
<g id="_x31_0"/>
<g id="_x30_9"/>
<g id="_x30_8"/>
<g id="_x30_7"/>
<g id="_x30_6"/>
<g id="_x30_5"/>
<g id="_x30_4"/>
<g id="_x30_3"/>
<g id="_x30_2"/>
<g id="_x30_1">
<path d="M21.3417969,8.4375c-0.8396606-1.6569824-2.3721313-2.8443604-4.1586304-3.2677612   C16.0726318,3.2120972,14.029541,2,11.7597656,2h-0.5195313C8.223999,2,5.7014771,4.1516113,5.1246338,7H5   c-1.6542969,0-3,1.3457031-3,3v1.5302734c0,1.8720703,1.0834961,3.6279297,2.769043,4.4775391L6,16.6201172V18   c0,0.5527344,0.4477539,1,1,1h1.7545776c0.0041504,0.0020752,0.010498,0.0057983,0.0144653,0.0078125L10,19.6201172V21   c0,0.5527344,0.4477539,1,1,1h7c0.5527344,0,1-0.4472656,1-1l0.0029297-1.4658203l0.7714844-0.5117188   C21.1679688,18.09375,22,16.5371094,22,14.8603516v-3.6201172C22,10.2675781,21.7802734,9.328125,21.3417969,8.4375z M9.0302734,17   c-0.0001221,0-0.0001831,0.000061-0.0003052,0.000061C9.0299072,17.000061,9.0298462,17,9.0297852,17H8v-0.3798828   c0-0.7666016-0.4223633-1.4550781-1.1088867-1.7978516l-1.230957-0.6044922C4.6518555,13.7089844,4,12.6542969,4,11.5302734V10   c0-0.5517578,0.4487305-1,1-1v1c0,0.5527344,0.4477539,1,1,1s1-0.4472656,1-1V8.2402344C7,5.9023438,8.9023438,4,11.2402344,4   h0.5195313c1.6162109,0,3.0712891,0.8964844,3.8095703,2.3613281c0.0045166,0.0137939,0.015564,0.0228882,0.0206299,0.036377   c0.0095215,0.0256958,0.0125732,0.0527954,0.024292,0.0778809C15.8671875,7.0107422,16,7.6210938,16,8.2402344v3.6201172   c0,1.0068359-0.4990234,1.9404297-1.3330078,2.4960938l-0.7763672,0.515625C13.3330078,15.2480469,13,15.8720703,13,16.5400391V17   H9.0302734z M20,14.8603516c0,1.0068359-0.4990234,1.9404297-1.3330078,2.4960938l-0.7763672,0.515625   C17.3330078,18.2480469,17,18.8720703,17,19.5400391V20h-5v-0.3798828C12,19.4052734,11.9667969,19.1962891,11.9038086,19H14   c0.5527344,0,1-0.4472656,1-1l0.0029297-1.4658203l0.7714844-0.5117188C17.1679688,15.09375,18,13.5371094,18,11.8603516V8.2402344   c0-0.2080078-0.0107422-0.4150391-0.0302734-0.6210938c0.6679688,0.4091797,1.2216797,0.9980469,1.5830078,1.7119141   C19.8496094,9.9345703,20,10.5761719,20,11.2402344V14.8603516z"/>
</g>
</svg>