<?xml version="1.0" ?>

<!-- Uploaded to: SVG Repo, www.svgrepo.com, Generator: SVG Repo Mixer Tools -->
<svg fill="#000000" width="800px" height="800px" viewBox="0 0 512 512" version="1.1" xml:space="preserve" xmlns="http://www.w3.org/2000/svg" xmlns:xlink="http://www.w3.org/1999/xlink">

<g id="camera-photo-heart-love-valentine">

<path d="M440,128h-91.238l-23.297-42.953C318.574,72.063,305.109,64,290.32,64H221.68c-14.789,0-28.254,8.063-35.109,20.984   L163.238,128H136v-8c0-8.837-7.163-16-16-16H88c-8.836,0-16,7.163-16,16v8c-22.055,0-40,17.945-40,40v176c0,22.055,17.945,40,40,40   h99.62c22.556,19.851,52.043,32,84.38,32s61.824-12.149,84.38-32H440c22.055,0,40-17.945,40-40V168   C480,145.945,462.055,128,440,128z M440,176v16c0,4.418-3.582,8-8,8h-40c-4.418,0-8-3.582-8-8v-16c0-4.418,3.582-8,8-8h40   C436.418,168,440,171.582,440,176z M220.945,128l5.789-11.578c1.363-2.727,4.105-4.422,7.156-4.422h44.219   c3.051,0,5.793,1.695,7.156,4.422L291.055,128H220.945z M82.745,232c8.487,0,16.626,3.371,22.627,9.373l24.652,24.652   C128.779,273.18,128,280.494,128,288c0,13.976,2.331,27.399,6.49,40H48v-96H82.745z M377.51,328c4.16-12.601,6.49-26.024,6.49-40   c0-7.506-0.779-14.82-2.025-21.975l24.652-24.652c6.001-6.001,14.141-9.373,22.627-9.373H464v96H377.51z M144,288   c0-61.758,50.242-112,112-112s112,50.242,112,112s-50.242,112-112,112S144,349.758,144,288z M256,200c-48.56,0-88,39.44-88,88   s39.44,88,88,88s88-39.44,88-88S304.56,200,256,200z M301.76,305.6l-32.48,32.88c-7.36,7.36-19.2,7.36-26.56,0l-32.48-32.88   c-11.84-12-13.92-31.2-3.6-44.64c12.4-16.16,35.52-17.2,49.36-3.2c13.84-14,36.96-12.96,49.36,3.2   C315.68,274.4,313.6,293.6,301.76,305.6z"/>

</g>

<g id="Layer_1"/>

</svg>