<?xml version="1.0" encoding="iso-8859-1"?>
<!-- Uploaded to: SVG Repo, www.svgrepo.com, Generator: SVG Repo Mixer Tools -->
<svg fill="#000000" height="800px" width="800px" version="1.1" id="Layer_1" xmlns="http://www.w3.org/2000/svg" xmlns:xlink="http://www.w3.org/1999/xlink" 
	 viewBox="0 0 511.999 511.999" xml:space="preserve">
<g>
	<g>
		<path d="M165.784,333.772c-2.328-3.836-7.324-5.057-11.16-2.729c-20.556,12.479-32.829,34.269-32.829,58.286v64.441
			c0,4.487,3.637,8.124,8.124,8.124c4.486,0,8.124-3.637,8.124-8.124V389.33c0-18.292,9.35-34.889,25.012-44.398
			C166.891,342.603,168.111,337.607,165.784,333.772z"/>
	</g>
</g>
<g>
	<g>
		<path d="M293.929,483.446H138.043v-2.596c0-4.486-3.637-8.124-8.124-8.124c-4.486,0-8.124,3.637-8.124,8.124v10.72
			c0,4.486,3.637,8.124,8.124,8.124h164.01c4.486,0,8.124-3.637,8.124-8.124S298.415,483.446,293.929,483.446z"/>
	</g>
</g>
<g>
	<g>
		<path d="M295.422,359.983c-4.169-1.657-8.892,0.381-10.549,4.55c-6.044,15.212-20.525,25.042-36.893,25.042
			c-16.36,0-30.838-9.83-36.882-25.042c-1.656-4.17-6.379-6.208-10.549-4.55c-4.17,1.657-6.207,6.38-4.55,10.549
			c8.518,21.438,28.922,35.291,51.981,35.291c23.067,0,43.475-13.853,51.992-35.291C301.629,366.363,299.591,361.64,295.422,359.983
			z"/>
	</g>
</g>
<g>
	<g>
		<path d="M127.205,291.83c-1.675-4.163-6.407-6.178-10.568-4.504c-6.155,2.477-12.571,4.068-19.153,4.793v-30.851
			c4.332,0.479,8.603,1.338,12.766,2.577c4.305,1.281,8.825-1.17,10.104-5.469c1.279-4.3-1.169-8.823-5.469-10.104
			c-8.253-2.456-16.84-3.701-25.524-3.701C40.087,244.571,0,284.658,0,333.933s40.087,89.361,89.361,89.361
			c6.059,0,12.116-0.611,18.002-1.815c4.396-0.9,7.229-5.193,6.329-9.588c-0.9-4.396-5.192-7.227-9.588-6.329
			c-2.18,0.446-4.392,0.779-6.619,1.025V375.74c4.269,0.471,8.479,1.312,12.583,2.521c4.302,1.272,8.82-1.193,10.089-5.496
			c1.268-4.303-1.194-8.82-5.497-10.089c-5.595-1.649-11.346-2.728-17.176-3.255v-50.965c8.672-0.779,17.125-2.801,25.217-6.057
			C126.863,300.724,128.879,295.991,127.205,291.83z M81.236,406.584c-14.009-1.557-26.828-7.088-37.317-15.437
			c10.765-8.589,23.609-13.895,37.317-15.399V406.584z M81.236,359.418c-18.065,1.616-34.986,8.597-48.904,20.192
			c-10.053-12.523-16.086-28.406-16.086-45.678c0-17.269,6.031-33.148,16.081-45.672c13.926,11.593,30.849,18.573,48.909,20.189
			V359.418z M81.236,292.122c-13.705-1.505-26.552-6.81-37.324-15.398c10.49-8.351,23.312-13.885,37.324-15.442V292.122z"/>
	</g>
</g>
<g>
	<g>
		<path d="M503.875,443.884h-23.303v-31.439c0-4.486-3.637-8.124-8.124-8.124h-44.153c-4.486,0-8.124,3.637-8.124,8.124v31.439
			H373.3v-31.439c0-4.486-3.637-8.124-8.124-8.124h-44.154c-4.486,0-8.124,3.637-8.124,8.124v31.439h-23.302
			c-4.487,0-8.124,3.637-8.124,8.124c0,4.486,3.637,8.124,8.124,8.124h23.302v31.439c0,4.486,3.637,8.124,8.124,8.124h44.154
			c4.486,0,8.124-3.637,8.124-8.124v-31.439h46.872v31.439c0,4.486,3.637,8.124,8.124,8.124h44.153c4.487,0,8.124-3.637,8.124-8.124
			v-31.439h23.303c4.486,0,8.124-3.637,8.124-8.124C511.999,447.521,508.362,443.884,503.875,443.884z M357.052,483.446h-27.907
			v-62.878h27.907V483.446z M464.324,483.446h-27.906v-62.878h27.906V483.446z"/>
	</g>
</g>
<g>
	<g>
		<path d="M199.762,215.061c-4.486,0-8.124,3.637-8.124,8.124v12.994c0,4.486,3.637,8.124,8.124,8.124s8.124-3.637,8.124-8.124
			v-12.994C207.885,218.698,204.248,215.061,199.762,215.061z"/>
	</g>
</g>
<g>
	<g>
		<path d="M320.516,197.402c-13.406-13.41-35.226-13.41-48.634,0c-3.173,3.173-3.173,8.317,0,11.488
			c3.173,3.173,8.317,3.173,11.488,0c7.074-7.073,18.584-7.073,25.658,0c1.586,1.586,3.665,2.38,5.744,2.38
			c2.079,0,4.158-0.793,5.744-2.38C323.689,205.717,323.689,200.573,320.516,197.402z"/>
	</g>
</g>
<g>
	<g>
		<path d="M224.079,197.403c-13.407-13.409-35.226-13.41-48.635,0c-3.173,3.173-3.173,8.317,0,11.488
			c3.173,3.173,8.317,3.173,11.488,0c7.075-7.073,18.584-7.074,25.659,0c1.586,1.586,3.665,2.38,5.744,2.38
			c2.079,0,4.158-0.793,5.744-2.38C227.251,205.718,227.251,200.574,224.079,197.403z"/>
	</g>
</g>
<g>
	<g>
		<path d="M296.2,215.061c-4.486,0-8.124,3.637-8.124,8.124v12.994c0,4.486,3.637,8.124,8.124,8.124
			c4.487,0,8.124-3.637,8.124-8.124v-12.994C304.324,218.698,300.687,215.061,296.2,215.061z"/>
	</g>
</g>
<g>
	<g>
		<path d="M285.07,279.338c-3.173-3.173-8.317-3.173-11.489,0c-14.116,14.116-37.084,14.117-51.202,0
			c-3.173-3.174-8.317-3.173-11.488,0c-3.173,3.173-3.173,8.317,0,11.488c10.225,10.225,23.657,15.339,37.09,15.339
			s26.864-5.113,37.09-15.339C288.243,287.653,288.243,282.509,285.07,279.338z"/>
	</g>
</g>
<g>
	<g>
		<path d="M256.473,245.546h-0.369v-16.789c0-4.486-3.637-8.124-8.124-8.124c-4.487,0-8.124,3.637-8.124,8.124v16.789h-0.369
			c-4.487,0-8.124,3.637-8.124,8.124s3.637,8.124,8.124,8.124h16.986c4.487,0,8.124-3.637,8.124-8.124
			S260.959,245.546,256.473,245.546z"/>
	</g>
</g>
<g>
	<g>
		<path d="M472.066,304.973c-1.043-3.417-4.197-5.753-7.77-5.753h-10.745c-16.926,0-30.695-13.769-30.695-30.695V99.932
			c0-48.318-39.306-87.627-87.619-87.627c-27.829,0-51.969,17.519-60.812,43.324c-8.594-2.02-17.461-3.059-26.444-3.059
			c-41.496,0-79.327,21.991-99.918,57.711h-5.711c-3.849,0-7.168,2.7-7.953,6.468l-9.549,45.851
			c-0.498,2.394,0.107,4.885,1.65,6.782c1.303,1.603,3.16,2.629,5.179,2.91l-0.363,3.758c-16.711,1.816-29.762,16.007-29.762,33.193
			c0,15.031,9.861,27.763,23.595,31.943c-1.355,30.046,12.561,59.222,37.038,77.007l44.463,32.299
			c12.362,8.983,26.845,13.474,41.332,13.472c14.484-0.001,28.971-4.492,41.33-13.472l44.465-32.3
			c24.476-17.784,38.392-46.962,37.037-77.009c13.735-4.182,23.595-16.911,23.595-31.94c0-17.182-13.05-31.371-29.762-33.191
			l-0.364-3.76c2.018-0.283,3.874-1.308,5.179-2.91c1.542-1.897,2.149-4.388,1.65-6.782l-9.549-45.851
			c-0.784-3.767-4.105-6.468-7.953-6.468h-5.702c-5.97-10.344-13.484-19.664-22.39-27.752
			c-10.524-9.563-22.587-16.996-35.571-22.067c6.736-19.028,24.657-31.909,45.291-31.909c39.355,0,71.372,32.021,71.372,71.379
			v168.597c0,19.676,12.168,36.562,29.374,43.531c-19.213,6.991-47.63,12.427-75.959-0.038c-4.107-1.808-8.9,0.056-10.707,4.164
			c-1.807,4.107,0.057,8.9,4.164,10.707c14.739,6.485,29.328,8.914,42.929,8.913c39.547-0.003,70.689-20.554,72.424-21.722
			C471.796,312.088,473.109,308.391,472.066,304.973z M126.654,224.259c-5.296-2.921-8.854-8.549-8.854-15.017
			c0-7.617,4.997-14.082,11.882-16.31L126.654,224.259z M378.161,209.243c0,6.465-3.558,12.091-8.854,15.014l-3.029-31.322
			C373.164,195.164,378.161,201.628,378.161,209.243z M239.857,69.16v41.121h-72.515C184.235,86.591,210.651,71.531,239.857,69.16z
			 M354.329,238.194c2.508,25.923-9.027,51.54-30.102,66.853l-44.465,32.3c-19.01,13.814-44.554,13.813-63.564,0l-44.463-32.299
			c-21.076-15.314-32.611-40.931-30.104-66.854l6.362-65.814h199.974L354.329,238.194z M347.003,126.528l6.165,29.604H142.792
			l6.165-29.604H347.003z M314.593,94.556c5.245,4.763,9.916,10.028,13.994,15.724h-72.483V69.168
			C277.822,70.945,298.342,79.789,314.593,94.556z"/>
	</g>
</g>
<g>
	<g>
		<path d="M341.333,331.044c-3.834-2.328-8.831-1.107-11.16,2.729c-2.328,3.836-1.107,8.831,2.729,11.16
			c15.661,9.508,25.012,26.105,25.012,44.398c0,4.486,3.637,8.124,8.124,8.124c4.487,0,8.124-3.637,8.124-8.124
			C374.162,365.313,361.89,343.523,341.333,331.044z"/>
	</g>
</g>
</svg>