<?xml version="1.0" encoding="utf-8"?>

<!-- Uploaded to: SVG Repo, www.svgrepo.com, Generator: SVG Repo Mixer Tools -->
<svg fill="#000000" version="1.1" id="Layer_1" xmlns="http://www.w3.org/2000/svg" xmlns:xlink="http://www.w3.org/1999/xlink" 
	 viewBox="0 0 24 24" xml:space="preserve">
<style type="text/css">
	.st0{fill:none;}
</style>
<path d="M7.8,17.9c-3.2,0-5.9-2.6-5.9-5.9s2.6-5.9,5.9-5.9c1.5,0,2.9,0.6,4,1.5l-1.7,1.7C9.4,8.8,8.6,8.5,7.8,8.5
	c-2,0-3.5,1.6-3.5,3.5s1.6,3.5,3.5,3.5c1.6,0,2.8-1,3.2-2.3H7.8V11h5.5C13.8,13.3,12.7,17.9,7.8,17.9z M19.9,13v2.1h-2.1V13h-2.1v-2
	h2.1V8.9h2.1V11H22v2H19.9z"/>
<rect class="st0" width="24" height="24"/>
</svg>