<svg height="512pt" viewBox="0 -101 512.001 512" width="512pt" xmlns="http://www.w3.org/2000/svg"><path d="m505.121094 97.957031-245.105469-97.1875c-2.589844-1.027343-5.441406-1.027343-8.03125 0l-245.105469 97.1875c-4.179687 1.65625-6.878906 5.632813-6.878906 10.128907 0 4.496093 2.699219 8.472656 6.878906 10.128906l245.105469 97.183594c1.292969.515624 2.65625.773437 4.015625.773437s2.722656-.257813 4.015625-.773437l190.570313-75.558594v29.101562h-1.347657c-7.589843 0-13.761719 6.175782-13.761719 13.761719v20.890625l-7.699218 73.820312c-.335938 3.238282.71875 6.480469 2.898437 8.898438 2.175781 2.417969 5.292969 3.804688 8.546875 3.804688h37.722656c3.253907 0 6.371094-1.386719 8.546876-3.804688 2.179687-2.417969 3.234374-5.660156 2.898437-8.898438l-7.699219-73.820312v-20.890625c0-7.585937-6.171875-13.761719-13.761718-13.761719h-1.34375v-35.050781l39.535156-15.675781c4.179687-1.660156 6.878906-5.636719 6.878906-10.128906 0-4.496094-2.699219-8.472657-6.878906-10.128907zm-62.023438 177.160157 6.636719-63.632813h16.699219l6.636718 63.632813zm22.59375-78.632813h-15.21875v-12.542969h15.21875zm-8.671875-75.335937-202.65625-20.527344c-4.125-.410156-7.796875 2.585937-8.214843 6.707031-.417969 4.121094 2.582031 7.800781 6.703124 8.21875l173.882813 17.613281-170.734375 67.695313-233.96875-92.769531 233.96875-92.773438 233.96875 92.773438zm0 0"/><path d="m406.375 187.910156c-.71875-4.078125-4.609375-6.800781-8.6875-6.085937-4.078125.714843-6.804688 4.605469-6.085938 8.683593l9.621094 54.726563c.046875.273437-.007812.527344-.171875.753906-.113281.15625-.324219.355469-.679687.410157-19.570313 2.894531-72.773438 13.398437-143.902344 48.355468-.292969.144532-.640625.140625-.933594 0-71.128906-34.957031-124.332031-45.464844-143.90625-48.355468-.355468-.054688-.5625-.253907-.679687-.410157-.160157-.226562-.21875-.480469-.171875-.757812l9.496094-53.984375c.714843-4.082032-2.007813-7.96875-6.089844-8.6875-4.078125-.714844-7.96875 2.007812-8.6875 6.089844l-9.492188 53.984374c-.753906 4.292969.234375 8.597657 2.78125 12.128907 2.550782 3.539062 6.332032 5.835937 10.648438 6.472656 18.875 2.792969 70.253906 12.957031 139.488281 46.980469 2.214844 1.089844 4.644531 1.632812 7.078125 1.632812s4.863281-.542968 7.082031-1.632812c69.230469-34.023438 120.609375-44.1875 139.484375-46.980469 4.316406-.636719 8.097656-2.9375 10.648438-6.472656 2.546875-3.53125 3.535156-7.839844 2.78125-12.128907zm0 0"/></svg>