<?xml version="1.0" encoding="utf-8"?>
<!-- Generator: Adobe Illustrator 26.0.1, SVG Export Plug-In . SVG Version: 6.00 Build 0)  -->
<svg version="1.1" xmlns="http://www.w3.org/2000/svg" xmlns:xlink="http://www.w3.org/1999/xlink" x="0px" y="0px"
	 viewBox="0 0 500 500" style="enable-background:new 0 0 500 500;" xml:space="preserve">
<style type="text/css">
	.st0{fill:#FFFFFF;}
	.st1{fill:#DDDDDD;}
	.st2{fill:#242526;}
	.st3{fill:#1D1D1E;}
	.st4{fill:#EDB996;}
	.st5{fill:#FCD8A9;}
	.st6{fill:#F4C29D;}
	.st7{fill:#D8A887;}
	.st8{fill:#407691;}
	.st9{fill:#38697C;}
	.st10{fill:#4A8BA5;}
	.st11{fill:#AAAFB2;}
	.st12{fill:#C4C8CC;}
	.st13{fill:#EFEFEF;}
	.st14{fill:#959B9E;}
	.st15{fill:#B7BABC;}
	.st16{fill:#B6B9BA;}
	.st17{fill:#D0D3D6;}
	.st18{fill:#D7DADB;}
	.st19{fill:#9DA2A5;}
	.st20{fill:#CCCACA;}
	.st21{fill:#AD7E4E;}
	.st22{fill:#353535;}
	.st23{fill:#303030;}
	.st24{fill:#333844;}
	.st25{fill:#C99455;}
	.st26{fill:#282C33;}
	.st27{fill:#BA874F;}
	.st28{fill:#3A404C;}
	.st29{fill:#C4C4C4;}
	.st30{fill:#1B1E23;}
	.st31{fill:#DBDBDB;}
	.st32{fill:#E0B66C;}
	.st33{fill:#CEA563;}
	.st34{fill:#B79056;}
	.st35{fill:#A0A0A0;}
	.st36{fill:#7F7F7F;}
	.st37{fill:#C1985D;}
	.st38{fill:#C6905C;}
	.st39{fill:#893E3A;}
	.st40{fill:#F9C4AA;}
	.st41{fill:#707070;}
	.st42{fill:#EFC360;}
	.st43{fill:#EA5E5E;}
	.st44{fill:#CE5252;}
	.st45{fill:#7C3432;}
	.st46{fill:#2B2C2D;}
	.st47{fill:#E8B491;}
	.st48{fill:#C46060;}
	.st49{fill:#D36A6A;}
	.st50{fill:#D6AA54;}
	.st51{fill:#FFD68D;}
	.st52{fill:#FFECD7;}
	.st53{fill:#BBC0C4;}
	.st54{fill:#D4D6D8;}
	.st55{fill:#989C9E;}
	.st56{fill:#D19A5E;}
	.st57{fill:#BC8A53;}
	.st58{fill:#424242;}
</style>
<g id="BACKGROUND">
	<rect id="XMLID_137_" class="st0" width="500" height="500"/>
</g>
<g id="OBJECTS">
	<g>
		<ellipse id="XMLID_228_" class="st1" cx="251.79" cy="422.22" rx="88.28" ry="7.78"/>
		<g id="XMLID_225_">
			<path id="XMLID_61_" class="st2" d="M274.09,399.92c0,0-1.33,6.53-1.57,12.93c0,0,0.85,4.59,9.55,7.98
				c8.7,3.38,22.72,4.11,23.81,3.38c1.09-0.73-15.47-20.18-21.88-24.29H274.09z"/>
			<path id="XMLID_124_" class="st3" d="M284,399.92h-9.91c0,0-0.47,2.32-0.9,5.55c2.71,1.08,8.22,2.68,13.87,0.72
				c0,0,13.95,12.6,12.94,18.16c3.17,0.21,5.47,0.15,5.88-0.13C306.96,423.48,290.4,404.03,284,399.92z"/>
			<path id="XMLID_62_" class="st2" d="M229.19,400.81c0,0,1.33,7.84,1.57,14.24c0,0-0.87,1.96-9.58,5.34
				c-8.7,3.38-24.95,1.17-26.04,0.45c-1.09-0.73,17.73-15.92,24.13-20.03H229.19z"/>
			<path id="XMLID_125_" class="st3" d="M230.76,415.05c-0.24-6.41-1.57-14.24-1.57-14.24h-9.91c-1.38,0.89-3.34,2.29-5.56,3.95
				c3.8,0.89,9.25,1.97,12.35,1.67c0,0,1.65,8.36-8.27,14.94c1.21-0.26,2.35-0.58,3.38-0.98
				C229.88,417.01,230.76,415.05,230.76,415.05z"/>
			<path id="XMLID_60_" class="st2" d="M212.58,255.36c0,0-8.16,70.82,2.23,146.49c0,0,6.08,4.15,16.17,0
				c0,0,9.89-110.74,12.67-121.36h2.76c0,0,18.94,100.88,25.05,120.76c0,0,8.19,4.6,15.61-1.04c0,0-5.34-127.44-5.64-142.87
				C281.41,257.35,229.49,249.52,212.58,255.36z"/>
			<path id="XMLID_45_" class="st4" d="M177.06,238.08c0,0,3.67-0.28,4.84-1.45c1.17-1.17,2.78-7.29,2.78-7.29l-1.71-2.98l-11,7.09
				l0.96,3.28L177.06,238.08z"/>
			<path id="XMLID_42_" class="st5" d="M175.84,237.3c0,0,2.67,0,3.28,1.28c0.61,1.28-0.39,5.06-1,5.84
				c-0.61,0.78-5.12,0.78-5.84,0.33C171.56,244.31,175.84,237.3,175.84,237.3z"/>
			<path id="XMLID_179_" class="st6" d="M179.12,238.58c-0.61-1.28-3.28-1.28-3.28-1.28s-1.28,2.1-2.32,4.07l0.38,1.32
				c0,0,2.74-0.78,4.38,1.48C178.88,243.06,179.69,239.76,179.12,238.58z"/>
			<g id="XMLID_182_">
				<path class="st7" d="M176.76,237.37c0.57,0.06,1.14,0.17,1.67,0.44c0.26,0.13,0.5,0.33,0.67,0.57c0.17,0.26,0.24,0.56,0.28,0.85
					c0.11,1.17-0.13,2.32-0.41,3.44c-0.16,0.56-0.35,1.11-0.63,1.63c-0.07,0.12-0.18,0.27-0.32,0.35c-0.14,0.09-0.28,0.14-0.42,0.18
					c-0.28,0.09-0.57,0.14-0.86,0.18c-1.15,0.14-2.31,0.13-3.45-0.03c1.14,0.06,2.3,0.01,3.42-0.16c0.28-0.05,0.56-0.11,0.82-0.19
					c0.27-0.1,0.49-0.18,0.61-0.44c0.26-0.49,0.43-1.04,0.59-1.58c0.3-1.09,0.53-2.23,0.46-3.35c-0.03-0.28-0.08-0.55-0.22-0.78
					c-0.15-0.23-0.36-0.41-0.6-0.55C177.88,237.63,177.32,237.47,176.76,237.37z"/>
			</g>
			<path id="XMLID_44_" class="st5" d="M173.71,234.38c0,0,1.84,1.67,2.34,3c0.5,1.34,1,3.73,0.78,4.45s-5.04,3.56-5.86,3.62
				c-0.82,0.06-4.27-3.06-4.27-3.06L173.71,234.38z"/>
			<path id="XMLID_41_" class="st5" d="M176.48,219.05c0,0-11.77,5.46-13.72,7.9c-1.95,2.45-2.84,9.96-2.84,11.35
				c0,1.39,4.73,6.68,5.84,8.07c0,0,1.91-0.88,2-2.06c0.22-2.78-2.34-6.68-2.11-8.18c0,0,16.25-8.79,16.69-9.96
				C182.79,225,176.48,219.05,176.48,219.05z"/>
			<path id="XMLID_178_" class="st6" d="M173.71,234.38l-3.62,4.14l1.92,2.2c0.06,0.06,3.07-0.8,4.65,1.35
				c0.08-0.09,0.15-0.17,0.16-0.24c0.22-0.72-0.28-3.12-0.78-4.45C175.55,236.05,173.71,234.38,173.71,234.38z"/>
			<g id="XMLID_176_">
				<path class="st7" d="M174.2,234.86c0.86,0.84,1.76,1.77,2.11,2.98c0.37,1.17,0.67,2.37,0.7,3.62c-0.02,0.16-0.01,0.32-0.11,0.49
					c-0.1,0.17-0.21,0.26-0.33,0.38c-0.23,0.21-0.48,0.39-0.73,0.57c-0.5,0.35-1.02,0.69-1.55,1c-1.06,0.59-2.13,1.25-3.32,1.55
					c0.59-0.15,1.12-0.48,1.65-0.77c0.53-0.3,1.05-0.61,1.57-0.94c0.51-0.33,1.02-0.66,1.51-1.02c0.25-0.18,0.48-0.36,0.7-0.56
					c0.23-0.21,0.37-0.38,0.35-0.7c0-1.19-0.3-2.4-0.63-3.56C175.83,236.73,175,235.77,174.2,234.86z"/>
			</g>
			<path id="XMLID_43_" class="st5" d="M166.88,242.69c0,0,5.56-0.33,6.56-1.67c1-1.34,0-7.57,0-7.57l-6.56,3.23l-1.45,1.95
				L166.88,242.69z"/>
			<path id="XMLID_177_" class="st6" d="M173.45,233.46l-5.57,2.74c1.44,0.2,4.68,1.03,5.57,4.83
				C174.45,239.69,173.45,233.46,173.45,233.46z"/>
			<g id="XMLID_100_">
				<path class="st7" d="M168.21,242.58c0.92-0.15,1.83-0.32,2.72-0.53c0.86-0.24,1.85-0.46,2.42-1.09
					c0.23-0.34,0.32-0.81,0.37-1.26c0.05-0.45,0.06-0.91,0.08-1.37c0.01-0.92-0.03-1.85-0.08-2.77c0.14,0.92,0.24,1.84,0.27,2.77
					c0.02,0.47,0,0.93-0.04,1.4c-0.05,0.46-0.11,0.95-0.4,1.38c-0.34,0.4-0.79,0.59-1.23,0.76c-0.44,0.16-0.9,0.28-1.35,0.37
					C170.06,242.42,169.13,242.52,168.21,242.58z"/>
			</g>
			<path id="XMLID_175_" class="st6" d="M171.98,232.64c0.58-3.67,1.24-8.28,1.24-8.28c-2.29,1.13-8.27,7.64-8.77,9.73
				c-0.39,1.64-0.61,7.49-0.68,9.9c0.86,1.03,1.62,1.92,1.99,2.38c0,0,1.91-0.88,2-2.06c0.22-2.78-2.34-6.68-2.11-8.18
				C165.66,236.13,168.58,234.55,171.98,232.64z"/>
			<g id="XMLID_155_">
				<path class="st7" d="M162.41,242.3c1.17,1.31,2.3,2.66,3.43,4l-0.11-0.03c0.42-0.21,0.82-0.47,1.17-0.78
					c0.34-0.31,0.66-0.68,0.73-1.11c0.1-0.91-0.11-1.87-0.36-2.78c-0.26-0.92-0.62-1.81-0.95-2.7c-0.17-0.45-0.34-0.9-0.47-1.36
					c-0.13-0.46-0.25-0.94-0.19-1.42c-0.02,0.97,0.47,1.84,0.79,2.73c0.35,0.89,0.73,1.78,1.01,2.7c0.27,0.92,0.52,1.87,0.41,2.88
					c-0.1,0.53-0.47,0.92-0.83,1.23c-0.38,0.32-0.79,0.57-1.23,0.78l-0.07,0.03l-0.05-0.06C164.59,245.06,163.48,243.7,162.41,242.3
					z"/>
			</g>
			<g id="XMLID_207_">
				<path id="XMLID_48_" class="st8" d="M166.36,220.07l-2.76,34.2c-0.23,2.82-0.03,5.66,0.57,8.42c1.04-2.63,1.69-5.4,1.92-8.22
					l2.76-34.2L166.36,220.07z"/>
				<path id="XMLID_214_" class="st9" d="M168.79,221.07h-1.23l-1.73,14.01l-0.89,2.61l-0.18,2.19c0.35,0.13,0.85,0.26,1.42,0.27
					c0,0-0.81,12.47-1.02,13.23c-0.08,0.3,0.38,0.53,0.97,0.7L168.79,221.07z"/>
				<path id="XMLID_216_" class="st10" d="M166.27,221.21L166.27,221.21l-1.11,13.81c0.21-0.14,0.5-0.45,0.58-1.05
					c0.13-0.88,0.97-12.72,0.97-12.72L166.27,221.21z"/>
				<path id="XMLID_50_" class="st11" d="M166.09,254.46l-2.49-0.2c-0.23,2.82-0.03,5.66,0.57,8.42
					C165.22,260.05,165.87,257.28,166.09,254.46z"/>
				
					<rect id="XMLID_46_" x="163.64" y="253.36" transform="matrix(0.9968 0.0804 -0.0804 0.9968 20.9513 -12.4389)" class="st12" width="2.5" height="1"/>
				<path id="XMLID_47_" class="st11" d="M167.8,217.76L167.8,217.76c-0.38-0.03-0.72,0.25-0.75,0.64l-0.14,1.71l1.39,0.11
					l0.14-1.71C168.47,218.13,168.18,217.79,167.8,217.76z"/>
				
					<rect id="XMLID_51_" x="166.31" y="220.16" transform="matrix(0.9968 0.0805 -0.0805 0.9968 18.3045 -12.7667)" class="st12" width="2.5" height="1.15"/>
				<path id="XMLID_49_" class="st13" d="M166.51,230.44L166.51,230.44c-0.2-0.02-0.35-0.19-0.33-0.39l0.75-9.26
					c0.02-0.2,0.19-0.35,0.39-0.33l0,0c0.2,0.02,0.35,0.19,0.33,0.39l-0.75,9.26C166.89,230.31,166.71,230.46,166.51,230.44z"/>
				<path id="XMLID_210_" class="st14" d="M163.8,260.63c0.1,0.69,0.22,1.37,0.37,2.05c1.04-2.63,1.69-5.4,1.92-8.22l-1-0.08
					C164.92,257.68,164.28,259.6,163.8,260.63z"/>
				<path id="XMLID_55_" class="st2" d="M164.18,262.68c0.21-0.53,0.4-1.07,0.58-1.62c-0.14-0.05-0.29-0.09-0.44-0.1
					c-0.16-0.01-0.31,0-0.45,0.03C163.95,261.56,164.05,262.12,164.18,262.68z"/>
				<path id="XMLID_218_" class="st15" d="M167.53,220.16c-0.04,0.28-0.12,0.7-0.3,1.13l1.53,0.12l0.09-1.15L167.53,220.16z"/>
				<path id="XMLID_34_" class="st16" d="M163.89,254.62l0.87,0.08c0,0-0.12,3.3-0.89,4.5
					C163.86,259.21,163.64,257.85,163.89,254.62z"/>
				<path id="XMLID_212_" class="st16" d="M165.1,254.38l1,0.08l0.08-1l-1.02-0.08C165.16,253.38,165.11,254.15,165.1,254.38z"/>
				<path id="XMLID_193_" class="st17" d="M163.89,253.38l1.06,0.09v0.67h-1.18C163.77,254.14,163.79,253.65,163.89,253.38z"/>
				<path id="XMLID_211_" class="st10" d="M164.97,240.29c0,0,0.29,0.21,0.86,0.25l-0.75,12.3l-1,0.02L164.97,240.29z"/>
				<path id="XMLID_217_" class="st18" d="M166.51,230.44c0.2,0.02,0.37-0.13,0.39-0.33l0.75-9.26c0.02-0.2-0.13-0.37-0.33-0.39
					c-0.4,11.1-1.14,9.59-1.14,9.59C166.16,230.25,166.31,230.42,166.51,230.44z"/>
				<path id="XMLID_219_" class="st19" d="M168.04,217.83c-0.07,0.5-0.33,1.29-1.12,2.21l-0.01,0.07l1.39,0.11l0.14-1.71
					C168.46,218.21,168.29,217.95,168.04,217.83z"/>
			</g>
			<path id="XMLID_38_" class="st5" d="M173.22,224.35c-1.51,1.04-5.01,5.88-6.23,7.66c-0.96,1.4-2.79,3.35-3.9,4.42
				c-0.59,0.57-0.66,1.52-0.11,2.12c0.25,0.27,0.59,0.51,1.07,0.67c1.11,0.37,2.34,0.05,3.21-0.74c1.28-1.17,3.61-3.15,5.01-3.42
				c2-0.39,7.76-1.89,10.98-6.45l-2.43-5.06C180.82,223.56,177.23,221.59,173.22,224.35z"/>
			<path id="XMLID_174_" class="st6" d="M181.35,224.66c-0.1,0.23-0.2,0.48-0.31,0.79c-1.22,3.59-6,7.13-8.12,7.88
				c-2.12,0.75-4.85,3.75-6.43,4.75c-1.04,0.65-2.39,0.76-3.19,0.75c0.21,0.16,0.44,0.3,0.75,0.4c1.11,0.37,2.34,0.05,3.21-0.74
				c1.28-1.17,3.61-3.15,5.01-3.42c2-0.39,7.76-1.89,10.98-6.45L181.35,224.66z"/>
			<path id="XMLID_123_" class="st3" d="M281.41,257.35c0,0-51.93-7.83-68.84-1.98c0,0-0.52,4.52-1.13,12.49
				c4.56,4.71,14.42,12.16,31.98,13.58c0.07-0.36,0.15-0.69,0.21-0.94h2.76c0,0,0.07,0.39,0.21,1.13
				c8.04,0.29,17.56-0.66,28.76-3.58c0,0,9.17,114.55,9.13,123.72l0,0c0.85-0.4,1.71-0.9,2.56-1.55
				C287.05,400.21,281.71,272.77,281.41,257.35z"/>
			<g id="XMLID_113_">
				<path class="st7" d="M164.84,234.63l-1.08,1.16c-0.33,0.4-0.79,0.73-0.98,1.2c-0.19,0.47-0.13,1.04,0.19,1.43
					c0.32,0.4,0.79,0.65,1.29,0.78c1,0.26,2.1-0.04,2.86-0.72c0.77-0.71,1.57-1.41,2.42-2.05c0.86-0.61,1.74-1.26,2.82-1.48
					c1.03-0.2,2.04-0.48,3.03-0.83c1.97-0.71,3.87-1.67,5.53-2.99c-1.59,1.39-3.49,2.41-5.47,3.14c-0.99,0.36-2.01,0.66-3.05,0.88
					c-1,0.22-1.87,0.87-2.71,1.48c-0.85,0.62-1.64,1.3-2.43,2.01c-0.82,0.71-1.99,1.01-3.04,0.73c-0.52-0.14-1.02-0.42-1.36-0.85
					c-0.34-0.44-0.41-1.06-0.18-1.56c0.1-0.26,0.29-0.47,0.48-0.65l0.56-0.56L164.84,234.63z"/>
			</g>
			<path id="XMLID_40_" class="st13" d="M179.46,215.25l-3.62,2.8c0,0,5.78,8.92,10.95,14.31l3.31-2.08L179.46,215.25z"/>
			<path id="XMLID_3_" class="st20" d="M247.32,144.32c0,0,18.2-1.56,21.87,0.81l-0.94,22.55l-10.17,27.53l-10.76,13.51l-7.33-18.19
				c0,0,1.4-25.36,1.62-26.03C241.83,163.84,247.32,144.32,247.32,144.32z"/>
			<path id="XMLID_6_" class="st5" d="M269.3,126.1c0,0-0.27,12.45,0.62,16.01c0,0-3.58,5.5-13.6,8.39
				c-10.01,2.89-6.05-12.31-6.13-18.7C250.19,131.8,257.1,124.67,269.3,126.1z"/>
			<path id="XMLID_145_" class="st6" d="M269.3,126.1c-12.19-1.43-19.11,5.7-19.11,5.7c0,0.3,0,0.62-0.02,0.95
				c1.2,0.88,3.63,2.39,6.28,2.39c3.73,0,5.98-1.25,8.23-1.5c2.25-0.25-6.77,16.85-9.63,13.8c-0.5-0.54-2.23-0.65-5.18-6.41
				c-0.1-0.19-0.2-0.35-0.3-0.53c-0.36,6.05,0.21,11.88,6.76,9.99c10.01-2.89,13.6-8.39,13.6-8.39
				C269.03,138.55,269.3,126.1,269.3,126.1z"/>
			<path id="XMLID_13_" class="st20" d="M255.01,151.47c0,0-4.27-0.89-6.5-3.67c0,0,1.78-5.01,2.78-5.34
				C251.29,142.46,252.9,150.02,255.01,151.47z"/>
			<path id="XMLID_14_" class="st20" d="M255.01,151.47c0,0,3.11-7,3.4-8.4c0,0,4.12,1.11,4.73,2.39c0.61,1.28,0.11,3.62,0.11,3.62
				S259.11,151.91,255.01,151.47z"/>
			<path id="XMLID_10_" class="st21" d="M258.85,152c0.08,0.15,5.73-3.14,6.24-4.37l-1.22-2.5c0,0-3.43,2.09-5.62,2.45
				C258.24,147.58,258.22,150.7,258.85,152z"/>
			<path id="XMLID_16_" class="st21" d="M249.16,146.1c0,0,1.52,1.53,2.91,2.14l-0.31,3.76c0,0-1.91-1.25-3.25-2.95
				C248.51,149.05,248.7,147.17,249.16,146.1z"/>
			<path id="XMLID_9_" class="st5" d="M232.18,108.5c0,0-0.67-11.35-7.45-13.46c-6.79-2.11-9.24,6.68-8.12,11.57
				c1.11,4.9,4.26,8.54,14.03,11.56C230.64,118.17,232.4,116.18,232.18,108.5z"/>
			<path id="XMLID_134_" class="st6" d="M224.72,95.04c-2.88-0.9-4.98,0.18-6.36,2.08c0.11-0.08,2.86-2.12,4.8,0.01
				c1.97,2.17,5.22,12.41,3.54,19.64c1.18,0.48,2.47,0.95,3.93,1.4c0,0,1.77-1.99,1.54-9.66C232.18,108.5,231.51,97.15,224.72,95.04
				z"/>
			<path id="XMLID_2_" class="st5" d="M234.09,72.96c-4.44,4.46-8.01,16.02-6.68,29.6c1.34,13.57-0.22,18.03,4.34,21.7
				c4.56,3.67,20.47,8.68,24.37,8.68s22.03-12.02,24.92-16.8c2.89-4.78,2.24-27.2,0-34.38C277.93,71.74,256.79,50.15,234.09,72.96z"
				/>
			<path id="XMLID_132_" class="st6" d="M239.99,71.41c-1.71,0.15-3.28,0.29-4.75,0.43c-0.38,0.36-0.77,0.73-1.16,1.12
				c-2.1,2.11-3.99,5.81-5.27,10.54l0.33,0.59c0,0,17.52,8.84,42.88,0c0,0,8.07,28.7,0.2,39.96c4.11-2.98,7.67-6.02,8.82-7.92
				c2.89-4.78,2.24-27.2,0-34.38c-0.97-3.13-3.71-7.4-7.71-11.08C259.11,69.57,248.27,70.67,239.99,71.41z"/>
			<path id="XMLID_7_" class="st22" d="M272.94,81.21c0,0,4.63,16.69,4.87,27.29c0,0,8.46-6.12,10.68-13.02
				c2.23-6.9,0.67-17.25-0.89-19.58c-1.56-2.34-5.56-3.67-5.56-3.67s1.67-8.23-5.9-12.13c-7.57-3.89-16.91-9.9-26.7-7.23
				c-9.79,2.67-28.26,9.98-34.27,10c0,0,5.56,8.92,11.35,9.14c0,0-6.45,1.88-11.35,2.32c0,0,2.46,5.01,9.68,7.02
				c0,0-2.19,16.25,3.02,27.15c0,0-0.74-20.53,3.71-25.33C231.59,83.17,252.39,92.1,272.94,81.21z"/>
			<path id="XMLID_234_" class="st23" d="M288.5,95.49c2.01-6.24,0.93-15.28-0.45-18.69c-2.27,7.81-8.14,14.98-11.78,18.95
				c0.8,4.33,1.46,8.94,1.55,12.76C277.82,108.5,286.27,102.38,288.5,95.49z"/>
			<path id="XMLID_8_" class="st6" d="M277.82,108.5c0,0,0.67-11.35,7.46-13.46c6.79-2.11,9.24,6.68,8.12,11.57
				c-1.11,4.9-4.26,8.54-14.03,11.56C279.36,118.17,277.59,116.18,277.82,108.5z"/>
			<path id="XMLID_26_" class="st24" d="M229.19,145.13c-2.94,5.24-12.24,31.35-17.95,44.54c-3.56,1.01-2.34,3.19-2.34,3.19l0,0
				l-29.78,21.91l12.68,18.25l35.32-24.48l10.3-67.98C237.43,140.55,232.31,139.58,229.19,145.13z"/>
			<path id="XMLID_33_" class="st25" d="M251.76,152.58l-10.14,51.43c0,0,6.06,8.11,7.32,7.81c1.25-0.3,8.26-6.97,8.26-6.97
				l0.89-51.94L251.76,152.58z"/>
			<path id="XMLID_150_" class="st26" d="M191.81,233.01l35.32-24.48l6.1-40.25l1.21-16.81c0,0-10.05,41.54-16.55,52.65
				c-5.75,9.83-24.63,20.56-29.95,23.33L191.81,233.01z"/>
			<path id="XMLID_222_" class="st27" d="M257.37,194.1c-0.54-2.63-1.42-4.7-2.78-2.05c-2.64,5.15-6.09,7.99-6.09,7.99
				c-1.75-4.01-3.16-14.93-3.16-14.93l0,0l-2.7,13.68c0.85,2.31,1.79,4.7,2.8,6.99c3.78,8.59,1.22-0.15,2.31-0.4
				c0.89-0.21,7.25-3.98,9.51-5.34L257.37,194.1z"/>
			<path id="XMLID_53_" class="st24" d="M237.43,140.55c0,0,6.82,0.77,11.97,0.95c0,0-10.12,44.59-0.81,62.04
				c0,0,0.79,57.68-6.27,64.19l-15.8,5.79c0,0-9.12-5.82-16.47-19.15C210.05,254.36,234.53,148.23,237.43,140.55z"/>
			<path id="XMLID_165_" class="st26" d="M246.28,202.37c0,0-3.08,24.42-2.64,39.62l4.46-8.82c0.68-15.22,0.49-29.63,0.49-29.63
				c-0.06-0.11-0.11-0.22-0.17-0.33l-2.17-1.56L246.28,202.37z"/>
			<path id="XMLID_54_" class="st24" d="M271.17,141.46c0,0-11.79,46.73-23.84,62.63c0,0-5.9,26.48-2.78,64.54
				c0,0,4.29,3.78,17.06,6.68c0,0,19.44-8.6,23.89-13.31c0,0-1.92-118.65-2.52-121.43C282.97,140.55,275.93,141.66,271.17,141.46z"
				/>
			<path id="XMLID_149_" class="st26" d="M237.2,190.42c0,0-0.42,1.79-0.42,2.58c0,0,4.96,8.12,11.18,10.55l0.54-0.2l-4.17-7.26
				L237.2,190.42z"/>
			<path id="XMLID_59_" class="st24" d="M245.16,169.14c0,0-2.65-1-6.28,9.91c-2.22,6.65-2.62,11.02-2.4,12.36
				c0.22,1.34,7.25,10.6,12.11,12.14C248.59,203.54,243.37,194.48,245.16,169.14z"/>
			<path id="XMLID_159_" class="st28" d="M237.43,191.87c-1.09-2.76,2.02-14.43,2.06-14.58c-1.83,5.89-3.22,12.87-3.01,14.12
				c0.22,1.34,7.25,10.6,12.11,12.14C241.5,198.2,237.43,191.87,237.43,191.87z"/>
			<path id="XMLID_153_" class="st26" d="M277.12,208.72c-1.98,11.11-14.82,51.64-19.29,65.62c1.17,0.32,2.42,0.64,3.78,0.95
				c0,0,19.44-8.6,23.89-13.31c0,0-0.93-57.57-1.7-93.44l-9.59-2.94C274.21,165.59,279.53,195.22,277.12,208.72z"/>
			<path id="XMLID_129_" class="st26" d="M237.99,173.69c0,0-0.21,1.25-0.25,2.09c0,0,2.94,2.97,6.92,4.61l-0.62-1.82L237.99,173.69
				z"/>
			<path id="XMLID_30_" class="st29" d="M263.41,218.72c0,0-0.95,1-0.39,2.28l3.89-2.28C266.91,218.72,264.58,218.27,263.41,218.72z
				"/>
			<path id="XMLID_58_" class="st24" d="M245.06,141.25c0,0,1.74-0.93,4.34,0.25c0,0-5.08,24.2-4.74,38.89c0,0-5.67-3.9-7.23-6.12
				C237.43,174.26,241.1,149.05,245.06,141.25z"/>
			<path id="XMLID_25_" class="st30" d="M265.24,216.1c0,0-0.9,1.15-0.76,1.83h2.48l1.28-2.38L265.24,216.1z"/>
			<path id="XMLID_164_" class="st28" d="M243.71,240.52l2.59-0.19c-2.04-9.09,0.88-35.49,0.88-35.52
				C246.54,207.97,244.13,221.13,243.71,240.52z"/>
			<path id="XMLID_24_" class="st30" d="M278.15,235.39c0,0-2.34,0.13-4.12-3.38l6.18-2.28L278.15,235.39z"/>
			<path id="XMLID_28_" class="st5" d="M266,219.34c0,0-4.15,0.8-6.1,3.05c-2.11,2.45-3.61,8.68-2.8,10.16l15.78,1.27
				c0,0,3.41-2.08,3.26-3.19c-0.15-1.11-3.71-8.6-3.71-8.6S267.65,219.1,266,219.34z"/>
			<path id="XMLID_128_" class="st3" d="M222.24,403.68c2.41,0.01,5.34-0.44,8.73-1.83c0,0,9.43-105.51,12.46-120.41
				C238.42,288.91,227.46,403.33,222.24,403.68z"/>
			<path id="XMLID_226_" class="st6" d="M272.44,222.04c0,0-4.79-2.94-6.44-2.69c0,0-2.28,0.44-4.25,1.59
				c1.24-0.2,5.67-0.59,10.07,3.07c0.86,0.71,1.56,1.12,2.15,1.33C273.16,223.55,272.44,222.04,272.44,222.04z"/>
			<path id="XMLID_157_" class="st26" d="M265.24,193.62c1.03-10.51,0.32-14.52,0.32-14.52l-5.03-2.83
				c-3.92,10.89-8.54,21.66-13.2,27.81C255.51,203.54,265.24,193.62,265.24,193.62z"/>
			<path id="XMLID_232_" class="st6" d="M265.91,225.9c-3.44,3.86-7.52,3.8-8.87,3.66c-0.22,1.35-0.23,2.48,0.06,3.01l5.02,0.4
				c2.35-0.22,4.39-0.4,4.39-0.4L265.91,225.9z"/>
			<polygon id="XMLID_37_" class="st11" points="259.46,229.73 260.48,230.75 258.08,231.32 			"/>
			<path id="XMLID_31_" class="st5" d="M275.37,231.96c0,0-0.95,3.89-1.34,6.73c-0.39,2.84-2.28,4.34-4.62,6.34l-3.51-9.07l6.56-4.9
				L275.37,231.96z"/>
			<path id="XMLID_56_" class="st24" d="M247.33,204.08c-0.4,0.51,13.24-4.78,17.14-11.35c0,0,2.85-20.1-1.9-22.4
				c0,0-4.45,13.4-7.56,19.87C251.89,196.68,248.89,202.08,247.33,204.08z"/>
			<path id="XMLID_233_" class="st6" d="M273.54,229.59l-5.32,11.48c0,0,0.03,0.49,0.07,1.05l1.12,2.91c2.34-2,4.23-3.5,4.62-6.34
				c0.39-2.84,1.54-7.76,1.54-7.76C275.37,227.43,273.54,229.59,273.54,229.59z"/>
			<path id="XMLID_156_" class="st26" d="M258.68,181.28L258.68,181.28c0,0,6.56-1.36,10.51-3.09c0,0,4.64-26.49,4.78-32.6
				l-4.05,0.59C267.94,153.46,263.77,167.99,258.68,181.28z"/>
			<path id="XMLID_23_" class="st13" d="M267.35,216.29l-3.95,2.43c0,0,10.71,1.36,11.6,14.82l4.48-2.47
				C279.49,231.07,277.18,214.9,267.35,216.29z"/>
			<path id="XMLID_19_" class="st24" d="M271.17,141.46c0,0,0.65-0.93,3.31-0.03c0,0-3.45,29.61-6.24,36.29l-9.23,2.67
				C259.02,180.39,266.78,159.58,271.17,141.46z"/>
			<path id="XMLID_172_" class="st31" d="M275.01,233.54l4.48-2.47c0,0-2.31-16.17-12.13-14.78l-1.26,0.77c0,0,2.93-1.06,6.32,3.93
				c2.44,3.58,2.9,6.4,1.89,8.28C274.66,230.55,274.9,231.96,275.01,233.54z"/>
			<path id="XMLID_22_" class="st24" d="M282.97,140.55c0,0,3.69-0.4,6.08,1.91c8.33,8.04,13.13,57.18,13.8,69.86
				c0.67,12.68-15.65,12.06-18.11,5.61c-2.46-6.45-10.66-49.85-10.94-55.9C273.48,155.19,273.2,145.63,282.97,140.55z"/>
			<path id="XMLID_166_" class="st28" d="M281.7,205.78c0.39-0.28,1.28-1.21,0.39-3.48c-1.1-2.81-5.01-19.8-5.07-20.08
				C278.48,190.11,280.19,198.83,281.7,205.78z"/>
			<path id="XMLID_17_" class="st24" d="M281.78,202.62c0,0-4.96,6.81-16.53,13.48c0,0,12.91,1.19,12.91,19.29
				c0,0,21.45-10.39,24.3-19.07c0,0,1.81-9.68-3.82-13.7C292.99,198.6,284.23,199.83,281.78,202.62z"/>
			<polygon id="XMLID_29_" class="st32" points="237.43,236.26 271.45,228.12 269.92,290.43 229.19,296.66 			"/>
			<path id="XMLID_196_" class="st33" d="M229.44,294.86l13.71-0.34l23.08-3.53c1.43-2.32,3.03-6.39,4.01-13.51l1.16-47.4
				l-32.65,18.95c0,0-2.52,23.16-8.1,36.95L229.44,294.86z"/>
			<path id="XMLID_221_" class="st27" d="M257.68,175.94l0.4-23.02l-6.32-0.33l-0.13,0.68c0.6,0.63,1.96,1.49,4.94,1.57
				C256.57,154.84,257.78,169.93,257.68,175.94z"/>
			<path id="XMLID_190_" class="st33" d="M249.92,234.56l9.54,2.13c0,0-0.17-4.19,1.94-6.16l-12.86,3.08L249.92,234.56z"/>
			<polygon id="XMLID_35_" class="st34" points="271.45,228.12 272.42,229.09 270.89,291.4 269.92,290.43 			"/>
			<path id="XMLID_39_" class="st0" d="M239.65,237.35c0,0,26.35-5.79,29.04-6.29c0,0,2.45,49.01-2.78,58.03l-37.72,4.94
				C228.19,294.03,236.43,287.54,239.65,237.35z"/>
			<path id="XMLID_209_" class="st13" d="M251.15,234.83l8.3,1.85c0,0-0.08-1.92,0.53-3.77
				C257.2,233.51,254.09,234.19,251.15,234.83z"/>
			<g id="XMLID_65_">
				<path id="XMLID_66_" class="st35" d="M242.72,242.76c-0.23,0.01-0.45-0.15-0.5-0.39c-0.06-0.27,0.1-0.54,0.37-0.6l22.65-5.26
					c0.27-0.06,0.54,0.1,0.6,0.37c0.06,0.27-0.1,0.54-0.37,0.6l-22.65,5.26C242.78,242.76,242.75,242.76,242.72,242.76z"/>
			</g>
			<g id="XMLID_67_">
				<path id="XMLID_68_" class="st36" d="M245.32,243.73c-0.18,0.01-0.35-0.12-0.39-0.3c-0.05-0.21,0.08-0.42,0.29-0.47l17.66-4.1
					c0.21-0.05,0.42,0.08,0.47,0.29c0.05,0.21-0.08,0.42-0.29,0.47l-17.66,4.1C245.37,243.73,245.35,243.73,245.32,243.73z"/>
			</g>
			<g id="XMLID_79_">
				<path id="XMLID_94_" class="st36" d="M257.31,243.85c-0.12,0-0.22-0.08-0.25-0.2c-0.03-0.14,0.06-0.27,0.2-0.3l6.63-1.36
					c0.13-0.03,0.27,0.06,0.3,0.19c0.03,0.14-0.06,0.27-0.2,0.3l-6.63,1.36C257.34,243.85,257.33,243.85,257.31,243.85z"/>
			</g>
			<polygon id="XMLID_32_" class="st37" points="229.19,296.66 230.17,297.64 270.89,291.4 269.92,290.43 			"/>
			<path id="XMLID_27_" class="st5" d="M266.1,223.74c-1.11,0.74-2.85,5.09-1.63,10.91c0,0-3.01,4.9-2.86,7.34
				c0.15,2.45,1.63,3.04,2.37,3.04c0,0,5.34-6.75,6.82-8.01c1.48-1.26,3.03-5.03,3.23-6.9C274.2,228.61,271.68,219.99,266.1,223.74z
				"/>
			<g id="XMLID_223_">
				<path class="st7" d="M266.91,223.27c-0.43,0.28-0.92,0.49-1.2,0.92c-0.29,0.42-0.5,0.89-0.7,1.36
					c-0.36,0.95-0.59,1.96-0.71,2.97c-0.24,2.03-0.13,4.1,0.26,6.11l0.01,0.04l-0.02,0.03c-0.86,1.43-1.66,2.9-2.32,4.44
					c0.55-1.58,1.31-3.09,2.16-4.53l-0.01,0.07c-0.21-1.01-0.37-2.04-0.43-3.07c-0.05-1.03,0-2.07,0.15-3.1
					c0.15-1.02,0.39-2.04,0.78-3c0.2-0.48,0.43-0.95,0.76-1.36C265.96,223.7,266.48,223.53,266.91,223.27z"/>
			</g>
			<path id="XMLID_12_" class="st13" d="M251.96,142.12c0,0,0.41,6.9,3.05,9.35c0,0-1.94-0.89-3.94-8.12c0,0-2.34,3.56-1.76,13.13
				c0,0-3.24-3.56-4.24-11.24c0,0,2.46-4.73,2.79-6.07c0.33-1.34,1.83-0.88,1.83-0.88S249.51,140.57,251.96,142.12z"/>
			<path id="XMLID_11_" class="st13" d="M255.01,151.47c-0.19,0.27,2.74-7.12,2.63-9.46c0,0,5.8-1.67,11.7-5.45
				c0,0,0.74-0.48,1.43,0c1.41,0.98,2.14,5.32,3.04,7.33c0,0-1.26,6.8-11.94,13.59c0,0,0.5-11.29-3.17-13.52
				C258.69,143.96,257.07,148.47,255.01,151.47z"/>
			<path id="XMLID_15_" class="st38" d="M251.93,147.2c1.1,0.22,3.14,0.44,5.96-0.03c0.75-0.12,1.45,0.44,1.5,1.2
				c0.08,1.48-0.04,3.66-1.31,4.54c-2,1.39-5.24,1.17-6.32-0.33c-0.86-1.19-1.46-2.99-1.17-4.5
				C250.71,147.46,251.32,147.08,251.93,147.2z"/>
			<path id="XMLID_4_" class="st39" d="M244.17,119.46c2.52,0.58,9.4,1.5,18.67-2.67c1.09-0.49,2.22,0.61,1.73,1.7
				c-0.52,1.17-1.63,2.56-3.88,3.9c-5.15,3.04-14.31,1.66-17.01-2.17C243.42,119.85,243.73,119.36,244.17,119.46z"/>
			<path id="XMLID_20_" class="st22" d="M239.99,97.9c-1.17,0-2.12,0.95-2.12,2.12v4.87c0,1.17,0.95,2.12,2.12,2.12
				c1.17,0,2.12-0.95,2.12-2.12v-4.87C242.12,98.85,241.17,97.9,239.99,97.9z"/>
			<path id="XMLID_18_" class="st22" d="M263.44,97.9c-1.17,0-2.12,0.95-2.12,2.12v4.87c0,1.17,0.95,2.12,2.12,2.12
				c1.17,0,2.12-0.95,2.12-2.12v-4.87C265.57,98.85,264.62,97.9,263.44,97.9z"/>
			<path id="XMLID_21_" class="st22" d="M234.05,97.05c0,0,5.91-1.87,8.86-0.45c2.95,1.42,3.17-1.85-0.52-2.28
				S233.01,95.17,234.05,97.05z"/>
			<path id="XMLID_57_" class="st22" d="M270.67,91.56c0,0-6.04-1.41-8.87,0.24c-2.83,1.65-3.3-1.59,0.34-2.32
				C265.79,88.76,271.57,89.61,270.67,91.56z"/>
			<path id="XMLID_36_" class="st12" d="M248.22,232.56l11.24-2.83c0,0-1.11,4.73,0,6.95l-10.87,2.45
				C248.59,239.13,247.22,237.67,248.22,232.56z"/>
			<polygon id="XMLID_5_" class="st11" points="248.59,239.13 259.46,236.69 259.46,237.22 248.59,239.63 			"/>
			<path id="XMLID_52_" class="st40" d="M236.3,113.19c0,1.98-2.43,3.59-5.42,3.59c-2.99,0-5.42-1.61-5.42-3.59
				c0-1.98,2.43-3.59,5.42-3.59C233.87,109.6,236.3,111.21,236.3,113.19z"/>
			<path id="XMLID_64_" class="st40" d="M279.32,113.19c0,1.98-2.43,3.59-5.42,3.59c-2.99,0-5.42-1.61-5.42-3.59
				c0-1.98,2.43-3.59,5.42-3.59C276.89,109.6,279.32,111.21,279.32,113.19z"/>
			<g id="XMLID_69_">
				<path id="XMLID_93_" class="st41" d="M242.66,246.86c-0.12,0-0.22-0.08-0.24-0.2c-0.03-0.13,0.06-0.27,0.2-0.3l12.18-2.5
					c0.13-0.03,0.27,0.06,0.3,0.2c0.03,0.14-0.06,0.27-0.2,0.3l-12.18,2.5C242.7,246.85,242.68,246.86,242.66,246.86z"/>
			</g>
			<path id="XMLID_104_" class="st41" d="M266.24,274.2c-0.96-0.11-1.89-0.15-2.81-0.15c-0.03-0.04-0.05-0.09-0.08-0.13
				c-0.09-0.39-0.14-0.79-0.18-1.18c0-0.03-0.03-0.05-0.05-0.05c-0.03,0.01-0.05,0.03-0.05,0.05c0.03,0.34,0.07,0.67,0.14,1.01
				c-0.2-0.23-0.42-0.44-0.67-0.62c-0.22-0.15-0.4-0.19-0.54-0.11c-0.1,0.06-0.16,0.17-0.17,0.34c-0.2-0.2-0.5-0.35-0.72-0.19
				c-0.21,0.15-0.17,0.46-0.12,0.68l0.07,0.33c-0.02,0-0.05,0.01-0.07,0.01c-0.18-0.35-0.38-0.68-0.63-0.99
				c-0.01-0.02-0.04-0.03-0.06-0.01c-0.02,0.01-0.03,0.03-0.03,0.05l0.14,1.03c-0.08,0.01-0.17,0.02-0.26,0.03
				c-0.11-0.09-0.23-0.17-0.35-0.25c0.05-0.39-0.07-0.82-0.35-1.1c-0.31-0.31-0.78-0.43-1.2-0.34c-0.14,0.03-0.28,0.09-0.4,0.16
				c-0.01,0.01-0.02,0.02-0.02,0.04c0,0.02,0.01,0.03,0.02,0.04c0.62,0.41,1.23,0.82,1.85,1.23c-0.02,0.1-0.07,0.19-0.11,0.28
				c-0.14,0.03-0.27,0.07-0.4,0.1c-0.59-0.56-1.3-0.98-2.08-1.19c-0.02,0-0.05,0.01-0.06,0.04c-0.01,0.03,0.01,0.05,0.04,0.06
				c0.75,0.19,1.43,0.59,1.99,1.12c-0.49,0.11-0.97,0.22-1.44,0.37l0.03,0.1c0.49-0.15,0.99-0.27,1.5-0.38
				c0.06,0.05,0.12,0.1,0.17,0.16c-0.1,0.1-0.22,0.2-0.33,0.29c-0.08,0.07-0.17,0.14-0.25,0.21c-0.21,0.19-0.54,0.57-0.47,1.01
				c0.08,0.44,0.56,0.71,0.98,0.71c0.43,0,0.84-0.2,1.2-0.37c0.02-0.01,0.03-0.04,0.03-0.06c-0.2-0.66-0.56-1.26-1.02-1.78
				c0.06-0.06,0.11-0.13,0.16-0.2c0.02-0.03,0.02-0.06,0.04-0.09c0.15-0.03,0.31-0.04,0.46-0.06c0.13,0.1,0.25,0.21,0.35,0.34
				l0.15,1.12c0,0.02,0.02,0.04,0.04,0.04c0.02,0.01,0.04,0,0.05-0.02c0.19-0.31,0.15-0.75-0.1-1.11c-0.01-0.02-0.03-0.04-0.04-0.06
				l-0.05-0.35c0.14-0.02,0.27-0.04,0.41-0.06c0.11,0.23,0.22,0.47,0.3,0.71l0.26,1.23c0.01,0.03,0.03,0.04,0.06,0.04
				c0.03,0,0.04-0.03,0.04-0.05c-0.04-0.42-0.13-0.84-0.27-1.24l-0.15-0.72c0.25-0.03,0.5-0.07,0.75-0.08
				c0.16,0.85,0.54,1.65,1.1,2.31c0.01,0.02,0.04,0.02,0.06,0.01c0.02-0.01,0.03-0.03,0.03-0.05c-0.01-0.81-0.25-1.6-0.66-2.29
				c0.28-0.01,0.57-0.02,0.86-0.02c0.18,0.75,0.45,1.48,0.81,2.15c0.01,0.02,0.03,0.03,0.05,0.02c0.03-0.01,0.04-0.03,0.04-0.05
				c-0.02-0.76-0.29-1.5-0.72-2.13c0.89,0,1.8,0.04,2.73,0.15L266.24,274.2z M260.37,276.54c-0.24,0.12-0.51,0.25-0.79,0.31
				c-0.11,0.02-0.22,0.04-0.33,0.04c-0.38,0-0.81-0.24-0.88-0.62c-0.07-0.39,0.24-0.74,0.44-0.92c0.08-0.07,0.17-0.14,0.25-0.21
				c0.11-0.09,0.23-0.19,0.34-0.29C259.83,275.34,260.17,275.92,260.37,276.54z M259.53,274.52c-0.04,0.06-0.09,0.12-0.14,0.18
				c-0.04-0.04-0.08-0.08-0.13-0.12C259.36,274.57,259.44,274.54,259.53,274.52C259.53,274.52,259.53,274.52,259.53,274.52z
				 M257.96,272.85c0.45-0.24,1.05-0.16,1.41,0.2c0.25,0.25,0.36,0.61,0.33,0.96C259.13,273.62,258.55,273.24,257.96,272.85z
				 M259.7,274.38c0.03-0.07,0.07-0.13,0.08-0.2c0.07,0.05,0.15,0.11,0.22,0.16C259.9,274.36,259.8,274.36,259.7,274.38z
				 M260.69,275.69l-0.1-0.73C260.71,275.18,260.76,275.45,260.69,275.69z M260.24,274.41c0.06-0.01,0.11-0.01,0.17-0.02l0.03,0.2
				C260.38,274.52,260.31,274.47,260.24,274.41z M260.5,274.27l-0.11-0.84c0.19,0.25,0.35,0.51,0.5,0.79
				C260.76,274.24,260.63,274.25,260.5,274.27z M261.03,274.3c0.01,0,0.03,0,0.04-0.01l0.03,0.14
				C261.08,274.39,261.05,274.35,261.03,274.3z M261.15,274.18l-0.07-0.34c-0.04-0.19-0.08-0.46,0.09-0.58
				c0.18-0.14,0.45,0.03,0.63,0.21c0.01,0.01,0.02,0.02,0.03,0.03c0,0.01,0,0.01,0,0.02c0.01,0.19,0.05,0.38,0.08,0.57
				C261.65,274.12,261.4,274.16,261.15,274.18z M261.93,273.64c0.12,0.14,0.23,0.3,0.33,0.45c-0.09,0-0.17,0-0.26,0.01
				C261.98,273.94,261.95,273.79,261.93,273.64z M263.01,276.33c-0.5-0.62-0.83-1.36-0.99-2.14c0.1-0.01,0.21,0,0.31-0.01
				C262.74,274.83,262.97,275.57,263.01,276.33z M262.39,274.08c-0.14-0.22-0.29-0.42-0.46-0.61c0-0.18,0.04-0.3,0.13-0.35
				c0.1-0.06,0.25-0.02,0.43,0.11c0.29,0.21,0.55,0.46,0.77,0.75c0.01,0.03,0.02,0.06,0.03,0.09
				C262.98,274.06,262.68,274.07,262.39,274.08z M264.1,276.05c-0.3-0.59-0.53-1.23-0.69-1.87
				C263.79,274.73,264.03,275.39,264.1,276.05z"/>
			<g id="XMLID_78_">
				<path id="XMLID_92_" class="st41" d="M255.74,247.35c-0.12,0-0.22-0.08-0.25-0.2c-0.03-0.13,0.06-0.27,0.2-0.3l8.19-1.68
					c0.13-0.02,0.27,0.06,0.3,0.2c0.03,0.13-0.06,0.27-0.2,0.3l-8.19,1.68C255.78,247.35,255.76,247.35,255.74,247.35z"/>
			</g>
			<g id="XMLID_76_">
				<path id="XMLID_91_" class="st41" d="M238.53,274.52c-0.18,0-0.34-0.13-0.37-0.32c-0.03-0.2,0.11-0.4,0.31-0.43l8.27-1.25
					c0.2-0.03,0.4,0.11,0.43,0.32c0.03,0.2-0.11,0.4-0.31,0.43l-8.27,1.25C238.57,274.51,238.55,274.52,238.53,274.52z"/>
			</g>
			<g id="XMLID_70_">
				<path id="XMLID_90_" class="st35" d="M242.66,250.04c-0.12,0-0.22-0.08-0.24-0.2c-0.03-0.13,0.06-0.27,0.2-0.3l7.26-1.49
					c0.13-0.02,0.27,0.06,0.3,0.2c0.03,0.13-0.06,0.27-0.2,0.3l-7.26,1.49C242.7,250.04,242.68,250.04,242.66,250.04z"/>
			</g>
			<g id="XMLID_77_">
				<path id="XMLID_89_" class="st36" d="M251.42,251.27c-0.12,0-0.22-0.08-0.24-0.2c-0.03-0.13,0.06-0.27,0.2-0.3l11.77-2.42
					c0.13-0.02,0.27,0.06,0.3,0.2c0.03,0.13-0.06,0.27-0.2,0.3l-11.77,2.42C251.46,251.27,251.44,251.27,251.42,251.27z"/>
			</g>
			<g id="XMLID_71_">
				<path id="XMLID_88_" class="st36" d="M241.92,253.22c-0.12,0-0.22-0.08-0.24-0.2c-0.03-0.13,0.06-0.27,0.2-0.3l5.93-1.22
					c0.13-0.02,0.27,0.06,0.3,0.2c0.03,0.13-0.06,0.27-0.2,0.3l-5.93,1.22C241.96,253.22,241.94,253.22,241.92,253.22z"/>
			</g>
			<g id="XMLID_72_">
				<path id="XMLID_87_" class="st41" d="M241.52,256.45c-0.12,0-0.22-0.08-0.24-0.2c-0.03-0.13,0.06-0.27,0.19-0.3l21.27-4.36
					c0.13-0.02,0.27,0.06,0.3,0.2c0.03,0.13-0.06,0.27-0.2,0.3l-21.27,4.36C241.55,256.45,241.54,256.45,241.52,256.45z"/>
			</g>
			<g id="XMLID_73_">
				<path id="XMLID_86_" class="st35" d="M241.52,259.64c-0.12,0-0.22-0.08-0.24-0.2c-0.03-0.13,0.06-0.27,0.19-0.3l21.27-4.36
					c0.13-0.02,0.27,0.06,0.3,0.2c0.03,0.14-0.06,0.27-0.2,0.3l-21.27,4.37C241.55,259.63,241.54,259.64,241.52,259.64z"/>
			</g>
			<g id="XMLID_80_">
				<path id="XMLID_85_" class="st36" d="M253.66,260.53c-0.12,0-0.22-0.08-0.25-0.2c-0.03-0.13,0.06-0.27,0.2-0.3l12.19-2.5
					c0.13-0.02,0.27,0.06,0.3,0.2c0.03,0.14-0.06,0.27-0.2,0.3l-12.19,2.5C253.69,260.53,253.67,260.53,253.66,260.53z"/>
			</g>
			<g id="XMLID_74_">
				<path id="XMLID_84_" class="st41" d="M244.57,262.39c-0.12,0-0.22-0.08-0.24-0.2c-0.03-0.13,0.06-0.27,0.19-0.3l6.44-1.32
					c0.13-0.02,0.27,0.06,0.3,0.2c0.03,0.13-0.06,0.27-0.19,0.3l-6.44,1.32C244.61,262.39,244.59,262.39,244.57,262.39z"/>
			</g>
			<g id="XMLID_81_">
				<path id="XMLID_83_" class="st41" d="M257.38,271.93c-0.18,0-0.34-0.13-0.37-0.31c-0.03-0.2,0.1-0.4,0.31-0.43l6.48-1.09
					c0.21-0.03,0.4,0.1,0.43,0.31c0.03,0.2-0.1,0.4-0.31,0.43l-6.48,1.09C257.42,271.92,257.4,271.93,257.38,271.93z"/>
			</g>
			<g id="XMLID_75_">
				<path id="XMLID_82_" class="st35" d="M241.47,266.17c-0.12,0-0.22-0.09-0.24-0.21c-0.02-0.14,0.06-0.27,0.2-0.29l21.36-3.94
					c0.13-0.02,0.27,0.07,0.29,0.2c0.02,0.14-0.06,0.27-0.2,0.29l-21.35,3.94C241.51,266.17,241.49,266.17,241.47,266.17z"/>
			</g>
			<polygon id="XMLID_98_" class="st42" points="257.92,281.05 255.72,286.49 257.36,285.87 257.92,287.05 259.35,281.61 			"/>
			<polygon id="XMLID_99_" class="st42" points="260.23,280.61 262.44,286.05 260.79,285.43 260.23,286.62 258.81,281.17 			"/>
			<path id="XMLID_96_" class="st43" d="M259.38,275.99c-1.6-0.3-3.21,1.06-3.58,3.05c-0.38,1.99,0.61,3.85,2.21,4.15
				c1.6,0.3,3.21-1.06,3.58-3.05C261.97,278.15,260.98,276.29,259.38,275.99z"/>
			<path id="XMLID_95_" class="st44" d="M258.46,282.73c-0.12,0-0.24-0.01-0.36-0.03c-0.62-0.12-1.16-0.54-1.5-1.19
				c-0.36-0.68-0.48-1.53-0.31-2.38c0.29-1.53,1.43-2.68,2.64-2.68c0.12,0,0.24,0.01,0.36,0.03c1.33,0.25,2.14,1.85,1.82,3.57
				C260.81,281.58,259.68,282.73,258.46,282.73L258.46,282.73z"/>
			<path id="XMLID_63_" class="st43" d="M258.48,282.45c-0.11,0-0.22-0.01-0.33-0.03c-0.57-0.11-1.05-0.49-1.37-1.08
				c-0.33-0.62-0.43-1.39-0.29-2.16c0.27-1.39,1.3-2.44,2.4-2.44c0.11,0,0.22,0.01,0.32,0.03c1.21,0.23,1.95,1.69,1.65,3.24
				C260.62,281.4,259.59,282.45,258.48,282.45L258.48,282.45z"/>
			<path id="XMLID_144_" class="st45" d="M262.84,116.79c-5.64,2.54-10.39,3.19-13.82,3.18c-0.39,0.84-0.75,1.94-0.8,3.21
				c3.89,1.29,9.05,1.23,12.46-0.79c2.25-1.33,3.36-2.73,3.88-3.9C265.06,117.41,263.93,116.3,262.84,116.79z"/>
			<g id="XMLID_97_">
				<path id="XMLID_114_" class="st41" d="M239.62,279.69c-0.14,0-0.29-0.02-0.42-0.08c-0.02-0.01-0.03-0.02-0.03-0.04
					c0-0.02,0-0.03,0.01-0.05c0.51-0.53,1.03-1.07,1.54-1.6c-0.06-0.13-0.14-0.26-0.24-0.36c-0.05-0.05-0.11-0.1-0.18-0.15
					c-0.46,0.78-1.14,1.43-1.95,1.84c-0.02,0.01-0.05,0-0.07-0.02c-0.01-0.02,0-0.05,0.02-0.07c0.79-0.4,1.45-1.04,1.91-1.81
					c-0.12-0.08-0.26-0.14-0.39-0.21c-0.1-0.05-0.2-0.1-0.29-0.15c-0.24-0.14-0.65-0.44-0.67-0.88c-0.02-0.45,0.4-0.81,0.81-0.9
					c0.42-0.09,0.86,0.01,1.25,0.11c0.02,0.01,0.04,0.03,0.04,0.05c-0.06,0.69-0.28,1.35-0.62,1.95c0.07,0.05,0.14,0.1,0.2,0.16
					c0.1,0.1,0.19,0.22,0.25,0.35c0.2-0.21,0.41-0.45,0.55-0.72l-0.09-1.12c0-0.02,0.01-0.04,0.03-0.05c0.02-0.01,0.04,0,0.06,0.01
					c0.25,0.27,0.3,0.7,0.14,1.11c-0.01,0.02-0.02,0.04-0.03,0.07l0.11,1.3c0.25-0.55,0.42-1.14,0.48-1.74l0-1.26
					c0-0.03,0.02-0.05,0.05-0.05c0.03,0,0.05,0.02,0.05,0.04c0.05,0.42,0.05,0.85,0.01,1.27l0.01,1.18c0,0.19,0.02,0.46,0.21,0.55
					c0.21,0.1,0.44-0.13,0.57-0.34c0.01-0.01,0.02-0.03,0.02-0.04c0-0.01,0-0.01,0-0.02c-0.17-1.08,0.01-2.2,0.53-3.16
					c0.01-0.02,0.03-0.02,0.05-0.03c0.02,0,0.04,0.02,0.04,0.04c0.22,1.08,0.04,2.23-0.52,3.18c0.04,0.18,0.1,0.29,0.2,0.32
					c0.11,0.04,0.25-0.03,0.39-0.19c0.24-0.27,0.44-0.57,0.6-0.89c0-0.83,0.12-1.67,0.34-2.47c0.01-0.02,0.03-0.04,0.05-0.04
					c0.03,0,0.04,0.02,0.05,0.04c0.15,0.83,0.02,1.72-0.34,2.49c0,0.4,0.03,0.8,0.08,1.19c0,0.03-0.02,0.05-0.04,0.06
					c-0.03,0-0.05-0.02-0.06-0.04c-0.05-0.34-0.07-0.67-0.08-1.01c-0.15,0.27-0.32,0.52-0.52,0.74c-0.18,0.2-0.35,0.27-0.5,0.22
					c-0.11-0.04-0.19-0.13-0.24-0.29c-0.16,0.23-0.42,0.45-0.67,0.34c-0.24-0.11-0.27-0.41-0.27-0.64l0-0.58
					c-0.1,0.47-0.26,0.92-0.47,1.34c-0.01,0.02-0.03,0.03-0.05,0.03c-0.02,0-0.04-0.02-0.04-0.04l-0.11-1.33
					c-0.14,0.24-0.34,0.45-0.52,0.64c0.14,0.37,0.11,0.81-0.11,1.15C240.49,279.48,240.05,279.69,239.62,279.69z M239.31,279.55
					c0.49,0.14,1.06-0.07,1.34-0.5c0.19-0.3,0.22-0.68,0.12-1.01C240.27,278.54,239.79,279.05,239.31,279.55z M243.49,275.07
					c-0.44,0.88-0.61,1.89-0.47,2.86C243.49,277.07,243.66,276.04,243.49,275.07z M240.03,275.29c-0.11,0-0.22,0.01-0.33,0.03
					c-0.37,0.08-0.75,0.4-0.73,0.8c0.02,0.4,0.4,0.67,0.62,0.8c0.09,0.05,0.19,0.1,0.29,0.15c0.13,0.07,0.26,0.13,0.39,0.21
					c0.32-0.57,0.53-1.21,0.6-1.86C240.6,275.36,240.31,275.29,240.03,275.29z M244.61,275.11c-0.16,0.64-0.26,1.31-0.27,1.98
					C244.59,276.46,244.69,275.77,244.61,275.11z M241.36,276.19l0.06,0.74C241.49,276.69,241.48,276.41,241.36,276.19z"/>
			</g>
			<path id="XMLID_121_" class="st46" d="M214.75,407.38c3.63,1.46,9.52,0.81,9.77,1.68c0.25,0.88-11.24,11.97-18.26,10.14
				C199.24,417.36,211.45,406.05,214.75,407.38z"/>
			<path id="XMLID_122_" class="st46" d="M276.91,411.08c-0.35-0.71,0.22-1.54,1.01-1.46c2.23,0.22,6.24,0.49,8.41-0.19
				c3.11-0.98,6.87,6.56,9.54,9.96C298.14,422.27,280.88,419.2,276.91,411.08z"/>
			<path id="XMLID_126_" class="st5" d="M280.87,115.29c-2,0.12-1.6-10.31,0.46-14.82c3.54-7.74,9.05-4.58,10.38-1.53
				C294.55,105.44,291.65,114.62,280.87,115.29z"/>
			<g id="XMLID_101_">
				<path class="st47" d="M287.92,100.28c-1.35,0.72-2.46,1.79-3.16,3.05c-0.34,0.64-0.63,1.3-0.76,2.01
					c-0.16,0.7-0.2,1.42-0.2,2.15l-0.87-0.32c0.65-0.69,1.41-1.23,2.39-1.45c1-0.23,2.1,0.25,2.68,1.01
					c0.31,0.39,0.52,0.91,0.48,1.42c-0.04,0.52-0.28,0.97-0.58,1.31c-0.63,0.68-1.46,1.05-2.3,1.2c0.76-0.37,1.48-0.84,1.89-1.51
					c0.45-0.65,0.39-1.42-0.11-1.9c-0.52-0.52-1.2-0.77-1.87-0.59c-0.68,0.15-1.35,0.65-1.85,1.17l-0.04,0.04
					c-0.19,0.19-0.5,0.19-0.69,0c-0.1-0.1-0.15-0.23-0.14-0.36c0.02-0.8,0.06-1.61,0.3-2.39c0.19-0.79,0.56-1.53,1.02-2.19
					c0.45-0.67,1.04-1.23,1.68-1.68C286.46,100.81,287.17,100.45,287.92,100.28z"/>
			</g>
			<g id="XMLID_130_">
				<path class="st6" d="M220.97,100.28c0.75,0.17,1.46,0.53,2.12,0.96c0.65,0.45,1.23,1.01,1.68,1.68c0.45,0.66,0.82,1.4,1.02,2.19
					c0.24,0.78,0.28,1.59,0.3,2.39c0.01,0.27-0.2,0.49-0.47,0.5c-0.14,0-0.27-0.05-0.36-0.14l-0.04-0.04
					c-0.51-0.52-1.18-1.02-1.85-1.17c-0.67-0.18-1.35,0.07-1.87,0.59c-0.5,0.48-0.55,1.25-0.11,1.9c0.41,0.67,1.13,1.14,1.89,1.51
					c-0.84-0.15-1.66-0.52-2.3-1.2c-0.3-0.35-0.54-0.8-0.58-1.31c-0.03-0.52,0.17-1.04,0.48-1.42c0.58-0.75,1.67-1.24,2.68-1.01
					c0.98,0.23,1.74,0.76,2.39,1.45l-0.87,0.32c0-0.72-0.05-1.45-0.2-2.15c-0.13-0.71-0.42-1.37-0.76-2.01
					C223.43,102.07,222.32,101,220.97,100.28z"/>
			</g>
			<path id="XMLID_127_" class="st0" d="M265.15,99.61c0,0.7-0.57,1.26-1.26,1.26c-0.7,0-1.26-0.57-1.26-1.26
				c0-0.7,0.57-1.26,1.26-1.26C264.59,98.35,265.15,98.91,265.15,99.61z"/>
			<circle id="XMLID_133_" class="st0" cx="240.44" cy="99.61" r="1.26"/>
			<path id="XMLID_140_" class="st48" d="M262.84,116.79c-3.89,1.75-7.35,2.59-10.25,2.95c-1.16,1.11-2.17,2.41-2.73,3.89
				c3.61,0.79,7.87,0.5,10.82-1.24c2.25-1.33,3.36-2.73,3.88-3.9C265.06,117.41,263.93,116.3,262.84,116.79z"/>
			<path id="XMLID_139_" class="st0" d="M263.76,116.74c-0.28-0.09-0.6-0.09-0.92,0.05c-9.27,4.17-16.15,3.25-18.67,2.67
				C244.17,119.46,254.27,125.72,263.76,116.74z"/>
			<path id="XMLID_143_" class="st13" d="M262.84,116.79c-1.47,0.66-2.87,1.18-4.21,1.61c0.47,0.35,0.96,0.75,1.33,1.16
				c1.26-0.7,2.53-1.62,3.79-2.81C263.48,116.66,263.16,116.65,262.84,116.79z"/>
			<path id="XMLID_135_" class="st49" d="M250.67,122.63c0.05-1.35,3.94,0.19,10.53-3.08c2.56-1.27,2.48,2.34-3.21,3.39
				C251.98,124.05,250.64,123.51,250.67,122.63z"/>
			<path id="XMLID_146_" class="st31" d="M270.76,136.56c-0.7-0.48-1.43,0-1.43,0c-0.28,0.18-0.57,0.35-0.85,0.53l0,0
				c6.41-1.68-2.87,17.65-2.92,17.75c7.27-5.8,8.23-10.95,8.23-10.95C272.9,141.88,272.17,137.54,270.76,136.56z"/>
			<path id="XMLID_147_" class="st31" d="M249.68,138.29c0,0-1.49-0.45-1.83,0.88c0,0,1.38-0.55,1.55,0.39
				c0.17,0.94,0.92,2.11,2.56,2.56C249.51,140.57,249.68,138.29,249.68,138.29z"/>
			<path id="XMLID_131_" class="st31" d="M259.02,153.84c0,0,0.25,0.15,2.08-0.85c0,0,0.67,3.25,0,6.09c0,0,3.63-2.27,5.17-3.75
				c0,0-4.09,17.52-7.59,22.86C258.68,178.19,258.82,156.72,259.02,153.84z"/>
			<path id="XMLID_136_" class="st31" d="M247.32,155.67c0,0,0.95,1.75,2.52,2.42c0,0-3.34,18.19-3.93,21.02
				C245.92,179.11,244.77,170.3,247.32,155.67z"/>
			<path id="XMLID_151_" class="st28" d="M281.78,202.62c0,0-4.96,6.8-16.53,13.48c0,0,1.17,0.11,2.8,0.75
				c2.57-2.54,9.08-8.89,11.44-10.39c2.97-1.88,3.02-6.27,13.48-6.14C288.3,199.48,283.49,200.67,281.78,202.62z"/>
			<path id="XMLID_152_" class="st28" d="M226.42,184.46c-7.65,32.11-16.36,69.91-16.36,69.91c0.8,1.46,1.63,2.82,2.46,4.1
				C212.67,245.88,226.39,184.57,226.42,184.46z"/>
			<path id="XMLID_154_" class="st28" d="M282.97,140.55c-9.77,5.08-9.5,14.64-9.18,21.47c0.05,0.96,0.29,2.88,0.68,5.44
				C273.44,145.9,282.97,140.55,282.97,140.55z"/>
			<path id="XMLID_158_" class="st28" d="M238.41,173.44c0.42-4.83,3.79-23.73,3.81-23.8c-2.71,10.39-4.79,24.63-4.79,24.63
				c1.56,2.23,7.23,6.12,7.23,6.12C240.23,176.74,238.41,173.44,238.41,173.44z"/>
			<path id="XMLID_162_" class="st28" d="M258.52,181.74c-1.17,3.09-2.42,6.2-3.51,8.47c-2.46,5.11-4.84,9.54-6.5,12.17l0,0
				C248.55,202.3,256.57,193.37,258.52,181.74C258.51,181.74,258.51,181.74,258.52,181.74z"/>
			<path id="XMLID_163_" class="st28" d="M260.31,179.11c1.58-4.62,6.63-22.32,6.63-22.32l0,0c-3.89,12.8-7.92,23.59-7.92,23.59
				l9.23-2.67C262.86,178.86,260.31,179.11,260.31,179.11z"/>
			<g id="XMLID_160_">
				<path id="XMLID_148_" class="st42" d="M250.1,214.1c0,0.64-0.52,1.15-1.15,1.15c-0.64,0-1.15-0.52-1.15-1.15
					c0-0.64,0.52-1.15,1.15-1.15C249.59,212.94,250.1,213.46,250.1,214.1z"/>
				<path id="XMLID_167_" class="st50" d="M248.95,215.25c0.64,0,1.15-0.52,1.15-1.15c0-0.37-0.19-0.69-0.46-0.9
					c0.2,0.32,0.28,0.73,0.03,1.22c-0.23,0.44-0.76,0.62-1.26,0.68C248.58,215.19,248.75,215.25,248.95,215.25z"/>
				<path id="XMLID_161_" class="st51" d="M248.84,213.1c-0.71-0.09-1.08,1.13-0.65,1.49c0.34,0.29,0.93,0.26,1.15-0.19
					C249.56,213.95,249.67,213.2,248.84,213.1z"/>
			</g>
			<g id="XMLID_168_">
				<circle id="XMLID_171_" class="st42" cx="247.85" cy="228.61" r="1.15"/>
				<path id="XMLID_170_" class="st50" d="M247.85,229.76c0.64,0,1.15-0.52,1.15-1.15c0-0.37-0.19-0.69-0.46-0.9
					c0.2,0.32,0.28,0.73,0.03,1.22c-0.23,0.44-0.76,0.62-1.26,0.68C247.48,229.7,247.66,229.76,247.85,229.76z"/>
				<path id="XMLID_169_" class="st51" d="M247.74,227.61c-0.71-0.09-1.08,1.13-0.65,1.49c0.34,0.29,0.93,0.26,1.15-0.19
					C248.46,228.46,248.57,227.71,247.74,227.61z"/>
			</g>
			<path id="XMLID_173_" class="st31" d="M186.79,232.36l3.31-2.08l-9.94-14.01c3.31,5.56,4.85,10.36,4.71,13.97
				C185.51,230.98,186.16,231.7,186.79,232.36z"/>
			<path id="XMLID_112_" class="st28" d="M229.19,145.13c-1.07,1.9-2.98,6.56-5.24,12.35l0,0c-3.98,10.15-9.07,23.79-12.71,32.2
				c-1.78,0.51-2.37,1.31-2.5,1.98l0.01,0c-0.14,0.67,0.16,1.21,0.16,1.21l-29.78,21.91c0,0,28.11-20.09,30.93-20.76
				c0,0,0.95-0.2,2.83,0c0,0-2.88-0.31-3.66-2.3c0,0,0.35-1.75,3.29-2.03c0,0,0.78-0.13,1.75,0l-1.51-1.59
				c0,0,13.64-35.26,16.14-39.5c0.72-1.28,1.42-2.49,1.99-3.45c2.4-4.03,6.55-4.58,6.55-4.58S232.31,139.58,229.19,145.13z"/>
			<path id="XMLID_183_" class="st52" d="M164.74,238.5c-0.56,0.28-1.47-0.67-1.47-1.24c0-0.41,0.51-1.28,1.6-1.7
				C165.57,235.29,167.44,237.12,164.74,238.5z"/>
			<path id="XMLID_199_" class="st53" d="M248.81,239.09l10.65-2.4c-1.11-2.23,0-6.95,0-6.95
				C254.96,237.21,249.88,238.82,248.81,239.09z"/>
			<path id="XMLID_189_" class="st54" d="M249.25,232.81l7.18-1.74c0,0-1.34,4.51-7.03,6.98C249.4,238.05,248.29,235,249.25,232.81z
				"/>
			<path id="XMLID_205_" class="st11" d="M255.56,228.9c-0.33-0.56-3-0.33-3,0.83c0,1.17,0.66,1.57,0.59,1.59l2.42-0.61
				C255.56,230.71,255.9,229.45,255.56,228.9z M253.88,229.96c-0.25,0-0.46-0.21-0.46-0.46c0-0.25,0.21-0.46,0.46-0.46
				s0.46,0.21,0.46,0.46C254.34,229.76,254.13,229.96,253.88,229.96z"/>
			<path id="XMLID_203_" class="st55" d="M253.07,231.21c0.06,0.07,0.1,0.11,0.08,0.11l2.42-0.61c0,0,0.33-1.26,0-1.81
				c-0.02-0.03-0.04-0.05-0.07-0.07C255.37,230.67,253.85,231.04,253.07,231.21z"/>
			<path id="XMLID_208_" class="st55" d="M253.42,229.5c0,0.2,0.13,0.36,0.3,0.43c-0.11-0.09-0.19-0.23-0.19-0.39
				c0-0.25,0.19-0.45,0.43-0.49c-0.03,0-0.05-0.02-0.08-0.02C253.62,229.05,253.42,229.25,253.42,229.5z"/>
			<path id="XMLID_206_" class="st19" d="M248.59,239.13c0,0,4.91-0.72,8.19-1.32l2.68-0.59v-0.53L248.59,239.13z"/>
			<path id="XMLID_213_" class="st56" d="M252.07,148.24c1.17,0.27,4.4,0.47,5.76,0c1.36-0.47,0.85,4.11-1.03,4.61
				c-1.88,0.5-3.69,0.61-4.73-0.5C251.02,151.24,250.9,147.98,252.07,148.24z"/>
			<path id="XMLID_224_" class="st57" d="M261.07,150.79c0.17-1.64-0.54-3.26-1.01-3.01c-0.4,0.21-0.55,2.63-0.61,3.95
				C259.85,151.52,260.43,151.19,261.07,150.79z"/>
			<path id="XMLID_227_" class="st6" d="M270.81,237.02c1.48-1.26,3.03-5.03,3.23-6.9c0-0.05,0.01-0.1,0.01-0.16
				c-1.72,6-7.07,10.02-8.19,11.53c-1.09,1.45-2.59,3.37-2.5,3.42c0.24,0.09,0.46,0.12,0.64,0.12
				C263.98,245.03,269.32,238.28,270.81,237.02z"/>
			<path id="XMLID_220_" class="st52" d="M264.59,245.03c-0.31,0.49-1.49-0.21-1.64-0.72c-0.11-0.36,0.12-1.27,0.98-1.94
				C264.49,241.94,266.34,242.28,264.59,245.03z"/>
			<g id="XMLID_215_">
				<path class="st7" d="M268.82,239.14c0.64-0.74,1.28-1.49,1.95-2.22c0.69-0.66,1.2-1.51,1.63-2.38c0.45-0.86,0.82-1.77,1.13-2.69
					c0.29-0.92,0.62-1.88,0.38-2.85c0.11,0.47,0.22,0.97,0.13,1.47c-0.07,0.49-0.19,0.97-0.32,1.44c-0.28,0.95-0.65,1.86-1.1,2.75
					c-0.46,0.87-0.97,1.74-1.73,2.41C270.21,237.77,269.53,238.46,268.82,239.14z"/>
			</g>
			<path id="XMLID_237_" class="st23" d="M224.48,86c-0.26,5.63-0.07,15.24,3.4,22.5c0,0-0.39-10.76,1.09-18.52
				C226.96,89.03,225.45,87.36,224.48,86z"/>
			<path id="XMLID_238_" class="st58" d="M279.85,67.3c-0.6-1.64-2.63-2.21-3.97-1.09c-3.96,3.32-13.25,9.81-26.09,10.39
				c-17.03,0.77,13.46,5.81,29.68-3.41c0.59-0.34,0.97-0.96,1-1.64C280.52,70.54,280.46,68.95,279.85,67.3z"/>
		</g>
	</g>
</g>
<g id="DESIGNED_BY_FREEPIK">
</g>
</svg>
