<?xml version="1.0" standalone="no"?>
<!DOCTYPE svg PUBLIC "-//W3C//DTD SVG 20010904//EN"
 "http://www.w3.org/TR/2001/REC-SVG-20010904/DTD/svg10.dtd">
<svg version="1.0" xmlns="http://www.w3.org/2000/svg"
 width="1500.000000pt" height="1000.000000pt" viewBox="0 0 1500.000000 1000.000000"
 preserveAspectRatio="xMidYMid meet">

<g transform="translate(0.000000,1000.000000) scale(0.100000,-0.100000)"
fill="#000000" stroke="none">
<path d="M0 5000 l0 -5000 2851 0 2851 0 -7 93 c-3 50 -8 103 -11 117 -4 19
-3 22 6 14 6 -7 17 -59 23 -118 l11 -106 48 0 48 0 -5 87 c-3 49 -10 156 -16
238 -24 343 -27 412 -23 445 3 19 0 49 -6 65 -7 17 -14 91 -16 165 -3 74 -9
178 -15 230 -6 52 -13 241 -15 420 -3 179 -10 360 -17 402 l-12 77 -42 -40
c-24 -22 -43 -44 -43 -48 0 -3 -13 -14 -28 -23 -48 -28 -56 -13 -53 100 1 55
-3 138 -8 183 -5 46 -13 143 -17 214 -5 88 -10 124 -16 110 -6 -15 -7 -12 -3
13 2 17 0 32 -5 32 -6 0 -11 17 -11 38 -1 20 -5 51 -10 67 -5 17 -6 -55 -3
-173 4 -163 2 -205 -9 -216 -22 -22 -11 -172 18 -248 13 -35 24 -56 25 -48 1
25 16 -9 25 -55 4 -22 11 -42 15 -45 12 -8 65 -251 89 -406 24 -162 34 -250
28 -244 -3 3 -22 79 -42 170 -65 288 -107 417 -157 482 -16 20 -66 67 -111
105 -45 37 -131 112 -192 168 -173 158 -278 250 -305 268 -15 11 -44 17 -77
17 -47 0 -58 4 -94 37 -67 60 -176 309 -204 466 -11 58 1 44 25 -30 12 -38 35
-90 53 -117 17 -26 32 -58 33 -70 1 -11 3 -25 3 -30 1 -4 7 -6 15 -3 9 4 20
-6 30 -26 8 -18 44 -61 80 -96 63 -62 65 -64 89 -49 22 15 24 15 36 -4 9 -15
20 -19 39 -15 35 7 102 -21 103 -42 0 -10 2 -11 6 -3 2 6 10 9 16 5 7 -4 17
-8 22 -8 6 0 11 -4 12 -9 0 -5 8 -13 17 -18 9 -5 16 -18 16 -28 0 -15 7 -20
30 -20 24 0 28 3 23 17 -6 16 -5 16 22 -1 16 -11 40 -30 52 -43 13 -12 29 -23
34 -23 6 0 19 -10 30 -22 12 -16 18 -18 19 -9 0 11 4 9 15 -5 32 -42 9 -46
-43 -7 -31 24 -35 25 -28 8 16 -43 50 -82 67 -78 10 3 25 -4 36 -17 10 -13 34
-42 53 -65 19 -23 45 -55 58 -71 l22 -29 -15 32 c-8 18 -17 47 -19 65 -3 18
-12 69 -20 113 -9 44 -18 121 -21 170 -4 77 -15 182 -21 208 -1 4 -2 28 -3 53
-1 27 -5 43 -11 39 -6 -4 -10 5 -10 19 0 14 4 26 9 26 11 0 -4 59 -18 73 -6 6
-12 -1 -16 -19 -4 -16 -8 -33 -9 -39 -2 -5 1 -23 5 -40 10 -32 3 -69 -11 -60
-4 3 -13 -9 -19 -26 -6 -17 -15 -28 -21 -24 -6 4 -10 -9 -10 -34 0 -22 -4 -42
-9 -45 -4 -3 -11 -32 -15 -63 -13 -117 -36 -101 -34 22 0 39 -5 81 -11 94 -8
14 -9 27 -3 34 12 16 8 85 -6 99 -9 9 -12 6 -12 -14 0 -15 6 -29 13 -32 6 -3
3 -4 -8 -1 -17 4 -23 -6 -44 -73 -13 -42 -25 -102 -27 -132 -1 -30 -3 -57 -3
-59 -2 -10 -41 34 -41 46 0 7 -9 13 -20 13 -24 0 -25 8 -6 29 18 20 109 255
136 352 14 51 24 127 30 246 6 95 14 203 20 240 5 38 10 109 10 158 0 83 -3
97 -34 160 -34 71 -67 110 -121 139 l-30 17 30 -6 c17 -4 50 -19 75 -34 25
-15 66 -40 92 -55 26 -15 71 -50 100 -79 29 -29 48 -45 43 -37 -8 13 -7 13 8
1 9 -7 17 -19 17 -26 0 -7 21 -32 48 -55 26 -22 37 -36 25 -31 -12 6 -25 16
-28 21 -3 6 -12 10 -18 10 -12 0 66 -75 110 -106 31 -22 93 -36 87 -19 -3 7 5
15 18 19 54 14 352 -1 406 -21 36 -14 -105 -15 -164 -2 -38 9 -73 8 -140 -1
-49 -6 -90 -13 -92 -15 -2 -2 4 -15 15 -29 l18 -25 195 5 c107 3 213 9 235 14
67 16 82 12 134 -34 27 -24 80 -61 118 -82 80 -44 117 -76 133 -115 7 -16 15
-29 19 -29 4 0 8 -8 8 -17 1 -10 4 -29 5 -43 2 -15 -2 -24 -9 -23 -18 4 -43
-134 -30 -167 3 -8 8 -26 11 -40 2 -14 17 -77 32 -142 26 -110 29 -116 51
-112 14 3 23 -1 24 -8 0 -7 4 -3 9 10 13 30 38 28 51 -5 6 -15 16 -41 23 -58
23 -53 36 -86 36 -90 0 -3 -11 -5 -25 -5 -15 0 -25 6 -25 14 0 16 -31 31 -39
18 -3 -5 -15 -13 -25 -19 -16 -9 -11 -12 32 -18 29 -4 52 -10 52 -15 0 -4 10
-11 23 -14 21 -7 21 -8 3 -15 -11 -4 -38 -4 -60 0 -23 5 -45 8 -51 8 -13 0 26
-23 43 -25 22 -4 27 -14 7 -14 -14 0 -15 -3 -5 -15 12 -14 15 -14 31 1 10 9
27 14 39 11 27 -7 46 26 25 43 -14 12 -16 60 -6 184 1 4 14 6 30 4 21 -3 28
-1 24 9 -3 8 -12 12 -19 9 -8 -3 -14 -1 -14 4 0 6 -9 10 -21 10 -11 0 -17 5
-14 10 4 6 3 10 -2 9 -4 -1 -18 -1 -30 0 -21 1 -23 6 -23 51 0 38 4 50 15 50
26 0 16 20 -17 34 -23 10 -39 11 -61 3 -28 -9 -33 -7 -68 33 -56 63 -60 137
-11 190 11 12 18 30 15 40 -8 29 61 70 119 70 26 0 50 -4 53 -10 12 -19 -11
-35 -52 -36 -29 0 -52 -9 -77 -27 l-35 -27 20 -34 20 -34 29 30 c38 37 74 35
78 -4 3 -24 0 -28 -20 -28 -13 0 -32 -6 -43 -13 -17 -13 -17 -15 0 -45 15 -25
23 -30 45 -25 25 5 28 2 34 -34 13 -73 38 -133 63 -153 27 -21 41 -20 101 7
32 15 34 15 60 -10 50 -48 146 -97 247 -128 55 -16 110 -34 123 -39 38 -16
216 -40 297 -40 71 0 78 2 143 44 47 30 78 59 100 93 18 27 32 53 32 58 0 4
11 23 25 41 14 18 25 36 25 40 0 4 -10 -5 -21 -20 -12 -15 -24 -25 -27 -22 -3
3 -11 1 -19 -5 -7 -6 -13 -9 -13 -7 0 3 -19 2 -42 -2 -23 -5 -51 -4 -62 0 -20
8 -19 9 4 10 35 1 57 15 36 23 -30 12 -16 26 27 29 23 2 42 8 42 15 0 6 3 15
8 19 4 4 7 0 7 -9 0 -14 4 -15 25 -5 19 8 28 9 37 0 8 -8 24 0 61 33 27 25 53
45 57 45 10 0 21 -70 14 -97 -4 -15 0 -25 16 -33 11 -6 25 -22 30 -36 5 -13
15 -24 21 -24 7 0 8 6 3 18 -17 38 -15 128 5 202 11 41 21 104 22 140 l3 65
76 -4 c41 -2 72 0 69 3 -11 11 -219 17 -238 6 -14 -7 -22 -6 -31 5 -17 21 2
41 85 90 67 39 117 88 171 166 32 48 84 79 129 79 14 0 74 16 132 35 101 34
112 36 232 34 69 -1 157 4 194 10 94 16 149 12 155 -11 6 -26 16 -22 29 12 6
16 18 30 26 30 19 0 27 -43 11 -64 -22 -31 -25 -102 -9 -237 17 -139 35 -219
64 -279 9 -19 18 -51 19 -70 4 -65 -46 -564 -63 -633 -8 -31 9 -59 31 -50 8 3
14 16 14 28 0 13 4 27 10 30 5 3 10 1 10 -6 0 -7 2 -10 5 -7 3 3 -1 18 -10 34
-23 45 -20 57 13 37 l27 -17 -19 22 c-17 19 -17 22 -3 22 10 0 14 5 11 15 -3
8 -11 13 -17 12 -5 -1 -14 13 -17 31 -7 30 -6 32 13 26 17 -5 19 -3 12 12 -15
35 -19 77 -6 70 7 -5 9 -1 4 9 -3 10 -1 20 6 24 6 4 13 38 16 77 4 54 9 72 25
83 11 7 20 21 20 30 1 10 7 5 17 -13 13 -24 14 -47 8 -125 -4 -53 -7 -111 -6
-129 1 -21 -2 -31 -9 -27 -6 4 -10 -8 -10 -32 0 -21 -6 -47 -14 -58 -7 -11
-17 -35 -21 -54 -7 -34 -39 -74 -50 -63 -3 4 -3 -1 0 -10 4 -9 13 -14 21 -11
19 7 18 -1 -11 -55 -14 -26 -25 -53 -25 -61 0 -10 -8 -12 -30 -8 -33 7 -36 0
-22 -77 6 -35 9 -37 21 -23 19 23 41 21 41 -3 0 -12 -12 -43 -26 -71 -14 -28
-23 -57 -20 -65 5 -14 39 -333 51 -474 2 -36 12 -152 20 -259 9 -107 15 -292
15 -415 -1 -121 5 -333 14 -471 9 -137 16 -258 16 -267 0 -17 141 -18 2830
-18 l2830 0 0 5000 0 5000 -7500 0 -7500 0 0 -5000z m4649 3609 c140 -32 327
-188 346 -289 8 -41 16 -60 27 -60 5 0 7 -7 4 -16 -3 -8 -2 -12 4 -9 19 12 16
-81 -7 -175 -15 -64 -60 -166 -69 -157 -2 2 9 33 25 68 29 63 52 164 50 224
-1 17 -7 -4 -15 -45 -19 -107 -52 -188 -84 -207 -16 -11 -14 -4 10 36 33 58
39 83 47 212 l5 97 -24 -5 c-19 -4 -26 0 -31 16 -3 12 0 21 6 21 8 0 9 3 2 8
-6 4 -12 18 -12 31 -1 13 -4 26 -7 29 -13 12 -120 14 -200 2 -80 -11 -84 -13
-73 -31 14 -22 29 -26 21 -5 -3 8 4 16 18 19 13 4 25 2 26 -3 5 -13 39 -13 47
-1 5 9 27 8 114 -5 30 -5 32 -6 15 -19 -13 -9 -24 -10 -36 -4 -22 12 -51 11
-43 -1 9 -14 -29 -12 -43 2 -12 12 -13 10 -16 -14 0 -7 -21 -16 -46 -19 -25
-3 -58 -9 -74 -14 -21 -6 -27 -5 -22 4 5 7 -1 11 -16 11 -17 0 -19 -3 -9 -9
10 -7 11 -13 1 -31 -6 -12 -9 -24 -6 -28 3 -3 6 0 6 7 0 15 36 29 120 45 123
26 142 28 135 17 -8 -13 15 -14 34 -2 8 5 20 7 28 4 24 -9 -6 -34 -33 -27 -13
3 -32 3 -41 -1 -10 -5 -27 -7 -38 -6 -15 1 -21 -4 -22 -20 -3 -30 -8 -33 -35
-18 -23 13 -40 14 -68 2 -18 -7 -10 -5 -82 -27 -32 -10 -58 -20 -58 -22 0 -3
10 -3 23 1 20 5 20 5 -3 -9 -14 -8 -27 -10 -30 -5 -3 4 -18 -3 -32 -16 -32
-29 -42 -32 -30 -7 5 9 12 36 16 59 3 23 9 50 12 60 5 17 5 17 -9 0 -8 -10
-21 -44 -28 -77 -14 -65 -10 -61 -139 -141 -60 -38 -158 -85 -163 -78 -2 2
-18 35 -37 73 -19 38 -44 81 -55 95 -11 14 -14 21 -6 17 10 -7 12 -3 6 13 -14
44 -15 71 -4 71 7 0 10 -3 6 -6 -7 -7 20 -86 33 -94 5 -3 11 -16 13 -28 2 -12
19 -36 38 -53 29 -27 31 -31 11 -26 -12 3 -20 1 -16 -4 7 -12 25 -11 44 1 13
8 11 13 -12 32 -53 46 -79 112 -95 248 -3 25 -10 49 -17 53 -7 6 -4 7 7 3 11
-3 17 0 17 9 0 9 -6 12 -17 8 -15 -5 -15 -3 2 13 46 45 150 65 260 50 22 -3
65 -7 97 -10 64 -4 83 -12 70 -29 -11 -14 -22 -91 -11 -79 11 12 39 104 39
128 0 13 5 26 10 29 6 3 10 15 10 26 0 10 4 19 9 19 4 0 7 -12 4 -27 -3 -24
-2 -25 6 -8 7 16 10 10 12 -30 5 -61 21 -65 33 -7 9 43 26 58 26 22 0 -11 7
-20 15 -20 10 0 15 11 15 35 0 31 3 35 25 35 14 0 25 -6 25 -12 0 -10 2 -10 9
0 5 9 17 11 37 6 26 -7 28 -6 16 9 -8 9 -20 13 -27 10 -8 -3 -22 3 -31 12 -16
16 -18 16 -28 -2 -9 -17 -10 -16 -16 7 -5 22 -13 26 -60 31 -30 3 -57 2 -60
-2 -3 -4 -11 -1 -18 7 -11 12 -6 14 30 14 24 0 63 -5 87 -11z m-22 -66 c-3
-10 -5 -2 -5 17 0 19 2 27 5 18 2 -10 2 -26 0 -35z m-394 -18 c-43 -39 -57
-47 -79 -44 -4 0 -10 -5 -15 -12 -4 -8 -10 -11 -13 -8 -3 3 6 16 21 30 14 13
23 18 19 12 -8 -15 -5 -16 18 -7 9 3 16 10 16 16 0 5 -6 6 -12 2 -9 -5 -8 -2
1 10 11 13 16 14 22 4 7 -10 9 -10 9 -1 0 10 43 41 58 43 2 0 -18 -20 -45 -45z
m624 -141 c-3 -3 -12 -4 -19 -1 -8 3 -5 6 6 6 11 1 17 -2 13 -5z m-797 -54 c0
-5 -4 -10 -10 -10 -5 0 -7 -8 -4 -17 5 -14 4 -15 -4 -4 -11 15 -5 41 9 41 5 0
9 -4 9 -10z m-50 -71 c0 -10 -5 -19 -11 -19 -5 0 -8 -4 -5 -8 2 -4 0 -14 -6
-22 -8 -12 -9 -12 -4 3 3 9 0 17 -6 17 -9 0 -9 3 0 12 7 7 12 20 12 31 0 10 5
15 10 12 6 -3 10 -15 10 -26z m728 -91 c16 -29 32 -64 36 -78 3 -14 3 -19 0
-12 -3 6 -11 9 -17 5 -7 -4 -8 0 -4 11 4 10 3 15 -3 11 -5 -3 -15 5 -22 19 -6
14 -18 26 -25 26 -18 0 -11 -24 33 -112 18 -38 32 -68 30 -68 -2 0 -26 33 -52
73 -26 39 -53 77 -59 84 -13 13 -106 13 -98 0 3 -4 19 -7 36 -5 26 2 32 -1 32
-17 1 -28 14 -47 27 -39 7 5 9 1 5 -9 -4 -11 -1 -17 8 -17 8 0 15 -4 15 -10 0
-21 -24 -9 -60 30 -28 31 -42 39 -56 33 -15 -6 -16 -8 -4 -11 18 -4 66 -62 51
-62 -6 0 -11 4 -11 10 0 5 -10 15 -22 21 -23 12 -23 12 -4 -10 29 -32 -2 -26
-43 9 -30 25 -70 32 -55 9 3 -5 9 -7 14 -4 5 3 11 1 15 -5 4 -6 -4 -10 -19
-10 -13 0 -26 -6 -29 -12 -2 -7 -7 -10 -11 -7 -4 3 -2 19 4 34 6 16 9 34 6 41
-3 7 36 32 97 62 89 44 116 55 149 61 3 0 20 -23 36 -51z m122 42 c0 -5 -4
-10 -10 -10 -5 0 -10 5 -10 10 0 6 5 10 10 10 6 0 10 -4 10 -10z m197 -62 c-3
-8 -6 -5 -6 6 -1 11 2 17 5 13 3 -3 4 -12 1 -19z m-177 -8 c0 -5 -7 -7 -15 -4
-8 4 -15 8 -15 10 0 2 7 4 15 4 8 0 15 -4 15 -10z m-450 -54 c-14 -38 -34 -66
-46 -66 -17 0 -47 -37 -35 -44 5 -4 15 2 21 11 9 15 10 14 4 -7 -8 -31 -15
-39 -21 -22 -3 6 -10 9 -15 6 -7 -4 -8 -2 -4 4 4 7 3 12 -2 12 -18 0 -21 -29
-4 -33 13 -4 13 -5 2 -6 -8 0 -22 4 -30 9 -13 9 -13 11 0 20 13 8 12 10 -3 10
-11 0 -30 -9 -44 -20 -29 -22 -67 -27 -60 -7 2 6 10 12 18 12 8 0 16 2 19 5
16 16 72 40 80 35 13 -8 50 4 50 16 0 6 -8 6 -20 -1 -11 -6 -20 -8 -20 -5 0 3
16 13 35 21 19 8 44 28 57 44 26 36 30 38 18 6z m365 -36 c3 -5 1 -10 -4 -10
-6 0 -11 5 -11 10 0 6 2 10 4 10 3 0 8 -4 11 -10z m-256 -23 c7 -10 7 -17 0
-24 -30 -30 73 -39 109 -10 7 5 15 7 18 4 10 -9 -53 -37 -83 -37 -15 0 -47 11
-70 24 -24 14 -45 20 -48 15 -4 -5 -12 -9 -18 -9 -12 1 62 50 74 50 4 0 11 -6
18 -13z m496 -19 c-7 -32 -42 -108 -49 -108 -2 0 7 26 20 58 13 31 24 63 24
70 0 6 3 12 6 12 3 0 2 -15 -1 -32z m-917 -6 c2 -13 10 -26 18 -29 23 -9 16
-19 -26 -38 -22 -10 -40 -22 -40 -27 0 -5 6 -6 13 -2 9 5 9 4 0 -6 -16 -17
-35 -3 -28 21 4 10 2 19 -4 19 -12 0 3 55 20 76 17 21 43 13 47 -14z m692 12
c0 -8 -5 -12 -10 -9 -6 4 -8 11 -5 16 9 14 15 11 15 -7z m-218 -27 c-17 -8
-26 -7 -35 3 -10 10 -9 12 5 7 10 -3 20 -2 23 4 4 5 11 6 18 2 7 -4 3 -10 -11
-16z m238 3 c0 -5 -5 -10 -11 -10 -5 0 -7 5 -4 10 3 6 8 10 11 10 2 0 4 -4 4
-10z m-272 -61 c23 -10 42 -20 42 -23 0 -6 -44 7 -90 26 -27 11 -40 12 -57 3
-13 -7 -20 -15 -16 -18 3 -4 4 -7 0 -7 -20 0 -13 21 10 34 30 16 42 14 111
-15z m-407 1 c-13 -11 -31 -20 -40 -20 -9 1 0 9 19 19 46 24 50 25 21 1z m559
16 c0 -3 -4 -8 -10 -11 -5 -3 -10 -1 -10 4 0 6 5 11 10 11 6 0 10 -2 10 -4z
m-95 -24 c-3 -3 -11 0 -18 7 -9 10 -8 11 6 5 10 -3 15 -9 12 -12z m-578 -7 c0
-8 -3 -13 -5 -10 -3 3 -12 -1 -20 -8 -13 -11 -14 -9 -1 11 16 26 26 28 26 7z
m680 0 c0 -8 -4 -12 -9 -9 -5 3 -6 10 -3 15 9 13 12 11 12 -6z m-517 -5 c0
-17 -59 -41 -85 -34 -21 5 -25 3 -25 -15 0 -13 -6 -21 -16 -21 -31 0 10 44 57
62 51 20 69 22 69 8z m143 -15 c-10 -7 -20 -12 -21 -10 -7 7 23 33 31 28 5 -3
0 -11 -10 -18z m677 16 c0 -15 -49 -68 -50 -53 0 6 5 12 10 12 6 0 16 11 22
25 12 26 18 32 18 16z m-543 -7 c-3 -3 -12 -4 -19 -1 -8 3 -5 6 6 6 11 1 17
-2 13 -5z m421 -29 c-3 -3 -9 2 -12 12 -6 14 -5 15 5 6 7 -7 10 -15 7 -18z
m-893 -21 c8 -20 15 -39 15 -43 -1 -8 -39 61 -40 72 -1 18 11 4 25 -29z m575
10 l35 -14 -35 6 c-43 8 -80 21 -80 29 0 7 24 0 80 -21z m-382 -15 c-8 -25
-15 -30 -37 -27 -38 4 -35 34 4 30 21 -2 26 0 16 7 -11 7 -10 10 5 14 10 2 20
5 21 6 1 0 -3 -13 -9 -30z m487 10 c-4 -5 -12 -9 -18 -8 -9 0 -8 2 1 6 6 2 9
10 6 15 -4 7 -2 8 5 4 6 -4 9 -12 6 -17z m-635 1 c0 -5 -5 -10 -11 -10 -5 0
-7 5 -4 10 3 6 8 10 11 10 2 0 4 -4 4 -10z m700 -16 c0 -2 -8 0 -19 5 -10 6
-22 7 -26 3 -5 -4 -5 -1 -1 6 5 9 12 9 27 2 10 -6 19 -13 19 -16z m60 22 c0
-11 -19 -15 -25 -6 -3 5 1 10 9 10 9 0 16 -2 16 -4z m59 -32 c22 -37 24 -48 5
-36 -16 10 -46 72 -35 72 5 0 19 -16 30 -36z m-589 11 c-7 -9 -15 -13 -19 -10
-3 3 1 10 9 15 21 14 24 12 10 -5z m655 -32 c8 -19 15 -47 14 -62 0 -30 -4
-24 -32 62 -18 54 -4 54 18 0z m-615 11 c0 -2 -7 -4 -15 -4 -8 0 -15 4 -15 10
0 5 7 7 15 4 8 -4 15 -8 15 -10z m51 -11 c-4 -16 -6 -33 -4 -39 2 -6 -2 -14
-10 -17 -10 -4 -12 3 -9 27 5 43 10 56 21 56 6 0 6 -11 2 -27z m629 23 c0 -3
-4 -8 -10 -11 -5 -3 -10 -1 -10 4 0 6 5 11 10 11 6 0 10 -2 10 -4z m-297 -23
c-7 -2 -21 -2 -30 0 -10 3 -4 5 12 5 17 0 24 -2 18 -5z m7135 -15 c11 -13 33
-57 48 -98 15 -41 33 -82 39 -90 29 -35 125 -407 125 -484 0 -22 4 -47 9 -55
17 -27 25 13 25 131 0 104 2 119 18 124 22 7 54 -11 70 -39 9 -15 14 -97 18
-262 5 -200 9 -247 24 -285 15 -35 20 -80 23 -205 3 -113 1 -156 -6 -145 -8
12 -11 6 -11 -23 0 -23 -4 -36 -10 -32 -15 9 -12 -18 4 -41 15 -22 18 -66 4
-58 -4 3 -8 -7 -8 -21 0 -26 0 -26 -21 -7 -11 11 -29 18 -39 15 -10 -3 -26 3
-37 14 -16 16 -18 37 -17 253 1 222 2 238 24 284 19 42 22 60 16 117 -8 88
-14 102 -40 95 -32 -8 -98 10 -109 30 -9 15 -13 9 -28 -36 -10 -30 -16 -61
-14 -68 3 -7 0 -43 -6 -80 -5 -37 -11 -90 -13 -117 -2 -28 -11 -65 -20 -83
-15 -29 -28 -36 -64 -35 -7 1 -11 -5 -8 -12 3 -8 0 -16 -7 -19 -7 -3 -2 -3 11
0 21 5 22 4 10 -15 -7 -12 -19 -19 -25 -16 -18 6 -16 -5 2 -25 14 -16 14 -21
-2 -56 -10 -22 -22 -42 -28 -46 -5 -4 2 -8 16 -8 31 0 45 -32 23 -51 -8 -6
-14 -15 -14 -20 0 -4 -12 -21 -26 -36 l-26 -28 4 36 c4 37 -9 59 -36 59 -8 0
-16 6 -19 13 -2 6 -8 9 -12 5 -6 -6 -9 -27 -13 -136 -1 -19 -6 -31 -12 -27 -5
3 -10 2 -10 -3 0 -12 64 -25 68 -14 1 5 9 18 17 28 14 18 14 18 15 -2 0 -11
-10 -50 -21 -85 -12 -35 -21 -84 -21 -109 1 -46 -31 -110 -54 -110 -6 0 -17
-11 -24 -25 -7 -14 -17 -25 -22 -25 -4 0 -8 -9 -8 -21 0 -15 -5 -19 -16 -15
-8 3 -12 2 -9 -4 3 -6 -1 -13 -9 -16 -9 -3 -16 -15 -16 -25 0 -10 -6 -19 -12
-20 -10 0 -10 -2 0 -6 17 -7 15 -23 -3 -23 -8 0 -15 -4 -15 -8 0 -5 22 -4 49
1 41 9 52 8 65 -6 24 -23 20 -46 -10 -57 -21 -9 -25 -15 -20 -35 5 -20 3 -25
-13 -25 -11 0 -25 -9 -31 -21 -13 -24 -4 -41 10 -19 8 13 10 12 10 -2 0 -10 8
-18 18 -19 12 0 10 -4 -9 -12 -25 -12 -25 -13 -8 -31 22 -23 17 -36 -11 -29
-13 4 -22 -1 -27 -13 -4 -11 -13 -25 -20 -32 -7 -7 -13 -23 -13 -35 0 -15 -3
-18 -8 -9 -7 9 -13 7 -28 -9 -19 -22 -19 -22 3 -17 20 5 21 4 12 -13 -15 -28
-1 -44 21 -24 11 10 20 12 24 6 4 -5 2 -12 -4 -16 -5 -3 -10 -24 -10 -45 0
-21 -4 -42 -10 -45 -5 -3 -10 -1 -10 6 0 9 -4 9 -15 -1 -8 -6 -19 -9 -24 -6
-6 4 -15 -2 -21 -13 -12 -23 7 -42 20 -21 11 18 29 4 23 -18 -2 -10 5 -26 16
-36 26 -24 27 -36 1 -36 -22 0 -44 -41 -28 -51 5 -3 3 -9 -5 -12 -8 -3 -17
-20 -21 -38 -3 -19 -20 -44 -41 -62 -19 -16 -35 -35 -35 -41 0 -14 -47 -66
-60 -66 -6 0 -10 -7 -10 -15 0 -8 -4 -15 -10 -15 -5 0 -10 -5 -10 -12 0 -16
-41 -58 -57 -58 -7 0 -13 -4 -13 -9 0 -5 -21 -18 -46 -30 -25 -12 -65 -41 -89
-65 -24 -25 -53 -47 -64 -51 -12 -3 -21 -11 -21 -18 0 -6 -8 -20 -19 -31 -24
-27 -36 -66 -21 -66 7 0 9 -8 5 -21 -5 -14 -2 -25 6 -30 9 -6 0 -6 -21 -3 -19
4 -40 11 -47 16 -17 14 -29 -15 -25 -62 3 -29 9 -40 21 -40 19 0 61 -27 61
-39 0 -4 -20 -22 -45 -40 -25 -18 -45 -29 -45 -24 0 4 -7 -3 -16 -16 -21 -30
-4 -52 21 -27 27 26 41 18 15 -9 -13 -14 -41 -30 -62 -36 -22 -5 -47 -18 -58
-29 -10 -10 -27 -21 -39 -25 -12 -3 -21 -10 -21 -15 0 -8 -49 -25 -64 -21 -10
2 -33 -26 -46 -56 -5 -12 -22 -30 -37 -40 -15 -10 -36 -28 -46 -40 -10 -13
-23 -23 -29 -23 -5 0 -21 -9 -35 -20 -14 -11 -23 -20 -19 -20 4 0 -4 -11 -18
-24 -15 -13 -26 -30 -26 -38 0 -8 -5 -19 -12 -26 -9 -9 -9 -12 0 -12 7 0 12
-5 12 -11 0 -6 -6 -9 -12 -6 -7 2 -24 -4 -37 -14 -13 -11 -32 -19 -43 -19 -11
0 -17 -4 -14 -8 2 -4 -9 -14 -25 -21 -22 -10 -28 -18 -24 -32 4 -12 1 -19 -7
-20 -7 -1 5 -5 27 -9 31 -6 46 -4 65 10 14 9 42 23 63 30 34 11 40 10 52 -7
19 -24 18 -27 -5 -48 -11 -10 -20 -26 -20 -36 0 -10 -8 -23 -17 -28 -10 -6
-13 -11 -6 -11 7 0 10 -6 7 -14 -3 -8 -15 -11 -32 -9 -26 4 -26 4 -8 -11 19
-16 19 -16 -1 -16 -12 0 -25 5 -29 11 -4 8 -9 8 -18 -1 -8 -8 -8 -13 2 -19 10
-6 8 -14 -8 -34 -12 -15 -28 -27 -36 -27 -16 0 -54 -35 -54 -50 0 -5 -13 -10
-30 -10 -18 0 -30 -5 -30 -13 0 -19 -40 -38 -73 -35 -26 2 -28 5 -23 31 4 19
2 26 -5 21 -7 -4 -10 -1 -7 7 2 7 15 16 29 20 24 7 24 7 1 8 -21 1 -41 25 -30
36 2 3 20 6 38 8 38 5 53 24 18 23 -20 -1 -23 5 -26 37 -3 38 -3 38 -21 16
-17 -21 -18 -21 -44 -4 -15 9 -27 24 -27 33 0 8 -3 13 -6 9 -3 -3 -17 4 -29
16 -37 34 -78 192 -79 300 l-1 88 44 41 c52 47 124 96 240 164 120 70 193 148
326 348 122 185 169 239 491 566 224 228 278 306 408 593 41 90 95 169 109
160 6 -3 7 -1 3 5 -4 6 0 24 7 39 8 15 27 64 42 108 15 44 39 103 54 130 58
116 87 212 91 308 0 5 4 6 9 3 5 -4 7 3 4 14 -3 11 -1 20 4 20 5 0 9 24 8 53
-1 28 0 37 2 19 2 -18 8 -30 14 -27 5 4 6 -2 2 -11 -4 -12 -3 -15 5 -10 7 4
12 16 12 26 0 10 3 21 8 24 4 2 6 22 4 43 -11 112 -8 199 8 228 14 25 18 58
11 98 -2 10 -31 9 -31 -2 0 -5 -9 -7 -20 -4 -15 4 -20 13 -19 37 2 30 2 30 6
4 2 -16 9 -28 14 -28 6 0 8 4 5 9 -3 5 5 12 19 15 18 5 25 13 25 31 0 15 -6
25 -15 25 -25 0 -35 35 -35 119 0 67 -2 79 -15 75 -8 -4 -15 -2 -15 4 0 6 -3
19 -6 29 -5 15 -4 16 6 3 9 -12 10 -10 4 10 -4 14 -10 27 -14 30 -10 8 -33
100 -26 107 3 3 6 -4 6 -16 0 -14 7 -25 19 -28 10 -2 25 -19 34 -36 l16 -32
-3 33 c-1 17 -6 35 -9 39 -4 3 -2 12 4 20 9 10 8 13 -5 13 -9 0 -16 5 -16 10
0 6 -5 10 -11 10 -20 0 -36 25 -41 68 -4 28 -2 42 5 42 9 0 9 2 0 8 -13 8 -39
136 -48 238 -5 62 -3 72 14 88 33 30 68 14 91 -40 11 -25 20 -59 20 -74 0 -16
4 -31 9 -34 5 -4 12 -28 16 -54 7 -50 20 -81 30 -71 3 4 1 19 -6 35 -6 16 -17
63 -25 104 -8 41 -19 77 -24 78 -14 5 -12 56 2 70 20 20 72 14 96 -10z m-7728
2 c0 -5 -4 -10 -10 -10 -5 0 -10 5 -10 10 0 6 5 10 10 10 6 0 10 -4 10 -10z
m196 -19 c1 -12 -2 -23 -6 -26 -4 -2 -7 1 -7 8 0 7 -4 20 -8 31 -6 14 -4 17 6
14 8 -3 15 -15 15 -27z m254 15 c40 -13 42 -15 15 -15 -16 0 -41 6 -55 14 -32
18 -17 18 40 1z m103 -3 c-7 -2 -21 -2 -30 0 -10 3 -4 5 12 5 17 0 24 -2 18
-5z m62 -14 c-16 -7 -13 -8 12 -5 25 4 31 2 27 -9 -5 -11 -19 -13 -67 -8 -78
7 -111 23 -44 21 26 -1 50 2 54 5 3 4 13 7 22 6 12 0 11 -3 -4 -10z m80 1 c3
-5 1 -10 -4 -10 -6 0 -11 5 -11 10 0 6 2 10 4 10 3 0 8 -4 11 -10z m-674 -33
c-13 -13 -26 -3 -16 12 3 6 11 8 17 5 6 -4 6 -10 -1 -17z m-326 -10 c8 -13 13
-33 10 -46 -2 -13 0 -32 6 -43 7 -13 7 -29 0 -50 -8 -23 -7 -33 4 -45 8 -8 15
-27 15 -43 0 -16 5 -32 11 -35 6 -4 8 -14 5 -22 -5 -11 -1 -13 15 -8 15 5 19
4 15 -4 -4 -6 -2 -11 3 -11 6 0 11 -10 11 -23 0 -13 9 -26 22 -32 12 -6 22
-20 23 -34 1 -13 10 -28 20 -33 10 -6 13 -13 7 -17 -6 -4 0 -26 14 -58 28 -61
23 -82 -31 -145 -18 -22 -43 -60 -54 -84 -12 -24 -26 -44 -32 -44 -5 0 -7 -5
-3 -11 4 -8 9 -7 15 2 5 8 9 9 9 4 0 -6 -5 -16 -11 -22 -7 -7 -8 -17 -1 -29 9
-16 10 -16 20 3 6 11 9 23 7 27 -3 3 -2 4 2 1 3 -3 17 9 29 27 18 24 21 35 13
45 -15 18 -22 17 -15 -3 3 -8 2 -13 -3 -10 -11 7 -23 -22 -15 -35 3 -5 1 -9
-5 -9 -19 0 -20 17 -1 48 17 28 21 30 43 19 27 -13 30 -4 -32 -103 l-31 -51
36 -54 c37 -55 49 -61 49 -23 0 11 6 28 13 37 8 9 11 21 7 27 -5 7 -11 5 -20
-7 -13 -16 -13 -16 -8 7 7 31 23 51 33 45 5 -3 6 -15 2 -28 -5 -19 -3 -20 10
-10 8 7 17 11 20 8 3 -3 26 26 52 65 25 38 48 70 51 70 8 0 -14 -37 -95 -163
-68 -107 -69 -108 -49 -128 22 -22 25 -52 7 -66 -19 -14 -127 -16 -143 -3 -10
8 -15 8 -22 -3 -4 -8 -22 -21 -38 -30 -29 -14 -33 -14 -93 15 -40 20 -73 45
-94 72 -33 43 -94 106 -103 106 -3 0 -5 -9 -5 -20 0 -12 -7 -20 -17 -20 -14 0
-13 -4 6 -22 l24 -21 -34 -18 -34 -17 49 5 c39 5 48 3 44 -8 -3 -8 -15 -20
-29 -27 -22 -11 -19 -12 24 -6 56 8 74 -3 83 -51 5 -28 -1 -47 -34 -107 -29
-52 -38 -78 -32 -88 9 -13 10 -13 10 0 0 13 1 13 10 0 6 -9 5 -17 -2 -21 -6
-4 -7 -12 -4 -18 4 -6 2 -11 -3 -11 -6 0 -11 6 -11 14 0 8 -4 17 -8 20 -5 3
-9 -8 -9 -24 0 -64 35 -31 102 98 21 40 40 70 43 68 2 -3 -43 -99 -101 -213
-134 -265 -324 -701 -362 -830 -5 -17 -14 -23 -38 -24 -18 -1 10 -5 62 -10
239 -19 505 -105 653 -210 15 -11 28 -17 28 -14 0 4 7 -1 16 -9 8 -9 13 -20 9
-25 -8 -13 -39 -6 -89 20 -65 34 -235 104 -306 127 -229 72 -458 93 -608 53
-39 -10 -70 -16 -67 -12 11 19 120 63 178 73 l66 11 17 46 c83 225 178 446
303 705 l82 169 -37 96 c-20 53 -44 117 -55 143 -31 76 -26 126 22 197 49 73
104 121 140 121 19 0 33 10 52 38 24 37 25 43 17 113 -5 41 -13 94 -19 119 -5
25 -9 101 -8 170 0 82 -6 157 -17 218 -17 85 -17 94 -2 117 15 23 28 29 86 38
66 11 90 7 105 -16z m805 -1 c47 -9 112 -19 145 -23 l60 -8 -65 -5 c-45 -3
-59 -7 -46 -13 18 -7 16 -11 -20 -43 -34 -31 -36 -34 -14 -28 14 4 71 29 127
55 135 64 151 63 85 -4 -39 -40 -60 -54 -81 -54 -16 0 -43 -10 -61 -23 -30
-21 -37 -22 -84 -13 -31 7 -58 7 -68 2 -9 -5 -27 -9 -39 -9 -21 0 -22 -1 -4
-20 22 -24 14 -25 -24 -5 -31 16 -101 92 -101 109 1 6 10 0 22 -14 l21 -25 -8
25 c-4 14 -10 31 -12 38 -10 24 34 12 63 -19 16 -17 41 -37 55 -45 24 -12 28
-11 43 5 11 12 13 21 7 25 -5 4 -12 2 -16 -4 -3 -5 -13 -10 -22 -10 -13 0 -13
3 -3 15 10 12 10 18 0 30 -7 9 -19 14 -27 11 -8 -3 -13 0 -12 7 3 28 -3 32
-48 32 -38 0 -48 4 -51 19 -3 16 2 18 45 13 26 -2 86 -12 133 -21z m-447 -52
c-7 -3 -9 -13 -6 -22 4 -14 3 -14 -5 -2 -12 16 -7 30 11 29 9 0 9 -2 0 -5z
m161 -64 c6 -43 6 -44 -8 -20 -9 14 -15 38 -16 55 0 43 17 18 24 -35z m-94
-15 c0 -7 9 -17 21 -20 11 -4 18 -9 16 -12 -8 -7 -62 23 -78 44 -13 16 -13 17
4 4 10 -8 17 -9 17 -3 0 6 -9 17 -20 25 -11 8 -17 17 -13 20 8 9 53 -40 53
-58z m12 30 c24 -43 31 -41 18 4 -8 28 -7 31 5 21 8 -7 21 -25 29 -41 14 -28
14 -29 -11 -27 -14 2 -34 14 -44 28 -10 14 -24 31 -29 38 -8 8 -8 12 0 12 6 0
20 -16 32 -35z m179 -15 c30 -49 35 -67 18 -62 -5 1 -9 -2 -9 -8 0 -5 -8 -10
-17 -10 -14 0 -15 2 -5 9 10 6 9 11 -4 22 -34 28 -50 99 -23 99 5 0 23 -22 40
-50z m-45 -31 l16 -31 -26 18 c-14 11 -26 25 -26 32 0 23 19 12 36 -19z m-46
-19 c8 -5 12 -12 8 -15 -9 -9 -59 6 -52 16 7 12 25 11 44 -1z m278 -182 c-35
-40 -76 -89 -91 -109 l-27 -36 25 -11 c33 -15 41 -38 49 -152 4 -52 10 -126
14 -165 10 -93 7 -102 -32 -109 -19 -4 -34 -12 -33 -19 1 -39 -5 -57 -18 -57
-13 0 -14 -4 -4 -21 8 -16 8 -20 -1 -14 -7 4 -10 2 -8 -6 3 -17 -47 -72 -68
-75 -9 -1 -24 -10 -33 -18 -10 -9 -28 -16 -42 -17 l-24 0 23 -10 c22 -8 22
-10 7 -25 -9 -10 -24 -14 -37 -11 -16 5 -18 3 -9 -6 19 -19 12 -27 -15 -17
-42 17 -61 12 -61 -13 0 -17 6 -23 25 -25 14 -1 31 -7 38 -13 7 -6 30 -8 53
-4 l40 6 -12 -30 c-6 -16 -13 -28 -16 -26 -7 4 -5 -78 4 -205 7 -93 7 -96 -19
-123 -14 -15 -26 -37 -26 -48 0 -11 -7 -22 -15 -25 -19 -8 -56 35 -51 59 2 9
0 15 -4 12 -14 -9 -82 23 -75 35 3 5 2 10 -3 10 -5 0 -14 11 -20 24 -6 13 -25
32 -42 42 -37 22 -48 56 -27 87 8 13 12 35 10 54 -4 23 1 40 16 59 25 31 28
74 6 74 -17 0 -19 9 -5 30 8 12 12 12 18 2 7 -10 11 -10 22 2 7 9 17 13 22 10
6 -4 5 2 -1 14 -8 15 -7 23 4 32 9 7 14 18 13 24 -1 6 6 29 16 51 9 22 21 61
26 86 14 72 51 141 73 135 13 -3 27 10 55 52 20 31 40 60 45 63 4 3 4 16 -1
29 -7 18 -3 28 16 47 14 14 28 21 33 16 6 -6 -1 -19 -16 -33 -35 -33 -31 -47
5 -17 16 14 33 27 38 29 5 1 12 15 15 29 5 19 1 33 -16 52 -18 22 -32 27 -80
29 -45 2 -56 6 -54 18 1 10 -6 15 -24 14 -17 0 -25 4 -22 12 2 7 -1 15 -6 19
-6 3 -9 10 -6 15 3 5 -10 12 -30 16 -36 6 -39 11 -35 54 3 40 27 53 64 32 17
-9 38 -23 47 -30 15 -12 21 -9 44 23 15 19 30 33 33 31 2 -3 -8 -20 -23 -38
-15 -18 -23 -33 -19 -35 5 -1 31 -9 58 -17 56 -17 42 -27 170 123 43 50 81 90
84 87 3 -3 -24 -38 -60 -78z m-444 -130 c-7 -12 -141 -196 -150 -207 -2 -2 -6
-2 -9 1 -5 5 153 218 161 218 3 0 2 -6 -2 -12z m84 -118 c-7 -11 -16 -20 -21
-20 -4 0 -3 9 3 20 6 11 15 20 20 20 6 0 5 -9 -2 -20z m7469 -127 c-3 -10 -5
-2 -5 17 0 19 2 27 5 18 2 -10 2 -26 0 -35z m-7485 -130 c-240 -370 -432 -750
-617 -1223 -42 -107 -81 -206 -86 -219 -8 -20 -14 -22 -41 -17 -17 3 -34 8
-36 11 -24 24 309 811 365 865 9 8 13 9 9 3 -4 -7 -2 -21 3 -30 9 -16 10 -15
11 8 0 14 6 31 13 38 10 10 9 11 -5 6 -11 -4 -18 -2 -18 4 0 6 4 11 9 11 5 0
8 8 7 18 0 10 5 16 13 14 9 -2 11 3 7 13 -3 9 -2 13 4 10 6 -3 10 -15 10 -25
0 -32 18 -32 35 -1 11 22 12 37 5 55 -5 14 -7 34 -4 43 5 15 4 16 -5 3 -5 -8
-9 -33 -6 -56 2 -22 -1 -47 -7 -55 -8 -12 -9 -11 -5 2 3 9 1 22 -3 30 -6 8 -4
17 3 22 9 7 9 10 0 14 -10 3 -9 11 2 34 9 16 20 29 26 29 6 0 9 6 6 13 -3 8
-1 20 5 28 8 11 9 10 4 -3 -3 -10 -1 -18 5 -18 6 0 8 -7 5 -16 -3 -8 -2 -13 3
-10 5 4 7 -3 4 -15 -4 -14 -8 -17 -13 -8 -5 7 -7 1 -7 -15 2 -24 3 -25 15 -9
8 10 25 39 38 65 13 27 45 82 69 124 25 42 42 81 38 86 -3 6 -2 8 4 5 5 -3 18
8 28 26 44 76 188 287 192 283 3 -3 -35 -67 -85 -143z m-168 66 c-5 10 -3 12
5 7 9 -6 9 -13 -2 -29 -8 -12 -19 -22 -25 -22 -6 0 -14 -4 -19 -9 -5 -5 -3 -6
5 -2 6 4 12 2 12 -3 0 -15 -15 -14 -29 3 -14 17 3 61 20 51 5 -4 9 -3 8 2 -4
22 3 25 17 7 8 -10 12 -13 8 -5z m246 -69 c0 -5 -4 -10 -9 -10 -6 0 -13 5 -16
10 -3 6 1 10 9 10 9 0 16 -4 16 -10z m-3797 -104 c60 -18 163 -92 215 -153 81
-98 126 -314 88 -426 -30 -89 -74 -162 -125 -211 -92 -85 -263 -147 -367 -131
-30 4 -51 16 -81 48 -57 60 -101 128 -125 195 -25 71 -35 227 -19 302 15 68
62 167 101 211 16 19 30 37 30 40 0 18 193 136 226 138 6 1 32 -5 57 -13z
m11214 -38 c-3 -7 -5 -2 -5 12 0 14 2 19 5 13 2 -7 2 -19 0 -25z m-7707 -139
c0 8 3 12 6 9 9 -10 -15 -48 -31 -48 -8 0 -12 -6 -9 -13 2 -7 -3 -21 -11 -32
-16 -20 -16 -20 -7 0 11 23 5 48 -9 39 -5 -3 -9 0 -9 6 0 6 6 10 14 8 8 -2 15
0 15 5 0 4 6 14 13 21 10 10 15 11 20 2 5 -7 8 -7 8 3z m-263 -260 c-122 -241
-203 -423 -307 -689 -80 -203 -84 -209 -136 -196 -30 8 -32 1 41 188 124 316
346 795 365 783 5 -3 12 0 16 6 4 8 3 9 -4 5 -16 -10 -15 -1 3 35 9 17 21 27
27 23 7 -4 8 -3 4 4 -9 16 11 52 29 52 8 0 15 -5 15 -11 0 -8 4 -9 13 0 8 6
17 8 20 4 4 -3 7 0 8 8 0 8 3 9 5 3 2 -6 -42 -102 -99 -215z m1319 182 c80
-21 140 -58 219 -135 59 -58 74 -83 105 -176 17 -49 23 -90 23 -165 1 -97 0
-103 -40 -186 -64 -135 -140 -201 -301 -259 -52 -19 -75 -22 -139 -17 -100 8
-234 52 -276 92 -140 133 -174 210 -164 370 14 206 121 371 302 463 50 26 72
31 130 31 39 1 102 -8 141 -18z m-1051 -231 c-3 -5 -13 -10 -21 -10 -8 0 -12
5 -9 10 3 6 13 10 21 10 8 0 12 -4 9 -10z m84 -175 c12 -24 38 -70 57 -102 41
-69 42 -84 5 -101 -20 -9 -28 -20 -28 -37 0 -14 3 -28 8 -31 12 -7 11 -74 -1
-74 -26 0 3 -76 31 -85 11 -4 31 -27 45 -51 l27 -45 -19 -57 c-18 -56 -50 -96
-68 -85 -5 4 -6 1 -2 -6 5 -7 15 -10 25 -6 14 5 14 4 -1 -11 -15 -15 -21 -16
-43 -6 -25 11 -30 40 -7 35 14 -3 -21 108 -47 151 -14 22 -22 51 -22 78 1 39
-6 330 -8 386 -1 12 -6 22 -12 22 -19 0 -35 25 -29 45 4 11 11 30 15 43 l8 23
22 -21 c12 -11 32 -40 44 -65z m-104 35 c-3 -5 -12 -10 -18 -10 -7 0 -6 4 3
10 19 12 23 12 15 0z m-36 -84 c20 4 31 3 31 -5 0 -6 -9 -11 -20 -11 -10 0
-24 -9 -30 -20 -14 -27 -54 -21 -58 9 -2 12 2 29 9 37 12 14 14 14 25 0 8 -12
20 -14 43 -10z m8067 -123 c-9 -21 -25 -15 -32 12 -3 14 -10 25 -14 25 -4 0 2
19 14 43 l21 42 8 -55 c4 -30 5 -60 3 -67z m-8053 11 c8 -9 -15 -44 -30 -44
-22 0 -26 23 -8 37 21 14 29 16 38 7z m263 -73 c56 -27 71 -47 56 -72 -19 -29
-14 -58 13 -83 14 -13 25 -27 25 -32 0 -5 6 -20 13 -34 8 -14 19 -40 25 -58
22 -63 -32 -98 -75 -49 -50 55 -82 114 -84 152 -2 29 -9 46 -27 62 -25 21 -25
23 -13 65 8 24 15 49 17 56 4 15 3 16 50 -7z m-287 -48 c0 -31 -2 -34 -9 -18
-12 28 -12 55 0 55 6 0 10 -17 9 -37z m391 -2 c5 -11 21 -60 34 -110 22 -83
23 -89 6 -79 -21 13 -46 81 -35 97 3 7 -3 28 -14 47 -22 38 -27 64 -11 64 5 0
14 -9 20 -19z m-355 -62 c-5 -20 -3 -29 3 -25 5 3 15 -1 21 -8 16 -19 24 -115
12 -130 -5 -6 -11 -34 -13 -61 l-3 -50 -30 33 c-22 22 -34 29 -41 22 -7 -7
-11 2 -12 30 -1 23 -6 50 -12 60 -16 30 -12 64 10 80 12 8 20 26 20 42 0 20 4
26 15 22 8 -4 15 -1 15 5 0 6 5 11 11 11 7 0 8 -11 4 -31z m200 -29 c-3 -5
-13 -10 -21 -10 -8 0 -14 5 -14 10 0 6 9 10 21 10 11 0 17 -4 14 -10z m-370
-30 c3 -5 1 -10 -4 -10 -6 0 -11 5 -11 10 0 6 2 10 4 10 3 0 8 -4 11 -10z
m7902 -66 c-3 -3 -12 -4 -19 -1 -8 3 -5 6 6 6 11 1 17 -2 13 -5z m-7416 -111
c16 -16 29 -31 29 -35 0 -6 -64 -28 -83 -28 -7 0 0 66 10 83 7 12 13 9 44 -20z
m118 -5 c5 -18 24 -87 40 -153 16 -66 37 -140 45 -164 9 -24 16 -48 16 -54 0
-18 -170 1 -260 29 -79 25 -160 74 -160 97 0 31 71 65 82 39 2 -5 19 -12 38
-15 l35 -7 -24 19 c-20 15 -22 21 -12 39 19 35 12 39 -14 8 l-25 -29 0 30 c0
41 39 74 110 94 67 18 71 16 103 -47 19 -36 43 -59 51 -46 9 16 -15 83 -32 89
-9 3 -27 15 -39 26 l-22 20 20 28 c26 37 35 36 48 -3z m-316 -69 c-3 -12 -12
-23 -19 -26 -8 -3 -14 -11 -14 -19 0 -7 -11 -21 -25 -30 -33 -21 -137 -15
-165 11 -27 24 -20 28 16 11 16 -8 46 -17 67 -20 33 -6 38 -4 46 16 5 13 7 36
5 51 -2 16 1 25 6 22 6 -4 10 -13 10 -21 0 -21 17 -17 37 10 21 27 43 24 36
-5z m-286 -131 c-3 -7 -5 -2 -5 12 0 14 2 19 5 13 2 -7 2 -19 0 -25z m269 -20
c-9 -12 -16 -20 -16 -16 0 3 -3 14 -7 24 -4 11 -3 15 5 10 6 -3 14 -1 17 5 4
5 9 8 12 5 3 -2 -2 -15 -11 -28z m-255 -1 c-10 -9 -11 -8 -5 6 3 10 9 15 12
12 3 -3 0 -11 -7 -18z m176 -18 c29 0 54 -2 56 -7 2 -4 0 -25 -5 -47 -11 -52
-48 -73 -83 -47 -13 9 -28 27 -34 40 -10 21 -9 23 9 17 32 -10 14 21 -21 35
-37 16 -39 33 -1 19 15 -6 50 -11 79 -10z m108 -49 c4 -6 23 -19 43 -29 41
-21 122 -96 122 -114 0 -8 -4 -7 -12 1 -29 29 -111 4 -128 -39 -7 -16 -15 -29
-19 -29 -15 0 -42 61 -36 81 4 11 0 30 -9 44 -20 30 -20 45 0 73 16 24 29 28
39 12z m7458 -47 c-7 -2 -19 -2 -25 0 -7 3 -2 5 12 5 14 0 19 -2 13 -5z
m-4068 -53 c-4 -6 16 -11 52 -12 108 -4 128 -5 168 -12 22 -4 56 -14 75 -21
19 -8 51 -17 70 -21 19 -3 44 -14 55 -24 11 -10 29 -21 41 -24 34 -10 53 -68
60 -179 4 -56 11 -105 16 -108 5 -3 11 -30 13 -60 2 -30 4 -56 4 -58 1 -2 10
6 21 19 l19 22 -4 -53 c-2 -30 -2 -48 1 -41 3 6 10 12 16 12 13 0 3 -58 -18
-99 -8 -17 -13 -40 -9 -51 3 -11 3 -20 -2 -20 -4 0 -9 -18 -10 -40 -1 -36 5
-44 28 -42 3 1 4 -11 2 -26 -4 -21 -2 -24 6 -12 9 13 11 12 12 -5 4 -47 -4
-81 -24 -100 -12 -11 -23 -31 -25 -45 -2 -14 -12 -32 -22 -41 -11 -9 -17 -19
-14 -22 3 -3 1 -8 -5 -12 -6 -3 -11 -1 -11 5 0 7 -7 9 -16 6 -9 -3 -12 -2 -9
5 4 6 -2 8 -17 4 -12 -3 -50 -2 -84 3 -33 4 -73 5 -90 0 -23 -6 -41 -2 -89 23
-33 17 -76 44 -96 60 -45 36 -49 36 -49 2 0 -14 -3 -23 -7 -20 -3 4 -12 2 -19
-4 -9 -8 -29 -7 -68 1 -31 6 -80 8 -114 4 -39 -4 -67 -2 -81 6 -17 8 -26 8
-36 0 -10 -8 -19 -8 -34 2 -17 10 -25 10 -41 1 -24 -15 -34 -2 -26 33 8 31 -7
31 -59 -1 -22 -14 -54 -32 -72 -40 -17 -8 -34 -19 -37 -24 -3 -5 -14 -7 -24
-4 -10 2 -24 -3 -31 -11 -8 -9 -29 -16 -48 -16 -29 0 -32 2 -25 18 14 26 3 47
-13 26 -11 -16 -13 -13 -20 24 -4 23 -11 42 -16 42 -5 0 -7 17 -4 39 5 35 3
39 -21 44 -24 4 -26 2 -20 -24 4 -21 -1 -36 -19 -58 -14 -16 -25 -38 -25 -50
0 -12 -6 -21 -15 -21 -22 0 -19 -47 4 -60 29 -15 39 -12 47 13 8 21 8 21 15
-8 12 -54 9 -82 -11 -105 -26 -30 -25 -44 1 -37 20 5 21 3 16 -30 -7 -42 -8
-42 -36 -48 -34 -6 -48 3 -65 46 -20 50 -21 65 -2 50 26 -21 26 5 1 39 -29 39
-32 85 -9 145 9 22 21 67 27 99 11 57 13 59 30 42 19 -20 22 -10 6 31 -8 22
-12 25 -20 13 -8 -12 -10 -10 -6 8 3 12 1 22 -3 22 -10 0 -50 63 -50 78 0 5 7
12 15 16 19 7 45 -3 45 -16 0 -6 -6 -6 -14 1 -8 7 -17 8 -20 3 -6 -9 55 -34
75 -30 7 2 19 -19 30 -52 9 -30 17 -49 18 -42 1 7 6 10 11 7 6 -3 10 -1 10 4
0 6 -5 11 -11 11 -5 0 -8 4 -5 8 9 15 18 118 17 205 0 50 4 87 9 87 6 0 9 3 9
8 -3 15 14 72 21 72 5 0 16 3 26 7 13 5 15 3 9 -7 -5 -8 -3 -11 6 -8 8 3 15
22 17 45 2 33 -1 41 -16 45 -14 4 -23 -2 -31 -19 -14 -30 -14 -36 0 -27 7 4
10 1 7 -6 -2 -8 -10 -16 -16 -18 -14 -4 -17 54 -2 63 5 3 7 12 3 20 -3 9 0 22
7 30 7 8 10 22 6 30 -3 9 -2 13 4 10 6 -3 10 4 10 15 0 28 29 90 42 90 7 0 7
-4 1 -12 -15 -19 -27 -92 -14 -83 6 3 11 19 11 35 0 16 5 32 10 35 6 3 10 17
10 31 0 23 31 64 49 64 5 0 11 6 14 13 3 9 7 9 20 -1 13 -11 24 -11 59 -1 24
7 47 16 53 21 5 4 16 8 25 8 13 0 13 -1 0 -10 -10 -6 -12 -12 -5 -19 13 -13
138 5 143 20 2 5 13 9 23 9 11 0 34 8 52 17 54 28 145 44 132 23z m-2997 -22
c55 3 32 -22 -29 -32 -30 -4 -56 -10 -58 -12 -2 -2 10 -30 27 -61 33 -64 78
-201 68 -210 -10 -10 -22 8 -36 52 -19 62 -77 167 -113 205 -71 76 -72 73 23
64 47 -4 100 -7 118 -6z m-273 -59 c73 -20 135 -110 135 -197 0 -31 -35 -139
-50 -156 -5 -4 -16 6 -25 24 -16 30 -19 32 -55 26 -35 -5 -42 -3 -69 26 -32
35 -38 57 -21 88 7 13 6 41 -2 89 -11 64 -10 72 7 91 21 23 26 24 80 9z m125
-51 c0 -5 -10 -1 -23 9 -13 9 -24 23 -24 30 0 8 9 5 24 -9 13 -12 23 -25 23
-30z m104 29 c3 -13 28 -59 56 -101 28 -42 48 -82 44 -87 -3 -6 4 -21 17 -35
27 -29 8 -33 -21 -4 -20 20 -28 56 -10 45 19 -11 10 12 -11 31 -25 22 -103
174 -90 174 5 0 11 -11 15 -23z m-77 -63 c-3 -3 4 -17 16 -30 38 -44 69 -130
59 -167 -7 -26 -5 -35 12 -50 21 -17 21 -17 -7 -15 -15 2 -26 5 -25 8 1 3 -5
16 -15 30 -9 13 -17 37 -17 53 0 16 -7 35 -15 43 -8 9 -15 28 -15 43 0 16 -3
43 -6 60 -5 22 -3 31 6 31 8 0 11 -3 7 -6z m-184 -267 c5 -16 17 -31 27 -34
17 -5 15 -9 -16 -29 -37 -26 -54 -24 -54 4 -1 9 -10 28 -21 41 -19 23 -20 23
-33 6 -7 -10 -18 -15 -24 -11 -7 4 -12 2 -12 -3 0 -20 -15 -11 -27 15 -10 22
-9 26 7 32 10 4 20 12 22 17 2 6 11 10 21 9 9 0 17 7 17 16 0 9 3 20 6 23 12
11 79 -55 87 -86z m202 -6 c16 -31 11 -61 -9 -61 -22 0 -39 45 -27 69 15 27
18 27 36 -8z m-399 4 c-22 -17 -46 -20 -46 -6 0 10 22 18 50 20 11 0 10 -4 -4
-14z m635 -80 c12 -52 20 -97 18 -99 -2 -2 -28 0 -58 4 -44 5 -59 13 -83 41
-29 32 -48 69 -48 90 0 5 13 9 30 9 16 0 46 11 66 25 20 14 40 25 44 25 5 0
18 -43 31 -95z m3449 54 c0 -5 -4 -9 -10 -9 -5 0 -10 7 -10 16 0 8 5 12 10 9
6 -3 10 -10 10 -16z m-4210 -10 c0 -5 -4 -9 -10 -9 -5 0 -10 7 -10 16 0 8 5
12 10 9 6 -3 10 -10 10 -16z m563 -47 c-22 -5 -27 6 -12 24 12 15 14 14 20 -3
4 -12 1 -19 -8 -21z m-50 -49 c4 -41 2 -62 -10 -80 -9 -13 -19 -21 -22 -16
-12 17 -37 10 -38 -11 -1 -12 -5 -36 -8 -54 l-6 -33 -43 46 c-24 25 -49 45
-56 45 -11 0 -11 3 -2 12 7 7 12 19 12 28 0 13 11 16 53 15 44 0 52 3 49 18
-2 9 1 17 7 17 5 0 13 15 16 33 9 42 13 47 29 41 8 -3 16 -28 19 -61z m-493 0
c0 -19 4 -32 9 -28 13 8 25 -58 17 -91 -10 -38 -21 -19 -35 61 -7 39 -15 78
-18 87 -3 13 0 16 11 12 10 -4 16 -19 16 -41z m540 -78 c0 -8 -4 -15 -10 -15
-5 0 -10 7 -10 15 0 8 5 15 10 15 6 0 10 -7 10 -15z m200 -78 c-10 -40 -26
-89 -36 -108 l-18 -34 -8 40 c-5 21 -5 46 -1 55 3 8 7 22 8 31 3 21 58 99 66
93 4 -2 -2 -37 -11 -77z m36 5 c-11 -10 -14 3 -8 33 l7 30 3 -28 c2 -16 1 -31
-2 -35z m3699 2 c14 -9 25 -24 25 -33 0 -12 -2 -13 -9 -3 -6 11 -16 7 -43 -17
-20 -17 -40 -31 -46 -31 -5 0 -13 -8 -16 -17 -3 -10 -12 -27 -19 -39 -10 -17
-15 -19 -24 -9 -7 7 -10 16 -8 19 3 4 -8 -6 -24 -21 -41 -40 -48 -95 -19 -153
20 -37 29 -45 62 -52 29 -6 49 -4 73 7 18 9 33 17 33 19 0 27 -29 67 -68 91
-26 17 -47 35 -47 42 0 6 -3 15 -7 19 -14 14 -8 27 7 14 11 -9 19 -7 39 13 17
17 28 21 40 15 9 -5 16 -13 16 -18 0 -5 12 -35 27 -66 24 -51 27 -55 35 -34 5
12 6 46 4 74 l-5 51 11 -43 c8 -32 8 -58 0 -100 -7 -31 -14 -69 -16 -84 -7
-40 -36 -75 -78 -95 -21 -10 -38 -21 -38 -25 0 -18 51 -6 79 18 l31 26 -11
-28 c-15 -41 -58 -95 -70 -89 -5 4 -9 2 -9 -3 0 -14 -51 -32 -75 -28 -11 3
-23 5 -27 5 -16 2 -38 34 -38 57 0 31 7 30 50 -6 40 -35 51 -37 47 -10 -3 20
-33 46 -80 69 -26 14 -27 16 -25 95 1 45 -1 116 -5 159 -6 86 5 130 31 120 10
-4 13 -2 8 5 -9 15 9 49 36 63 16 8 22 8 28 -1 6 -10 15 -8 36 7 24 17 45 27
62 32 1 1 14 -6 27 -15z m-4001 -75 c-11 -18 -24 -8 -24 19 1 26 1 26 15 8 8
-10 12 -23 9 -27z m-429 5 c32 -21 32 -32 0 -30 -14 0 -25 4 -25 8 0 3 -3 13
-6 22 -8 20 0 20 31 0z m75 -40 c0 -2 -7 -4 -15 -4 -8 0 -15 4 -15 10 0 5 7 7
15 4 8 -4 15 -8 15 -10z m609 -65 c3 -62 14 -93 40 -111 21 -15 41 -57 41 -86
0 -14 -2 -14 -9 -3 -5 7 -13 11 -19 7 -15 -9 -27 14 -24 44 2 19 1 22 -7 10
-9 -12 -11 -12 -17 3 -10 26 -37 22 -29 -4 l7 -22 -28 21 c-70 52 -69 42 -17
121 26 39 50 71 54 71 3 0 6 -23 8 -51z m78 -41 c-3 -7 -5 -2 -5 12 0 14 2 19
5 13 2 -7 2 -19 0 -25z m10 -40 c-3 -8 -6 -5 -6 6 -1 11 2 17 5 13 3 -3 4 -12
1 -19z m-184 -49 c40 -33 47 -49 21 -49 -19 0 -85 60 -78 72 8 13 17 10 57
-23z m197 3 c0 -15 -2 -15 -10 -2 -13 20 -13 33 0 25 6 -3 10 -14 10 -23z
m-306 3 c11 -8 18 -17 15 -19 -2 -3 -15 4 -29 14 -14 11 -20 20 -15 19 6 0 19
-6 29 -14z m-368 -126 c2 -54 -5 -43 -19 29 -5 24 -3 32 5 30 6 -2 13 -28 14
-59z m543 39 c-1 -13 -5 -34 -9 -48 -8 -24 -8 -24 -9 7 -1 17 -5 34 -9 37 -8
5 -124 -33 -153 -49 -10 -6 -10 -3 1 9 19 19 126 64 158 65 17 1 22 -4 21 -21z
m3418 -10 c-3 -8 -6 -5 -6 6 -1 11 2 17 5 13 3 -3 4 -12 1 -19z m-3373 -38
c14 -22 41 -86 60 -142 18 -57 43 -125 55 -151 12 -27 20 -51 17 -55 -8 -7
-46 28 -46 43 0 39 -56 198 -85 242 -29 43 -47 103 -31 103 2 0 15 -18 30 -40z
m157 -11 c11 -5 17 -14 14 -19 -3 -5 0 -12 6 -16 8 -4 9 -3 5 4 -4 7 -3 12 3
12 5 0 14 -7 19 -15 4 -9 21 -19 38 -24 58 -15 104 -123 104 -243 0 -66 -1
-68 -25 -68 -32 0 -43 -25 -21 -49 34 -37 30 -332 -5 -421 -8 -22 -16 -26 -48
-25 l-39 0 5 150 c5 160 0 195 -53 352 -29 87 -42 255 -22 276 7 8 21 12 32 9
22 -6 19 1 -22 56 -26 34 -24 39 9 21z m-236 -194 c-19 -85 -19 -85 8 -85 l22
0 -25 -20 c-32 -25 -36 -25 -56 5 -14 22 -15 30 -4 53 8 18 14 22 18 13 9 -26
32 49 39 132 8 80 8 81 11 26 2 -31 -4 -87 -13 -124z m-3922 141 c139 -36 266
-137 316 -251 28 -64 51 -162 51 -221 0 -180 -129 -370 -295 -437 l-70 -28
-40 18 c-210 97 -320 234 -355 441 -27 161 24 322 140 443 l47 49 76 0 c42 0
100 -6 130 -14z m6617 -67 c0 12 42 15 54 4 4 -5 15 -8 24 -9 42 -2 82 -18 82
-32 0 -12 -8 -13 -42 -8 -24 4 -69 7 -100 6 -57 -1 -64 3 -52 34 5 13 9 14 20
5 10 -8 14 -8 14 0z m-2720 -28 c-12 -23 -18 -25 -39 -12 -11 7 -7 12 15 24
35 18 39 16 24 -12z m72 -16 c-2 -14 -8 -28 -13 -31 -5 -3 -9 -16 -9 -30 0
-13 -5 -24 -11 -24 -6 0 -8 8 -5 18 3 9 8 31 12 47 6 24 19 43 30 45 1 0 -1
-11 -4 -25z m2856 7 c2 -7 -6 -12 -17 -12 -21 0 -27 11 -14 24 9 9 26 2 31
-12z m-308 -8 c22 -9 40 -20 40 -26 0 -5 5 -6 11 -3 6 4 57 7 113 6 56 -1 144
6 194 14 89 16 119 14 107 -6 -4 -5 1 -9 9 -9 9 0 16 -8 16 -19 0 -11 4 -21 9
-23 5 -1 2 -19 -6 -39 -11 -29 -20 -36 -40 -36 -14 0 -30 -7 -35 -14 -7 -10
-8 -6 -4 13 5 20 0 34 -18 53 -20 22 -27 24 -50 15 -15 -5 -30 -9 -34 -8 -4 1
-16 -2 -27 -8 -11 -5 -31 -9 -45 -7 -14 1 -59 4 -100 7 -120 9 -125 10 -132
29 -4 9 -14 17 -23 17 -8 0 -15 8 -15 18 0 10 -5 23 -12 30 -16 16 -6 15 42
-4z m-3093 -36 c-3 -7 -5 -2 -5 12 0 14 2 19 5 13 2 -7 2 -19 0 -25z m610 10
c-3 -8 -6 -5 -6 6 -1 11 2 17 5 13 3 -3 4 -12 1 -19z m-594 -41 c12 -13 20
-37 13 -37 -8 0 -36 31 -36 41 0 13 9 11 23 -4z m1351 -68 c11 -19 15 -29 10
-24 -67 73 -78 88 -54 73 14 -8 34 -31 44 -49z m-774 41 c0 -5 -5 -10 -11 -10
-5 0 -7 5 -4 10 3 6 8 10 11 10 2 0 4 -4 4 -10z m34 -42 c39 -21 96 -71 96
-85 0 -30 -61 -132 -92 -154 l-33 -23 33 37 c49 57 81 147 51 147 -5 0 -7 -6
-3 -12 4 -8 3 -10 -2 -5 -5 5 -9 14 -9 20 0 18 -85 77 -111 77 -13 0 -24 4
-24 9 0 12 65 4 94 -11z m5006 8 c0 -9 -30 -14 -35 -6 -4 6 3 10 14 10 12 0
21 -2 21 -4z m-5070 -51 c-7 -8 -18 -15 -24 -15 -6 0 -2 7 8 15 25 19 32 19
16 0z m79 -9 c10 -11 9 -14 -4 -12 -8 1 -21 8 -27 14 -9 9 -8 12 4 12 8 0 21
-6 27 -14z m3359 -32 c-3 -14 -5 -12 -10 9 -3 19 -2 25 4 19 6 -6 8 -18 6 -28z
m-3078 -9 c0 -8 -9 -15 -20 -15 -20 0 -26 11 -13 23 12 13 33 7 33 -8z m2495
-5 c4 -6 11 -8 16 -5 5 4 9 -1 9 -10 0 -12 6 -15 20 -10 11 4 20 2 20 -4 0 -6
-8 -11 -19 -11 -10 0 -24 -7 -31 -15 -9 -11 -16 -13 -24 -5 -14 14 -26 12 -26
-5 0 -19 -34 -20 -49 -1 -13 15 -4 49 10 40 5 -3 9 0 9 6 0 6 10 15 23 20 30
12 35 12 42 0z m-1762 -7 c-7 -2 -21 -2 -30 0 -10 3 -4 5 12 5 17 0 24 -2 18
-5z m1512 -15 c-9 -5 -24 -7 -33 -3 -15 6 -15 8 3 15 28 10 53 0 30 -12z
m1643 15 c-10 -2 -26 -2 -35 0 -10 3 -2 5 17 5 19 0 27 -2 18 -5z m-4039 -195
c2 -99 -16 -217 -29 -183 -4 11 -5 61 -2 112 3 52 0 125 -7 167 -7 42 -9 81
-5 88 14 23 40 -90 43 -184z m707 175 c12 -3 25 0 28 6 4 6 22 11 39 10 34 -1
31 -3 -17 -14 -23 -5 -27 -8 -15 -16 19 -12 3 -11 -43 1 -21 6 -40 16 -44 22
-5 8 -1 9 12 3 10 -4 29 -10 40 -12z m2494 -8 c5 3 12 1 15 -5 4 -6 3 -10 -2
-9 -23 4 -33 -3 -33 -26 0 -14 -4 -25 -10 -25 -5 0 -10 9 -10 19 0 11 5 23 10
26 6 3 11 16 11 28 1 17 2 18 6 4 2 -9 8 -15 13 -12z m1490 -5 c4 -17 16 -27
38 -34 42 -12 48 -36 22 -86 -19 -37 -20 -48 -10 -93 13 -64 5 -75 -47 -59
-33 10 -41 9 -65 -8 -46 -34 -58 -23 -58 56 0 25 -7 58 -14 73 -18 35 -11 65
20 86 13 8 36 34 51 56 29 44 54 48 63 9z m-2603 -112 c-3 -8 -6 -5 -6 6 -1
11 2 17 5 13 3 -3 4 -12 1 -19z m1113 -39 c0 -11 -4 -18 -10 -14 -5 3 -7 12
-3 20 7 21 13 19 13 -6z m-3273 -76 c-3 -10 -5 -2 -5 17 0 19 2 27 5 18 2 -10
2 -26 0 -35z m5188 1 c26 7 46 -15 83 -94 12 -25 46 -78 77 -117 30 -40 55
-77 55 -83 0 -16 -20 -12 -27 6 -4 10 -13 14 -27 10 -18 -4 -26 2 -44 37 -12
23 -56 91 -97 151 -41 59 -75 113 -75 119 0 6 7 1 16 -12 12 -16 22 -21 39
-17z m-2033 -5 c-22 -8 -31 -29 -12 -29 6 0 10 -5 10 -11 0 -5 -4 -7 -10 -4
-5 3 -10 1 -10 -4 0 -6 -4 -11 -9 -11 -4 0 -6 12 -3 28 6 29 31 54 46 44 5 -3
0 -9 -12 -13z m-3470 -73 c20 -22 18 -29 -6 -20 -19 7 -48 58 -39 68 4 4 11
-1 17 -11 5 -10 18 -26 28 -37z m2542 -32 c4 -9 -1 -28 -10 -42 -10 -15 -12
-27 -6 -31 5 -3 11 -27 13 -53 4 -45 2 -48 -19 -48 -13 0 -20 4 -17 10 7 12
-18 40 -36 40 -8 0 -9 -3 0 -13 12 -15 5 -27 -16 -27 -7 0 -13 9 -13 20 0 11
-5 20 -12 20 -9 0 -9 3 0 12 7 7 12 25 12 40 0 35 28 81 46 74 7 -3 16 -1 19
4 10 16 32 12 39 -6z m876 -4 c0 -5 -5 -10 -11 -10 -5 0 -7 5 -4 10 3 6 8 10
11 10 2 0 4 -4 4 -10z m70 -10 c0 -6 -12 -23 -27 -37 -18 -17 -22 -24 -10 -20
14 5 17 0 17 -38 0 -25 4 -45 10 -45 6 0 5 -10 -2 -26 -10 -21 -9 -27 3 -34
11 -8 12 -13 2 -29 -7 -11 -10 -28 -6 -37 3 -9 0 -20 -8 -24 -11 -7 -10 -12 4
-28 20 -22 13 -32 -22 -31 l-26 0 25 12 25 11 -27 3 c-14 3 -49 -6 -77 -17
-27 -12 -56 -20 -63 -17 -9 3 -6 7 7 12 11 3 28 11 37 16 10 5 25 9 33 9 8 0
15 5 15 10 0 6 -5 10 -11 10 -8 0 -7 5 2 16 11 13 9 15 -12 11 -13 -2 -18 -2
-11 0 22 8 12 23 -15 23 -21 0 -24 3 -14 9 8 5 20 30 26 55 7 25 8 43 3 40 -4
-3 -11 2 -14 10 -3 9 -13 16 -21 16 -8 0 -12 4 -9 9 3 4 17 6 31 3 14 -2 32 1
40 8 8 6 23 9 35 5 28 -9 27 23 -1 33 -20 8 -20 8 5 21 14 8 22 19 19 27 -4
10 0 12 11 8 9 -3 16 -1 16 5 0 6 2 11 5 11 3 0 5 -5 5 -10z m-100 -41 c0 -6
-4 -7 -10 -4 -5 3 -10 11 -10 16 0 6 5 7 10 4 6 -3 10 -11 10 -16z m-65 -19
c-3 -5 -1 -10 6 -10 7 0 10 -2 7 -5 -8 -9 -38 6 -32 16 3 5 10 9 15 9 6 0 7
-4 4 -10z m-949 -67 c-10 -10 -19 5 -10 18 6 11 8 11 12 0 2 -7 1 -15 -2 -18z
m124 -43 c11 -21 50 -28 50 -9 0 5 5 7 10 4 6 -4 8 -10 5 -15 -8 -13 6 -40 20
-40 7 0 18 -7 26 -16 10 -13 10 -17 -2 -25 -20 -13 -35 -11 -21 3 18 18 14 28
-11 28 -29 0 -107 55 -107 75 0 21 17 18 30 -5z m-2409 -10 c10 0 19 -5 19
-11 0 -6 7 -9 15 -5 8 3 15 2 15 -3 0 -5 -9 -11 -20 -14 -11 -3 -20 0 -20 6 0
6 -3 7 -7 4 -10 -10 -44 24 -36 36 5 8 8 7 11 -1 2 -7 12 -12 23 -12z m5673
-48 l38 -7 -45 -33 c-25 -18 -49 -40 -52 -50 -11 -31 -75 -76 -105 -74 -15 1
-33 -5 -40 -13 -10 -12 -9 -15 4 -15 10 0 14 -5 11 -10 -4 -6 -16 -8 -26 -5
-20 7 -49 -10 -49 -27 0 -6 10 -8 23 -5 21 6 21 5 -3 -15 -14 -12 -54 -34 -90
-51 -36 -16 -80 -40 -98 -54 -29 -22 -36 -23 -67 -13 -20 6 -32 16 -29 21 3 6
-2 9 -12 7 -12 -2 -19 4 -21 17 l-3 20 9 -20 c10 -22 12 -21 16 12 2 16 -2 20
-14 16 -25 -9 -11 1 43 33 28 16 46 22 41 14 -7 -12 -4 -11 11 1 26 22 81 42
93 35 5 -4 25 0 43 8 18 8 47 18 63 22 24 6 26 8 11 12 -18 4 -18 5 5 24 l24
19 -32 -16 c-48 -23 -40 -12 15 24 49 31 68 38 58 22 -4 -5 3 -7 14 -4 14 4
20 1 18 -8 -2 -8 6 -14 17 -15 17 -1 17 0 2 3 -18 4 -18 6 -2 23 15 17 16 21
3 34 -12 11 -18 12 -29 3 -10 -10 -10 -8 1 6 7 10 19 16 27 13 8 -3 12 -2 8 3
-7 12 43 51 64 50 9 0 33 -3 55 -7z m-5630 -18 c22 -9 20 -34 -3 -34 -10 0
-21 9 -24 20 -5 21 1 24 27 14z m5500 -75 c-3 -5 -10 -7 -15 -3 -5 3 -7 10 -3
15 3 5 10 7 15 3 5 -3 7 -10 3 -15z m-771 -60 c5 -20 5 -20 -13 -4 -11 10 -17
22 -14 26 8 13 21 3 27 -22z m571 -44 c-10 -8 -23 -14 -29 -14 -5 0 -1 6 9 14
11 8 24 15 30 15 5 0 1 -7 -10 -15z m-2020 -39 c-3 -9 -10 -13 -15 -10 -5 3
-9 -4 -9 -14 0 -12 -14 -28 -35 -41 -38 -22 -136 -54 -143 -46 -3 3 0 5 7 5 8
0 7 6 -4 17 -15 15 -15 17 -1 25 9 5 16 15 16 22 0 22 61 41 162 50 3 1 10 4
14 9 11 11 15 2 8 -17z m-478 -20 c14 -14 23 -30 19 -36 -3 -5 1 -13 9 -16 9
-3 16 -12 16 -19 0 -7 6 -16 13 -19 29 -12 -54 8 -125 31 -83 26 -103 41 -69
50 18 5 19 8 9 21 -11 13 -10 15 3 10 9 -3 22 -2 30 3 23 14 68 3 95 -25z
m2074 -129 c-6 -43 -43 -107 -61 -107 -14 0 -11 10 21 70 17 30 30 61 30 68 0
6 4 12 8 12 5 0 6 -20 2 -43z m265 -27 c-3 -5 -14 -14 -25 -20 -13 -7 -19 -6
-24 6 -3 8 -2 13 2 11 4 -3 16 -1 27 4 27 10 27 10 20 -1z m-145 -61 c0 -5 4
-9 10 -9 5 0 21 -11 36 -24 62 -56 67 -58 92 -43 6 5 12 4 12 -1 0 -11 -66
-72 -78 -72 -4 -1 -27 -5 -51 -9 -24 -5 -57 -5 -72 -1 -26 8 -32 5 -58 -34
-37 -54 -101 -130 -101 -120 0 4 20 32 45 62 25 30 53 68 63 84 9 15 20 28 24
28 4 0 8 10 8 23 0 13 7 32 15 43 8 10 15 33 15 49 0 23 5 31 20 32 11 1 20
-2 20 -8z m-4315 -19 c3 -5 2 -10 -4 -10 -5 0 -13 5 -16 10 -3 6 -2 10 4 10 5
0 13 -4 16 -10z m4468 -5 c-3 -9 -8 -14 -10 -11 -3 3 -2 9 2 15 9 16 15 13 8
-4z m-397 -323 c-16 -15 -25 -21 -21 -13 12 21 39 48 44 44 3 -2 -8 -16 -23
-31z m-112 -67 c-4 -8 -8 -15 -10 -15 -2 0 -4 7 -4 15 0 8 4 15 10 15 5 0 7
-7 4 -15z m-3497 -1047 c-3 -7 -5 -2 -5 12 0 14 2 19 5 13 2 -7 2 -19 0 -25z
m-50 -715 c-2 -21 -4 -6 -4 32 0 39 2 55 4 38 2 -18 2 -50 0 -70z"/>
<path d="M4790 8520 c0 -12 20 -24 42 -25 13 -1 15 2 7 11 -12 15 -49 25 -49
14z"/>
<path d="M4748 8503 c7 -3 16 -2 19 1 4 3 -2 6 -13 5 -11 0 -14 -3 -6 -6z"/>
<path d="M4780 8484 c0 -8 5 -12 10 -9 6 4 8 11 5 16 -9 14 -15 11 -15 -7z"/>
<path d="M4825 8470 c3 -5 15 -10 26 -10 10 0 19 5 19 10 0 6 -12 10 -26 10
-14 0 -23 -4 -19 -10z"/>
<path d="M4781 8441 c-39 -5 -42 -8 -28 -19 11 -9 30 -11 59 -7 24 4 55 2 71
-4 22 -9 27 -8 27 5 0 23 -56 34 -129 25z"/>
<path d="M4168 8434 c-9 -3 -19 -12 -22 -20 -4 -11 0 -13 22 -7 32 8 137 7
205 -3 49 -7 67 8 25 20 -31 9 -209 16 -230 10z"/>
<path d="M4953 8358 c12 -31 23 -55 25 -54 7 7 -12 65 -28 86 -17 22 -16 18 3
-32z"/>
<path d="M4197 8387 c-15 -10 -7 -13 50 -15 38 -1 94 -6 126 -10 32 -5 60 -5
63 -1 8 13 -8 17 -101 24 -49 3 -97 8 -106 11 -8 2 -23 -2 -32 -9z"/>
<path d="M4100 8380 c0 -5 5 -10 11 -10 5 0 7 5 4 10 -3 6 -8 10 -11 10 -2 0
-4 -4 -4 -10z"/>
<path d="M4091 8347 c-13 -17 -5 -67 19 -117 9 -19 20 -47 24 -62 3 -15 19
-41 34 -56 15 -16 32 -37 38 -47 5 -10 15 -15 21 -12 8 5 4 15 -11 30 -44 44
-94 149 -101 212 -8 69 -8 70 -24 52z"/>
<path d="M4290 8342 c0 -14 66 -30 97 -24 26 5 24 7 -22 19 -59 15 -75 16 -75
5z"/>
<path d="M4638 8313 c7 -3 16 -2 19 1 4 3 -2 6 -13 5 -11 0 -14 -3 -6 -6z"/>
<path d="M4131 8300 c-1 -22 12 -37 32 -37 11 0 16 6 12 14 -3 8 -5 19 -5 25
0 7 -5 6 -14 -1 -11 -9 -15 -9 -19 1 -4 9 -6 9 -6 -2z"/>
<path d="M4314 8281 c0 -11 4 -17 8 -15 11 7 78 -18 78 -29 0 -4 5 -5 10 -2
15 9 -7 35 -24 29 -7 -3 -23 4 -36 16 -29 25 -36 25 -36 1z"/>
<path d="M4335 8240 c3 -5 11 -10 16 -10 6 0 7 5 4 10 -3 6 -11 10 -16 10 -6
0 -7 -4 -4 -10z"/>
<path d="M4171 8207 c6 -12 27 -43 45 -70 19 -26 34 -52 34 -58 0 -8 4 -8 14
0 12 10 7 22 -32 76 -48 65 -83 96 -61 52z"/>
<path d="M4505 8220 c3 -5 8 -10 11 -10 2 0 4 5 4 10 0 6 -5 10 -11 10 -5 0
-7 -4 -4 -10z"/>
<path d="M4300 8213 c1 -15 80 -64 91 -57 7 4 -7 18 -35 35 -49 31 -56 34 -56
22z"/>
<path d="M4239 8193 c5 -10 22 -32 38 -50 27 -31 29 -32 58 -18 l30 15 -29 -4
c-23 -3 -35 3 -58 27 -15 17 -28 35 -28 39 0 5 -5 8 -10 8 -7 0 -7 -6 -1 -17z"/>
<path d="M4366 8123 c-4 -5 -22 -13 -39 -20 -23 -8 -26 -12 -12 -12 11 -1 34
8 50 19 17 11 25 20 19 20 -6 0 -14 -3 -18 -7z"/>
<path d="M4236 8050 c-22 -17 -50 -30 -63 -30 -14 0 -21 -4 -18 -10 7 -11 54
6 118 45 29 17 36 25 22 25 -11 0 -38 -14 -59 -30z"/>
<path d="M4590 8160 c-9 -6 -10 -10 -3 -10 6 0 15 5 18 10 8 12 4 12 -15 0z"/>
<path d="M4525 8100 c-3 -6 1 -7 9 -4 18 7 21 14 7 14 -6 0 -13 -4 -16 -10z"/>
<path d="M4500 8010 c0 -5 7 -10 15 -10 8 0 15 5 15 10 0 6 -7 10 -15 10 -8 0
-15 -4 -15 -10z"/>
<path d="M11631 7664 c0 -11 3 -14 6 -6 3 7 2 16 -1 19 -3 4 -6 -2 -5 -13z"/>
<path d="M11641 7570 c0 -8 6 -28 14 -45 l14 -30 -6 30 c-7 38 -22 68 -22 45z"/>
<path d="M11930 7536 c0 -19 3 -37 8 -40 4 -2 6 13 4 35 -5 48 -12 51 -12 5z"/>
<path d="M11958 7415 c-7 -8 3 -54 13 -61 11 -7 12 36 1 54 -5 7 -11 10 -14 7z"/>
<path d="M11820 7386 c0 -9 5 -16 10 -16 6 0 10 4 10 9 0 6 -4 13 -10 16 -5 3
-10 -1 -10 -9z"/>
<path d="M11830 7340 c0 -5 5 -10 10 -10 6 0 10 5 10 10 0 6 -4 10 -10 10 -5
0 -10 -4 -10 -10z"/>
<path d="M11840 7289 c0 -5 5 -7 10 -4 6 3 10 8 10 11 0 2 -4 4 -10 4 -5 0
-10 -5 -10 -11z"/>
<path d="M12160 6810 c6 -11 13 -20 16 -20 2 0 0 9 -6 20 -6 11 -13 20 -16 20
-2 0 0 -9 6 -20z"/>
<path d="M12141 6724 c0 -11 3 -14 6 -6 3 7 2 16 -1 19 -3 4 -6 -2 -5 -13z"/>
<path d="M11790 6380 c0 -5 4 -10 9 -10 6 0 13 5 16 10 3 6 -1 10 -9 10 -9 0
-16 -4 -16 -10z"/>
<path d="M11535 5539 c-10 -15 3 -25 16 -12 7 7 7 13 1 17 -6 3 -14 1 -17 -5z"/>
<path d="M11336 5515 c-9 -26 -7 -32 5 -12 6 10 9 21 6 23 -2 3 -7 -2 -11 -11z"/>
<path d="M10770 4654 c0 -9 5 -14 12 -12 18 6 21 28 4 28 -9 0 -16 -7 -16 -16z"/>
<path d="M10646 4451 c-7 -11 14 -51 27 -51 5 0 7 12 5 27 -3 28 -22 41 -32
24z"/>
<path d="M10850 4451 c0 -5 7 -12 16 -15 22 -9 24 -8 18 9 -7 16 -34 21 -34 6z"/>
<path d="M10530 4236 c0 -2 7 -6 15 -10 8 -3 15 -1 15 4 0 6 -7 10 -15 10 -8
0 -15 -2 -15 -4z"/>
<path d="M10712 4090 c-7 -11 -8 -20 -4 -20 5 0 17 9 27 20 14 15 15 20 4 20
-8 0 -20 -9 -27 -20z"/>
<path d="M10180 3580 c0 -5 5 -10 11 -10 5 0 7 5 4 10 -3 6 -8 10 -11 10 -2 0
-4 -4 -4 -10z"/>
<path d="M3645 7682 c-34 -7 -36 -17 -16 -80 10 -33 16 -63 14 -66 -3 -3 -2
-13 2 -23 8 -20 8 -21 20 -138 4 -44 12 -88 17 -97 6 -12 5 -18 -2 -18 -6 0
-8 -4 -5 -10 3 -5 1 -19 -5 -30 -7 -13 -7 -20 0 -20 5 0 10 -10 10 -23 0 -12
13 -37 29 -55 23 -24 38 -32 65 -32 19 0 41 -3 49 -6 10 -3 18 3 23 18 7 22 7
22 15 3 7 -20 8 -20 8 1 1 27 -9 36 -25 23 -10 -8 -15 -8 -18 2 -12 34 -10 65
4 77 11 10 12 15 3 18 -16 7 -17 36 -2 51 8 8 4 19 -15 40 -16 17 -26 38 -25
53 4 60 -1 80 -21 80 -12 0 -17 5 -14 14 3 8 -3 16 -15 19 -26 6 -19 33 10 40
18 5 20 11 13 52 -5 34 -3 49 6 55 10 6 8 14 -7 33 -14 19 -23 23 -31 15 -7
-7 -20 -7 -39 -1 -15 5 -37 7 -48 5z"/>
<path d="M3689 6854 c10 -25 27 -55 39 -67 21 -21 21 -18 -5 40 -32 73 -59 95
-34 27z"/>
<path d="M4005 6832 c-17 -24 -28 -52 -20 -52 5 0 46 72 43 75 -2 2 -12 -9
-23 -23z"/>
<path d="M3772 6710 c7 -11 17 -20 22 -20 5 0 1 9 -9 20 -10 11 -20 20 -22 20
-2 0 2 -9 9 -20z"/>
<path d="M3505 6330 c-4 -7 -1 -16 6 -21 17 -10 26 8 11 23 -6 6 -12 6 -17 -2z"/>
<path d="M4596 7689 c3 -5 14 -9 24 -9 10 0 22 -4 25 -10 8 -12 25 -13 25 -1
0 5 -18 13 -40 19 -22 5 -37 6 -34 1z"/>
<path d="M4849 7659 c-24 -22 -35 -36 -24 -30 20 9 83 71 73 71 -3 0 -25 -18
-49 -41z"/>
<path d="M4620 7620 c-8 -5 -12 -11 -9 -14 2 -3 11 -1 19 4 8 5 12 11 9 14 -2
3 -11 1 -19 -4z"/>
<path d="M3871 6307 c-1 -11 -6 -15 -13 -11 -7 5 -8 3 -3 -5 10 -16 29 2 22
21 -4 8 -6 7 -6 -5z"/>
<path d="M3846 6255 c-9 -26 -7 -32 5 -12 6 10 9 21 6 23 -2 3 -7 -2 -11 -11z"/>
<path d="M3826 6525 c-9 -26 -7 -32 5 -12 6 10 9 21 6 23 -2 3 -7 -2 -11 -11z"/>
<path d="M3775 6479 c-4 -6 -5 -12 -2 -15 2 -3 7 2 10 11 7 17 1 20 -8 4z"/>
<path d="M3750 6461 c0 -6 4 -13 10 -16 6 -3 7 1 4 9 -7 18 -14 21 -14 7z"/>
<path d="M6912 4850 c0 -19 2 -27 5 -17 2 9 2 25 0 35 -3 9 -5 1 -5 -18z"/>
<path d="M7110 4697 c-63 -5 -117 -12 -120 -15 -3 -4 -16 -8 -30 -10 -14 -1
-26 -7 -28 -12 -2 -6 -9 -10 -16 -10 -24 0 -45 -35 -60 -97 -7 -34 -11 -65 -8
-68 4 -3 0 -10 -8 -15 -11 -7 -12 -10 -2 -10 7 0 10 -4 7 -10 -4 -6 6 -11 22
-11 26 -2 25 -2 -7 -9 l-35 -7 45 -2 c33 -1 41 -4 30 -11 -8 -5 -10 -10 -5
-10 14 0 70 35 95 60 16 16 24 18 40 10 25 -13 26 -30 3 -31 -11 0 -13 -3 -5
-6 23 -9 12 -21 -28 -28 -22 -4 -40 -10 -40 -15 0 -11 83 11 92 24 5 8 8 7 8
-2 0 -7 -18 -19 -40 -28 -23 -9 -39 -18 -38 -20 2 -1 44 3 93 10 62 9 104 21
135 39 40 24 41 33 1 28 -7 -2 -10 2 -6 8 3 6 15 11 25 11 10 0 22 5 25 10 4
6 11 8 16 5 13 -9 29 40 29 91 0 32 6 49 20 61 25 22 26 43 1 43 -10 0 -24 7
-31 15 -7 9 -18 14 -24 12 -6 -3 -18 -1 -26 2 -8 4 -67 3 -130 -2z m-193 -224
c-12 -11 -47 -10 -47 1 0 9 9 12 25 8 14 -2 24 -6 22 -9z m251 -22 c-7 -2 -17
-9 -21 -15 -6 -8 -10 -7 -14 2 -2 6 -9 10 -14 6 -16 -10 -9 8 8 21 13 10 21
10 35 1 13 -7 14 -12 6 -15z m-68 15 c0 -3 -4 -8 -10 -11 -5 -3 -10 -1 -10 4
0 6 5 11 10 11 6 0 10 -2 10 -4z"/>
<path d="M7465 4670 c-11 -5 -33 -9 -48 -9 -16 -1 -26 -5 -22 -10 3 -5 0 -13
-7 -17 -8 -5 -4 -10 10 -15 13 -5 22 -17 22 -28 0 -11 5 -23 10 -26 6 -3 10
-20 10 -36 0 -43 24 -74 70 -89 22 -7 37 -16 35 -20 -2 -4 6 -16 18 -28 30
-28 139 -41 162 -19 14 14 11 16 -32 23 -27 4 -59 8 -73 9 -52 4 -54 6 -15 24
22 10 69 21 105 24 60 6 68 4 109 -23 31 -21 56 -30 85 -30 23 0 52 -3 66 -6
21 -5 22 -4 8 6 -10 6 -42 14 -70 18 l-53 7 50 6 c41 5 46 7 27 14 -21 7 -21
8 -5 20 16 12 16 17 4 51 -16 44 -62 94 -85 94 -9 0 -16 5 -16 11 0 6 -9 8
-21 4 -15 -5 -19 -4 -15 4 4 6 0 11 -11 11 -10 0 -46 7 -78 16 -72 19 -212 27
-240 14z"/>
<path d="M7510 4411 c0 -5 5 -13 10 -16 6 -3 10 -2 10 4 0 5 -4 13 -10 16 -5
3 -10 2 -10 -4z"/>
<path d="M7758 4413 c7 -3 16 -2 19 1 4 3 -2 6 -13 5 -11 0 -14 -3 -6 -6z"/>
<path d="M6828 4373 c7 -3 16 -2 19 1 4 3 -2 6 -13 5 -11 0 -14 -3 -6 -6z"/>
<path d="M9461 3458 c-24 -64 -23 -83 8 -112 l30 -29 25 29 c29 33 30 43 15
97 -9 32 -14 37 -40 37 -21 0 -32 -6 -38 -22z"/>
<path d="M6965 3190 c-3 -5 -2 -10 4 -10 5 0 13 5 16 10 3 6 2 10 -4 10 -5 0
-13 -4 -16 -10z"/>
<path d="M9715 2680 c-16 -7 -17 -9 -3 -9 9 -1 20 4 23 9 7 11 7 11 -20 0z"/>
<path d="M9590 2411 c0 -7 -6 -11 -14 -8 -8 3 -21 -4 -30 -17 -17 -27 -13 -36
13 -29 19 5 46 51 36 61 -3 3 -5 0 -5 -7z"/>
<path d="M6405 3180 c-3 -5 3 -10 14 -10 10 0 22 -6 24 -12 3 -7 6 -3 6 10 1
15 -5 22 -18 22 -11 0 -23 -4 -26 -10z"/>
<path d="M8430 3160 c-73 -25 -27 -25 65 0 62 16 66 18 30 18 -22 0 -65 -8
-95 -18z"/>
<path d="M8187 3114 c-11 -12 -8 -36 4 -28 6 3 15 0 20 -7 5 -8 9 -9 9 -3 0
17 -25 46 -33 38z"/>
<path d="M8475 3078 c9 -27 22 -44 30 -36 8 7 -16 58 -27 58 -5 0 -6 -10 -3
-22z"/>
<path d="M8368 3046 c3 -25 8 -33 18 -29 8 3 14 0 14 -5 0 -12 27 -53 72 -113
15 -19 34 -51 42 -70 8 -20 22 -41 31 -49 8 -7 18 -30 21 -52 4 -21 11 -41 15
-44 5 -3 9 -9 9 -15 0 -5 -18 3 -40 17 -28 19 -40 34 -40 50 0 25 -51 60 -70
49 -6 -3 -10 2 -10 13 0 19 -42 62 -60 62 -6 0 -10 9 -10 20 0 10 -16 32 -35
47 -19 15 -35 35 -35 44 0 9 -10 19 -22 22 -23 7 -42 -3 -21 -10 7 -2 9 -11 6
-19 -9 -24 7 -65 29 -73 12 -4 23 -18 25 -32 1 -13 6 -44 9 -68 l6 -45 13 30
13 29 1 -47 c1 -39 4 -48 19 -48 15 0 15 -2 2 -11 -13 -9 -13 -10 2 -6 9 3 40
-3 70 -14 29 -11 65 -25 79 -30 15 -6 31 -20 37 -32 6 -12 11 -16 11 -9 2 22
43 -29 45 -54 0 -15 6 -22 14 -19 8 3 12 -6 12 -26 0 -29 -2 -30 -32 -24 -26
5 -29 4 -15 -5 9 -6 17 -22 17 -35 0 -14 5 -25 10 -25 6 0 15 -10 20 -22 8
-21 9 -21 9 -3 0 11 -6 29 -14 39 -19 25 -19 37 0 29 9 -3 15 -2 14 3 -3 19 1
34 11 34 6 0 10 -6 10 -14 0 -9 9 -14 21 -13 15 1 19 6 15 22 -6 24 -22 172
-31 287 -12 162 -21 189 -69 204 -11 4 -39 15 -61 24 -22 10 -64 26 -92 35
-29 9 -55 21 -58 26 -15 23 -31 8 -27 -25z"/>
<path d="M5816 3010 c4 -19 10 -44 15 -55 l8 -20 0 20 c0 11 -7 36 -15 55
l-14 35 6 -35z"/>
<path d="M8340 2996 c0 -8 5 -18 10 -21 6 -3 10 1 10 9 0 8 -4 18 -10 21 -5 3
-10 -1 -10 -9z"/>
<path d="M8410 2918 c0 -7 9 -24 20 -38 17 -22 19 -22 16 -5 -5 30 -17 55 -27
55 -5 0 -9 -6 -9 -12z"/>
<path d="M6427 2898 c-3 -10 -9 -59 -12 -110 -4 -63 -21 -145 -50 -253 -52
-191 -62 -254 -43 -266 10 -7 10 -11 1 -17 -13 -9 -29 -83 -17 -81 5 1 17 1
28 0 15 -1 16 -4 6 -16 -7 -8 -20 -15 -29 -15 -10 0 -8 -5 9 -13 14 -7 28 -27
34 -46 6 -19 23 -47 39 -62 15 -15 28 -30 28 -33 -4 -30 2 -46 19 -51 11 -4
29 -26 40 -51 11 -24 25 -44 31 -44 6 0 9 -7 5 -15 -5 -15 25 -55 43 -55 5 0
17 -12 27 -27 38 -59 105 -111 152 -118 32 -5 41 -10 34 -17 -14 -14 18 -41
33 -28 5 4 21 10 35 12 14 1 28 8 32 13 11 15 10 106 -2 162 -6 26 -21 117
-34 200 -23 148 -25 154 -63 200 -21 27 -56 71 -77 100 -20 29 -52 62 -71 73
-20 12 -35 30 -35 40 0 10 -4 22 -10 25 -5 3 -10 12 -10 20 0 8 -5 26 -12 42
-6 15 -12 36 -13 46 -3 23 -24 94 -38 127 -6 14 -12 40 -13 59 -2 19 -8 39
-14 45 -5 5 -10 21 -11 36 0 14 -8 50 -18 80 -12 39 -19 50 -24 38z m293
-1188 c0 -5 -5 -10 -11 -10 -5 0 -7 5 -4 10 3 6 8 10 11 10 2 0 4 -4 4 -10z"/>
<path d="M8701 2894 c0 -11 3 -14 6 -6 3 7 2 16 -1 19 -3 4 -6 -2 -5 -13z"/>
<path d="M8170 2860 c0 -5 9 -14 20 -20 11 -6 20 -9 20 -8 0 2 -9 11 -20 21
-11 9 -20 13 -20 7z"/>
<path d="M8470 2838 c0 -17 27 -44 35 -36 3 3 -4 15 -15 28 -15 17 -20 19 -20
8z"/>
<path d="M7798 2783 c7 -3 16 -2 19 1 4 3 -2 6 -13 5 -11 0 -14 -3 -6 -6z"/>
<path d="M5085 2750 c-3 -5 -1 -10 4 -10 6 0 11 5 11 10 0 6 -2 10 -4 10 -3 0
-8 -4 -11 -10z"/>
<path d="M8722 2710 c0 -14 2 -19 5 -12 2 6 2 18 0 25 -3 6 -5 1 -5 -13z"/>
<path d="M8188 2676 c-20 -15 -24 -41 -7 -51 5 -4 18 0 28 9 10 9 22 16 28 16
9 0 23 21 23 34 0 9 -59 3 -72 -8z"/>
<path d="M8727 2663 c-4 -6 -3 -34 0 -64 l7 -54 7 49 c8 48 -1 90 -14 69z"/>
<path d="M6565 2630 c-3 -6 1 -7 9 -4 18 7 21 14 7 14 -6 0 -13 -4 -16 -10z"/>
<path d="M5030 2620 c0 -5 5 -10 10 -10 6 0 10 5 10 10 0 6 -4 10 -10 10 -5 0
-10 -4 -10 -10z"/>
<path d="M4810 2595 c0 -9 6 -12 15 -9 8 4 12 10 9 15 -8 14 -24 10 -24 -6z"/>
<path d="M7823 2560 c-23 -14 -34 -29 -39 -55 -3 -20 -4 -38 -1 -42 8 -8 66
39 66 55 1 6 6 12 11 12 6 0 10 11 10 25 0 30 -6 31 -47 5z"/>
<path d="M8574 2555 c-12 -24 -2 -45 20 -45 6 0 5 5 -2 12 -7 7 -8 16 -2 23 5
6 6 16 2 22 -5 7 -11 3 -18 -12z"/>
<path d="M9163 2515 c0 -38 2 -53 4 -32 2 20 2 52 0 70 -2 17 -4 1 -4 -38z"/>
<path d="M8523 2530 c-1 -16 1 -17 12 -7 7 6 11 15 8 20 -8 13 -19 7 -20 -13z"/>
<path d="M8784 2532 c-7 -10 -15 -32 -19 -50 -6 -29 -28 -37 -24 -9 1 7 0 26
-1 42 -2 17 -6 -22 -10 -85 -5 -80 -14 -133 -30 -175 -31 -84 -52 -173 -51
-216 1 -39 -51 -205 -105 -337 l-34 -83 25 -73 c14 -40 25 -82 25 -94 0 -11 5
-33 11 -49 l11 -28 11 30 c5 17 14 33 20 36 5 4 7 11 3 17 -3 5 1 27 10 47 13
31 13 39 2 46 -10 7 -10 9 -1 9 7 0 12 3 11 8 0 4 2 15 7 25 4 10 5 20 2 24
-4 3 2 22 12 42 17 33 30 84 35 137 1 11 5 24 8 30 3 5 9 27 13 49 5 22 9 45
11 50 2 6 10 46 19 90 8 44 22 112 30 150 8 39 22 108 31 155 9 46 19 93 24
104 7 19 -13 103 -28 118 -4 4 -12 0 -18 -10z"/>
<path d="M8325 2500 c-27 -16 -66 -33 -85 -36 -29 -6 -32 -8 -15 -15 11 -4 35
-5 53 -2 30 5 39 0 83 -43 33 -33 47 -54 44 -65 -5 -15 -2 -16 22 -9 15 5 40
12 56 15 40 8 33 22 -9 17 -27 -3 -41 1 -60 19 -23 22 -34 46 -15 34 17 -10
21 12 5 26 -12 10 -17 10 -23 1 -9 -15 -37 -6 -45 13 -6 17 12 32 44 37 21 2
28 -4 47 -45 13 -27 20 -53 17 -58 -3 -5 -1 -9 5 -9 18 0 41 12 41 22 0 5 -4
6 -10 3 -5 -3 -10 -2 -10 3 0 6 7 13 16 16 22 8 24 8 24 -9 0 -12 4 -13 25 -3
13 6 22 15 19 20 -3 4 -9 6 -13 3 -9 -5 -100 50 -116 70 -21 26 -50 25 -100
-5z m144 -65 c-7 -7 -13 -5 -19 5 -15 24 -11 31 10 18 13 -9 16 -16 9 -23z"/>
<path d="M7825 2460 c-16 -21 -37 -39 -45 -40 -21 0 -23 -50 -1 -51 70 -6 75
-8 55 -27 -11 -10 -14 -10 -14 0 0 9 -3 9 -10 -2 -9 -13 -10 -13 -10 0 0 9 -8
16 -19 17 -14 1 -18 -4 -15 -20 4 -19 3 -19 -7 3 -14 29 -19 47 -22 77 -1 13
-5 23 -9 23 -5 0 -8 9 -8 20 0 11 -4 20 -10 20 -5 0 -10 -9 -10 -20 0 -11 -4
-20 -9 -20 -5 0 -7 10 -4 21 5 17 2 20 -13 16 -10 -3 -48 -13 -82 -22 -37 -9
-73 -26 -85 -39 -12 -12 -37 -29 -54 -37 -18 -8 -33 -18 -33 -22 0 -5 -4 -5
-10 -2 -5 3 -10 2 -10 -3 0 -5 -18 -15 -41 -22 -22 -8 -42 -17 -45 -21 -7 -12
14 -132 29 -168 12 -28 15 -29 37 -18 41 21 85 19 114 -4 33 -26 106 -123 106
-142 0 -7 5 -18 11 -24 7 -7 13 -47 15 -90 5 -113 7 -124 41 -152 35 -30 64
-117 112 -331 34 -151 56 -233 65 -248 9 -15 133 -34 211 -33 70 2 70 2 45
-16 -14 -10 -25 -15 -25 -13 0 3 -16 -6 -35 -20 -19 -14 -45 -30 -57 -37 -12
-6 -35 -18 -50 -26 -58 -30 -169 -59 -251 -65 l-86 -7 -13 -50 c-20 -79 -36
-249 -28 -292 5 -21 10 -31 12 -22 5 23 53 31 71 12 8 -8 21 -12 29 -9 7 3 16
-1 19 -9 7 -17 34 -21 34 -5 0 6 7 10 15 10 9 0 12 -6 9 -15 -4 -8 -1 -15 5
-15 6 0 11 4 11 8 0 11 53 9 61 -2 4 -5 13 -5 20 0 8 5 42 9 76 9 36 1 75 8
95 17 18 10 49 20 69 23 55 8 77 40 89 123 6 40 14 104 20 143 5 38 10 115 11
169 l1 99 37 3 c33 3 39 8 78 77 71 125 70 184 -10 444 l-42 139 -42 -6 c-24
-3 -43 -3 -43 -1 0 3 18 28 40 56 21 27 37 55 34 62 -2 7 -30 30 -61 52 -51
35 -63 39 -110 37 -51 -2 -53 -1 -53 23 0 15 -11 34 -27 48 -47 39 -153 143
-153 150 0 4 -8 16 -17 26 -31 34 -38 46 -40 67 -2 19 2 22 27 20 17 -1 39
-12 51 -25 16 -17 24 -19 35 -11 11 10 11 14 -1 27 -18 18 -19 30 -2 36 8 3 6
9 -8 20 -11 8 -23 13 -27 11 -5 -3 -8 6 -8 20 0 14 4 28 10 31 13 8 10 85 -4
85 -6 -1 -24 -19 -41 -40z m59 -466 c5 -12 14 -14 34 -10 18 5 23 4 13 -3 -11
-7 -9 -10 10 -14 13 -2 -2 -3 -33 -1 -32 3 -58 0 -58 -5 0 -5 -9 -7 -20 -4
-25 7 -25 11 2 34 26 23 44 24 52 3z m-84 -34 c0 -5 -8 -10 -17 -10 -15 0 -16
2 -3 10 19 12 20 12 20 0z m313 -200 c4 -33 24 -115 46 -182 56 -175 81 -262
81 -285 0 -17 -9 -21 -65 -26 -36 -4 -92 -17 -125 -30 l-59 -24 -14 51 c-8 28
-22 85 -32 126 -9 41 -30 117 -46 168 -32 101 -39 161 -15 130 7 -10 16 -15
19 -12 6 6 99 -26 148 -51 25 -13 29 -14 29 -1 0 28 -13 47 -43 62 -22 12 -26
18 -16 24 7 5 16 7 20 4 10 -6 19 23 19 60 0 37 6 46 30 46 14 0 18 -13 23
-60z"/>
<path d="M8127 1381 c-3 -14 0 -21 10 -21 8 0 12 -4 8 -9 -3 -5 0 -13 6 -17 9
-5 10 1 5 22 -10 39 -22 50 -29 25z"/>
<path d="M7350 2409 c0 -5 3 -10 8 -10 67 -10 78 -5 23 11 -19 5 -31 5 -31 -1z"/>
<path d="M8250 2416 c0 -2 8 -24 18 -48 11 -24 17 -49 15 -55 -6 -17 9 -16 33
2 19 14 19 14 -1 15 -20 1 -20 1 -1 15 26 19 36 19 36 -1 0 -11 5 -14 16 -10
9 3 18 6 20 6 2 0 4 5 4 10 0 6 -6 10 -12 10 -7 0 -33 14 -58 30 -40 27 -70
38 -70 26z m60 -41 c10 -12 10 -15 -3 -15 -8 0 -17 7 -21 15 -3 8 -2 15 3 15
5 0 14 -7 21 -15z"/>
<path d="M7880 2391 c0 -5 5 -13 10 -16 6 -3 10 -2 10 4 0 5 -4 13 -10 16 -5
3 -10 2 -10 -4z"/>
<path d="M8859 2355 c-1 -16 -2 -50 -1 -74 1 -25 -3 -50 -9 -57 -6 -8 -9 -19
-6 -26 2 -7 -2 -26 -10 -42 -8 -16 -16 -43 -18 -60 -2 -17 -7 -42 -11 -55 -5
-17 -4 -22 4 -17 7 4 5 -10 -4 -36 -25 -67 -43 -172 -32 -179 6 -4 4 -18 -6
-37 -9 -17 -16 -40 -16 -50 0 -11 -7 -25 -15 -32 -8 -7 -15 -23 -15 -35 0 -12
-7 -39 -15 -59 -14 -32 -14 -36 0 -36 20 0 19 -5 -4 -38 -11 -15 -23 -47 -26
-72 -4 -25 -10 -49 -14 -55 -15 -20 -20 -45 -9 -42 22 4 19 -29 -6 -56 -13
-14 -22 -28 -19 -30 2 -3 6 -90 9 -193 2 -104 11 -241 18 -304 8 -63 17 -191
20 -285 4 -115 14 -217 31 -315 13 -80 25 -151 25 -157 0 -10 41 -13 171 -13
l171 0 -6 27 c-7 41 -24 186 -41 363 -26 280 -38 568 -31 785 4 132 3 240 -4
290 -15 109 -18 116 -37 80 -11 -20 -12 -30 -4 -33 6 -2 11 -8 11 -13 0 -6 -5
-7 -12 -3 -8 5 -9 2 -5 -9 3 -9 0 -20 -7 -24 -7 -5 -18 -17 -25 -28 -11 -19
-12 -19 -6 3 7 25 -12 31 -33 10 -23 -23 -13 14 13 48 14 18 25 42 25 52 0 13
10 24 30 31 27 9 30 13 24 38 -10 40 -14 41 -14 5 0 -18 -4 -32 -9 -32 -5 0
-16 -3 -24 -6 -11 -4 -13 1 -10 20 3 16 1 26 -6 26 -6 0 -11 -7 -11 -15 0 -8
-8 -15 -17 -15 -10 0 -14 4 -8 8 39 28 60 137 29 149 -11 4 -12 8 -4 13 8 5
13 33 13 71 1 110 -22 483 -32 514 l-9 30 -3 -30z m91 -947 c-16 -24 -24 -44
-19 -46 17 -6 -28 -72 -49 -72 -6 0 -8 -10 -5 -22 3 -17 2 -19 -5 -9 -5 7 -15
10 -21 7 -6 -4 -14 0 -17 8 -7 18 26 76 43 76 7 0 13 7 13 15 0 8 4 15 8 15 5
0 14 11 20 25 10 21 31 36 59 44 2 1 -11 -18 -27 -41z m-42 -203 c-6 -14 -15
-25 -20 -25 -4 0 -8 -7 -8 -15 0 -9 -7 -18 -15 -21 -18 -7 -20 -31 -2 -37 6
-2 8 -8 4 -13 -4 -5 -12 -2 -17 6 -8 13 -11 12 -24 -5 -8 -11 -18 -17 -22 -12
-4 4 2 17 14 30 12 13 22 28 22 33 0 12 61 84 72 84 4 0 2 -11 -4 -25z m-14
-160 c-15 -23 -34 -33 -34 -18 0 10 32 43 42 43 5 0 1 -11 -8 -25z m-58 -90
c-28 -25 -52 -43 -54 -40 -6 6 37 73 51 79 7 2 21 5 32 5 15 0 9 -10 -29 -44z
m16 -118 c-12 -13 -22 -28 -22 -34 0 -6 -9 -13 -20 -16 -11 -3 -20 -1 -20 3 0
16 52 70 68 70 12 0 11 -4 -6 -23z m-57 -87 c-3 -5 -10 -10 -16 -10 -5 0 -9 5
-9 10 0 6 7 10 16 10 8 0 12 -4 9 -10z m31 -87 c-18 -33 -66 -90 -66 -77 1 19
70 115 78 109 2 -2 -3 -16 -12 -32z m-13 -188 c-10 -14 -24 -25 -30 -25 -7 0
-13 -4 -13 -10 0 -5 -4 -10 -10 -10 -15 0 -12 23 6 48 13 19 19 21 30 11 9 -7
14 -8 13 -3 -3 18 1 25 11 19 6 -4 3 -16 -7 -30z"/>
<path d="M6670 2341 c0 -17 91 -141 114 -156 11 -7 37 -16 56 -20 l34 -8 -25
34 c-14 19 -43 59 -64 89 -21 30 -39 56 -39 57 -7 9 -76 12 -76 4z"/>
<path d="M5175 2311 c-3 -5 -2 -12 3 -15 5 -3 9 1 9 9 0 17 -3 19 -12 6z"/>
<path d="M5270 2300 c0 -6 10 -30 21 -53 21 -40 22 -41 31 -18 6 17 4 29 -7
41 -8 9 -15 22 -15 28 0 7 -7 12 -15 12 -8 0 -15 -5 -15 -10z"/>
<path d="M8597 2269 c7 -7 15 -10 18 -7 3 3 -2 9 -12 12 -14 6 -15 5 -6 -5z"/>
<path d="M5550 2255 c0 -8 9 -15 20 -15 11 0 20 2 20 5 0 2 -9 9 -20 15 -16 9
-20 8 -20 -5z"/>
<path d="M8265 2239 c6 -9 3 -10 -11 -5 -12 5 -15 4 -9 -2 6 -6 26 -13 45 -17
36 -6 32 0 -14 26 -14 9 -17 8 -11 -2z"/>
<path d="M8464 2243 c10 -11 37 -12 30 -2 -3 5 -12 9 -21 9 -9 0 -13 -3 -9 -7z"/>
<path d="M8515 2240 c3 -5 8 -10 11 -10 2 0 4 5 4 10 0 6 -5 10 -11 10 -5 0
-7 -4 -4 -10z"/>
<path d="M7885 2230 c-7 -11 2 -30 14 -30 5 0 11 9 14 20 5 21 -16 29 -28 10z"/>
<path d="M9210 2236 c0 -2 7 -9 15 -16 9 -7 15 -8 15 -2 0 5 -7 12 -15 16 -8
3 -15 4 -15 2z"/>
<path d="M8370 2220 c-28 -17 -1 -22 37 -7 l38 16 -30 0 c-16 1 -37 -3 -45 -9z"/>
<path d="M5327 2175 c3 -13 11 -29 18 -35 15 -12 15 -3 1 38 -10 30 -24 28
-19 -3z"/>
<path d="M8590 2193 c1 -5 8 -19 16 -33 8 -14 13 -18 11 -10 -2 8 0 23 5 33 7
13 4 17 -12 17 -11 0 -20 -3 -20 -7z"/>
<path d="M5581 2174 c0 -11 3 -14 6 -6 3 7 2 16 -1 19 -3 4 -6 -2 -5 -13z"/>
<path d="M7981 2144 c0 -11 3 -14 6 -6 3 7 2 16 -1 19 -3 4 -6 -2 -5 -13z"/>
<path d="M7490 2080 c0 -5 -14 -25 -31 -45 -44 -50 -25 -65 25 -21 29 27 36
39 31 55 -6 21 -25 29 -25 11z"/>
<path d="M9247 2043 c-4 -3 -7 -11 -7 -17 0 -6 5 -5 12 2 6 6 9 14 7 17 -3 3
-9 2 -12 -2z"/>
<path d="M7485 1990 c-10 -11 -24 -20 -31 -20 -8 0 -11 -6 -8 -15 4 -10 0 -15
-15 -15 -17 0 -20 -4 -15 -28 5 -24 -4 -41 -55 -105 -34 -42 -61 -79 -61 -81
0 -3 27 -25 61 -51 l60 -46 19 23 c10 13 21 21 24 18 15 -16 25 -231 15 -340
-6 -63 -8 -139 -4 -167 l6 -53 -55 0 c-61 0 -60 1 -46 -52 10 -34 14 -37 54
-43 52 -8 322 -3 331 6 3 4 0 27 -7 53 l-13 47 -55 -3 -55 -3 -3 52 -3 53 29
-17 c28 -16 31 -16 56 0 14 10 26 24 26 32 0 8 6 15 14 15 23 0 26 27 6 52
-18 23 -18 23 -40 3 -22 -19 -22 -19 -36 0 -8 10 -14 26 -14 34 0 13 -2 13 -9
2 -12 -19 -20 -1 -26 56 -3 31 -2 38 3 19 l7 -29 18 42 c20 45 15 113 -6 92
-6 -6 -15 -11 -19 -11 -11 0 6 33 28 54 14 15 14 16 0 16 -15 0 -20 14 -19 48
1 8 -11 2 -28 -14 -35 -34 -38 -22 -5 21 20 26 23 38 17 61 -6 22 -13 28 -30
27 -28 -4 -40 26 -18 42 16 11 15 14 -4 36 -20 23 -21 23 -15 3 5 -16 2 -23
-14 -27 -15 -4 -20 0 -20 16 0 11 7 29 16 38 14 16 15 23 4 49 -9 21 -18 29
-28 25 -10 -4 -12 -1 -7 12 8 20 9 27 7 66 -2 32 -12 34 -37 7z m95 -290 c0
-5 -4 -10 -10 -10 -5 0 -10 5 -10 10 0 6 5 10 10 10 6 0 10 -4 10 -10z m58
-212 c-5 -15 -23 -11 -26 6 -2 11 2 14 13 10 9 -4 14 -11 13 -16z"/>
<path d="M9225 1989 c-4 -6 -5 -12 -2 -15 2 -3 7 2 10 11 7 17 1 20 -8 4z"/>
<path d="M6270 1749 c0 -30 9 -94 19 -144 11 -49 22 -128 26 -175 4 -47 18
-132 31 -190 37 -165 44 -293 44 -782 0 -252 2 -458 5 -458 3 0 15 6 26 13 17
9 23 9 26 0 7 -20 167 -18 187 2 19 19 36 19 36 0 0 -26 77 -19 112 10 16 14
36 25 43 25 7 0 20 3 29 6 9 3 16 1 16 -5 0 -6 -5 -11 -11 -11 -6 0 -22 -9
-36 -20 l-26 -20 44 0 c34 1 52 8 79 30 19 17 40 30 47 30 9 0 12 13 12 38 -2
29 -3 31 -6 10 -4 -26 -7 -27 -49 -26 -38 2 -44 5 -44 25 0 27 27 43 74 43
l36 0 0 68 c-1 41 -8 88 -21 122 -25 70 -36 106 -44 153 -3 21 -10 35 -16 32
-5 -4 -9 -2 -9 4 0 5 -7 16 -15 24 -20 20 -117 165 -135 202 -8 17 -23 36 -32
43 -10 7 -18 24 -18 36 0 13 -7 29 -15 36 -8 7 -15 23 -15 36 0 19 5 24 25 24
14 0 25 -5 25 -11 0 -5 16 -17 35 -25 19 -8 35 -19 35 -24 0 -6 7 -10 15 -10
9 0 15 -9 15 -23 0 -19 5 -23 32 -23 31 1 33 -1 44 -49 l10 -50 8 69 c4 37 4
131 0 208 -7 129 -8 139 -26 135 -10 -3 -16 -1 -12 4 3 5 -6 9 -20 9 -18 0
-24 4 -20 14 3 9 -3 17 -15 21 -12 3 -21 11 -21 16 0 5 -9 9 -21 9 -11 0 -17
4 -14 10 3 5 -15 20 -40 32 -43 21 -46 25 -41 51 5 23 3 28 -9 23 -28 -11 -47
5 -40 33 4 14 3 23 0 19 -4 -4 -14 -1 -22 7 -8 8 -23 15 -33 15 -13 0 -17 5
-13 19 3 13 -5 26 -25 41 -17 13 -33 33 -36 45 -3 12 -17 27 -31 33 -14 6 -25
18 -25 25 0 7 -11 24 -25 37 -14 13 -25 29 -25 37 0 7 -4 13 -10 13 -5 0 -10
6 -10 14 0 8 -7 16 -16 18 -9 2 -22 19 -28 38 -6 20 -19 36 -31 40 -11 3 -22
14 -23 25 -7 39 -12 28 -12 -26z m150 -929 c0 -5 -5 -10 -11 -10 -5 0 -7 5 -4
10 3 6 8 10 11 10 2 0 4 -4 4 -10z m60 -80 c0 -5 -5 -10 -11 -10 -5 0 -7 5 -4
10 3 6 8 10 11 10 2 0 4 -4 4 -10z m84 -34 c-6 -17 -52 -42 -60 -33 -4 4 5 11
19 16 14 5 28 15 32 20 9 16 15 14 9 -3z m156 -205 c0 -9 -54 -46 -76 -53 -7
-2 -13 1 -14 6 -1 5 18 20 41 33 50 26 49 26 49 14z m-2 -108 c-10 -2 -18 -8
-18 -12 0 -3 -15 -15 -32 -25 l-33 -18 35 31 c19 17 42 30 50 30 11 -1 10 -3
-2 -6z m122 -17 c0 -8 -73 -47 -78 -41 -3 3 -3 6 -1 8 56 33 79 43 79 33z
m-120 -85 c0 -5 -20 -23 -44 -40 -53 -35 -51 -18 2 21 42 31 42 31 42 19z
m100 -33 c0 -15 -69 -62 -77 -54 -11 11 6 33 39 49 40 20 38 20 38 5z m140
-12 c0 -8 -63 -36 -68 -31 -3 2 10 11 29 19 39 17 39 17 39 12z m-247 -81 c1
-5 -6 -11 -15 -13 -11 -2 -18 3 -18 13 0 17 30 18 33 0z m177 -1 c0 -6 -19
-19 -42 -28 -24 -10 -57 -24 -75 -32 -18 -7 -35 -9 -38 -4 -7 11 44 60 62 60
7 0 13 4 13 8 0 5 18 8 40 8 23 0 40 -5 40 -12z m-226 -37 c-7 -18 -43 -39
-55 -31 -6 3 1 14 18 24 34 22 44 24 37 7z"/>
<path d="M8916 1765 c-3 -8 -1 -15 4 -15 6 0 10 7 10 15 0 8 -2 15 -4 15 -2 0
-6 -7 -10 -15z"/>
<path d="M8920 1721 c0 -6 5 -13 10 -16 6 -3 10 1 10 9 0 9 -4 16 -10 16 -5 0
-10 -4 -10 -9z"/>
<path d="M6570 1700 c0 -5 5 -10 10 -10 6 0 10 5 10 10 0 6 -4 10 -10 10 -5 0
-10 -4 -10 -10z"/>
<path d="M8920 1610 c0 -5 5 -10 11 -10 5 0 7 5 4 10 -3 6 -8 10 -11 10 -2 0
-4 -4 -4 -10z"/>
<path d="M6852 1561 c-11 -7 -11 -9 2 -14 10 -4 16 -1 16 8 0 17 -1 17 -18 6z"/>
<path d="M7680 1405 c-7 -9 -9 -26 -5 -45 8 -34 12 -36 36 -14 15 14 15 18 2
45 -17 34 -17 34 -33 14z"/>
<path d="M7781 1234 c-1 -6 -11 -16 -23 -23 -13 -6 -15 -9 -5 -7 9 3 17 0 17
-7 0 -7 5 -4 11 6 6 10 8 23 5 30 -3 7 -5 8 -5 1z"/>
<path d="M8162 569 c-7 -11 -10 -24 -7 -29 6 -10 -59 -124 -92 -160 -13 -14
-23 -30 -23 -37 0 -7 -5 -13 -11 -13 -5 0 -7 -5 -3 -11 3 -6 -4 -24 -16 -41
-14 -19 -18 -34 -13 -39 11 -11 43 -1 43 13 0 5 22 36 49 70 56 69 74 104 90
171 18 79 10 119 -17 76z"/>
<path d="M7690 459 c0 -6 -9 -8 -20 -4 -19 6 -29 -8 -12 -18 4 -2 1 -2 -6 0
-8 2 -27 -6 -43 -18 -21 -14 -29 -29 -29 -50 0 -16 3 -29 8 -29 17 1 27 17 27
43 -1 23 3 27 28 27 18 0 36 9 48 23 21 25 24 37 9 37 -5 0 -10 -5 -10 -11z"/>
<path d="M7830 323 c-16 -6 -130 -123 -130 -133 0 -3 -8 -6 -17 -7 -25 -2 -52
-8 -56 -14 -2 -2 -7 -41 -11 -87 -6 -75 -5 -82 12 -82 10 0 34 15 53 32 20 18
53 46 73 61 31 24 37 34 34 60 -4 38 -18 43 -46 17 -11 -11 -27 -20 -34 -20
-16 1 100 108 125 116 9 3 17 13 17 23 0 9 5 22 12 29 9 9 9 12 -2 11 -8 0
-22 -3 -30 -6z"/>
<path d="M8155 253 c-22 -25 -39 -51 -39 -59 1 -7 -6 -16 -16 -19 -22 -7 -34
-46 -17 -57 8 -5 -1 -20 -30 -48 -40 -38 -61 -51 -48 -30 3 5 2 10 -3 10 -6 0
-9 -11 -8 -25 l1 -25 113 0 112 0 0 89 c0 101 -10 211 -19 210 -3 0 -24 -21
-46 -46z m5 -53 c0 -5 -5 -10 -11 -10 -5 0 -7 5 -4 10 3 6 8 10 11 10 2 0 4
-4 4 -10z"/>
<path d="M7790 199 c0 -5 5 -7 10 -4 6 3 10 8 10 11 0 2 -4 4 -10 4 -5 0 -10
-5 -10 -11z"/>
<path d="M6955 10 c-3 -5 -1 -10 4 -10 6 0 11 5 11 10 0 6 -2 10 -4 10 -3 0
-8 -4 -11 -10z"/>
</g>
</svg>
