<?xml version="1.0" encoding="utf-8"?><!-- Uploaded to: SVG Repo, www.svgrepo.com, Generator: SVG Repo Mixer Tools -->
<svg width="800px" height="800px" viewBox="0 -0.5 25 25" fill="none" xmlns="http://www.w3.org/2000/svg">
<path d="M10.8097 14.2306C10.4323 14.06 9.98797 14.2276 9.81733 14.605C9.64668 14.9824 9.81431 15.4267 10.1917 15.5974L10.8097 14.2306ZM12.5007 15.344L12.5015 16.0941L12.5136 16.0939L12.5007 15.344ZM17.5007 10.172L16.7508 10.1595C16.7507 10.1678 16.7507 10.1762 16.7508 10.1845L17.5007 10.172ZM12.5007 5L12.5136 4.25011C12.505 4.24996 12.4964 4.24996 12.4879 4.25011L12.5007 5ZM7.50072 10.172L8.25072 10.1741C8.25073 10.1692 8.2507 10.1644 8.25062 10.1595L7.50072 10.172ZM7.68386 13.4079C7.90528 13.758 8.36855 13.8623 8.71862 13.6409C9.06869 13.4194 9.17299 12.9562 8.95158 12.6061L7.68386 13.4079ZM11.2292 15.0923C11.3277 14.69 11.0814 14.284 10.679 14.1855C10.2767 14.087 9.87069 14.3334 9.77222 14.7357L11.2292 15.0923ZM8.77222 18.8217C8.67375 19.224 8.92009 19.63 9.32243 19.7285C9.72477 19.827 10.1308 19.5806 10.2292 19.1783L8.77222 18.8217ZM9.76171 14.7861C9.69105 15.1942 9.96463 15.5823 10.3728 15.653C10.7809 15.7237 11.1691 15.4501 11.2397 15.0419L9.76171 14.7861ZM12.2397 9.26594C12.3104 8.8578 12.0368 8.46966 11.6287 8.39899C11.2205 8.32833 10.8324 8.60191 10.7617 9.01006L12.2397 9.26594ZM10.1917 15.5974C10.9175 15.9255 11.705 16.0949 12.5015 16.094L12.4999 14.594C11.9171 14.5946 11.3408 14.4707 10.8097 14.2306L10.1917 15.5974ZM12.5136 16.0939C15.7362 16.0386 18.3043 13.3822 18.2506 10.1595L16.7508 10.1845C16.7907 12.5791 14.8825 14.553 12.4879 14.5941L12.5136 16.0939ZM18.2506 10.1845C18.3043 6.96184 15.7362 4.30541 12.5136 4.25011L12.4879 5.74989C14.8825 5.79098 16.7907 7.76488 16.7508 10.1595L18.2506 10.1845ZM12.4879 4.25011C9.26523 4.30541 6.69714 6.96184 6.75082 10.1845L8.25062 10.1595C8.21072 7.76488 10.119 5.79098 12.5136 5.74989L12.4879 4.25011ZM6.75072 10.1699C6.74751 11.316 7.07122 12.4393 7.68386 13.4079L8.95158 12.6061C8.49143 11.8786 8.24831 11.0349 8.25072 10.1741L6.75072 10.1699ZM9.77222 14.7357L8.77222 18.8217L10.2292 19.1783L11.2292 15.0923L9.77222 14.7357ZM11.2397 15.0419L12.2397 9.26594L10.7617 9.01006L9.76171 14.7861L11.2397 15.0419Z" fill="#000000"/>
</svg>