<?xml version="1.0" encoding="utf-8"?>
<!-- Uploaded to: SVG Repo, www.svgrepo.com, Generator: SVG Repo Mixer Tools -->
<svg width="800px" height="800px" viewBox="0 0 960 960" fill="none" xmlns="http://www.w3.org/2000/svg">
<g clip-path="url(#clip0_1464_7948)">
<path d="M879.455 139.428C875.337 166.002 865.072 191.637 847.246 211.727C812.295 253.128 773.447 290.826 731.448 325.044C665.687 380.762 597.731 433.892 530.501 487.809C485.228 522.303 438.989 555.516 392.931 588.928C371.419 608.645 350.309 633.678 317.635 629.927C271.962 617.752 287.274 559.124 310.876 532.727C346.462 487.504 384.423 444.173 423.127 401.594C518.236 296.456 691.896 87.9521 841.06 85.3984C868.23 90.5966 880.75 112.538 879.455 139.428Z" fill="#000000"/>
<path d="M811.259 665.15C811.772 686.29 803.019 702.399 786.811 715.121C734.136 768.578 625.992 541.253 600.483 503.259C592.118 486.429 591.298 463.749 605.995 450.924C634.741 425.515 663.776 400.433 692.734 375.265C711.785 355.866 740.814 335.604 757.114 369.72C781.941 466.339 803.362 565.395 811.259 665.15Z" fill="#000000"/>
<path d="M243.227 129.194C245.123 95.895 287.749 83.935 315.343 92.4714C401.347 116.265 487.097 142.91 569.663 176.645C586.414 186.663 589.475 205.285 575.878 219.238C542.408 253.358 507.118 285.716 474.415 320.606C463.255 332.46 457.127 334.3 443.672 325.346C428.524 315.266 413.574 304.659 399.756 292.855C362.557 255.316 246.849 177.38 243.227 129.194Z" fill="#000000"/>
<path d="M381.422 818.983C382.036 809.804 388.626 801.987 396.609 794.905C452.037 747.128 505.638 697.452 557.236 645.571C565.236 637.877 574.006 630.944 582.742 624.067C603.366 606.342 626.18 632.147 606.413 650.5C547.346 708.956 487.396 766.532 428.663 825.322C415.96 841.658 381.498 848.645 381.422 818.983Z" fill="#000000"/>
<path d="M299.394 301.955C253.828 364.559 193.223 416.964 142.237 475.792C132.351 486.032 124.11 498.878 111.123 505.427C94.791 514.974 73.4183 495.444 82.7083 478.673C86.0728 471.897 91.4947 465.897 96.8819 460.413C144.012 415.759 186.896 366.971 232.078 320.399C248.035 306.719 288.438 261.654 299.394 301.955Z" fill="#000000"/>
<path d="M297.801 681.185C280.545 709.908 248.877 731.396 225.952 756.135C200.428 778.178 179.649 807.308 149.592 823.247C142.998 826.282 136.034 825.714 130.489 820.204C118.609 808.443 130.848 792.564 139.558 783.23C179.919 745.319 220.611 707.76 261.263 670.159C273.313 655.337 297.503 656.624 297.801 681.185Z" fill="#000000"/>
<path d="M477.17 645.218C472.714 729.395 380.207 685.882 393.242 621.322C397.894 602.578 418.726 593.869 431.97 581.536C441.465 574.143 452.012 577.112 461.745 580.522C474.781 588.055 472.773 628.869 477.17 645.218Z" fill="#000000"/>
<path d="M239.188 466.68C254.279 426.677 297.726 429.322 329.479 447.806C369.367 469.597 321.938 503.754 304.587 523.823C302.106 526.325 296.571 527.869 293.141 527.023C261.535 520.884 246.992 496.748 239.188 466.68Z" fill="#000000"/>
<path d="M611.631 875.47C587.366 876.662 581.795 852.731 596.739 838.615C605.081 830.917 613.421 823.212 621.596 815.338C639.325 798.259 656.93 781.051 674.642 763.955C681.576 756.571 693.8 753.23 701.12 761.009C709.07 768.206 706.09 780.432 698.74 787.48C680.3 807.512 661.788 827.476 643.329 847.491C635.137 857.531 622.746 870.926 611.631 875.47Z" fill="#000000"/>
<path d="M142.756 259.147C121.484 259.546 111.763 238.457 124.225 224.123C129.176 218.439 134.964 213.456 140.587 208.391C154.778 196.322 167.863 182.605 183.1 171.897C199.216 162.177 217.652 180.933 208.054 196.967C193.209 216.426 174.245 232.79 157.158 250.311C152.491 254.78 145.921 257.264 142.756 259.147Z" fill="#000000"/>
</g>
<defs>
<clipPath id="clip0_1464_7948">
<rect width="800" height="790.909" fill="white" transform="translate(80 85)"/>
</clipPath>
</defs>
</svg>