<svg id="Capa_1" enable-background="new 0 0 512 512" height="512" viewBox="0 0 512 512" width="512" xmlns="http://www.w3.org/2000/svg"><g><g><path d="m436.767 364.836v-66.802c0-3.354-1.681-6.483-4.476-8.336-2.796-1.852-6.334-2.182-9.421-.874l-9.634 4.076c-6.045-4.893-17.246-15.336-23.11-29.519-1.056-2.554-3.121-4.557-5.705-5.534-2.584-.975-5.458-.841-7.939.376l-13.437 6.59-57.129-13.72c-.62-.149-1.255-.222-1.891-.25l-6.121-38.085c29.326-15.581 49.645-46.579 50.952-83.044.005-.119.007-.239.007-.358v-20.296c.485-.043.782-.076.854-.085 5.281-.621 9.152-5.267 8.812-10.572-.064-1.003-1.733-24.829-15.325-48.812-12.822-22.623-38.821-49.591-89.865-49.591-36.943 0-65.934 17.24-83.84 49.856-13.102 23.865-15.504 47.527-15.601 48.522-.257 2.676.573 5.343 2.304 7.399 1.153 1.369 2.644 2.381 4.301 2.971v20.604c0 25.106 9.972 48.792 28.078 66.693 6.799 6.722 14.398 12.294 22.559 16.627l-4.992 38.265c-.288.043-.576.085-.86.154l-56.242 13.509-13.002-6.377c-2.48-1.217-5.354-1.352-7.939-.376-2.585.978-4.65 2.98-5.706 5.534-5.82 14.077-17.134 24.584-23.207 29.496l-9.579-4.052c-3.089-1.308-6.626-.978-9.42.874-2.795 1.853-4.476 4.982-4.476 8.336v66.721c-14.85 2.215-26.277 15.05-26.277 30.506v24.97c0 16.948 13.739 30.742 30.664 30.841.576.391 1.197.729 1.86.998l29.537 11.959v37.97c0 5.522 4.477 10 10 10h269.522c5.522 0 10-4.478 10-10v-37.987l29.496-11.942c.671-.272 1.298-.614 1.88-1.011 16.691-.368 30.159-14.05 30.159-30.828v-24.97c.001-15.287-11.179-28.006-25.791-30.426zm-43.867-63.332-32.43 13.72c-5.086 2.152-7.465 8.02-5.313 13.106.269.636.597 1.23.974 1.779 2.634 3.836 7.684 5.423 12.136 3.539l48.501-20.524v51.292h-4.31c-16.791 0-30.851 14.034-30.851 30.826v25.009c0 9.759 4.81 19.159 12.684 24.911l-103.733 41.998.033-127.263c0-5.47-4.583-10.006-10.04-10.006h-14.291v-15.338l110.116-54.003c4.989 8.581 11.113 15.65 16.524 20.954zm-275.021 143.529c7.884-5.844 12.352-15.06 12.51-24.802v-24.97c-.035-9.032-4.034-17.709-10.939-23.552-6.891-5.83-14.966-7.295-23.731-7.295v-51.292l126.216 53.399v120.64zm69.439-386.071c14.394-25.854 36.607-38.962 66.021-38.962 62.087 0 79.107 47.443 83.645 69.175-17.003-1.117-33.56-8.091-41.771-23.73-1.744-3.484-5.272-5.788-9.185-5.661-3.874.118-7.268 2.325-8.808 5.876-3.287 6.311-9.925 11.169-15.975 14.519-12.008 6.65-26.028 8.972-39.613 9.159-8.597.119-15.935.197-22.205.243-10.663.077-18.295.067-23.685.021 1.851-7.981 5.316-19.397 11.576-30.64zm-6.815 70.392v-19.723c8.907.03 22.101-.024 41.403-.291 22.794-.316 46.927-6.151 63.718-22.474 12.478 14.363 29.713 19.726 43.239 21.58v20.723c-1.512 39.817-33.461 74.312-74.18 74.354-40.092 0-74.18-34.13-74.18-74.169zm61.719 93.326c12.187 1.688 24.772.85 36.639-2.378l5.99 37.268c-17.533 14.445-42.093 12.87-59.294-.798l4.762-36.502c3.899 1.061 7.874 1.865 11.903 2.41zm-33.414 48.135h2.276c12.167 10.321 27.833 17.225 43.931 17.29 15.613.063 33.683-6.376 45.026-17.29h2.356l32.494 7.804-76.589 37.561-2.04 1-79.059-38.775zm-89.233 30.681c5.431-5.301 11.574-12.366 16.571-20.947l110.112 54.005v15.338h-12.297zm-50.134 118.735v-24.97c0-5.98 4.866-10.847 10.846-10.847h5.354c.026 0 .051.004.077.004h13.838c5.902 0 10.832 4.941 10.832 10.843v24.97c0 5.98-4.866 10.846-10.847 10.846h-19.254c-5.981 0-10.846-4.865-10.846-10.846zm62.061 51.895 49.085 19.874h-49.085zm110.432 19.874v-122.105h28.654l-.031 122.105zm139.09 0h-49.093l49.093-19.879zm61.535-71.769c0 5.98-4.866 10.846-10.847 10.846h-19.255c-5.98 0-10.847-4.865-10.847-10.846v-24.97c0-5.892 4.93-10.843 10.828-10.843h14.328c.026 0 .051-.004.077-.004h4.868c5.98 0 10.847 4.866 10.847 10.847v24.97z"/><path d="m332.91 337.84c-3.269-7.982-14.891-8.083-18.361-.226-1.719 3.892-.751 8.589 2.414 11.453 3.171 2.868 7.926 3.381 11.64 1.284 4.329-2.444 6.223-7.915 4.307-12.511z"/><path d="m246.472 164.668h16.253c5.522 0 10-4.478 10-10s-4.478-10-10-10h-1.823l4.642-12.379c1.939-5.171-.681-10.935-5.853-12.874-5.168-1.938-10.935.682-12.874 5.853l-9.708 25.89c-1.152 3.07-.724 6.511 1.144 9.207 1.868 2.695 4.94 4.303 8.219 4.303z"/></g></g></svg>