<svg id="Capa_1" enable-background="new 0 0 512 512" height="512" viewBox="0 0 512 512" width="512" xmlns="http://www.w3.org/2000/svg"><g><g><g><path d="m311.964 90.007h130.42c4.143 0 7.5-3.358 7.5-7.5s-3.357-7.5-7.5-7.5h-130.42c-4.143 0-7.5 3.358-7.5 7.5s3.357 7.5 7.5 7.5z"/><path d="m311.964 130.468h130.42c4.143 0 7.5-3.358 7.5-7.5s-3.357-7.5-7.5-7.5h-130.42c-4.143 0-7.5 3.358-7.5 7.5s3.357 7.5 7.5 7.5z"/><path d="m311.964 170.928h45.369c4.143 0 7.5-3.358 7.5-7.5s-3.357-7.5-7.5-7.5h-45.369c-4.143 0-7.5 3.358-7.5 7.5s3.357 7.5 7.5 7.5z"/><path d="m494.378.257h-340.116c-9.717 0-17.622 7.905-17.622 17.622v9.725c0 9.717 7.905 17.622 17.622 17.622h2.072v45.325c0 4.142 3.357 7.5 7.5 7.5s7.5-3.358 7.5-7.5v-45.325h305.972v180.552c0 1.989-1.618 3.606-3.606 3.606h-115.425l15.165-40.055c1.466-3.874-.485-8.203-4.359-9.669-3.872-1.467-8.203.484-9.67 4.359l-17.174 45.365h-73.494c-4.143 0-7.5 3.358-7.5 7.5s3.357 7.5 7.5 7.5h67.815l-13.787 36.419c-4.15.366-8.208 2.076-11.48 5.143l-13.697 12.835c-.059.056-.117.112-.175.169-4.113 4.113-6.699 9.341-7.479 15.116-.426 3.151-.247 1.473-8.151 25.316-2.803 1.81-5.031 4.545-6.175 7.945l-9.002 26.819c-12.059-14.172-27.571-24.844-45.163-31.019 10.833-4.292 19.886-12.225 25.716-22.823 7.938-14.434 8.579-31.274 1.769-46.182l-.258-.561c-10.73-23.118-6.513-42.881-7.487-62.05 0-14.508-3.266-28.266-9.092-40.585h30.579c9.278 0 16.826-7.548 16.826-16.825v-62.268c0-9.277-7.548-16.825-16.826-16.825h-44.767c-9.277 0-16.825 7.548-16.825 16.825v42.057c-15.573-11.097-34.613-17.63-55.149-17.63-52.522 0-95.253 42.73-95.253 95.25l-.012 27.378c-.008 20.131-7.591 34.819-7.724 35.214-6.82 14.93-6.179 31.771 1.76 46.205 5.833 10.605 14.894 18.541 25.736 22.832-41.938 14.7-70.442 54.256-70.442 99.473v43.499c0 14.133 11.498 25.632 25.632 25.632h246.915c16.765 0 31.049-11.982 33.966-28.492l21.531-121.923c.481-2.726.199-5.41-.681-7.843l.804-4.552c.845-4.782 3.109-9.121 6.549-12.547.012-.011.079-.079.091-.091.027-.028.056-.056.083-.084l5.627-5.858c11.059-11.513 12.322-31.248-3.465-44.909l15.544-41.058h121.103c10.26 0 18.606-8.347 18.606-18.606v-180.554h2.072c9.717 0 17.622-7.905 17.622-17.622v-9.725c.001-9.717-7.904-17.622-17.621-17.622zm-259.319 279.599.22.479c4.83 10.572 4.372 22.506-1.258 32.742-5.506 10.009-15.061 16.653-26.242 18.27l-26.419-13.167v-15.165c4.317-2.664 8.371-5.819 12.067-9.465 7.521-7.419 13.078-16.311 16.434-26.027 1.432-.181 10.096 1.178 19.127-5.166 1.467 6.079 3.499 11.958 6.071 17.499zm-36.98 96.705c2.683 3.33 4.214 3.878 3.759 5.494-3.46 12.322-19.378 31.888-34.786 48.552 5.299-12.268 10.879-26.355 15.685-44.632 4.216-16.03 4.996-32.766 2.361-49.172l16.331 8.139c.619.309.866.812.965 1.181.046.171.074.386.058.622-.003.03-.006.06-.008.091-.03.248-.112.518-.294.793l-5.557 8.394c-4.228 6.383-3.616 14.829 1.486 20.538zm-102.803-20.54-5.558-8.394c-.18-.272-.262-.539-.293-.785-.003-.036-.006-.072-.01-.109-.014-.231.012-.443.057-.611.074-.276.232-.627.565-.916.013-.01.028-.018.041-.028.104-.086.22-.168.359-.237l16.331-8.139c-2.635 16.406-1.854 33.142 2.361 49.171 4.806 18.277 10.386 32.365 15.685 44.633-15.408-16.665-31.326-36.231-34.786-48.553-.454-1.615 1.092-2.184 3.757-5.493 5.106-5.707 5.718-14.153 1.491-20.539zm29.535-30.838c.181-.596.698-3.513.698-6.678v-8.619c13.178 4.159 27.462 4.226 40.851 0v8.619c0 3.011.503 6.034.698 6.678 4.274 14.117 5.545 28.815 3.804 43.178-7.989 2.817-16.354 4.253-24.928 4.253-8.573 0-16.937-1.436-24.927-4.253-1.741-14.362-.471-29.061 3.804-43.178zm-31.513-78.948v-24.572c0-3.342 2.778-6.158 6.305-6.016 23.584.884 46.131-7.783 63.021-24.296 6.516-6.372 16.796-4.873 21.691 2.26 3.74 5.451 8.001 10.762 12.663 15.783 1.027 1.106 1.593 2.554 1.593 4.077v32.764c-.46 28.566-24.062 51.795-52.637 51.795s-52.176-23.229-52.636-51.795zm31.113 138.779c7.002 1.722 14.2 2.6 21.523 2.6s14.52-.878 21.522-2.6c-5.548 20.204-12.154 35.149-18.014 48.392-1.198 2.708-2.372 5.368-3.508 8.006-1.137-2.638-2.311-5.3-3.509-8.008-5.861-13.243-12.466-28.188-18.014-48.39zm101.789-146.032c-.037 7.173-5.648 13.19-13.004 13.512.669-6.426.255-9.031.374-27.147 7.015.503 12.576 6.334 12.629 13.463v.084c0 .029.001.059.001.088zm-10.117-147.149c0-1.006.818-1.825 1.825-1.825h44.767c1.007 0 1.826.819 1.826 1.825v62.271c0 1.006-.819 1.825-1.826 1.825h-39.435c-2.213-3.069-4.603-6.002-7.156-8.782v-55.314zm-150.402 119.68c0-44.252 36.002-80.253 80.254-80.253s80.253 36.001 80.253 80.257l.001 2.224c-3.848-2.087-8.227-3.309-12.876-3.425-.625-4.145-2.454-8.016-5.341-11.126-.001 0-.001 0-.001 0-4.164-4.485-7.962-9.216-11.288-14.064-10.343-15.073-31.605-17.151-44.546-4.499-13.918 13.607-32.51 20.764-51.972 20.032-7.516-.285-14.466 3.334-18.562 9.719-1.334.138-8.109-.815-15.924 3.406zm12.976 40.82c-7.282-.274-12.976-6.227-12.974-13.469.003-7.14 5.586-12.987 12.614-13.441.119 18.347-.284 20.574.36 26.91zm-20.809 60.744c-11.242-20.44.783-33.051 5.055-50.823 8.947 6.253 17.616 4.925 19.047 5.104 3.35 9.78 8.927 18.732 16.491 26.192 3.697 3.646 7.75 6.801 12.067 9.465v15.165l-26.419 13.167c-11.181-1.617-20.736-8.261-26.241-18.27zm233.893 167.565c-1.648 9.33-9.721 16.101-19.194 16.101-7.986 0-202.003 0-208.119 0v-32.57c0-4.142-3.357-7.5-7.5-7.5s-7.5 3.358-7.5 7.5v32.57h-23.796c-5.862 0-10.632-4.77-10.632-10.632v-43.499c0-39.576 25.456-74.094 62.633-86.066l5.136 7.756c.466.703.398 1.633-.164 2.262-1.045 1.702-10.19 8.246-7.016 19.546 6.815 24.266 48.007 66.285 65.321 81.943 2.906 2.621 7.291 2.556 10.117-.058 5.843-5.404 57.313-53.613 65.253-81.884 3.203-11.406-5.886-17.705-7.017-19.546-.562-.628-.629-1.559-.163-2.262l5.13-7.75c18.957 6.11 35.253 18.224 46.628 34.736l-21.866 65.144c-1.317 3.927.797 8.179 4.724 9.497 3.928 1.318 8.179-.797 9.497-4.724l36.621-109.101c.039-.119.168-.184.286-.151l22.985 6.497c.117.033.189.148.168.268zm37.957-160.682-5.566 5.797c-4.867 4.846-8.288 10.809-10.027 17.389l-16.216-4.583c5.43-16.648 6.2-17.183 6.915-22.488.332-2.457 1.419-4.682 3.146-6.441l13.597-12.742c1.669-1.565 4.261-1.541 5.9.057l1.902 1.854c5.887 5.738 6.045 15.229.349 21.157zm167.302-292.356c0 1.446-1.176 2.622-2.622 2.622h-340.116c-1.446 0-2.622-1.176-2.622-2.622v-9.725c0-1.445 1.176-2.622 2.622-2.622h340.116c1.446 0 2.622 1.176 2.622 2.622z"/></g></g></g></svg>