<?xml version="1.0" encoding="utf-8"?>
<!-- Uploaded to: SVG Repo, www.svgrepo.com, Generator: SVG Repo Mixer Tools -->
<svg fill="#000000" width="800px" height="800px" viewBox="0 0 512.021 512.021" id="Layer_1" enable-background="new 0 0 512.021 512.021" xmlns="http://www.w3.org/2000/svg">

<g>

<path d="m512.002 80.021v-64c0-12.751-14.252-20.397-24.875-13.313l-91.969 61.313h-59.156c-8.836 0-16 7.164-16 16v8h-136c-8.836 0-16 7.164-16 16s7.164 16 16 16h136v16c0 8.836 7.164 16 16 16h34.8l41.806 216h-44.606c-8.046 0-16 6.038-16 17.054l-310.105 21.143c-23.492 1.602-41.895 21.302-41.895 44.849 0 17.224 9.742 32.208 24 39.754v5.2c0 8.836 7.164 16 16 16s16-7.164 16-16h392c0 8.836 7.164 16 16 16s16-7.164 16-16h16c8.836 0 16-7.164 16-16 0-103.2.129-96.868-.317-99.175-.022-.11 1.034 5.34-47.656-246.225l43.287-43.287c3-3 4.686-7.07 4.686-11.313zm-467.928 358.123 307.928-20.995v46.872h-307.047c-7.143 0-12.954-5.811-12.954-12.954.001-6.785 5.303-12.462 12.073-12.923zm435.928 25.877h-96v-64h96zm-34.8-96-41.807-216h31.406l41.807 216zm34.8-294.628-46.627 46.627c-20.122 0-65.847 0-81.373 0v-24h48c3.159 0 6.247-.935 8.875-2.687l71.125-47.417z"/>

</g>

</svg>