<?xml version="1.0" encoding="iso-8859-1"?>
<!-- Uploaded to: SVG Repo, www.svgrepo.com, Generator: SVG Repo Mixer Tools -->
<svg fill="#000000" height="800px" width="800px" version="1.1" id="Layer_1" xmlns="http://www.w3.org/2000/svg" xmlns:xlink="http://www.w3.org/1999/xlink" 
	 viewBox="0 0 512.016 512.016" xml:space="preserve">
<g>
	<g>
		<path d="M402.715,244.765c-27.938-64.92-54.314-126.249-7.125-226.496c3.004-6.4,0.265-14.029-6.135-17.041
			s-14.029-0.247-17.041,6.135c-52.078,110.675-22.161,180.238,6.775,247.522c1.237,2.867,2.449,5.726,3.678,8.593
			c-21.913,16.879-68.829,30.933-126.863,30.933c-58.077,0-104.95-14.071-126.846-30.967c1.22-2.85,2.432-5.692,3.661-8.559
			c28.936-67.284,58.845-136.847,6.775-247.522c-3.021-6.391-10.641-9.165-17.041-6.135c-6.4,3.012-9.139,10.641-6.135,17.041
			c47.189,100.248,20.813,161.576-7.108,226.496c-30.276,70.407-61.584,143.213,7.663,260.936c2.389,4.062,6.664,6.315,11.05,6.315
			c2.202,0,4.437-0.563,6.477-1.766c6.101-3.584,8.124-11.435,4.548-17.527c-39.287-66.798-43.161-116.777-33.433-161.405
			c73.94,20.693,127.179,92.773,137.598,107.834v60.057c0,7.074,5.726,12.8,12.8,12.8s12.8-5.726,12.8-12.8v-60.082
			c10.794-15.582,63.845-87.277,137.581-107.877c9.736,44.654,5.888,94.642-33.416,161.474c-3.575,6.084-1.553,13.935,4.548,17.527
			c2.039,1.203,4.275,1.766,6.477,1.766c4.386,0,8.661-2.253,11.05-6.315C464.299,387.978,432.991,315.181,402.715,244.765z
			 M256.004,413.194c-21.29-28.066-72.984-86.919-143.597-106.571c2.074-6.34,4.378-12.604,6.792-18.841
			c29.474,19.72,78.625,32.23,136.813,32.23c58.12,0,107.339-12.441,136.855-32.11c2.398,6.195,4.685,12.424,6.741,18.722
			C328.988,326.274,277.294,385.128,256.004,413.194z"/>
	</g>
</g>
<g>
	<g>
		<circle cx="255.995" cy="230.404" r="12.8"/>
	</g>
</g>
<g>
	<g>
		<path d="M111.452,144.569l-38.399-38.399c-5-5-13.098-5-18.099,0c-5,5-5,13.098,0,18.099l16.546,16.546H12.808
			c-7.074,0-12.8,5.726-12.8,12.8c0,7.074,5.726,12.8,12.8,12.8h58.7l-16.554,16.554c-5,5-5,13.098,0,18.099
			c2.5,2.5,5.777,3.746,9.054,3.746c3.277,0,6.553-1.246,9.054-3.746l38.399-38.399
			C116.452,157.667,116.452,149.569,111.452,144.569z"/>
	</g>
</g>
<g>
	<g>
		<path d="M499.2,140.814h-58.7l16.546-16.546c5-5,5-13.098,0-18.099c-5-5-13.098-5-18.099,0l-38.399,38.399c-5,5-5,13.098,0,18.099
			l38.399,38.399c2.5,2.5,5.777,3.746,9.054,3.746c3.277,0,6.554-1.246,9.054-3.746c5-5,5-13.098,0-18.099l-16.546-16.546h58.7
			c7.074,0,12.8-5.726,12.8-12.8S506.274,140.814,499.2,140.814z"/>
	</g>
</g>
</svg>