<?xml version="1.0" standalone="no"?>
<!DOCTYPE svg PUBLIC "-//W3C//DTD SVG 20010904//EN"
 "http://www.w3.org/TR/2001/REC-SVG-20010904/DTD/svg10.dtd">
<svg version="1.0" xmlns="http://www.w3.org/2000/svg"
 width="275.000000pt" height="183.000000pt" viewBox="0 0 275.000000 183.000000"
 preserveAspectRatio="xMidYMid meet">

<g transform="translate(0.000000,183.000000) scale(0.100000,-0.100000)"
fill="#000000" stroke="none">
<path d="M0 915 l0 -915 376 0 375 0 -4 124 c-4 128 2 165 22 129 5 -11 7 -23
4 -27 -4 -4 3 -9 15 -13 28 -7 29 -39 3 -67 -21 -23 -24 -38 -22 -103 1 -42 2
-43 35 -43 33 0 35 2 41 42 10 68 25 108 40 108 19 0 45 39 45 68 0 12 11 33
25 46 14 13 25 30 25 39 0 9 11 26 24 39 21 20 24 29 19 70 -4 33 -11 49 -23
53 -21 7 -45 58 -36 80 5 13 25 19 63 18 6 0 9 6 6 13 -3 9 2 14 17 14 16 0
20 5 16 18 -13 44 -16 102 -6 102 6 0 8 -4 5 -10 -3 -5 1 -20 10 -32 15 -22
15 -21 14 25 -1 26 -6 47 -11 47 -5 0 -7 10 -5 23 2 12 2 16 0 10 -3 -7 -14
-13 -25 -13 -17 0 -19 -5 -15 -32 15 -87 18 -118 14 -118 -3 0 -10 33 -17 73
-14 92 -33 135 -25 57 4 -30 8 -75 10 -100 4 -40 3 -39 -6 10 -20 103 -32 135
-55 138 -24 3 -24 -1 10 -142 10 -37 15 -70 12 -73 -13 -13 -41 9 -42 34 -1
16 -13 66 -27 112 -30 93 -33 134 -15 193 14 49 53 72 73 45 7 -9 19 -17 28
-17 14 0 15 -5 7 -26 -13 -34 -3 -50 20 -29 19 17 66 12 55 -6 -4 -5 -2 -9 4
-9 6 0 9 -12 7 -27 -2 -16 -1 -22 1 -14 9 24 41 53 52 46 6 -3 9 -11 6 -16 -4
-5 1 -9 9 -9 12 0 16 -11 16 -47 0 -62 -9 -93 -26 -93 -8 0 -14 -10 -14 -22 0
-17 3 -19 9 -10 7 11 9 11 14 -2 4 -9 2 -16 -3 -16 -6 0 -10 -7 -10 -16 0 -8
5 -12 10 -9 6 3 10 1 10 -6 0 -8 4 -8 15 1 21 17 20 -4 -1 -25 -9 -9 -23 -14
-30 -11 -7 3 -16 1 -19 -4 -10 -17 37 -11 57 7 13 12 22 13 29 6 7 -7 1 -17
-20 -32 -17 -13 -31 -28 -31 -34 1 -7 5 -6 13 4 17 21 48 32 41 14 -7 -17 -48
-46 -89 -62 -28 -11 -27 -12 22 -8 29 2 58 7 64 11 8 5 9 3 4 -7 -5 -7 -8 -26
-7 -41 2 -18 -3 -31 -13 -34 -8 -4 -15 -12 -15 -18 0 -21 -73 -40 -99 -27 -28
15 -38 8 -44 -31 -3 -18 -12 -57 -21 -86 -8 -29 -18 -98 -22 -153 l-7 -99 367
0 367 0 -6 83 c-4 45 -14 107 -22 137 -8 30 -15 69 -14 85 0 17 -8 81 -18 144
-10 66 -15 128 -11 146 4 17 5 46 2 63 -2 18 0 32 6 32 5 0 13 -20 17 -45 3
-25 16 -57 29 -72 31 -35 70 -26 93 22 9 19 19 32 23 30 12 -8 -7 74 -21 91
-13 16 -30 126 -18 118 7 -4 22 34 20 49 -1 4 3 7 8 7 4 0 11 24 14 53 4 28 9
63 11 77 3 14 -1 7 -8 -15 -8 -22 -15 -55 -15 -72 -1 -18 -5 -33 -9 -33 -11 0
-185 70 -192 77 -3 3 4 3 15 -1 16 -5 35 8 83 57 56 57 62 66 53 88 -5 14 -26
40 -46 58 -31 27 -42 31 -64 24 -27 -8 -168 -10 -176 -1 -3 2 8 29 24 59 37
69 61 246 42 309 -17 57 -68 93 -139 98 -72 5 -117 -22 -149 -88 -19 -41 -40
-168 -23 -140 24 39 52 -207 29 -261 -8 -20 -9 -33 -2 -40 7 -7 12 -5 17 6 4
10 2 14 -6 9 -7 -4 -8 -3 -4 4 10 17 11 16 36 -20 12 -18 19 -24 15 -13 -12
38 -17 75 -10 75 4 0 23 -13 42 -30 18 -16 41 -30 49 -30 10 0 14 -6 10 -15
-3 -9 0 -15 9 -15 9 0 12 -6 9 -17 -4 -11 -2 -14 3 -8 10 13 113 66 113 59 0
-8 -20 -46 -43 -80 l-20 -31 -40 16 -40 15 -47 -53 c-37 -42 -51 -52 -68 -47
-34 11 -71 46 -91 85 -17 32 -17 39 -5 63 8 15 23 30 35 33 11 4 18 9 15 12
-3 3 -17 -2 -32 -12 -16 -10 -61 -21 -107 -26 -95 -11 -114 -20 -133 -64 -12
-29 -20 -35 -60 -41 -25 -3 -49 -3 -53 2 -17 19 -32 111 -31 193 1 107 -11
535 -15 539 -1 2 -13 0 -26 -3 -23 -6 -24 -10 -23 -83 1 -42 2 -115 3 -162 1
-78 3 -86 24 -95 28 -12 29 -37 2 -49 -20 -9 -21 -16 -17 -165 4 -143 6 -158
26 -179 l21 -24 -24 -19 c-35 -29 -56 -21 -56 21 -1 19 -4 55 -8 80 -6 39 -16
450 -17 683 l0 77 -43 0 -44 0 4 -157 c2 -87 8 -175 14 -196 5 -20 7 -42 4
-47 -3 -6 1 -10 9 -10 8 0 22 -7 31 -16 21 -22 1 -46 -34 -42 l-26 3 4 -141
c3 -132 -5 -252 -16 -240 -8 8 -22 367 -23 619 l-2 227 -44 0 c-28 0 -44 -4
-44 -12 0 -9 -3 -9 -12 0 -7 7 -23 12 -36 12 -20 0 -23 -4 -18 -22 3 -13 7
-57 8 -98 l1 -75 7 60 c5 45 7 22 8 -87 1 -89 -2 -149 -8 -153 -19 -12 -10
-25 17 -25 21 0 24 3 15 12 -9 9 -7 19 9 44 15 25 22 57 25 126 6 108 13 135
24 98 13 -42 11 -118 -4 -132 -14 -14 -11 -74 5 -94 12 -14 8 -83 -5 -91 -5
-4 -29 -6 -53 -4 l-43 2 -2 -168 c-1 -125 -4 -80 -11 177 -5 190 -9 364 -8
388 l0 42 -49 0 -49 0 -4 -37 -4 -38 -1 38 -2 37 -65 0 -64 0 -4 -87 -3 -88
-2 88 -2 87 -85 0 -85 0 0 -915z m193 613 c7 -55 5 -64 -12 -53 -13 7 -15 105
-2 105 4 0 11 -23 14 -52z m1272 2 c3 -5 16 -10 29 -10 21 0 22 -4 20 -52 -2
-69 0 -65 -29 -72 -21 -5 -24 -12 -27 -64 -3 -54 -4 -57 -28 -55 -25 3 -25 2
-5 -13 19 -16 18 -16 -21 -11 l-41 5 14 -28 c7 -15 25 -31 39 -34 29 -8 23
-26 -9 -26 -42 1 -88 59 -80 102 3 15 -4 42 -16 67 -12 22 -18 41 -14 41 5 0
2 4 -5 9 -12 7 -12 12 0 30 7 12 19 19 27 16 9 -3 11 0 7 10 -3 8 -2 15 3 15
4 0 6 12 3 27 -4 21 -2 25 12 20 9 -4 16 -3 16 2 0 23 93 41 105 21z m-1300
-98 c-18 -4 -35 13 -35 35 0 8 11 4 26 -10 22 -19 23 -23 9 -25z m80 14 c17
-1 42 -3 58 -4 56 -4 25 -21 -37 -21 -52 1 -68 5 -83 21 -18 21 -18 21 7 14
14 -4 39 -8 55 -10z m-108 -113 c-2 -16 -4 -5 -4 22 0 28 2 40 4 28 2 -13 2
-35 0 -50z m280 25 c-3 -7 -5 -2 -5 12 0 14 2 19 5 13 2 -7 2 -19 0 -25z
m-300 -10 c-3 -7 -5 -2 -5 12 0 14 2 19 5 13 2 -7 2 -19 0 -25z m1393 22 c0
-5 -5 -10 -11 -10 -5 0 -7 5 -4 10 3 6 8 10 11 10 2 0 4 -4 4 -10z m10 -36 c0
-2 -5 -14 -11 -28 -18 -39 -36 -39 -37 -1 -1 28 2 33 23 33 14 0 25 -2 25 -4z
m-1333 -41 c-3 -10 -5 -4 -5 12 0 17 2 24 5 18 2 -7 2 -21 0 -30z m20 -25 c-2
-13 -4 -3 -4 22 0 25 2 35 4 23 2 -13 2 -33 0 -45z m265 -65 c3 -54 3 -116 -1
-138 l-7 -40 -7 40 c-10 57 -9 235 2 235 4 0 10 -44 13 -97z m-145 10 c-2 -16
-4 -3 -4 27 0 30 2 43 4 28 2 -16 2 -40 0 -55z m172 -30 l-2 -108 -8 90 c-7
82 -5 125 7 125 2 0 3 -48 3 -107z m-312 40 c-3 -10 -5 -4 -5 12 0 17 2 24 5
18 2 -7 2 -21 0 -30z m20 -15 c-3 -7 -5 -2 -5 12 0 14 2 19 5 13 2 -7 2 -19 0
-25z m-47 -15 c0 -32 -5 -28 -14 10 -4 19 -3 26 4 22 5 -3 10 -18 10 -32z
m1355 -23 c3 -5 1 -10 -4 -10 -6 0 -11 5 -11 10 0 6 2 10 4 10 3 0 8 -4 11
-10z m-1368 -52 c-3 -8 -6 -5 -6 6 -1 11 2 17 5 13 3 -3 4 -12 1 -19z m60 -65
c-3 -10 -5 -4 -5 12 0 17 2 24 5 18 2 -7 2 -21 0 -30z m120 -75 c-2 -18 -4 -4
-4 32 0 36 2 50 4 33 2 -18 2 -48 0 -65z m-112 -178 c-2 -8 -4 -20 -4 -27 -1
-6 -14 -16 -31 -22 -36 -12 -41 -5 -5 9 22 8 25 15 24 52 -1 40 -2 41 -9 13
l-8 -30 -1 33 c0 17 4 32 9 32 6 0 11 37 12 88 l1 87 7 -110 c4 -60 6 -117 5
-125z m1355 200 c8 -5 11 -10 5 -10 -5 0 -17 5 -25 10 -8 5 -10 10 -5 10 6 0
17 -5 25 -10z m-873 -57 c5 -13 -46 -43 -72 -43 -11 0 -15 7 -13 22 4 32 76
50 85 21z m-339 -36 c2 -19 -1 -27 -12 -27 -18 0 -39 -34 -28 -45 4 -5 -1 -5
-11 -2 -10 4 -21 7 -23 7 -2 0 -4 13 -4 29 0 35 27 62 41 40 7 -11 9 -9 9 9 0
32 24 23 28 -11z m192 -27 c0 -11 -75 -49 -97 -50 -27 0 -11 26 25 42 44 19
72 22 72 8z m-280 -30 c0 -16 -4 -30 -10 -30 -5 0 -10 14 -10 30 0 17 5 30 10
30 6 0 10 -13 10 -30z m-103 -22 c-3 -8 -6 -5 -6 6 -1 11 2 17 5 13 3 -3 4
-12 1 -19z m1232 -10 l45 -19 -21 -21 -22 -21 -60 23 c-60 22 -60 22 -44 46
17 27 23 26 102 -8z m334 -21 c22 -8 35 -39 19 -45 -7 -2 -12 -11 -12 -19 0
-11 -6 -14 -21 -10 -14 4 -17 2 -11 -6 7 -8 5 -16 -4 -25 -12 -11 -14 -10 -15
5 0 11 -3 13 -6 5 -3 -9 -19 -5 -56 15 -29 16 -53 31 -55 36 -2 4 -11 7 -20 8
-10 0 -12 3 -5 5 6 3 25 -2 42 -10 43 -23 52 -20 14 4 -36 21 -44 36 -15 26
11 -4 9 1 -7 14 -40 34 -18 32 52 -6 37 -20 73 -33 80 -31 7 3 5 6 -5 6 -10 1
-18 6 -18 12 0 5 -4 8 -8 5 -10 -6 -82 41 -82 53 0 5 26 -1 58 -14 31 -12 65
-25 75 -28z m-669 -62 c3 -8 1 -15 -4 -15 -6 0 -10 7 -10 15 0 8 2 15 4 15 2
0 6 -7 10 -15z m550 -18 c16 -12 16 -14 -3 -31 -12 -11 -27 -15 -40 -11 -19 6
-20 8 -5 31 19 28 24 29 48 11z m169 -14 c-7 -2 -13 -11 -13 -19 0 -8 -4 -14
-10 -14 -5 0 -10 4 -10 10 0 5 -7 7 -15 4 -11 -5 -13 -2 -9 10 4 10 17 16 38
15 17 0 25 -3 19 -6z m-806 -40 c-3 -10 -5 -4 -5 12 0 17 2 24 5 18 2 -7 2
-21 0 -30z m-177 -77 c0 -16 -21 -36 -37 -36 -16 0 -17 32 -2 47 13 13 39 6
39 -11z m-140 -17 c0 -18 -2 -19 -15 -9 -8 7 -15 16 -15 21 0 5 7 9 15 9 9 0
15 -9 15 -21z m-433 -226 c-1 -43 -3 -10 -3 72 0 83 2 118 3 78 2 -40 2 -107
0 -150z m57 170 c10 -65 7 -293 -5 -293 -5 0 -8 3 -6 8 3 4 -1 36 -9 72 -14
67 -19 232 -7 243 13 14 21 6 27 -30z m946 19 c0 -11 -41 -34 -48 -28 -3 4 3
13 14 21 21 16 34 19 34 7z m-543 -38 c9 -23 -43 -72 -59 -56 -9 9 -7 16 10
32 12 12 22 25 22 30 0 16 20 11 27 -6z m-150 -96 c-3 -7 -5 -2 -5 12 0 14 2
19 5 13 2 -7 2 -19 0 -25z m363 17 c0 -8 -6 -15 -14 -15 -17 0 -28 14 -19 24
12 12 33 6 33 -9z m-350 -53 c0 -16 -95 -103 -99 -91 -2 7 18 31 45 55 54 48
54 48 54 36z m160 -46 c0 -2 -7 -6 -15 -10 -8 -3 -15 -1 -15 4 0 6 7 10 15 10
8 0 15 -2 15 -4z m-481 -108 c0 -37 -3 -47 -8 -33 -8 19 -4 85 5 85 2 0 4 -24
3 -52z"/>
<path d="M1334 1387 c34 -45 81 -52 95 -14 12 31 3 37 -64 44 l-58 6 27 -36z
m56 -8 c0 -5 -4 -9 -10 -9 -5 0 -10 7 -10 16 0 9 -5 12 -12 8 -7 -4 -8 -3 -4
5 6 9 11 9 22 0 8 -6 14 -15 14 -20z"/>
<path d="M770 1810 c32 -25 40 -25 40 0 0 16 -7 20 -32 20 l-33 0 25 -20z"/>
<path d="M858 1818 c7 -7 12 -33 12 -58 0 -42 13 -70 31 -70 4 0 5 24 3 54 -4
81 38 108 49 31 4 -28 4 -27 6 7 0 20 7 39 14 41 6 3 -19 6 -57 6 -55 1 -67
-2 -58 -11z"/>
<path d="M2013 1765 c0 -38 2 -53 4 -32 2 20 2 52 0 70 -2 17 -4 1 -4 -38z"/>
<path d="M2079 1738 c0 -51 -2 -230 -5 -398 -6 -349 -6 -351 -72 -307 -43 28
-52 53 -52 143 0 52 -13 75 -31 57 -6 -6 -4 -26 6 -52 17 -50 20 -101 5 -101
-5 0 -10 -5 -10 -11 0 -6 -7 -17 -16 -26 -12 -13 -14 -32 -10 -102 3 -47 6
-97 7 -111 1 -36 -17 -180 -25 -187 -3 -3 3 -20 13 -37 11 -17 27 -63 36 -103
9 -39 23 -77 31 -84 8 -6 14 -23 14 -38 0 -14 7 -35 15 -45 8 -11 15 -27 15
-37 0 -9 7 -22 15 -29 8 -7 15 -24 15 -39 0 -15 5 -32 11 -38 6 -6 12 -38 14
-70 2 -51 13 -84 43 -123 1 -2 7 2 12 10 7 10 10 11 10 3 0 -8 15 -13 40 -13
l40 0 0 45 c0 30 -8 58 -23 83 -13 20 -26 45 -30 54 -8 22 17 41 43 33 11 -4
20 -3 19 2 -1 4 -1 17 0 28 2 18 4 17 12 -5 6 -14 11 -73 12 -132 0 -60 4
-108 9 -108 4 0 7 10 5 21 -3 32 21 35 34 5 11 -23 18 -26 66 -26 l53 0 0 53
c0 45 4 57 28 78 15 14 33 24 40 23 6 -1 18 -2 25 -3 9 -1 9 -3 -2 -10 -9 -6
-10 -11 -2 -15 18 -11 13 -24 -11 -28 -20 -3 -23 -10 -26 -50 -2 -38 0 -48 12
-48 12 0 16 12 17 48 l1 47 13 -50 13 -50 1 82 c1 45 -3 84 -8 87 -4 3 -7 34
-4 68 10 164 17 454 12 463 -4 6 -7 88 -8 184 -1 96 -6 183 -12 192 -5 10 -9
88 -9 175 l0 156 -22 -6 c-13 -3 -40 -6 -61 -6 l-38 0 6 -37 c10 -61 6 -398
-5 -427 -11 -30 -12 -30 -53 -12 -18 8 -40 16 -49 20 -21 6 -13 36 9 36 11 0
13 6 8 23 -4 12 -9 69 -12 126 -4 84 -3 107 9 115 8 6 20 20 26 31 9 16 12 3
13 -70 1 -49 1 -93 0 -97 0 -4 -3 -40 -5 -81 -5 -63 -3 -76 11 -81 9 -4 17 -5
18 -4 2 2 0 100 -3 220 l-5 216 -38 4 -39 4 -2 -141 c-1 -77 -3 -149 -4 -160
-1 -11 -3 -27 -3 -35 -1 -9 -7 -5 -16 12 -11 19 -15 65 -17 162 -1 133 -2 136
-24 136 -21 0 -22 -3 -26 -152 -3 -84 -9 -161 -13 -172 -7 -15 -5 -17 11 -13
11 4 29 -2 44 -14 24 -20 24 -21 5 -35 -10 -8 -21 -14 -24 -14 -11 1 -38 25
-44 40 -4 8 -5 3 -3 -13 4 -35 -10 -45 -18 -12 -3 13 -6 214 -6 445 0 365 -2
420 -15 420 -12 0 -15 -18 -16 -92z m344 -469 c-1 -30 -5 -83 -10 -119 l-7
-65 -6 105 c-6 114 -3 143 14 137 7 -2 10 -26 9 -58z m45 -81 c1 -57 -3 -112
-8 -123 -7 -17 -9 -16 -10 10 -1 26 -3 27 -10 10 -6 -14 -9 3 -9 53 -1 46 3
71 9 67 6 -4 11 7 11 24 1 17 3 36 4 41 1 6 3 12 4 15 5 23 9 -11 9 -97z m3
-261 c-1 -4 -1 -19 -1 -33 0 -14 -4 -23 -10 -19 -14 8 -13 68 1 63 6 -2 10 -7
10 -11z m-35 -54 c54 -26 69 -44 37 -42 -26 0 -106 42 -111 57 -6 18 14 15 74
-15z m-176 -129 c0 -50 -3 -64 -15 -64 -12 0 -15 14 -15 63 0 35 3 67 6 70 16
15 24 -9 24 -69z m-255 56 c3 -5 -3 -10 -14 -10 -12 0 -21 5 -21 10 0 6 6 10
14 10 8 0 18 -4 21 -10z m41 -30 c19 0 18 -49 -2 -57 -19 -7 -29 4 -38 41 -6
24 -4 27 9 22 9 -3 23 -6 31 -6z m389 0 c3 -5 1 -10 -4 -10 -6 0 -11 -7 -11
-15 0 -8 -7 -15 -15 -15 -8 0 -15 7 -15 15 0 8 -6 15 -12 15 -20 0 14 20 34
20 9 0 20 -4 23 -10z m-78 -227 c-1 -43 -3 -8 -3 77 0 85 2 120 3 78 2 -43 2
-113 0 -155z m-134 37 c8 -11 17 -17 22 -12 4 4 6 1 3 -7 -9 -29 -34 -35 -61
-15 -32 24 -41 43 -26 60 13 16 40 5 62 -26z m156 -146 c12 -15 21 -34 21 -43
-1 -14 -2 -14 -14 2 -7 9 -20 15 -28 12 -11 -4 -15 2 -15 25 0 37 9 38 36 4z
m-49 2 c0 -3 -4 -8 -10 -11 -5 -3 -10 -1 -10 4 0 6 5 11 10 11 6 0 10 -2 10
-4z m100 -67 c0 -10 -4 -19 -10 -19 -5 0 -10 12 -10 26 0 14 4 23 10 19 6 -3
10 -15 10 -26z m7 -66 c44 -53 57 -80 43 -88 -9 -6 -110 109 -110 126 0 22 30
5 67 -38z"/>
<path d="M2165 1820 c-3 -6 1 -7 9 -4 18 7 21 14 7 14 -6 0 -13 -4 -16 -10z"/>
<path d="M2260 1821 c0 -5 -3 -17 -7 -27 -5 -13 -3 -16 10 -11 13 5 17 1 17
-21 -1 -26 -1 -26 -15 -8 -14 19 -15 19 -15 -7 0 -34 -25 -36 -37 -2 -8 24 -8
24 -33 5 -23 -17 -24 -21 -11 -42 10 -16 10 -23 2 -26 -12 -4 -16 -197 -5
-226 10 -26 22 -18 26 17 l4 32 8 -39 c10 -47 43 -85 52 -61 4 8 18 15 33 15
14 0 31 4 37 8 8 5 13 67 14 192 2 102 2 191 1 198 -1 14 -81 17 -81 3z m30
-341 c0 -41 -14 -61 -24 -34 -8 21 -8 69 0 77 14 13 24 -6 24 -43z"/>
<path d="M2370 1629 l0 -201 23 6 c12 3 29 6 37 6 9 0 11 3 5 8 -18 13 -14 42
7 42 15 0 18 -5 13 -20 -5 -14 -2 -20 9 -20 13 0 16 14 17 73 0 39 1 125 2
190 l2 117 -57 0 -58 0 0 -201z m40 -146 c0 -5 -5 -15 -10 -23 -8 -12 -10 -11
-10 8 0 12 5 22 10 22 6 0 10 -3 10 -7z"/>
<path d="M2554 1793 c-12 -27 -16 -78 -17 -190 -2 -150 -1 -154 18 -149 11 3
25 6 31 6 11 0 14 29 19 220 1 52 6 107 10 123 6 24 5 27 -19 27 -22 0 -30 -7
-42 -37z m31 -294 c0 -16 -3 -29 -7 -29 -4 0 -8 17 -8 37 0 43 14 36 15 -8z"/>
<path d="M2642 1688 c-7 -79 -12 -160 -12 -180 0 -35 2 -38 30 -38 17 0 30 4
30 9 0 5 9 7 20 4 19 -5 20 0 20 171 0 167 -1 176 -19 176 -11 0 -22 -8 -24
-17 -4 -17 -5 -17 -6 0 0 9 -7 17 -14 17 -9 0 -16 -39 -25 -142z m36 -171 c3
-32 0 -37 -17 -37 -18 0 -21 6 -21 41 0 33 3 40 18 37 12 -2 18 -14 20 -41z
m39 17 c-3 -3 -12 -4 -19 -1 -8 3 -5 6 6 6 11 1 17 -2 13 -5z"/>
<path d="M1919 1763 c-10 -2 -16 -16 -16 -36 -1 -18 -3 -50 -5 -72 -3 -38 -2
-40 29 -43 28 -3 32 0 38 27 6 28 2 65 -11 114 -5 17 -7 18 -35 10z"/>
<path d="M1080 1714 c0 -8 5 -12 10 -9 6 4 8 11 5 16 -9 14 -15 11 -15 -7z"/>
<path d="M864 1509 c3 -119 9 -128 89 -136 64 -7 65 -5 59 101 -3 47 -7 59
-23 63 -10 3 -19 11 -19 19 0 13 -72 54 -96 54 -10 0 -12 -25 -10 -101z m62
15 c-5 -13 -10 -14 -18 -6 -6 6 -8 18 -4 28 5 13 10 14 18 6 6 -6 8 -18 4 -28z"/>
<path d="M441 1574 c0 -11 3 -14 6 -6 3 7 2 16 -1 19 -3 4 -6 -2 -5 -13z"/>
<path d="M2530 1416 c0 -13 5 -26 11 -28 14 -5 15 -41 5 -270 -6 -143 -5 -198
3 -198 6 0 11 -17 11 -39 0 -30 -6 -44 -22 -55 -22 -15 -34 -46 -18 -46 17 0
37 -58 33 -96 -3 -21 -6 -135 -8 -253 -3 -128 -9 -219 -15 -225 -12 -12 -13
-56 -1 -56 5 0 12 6 14 13 4 7 8 3 12 -10 4 -13 11 -21 15 -18 4 3 11 -6 14
-20 11 -42 22 -28 24 28 2 48 1 50 -13 33 -14 -18 -15 -18 -25 8 -5 15 -10 37
-9 49 0 15 2 17 6 7 7 -16 29 -40 37 -40 3 0 6 108 6 239 0 203 2 240 15 245
8 3 15 1 15 -4 0 -5 8 -7 18 -3 14 5 15 3 5 -8 -7 -7 -13 -18 -13 -23 0 -6 5
-4 10 4 6 10 10 11 10 3 0 -7 9 -13 20 -13 14 0 18 -5 13 -16 -4 -10 -14 -14
-29 -11 -15 2 -24 -1 -26 -12 -2 -9 -1 -106 2 -216 l6 -200 2 157 c1 91 6 159
12 163 7 4 10 -60 10 -185 0 -133 3 -189 11 -185 6 4 9 41 8 93 -4 146 3 292
13 298 6 4 9 -62 6 -189 -1 -107 0 -199 5 -203 4 -4 7 -31 7 -59 0 -39 -4 -52
-15 -52 -9 0 -15 9 -15 23 0 17 -4 21 -20 17 -16 -4 -20 0 -20 19 0 18 -6 24
-27 26 l-27 2 28 -29 c15 -15 26 -34 24 -42 -2 -7 2 -13 9 -14 6 0 15 -4 20
-9 5 -5 2 -6 -6 -1 -8 5 -12 4 -8 -1 3 -5 20 -11 38 -12 l32 -3 -5 716 c-4
394 -8 718 -10 720 -4 4 -108 -10 -155 -20 -16 -4 -23 -1 -23 10 0 8 -4 15
-10 15 -5 0 -10 -11 -10 -24z m173 -123 c-8 -52 -13 -54 -13 -5 0 23 4 42 9
42 6 0 7 -17 4 -37z m-66 -25 c-2 -13 -4 -5 -4 17 -1 22 1 32 4 23 2 -10 2
-28 0 -40z m20 20 c-3 -8 -6 -5 -6 6 -1 11 2 17 5 13 3 -3 4 -12 1 -19z m-57
-4 c0 -8 -4 -12 -10 -9 -5 3 -10 10 -10 16 0 5 5 9 10 9 6 0 10 -7 10 -16z
m67 -161 c-2 -27 -3 -5 -3 47 0 52 1 74 3 48 2 -27 2 -69 0 -95z m-18 -120
l-1 -236 43 -23 c73 -38 27 -27 -66 16 -49 22 -85 43 -82 46 3 3 23 -4 46 -16
l41 -20 -1 77 c-2 67 -3 72 -10 38 -5 -27 -6 -16 -2 35 2 41 6 129 8 195 4
138 2 125 15 125 7 0 10 -79 9 -237z m65 -149 c11 -4 16 -19 16 -45 0 -50 -20
-51 -21 -1 l-2 37 -6 -33 c-3 -18 -10 -33 -16 -33 -14 0 -23 43 -13 64 9 18
17 20 42 11z m-127 -36 c-3 -8 -6 -5 -6 6 -1 11 2 17 5 13 3 -3 4 -12 1 -19z"/>
<path d="M2681 834 c0 -11 3 -14 6 -6 3 7 2 16 -1 19 -3 4 -6 -2 -5 -13z"/>
<path d="M864 1199 c7 -106 16 -136 38 -122 5 2 6 13 3 23 -9 28 15 112 31
106 8 -3 18 12 28 41 9 26 15 47 13 49 -1 1 -29 5 -61 9 l-59 8 7 -114z"/>
<path d="M941 883 c-6 -21 -11 -47 -10 -58 0 -11 7 4 15 34 8 30 12 56 10 58
-3 3 -9 -12 -15 -34z"/>
<path d="M971 814 c0 -11 3 -14 6 -6 3 7 2 16 -1 19 -3 4 -6 -2 -5 -13z"/>
<path d="M1091 643 c-7 -8 -10 -17 -7 -20 9 -9 29 13 25 25 -2 6 -10 3 -18 -5z"/>
<path d="M2633 525 c0 -22 2 -30 4 -17 2 12 2 30 0 40 -3 9 -5 -1 -4 -23z"/>
<path d="M2634 380 c0 -58 1 -81 3 -52 2 28 2 76 0 105 -2 28 -3 5 -3 -53z"/>
<path d="M1030 458 c0 -10 54 -9 105 2 34 7 30 8 -32 6 -40 0 -73 -4 -73 -8z"/>
<path d="M2621 134 c0 -11 3 -14 6 -6 3 7 2 16 -1 19 -3 4 -6 -2 -5 -13z"/>
<path d="M2534 65 c-2 -57 0 -65 17 -65 13 0 19 7 19 21 0 11 4 18 10 14 5 -3
7 -12 3 -20 -4 -12 4 -15 37 -15 l42 0 -57 65 c-32 36 -60 65 -64 65 -3 0 -7
-29 -7 -65z"/>
</g>
</svg>
