<svg id="Layer_1" data-name="Layer 1" xmlns="http://www.w3.org/2000/svg" viewBox="0 0 250 250"><title>3</title><path d="M60.66,168.73v-4.21H64V148.06H60.66v-4.2h13v4.2H70.47v16.46h2.9v4.21Zm14.64,0v-4.21h2.91l-7.54-8.85,8.14-7.61h-3v-4.2H88v4.2h-3l-7,6.85,8.15,9.61h2.58v4.21Z"/><path d="M93.07,169l-4.54-13.57h-2.2v-4h9.42v4H93.86L96,161.83l3.53-10.41h4.59l3.42,10.42,2.13-6.43h-2v-4h8.37v4h-2.17L109.43,169h-4.8l-3.39-10.18L97.89,169Z"/><path d="M117.61,155.41v-4h8.16v13.32h2.57v4H117.61v-4h2.63v-9.33Zm2.44-8.95a3,3,0,1,1,.89,2.12A2.86,2.86,0,0,1,120.05,146.46Z"/><path d="M147.57,151.42v7h-3.93a4.42,4.42,0,0,0-4.2-2.9,3.69,3.69,0,0,0-2.91,1.21,4.64,4.64,0,0,0-1.08,3.22,5,5,0,0,0,1.14,3.62,3.76,3.76,0,0,0,2.81,1.18,4.58,4.58,0,0,0,2.5-.76,5.76,5.76,0,0,0,1.9-2l4.29,1.89q-2.4,5.24-8.4,5.23a10.26,10.26,0,0,1-7.22-2.47,8.51,8.51,0,0,1-2.69-6.59,8.34,8.34,0,0,1,2.64-6.52,8.89,8.89,0,0,1,6.14-2.39,9,9,0,0,1,5.24,1.7v-1.43Z"/><path d="M149.63,168.73v-4h2.79v-16.9h-2.79v-4h8.29v15.7l6-4.83h-3.66v-3.31h10.46v3.5h-1.73l-5.06,4.32,4.61,5.5h2.4v4h-5.31l-7.66-9.17v5.38H160v3.79Z"/><path d="M186.28,163.51l4.29,1.37q-2.7,4.25-8.44,4.24a10,10,0,0,1-7.14-2.41,8.33,8.33,0,0,1-2.57-6.35,9.11,9.11,0,0,1,9.39-9.37,8.77,8.77,0,0,1,5.13,1.5,7.9,7.9,0,0,1,3,3.74,14.08,14.08,0,0,1,.84,5H177.89a4.12,4.12,0,0,0,1.5,3.34,4.81,4.81,0,0,0,2.88,1A5.76,5.76,0,0,0,186.28,163.51Zm-1.06-5.37a4.29,4.29,0,0,0-1.13-2.46,3.32,3.32,0,0,0-2.57-1q-3,0-3.54,3.48Z"/><path d="M204.32,164.74v4H192.14v-4h3.2v-9.33h-3v-4h8.06v4.4a6.15,6.15,0,0,1,2.12-3.28,5.87,5.87,0,0,1,3.91-1.39l.89,0v5.22a10.45,10.45,0,0,0-3.41.47,4.06,4.06,0,0,0-2.18,2,7.57,7.57,0,0,0-.86,3.72v2.13Z"/><path d="M159.79,83.81V81.3h-.69v.85h-.41V80.88h2.71v1.27H161V81.3h-.69v2.51h.43v.42h-1.37v-.42Z"/><path d="M162,83.81V81.3h-.4v-.42h1.14l.88,2.3.89-2.3h1.16v.42h-.4v2.51h.4v.42h-1.26v-.42h.4V81.3l-1.16,3h-.09l-1.15-3v2.51h.37v.42h-1.18v-.42Z"/><polygon points="125.01 87.95 125.01 82.38 100.52 82.38 100.52 137.69 125.01 137.69 125.01 132.11 106.08 132.11 106.08 87.95 125.01 87.95"/><polygon points="131.33 82.38 131.33 87.95 150.26 87.95 150.26 132.11 131.33 132.11 131.33 137.69 155.83 137.69 155.83 82.38 131.33 82.38"/><polygon points="141.11 115.13 141.04 115.15 129.91 115.72 121.6 123.09 121.54 123.11 123.26 99.48 141.11 115.13"/></svg>