<svg id="Layer_1" data-name="Layer 1" xmlns="http://www.w3.org/2000/svg"><defs><style>.cls-1{fill:#eb4458;}.cls-2{fill:#e63d5c;}.cls-3{fill:#ffa238;}</style></defs><title>6</title><path class="cls-1" d="M87.79,141.52v-3.7h2.95V123.29H87.79v-3.7H99.23v3.7H96.45v14.53H99v3.7Zm12.92,0v-3.7h2.56L96.62,130l7.19-6.71h-2.64v-3.7h10.7v3.7h-2.68l-6.18,6,7.19,8.48h2.27v3.7Z"/><path class="cls-1" d="M116.38,141.74l-4-12h-1.93v-3.52h8.31v3.52h-1.67l1.88,5.66,3.12-9.18h4l3,9.19,1.87-5.67H129.3v-3.52h7.38v3.52h-1.91l-4,12h-4.23l-3-9-3,9Z"/><path class="cls-1" d="M138,129.78v-3.52h7.19V138h2.28v3.51H138V138h2.32v-8.23Zm2.15-7.9A2.57,2.57,0,0,1,141,120a2.66,2.66,0,0,1,3.78,0,2.6,2.6,0,0,1,.77,1.88,2.65,2.65,0,0,1-4.54,1.87A2.52,2.52,0,0,1,140.18,121.88Z"/><path class="cls-1" d="M164.46,126.26v6.2H161a3.89,3.89,0,0,0-3.71-2.56,3.28,3.28,0,0,0-2.56,1.07,4.07,4.07,0,0,0-.95,2.84,4.41,4.41,0,0,0,1,3.2,3.34,3.34,0,0,0,2.47,1,4,4,0,0,0,2.21-.67,5.1,5.1,0,0,0,1.67-1.78l3.79,1.67a7.51,7.51,0,0,1-7.42,4.61,9,9,0,0,1-6.36-2.18,7.51,7.51,0,0,1-2.37-5.81,7.36,7.36,0,0,1,2.32-5.75,7.8,7.8,0,0,1,5.42-2.11,7.91,7.91,0,0,1,4.62,1.5v-1.26Z"/><path class="cls-1" d="M166.27,141.52V138h2.46V123.1h-2.46v-3.51h7.32v13.85l5.24-4.26h-3.22v-2.92h9.22v3.09H183.3l-4.46,3.81,4.07,4.85H185v3.51h-4.68l-6.75-8.08v4.74h1.84v3.34Z"/><path class="cls-1" d="M198.6,136.92l3.79,1.21c-1.59,2.5-4.07,3.74-7.45,3.74a8.83,8.83,0,0,1-6.3-2.13,7.32,7.32,0,0,1-2.26-5.6,8,8,0,0,1,8.28-8.26,7.8,7.8,0,0,1,4.53,1.32,7,7,0,0,1,2.64,3.3,12.31,12.31,0,0,1,.75,4.4H191.21a3.64,3.64,0,0,0,1.31,2.95,4.31,4.31,0,0,0,2.55.87A5.08,5.08,0,0,0,198.6,136.92Zm-.93-4.73a3.9,3.9,0,0,0-1-2.18,2.92,2.92,0,0,0-2.26-.9q-2.68,0-3.13,3.08Z"/><path class="cls-1" d="M214.51,138v3.51H203.77V138h2.83v-8.23H204v-3.52h7.11v3.88a5.42,5.42,0,0,1,1.87-2.9,5.21,5.21,0,0,1,3.44-1.22l.79,0v4.6a9.34,9.34,0,0,0-3,.41,3.62,3.62,0,0,0-1.92,1.8,6.71,6.71,0,0,0-.76,3.28V138Z"/><path class="cls-1" d="M80,114.88v-1.5h-.42v.51H79.3v-.76h1.62v.76h-.25v-.51h-.41v1.5h.26v.25H79.7v-.25Z"/><path class="cls-1" d="M81.26,114.88v-1.5H81v-.25h.69l.52,1.37.53-1.37h.7v.25h-.25v1.5h.25v.25H82.7v-.25h.24v-1.5l-.69,1.77h-.06l-.68-1.77v1.5h.22v.25H81v-.25Z"/><polygon class="cls-2" points="59.18 117.35 59.18 114.02 44.55 114.02 44.55 147.06 59.18 147.06 59.18 143.73 47.87 143.73 47.87 117.35 59.18 117.35"/><polygon class="cls-2" points="62.95 114.02 62.95 117.35 74.26 117.35 74.26 143.73 62.95 143.73 62.95 147.06 77.59 147.06 77.59 114.02 62.95 114.02"/><polygon class="cls-3" points="68.8 133.58 68.76 133.6 62.1 133.94 57.14 138.34 57.11 138.35 58.13 124.24 68.8 133.58"/></svg>