<?xml version="1.0" encoding="utf-8"?>
<!-- Uploaded to: SVG Repo, www.svgrepo.com, Generator: SVG Repo Mixer Tools -->
<svg fill="#000000" height="800px" width="800px" version="1.2" baseProfile="tiny" id="Layer_1" xmlns="http://www.w3.org/2000/svg" xmlns:xlink="http://www.w3.org/1999/xlink"
	  viewBox="-25 8 203.4 242" xml:space="preserve">
<path d="M130.1,139.7c9.3-16.7,19.9-35.7,19.9-58.6c0-21.8-8.1-40.1-23.2-53c-13.4-11.4-31.2-17.6-50.4-17.6
	c-19.2,0-37,6.2-50.4,17.6C10.8,40.9,2.9,59.3,2.9,81.1c0,22.9,10.6,41.9,20,58.6c8.1,14.5,15.7,28.3,15.7,42.6v40.4h12.8v0.2
	c0,13.5,11,24.5,24.5,24.5c13.5,0,24.5-11,24.4-24.5v-0.2h14.5v-36.4l-0.3-4C114.5,168,122.1,154.3,130.1,139.7z M105.6,177.2H47.4
	c-1.5-14.8-9.1-28.5-16.6-41.9c-8.9-15.7-18.8-33.3-18.8-54.2c0-19.2,6.9-35.1,20-46.1c11.8-10,27.6-15.4,44.5-15.4
	c16.9,0,32.8,5.4,44.5,15.4c13.1,11.2,20,27.1,20,46.1c0,20.6-10,38.4-18.7,54.2C114.8,148.7,107.1,162.4,105.6,177.2z"/>
</svg>