<?xml version="1.0" standalone="no"?>
<!DOCTYPE svg PUBLIC "-//W3C//DTD SVG 20010904//EN"
 "http://www.w3.org/TR/2001/REC-SVG-20010904/DTD/svg10.dtd">
<svg version="1.0" xmlns="http://www.w3.org/2000/svg"
 width="800.000000pt" height="534.000000pt" viewBox="0 0 800.000000 534.000000"
 preserveAspectRatio="xMidYMid meet">

<g transform="translate(0.000000,534.000000) scale(0.100000,-0.100000)"
fill="#000000" stroke="none">
<path d="M6356 4085 c-11 -6 -25 -20 -31 -32 -6 -11 -17 -28 -24 -36 -21 -27
-10 -62 22 -65 16 -2 27 -9 27 -19 0 -10 -6 -14 -20 -10 -24 6 -43 -15 -38
-45 2 -17 11 -24 31 -26 33 -4 31 -24 -4 -32 -19 -5 -24 -12 -24 -35 0 -25 4
-31 28 -33 16 -2 27 -8 25 -13 -2 -6 -6 -9 -8 -8 -3 1 -15 -3 -27 -10 -22 -11
-34 -60 -15 -62 55 -5 422 -9 439 -4 36 9 32 54 -7 68 -37 14 -38 25 -2 29 21
2 28 9 30 31 3 21 -2 29 -20 36 -13 5 -26 7 -30 4 -5 -2 -8 3 -8 11 0 9 11 16
28 18 20 2 28 9 30 27 4 28 -21 53 -44 44 -8 -3 -14 1 -14 10 0 10 11 17 28
19 19 2 28 9 30 24 4 28 -54 113 -81 119 -38 9 -299 1 -321 -10z"/>
<path d="M1311 3896 c-11 -5 -23 -18 -27 -30 -3 -12 -15 -31 -26 -43 -16 -17
-18 -25 -9 -41 6 -11 21 -22 33 -24 30 -4 26 -22 -6 -26 -48 -6 -39 -72 10
-72 25 0 30 -24 6 -26 -7 -1 -18 -2 -26 -3 -40 -3 -21 -71 20 -71 27 0 30 -24
3 -26 -8 -1 -19 -2 -25 -3 -17 -1 -26 -30 -16 -48 7 -12 45 -15 232 -16 199 0
225 1 234 16 14 22 -3 51 -33 55 -25 4 -28 22 -3 22 43 0 57 51 20 71 -13 7
-25 11 -28 10 -2 -1 -6 2 -8 8 -2 6 5 11 16 11 45 0 54 65 10 72 -27 4 -36 28
-11 28 11 0 24 5 31 12 14 14 16 48 4 48 -5 0 -16 16 -25 35 -9 20 -28 40 -42
45 -30 12 -307 8 -334 -4z"/>
<path d="M4752 3347 c-12 -13 -22 -28 -22 -34 0 -6 -7 -16 -15 -23 -25 -21
-18 -51 15 -63 33 -13 40 -27 12 -27 -48 0 -57 -56 -12 -73 33 -13 40 -27 12
-27 -48 0 -57 -56 -12 -71 33 -12 40 -29 12 -29 -37 0 -59 -51 -27 -64 8 -3
110 -6 226 -6 173 -1 214 1 226 13 21 21 0 57 -32 57 -14 0 -25 5 -25 10 0 6
8 10 18 10 11 0 27 9 36 19 23 26 6 61 -29 61 -14 0 -25 5 -25 10 0 6 8 10 18
10 11 0 27 9 36 19 23 26 6 61 -29 61 -34 0 -31 16 4 23 44 9 46 34 9 86 -17
25 -37 49 -42 53 -6 4 -83 8 -172 8 -155 0 -161 -1 -182 -23z"/>
<path d="M3085 3044 c-25 -19 -66 -85 -63 -103 2 -9 19 -21 38 -27 l35 -12
-37 -15 c-27 -11 -38 -22 -38 -37 0 -15 11 -26 38 -37 l37 -15 -35 -12 c-28
-9 -35 -16 -35 -36 0 -20 7 -27 35 -37 30 -9 32 -12 15 -18 -49 -16 -69 -45
-48 -66 14 -14 453 -13 466 0 18 18 -8 61 -38 61 -34 0 -32 16 4 23 56 11 47
77 -11 77 -29 0 -21 17 11 23 51 10 51 64 0 74 -32 6 -40 23 -11 23 10 0 27 6
38 14 19 14 19 15 -6 61 -39 72 -46 75 -224 72 -95 -1 -162 -6 -171 -13z"/>
</g>
</svg>
