<?xml version="1.0" standalone="no"?>
<!DOCTYPE svg PUBLIC "-//W3C//DTD SVG 20010904//EN"
 "http://www.w3.org/TR/2001/REC-SVG-20010904/DTD/svg10.dtd">
<svg version="1.0" xmlns="http://www.w3.org/2000/svg"
 width="976.000000pt" height="549.000000pt" viewBox="0 0 976.000000 549.000000"
 preserveAspectRatio="xMidYMid meet">

<g transform="translate(0.000000,549.000000) scale(0.100000,-0.100000)"
fill="#000000" stroke="none">
<path d="M4332 5457 c-18 -18 -32 -40 -32 -48 0 -8 -13 -28 -30 -44 -16 -16
-30 -37 -30 -46 0 -16 -42 -54 -103 -92 -15 -10 -41 -37 -58 -60 -26 -36 -30
-50 -28 -92 4 -71 -5 -88 -69 -130 -33 -23 -51 -40 -43 -43 7 -2 16 -1 20 4 7
10 66 44 75 44 18 0 1 -37 -29 -66 -25 -23 -35 -41 -35 -63 0 -16 -5 -33 -11
-36 -6 -4 -8 -13 -5 -20 2 -7 -3 -20 -12 -28 -18 -15 -78 -33 -99 -28 -8 1
-13 -10 -13 -29 0 -16 5 -30 10 -30 15 0 12 -16 -5 -34 -8 -8 -15 -28 -15 -43
0 -21 -10 -38 -35 -60 -27 -24 -35 -39 -35 -65 0 -18 -7 -42 -15 -52 -8 -11
-13 -28 -10 -37 4 -12 -11 -35 -44 -71 -34 -36 -51 -62 -51 -80 0 -15 -4 -30
-10 -33 -5 -3 -10 -14 -10 -23 0 -10 -10 -23 -21 -30 -18 -11 -21 -20 -16 -53
3 -21 1 -41 -4 -44 -4 -3 -5 -13 -2 -22 4 -11 2 -14 -5 -9 -18 11 -34 -32 -27
-74 4 -24 2 -47 -6 -62 -7 -13 -12 -31 -11 -40 5 -30 -69 -34 -105 -5 -19 14
-44 -10 -37 -38 5 -19 -2 -24 -53 -43 -32 -11 -78 -26 -103 -32 -62 -16 -281
-124 -302 -149 -10 -11 -24 -18 -32 -15 -19 7 -23 -1 -30 -81 -4 -38 -8 -79
-9 -90 -1 -11 -9 -28 -18 -38 -9 -10 -19 -33 -22 -50 -3 -18 -17 -58 -31 -89
l-26 -58 -50 0 c-43 0 -55 5 -90 36 l-40 36 1 77 c0 42 4 117 9 166 11 127 20
122 -198 124 -207 2 -205 3 -216 -94 -11 -93 -20 -109 -79 -133 -42 -17 -72
-22 -152 -21 -144 1 -137 2 -130 -20 6 -20 -27 -105 -45 -116 -8 -5 -7 -29 6
-93 3 -15 1 -21 -6 -17 -19 12 -10 -14 14 -39 13 -15 30 -26 39 -26 27 0 28
-17 5 -64 -12 -25 -25 -42 -28 -36 -3 5 -21 10 -40 11 -35 2 -80 33 -80 54 0
6 9 30 20 53 25 50 25 62 3 63 -15 0 -14 2 3 9 17 7 22 17 22 55 1 41 -1 45
-18 40 -14 -4 -20 -2 -20 9 0 9 -5 16 -10 16 -9 0 -62 35 -144 94 -27 20 -96
143 -96 171 0 8 14 23 30 35 23 17 49 22 113 25 45 3 94 7 109 10 21 4 32 -1
52 -26 14 -17 26 -35 26 -40 0 -5 4 -9 9 -9 17 0 34 102 28 173 -7 80 -20 102
-41 71 -8 -11 -33 -29 -55 -39 -40 -17 -42 -17 -81 0 -29 13 -49 16 -77 10
-21 -4 -51 -8 -68 -9 -41 -3 -75 -15 -75 -28 0 -6 -14 -8 -37 -3 -20 3 -64 6
-97 6 -33 0 -65 4 -72 10 -7 6 -19 -1 -35 -23 -24 -31 -108 -78 -141 -78 -26
0 -29 -14 -12 -49 14 -29 14 -34 0 -56 -9 -14 -20 -25 -25 -25 -5 0 -20 -18
-34 -39 -22 -33 -31 -39 -61 -39 -19 0 -40 6 -47 14 -6 8 -16 14 -22 14 -6 0
-18 7 -28 16 -15 14 -18 13 -27 -15 -6 -18 -23 -35 -44 -45 -43 -20 -114 -35
-137 -29 -13 3 -34 -13 -72 -57 -45 -50 -63 -64 -107 -76 -64 -19 -99 -10
-157 41 -33 29 -39 40 -38 72 0 21 6 169 12 328 6 160 13 333 15 385 2 52 7
196 11 320 l8 225 -31 33 c-30 32 -31 32 -126 32 l-96 0 0 -935 0 -935 30 0
c30 0 65 -28 65 -53 0 -6 13 -18 28 -25 23 -11 26 -16 16 -29 -9 -10 -9 -17
-2 -21 18 -12 10 -42 -13 -48 -13 -4 -21 -11 -18 -19 4 -10 -10 -15 -50 -20
l-56 -7 0 -43 c0 -37 3 -42 19 -38 30 8 59 -14 81 -59 35 -72 22 -112 -38
-120 -25 -4 -37 0 -48 16 -12 18 -14 -114 -14 -1045 l0 -1065 38 3 c20 2 93
10 162 18 69 8 168 17 220 20 151 8 481 36 525 43 36 6 40 10 40 37 1 19 13
46 32 70 37 46 36 35 34 325 -1 113 1 286 4 385 5 172 5 183 -18 245 l-24 65
-99 13 c-54 7 -101 18 -105 24 -4 7 -8 6 -11 -3 -3 -10 -6 -10 -12 -1 -8 13
66 66 85 60 7 -2 22 6 34 18 13 13 38 26 57 29 32 6 37 12 54 63 16 49 19 92
21 320 1 145 7 332 12 415 l10 152 -30 27 c-29 28 -31 28 -167 28 -234 1 -258
3 -281 24 -38 34 -27 43 60 44 44 1 89 7 99 12 10 6 30 10 45 10 14 0 36 7 49
15 32 21 147 33 241 25 44 -4 207 -8 362 -8 252 -1 284 1 292 16 7 13 12 14
24 4 8 -7 44 -11 93 -11 73 2 153 -7 277 -29 46 -9 74 -22 46 -22 -11 0 -11
-2 1 -10 8 -5 36 -10 63 -10 26 0 47 -4 47 -10 0 -5 7 -10 15 -10 8 0 15 5 15
10 0 6 -4 10 -10 10 -5 0 -10 5 -10 10 0 23 19 8 29 -23 17 -51 8 -63 -42 -59
-23 3 -47 8 -53 13 -6 5 -127 9 -270 9 -142 0 -281 1 -309 2 -27 0 -102 -2
-165 -6 -63 -4 -134 -7 -157 -6 -24 0 -52 -4 -64 -10 -25 -14 -52 -72 -38 -81
6 -3 11 -37 13 -74 2 -66 3 -69 37 -91 34 -21 42 -22 326 -22 196 0 299 4 314
12 15 7 23 21 24 40 0 17 10 36 25 48 22 17 34 19 90 14 54 -5 69 -11 87 -34
13 -15 23 -39 23 -53 0 -39 37 -58 122 -64 126 -10 359 -20 461 -20 93 0 98
-1 93 -20 -2 -11 -8 -50 -11 -87 -4 -37 -10 -66 -14 -64 -3 2 -103 7 -221 10
-222 7 -313 11 -486 22 -126 8 -214 -8 -214 -37 0 -11 8 -23 17 -26 10 -4 48
-38 86 -75 37 -37 72 -68 77 -68 15 0 12 -30 -2 -30 -7 -1 -2 -6 12 -13 24
-11 38 -47 19 -47 -5 0 -9 -4 -9 -9 0 -19 154 -23 456 -13 170 6 310 9 312 8
5 -5 10 -102 13 -219 2 -101 27 -290 43 -333 5 -12 -10 -49 -64 -169 -21 -44
-40 -114 -50 -183 -12 -74 -19 -247 -12 -269 2 -8 33 -12 93 -12 49 0 97 -2
106 -5 22 -6 139 -14 338 -22 142 -6 205 2 205 27 0 4 12 8 28 7 15 0 74 7
132 16 58 10 123 15 145 12 22 -3 123 -12 225 -21 406 -32 562 -46 725 -65 94
-10 218 -22 277 -26 93 -5 109 -4 124 11 12 12 26 15 48 11 17 -4 117 -16 221
-27 267 -28 286 -30 325 -35 19 -2 85 -8 145 -14 285 -26 319 -30 695 -74 242
-28 298 -28 315 0 7 10 22 87 34 169 12 83 26 173 32 200 16 72 9 109 -19 113
-30 4 -68 44 -74 76 -5 23 -3 25 20 21 14 -2 40 -19 58 -36 19 -18 35 -31 37
-28 9 11 27 143 27 197 0 59 -1 62 -42 96 -47 41 -28 52 24 15 31 -23 46 -16
49 21 0 8 3 26 5 40 3 14 18 104 35 200 16 96 39 223 50 282 23 124 21 146
-19 144 -48 -1 -364 15 -472 24 -58 5 -147 10 -198 11 l-92 2 -54 54 c-33 33
-65 55 -85 59 -40 8 -65 39 -91 118 -27 81 -46 109 -71 101 -11 -4 -19 -2 -19
4 0 6 5 11 11 11 8 0 7 5 -1 15 -7 9 -21 13 -31 10 -11 -4 -19 -1 -19 5 0 7
-6 10 -12 7 -7 -2 -23 -1 -35 4 -27 10 -32 44 -5 37 12 -4 17 2 18 19 1 12 -2
23 -7 23 -5 0 -9 7 -9 15 0 8 5 15 10 15 6 0 10 7 10 15 0 8 -7 15 -15 15 -9
0 -15 7 -13 17 2 11 -15 27 -52 48 -42 23 -55 37 -56 55 -1 14 -6 36 -11 49
-6 16 -6 34 -1 50 11 30 -9 102 -31 109 -10 3 -12 -3 -7 -26 5 -22 3 -31 -8
-35 -18 -7 -22 -42 -6 -52 15 -9 12 -25 -5 -25 -11 0 -15 -12 -14 -47 1 -58
11 -88 30 -88 8 0 15 -11 17 -23 3 -18 -1 -23 -14 -20 -12 2 -26 25 -41 70
-19 56 -22 75 -14 115 21 104 22 121 9 126 -10 3 -14 -14 -16 -67 -3 -70 -22
-121 -22 -59 0 35 -16 53 -23 26 -3 -10 -3 -1 -2 20 3 32 1 36 -11 26 -23 -19
-26 -4 -4 21 23 27 26 58 6 86 -13 18 -20 46 -17 69 1 6 6 3 11 -5 7 -11 10
-12 10 -2 0 8 -9 16 -20 19 -11 3 -20 9 -20 14 0 5 -5 9 -11 9 -6 0 -9 -12 -7
-27 2 -23 -1 -28 -17 -26 -18 2 -20 -3 -17 -45 3 -48 -25 -112 -48 -112 -6 0
-8 5 -5 10 3 6 1 26 -6 45 -10 27 -10 38 -1 47 9 9 13 4 18 -21 13 -64 25 -5
22 102 -3 83 -8 110 -25 138 -35 58 -48 139 -22 139 5 0 9 -8 9 -17 0 -15 2
-15 9 -4 15 24 43 5 39 -26 -2 -16 -8 -27 -14 -26 -7 1 -11 -10 -10 -27 2 -39
16 -51 16 -14 0 18 7 34 20 42 17 10 20 10 20 -3 0 -8 5 -15 10 -15 10 0 14
14 11 38 -1 6 3 12 9 12 15 0 31 -46 23 -66 -10 -26 9 -13 60 42 26 28 47 59
47 70 0 13 -12 5 -46 -31 -43 -48 -45 -48 -38 -20 4 17 8 39 9 50 3 24 15 56
28 72 7 9 19 5 48 -19 37 -30 38 -32 22 -50 -14 -16 -14 -18 0 -18 8 0 18 6
20 13 4 9 8 8 17 -3 9 -11 13 -12 17 -2 2 6 8 10 13 7 9 -5 8 4 -9 100 -11 63
-8 102 9 119 7 7 10 1 11 -20 1 -16 1 -33 0 -37 -1 -5 4 -5 10 -2 6 4 8 16 6
27 -4 14 1 22 19 28 13 5 24 14 24 20 0 17 -31 24 -40 9 -5 -7 -12 -10 -17 -6
-4 5 -1 12 7 17 12 7 12 12 2 22 -9 9 -12 9 -12 -1 0 -7 -4 -9 -10 -6 -5 3
-10 16 -10 28 0 12 -16 48 -36 79 -24 39 -33 65 -29 78 5 16 10 18 26 10 11
-6 19 -21 19 -35 0 -32 17 -75 30 -75 5 0 10 7 10 15 0 9 7 30 16 47 15 29 15
34 -6 78 -20 43 -21 49 -7 81 12 25 16 29 16 13 1 -11 8 -29 17 -40 15 -18 15
-18 9 11 -4 17 -13 82 -21 145 -8 63 -21 131 -29 150 -8 20 -16 84 -19 150 -3
63 -8 134 -12 157 -5 33 -1 55 15 93 18 42 20 57 12 88 l-10 37 19 -24 c25
-30 25 -62 0 -112 -20 -37 -20 -79 -1 -79 10 0 24 -70 25 -128 1 -49 19 -52
24 -4 2 18 8 32 14 32 7 0 9 -22 6 -64 -3 -36 -1 -69 4 -74 5 -5 8 -40 6 -78
l-3 -69 -27 50 c-31 57 -34 57 -13 0 8 -22 14 -57 15 -78 0 -42 21 -47 31 -7
5 24 6 23 22 -14 20 -46 22 -68 3 -43 -19 25 -22 22 -34 -26 -17 -67 5 -131
35 -101 23 22 28 8 9 -21 -10 -16 -15 -34 -10 -43 9 -23 22 -104 15 -96 -8 7
-31 -168 -24 -179 3 -5 9 -4 13 3 6 9 12 9 28 -1 17 -11 18 -17 10 -41 -8 -21
-7 -33 1 -41 8 -8 11 -7 11 6 0 9 5 17 11 17 7 0 8 -12 4 -32 -8 -37 -33 -89
-36 -73 0 6 -2 17 -3 25 -2 8 -3 27 -4 43 -1 15 -7 27 -13 27 -8 0 -10 -20 -7
-60 2 -33 1 -60 -4 -60 -4 0 -8 6 -8 14 0 24 -22 31 -36 12 -14 -20 -8 -47 30
-128 27 -57 38 -63 72 -36 6 4 19 6 28 2 9 -3 16 -2 17 2 0 5 2 61 3 124 2 63
4 120 6 125 1 6 2 28 1 49 -1 37 -2 38 -15 21 -13 -18 -15 -17 -24 20 -6 22
-13 55 -17 74 -6 29 -9 32 -17 17 -6 -10 -7 -36 -4 -59 6 -35 5 -39 -9 -27
-18 15 -19 52 -4 134 17 90 17 90 33 77 21 -18 37 15 24 48 -6 17 -4 58 7 129
9 57 14 116 11 131 -6 25 -5 25 22 -8 16 -19 32 -30 35 -24 4 5 -2 19 -11 29
-60 66 -75 94 -68 134 9 59 -10 166 -44 240 -26 57 -28 70 -19 103 5 20 17 43
25 51 13 13 13 27 5 86 -8 57 -16 77 -44 112 -40 49 -127 126 -165 147 -23 12
-24 12 -17 -5 5 -11 8 -38 7 -62 -3 -50 -46 -207 -67 -238 -8 -12 -38 -30 -67
-40 -63 -21 -143 -95 -149 -140 -5 -38 0 -76 11 -69 4 3 7 -3 6 -13 -1 -12 7
-17 28 -17 18 -1 34 -9 43 -22 13 -20 12 -28 -13 -85 -29 -67 -59 -113 -108
-165 -28 -31 -55 -45 -41 -23 3 6 2 10 -4 10 -6 0 -18 -15 -27 -32 -31 -61
-38 -63 -119 -28 -11 5 -57 19 -102 31 -46 11 -83 25 -83 29 0 4 8 7 17 6 10
0 18 7 20 19 1 11 0 14 -3 8 -3 -7 -11 -13 -16 -13 -6 0 -9 3 -5 6 7 7 -29 44
-43 44 -5 0 -10 4 -10 9 0 5 -8 11 -17 13 -11 2 -18 12 -18 27 0 16 -6 25 -19
27 -11 1 -29 14 -40 27 -12 14 -36 33 -53 41 -18 9 -33 23 -33 31 0 8 -6 15
-14 15 -17 0 -29 27 -15 36 6 4 6 11 -2 21 -7 8 -14 36 -16 61 -1 26 -3 52 -4
57 -4 28 15 154 28 185 8 19 21 55 30 80 8 25 25 53 36 63 12 10 15 15 7 11
-8 -4 -11 -3 -7 1 10 12 32 15 91 16 27 1 64 8 82 15 28 12 34 12 41 0 9 -15
113 -30 113 -16 0 14 26 12 51 -2 17 -11 22 -10 30 4 5 10 17 14 29 11 15 -4
20 0 20 16 0 23 15 28 24 9 3 -7 4 -4 1 7 -2 11 0 27 5 35 9 13 10 13 10 0 0
-8 9 -1 20 17 10 17 28 36 38 42 35 18 99 24 134 11 58 -21 98 -29 98 -18 0 6
11 7 24 4 14 -3 26 -1 28 4 2 6 21 -4 43 -23 32 -26 146 -97 157 -97 2 0 3 27
3 61 0 48 -4 63 -19 75 -11 7 -16 17 -11 21 4 5 10 2 12 -5 3 -6 8 -10 13 -7
11 7 50 -43 50 -66 0 -9 3 -24 6 -33 11 -30 20 -16 16 27 -3 23 -1 39 3 35 4
-4 9 -30 10 -57 2 -28 6 -55 10 -61 9 -15 28 -12 22 4 -3 8 1 20 9 26 15 13
20 35 6 26 -10 -6 -10 40 0 49 11 11 -17 86 -56 149 -20 33 -36 67 -36 76 0
24 -37 60 -63 61 -12 0 -16 3 -9 6 6 2 12 9 12 14 0 16 -55 -12 -77 -39 l-22
-27 3 28 c3 33 53 88 72 80 8 -3 14 -1 14 4 0 8 -74 58 -88 58 -4 0 -29 13
-57 29 -28 17 -65 30 -82 30 -18 0 -33 3 -33 7 0 4 -9 9 -20 11 -20 3 -20 4 4
30 18 19 24 34 20 55 -8 45 -16 68 -28 75 -6 4 -304 8 -661 8 l-651 0 -32 -33z
m1228 19 c0 -3 -4 -8 -10 -11 -5 -3 -10 -1 -10 4 0 6 5 11 10 11 6 0 10 -2 10
-4z m96 -43 c-7 -7 -26 7 -26 19 0 6 6 6 15 -2 9 -7 13 -15 11 -17z m-1292
-17 c-3 -9 -10 -16 -15 -16 -14 0 -11 28 4 33 16 6 19 3 11 -17z m1236 -32 c0
-8 -4 -12 -10 -9 -5 3 -10 10 -10 16 0 5 5 9 10 9 6 0 10 -7 10 -16z m-50
-128 c0 -2 -7 -9 -15 -16 -13 -11 -14 -10 -9 4 5 14 24 23 24 12z m-1392 -83
c-25 -57 -60 -113 -70 -113 -12 0 -9 59 3 83 16 32 61 77 75 77 9 0 7 -14 -8
-47z m1767 27 c3 -5 1 -10 -4 -10 -6 0 -11 5 -11 10 0 6 2 10 4 10 3 0 8 -4
11 -10z m-95 -30 c0 -5 -4 -10 -10 -10 -5 0 -10 5 -10 10 0 6 5 10 10 10 6 0
10 -4 10 -10z m-1506 -24 c-6 -16 -24 -23 -24 -8 0 10 22 33 27 28 2 -2 1 -11
-3 -20z m1616 -46 c0 -5 -5 -10 -11 -10 -5 0 -7 5 -4 10 3 6 8 10 11 10 2 0 4
-4 4 -10z m-55 -90 c-19 -38 -40 -70 -46 -70 -6 0 -1 12 10 26 12 15 21 32 21
38 0 13 37 76 45 76 3 0 -11 -31 -30 -70z m156 -30 c12 -41 26 -79 31 -84 14
-17 9 -27 -8 -18 -10 5 -18 23 -20 40 -2 17 -15 56 -29 88 -28 63 -32 86 -11
64 7 -8 24 -49 37 -90z m-1771 80 c0 -5 -4 -10 -10 -10 -5 0 -10 5 -10 10 0 6
5 10 10 10 6 0 10 -4 10 -10z m-74 -107 c-10 -26 -18 -8 -9 23 5 21 8 24 11
11 2 -10 1 -25 -2 -34z m1514 -63 c0 -5 -4 -10 -10 -10 -5 0 -10 5 -10 10 0 6
5 10 10 10 6 0 10 -4 10 -10z m-425 -30 c-4 -12 -9 -19 -12 -17 -3 3 -2 15 2
27 4 12 9 19 12 17 3 -3 2 -15 -2 -27z m652 -45 c8 -8 18 -13 23 -10 9 6 23
-25 15 -33 -3 -3 -20 8 -38 26 -17 18 -28 32 -24 32 5 0 15 -7 24 -15z m-777
-29 c0 -3 -4 -8 -10 -11 -5 -3 -10 -1 -10 4 0 6 5 11 10 11 6 0 10 -2 10 -4z
m-1264 -153 c-11 -11 -19 6 -11 24 8 17 8 17 12 0 3 -10 2 -21 -1 -24z m-15
-46 c-13 -13 -26 -3 -16 12 3 6 11 8 17 5 6 -4 6 -10 -1 -17z m292 -17 c-3
-12 -8 -19 -11 -16 -5 6 5 36 12 36 2 0 2 -9 -1 -20z m-153 -45 c-7 -9 -15
-13 -18 -10 -3 2 1 11 8 20 7 9 15 13 18 10 3 -2 -1 -11 -8 -20z m690 -72
c-10 -16 -11 -15 -6 7 3 14 6 32 7 40 1 8 4 5 6 -7 2 -12 -1 -30 -7 -40z
m-735 27 c-3 -5 -13 -10 -21 -10 -8 0 -12 5 -9 10 3 6 13 10 21 10 8 0 12 -4
9 -10z m165 -45 c-7 -9 -15 -13 -17 -11 -7 7 7 26 19 26 6 0 6 -6 -2 -15z
m-50 -45 c0 -5 -4 -10 -10 -10 -5 0 -10 5 -10 10 0 6 5 10 10 10 6 0 10 -4 10
-10z m-187 -60 c-3 -11 -11 -20 -18 -20 -7 0 -22 -15 -34 -32 -15 -25 -21 -28
-21 -14 0 14 64 86 76 86 1 0 0 -9 -3 -20z m2111 -146 c9 -89 1 -92 -11 -4 -5
38 -6 70 -2 70 3 0 9 -30 13 -66z m-2214 -4 c0 -5 -4 -10 -10 -10 -5 0 -10 5
-10 10 0 6 5 10 10 10 6 0 10 -4 10 -10z m790 -97 c0 -71 -7 -77 -20 -17 -8
33 1 84 15 84 3 0 5 -30 5 -67z m209 48 c24 -21 64 -114 54 -125 -4 -3 -15 -6
-25 -6 -23 0 -36 29 -17 41 12 7 12 9 0 9 -11 0 -11 3 0 17 12 15 12 16 -3 10
-12 -4 -18 -2 -18 8 0 8 -4 15 -10 15 -5 0 -10 11 -10 25 0 30 1 30 29 6z
m1011 -91 c-6 -22 -6 -38 0 -44 15 -15 12 -60 -6 -82 -14 -18 -15 -15 -10 34
3 30 1 52 -4 52 -15 0 -12 33 6 58 21 30 26 24 14 -18z m-2041 -100 c0 -10 -6
-8 -19 9 -11 13 -20 37 -19 55 l1 31 19 -40 c10 -22 18 -47 18 -55z m-179 24
c0 -2 -12 -4 -26 -4 -14 0 -23 4 -20 9 6 8 46 4 46 -5z m135 -21 c5 -20 3 -23
-19 -23 -30 0 -30 0 -14 35 12 27 22 24 33 -12z m1253 7 c-14 -22 -24 -19 -15
5 4 8 11 15 17 15 6 0 6 -7 -2 -20z m12 -70 c0 -5 -4 -10 -10 -10 -5 0 -10 5
-10 10 0 6 5 10 10 10 6 0 10 -4 10 -10z m30 -15 c0 -8 -4 -15 -10 -15 -5 0
-7 7 -4 15 4 8 8 15 10 15 2 0 4 -7 4 -15z m201 -21 c52 -17 85 -23 112 -19
20 3 37 2 37 -2 -1 -5 -14 -26 -30 -48 -31 -42 -69 -97 -104 -152 -25 -38 -64
-59 -80 -43 -8 8 -7 13 4 20 8 5 11 12 7 16 -4 4 -19 -3 -33 -17 -25 -23 -26
-23 -39 -5 -8 10 -16 23 -17 27 -2 5 -13 10 -25 12 -23 3 -93 80 -93 103 0 8
11 15 28 16 15 1 36 2 47 3 11 1 24 -1 30 -4 5 -3 16 -6 25 -8 8 -1 41 -9 73
-18 33 -9 66 -13 75 -9 9 4 22 8 27 9 6 0 16 4 24 9 11 7 9 12 -10 22 -13 7
-32 13 -41 14 -10 0 -18 8 -19 18 0 9 -18 32 -41 50 -22 17 -38 32 -36 32 3 0
38 -12 79 -26z m659 11 c0 -8 -4 -15 -10 -15 -5 0 -7 7 -4 15 4 8 8 15 10 15
2 0 4 -7 4 -15z m-2260 -36 c0 -9 -61 -31 -68 -25 -2 3 6 19 19 37 21 30 23
31 36 13 7 -10 13 -21 13 -25z m805 22 c-3 -6 -11 -11 -17 -11 -6 0 -6 6 2 15
14 17 26 13 15 -4z m1562 -23 c-3 -8 -6 -5 -6 6 -1 11 2 17 5 13 3 -3 4 -12 1
-19z m83 -18 c0 -5 -2 -10 -4 -10 -3 0 -8 5 -11 10 -3 6 -1 10 4 10 6 0 11 -4
11 -10z m-650 -10 c0 -5 -4 -10 -10 -10 -5 0 -10 5 -10 10 0 6 5 10 10 10 6 0
10 -4 10 -10z m439 -50 c1 -20 -1 -22 -9 -10 -5 8 -9 29 -9 45 0 26 2 27 9 10
5 -11 9 -31 9 -45z m131 27 c0 -5 -4 -5 -10 -2 -5 3 -10 14 -10 23 0 15 2 15
10 2 5 -8 10 -19 10 -23z m-2550 13 c12 -8 12 -10 -3 -16 -20 -7 -47 1 -47 16
0 12 30 13 50 0z m295 -10 c3 -5 1 -10 -4 -10 -6 0 -11 5 -11 10 0 6 2 10 4
10 3 0 8 -4 11 -10z m1652 -16 c-9 -9 -28 6 -21 18 4 6 10 6 17 -1 6 -6 8 -13
4 -17z m428 16 c3 -5 1 -10 -4 -10 -6 0 -11 5 -11 10 0 6 2 10 4 10 3 0 8 -4
11 -10z m-1619 -90 c-8 -26 -14 -36 -15 -24 -1 25 21 93 26 79 2 -6 -3 -30
-11 -55z m1615 43 c0 -5 2 -18 5 -31 3 -15 -5 -32 -21 -50 l-25 -27 0 31 c0
32 20 84 33 84 4 0 7 -3 8 -7z m-2121 -13 c0 -5 -4 -10 -10 -10 -5 0 -10 5
-10 10 0 6 5 10 10 10 6 0 10 -4 10 -10z m2180 -45 c0 -14 -4 -25 -10 -25 -5
0 -10 11 -10 25 0 14 5 25 10 25 6 0 10 -11 10 -25z m-2470 5 c0 -5 -4 -10
-10 -10 -5 0 -10 5 -10 10 0 6 5 10 10 10 6 0 10 -4 10 -10z m-225 -21 c-4 -5
-13 -9 -22 -9 -13 0 -13 3 -3 15 13 15 35 11 25 -6z m615 1 c0 -5 -4 -10 -9
-10 -6 0 -13 5 -16 10 -3 6 1 10 9 10 9 0 16 -4 16 -10z m690 -20 c6 -11 8
-20 6 -20 -3 0 -10 9 -16 20 -6 11 -8 20 -6 20 3 0 10 -9 16 -20z m-1125 0 c3
-5 -1 -10 -9 -10 -9 0 -16 5 -16 10 0 6 4 10 9 10 6 0 13 -4 16 -10z m145 -10
c0 -5 -7 -10 -15 -10 -8 0 -15 5 -15 10 0 6 7 10 15 10 8 0 15 -4 15 -10z
m1390 0 c0 -5 -4 -10 -10 -10 -5 0 -10 5 -10 10 0 6 5 10 10 10 6 0 10 -4 10
-10z m-1575 -10 c3 -5 -1 -10 -9 -10 -9 0 -16 5 -16 10 0 6 4 10 9 10 6 0 13
-4 16 -10z m825 -10 c0 -5 -4 -10 -10 -10 -5 0 -10 5 -10 10 0 6 5 10 10 10 6
0 10 -4 10 -10z m-900 -9 c0 -14 -18 -23 -30 -16 -6 4 -8 11 -5 16 8 12 35 12
35 0z m385 -1 c3 -5 2 -10 -4 -10 -5 0 -13 5 -16 10 -3 6 -2 10 4 10 5 0 13
-4 16 -10z m255 -10 c0 -5 -4 -10 -10 -10 -5 0 -10 5 -10 10 0 6 5 10 10 10 6
0 10 -4 10 -10z m-790 -9 c0 -5 -7 -11 -15 -15 -15 -5 -20 5 -8 17 9 10 23 9
23 -2z m360 -1 c0 -5 -4 -10 -9 -10 -6 0 -13 5 -16 10 -3 6 1 10 9 10 9 0 16
-4 16 -10z m275 0 c3 -5 1 -10 -4 -10 -6 0 -11 5 -11 10 0 6 2 10 4 10 3 0 8
-4 11 -10z m2060 -21 c-10 -15 -25 -10 -19 6 4 8 10 12 15 9 5 -3 7 -10 4 -15z
m-2825 7 c0 -3 -4 -8 -10 -11 -5 -3 -10 -1 -10 4 0 6 5 11 10 11 6 0 10 -2 10
-4z m615 -26 c-5 -8 -11 -8 -17 -2 -6 6 -7 16 -3 22 5 8 11 8 17 2 6 -6 7 -16
3 -22z m1992 8 c-3 -8 -6 -5 -6 6 -1 11 2 17 5 13 3 -3 4 -12 1 -19z m-2156
-1 c-1 -12 -15 -9 -19 4 -3 6 1 10 8 8 6 -3 11 -8 11 -12z m-276 -17 c-3 -5
-13 -10 -21 -10 -8 0 -12 5 -9 10 3 6 13 10 21 10 8 0 12 -4 9 -10z m165 -6
c0 -17 -22 -14 -28 4 -2 7 3 12 12 12 9 0 16 -7 16 -16z m805 6 c3 -5 1 -10
-4 -10 -6 0 -11 5 -11 10 0 6 2 10 4 10 3 0 8 -4 11 -10z m1593 -20 c3 -21 2
-22 -12 -11 -19 16 -21 44 -3 39 6 -3 14 -15 15 -28z m112 0 c0 -5 -5 -12 -10
-15 -7 -4 -6 -13 1 -27 8 -15 8 -19 -1 -13 -13 8 -33 -14 -57 -65 l-17 -35 -4
28 c-2 16 1 34 6 40 5 7 13 28 17 47 12 58 23 72 45 60 11 -6 20 -15 20 -20z
m-2830 10 c0 -5 -4 -10 -10 -10 -5 0 -10 5 -10 10 0 6 5 10 10 10 6 0 10 -4
10 -10z m550 -27 c0 -13 -3 -13 -15 -3 -8 7 -12 16 -9 21 8 13 24 1 24 -18z
m290 17 c0 -5 -4 -10 -10 -10 -5 0 -10 5 -10 10 0 6 5 10 10 10 6 0 10 -4 10
-10z m-155 -10 c3 -5 1 -10 -4 -10 -6 0 -11 5 -11 10 0 6 2 10 4 10 3 0 8 -4
11 -10z m-660 -10 c-3 -5 -11 -10 -16 -10 -6 0 -7 5 -4 10 3 6 11 10 16 10 6
0 7 -4 4 -10z m205 -19 c0 -14 -18 -23 -30 -16 -6 4 -8 11 -5 16 8 12 35 12
35 0z m1220 -12 c0 -6 -4 -7 -10 -4 -5 3 -10 11 -10 16 0 6 5 7 10 4 6 -3 10
-11 10 -16z m-932 -8 c3 -8 -1 -12 -9 -9 -7 2 -15 10 -17 17 -3 8 1 12 9 9 7
-2 15 -10 17 -17z m142 3 c0 -8 -4 -12 -10 -9 -5 3 -10 10 -10 16 0 5 5 9 10
9 6 0 10 -7 10 -16z m135 6 c3 -5 1 -10 -4 -10 -6 0 -11 5 -11 10 0 6 2 10 4
10 3 0 8 -4 11 -10z m810 -12 c-3 -13 -7 -33 -8 -45 0 -13 -5 -23 -9 -23 -5 0
-7 12 -4 28 2 15 5 35 5 45 1 9 6 17 11 17 6 0 8 -10 5 -22z m-1535 -3 c0 -8
-7 -15 -16 -15 -14 0 -14 3 -4 15 7 8 14 15 16 15 2 0 4 -7 4 -15z m319 6 c7
-5 10 -14 6 -20 -5 -9 -10 -9 -21 0 -26 22 -14 38 15 20z m546 -1 c-3 -5 -10
-10 -16 -10 -5 0 -9 5 -9 10 0 6 7 10 16 10 8 0 12 -4 9 -10z m1939 -5 c-4 -8
-11 -15 -16 -15 -6 0 -5 6 2 15 7 8 14 15 16 15 2 0 1 -7 -2 -15z m-1550 -53
c5 -38 4 -52 -4 -47 -20 13 -30 54 -19 81 12 34 15 30 23 -34z m334 36 c14
-14 16 -48 3 -48 -8 0 -41 43 -41 55 0 10 26 5 38 -7z m-1168 -25 c0 -20 -24
-11 -28 10 -2 12 1 15 12 11 9 -3 16 -13 16 -21z m2350 8 c0 -20 -40 -90 -51
-91 -4 0 -9 10 -12 21 -4 14 3 33 20 55 29 38 43 43 43 15z m-2212 -10 c3 -8
-1 -12 -9 -9 -7 2 -15 10 -17 17 -3 8 1 12 9 9 7 -2 15 -10 17 -17z m122 -7
c0 -8 -4 -12 -10 -9 -5 3 -10 10 -10 16 0 5 5 9 10 9 6 0 10 -7 10 -16z m1765
-12 c0 -31 -19 -28 -23 4 -3 18 0 25 10 22 7 -3 13 -14 13 -26z m357 6 c-3
-13 -11 -27 -19 -31 -11 -7 -10 -14 2 -44 17 -41 20 -89 5 -98 -6 -4 -24 7
-40 24 -30 29 -30 31 -16 65 12 28 65 106 73 106 0 0 -1 -10 -5 -22z m-2912 2
c0 -5 -4 -10 -10 -10 -5 0 -10 5 -10 10 0 6 5 10 10 10 6 0 10 -4 10 -10z
m182 -5 c0 -5 -5 -11 -11 -13 -6 -2 -11 4 -11 13 0 9 5 15 11 13 6 -2 11 -8
11 -13z m176 -3 c3 -9 -2 -13 -14 -10 -9 1 -19 9 -22 16 -3 9 2 13 14 10 9 -1
19 -9 22 -16z m562 2 c0 -8 -4 -12 -10 -9 -5 3 -10 10 -10 16 0 5 5 9 10 9 6
0 10 -7 10 -16z m524 -15 c-3 -5 -10 -7 -15 -3 -5 3 -7 10 -3 15 3 5 10 7 15
3 5 -3 7 -10 3 -15z m-806 -16 c6 -19 -25 -16 -32 3 -4 11 -1 14 11 12 9 -2
18 -9 21 -15z m130 -2 c3 -8 -1 -12 -9 -9 -7 2 -15 10 -17 17 -3 8 1 12 9 9 7
-2 15 -10 17 -17z m422 9 c0 -5 -4 -10 -10 -10 -5 0 -10 5 -10 10 0 6 5 10 10
10 6 0 10 -4 10 -10z m440 0 c0 -5 -4 -10 -10 -10 -5 0 -10 5 -10 10 0 6 5 10
10 10 6 0 10 -4 10 -10z m840 -5 c0 -8 -4 -15 -10 -15 -5 0 -10 7 -10 15 0 8
5 15 10 15 6 0 10 -7 10 -15z m-2420 -5 c0 -5 -7 -10 -15 -10 -8 0 -15 5 -15
10 0 6 7 10 15 10 8 0 15 -4 15 -10z m1507 -61 c-4 -54 -13 -72 -23 -43 -4 10
-13 26 -21 35 -12 14 -12 17 2 22 8 4 15 18 15 33 0 22 2 24 15 14 10 -8 14
-27 12 -61z m-1049 43 c6 -18 -15 -14 -22 4 -4 10 -1 14 6 12 6 -2 14 -10 16
-16z m2236 -14 c3 -17 4 -34 1 -37 -9 -8 -25 21 -25 47 0 33 17 27 24 -10z
m-2463 -3 c-1 -15 -24 -12 -29 3 -3 9 2 13 12 10 10 -1 17 -7 17 -13z m333 -1
c4 -10 1 -14 -6 -12 -15 5 -23 28 -10 28 5 0 13 -7 16 -16z m254 -8 c3 -12 -1
-17 -10 -14 -7 3 -15 13 -16 22 -3 12 1 17 10 14 7 -3 15 -13 16 -22z m150 6
c2 -7 -3 -12 -12 -12 -9 0 -16 7 -16 16 0 17 22 14 28 -4z m1642 -17 c-16 -19
-26 -19 -34 1 -5 13 -2 15 14 11 14 -4 20 0 21 11 0 11 2 13 6 4 3 -7 -1 -19
-7 -27z m-1922 6 c3 -8 -1 -12 -9 -9 -7 2 -15 10 -17 17 -3 8 1 12 9 9 7 -2
15 -10 17 -17z m899 -27 c1 -21 2 -43 2 -48 1 -6 6 -5 13 2 20 20 24 14 20
-30 -2 -24 -4 -53 -5 -65 -1 -13 -4 -23 -7 -23 -10 0 -9 -39 1 -45 5 -4 9 -15
9 -26 0 -11 4 -18 9 -15 4 3 20 0 34 -7 37 -17 46 -87 11 -87 -17 0 -18 -12
-3 -27 13 -13 15 -89 4 -198 -6 -74 -19 -126 -47 -198 l-11 -28 -25 37 c-17
25 -29 64 -38 123 -13 84 -30 156 -42 176 -8 13 -9 27 -18 170 -4 66 -11 125
-16 132 -6 7 -5 14 2 18 15 9 15 9 34 -48 18 -54 20 -71 7 -63 -4 3 -6 -6 -3
-19 6 -31 21 -33 24 -2 0 12 2 36 3 52 2 17 -2 38 -7 49 -13 24 -20 94 -12
118 3 10 14 18 25 18 17 0 18 5 13 41 -6 33 -4 41 7 37 8 -3 15 -20 16 -44z
m-1519 25 c-2 -6 -8 -10 -13 -10 -5 0 -11 4 -13 10 -2 6 4 11 13 11 9 0 15 -5
13 -11z m329 -4 c3 -9 3 -19 -1 -22 -8 -9 -37 18 -30 28 8 14 24 11 31 -6z
m2359 -24 c-13 -20 -26 -11 -26 16 0 25 1 26 16 11 9 -9 13 -21 10 -27z
m-2859 7 c-3 -8 -6 -5 -6 6 -1 11 2 17 5 13 3 -3 4 -12 1 -19z m631 -26 c2 -7
-3 -12 -12 -12 -9 0 -16 7 -16 16 0 17 22 14 28 -4z m130 -1 c3 -8 -1 -12 -9
-9 -7 2 -15 10 -17 17 -3 8 1 12 9 9 7 -2 15 -10 17 -17z m122 4 c0 -8 -4 -15
-10 -15 -5 0 -10 7 -10 15 0 8 5 15 10 15 6 0 10 -7 10 -15z m1658 -13 c8 -24
7 -28 -9 -29 -15 -1 -19 5 -19 28 0 37 15 38 28 1z m-2488 9 c0 -6 -4 -13 -10
-16 -5 -3 -10 1 -10 9 0 9 5 16 10 16 6 0 10 -4 10 -9z m2685 -29 c0 -29 -3
-36 -11 -28 -6 6 -9 17 -6 25 3 9 1 12 -6 7 -16 -9 -15 7 0 22 19 19 23 14 23
-26z m85 29 c0 -6 -4 -13 -10 -16 -5 -3 -10 1 -10 9 0 9 5 16 10 16 6 0 10 -4
10 -9z m-2560 -17 c0 -17 -22 -14 -28 4 -2 7 3 12 12 12 9 0 16 -7 16 -16z
m175 6 c3 -5 4 -14 0 -20 -8 -13 -35 -1 -35 16 0 16 26 19 35 4z m570 -8 c0
-18 -20 -15 -23 4 -3 10 1 15 10 12 7 -3 13 -10 13 -16z m145 3 c0 -8 -4 -15
-10 -15 -5 0 -10 7 -10 15 0 8 5 15 10 15 6 0 10 -7 10 -15z m350 -15 c10 0
22 -4 25 -10 4 -6 -5 -10 -19 -10 -18 0 -27 -7 -31 -23 -4 -13 -13 -24 -21
-24 -12 0 -14 8 -9 36 7 35 27 60 33 41 2 -6 12 -10 22 -10z m-755 -1 c11 -17
-1 -21 -15 -4 -8 9 -8 15 -2 15 6 0 14 -5 17 -11z m-635 -14 c0 -8 -4 -15 -10
-15 -5 0 -10 7 -10 15 0 8 5 15 10 15 6 0 10 -7 10 -15z m748 -4 c3 -8 -1 -12
-9 -9 -7 2 -15 10 -17 17 -3 8 1 12 9 9 7 -2 15 -10 17 -17z m422 3 c0 -14 -3
-14 -15 -4 -8 7 -15 14 -15 16 0 2 7 4 15 4 8 0 15 -7 15 -16z m1865 -34 c-9
-28 -29 -25 -21 3 3 12 6 29 6 37 1 12 3 11 11 -3 6 -9 7 -26 4 -37z m-1725
30 c0 -5 -4 -10 -10 -10 -5 0 -10 5 -10 10 0 6 5 10 10 10 6 0 10 -4 10 -10z
m1560 0 c0 -5 -4 -10 -10 -10 -5 0 -10 5 -10 10 0 6 5 10 10 10 6 0 10 -4 10
-10z m-2389 -16 c12 -14 11 -16 -5 -13 -11 2 -21 10 -24 17 -5 17 13 15 29 -4z
m-225 -15 c3 -6 2 -15 -2 -19 -12 -12 -38 5 -30 19 9 14 23 14 32 0z m361 -4
c3 -9 3 -19 -1 -22 -7 -7 -36 16 -36 28 0 15 30 10 37 -6z m111 -14 c3 -8 -1
-12 -9 -9 -7 2 -15 10 -17 17 -3 8 1 12 9 9 7 -2 15 -10 17 -17z m120 0 c3 -8
-1 -12 -9 -9 -7 2 -15 10 -17 17 -3 8 1 12 9 9 7 -2 15 -10 17 -17z m142 3 c0
-9 -5 -14 -12 -12 -18 6 -21 28 -4 28 9 0 16 -7 16 -16z m-1085 -3 c3 -5 1
-12 -5 -16 -5 -3 -10 1 -10 9 0 18 6 21 15 7z m185 -1 c0 -5 -7 -10 -15 -10
-8 0 -15 5 -15 10 0 6 7 10 15 10 8 0 15 -4 15 -10z m1025 -10 c0 -7 -6 -15
-12 -17 -8 -3 -13 4 -13 17 0 13 5 20 13 18 6 -3 12 -11 12 -18z m-690 -10 c0
-22 -29 -18 -33 3 -3 14 1 18 15 15 10 -2 18 -10 18 -18z m299 -16 c4 -10 1
-14 -6 -12 -15 5 -23 28 -10 28 5 0 13 -7 16 -16z m524 -3 c3 -8 -1 -12 -9 -9
-7 2 -15 10 -17 17 -3 8 1 12 9 9 7 -2 15 -10 17 -17z m-1288 -6 c0 -8 -4 -15
-10 -15 -5 0 -10 7 -10 15 0 8 5 15 10 15 6 0 10 -7 10 -15z m858 -3 c6 -18
-15 -14 -22 4 -4 10 -1 14 6 12 6 -2 14 -10 16 -16z m-630 -20 c2 -7 -3 -12
-12 -12 -9 0 -16 7 -16 16 0 17 22 14 28 -4z m171 -6 c8 -10 9 -16 1 -21 -13
-8 -30 3 -30 21 0 18 14 18 29 0z m201 4 c0 -5 -4 -10 -10 -10 -5 0 -10 5 -10
10 0 6 5 10 10 10 6 0 10 -4 10 -10z m148 -14 c3 -12 -1 -17 -10 -14 -7 3 -15
13 -16 22 -3 12 1 17 10 14 7 -3 15 -13 16 -22z m227 6 c0 -18 -20 -15 -23 4
-3 10 1 15 10 12 7 -3 13 -10 13 -16z m143 -1 c3 -8 -1 -12 -9 -9 -7 2 -15 10
-17 17 -3 8 1 12 9 9 7 -2 15 -10 17 -17z m1458 -57 c-2 -6 2 -22 11 -33 22
-33 10 -35 -20 -3 -22 23 -25 33 -20 71 l6 43 14 -33 c7 -18 12 -38 9 -45z
m-2506 41 c0 -8 -4 -15 -10 -15 -5 0 -10 7 -10 15 0 8 5 15 10 15 6 0 10 -7
10 -15z m775 4 c11 -17 -1 -21 -15 -4 -8 9 -8 15 -2 15 6 0 14 -5 17 -11z
m380 -17 c0 -18 -20 -15 -23 4 -3 10 1 15 10 12 7 -3 13 -10 13 -16z m1191
-70 c5 -36 9 -42 25 -37 23 8 24 -6 2 -48 -9 -17 -19 -43 -23 -56 -4 -18 -13
-25 -34 -26 -30 -1 -43 15 -30 36 5 9 9 8 14 -6 5 -15 10 -11 24 20 18 37 18
40 -1 116 -11 43 -18 81 -15 84 10 9 31 -37 38 -83z m-2486 68 c0 -5 -4 -10
-10 -10 -5 0 -10 5 -10 10 0 6 5 10 10 10 6 0 10 -4 10 -10z m1440 -16 c0 -14
-12 -19 -23 -8 -9 9 4 35 14 28 5 -3 9 -12 9 -20z m100 10 c0 -17 -22 -14 -28
4 -2 7 3 12 12 12 9 0 16 -7 16 -16z m-930 -15 c0 -6 -4 -7 -10 -4 -5 3 -10
11 -10 16 0 6 5 7 10 4 6 -3 10 -11 10 -16z m305 0 c11 -17 -1 -21 -15 -4 -8
9 -8 15 -2 15 6 0 14 -5 17 -11z m-505 -25 c0 -16 -26 -19 -35 -4 -3 6 -4 14
0 20 8 13 35 1 35 -16z m605 15 c12 -19 -5 -23 -22 -6 -16 16 -16 17 -1 17 9
0 20 -5 23 -11z m-975 -15 c0 -8 -5 -12 -10 -9 -6 4 -8 11 -5 16 9 14 15 11
15 -7z m195 7 c7 -12 -12 -24 -25 -16 -11 7 -4 25 10 25 5 0 11 -4 15 -9z
m532 -6 c3 -9 3 -19 -1 -22 -8 -9 -37 18 -30 28 8 14 24 11 31 -6z m378 4 c10
-15 -1 -23 -20 -15 -9 3 -13 10 -10 16 8 13 22 13 30 -1z m-578 -24 c3 -9 3
-19 -1 -22 -8 -9 -37 18 -30 28 8 14 24 11 31 -6z m341 -9 c3 -12 -1 -17 -10
-14 -7 3 -15 13 -16 22 -3 12 1 17 10 14 7 -3 15 -13 16 -22z m351 -2 c3 -16
1 -17 -13 -5 -19 16 -21 34 -3 29 6 -3 14 -13 16 -24z m-253 -11 c-7 -7 -26 7
-26 19 0 6 6 6 15 -2 9 -7 13 -15 11 -17z m372 -19 c-10 -10 -28 6 -28 24 0
15 1 15 17 -1 9 -9 14 -19 11 -23z m-1278 10 c0 -8 -4 -12 -10 -9 -5 3 -10 10
-10 16 0 5 5 9 10 9 6 0 10 -7 10 -16z m1370 6 c0 -5 -4 -10 -10 -10 -5 0 -10
5 -10 10 0 6 5 10 10 10 6 0 10 -4 10 -10z m-464 -37 c-7 -7 -26 7 -26 19 0 6
6 6 15 -2 9 -7 13 -15 11 -17z m-666 1 c0 -9 -7 -14 -17 -12 -25 5 -28 28 -4
28 12 0 21 -6 21 -16z m760 0 c0 -9 -5 -14 -12 -12 -18 6 -21 28 -4 28 9 0 16
-7 16 -16z m138 -7 c2 -12 -1 -15 -12 -11 -19 7 -22 38 -3 32 6 -3 13 -12 15
-21z m-730 -10 c2 -10 -3 -17 -11 -17 -16 0 -30 24 -19 34 10 10 27 1 30 -17z
m357 3 c0 -22 -29 -18 -33 3 -3 14 1 18 15 15 10 -2 18 -10 18 -18z m1199 5
c-4 -8 -10 -12 -15 -9 -14 8 -10 24 6 24 9 0 12 -6 9 -15z m-1884 -10 c0 -8
-4 -15 -10 -15 -5 0 -10 7 -10 15 0 8 5 15 10 15 6 0 10 -7 10 -15z m-155 -5
c3 -5 1 -10 -4 -10 -6 0 -11 5 -11 10 0 6 2 10 4 10 3 0 8 -4 11 -10z m2579 2
c3 -5 -12 -26 -34 -47 l-38 -37 21 45 c21 44 39 58 51 39z m-1607 -17 c3 -9 3
-19 -1 -22 -7 -7 -36 16 -36 28 0 15 30 10 37 -6z m343 0 c0 -8 -4 -15 -10
-15 -5 0 -10 7 -10 15 0 8 5 15 10 15 6 0 10 -7 10 -15z m220 -16 c0 -5 -7 -9
-15 -9 -9 0 -15 9 -15 21 0 18 2 19 15 9 8 -7 15 -16 15 -21z m-920 -5 c0 -16
-16 -19 -25 -4 -8 13 4 32 16 25 5 -4 9 -13 9 -21z m445 5 c0 -8 4 -20 9 -27
10 -16 1 -27 -14 -17 -6 4 -10 14 -8 23 1 10 -1 23 -6 31 -6 9 -5 12 5 9 8 -3
14 -11 14 -19z m378 6 c8 -18 -11 -31 -25 -17 -11 11 -3 32 12 32 4 0 10 -7
13 -15z m1163 -44 c0 -27 6 -56 12 -63 12 -15 6 -54 -11 -76 -7 -9 -7 -16 1
-24 15 -15 15 -28 2 -28 -5 0 -10 7 -10 15 0 18 -12 19 -28 3 -17 -17 -22 -8
-27 50 -2 29 -7 56 -10 62 -3 6 1 7 9 4 9 -3 16 -11 16 -17 0 -6 3 -7 7 -4 3
4 -2 16 -12 27 -15 16 -15 20 -3 20 8 0 22 18 31 40 8 22 17 40 19 40 2 0 3
-22 4 -49z m-266 24 c0 -8 -7 -15 -15 -15 -8 0 -15 7 -15 15 0 8 7 15 15 15 8
0 15 -7 15 -15z m-2290 -5 c0 -5 -4 -10 -10 -10 -5 0 -10 5 -10 10 0 6 5 10
10 10 6 0 10 -4 10 -10z m1127 -5 c3 -9 3 -19 -1 -22 -8 -9 -37 18 -30 28 8
14 24 11 31 -6z m1560 -7 c-3 -8 -6 -5 -6 6 -1 11 2 17 5 13 3 -3 4 -12 1 -19z
m-2479 -6 c2 -7 -3 -12 -12 -12 -9 0 -16 7 -16 16 0 17 22 14 28 -4z m162 3
c0 -8 -4 -15 -9 -15 -5 0 -14 7 -21 15 -10 13 -9 15 9 15 12 0 21 -6 21 -15z
m884 -1 c4 -10 1 -14 -6 -12 -15 5 -23 28 -10 28 5 0 13 -7 16 -16z m-526 -11
c-4 -22 -22 -20 -26 1 -2 10 3 16 13 16 10 0 15 -7 13 -17z m158 -20 c-7 -17
-8 -17 -22 1 -11 16 -11 21 -2 27 18 11 32 -6 24 -28z m-829 -9 c-9 -9 -28 6
-21 18 4 6 10 6 17 -1 6 -6 8 -13 4 -17z m469 15 c3 -6 1 -16 -5 -22 -9 -9
-14 -8 -21 3 -5 8 -10 18 -10 23 0 11 28 8 36 -4z m842 -7 c3 -9 -2 -13 -14
-10 -9 1 -19 9 -22 16 -3 9 2 13 14 10 9 -1 19 -9 22 -16z m90 -1 c3 -8 -1
-12 -9 -9 -7 2 -15 10 -17 17 -3 8 1 12 9 9 7 -2 15 -10 17 -17z m1246 -7 c3
-8 2 -12 -4 -9 -6 3 -10 10 -10 16 0 14 7 11 14 -7z m-1695 -20 c3 -16 1 -17
-13 -5 -19 16 -21 34 -3 29 6 -3 14 -13 16 -24z m99 7 c3 -8 -1 -12 -9 -9 -7
2 -15 10 -17 17 -3 8 1 12 9 9 7 -2 15 -10 17 -17z m812 4 c0 -8 -4 -15 -10
-15 -5 0 -10 7 -10 15 0 8 5 15 10 15 6 0 10 -7 10 -15z m340 -5 c0 -5 -4 -10
-9 -10 -6 0 -13 5 -16 10 -3 6 1 10 9 10 9 0 16 -4 16 -10z m-1033 -15 c3 -9
3 -19 -1 -22 -8 -9 -37 18 -30 28 8 14 24 11 31 -6z m-917 -11 c0 -17 -22 -14
-28 4 -2 7 3 12 12 12 9 0 16 -7 16 -16z m310 -5 c0 -6 -4 -7 -10 -4 -5 3 -10
11 -10 16 0 6 5 7 10 4 6 -3 10 -11 10 -16z m1557 -5 c-9 -9 -28 6 -21 18 4 6
10 6 17 -1 6 -6 8 -13 4 -17z m193 19 c-1 -11 -50 -70 -50 -60 0 16 31 67 40
67 6 0 10 -3 10 -7z m-2225 -12 c7 -12 -12 -24 -25 -16 -11 7 -4 25 10 25 5 0
11 -4 15 -9z m965 -6 c7 -8 8 -15 2 -15 -5 0 -15 7 -22 15 -7 8 -8 15 -2 15 5
0 15 -7 22 -15z m1314 9 c9 -3 13 -11 10 -16 -4 -5 3 -23 15 -39 13 -17 21
-43 21 -68 0 -22 4 -41 10 -43 5 -1 13 -29 18 -61 9 -57 9 -57 -10 -37 -10 11
-23 20 -28 20 -6 0 -10 7 -10 15 0 8 5 15 10 15 13 0 13 47 1 54 -15 9 -49 88
-56 129 -8 39 -6 41 19 31z m-2424 -14 c0 -5 -4 -10 -10 -10 -5 0 -10 5 -10
10 0 6 5 10 10 10 6 0 10 -4 10 -10z m470 0 c0 -5 -4 -10 -9 -10 -6 0 -13 5
-16 10 -3 6 1 10 9 10 9 0 16 -4 16 -10z m355 -10 c0 -22 -29 -18 -33 3 -3 14
1 18 15 15 10 -2 18 -10 18 -18z m506 7 c-1 -12 -15 -9 -19 4 -3 6 1 10 8 8 6
-3 11 -8 11 -12z m219 -13 c0 -8 -4 -14 -9 -14 -11 0 -22 26 -14 34 9 9 23 -3
23 -20z m-567 1 c7 -16 -8 -29 -23 -20 -15 9 -12 35 4 35 8 0 16 -7 19 -15z
m465 -8 c2 -10 -3 -17 -12 -17 -10 0 -16 9 -16 21 0 24 23 21 28 -4z m1027 13
c3 -5 -1 -10 -9 -10 -9 0 -16 5 -16 10 0 6 4 10 9 10 6 0 13 -4 16 -10z
m-2600 -10 c3 -5 1 -10 -4 -10 -6 0 -11 5 -11 10 0 6 2 10 4 10 3 0 8 -4 11
-10z m2355 -6 c0 -8 -4 -12 -10 -9 -5 3 -10 10 -10 16 0 5 5 9 10 9 6 0 10 -7
10 -16z m-2170 -25 c0 -5 -4 -9 -10 -9 -5 0 -10 7 -10 16 0 8 5 12 10 9 6 -3
10 -10 10 -16z m530 1 c0 -11 -4 -20 -9 -20 -11 0 -22 26 -14 34 12 12 23 5
23 -14z m504 4 c8 -22 8 -24 -8 -24 -15 0 -28 24 -19 34 11 10 21 7 27 -10z
m104 -3 c3 -8 -1 -12 -9 -9 -7 2 -15 10 -17 17 -3 8 1 12 9 9 7 -2 15 -10 17
-17z m1120 -26 c6 -26 -16 -43 -23 -19 -4 10 -11 27 -16 36 -14 28 -11 32 14
16 12 -9 24 -23 25 -33z m-993 17 c0 -18 -20 -15 -23 4 -3 10 1 15 10 12 7 -3
13 -10 13 -16z m823 0 c2 -7 -3 -12 -12 -12 -9 0 -16 7 -16 16 0 17 22 14 28
-4z m-1907 -8 c12 -14 11 -16 -5 -13 -11 2 -21 10 -24 17 -5 17 13 15 29 -4z
m174 -4 c0 -22 -29 -18 -33 3 -3 14 1 18 15 15 10 -2 18 -10 18 -18z m1511 -7
c-10 -10 -19 5 -10 18 6 11 8 11 12 0 2 -7 1 -15 -2 -18z m-1346 -24 c0 -5 -6
-9 -14 -9 -15 0 -28 24 -19 34 7 7 33 -13 33 -25z m620 16 c10 -12 10 -15 -4
-15 -9 0 -16 7 -16 15 0 8 2 15 4 15 2 0 9 -7 16 -15z m308 -9 c3 -12 -1 -17
-10 -14 -7 3 -15 13 -16 22 -3 12 1 17 10 14 7 -3 15 -13 16 -22z m702 8 c0
-8 -4 -12 -10 -9 -5 3 -10 10 -10 16 0 5 5 9 10 9 6 0 10 -7 10 -16z m-2080
-15 c0 -5 -7 -9 -15 -9 -15 0 -20 12 -9 23 8 8 24 -1 24 -14z m630 6 c0 -8 -7
-15 -15 -15 -8 0 -15 7 -15 15 0 8 7 15 15 15 8 0 15 -7 15 -15z m159 2 c12
-15 5 -27 -16 -27 -7 0 -13 9 -13 20 0 23 13 26 29 7z m499 -6 c3 -8 -1 -12
-9 -9 -7 2 -15 10 -17 17 -3 8 1 12 9 9 7 -2 15 -10 17 -17z m-1633 -1 c11 -5
16 -9 11 -9 -5 -1 3 -13 18 -27 27 -28 33 -44 16 -44 -5 0 -10 -11 -10 -25 0
-20 -6 -25 -32 -29 -18 -3 -51 -8 -73 -12 -153 -26 -315 12 -315 74 0 5 14 12
31 16 20 4 28 10 23 17 -5 9 2 10 26 5 22 -4 39 -2 49 8 9 7 30 18 46 24 36
13 182 14 210 2z m1289 -30 c-14 -14 -39 14 -29 31 5 8 12 6 23 -5 11 -11 13
-19 6 -26z m816 25 c0 -8 -7 -15 -15 -15 -8 0 -15 7 -15 15 0 8 7 15 15 15 8
0 15 -7 15 -15z m-1930 -11 c0 -8 -5 -12 -10 -9 -6 4 -8 11 -5 16 9 14 15 11
15 -7z m2780 9 c-1 -19 -19 -35 -30 -28 -10 6 -9 11 5 22 22 15 25 16 25 6z
m-220 -12 c0 -5 3 -16 6 -25 4 -10 1 -16 -9 -16 -20 0 -30 17 -23 35 6 16 26
21 26 6z m-2660 -11 c0 -5 -4 -10 -10 -10 -5 0 -10 5 -10 10 0 6 5 10 10 10 6
0 10 -4 10 -10z m1435 -1 c12 -19 -5 -23 -22 -6 -16 16 -16 17 -1 17 9 0 20
-5 23 -11z m133 -7 c2 -7 -3 -12 -12 -12 -9 0 -16 7 -16 16 0 17 22 14 28 -4z
m-1082 -19 c-7 -7 -26 7 -26 19 0 6 6 6 15 -2 9 -7 13 -15 11 -17z m834 23 c0
-2 3 -11 6 -20 4 -11 1 -16 -10 -16 -9 0 -16 2 -16 4 0 2 -3 11 -6 20 -4 11
-1 16 10 16 9 0 16 -2 16 -4z m920 -6 c0 -5 -7 -10 -15 -10 -8 0 -15 5 -15 10
0 6 7 10 15 10 8 0 15 -4 15 -10z m90 -6 c0 -8 -5 -12 -10 -9 -6 4 -8 11 -5
16 9 14 15 11 15 -7z m246 -39 c-3 -13 -3 -37 1 -55 5 -27 8 -29 15 -15 9 15
11 15 23 -2 15 -22 28 -104 19 -126 -3 -9 -13 -17 -20 -17 -15 0 -28 28 -47
100 -6 25 -16 48 -21 51 -5 4 -5 13 0 20 4 8 9 21 9 29 1 8 2 29 4 45 1 26 3
28 12 12 6 -10 8 -29 5 -42z m-2224 30 c0 -5 -5 -11 -11 -13 -6 -2 -11 4 -11
13 0 9 5 15 11 13 6 -2 11 -8 11 -13z m296 -9 c3 -12 -1 -17 -10 -14 -7 3 -15
13 -16 22 -3 12 1 17 10 14 7 -3 15 -13 16 -22z m2152 15 c0 -12 -20 -25 -27
-18 -7 7 6 27 18 27 5 0 9 -4 9 -9z m-2640 -10 c0 -6 -4 -13 -10 -16 -5 -3
-10 1 -10 9 0 9 5 16 10 16 6 0 10 -4 10 -9z m2278 -3 c7 -7 12 -15 12 -19 0
-12 -53 6 -58 19 -5 16 30 16 46 0z m590 -5 c-5 -25 -28 -28 -28 -4 0 12 6 21
16 21 9 0 14 -7 12 -17z m-2968 -3 c0 -5 -4 -10 -10 -10 -5 0 -10 5 -10 10 0
6 5 10 10 10 6 0 10 -4 10 -10z m1380 -21 c0 -5 -7 -6 -15 -3 -8 4 -15 13 -15
21 0 13 3 13 15 3 8 -7 15 -16 15 -21z m210 0 c0 -5 -7 -6 -15 -3 -8 4 -15 13
-15 21 0 13 3 13 15 3 8 -7 15 -16 15 -21z m-655 1 c0 -22 -29 -18 -33 3 -3
14 1 18 15 15 10 -2 18 -10 18 -18z m725 4 c0 -17 -22 -14 -28 4 -2 7 3 12 12
12 9 0 16 -7 16 -16z m-944 -5 c10 -17 -13 -36 -27 -22 -12 12 -4 33 11 33 5
0 12 -5 16 -11z m379 1 c11 -17 -5 -32 -21 -19 -8 6 -14 15 -14 20 0 12 27 11
35 -1z m143 -24 c3 -12 -1 -17 -10 -14 -7 3 -15 13 -16 22 -3 12 1 17 10 14 7
-3 15 -13 16 -22z m242 -3 c0 -20 -24 -11 -28 10 -2 12 1 15 12 11 9 -3 16
-13 16 -21z m494 11 c4 -9 4 -19 2 -21 -8 -8 -26 8 -26 23 0 19 16 18 24 -2z
m61 6 c3 -5 2 -10 -4 -10 -5 0 -13 5 -16 10 -3 6 -2 10 4 10 5 0 13 -4 16 -10z
m220 -8 c0 -18 -20 -15 -23 4 -3 10 1 15 10 12 7 -3 13 -10 13 -16z m445 -28
c0 -21 8 -42 21 -55 12 -12 18 -27 14 -38 -3 -10 2 -35 10 -57 l16 -39 -26 30
c-15 18 -30 54 -36 89 l-12 58 -19 -23 c-10 -13 -16 -17 -13 -8 4 10 -3 20
-20 29 -14 7 -25 19 -25 27 0 14 12 17 24 6 14 -15 38 -11 43 8 8 29 23 12 23
-27z m-2530 21 c0 -8 -4 -15 -10 -15 -5 0 -10 7 -10 15 0 8 5 15 10 15 6 0 10
-7 10 -15z m220 0 c0 -8 -4 -15 -9 -15 -13 0 -22 16 -14 24 11 11 23 6 23 -9z
m1208 -14 c3 -8 -1 -12 -9 -9 -7 2 -15 10 -17 17 -3 8 1 12 9 9 7 -2 15 -10
17 -17z m522 9 c0 -5 -5 -10 -11 -10 -5 0 -7 5 -4 10 3 6 8 10 11 10 2 0 4 -4
4 -10z m650 0 c0 -5 -4 -10 -10 -10 -5 0 -10 5 -10 10 0 6 5 10 10 10 6 0 10
-4 10 -10z m-1412 -23 c2 -10 -3 -17 -12 -17 -9 0 -16 2 -16 4 0 2 -3 12 -6
21 -5 13 -2 16 12 13 10 -2 20 -11 22 -21z m300 4 c3 -8 -1 -12 -9 -9 -7 2
-15 10 -17 17 -3 8 1 12 9 9 7 -2 15 -10 17 -17z m673 6 c-1 -12 -15 -9 -19 4
-3 6 1 10 8 8 6 -3 11 -8 11 -12z m109 -3 c0 -17 -22 -14 -28 4 -2 7 3 12 12
12 9 0 16 -7 16 -16z m-1755 -4 c11 -17 -5 -32 -21 -19 -8 6 -14 15 -14 20 0
12 27 11 35 -1z m2330 -10 c0 -22 -29 -18 -33 3 -3 14 1 18 15 15 10 -2 18
-10 18 -18z m-1065 -6 c0 -17 -22 -14 -28 4 -2 7 3 12 12 12 9 0 16 -7 16 -16z
m-1710 -9 c0 -8 -4 -15 -10 -15 -5 0 -10 7 -10 15 0 8 5 15 10 15 6 0 10 -7
10 -15z m1229 -11 c3 -16 1 -17 -13 -5 -19 16 -21 34 -3 29 6 -3 14 -13 16
-24z m-604 7 c7 -12 -12 -24 -25 -16 -11 7 -4 25 10 25 5 0 11 -4 15 -9z m161
-2 c10 -17 -13 -36 -27 -22 -12 12 -4 33 11 33 5 0 12 -5 16 -11z m-536 -25
c0 -16 -16 -19 -25 -4 -8 13 4 32 16 25 5 -4 9 -13 9 -21z m698 3 c2 -10 -3
-17 -11 -17 -16 0 -30 24 -19 34 10 10 27 1 30 -17z m390 -1 c3 -12 -1 -17
-10 -14 -7 3 -15 13 -16 22 -3 12 1 17 10 14 7 -3 15 -13 16 -22z m640 7 c-4
-22 -22 -20 -26 1 -2 10 3 16 13 16 10 0 15 -7 13 -17z m-1458 -14 c0 -5 -4
-9 -10 -9 -5 0 -10 7 -10 16 0 8 5 12 10 9 6 -3 10 -10 10 -16z m1558 1 c3 -9
-2 -11 -16 -8 -12 3 -23 1 -25 -6 -2 -6 -8 -8 -12 -3 -10 8 25 38 39 34 6 -2
12 -9 14 -17z m109 3 c2 -6 -4 -13 -13 -17 -21 -8 -26 -3 -18 18 7 18 25 17
31 -1z m193 3 c0 -8 -5 -18 -11 -22 -14 -8 -33 11 -25 25 10 16 36 13 36 -3z
m-1296 -12 c4 -9 4 -19 1 -22 -6 -6 -35 18 -35 29 0 16 28 10 34 -7z m-1224
-4 c0 -5 -4 -10 -10 -10 -5 0 -10 5 -10 10 0 6 5 10 10 10 6 0 10 -4 10 -10z
m225 -20 c-5 -8 -11 -8 -17 -2 -6 6 -7 16 -3 22 5 8 11 8 17 2 6 -6 7 -16 3
-22z m1423 6 c3 -12 -1 -17 -10 -14 -7 3 -15 13 -16 22 -3 12 1 17 10 14 7 -3
15 -13 16 -22z m-300 -9 c2 -10 -3 -17 -11 -17 -16 0 -30 24 -19 34 10 10 27
1 30 -17z m212 2 c0 -6 -4 -7 -10 -4 -5 3 -10 11 -10 16 0 6 5 7 10 4 6 -3 10
-11 10 -16z m1350 5 c0 -9 -5 -14 -12 -12 -18 6 -21 28 -4 28 9 0 16 -7 16
-16z m-2244 -29 c-5 -14 -9 -15 -21 -5 -12 10 -13 16 -4 27 15 18 34 1 25 -22z
m801 10 c3 -9 3 -19 -1 -22 -8 -9 -37 18 -30 28 8 14 24 11 31 -6z m443 -5 c0
-11 -4 -20 -9 -20 -11 0 -22 26 -14 34 12 12 23 5 23 -14z m170 -14 c-13 -13
-35 7 -25 24 5 8 11 8 21 -1 10 -8 12 -15 4 -23z m-2165 14 c3 -5 1 -10 -4
-10 -6 0 -11 5 -11 10 0 6 2 10 4 10 3 0 8 -4 11 -10z m155 -5 c0 -8 -4 -15
-9 -15 -13 0 -22 16 -14 24 11 11 23 6 23 -9z m2745 6 c7 -12 -12 -24 -25 -16
-11 7 -4 25 10 25 5 0 11 -4 15 -9z m-1960 -19 c0 -18 -20 -15 -23 4 -3 10 1
15 10 12 7 -3 13 -10 13 -16z m1521 -18 c-5 -13 -10 -14 -18 -6 -6 6 -8 18 -4
28 5 13 10 14 18 6 6 -6 8 -18 4 -28z m168 20 c8 -20 -1 -34 -20 -34 -15 0
-17 9 -8 34 8 20 20 20 28 0z m-2054 -9 c0 -8 -7 -15 -15 -15 -8 0 -15 7 -15
15 0 8 7 15 15 15 8 0 15 -7 15 -15z m530 0 c0 -8 -6 -15 -14 -15 -17 0 -28
14 -19 24 12 12 33 6 33 -9z m548 -9 c3 -12 -1 -17 -10 -14 -7 3 -15 13 -16
22 -3 12 1 17 10 14 7 -3 15 -13 16 -22z m62 -7 c0 -12 -27 -11 -35 1 -11 17
5 32 21 19 8 -6 14 -15 14 -20z m638 14 c-4 -22 -22 -20 -26 1 -2 10 3 16 13
16 10 0 15 -7 13 -17z m-1950 -4 c-2 -6 -8 -10 -13 -10 -5 0 -11 4 -13 10 -2
6 4 11 13 11 9 0 15 -5 13 -11z m860 -6 c-4 -22 -22 -20 -26 1 -2 10 3 16 13
16 10 0 15 -7 13 -17z m1404 -15 c-15 -15 -26 -4 -18 18 5 13 9 15 18 6 9 -9
9 -15 0 -24z m-1272 7 c16 -19 3 -40 -16 -24 -15 13 -19 39 -5 39 5 0 14 -7
21 -15z m-670 -5 c0 -5 -4 -10 -10 -10 -5 0 -10 5 -10 10 0 6 5 10 10 10 6 0
10 -4 10 -10z m1222 -5 c0 -5 -5 -11 -11 -13 -6 -2 -11 4 -11 13 0 9 5 15 11
13 6 -2 11 -8 11 -13z m-1702 -5 c0 -5 -7 -10 -15 -10 -8 0 -15 5 -15 10 0 6
7 10 15 10 8 0 15 -4 15 -10z m1278 -14 c3 -12 -1 -17 -10 -14 -7 3 -15 13
-16 22 -3 12 1 17 10 14 7 -3 15 -13 16 -22z m1472 14 c0 -5 -7 -10 -15 -10
-8 0 -15 5 -15 10 0 6 7 10 15 10 8 0 15 -4 15 -10z m-2895 -10 c3 -5 1 -10
-4 -10 -6 0 -11 5 -11 10 0 6 2 10 4 10 3 0 8 -4 11 -10z m-108 -22 c-3 -8 -6
-5 -6 6 -1 11 2 17 5 13 3 -3 4 -12 1 -19z m1650 7 c3 -9 3 -19 -1 -22 -7 -7
-36 16 -36 28 0 15 30 10 37 -6z m-1137 -21 c0 -16 -16 -19 -25 -4 -8 13 4 32
16 25 5 -4 9 -13 9 -21z m296 -25 c0 -45 -16 -47 -28 -4 -4 18 -3 34 4 42 16
19 23 7 24 -38z m1244 41 c0 -5 -4 -10 -10 -10 -5 0 -10 5 -10 10 0 6 5 10 10
10 6 0 10 -4 10 -10z m70 0 c0 -5 -7 -10 -16 -10 -8 0 -12 5 -9 10 3 6 10 10
16 10 5 0 9 -4 9 -10z m188 -13 c2 -10 -3 -17 -12 -17 -10 0 -16 9 -16 21 0
24 23 21 28 -4z m209 7 c1 -5 -2 -16 -7 -24 -12 -20 -33 0 -24 24 7 17 25 17
31 0z m77 -17 c-7 -20 -34 -23 -34 -4 0 19 22 39 32 29 5 -5 6 -16 2 -25z
m-1556 0 c2 -10 -3 -17 -12 -17 -10 0 -16 9 -16 21 0 24 23 21 28 -4z m1379 3
c-3 -11 -1 -23 4 -26 14 -8 11 -46 -3 -41 -7 2 -13 13 -13 25 0 11 -4 24 -8
28 -13 13 -7 34 9 34 11 0 15 -6 11 -20z m236 -5 c-5 -16 -33 -21 -33 -7 0 13
22 32 31 26 5 -2 6 -11 2 -19z m-2493 5 c0 -5 -4 -10 -10 -10 -5 0 -10 5 -10
10 0 6 5 10 10 10 6 0 10 -4 10 -10z m510 -3 c0 -8 -3 -17 -7 -20 -9 -9 -34
13 -27 24 8 14 34 11 34 -4z m200 3 c0 -5 -2 -10 -4 -10 -3 0 -8 5 -11 10 -3
6 -1 10 4 10 6 0 11 -4 11 -10z m329 -4 c8 -10 9 -16 1 -21 -13 -8 -30 3 -30
21 0 18 14 18 29 0z m-859 -6 c0 -5 -4 -10 -9 -10 -6 0 -13 5 -16 10 -3 6 1
10 9 10 9 0 16 -4 16 -10z m1018 -13 c2 -10 -3 -17 -12 -17 -10 0 -16 9 -16
21 0 24 23 21 28 -4z m361 -3 c3 -16 1 -17 -13 -5 -19 16 -21 34 -3 29 6 -3
14 -13 16 -24z m70 13 c6 -8 8 -17 4 -20 -7 -8 -33 11 -33 24 0 13 16 11 29
-4z m931 -7 c0 -21 -15 -27 -25 -10 -7 12 2 30 16 30 5 0 9 -9 9 -20z m150 10
c0 -5 -4 -10 -10 -10 -5 0 -10 5 -10 10 0 6 5 10 10 10 6 0 10 -4 10 -10z
m268 -13 c2 -10 -3 -17 -12 -17 -18 0 -29 16 -21 31 9 14 29 6 33 -14z m-72 2
c10 -17 -13 -36 -27 -22 -12 12 -4 33 11 33 5 0 12 -5 16 -11z m-1576 -20 c0
-24 -23 -21 -28 4 -2 10 3 17 12 17 10 0 16 -9 16 -21z m538 3 c2 -7 -3 -12
-12 -12 -9 0 -16 7 -16 16 0 17 22 14 28 -4z m187 -2 c0 -22 -29 -18 -33 3 -3
14 1 18 15 15 10 -2 18 -10 18 -18z m115 -1 c0 -24 -23 -21 -28 4 -2 10 3 17
12 17 10 0 16 -9 16 -21z m-2100 -10 c0 -5 -4 -9 -10 -9 -5 0 -10 7 -10 16 0
8 5 12 10 9 6 -3 10 -10 10 -16z m1389 7 c8 -10 9 -16 1 -21 -13 -8 -30 3 -30
21 0 18 14 18 29 0z m904 -6 c6 -23 -10 -37 -25 -22 -12 12 -4 42 11 42 5 0
11 -9 14 -20z m67 -21 c0 -20 -15 -26 -25 -9 -9 15 3 43 15 35 5 -3 10 -15 10
-26z m-1980 0 c0 -24 -23 -21 -28 4 -2 10 3 17 12 17 10 0 16 -9 16 -21z
m1120 -21 c0 -13 -17 -9 -30 7 -6 8 -8 20 -4 26 5 9 11 7 21 -6 7 -11 13 -22
13 -27z m48 8 c3 -12 -1 -17 -10 -14 -7 3 -15 13 -16 22 -3 12 1 17 10 14 7
-3 15 -13 16 -22z m862 -2 c0 -8 -7 -14 -15 -14 -15 0 -21 21 -9 33 10 9 24
-2 24 -19z m595 16 c3 -5 -1 -10 -9 -10 -9 0 -16 5 -16 10 0 6 4 10 9 10 6 0
13 -4 16 -10z m-2795 -10 c0 -5 -4 -10 -9 -10 -6 0 -13 5 -16 10 -3 6 1 10 9
10 9 0 16 -4 16 -10z m525 -8 c0 -18 -20 -15 -23 4 -3 10 1 15 10 12 7 -3 13
-10 13 -16z m-660 -1 c3 -5 1 -12 -4 -15 -5 -3 -11 1 -15 9 -6 16 9 21 19 6z
m444 -5 c8 -10 9 -16 1 -21 -13 -8 -30 3 -30 21 0 18 14 18 29 0z m379 -3 c-4
-22 -22 -20 -26 1 -2 10 3 16 13 16 10 0 15 -7 13 -17z m845 2 c8 -19 -13 -31
-23 -14 -9 14 -4 29 10 29 4 0 10 -7 13 -15z m1165 -9 c3 -12 -1 -17 -10 -14
-7 3 -15 13 -16 22 -3 12 1 17 10 14 7 -3 15 -13 16 -22z m-1842 3 c7 -12 -15
-31 -28 -23 -4 3 -8 12 -8 20 0 17 26 19 36 3z m-1160 -26 c-10 -10 -19 5 -10
18 6 11 8 11 12 0 2 -7 1 -15 -2 -18z m1314 7 c0 -11 -4 -20 -9 -20 -13 0 -32
26 -24 33 13 14 33 6 33 -13z m826 9 c8 -14 -11 -33 -25 -25 -11 7 -4 36 9 36
5 0 12 -5 16 -11z m110 -25 c-5 -13 -10 -14 -18 -6 -6 6 -8 18 -4 28 5 13 10
14 18 6 6 -6 8 -18 4 -28z m651 21 c3 -9 3 -19 -1 -22 -7 -7 -36 16 -36 28 0
15 30 10 37 -6z m-1459 -18 c2 -10 -3 -17 -12 -17 -18 0 -29 16 -21 31 9 14
29 6 33 -14z m582 14 c0 -14 -18 -23 -30 -16 -6 4 -8 11 -5 16 8 12 35 12 35
0z m330 -11 c0 -11 -7 -20 -15 -20 -8 0 -15 9 -15 20 0 11 7 20 15 20 8 0 15
-9 15 -20z m764 5 c3 -9 0 -15 -9 -15 -16 0 -27 14 -18 24 10 10 21 7 27 -9z
m-694 -14 c0 -23 -16 -36 -25 -21 -9 14 1 40 15 40 5 0 10 -9 10 -19z m-2160
-7 c0 -14 -3 -14 -15 -4 -8 7 -15 14 -15 16 0 2 7 4 15 4 8 0 15 -7 15 -16z
m1293 1 c7 -16 -8 -29 -23 -20 -15 9 -12 35 4 35 8 0 16 -7 19 -15z m-1723 -5
c0 -5 -5 -10 -11 -10 -5 0 -7 5 -4 10 3 6 8 10 11 10 2 0 4 -4 4 -10z m735 0
c11 -17 -5 -32 -21 -19 -8 6 -14 15 -14 20 0 12 27 11 35 -1z m1165 -5 c16
-19 3 -40 -16 -24 -15 13 -19 39 -5 39 5 0 14 -7 21 -15z m740 -6 c0 -24 -23
-21 -28 4 -2 10 3 17 12 17 10 0 16 -9 16 -21z m-2410 2 c0 -6 -4 -13 -10 -16
-5 -3 -10 1 -10 9 0 9 5 16 10 16 6 0 10 -4 10 -9z m2950 -1 c0 -5 -7 -10 -15
-10 -8 0 -15 5 -15 10 0 6 7 10 15 10 8 0 15 -4 15 -10z m-2090 -26 c0 -8 -7
-14 -15 -14 -15 0 -21 21 -9 33 10 9 24 -2 24 -19z m725 16 c3 -5 3 -15 -1
-21 -6 -11 -23 6 -24 24 0 10 18 9 25 -3z m-565 -34 c-13 -13 -35 7 -25 24 5
8 11 8 21 -1 10 -8 12 -15 4 -23z m836 23 c10 -17 -13 -36 -27 -22 -12 12 -4
33 11 33 5 0 12 -5 16 -11z m664 -4 c0 -8 -4 -15 -10 -15 -5 0 -10 7 -10 15 0
8 5 15 10 15 6 0 10 -7 10 -15z m-2220 -16 c0 -5 -4 -9 -10 -9 -5 0 -10 7 -10
16 0 8 5 12 10 9 6 -3 10 -10 10 -16z m320 17 c0 -2 3 -11 6 -20 4 -11 1 -16
-10 -16 -9 0 -16 2 -16 4 0 2 -3 11 -6 20 -4 11 -1 16 10 16 9 0 16 -2 16 -4z
m560 -30 c-13 -13 -35 7 -25 24 5 8 11 8 21 -1 10 -8 12 -15 4 -23z m844 19
c3 -9 -1 -18 -10 -22 -19 -7 -28 2 -21 22 8 19 23 19 31 0z m120 -16 c-8 -14
-34 -11 -34 4 0 8 3 17 7 20 9 9 34 -13 27 -24z m106 0 c0 -20 -15 -26 -25 -9
-9 15 3 43 15 35 5 -3 10 -15 10 -26z m465 21 c3 -5 1 -10 -4 -10 -6 0 -11 5
-11 10 0 6 2 10 4 10 3 0 8 -4 11 -10z m343 -13 c2 -10 -3 -17 -12 -17 -18 0
-29 16 -21 31 9 14 29 6 33 -14z m-2988 -2 c0 -8 -4 -15 -10 -15 -5 0 -10 7
-10 15 0 8 5 15 10 15 6 0 10 -7 10 -15z m1268 -8 c2 -10 -3 -17 -12 -17 -18
0 -29 16 -21 31 9 14 29 6 33 -14z m118 -26 c-10 -16 -23 -14 -30 5 -9 25 4
38 21 21 9 -8 12 -20 9 -26z m874 19 c0 -11 -7 -20 -15 -20 -8 0 -15 9 -15 20
0 11 7 20 15 20 8 0 15 -9 15 -20z m500 10 c0 -5 -7 -10 -15 -10 -8 0 -15 5
-15 10 0 6 7 10 15 10 8 0 15 -4 15 -10z m-450 -20 c0 -11 -7 -20 -15 -20 -15
0 -21 21 -8 33 12 13 23 7 23 -13z m-2600 0 c0 -5 -4 -10 -10 -10 -5 0 -10 5
-10 10 0 6 5 10 10 10 6 0 10 -4 10 -10z m1858 -14 c3 -12 -1 -17 -10 -14 -7
3 -15 13 -16 22 -3 12 1 17 10 14 7 -3 15 -13 16 -22z m-1058 -2 c0 -9 -7 -14
-17 -12 -25 5 -28 28 -4 28 12 0 21 -6 21 -16z m130 1 c0 -8 -4 -15 -10 -15
-5 0 -9 -10 -7 -21 3 -27 -18 -36 -27 -12 -4 11 -1 22 8 29 9 6 16 16 16 23 0
6 5 11 10 11 6 0 10 -7 10 -15z m854 -1 c4 -9 4 -19 2 -22 -10 -9 -36 8 -36
23 0 20 26 19 34 -1z m866 1 c0 -8 -4 -15 -10 -15 -5 0 -10 7 -10 15 0 8 5 15
10 15 6 0 10 -7 10 -15z m510 2 c0 -8 -3 -17 -7 -20 -9 -9 -34 13 -27 24 8 14
34 11 34 -4z m-2782 -9 c-6 -18 -28 -21 -28 -4 0 9 7 16 16 16 9 0 14 -5 12
-12z m2303 -11 c-13 -13 -26 -3 -16 12 3 6 11 8 17 5 6 -4 6 -10 -1 -17z m679
-8 c0 -22 -13 -25 -29 -6 -8 10 -7 17 1 25 15 15 28 6 28 -19z m-2730 5 c0
-17 -22 -14 -28 4 -2 7 3 12 12 12 9 0 16 -7 16 -16z m370 -10 c0 -16 -16 -19
-25 -4 -8 13 4 32 16 25 5 -4 9 -13 9 -21z m1005 15 c10 -15 -1 -23 -20 -15
-9 3 -13 10 -10 16 8 13 22 13 30 -1z m-1828 -21 c-3 -8 -6 -5 -6 6 -1 11 2
17 5 13 3 -3 4 -12 1 -19z m988 12 c11 -17 -5 -32 -21 -19 -7 6 -11 15 -8 20
7 12 21 11 29 -1z m1265 -15 c0 -19 -20 -29 -32 -17 -8 8 -7 16 2 26 14 17 30
12 30 -9z m975 15 c3 -5 -3 -10 -14 -10 -12 0 -21 5 -21 10 0 6 6 10 14 10 8
0 18 -4 21 -10z m-2077 -17 c-4 -22 -22 -20 -26 1 -2 10 3 16 13 16 10 0 15
-7 13 -17z m852 3 c0 -21 -21 -31 -30 -15 -5 7 -6 17 -4 21 9 14 34 9 34 -6z
m126 3 c10 -17 -13 -36 -27 -22 -12 12 -4 33 11 33 5 0 12 -5 16 -11z m212
-17 c2 -15 -2 -22 -12 -22 -11 0 -16 9 -16 26 0 31 23 28 28 -4z m-1028 4 c0
-21 -21 -31 -30 -15 -5 7 -6 17 -4 21 9 14 34 9 34 -6z m1765 3 c4 -6 5 -12 2
-15 -7 -7 -37 7 -37 17 0 13 27 11 35 -2z m-3240 -9 c3 -5 1 -10 -4 -10 -6 0
-11 5 -11 10 0 6 2 10 4 10 3 0 8 -4 11 -10z m455 -5 c0 -8 -7 -15 -15 -15 -8
0 -15 7 -15 15 0 8 7 15 15 15 8 0 15 -7 15 -15z m1160 -5 c0 -11 -7 -20 -15
-20 -8 0 -15 9 -15 20 0 11 7 20 15 20 8 0 15 -9 15 -20z m940 0 c0 -21 -15
-27 -25 -10 -7 12 2 30 16 30 5 0 9 -9 9 -20z m-5024 -5 c-11 -8 -27 -15 -35
-15 -13 1 -12 4 3 15 11 8 27 15 35 15 13 -1 12 -4 -3 -15z m2694 -7 c0 -16
-3 -19 -11 -11 -6 6 -8 16 -5 22 11 17 16 13 16 -11z m1504 5 c4 -9 3 -20 -2
-25 -11 -11 -36 17 -27 32 9 15 22 12 29 -7z m876 -3 c0 -19 -11 -26 -23 -14
-8 8 3 34 14 34 5 0 9 -9 9 -20z m-1742 -8 c6 -18 -15 -14 -22 4 -4 10 -1 14
6 12 6 -2 14 -10 16 -16z m1052 8 c0 -5 -4 -10 -10 -10 -5 0 -10 5 -10 10 0 6
5 10 10 10 6 0 10 -4 10 -10z m1090 0 c0 -5 -4 -10 -10 -10 -5 0 -10 5 -10 10
0 6 5 10 10 10 6 0 10 -4 10 -10z m-2290 -15 c0 -8 -7 -15 -15 -15 -16 0 -20
12 -8 23 11 12 23 8 23 -8z m1136 4 c3 -6 1 -16 -5 -22 -9 -9 -14 -8 -21 3 -5
8 -10 18 -10 23 0 11 28 8 36 -4z m781 -11 c-3 -8 -6 -5 -6 6 -1 11 2 17 5 13
3 -3 4 -12 1 -19z m-2522 3 c3 -5 1 -12 -5 -16 -5 -3 -10 1 -10 9 0 18 6 21
15 7z m1865 -17 c0 -16 -26 -19 -35 -4 -3 6 -4 14 0 20 8 13 35 1 35 -16z
m1150 16 c0 -5 -4 -10 -10 -10 -5 0 -10 5 -10 10 0 6 5 10 10 10 6 0 10 -4 10
-10z m345 0 c3 -5 -1 -10 -9 -10 -9 0 -16 5 -16 10 0 6 4 10 9 10 6 0 13 -4
16 -10z m-1368 -15 c7 -20 -2 -29 -21 -22 -9 4 -13 13 -10 22 8 19 23 19 31 0z
m603 11 c0 -3 -4 -8 -10 -11 -5 -3 -10 -1 -10 4 0 6 5 11 10 11 6 0 10 -2 10
-4z m547 -22 c-3 -4 -14 -3 -24 0 -15 6 -15 8 -3 16 16 10 39 -4 27 -16z
m-2951 -11 c-10 -10 -19 5 -10 18 6 11 8 11 12 0 2 -7 1 -15 -2 -18z m249 18
c7 -12 -12 -24 -25 -16 -11 7 -4 25 10 25 5 0 11 -4 15 -9z m525 0 c0 -14 -18
-23 -30 -16 -6 4 -8 11 -5 16 8 12 35 12 35 0z m160 -17 c0 -8 -7 -14 -15 -14
-15 0 -21 21 -9 33 10 9 24 -2 24 -19z m990 7 c0 -23 -16 -36 -25 -21 -9 14 1
40 15 40 5 0 10 -9 10 -19z m116 -16 c-5 -14 -9 -15 -21 -5 -12 10 -13 16 -4
27 15 18 34 1 25 -22z m-942 -6 c-8 -14 -34 -11 -34 4 0 8 3 17 7 20 9 9 34
-13 27 -24z m1060 23 c2 -4 1 -14 -4 -22 -7 -11 -12 -12 -21 -3 -6 6 -8 16 -5
22 8 13 23 14 30 3z m-918 -17 c3 -8 3 -19 -1 -25 -10 -16 -35 7 -28 26 7 18
22 18 29 -1z m992 -2 c-5 -25 -28 -28 -28 -4 0 12 6 21 16 21 9 0 14 -7 12
-17z m827 -3 c0 -7 -6 -15 -12 -17 -8 -3 -13 4 -13 17 0 13 5 20 13 18 6 -3
12 -11 12 -18z m-2450 0 c3 -5 1 -10 -4 -10 -6 0 -11 5 -11 10 0 6 2 10 4 10
3 0 8 -4 11 -10z m765 -15 c0 -8 -5 -17 -11 -21 -16 -9 -30 18 -17 33 12 15
28 8 28 -12z m900 11 c0 -8 -4 -17 -9 -21 -12 -7 -24 12 -16 25 9 15 25 12 25
-4z m32 -28 c-9 -9 -12 -7 -12 12 0 19 3 21 12 12 9 -9 9 -15 0 -24z m926 20
c18 -18 15 -28 -8 -28 -13 0 -20 7 -20 20 0 23 10 26 28 8z m-3143 -28 c-5 -8
-11 -8 -17 -2 -6 6 -7 16 -3 22 5 8 11 8 17 2 6 -6 7 -16 3 -22z m430 20 c3
-6 -1 -13 -10 -16 -19 -8 -30 0 -20 15 8 14 22 14 30 1z m970 -13 c0 -26 -20
-25 -23 2 -3 16 1 22 10 19 7 -3 13 -12 13 -21z m1677 1 c-6 -6 -16 -7 -22 -3
-9 6 -9 9 1 16 17 10 34 0 21 -13z m-1554 -11 c2 -10 -3 -17 -12 -17 -10 0
-16 9 -16 21 0 24 23 21 28 -4z m742 7 c0 -8 -5 -12 -10 -9 -6 4 -8 11 -5 16
9 14 15 11 15 -7z m355 7 c3 -5 1 -12 -5 -16 -5 -3 -10 1 -10 9 0 18 6 21 15
7z m-2357 -13 c-3 -7 -11 -13 -18 -13 -7 0 -15 6 -17 13 -3 7 4 12 17 12 13 0
20 -5 18 -12z m-453 -8 c3 -5 1 -10 -4 -10 -6 0 -11 5 -11 10 0 6 2 10 4 10 3
0 8 -4 11 -10z m1839 2 c8 -13 -11 -35 -23 -28 -16 10 -14 36 3 36 8 0 17 -4
20 -8z m-1054 -10 c0 -13 -12 -22 -22 -16 -10 6 -1 24 13 24 5 0 9 -4 9 -8z
m160 -12 c0 -11 -4 -20 -9 -20 -14 0 -23 18 -16 30 10 17 25 11 25 -10z m1014
12 c2 -4 1 -14 -4 -22 -7 -11 -12 -12 -21 -3 -6 6 -8 16 -5 22 8 13 23 14 30
3z m116 -12 c0 -11 -7 -20 -15 -20 -15 0 -21 21 -8 33 12 13 23 7 23 -13z
m116 9 c8 -14 -11 -33 -25 -25 -11 7 -4 36 9 36 5 0 12 -5 16 -11z m724 1 c0
-5 -4 -10 -10 -10 -5 0 -10 5 -10 10 0 6 5 10 10 10 6 0 10 -4 10 -10z m-1806
-9 c3 -5 -1 -14 -8 -20 -16 -13 -32 2 -21 19 8 12 22 13 29 1z m1184 -8 c-5
-25 -28 -28 -28 -4 0 12 6 21 16 21 9 0 14 -7 12 -17z m-2010 -5 c-6 -18 -28
-21 -28 -4 0 9 7 16 16 16 9 0 14 -5 12 -12z m980 -5 c-4 -22 -22 -20 -26 1
-2 10 3 16 13 16 10 0 15 -7 13 -17z m1082 -3 c0 -11 -4 -20 -10 -20 -5 0 -10
9 -10 20 0 11 5 20 10 20 6 0 10 -9 10 -20z m690 12 c0 -14 -11 -21 -26 -15
-8 3 -11 9 -8 14 7 11 34 12 34 1z m304 -8 c4 -9 4 -19 2 -22 -10 -9 -36 8
-36 23 0 20 26 19 34 -1z m-3284 -4 c0 -5 -4 -10 -10 -10 -5 0 -10 5 -10 10 0
6 5 10 10 10 6 0 10 -4 10 -10z m1346 -1 c3 -6 1 -16 -5 -22 -9 -9 -14 -8 -21
3 -9 15 -4 30 10 30 5 0 12 -5 16 -11z m984 -11 c0 -16 -3 -19 -11 -11 -6 6
-8 16 -5 22 11 17 16 13 16 -11z m-1673 -3 c7 -20 -2 -29 -21 -22 -9 4 -13 13
-10 22 8 19 23 19 31 0z m813 -4 c0 -23 -16 -36 -25 -21 -9 14 1 40 15 40 5 0
10 -9 10 -19z m1615 -11 c-5 -8 -11 -8 -17 -2 -6 6 -7 16 -3 22 5 8 11 8 17 2
6 -6 7 -16 3 -22z m-4072 13 c-7 -2 -19 -2 -25 0 -7 3 -2 5 12 5 14 0 19 -2
13 -5z m1483 -4 c10 -17 -13 -36 -27 -22 -12 12 -4 33 11 33 5 0 12 -5 16 -11z
m1874 -5 c0 -8 -4 -12 -10 -9 -5 3 -10 10 -10 16 0 5 5 9 10 9 6 0 10 -7 10
-16z m825 6 c-3 -5 -10 -10 -16 -10 -5 0 -9 5 -9 10 0 6 7 10 16 10 8 0 12 -4
9 -10z m-3310 -9 c3 -5 1 -12 -5 -16 -5 -3 -10 1 -10 9 0 18 6 21 15 7z m185
-12 c0 -5 -4 -9 -10 -9 -5 0 -10 7 -10 16 0 8 5 12 10 9 6 -3 10 -10 10 -16z
m1524 13 c2 -4 1 -14 -4 -22 -7 -11 -12 -12 -21 -3 -6 6 -8 16 -5 22 8 13 23
14 30 3z m122 -13 c10 -17 -13 -36 -27 -22 -12 12 -4 33 11 33 5 0 12 -5 16
-11z m-1396 -14 c0 -8 -4 -15 -9 -15 -13 0 -22 16 -14 24 11 11 23 6 23 -9z
m1516 4 c3 -6 1 -16 -5 -22 -9 -9 -14 -8 -21 3 -9 15 -4 30 10 30 5 0 12 -5
16 -11z m-1086 -9 c0 -5 -2 -10 -4 -10 -3 0 -8 5 -11 10 -3 6 -1 10 4 10 6 0
11 -4 11 -10z m54 1 c3 -5 0 -14 -8 -20 -10 -9 -15 -8 -19 3 -9 22 15 37 27
17z m1144 -8 c-5 -25 -28 -28 -28 -4 0 12 6 21 16 21 9 0 14 -7 12 -17z m112
3 c0 -8 -4 -17 -9 -21 -12 -7 -24 12 -16 25 9 15 25 12 25 -4z m124 6 c2 -4 1
-14 -4 -22 -7 -11 -12 -12 -21 -3 -6 6 -8 16 -5 22 8 13 23 14 30 3z m-2024
-23 c0 -5 -7 -9 -15 -9 -15 0 -20 12 -9 23 8 8 24 -1 24 -14z m810 12 c0 -14
-18 -23 -30 -16 -6 4 -8 11 -5 16 8 12 35 12 35 0z m156 -2 c8 -14 -11 -33
-25 -25 -11 7 -4 36 9 36 5 0 12 -5 16 -11z m1134 -9 c0 -11 -4 -20 -10 -20
-5 0 -10 9 -10 20 0 11 5 20 10 20 6 0 10 -9 10 -20z m580 10 c0 -5 -4 -10
-10 -10 -5 0 -10 5 -10 10 0 6 5 10 10 10 6 0 10 -4 10 -10z m443 -5 c1 -5 -6
-11 -15 -13 -11 -2 -18 3 -18 13 0 17 30 18 33 0z m-2689 -16 c-3 -5 -10 -7
-15 -3 -5 3 -7 10 -3 15 3 5 10 7 15 3 5 -3 7 -10 3 -15z m676 1 c0 -11 -7
-20 -15 -20 -15 0 -21 21 -8 33 12 13 23 7 23 -13z m1032 -12 c-9 -9 -12 -7
-12 12 0 19 3 21 12 12 9 -9 9 -15 0 -24z m-1882 2 c0 -5 -4 -10 -10 -10 -5 0
-10 5 -10 10 0 6 5 10 10 10 6 0 10 -4 10 -10z m290 -4 c0 -15 -18 -31 -26
-23 -7 7 7 37 17 37 5 0 9 -6 9 -14z m694 6 c8 -13 -11 -35 -23 -28 -16 10
-14 36 3 36 8 0 17 -4 20 -8z m1551 -2 c-3 -5 -10 -10 -16 -10 -5 0 -9 5 -9
10 0 6 7 10 16 10 8 0 12 -4 9 -10z m213 -2 c-3 -7 -11 -13 -18 -13 -7 0 -15
6 -17 13 -3 7 4 12 17 12 13 0 20 -5 18 -12z m229 -24 c-9 -10 -38 16 -31 28
4 6 13 4 22 -6 9 -8 13 -19 9 -22z m-3142 -4 c-5 -8 -11 -8 -17 -2 -6 6 -7 16
-3 22 5 8 11 8 17 2 6 -6 7 -16 3 -22z m1271 19 c8 -14 -11 -33 -25 -25 -11 7
-4 36 9 36 5 0 12 -5 16 -11z m864 -4 c0 -8 -4 -15 -10 -15 -5 0 -10 7 -10 15
0 8 5 15 10 15 6 0 10 -7 10 -15z m-2380 1 c0 -3 -4 -8 -10 -11 -5 -3 -10 -1
-10 4 0 6 5 11 10 11 6 0 10 -2 10 -4z m1638 -19 c2 -10 -3 -17 -12 -17 -10 0
-16 9 -16 21 0 24 23 21 28 -4z m-1788 3 c0 -5 -4 -10 -10 -10 -5 0 -10 5 -10
10 0 6 5 10 10 10 6 0 10 -4 10 -10z m669 -4 c8 -10 9 -16 1 -21 -13 -8 -30 3
-30 21 0 18 14 18 29 0z m1241 -12 c0 -8 -7 -14 -15 -14 -15 0 -21 21 -9 33
10 9 24 -2 24 -19z m115 6 c9 -15 -16 -43 -27 -32 -10 10 0 42 12 42 5 0 12
-5 15 -10z m225 -9 c0 -23 -16 -36 -25 -21 -9 14 1 40 15 40 5 0 10 -9 10 -19z
m1168 1 c2 -7 -3 -12 -12 -12 -9 0 -16 7 -16 16 0 17 22 14 28 -4z m-3208 -13
c0 -5 -4 -9 -10 -9 -5 0 -10 7 -10 16 0 8 5 12 10 9 6 -3 10 -10 10 -16z m678
9 c-6 -18 -28 -21 -28 -4 0 9 7 16 16 16 9 0 14 -5 12 -12z m124 -20 c-15 -15
-26 -4 -18 18 5 13 9 15 18 6 9 -9 9 -15 0 -24z m1116 15 c-4 -22 -22 -20 -26
1 -2 10 3 16 13 16 10 0 15 -7 13 -17z m232 -3 c0 -19 -11 -26 -23 -14 -8 8 3
34 14 34 5 0 9 -9 9 -20z m-1860 -5 c0 -8 -4 -15 -10 -15 -5 0 -10 7 -10 15 0
8 5 15 10 15 6 0 10 -7 10 -15z m278 -7 c-2 -13 -7 -23 -13 -23 -5 0 -11 10
-13 23 -2 15 2 22 13 22 11 0 15 -7 13 -22z m397 4 c0 -18 -20 -15 -23 4 -3
10 1 15 10 12 7 -3 13 -10 13 -16z m1241 -19 c-11 -11 -19 6 -11 24 8 17 8 17
12 0 3 -10 2 -21 -1 -24z m738 16 c-3 -5 -10 -7 -15 -3 -5 3 -7 10 -3 15 3 5
10 7 15 3 5 -3 7 -10 3 -15z m-1826 -6 c-4 -22 -22 -20 -26 1 -2 10 3 16 13
16 10 0 15 -7 13 -17z m140 -10 c-4 -22 -22 -20 -26 1 -2 10 3 16 13 16 10 0
15 -7 13 -17z m992 7 c0 -5 -4 -10 -10 -10 -5 0 -10 5 -10 10 0 6 5 10 10 10
6 0 10 -4 10 -10z m1070 -5 c0 -8 -7 -15 -15 -15 -8 0 -15 7 -15 15 0 8 7 15
15 15 8 0 15 -7 15 -15z m84 0 c3 -8 2 -15 -3 -15 -5 0 -14 7 -21 15 -10 12
-10 15 3 15 8 0 17 -7 21 -15z m-3524 -5 c0 -5 -4 -10 -10 -10 -5 0 -10 5 -10
10 0 6 5 10 10 10 6 0 10 -4 10 -10z m191 -13 c-13 -13 -26 -3 -16 12 3 6 11
8 17 5 6 -4 6 -10 -1 -17z m1317 0 c2 -10 -3 -17 -12 -17 -10 0 -16 9 -16 21
0 24 23 21 28 -4z m889 1 c-3 -8 -6 -5 -6 6 -1 11 2 17 5 13 3 -3 4 -12 1 -19z
m-1631 -26 c-10 -10 -29 15 -21 28 6 9 10 8 17 -4 6 -10 7 -20 4 -24z m860 2
c-5 -13 -10 -14 -18 -6 -6 6 -8 18 -4 28 5 13 10 14 18 6 6 -6 8 -18 4 -28z
m1562 25 c-2 -6 -8 -10 -13 -10 -5 0 -11 4 -13 10 -2 6 4 11 13 11 9 0 15 -5
13 -11z m-2692 -10 c3 -6 1 -16 -5 -22 -9 -9 -14 -8 -21 3 -9 15 -4 30 10 30
5 0 12 -5 16 -11z m1250 -25 c-5 -13 -10 -14 -18 -6 -6 6 -8 18 -4 28 5 13 10
14 18 6 6 -6 8 -18 4 -28z m1074 16 c0 -5 -4 -10 -10 -10 -5 0 -10 5 -10 10 0
6 5 10 10 10 6 0 10 -4 10 -10z m-2930 -10 c0 -5 -4 -10 -10 -10 -5 0 -10 5
-10 10 0 6 5 10 10 10 6 0 10 -4 10 -10z m379 -16 c-14 -18 -24 -11 -15 11 3
9 11 13 16 10 8 -5 7 -11 -1 -21z m370 12 c8 -10 9 -16 1 -21 -13 -8 -30 3
-30 21 0 18 14 18 29 0z m1229 -3 c-4 -22 -22 -20 -26 1 -2 10 3 16 13 16 10
0 15 -7 13 -17z m102 -3 c0 -11 -7 -20 -15 -20 -17 0 -18 2 -9 24 9 23 24 20
24 -4z m114 12 c2 -4 1 -14 -4 -22 -7 -11 -12 -12 -21 -3 -6 6 -8 16 -5 22 8
13 23 14 30 3z m129 -23 c-17 -17 -37 -1 -22 17 8 10 15 12 23 4 7 -7 7 -13
-1 -21z m1277 21 c0 -5 -7 -10 -15 -10 -8 0 -15 5 -15 10 0 6 7 10 15 10 8 0
15 -4 15 -10z m-1190 -26 c0 -8 -4 -14 -10 -14 -5 0 -10 9 -10 21 0 11 5 17
10 14 6 -3 10 -13 10 -21z m630 16 c0 -5 -4 -10 -10 -10 -5 0 -10 5 -10 10 0
6 5 10 10 10 6 0 10 -4 10 -10z m-1932 -17 c-4 -22 -22 -20 -26 1 -2 10 3 16
13 16 10 0 15 -7 13 -17z m155 -14 c-17 -17 -37 -1 -22 17 8 10 15 12 23 4 7
-7 7 -13 -1 -21z m2417 16 c0 -8 -7 -15 -15 -15 -16 0 -20 12 -8 23 11 12 23
8 23 -8z m-2266 -10 c3 -9 -1 -18 -10 -22 -19 -7 -28 2 -21 22 8 19 23 19 31
0z m1036 -1 c0 -8 -5 -12 -10 -9 -6 4 -8 11 -5 16 9 14 15 11 15 -7z m-1998
-16 c-7 -7 -12 -8 -12 -2 0 14 12 26 19 19 2 -3 -1 -11 -7 -17z m1090 -10
c-15 -15 -26 -4 -18 18 5 13 9 15 18 6 9 -9 9 -15 0 -24z m1608 22 c0 -5 -4
-10 -10 -10 -5 0 -10 5 -10 10 0 6 5 10 10 10 6 0 10 -4 10 -10z m-2940 -10
c0 -5 -4 -10 -10 -10 -5 0 -10 5 -10 10 0 6 5 10 10 10 6 0 10 -4 10 -10z
m2317 -12 c-3 -8 -6 -5 -6 6 -1 11 2 17 5 13 3 -3 4 -12 1 -19z m1058 12 c-3
-5 -10 -10 -16 -10 -5 0 -9 5 -9 10 0 6 7 10 16 10 8 0 12 -4 9 -10z m-3515
-9 c0 -6 -4 -13 -10 -16 -5 -3 -10 1 -10 9 0 9 5 16 10 16 6 0 10 -4 10 -9z
m1600 -11 c0 -11 -7 -20 -15 -20 -8 0 -15 9 -15 20 0 11 7 20 15 20 8 0 15 -9
15 -20z m1740 5 c0 -8 -7 -15 -16 -15 -14 0 -14 3 -4 15 7 8 14 15 16 15 2 0
4 -7 4 -15z m-2715 -5 c3 -5 -1 -10 -9 -10 -9 0 -16 5 -16 10 0 6 4 10 9 10 6
0 13 -4 16 -10z m254 -16 c3 -16 1 -17 -13 -5 -19 16 -21 34 -3 29 6 -3 14
-13 16 -24z m841 6 c0 -11 -4 -20 -9 -20 -14 0 -23 18 -16 30 10 17 25 11 25
-10z m1910 10 c0 -5 -4 -10 -9 -10 -6 0 -13 5 -16 10 -3 6 1 10 9 10 9 0 16
-4 16 -10z m-3160 -15 c0 -8 -7 -15 -15 -15 -8 0 -15 7 -15 15 0 8 7 15 15 15
8 0 15 -7 15 -15z m1370 -5 c0 -11 -7 -20 -15 -20 -15 0 -21 21 -8 33 12 13
23 7 23 -13z m206 -16 c-5 -13 -10 -14 -18 -6 -6 6 -8 18 -4 28 5 13 10 14 18
6 6 -6 8 -18 4 -28z m-1846 17 c0 -6 -4 -13 -10 -16 -5 -3 -10 1 -10 9 0 9 5
16 10 16 6 0 10 -4 10 -9z m1750 -5 c0 -8 -4 -17 -9 -21 -12 -7 -24 12 -16 25
9 15 25 12 25 -4z m230 0 c0 -8 -4 -17 -9 -21 -12 -7 -24 12 -16 25 9 15 25
12 25 -4z m660 4 c0 -5 -5 -10 -11 -10 -5 0 -7 5 -4 10 3 6 8 10 11 10 2 0 4
-4 4 -10z m-2940 -10 c0 -5 -4 -10 -10 -10 -5 0 -10 5 -10 10 0 6 5 10 10 10
6 0 10 -4 10 -10z m850 6 c0 -11 -19 -15 -25 -6 -3 5 1 10 9 10 9 0 16 -2 16
-4z m1548 -13 c-4 -22 -22 -20 -26 1 -2 10 3 16 13 16 10 0 15 -7 13 -17z
m862 7 c0 -5 -4 -10 -10 -10 -5 0 -10 5 -10 10 0 6 5 10 10 10 6 0 10 -4 10
-10z m490 -11 c0 -5 -9 -9 -20 -9 -11 0 -20 6 -20 14 0 9 7 12 20 9 11 -3 20
-9 20 -14z m50 11 c0 -5 -7 -10 -15 -10 -8 0 -15 5 -15 10 0 6 7 10 15 10 8 0
15 -4 15 -10z m-2752 -11 c-2 -6 -8 -10 -13 -10 -5 0 -11 4 -13 10 -2 6 4 11
13 11 9 0 15 -5 13 -11z m160 -6 c-5 -25 -28 -28 -28 -4 0 12 6 21 16 21 9 0
14 -7 12 -17z m1252 2 c0 -8 -4 -15 -10 -15 -5 0 -10 7 -10 15 0 8 5 15 10 15
6 0 10 -7 10 -15z m1428 -37 c120 -114 162 -158 162 -167 0 -28 -69 27 -104
83 -13 21 -20 25 -26 16 -10 -15 -40 -6 -40 12 0 7 -17 18 -37 25 -36 11 -63
8 -63 -7 0 -5 -9 -6 -20 -3 -11 3 -20 12 -20 20 0 10 7 14 20 10 10 -3 25 2
31 10 7 8 21 12 31 10 22 -6 24 11 3 19 -8 4 -15 10 -15 15 0 20 25 6 78 -43z
m-3518 27 c0 -8 -4 -15 -10 -15 -5 0 -10 7 -10 15 0 8 5 15 10 15 6 0 10 -7
10 -15z m988 -2 c-4 -22 -22 -20 -26 1 -2 10 3 16 13 16 10 0 15 -7 13 -17z
m1682 7 c0 -5 -4 -10 -10 -10 -5 0 -10 5 -10 10 0 6 5 10 10 10 6 0 10 -4 10
-10z m-2352 -11 c-2 -6 -8 -10 -13 -10 -5 0 -11 4 -13 10 -2 6 4 11 13 11 9 0
15 -5 13 -11z m815 4 c9 -9 -13 -34 -24 -27 -14 8 -11 34 4 34 8 0 17 -3 20
-7z m1027 -3 c0 -5 -4 -10 -10 -10 -5 0 -10 5 -10 10 0 6 5 10 10 10 6 0 10
-4 10 -10z m-1590 -10 c0 -5 -7 -10 -15 -10 -8 0 -15 5 -15 10 0 6 7 10 15 10
8 0 15 -4 15 -10z m693 -5 c8 -18 -11 -31 -25 -17 -11 11 -3 32 12 32 4 0 10
-7 13 -15z m2041 0 c-6 -16 -24 -21 -24 -7 0 11 11 22 21 22 5 0 6 -7 3 -15z
m-1924 -15 c0 -11 -4 -20 -9 -20 -14 0 -23 18 -16 30 10 17 25 11 25 -10z
m-1316 -11 c-3 -5 -10 -7 -15 -3 -5 3 -7 10 -3 15 3 5 10 7 15 3 5 -3 7 -10 3
-15z m366 0 c0 -5 -7 -9 -15 -9 -15 0 -20 12 -9 23 8 8 24 -1 24 -14z m1070 1
c0 -11 -7 -20 -15 -20 -15 0 -21 21 -8 33 12 13 23 7 23 -13z m-1786 -2 c-3
-4 -12 -8 -20 -8 -8 0 -14 4 -14 8 0 4 9 8 19 8 11 0 17 -4 15 -8z m1898 -20
c-15 -15 -26 -4 -18 18 5 13 9 15 18 6 9 -9 9 -15 0 -24z m98 12 c0 -11 -7
-20 -15 -20 -17 0 -18 2 -9 24 9 23 24 20 24 -4z m120 -6 c0 -8 -7 -14 -15
-14 -15 0 -21 21 -9 33 10 9 24 -2 24 -19z m1311 3 c-13 -13 -26 -3 -16 12 3
6 11 8 17 5 6 -4 6 -10 -1 -17z m-2492 -1 c9 -10 9 -16 1 -21 -16 -10 -40 2
-40 20 0 19 24 20 39 1z m1319 -3 c-4 -22 -22 -20 -26 1 -2 10 3 16 13 16 10
0 15 -7 13 -17z m92 -2 c0 -12 -20 -25 -27 -18 -7 7 6 27 18 27 5 0 9 -4 9 -9z
m1394 -7 c5 -14 4 -15 -9 -4 -17 14 -19 20 -6 20 5 0 12 -7 15 -16z m-3844 -4
c0 -5 -2 -10 -4 -10 -3 0 -8 5 -11 10 -3 6 -1 10 4 10 6 0 11 -4 11 -10z m560
-5 c0 -8 -4 -15 -10 -15 -5 0 -10 7 -10 15 0 8 5 15 10 15 6 0 10 -7 10 -15z
m578 -2 c-4 -22 -22 -20 -26 1 -2 10 3 16 13 16 10 0 15 -7 13 -17z m154 -15
c-15 -15 -26 -4 -18 18 5 13 9 15 18 6 9 -9 9 -15 0 -24z m-987 13 c3 -5 1
-12 -5 -16 -5 -3 -10 1 -10 9 0 18 6 21 15 7z m1141 -2 c10 -17 -13 -36 -27
-22 -12 12 -4 33 11 33 5 0 12 -5 16 -11z m1834 1 c0 -5 -4 -10 -10 -10 -5 0
-10 5 -10 10 0 6 5 10 10 10 6 0 10 -4 10 -10z m-1700 -26 c0 -8 -7 -14 -15
-14 -15 0 -21 21 -9 33 10 9 24 -2 24 -19z m1590 22 c0 -3 -4 -8 -10 -11 -5
-3 -10 -1 -10 4 0 6 5 11 10 11 6 0 10 -2 10 -4z m-2239 -21 c-1 -15 -24 -12
-29 3 -3 9 2 13 12 10 10 -1 17 -7 17 -13z m139 7 c0 -14 -11 -21 -26 -15 -21
8 -17 23 6 23 11 0 20 -4 20 -8z m2330 -13 c0 -5 -4 -9 -10 -9 -5 0 -10 7 -10
16 0 8 5 12 10 9 6 -3 10 -10 10 -16z m470 0 c0 -5 -7 -9 -15 -9 -15 0 -20 12
-9 23 8 8 24 -1 24 -14z m-3209 -12 c-13 -13 -26 -3 -16 12 3 6 11 8 17 5 6
-4 6 -10 -1 -17z m1044 3 c0 -7 -6 -15 -12 -17 -8 -3 -13 4 -13 17 0 13 5 20
13 18 6 -3 12 -11 12 -18z m-1348 -12 c-3 -8 -6 -5 -6 6 -1 11 2 17 5 13 3 -3
4 -12 1 -19z m838 12 c3 -5 -1 -10 -9 -10 -8 0 -18 5 -21 10 -3 6 1 10 9 10 8
0 18 -4 21 -10z m625 -10 c0 -21 -15 -27 -25 -10 -7 12 2 30 16 30 5 0 9 -9 9
-20z m1822 -2 c-7 -7 -12 -8 -12 -2 0 14 12 26 19 19 2 -3 -1 -11 -7 -17z
m-1704 -5 c-4 -22 -22 -20 -26 1 -2 10 3 16 13 16 10 0 15 -7 13 -17z m102 3
c0 -16 -18 -31 -27 -22 -8 8 5 36 17 36 5 0 10 -6 10 -14z m104 6 c2 -4 1 -14
-4 -21 -10 -17 -31 -5 -23 14 6 16 19 20 27 7z m1826 -7 c11 -13 8 -15 -14
-15 -25 0 -33 10 -19 23 10 11 19 8 33 -8z m-3232 -7 c-6 -18 -28 -21 -28 -4
0 9 7 16 16 16 9 0 14 -5 12 -12z m1542 -3 c0 -8 -4 -15 -9 -15 -13 0 -22 16
-14 24 11 11 23 6 23 -9z m120 -5 c0 -11 -4 -20 -10 -20 -5 0 -10 9 -10 20 0
11 5 20 10 20 6 0 10 -9 10 -20z m1400 10 c0 -5 -7 -10 -16 -10 -8 0 -12 5 -9
10 3 6 10 10 16 10 5 0 9 -4 9 -10z m-2576 -21 c-7 -11 -34 -12 -34 -1 0 14
11 21 26 15 8 -3 11 -9 8 -14z m-944 1 c0 -5 -4 -10 -10 -10 -5 0 -10 5 -10
10 0 6 5 10 10 10 6 0 10 -4 10 -10z m150 1 c0 -6 -4 -13 -10 -16 -5 -3 -10 1
-10 9 0 9 5 16 10 16 6 0 10 -4 10 -9z m660 -1 c0 -5 -7 -10 -15 -10 -8 0 -15
5 -15 10 0 6 7 10 15 10 8 0 15 -4 15 -10z m264 -6 c4 -11 1 -14 -11 -12 -9 2
-18 9 -21 16 -6 18 25 15 32 -4z m1176 -4 c0 -5 -5 -10 -11 -10 -5 0 -7 5 -4
10 3 6 8 10 11 10 2 0 4 -4 4 -10z m1360 6 c0 -3 -4 -8 -10 -11 -5 -3 -10 -1
-10 4 0 6 5 11 10 11 6 0 10 -2 10 -4z m-2386 -15 c3 -5 -1 -14 -8 -20 -16
-13 -32 2 -21 19 8 12 22 13 29 1z m-974 -22 c0 -5 -7 -9 -15 -9 -15 0 -20 12
-9 23 8 8 24 -1 24 -14z m428 10 c-2 -6 -8 -10 -13 -10 -5 0 -11 4 -13 10 -2
6 4 11 13 11 9 0 15 -5 13 -11z m677 -9 c0 -7 -6 -15 -12 -17 -8 -3 -13 4 -13
17 0 13 5 20 13 18 6 -3 12 -11 12 -18z m120 -10 c0 -7 -6 -15 -12 -17 -8 -3
-13 4 -13 17 0 13 5 20 13 18 6 -3 12 -11 12 -18z m872 -12 c-3 -7 -5 -2 -5
12 0 14 2 19 5 13 2 -7 2 -19 0 -25z m893 28 c0 -3 -4 -8 -10 -11 -5 -3 -10
-1 -10 4 0 6 5 11 10 11 6 0 10 -2 10 -4z m-1650 -20 c0 -16 -18 -31 -27 -22
-8 8 5 36 17 36 5 0 10 -6 10 -14z m-1035 -5 c7 -12 -12 -24 -25 -16 -11 7 -4
25 10 25 5 0 11 -4 15 -9z m413 -2 c-2 -6 -8 -10 -13 -10 -5 0 -11 4 -13 10
-2 6 4 11 13 11 9 0 15 -5 13 -11z m125 4 c9 -9 -13 -34 -24 -27 -14 8 -11 34
4 34 8 0 17 -3 20 -7z m82 -4 c12 -19 -5 -23 -22 -6 -16 16 -16 17 -1 17 9 0
20 -5 23 -11z m523 -1 c-6 -18 -28 -21 -28 -4 0 9 7 16 16 16 9 0 14 -5 12
-12z m92 -3 c0 -8 -4 -15 -10 -15 -5 0 -10 7 -10 15 0 8 5 15 10 15 6 0 10 -7
10 -15z m130 0 c0 -8 -7 -15 -15 -15 -16 0 -20 12 -8 23 11 12 23 8 23 -8z
m142 -17 c-15 -15 -26 -4 -18 18 5 13 9 15 18 6 9 -9 9 -15 0 -24z m1310 10
c-7 -7 -12 -8 -12 -2 0 14 12 26 19 19 2 -3 -1 -11 -7 -17z m-3052 8 c0 -3 -4
-8 -10 -11 -5 -3 -10 -1 -10 4 0 6 5 11 10 11 6 0 10 -2 10 -4z m3002 -18 c-7
-7 -12 -8 -12 -2 0 14 12 26 19 19 2 -3 -1 -11 -7 -17z m138 12 c0 -5 -4 -10
-10 -10 -5 0 -10 5 -10 10 0 6 5 10 10 10 6 0 10 -4 10 -10z m-2620 -15 c0 -8
-7 -15 -15 -15 -8 0 -15 7 -15 15 0 8 7 15 15 15 8 0 15 -7 15 -15z m1310 11
c0 -3 -4 -8 -10 -11 -5 -3 -10 -1 -10 4 0 6 5 11 10 11 6 0 10 -2 10 -4z
m-2205 -16 c3 -5 -1 -10 -9 -10 -9 0 -16 5 -16 10 0 6 4 10 9 10 6 0 13 -4 16
-10z m1338 -25 c7 -16 -8 -29 -23 -20 -10 6 -2 35 10 35 4 0 10 -7 13 -15z
m-1243 -5 c0 -5 -4 -10 -10 -10 -5 0 -10 5 -10 10 0 6 5 10 10 10 6 0 10 -4
10 -10z m95 1 c3 -5 1 -12 -5 -16 -5 -3 -10 1 -10 9 0 18 6 21 15 7z m585 -1
c0 -12 -28 -25 -36 -17 -9 9 6 27 22 27 8 0 14 -5 14 -10z m1620 -17 c-1 -24
-2 -26 -11 -10 -5 9 -7 22 -4 27 10 17 15 11 15 -17z m-932 0 c-4 -22 -22 -20
-26 1 -2 10 3 16 13 16 10 0 15 -7 13 -17z m109 -20 c-3 -3 -11 -2 -17 2 -8 5
-7 11 2 22 12 15 13 14 16 -1 2 -10 1 -20 -1 -23z m1623 27 c0 -5 -4 -10 -10
-10 -5 0 -10 5 -10 10 0 6 5 10 10 10 6 0 10 -4 10 -10z m-1510 -14 c0 -17
-14 -29 -23 -20 -8 8 3 34 14 34 5 0 9 -6 9 -14z m98 -8 c-6 -18 -28 -21 -28
-4 0 9 7 16 16 16 9 0 14 -5 12 -12z m112 -3 c0 -8 -4 -15 -10 -15 -5 0 -10 7
-10 15 0 8 5 15 10 15 6 0 10 -7 10 -15z m150 0 c0 -8 -4 -15 -9 -15 -13 0
-22 16 -14 24 11 11 23 6 23 -9z m-1780 -4 c0 -6 -4 -13 -10 -16 -5 -3 -10 1
-10 9 0 9 5 16 10 16 6 0 10 -4 10 -9z m768 -3 c-6 -18 -28 -21 -28 -4 0 9 7
16 16 16 9 0 14 -5 12 -12z m1132 3 c0 -6 -4 -13 -10 -16 -5 -3 -10 1 -10 9 0
9 5 16 10 16 6 0 10 -4 10 -9z m-1516 -10 c3 -5 -1 -14 -8 -20 -16 -13 -32 2
-21 19 8 12 22 13 29 1z m276 -27 c0 -8 -7 -14 -15 -14 -15 0 -21 21 -9 33 10
9 24 -2 24 -19z m2175 6 c3 -5 1 -10 -4 -10 -6 0 -11 5 -11 10 0 6 2 10 4 10
3 0 8 -4 11 -10z m305 6 c0 -3 -4 -8 -10 -11 -5 -3 -10 -1 -10 4 0 6 5 11 10
11 6 0 10 -2 10 -4z m60 -6 c0 -5 -4 -10 -10 -10 -5 0 -10 5 -10 10 0 6 5 10
10 10 6 0 10 -4 10 -10z m-1110 -10 c0 -5 -5 -10 -11 -10 -5 0 -7 5 -4 10 3 6
8 10 11 10 2 0 4 -4 4 -10z m-2330 -10 c0 -5 -4 -10 -10 -10 -5 0 -10 5 -10
10 0 6 5 10 10 10 6 0 10 -4 10 -10z m505 -10 c3 -6 -1 -13 -10 -16 -19 -8
-30 0 -20 15 8 14 22 14 30 1z m275 -15 c0 -8 -7 -15 -15 -15 -8 0 -15 7 -15
15 0 8 7 15 15 15 8 0 15 -7 15 -15z m1017 -11 c-9 -9 -28 6 -21 18 4 6 10 6
17 -1 6 -6 8 -13 4 -17z m143 6 c0 -5 -7 -10 -15 -10 -8 0 -15 5 -15 10 0 6 7
10 15 10 8 0 15 -4 15 -10z m140 -5 c0 -8 -4 -15 -10 -15 -5 0 -10 7 -10 15 0
8 5 15 10 15 6 0 10 -7 10 -15z m290 -7 c0 -19 -2 -20 -10 -8 -13 19 -13 30 0
30 6 0 10 -10 10 -22z m-2190 2 c0 -5 -4 -10 -10 -10 -5 0 -10 5 -10 10 0 6 5
10 10 10 6 0 10 -4 10 -10z m-295 -10 c3 -5 1 -10 -4 -10 -6 0 -11 5 -11 10 0
6 2 10 4 10 3 0 8 -4 11 -10z m2335 0 c0 -5 -4 -10 -10 -10 -5 0 -10 5 -10 10
0 6 5 10 10 10 6 0 10 -4 10 -10z m-2465 -20 c3 -5 1 -10 -4 -10 -6 0 -11 5
-11 10 0 6 2 10 4 10 3 0 8 -4 11 -10z m325 0 c0 -5 -5 -10 -11 -10 -5 0 -7 5
-4 10 3 6 8 10 11 10 2 0 4 -4 4 -10z m160 -6 c0 -8 -4 -12 -10 -9 -5 3 -10
10 -10 16 0 5 5 9 10 9 6 0 10 -7 10 -16z m425 -4 c0 -7 -6 -15 -12 -17 -8 -3
-13 4 -13 17 0 13 5 20 13 18 6 -3 12 -11 12 -18z m-123 -62 c-15 -15 -26 -4
-18 18 5 13 9 15 18 6 9 -9 9 -15 0 -24z m-692 12 c0 -5 -5 -10 -11 -10 -5 0
-7 5 -4 10 3 6 8 10 11 10 2 0 4 -4 4 -10z m65 1 c3 -5 1 -12 -5 -16 -5 -3
-10 1 -10 9 0 18 6 21 15 7z m905 -21 c0 -11 -4 -20 -9 -20 -11 0 -22 26 -14
34 12 12 23 5 23 -14z m-810 -20 c0 -5 -4 -10 -10 -10 -5 0 -10 5 -10 10 0 6
5 10 10 10 6 0 10 -4 10 -10z m430 -15 c0 -8 -4 -15 -9 -15 -13 0 -22 16 -14
24 11 11 23 6 23 -9z m270 -11 c0 -16 -16 -19 -25 -4 -8 13 4 32 16 25 5 -4 9
-13 9 -21z m-450 6 c0 -5 -4 -10 -10 -10 -5 0 -10 5 -10 10 0 6 5 10 10 10 6
0 10 -4 10 -10z m-423 -22 c-3 -8 -6 -5 -6 6 -1 11 2 17 5 13 3 -3 4 -12 1
-19z m3768 12 c3 -5 2 -10 -4 -10 -5 0 -13 5 -16 10 -3 6 -2 10 4 10 5 0 13
-4 16 -10z m-3265 -26 c0 -8 -5 -12 -10 -9 -6 4 -8 11 -5 16 9 14 15 11 15 -7z
m262 -19 c0 -5 -5 -11 -11 -13 -6 -2 -11 4 -11 13 0 9 5 15 11 13 6 -2 11 -8
11 -13z m-652 -15 c0 -5 -4 -10 -10 -10 -5 0 -10 5 -10 10 0 6 5 10 10 10 6 0
10 -4 10 -10z m-170 -10 c0 -5 -5 -10 -11 -10 -5 0 -7 5 -4 10 3 6 8 10 11 10
2 0 4 -4 4 -10z m717 -26 c-9 -9 -28 6 -21 18 4 6 10 6 17 -1 6 -6 8 -13 4
-17z m-607 -3 c0 -6 -4 -13 -10 -16 -5 -3 -10 1 -10 9 0 9 5 16 10 16 6 0 10
-4 10 -9z m880 -17 c0 -8 -4 -12 -10 -9 -5 3 -10 13 -10 21 0 8 5 12 10 9 6
-3 10 -13 10 -21z m-590 6 c0 -5 -4 -10 -10 -10 -5 0 -10 5 -10 10 0 6 5 10
10 10 6 0 10 -4 10 -10z m225 -10 c3 -5 1 -10 -4 -10 -6 0 -11 5 -11 10 0 6 2
10 4 10 3 0 8 -4 11 -10z m-685 -20 c0 -5 -5 -10 -11 -10 -5 0 -7 5 -4 10 3 6
8 10 11 10 2 0 4 -4 4 -10z m948 -11 c-2 -6 -8 -10 -13 -10 -5 0 -11 4 -13 10
-2 6 4 11 13 11 9 0 15 -5 13 -11z m-848 -19 c0 -5 -4 -10 -10 -10 -5 0 -10 5
-10 10 0 6 5 10 10 10 6 0 10 -4 10 -10z m480 -26 c0 -8 -4 -12 -10 -9 -5 3
-10 10 -10 16 0 5 5 9 10 9 6 0 10 -7 10 -16z m265 6 c3 -5 1 -10 -4 -10 -6 0
-11 5 -11 10 0 6 2 10 4 10 3 0 8 -4 11 -10z m-445 -10 c0 -5 -4 -10 -10 -10
-5 0 -10 5 -10 10 0 6 5 10 10 10 6 0 10 -4 10 -10z m-460 -4 c0 -3 -4 -8 -10
-11 -5 -3 -10 -1 -10 4 0 6 5 11 10 11 6 0 10 -2 10 -4z m310 -16 c0 -5 -4
-10 -10 -10 -5 0 -10 5 -10 10 0 6 5 10 10 10 6 0 10 -4 10 -10z m2827 4 c-3
-3 -12 -4 -19 -1 -8 3 -5 6 6 6 11 1 17 -2 13 -5z m747 -10 c9 -3 16 -10 16
-15 0 -4 -7 -6 -16 -2 -9 3 -20 0 -25 -8 -6 -10 -11 -11 -20 -2 -23 23 8 41
45 27z m-3784 -14 c0 -5 -4 -10 -10 -10 -5 0 -10 5 -10 10 0 6 5 10 10 10 6 0
10 -4 10 -10z m125 -20 c3 -5 1 -10 -4 -10 -6 0 -11 5 -11 10 0 6 2 10 4 10 3
0 8 -4 11 -10z m335 -10 c0 -5 -4 -10 -10 -10 -5 0 -10 5 -10 10 0 6 5 10 10
10 6 0 10 -4 10 -10z m-160 -20 c0 -5 -4 -10 -10 -10 -5 0 -10 5 -10 10 0 6 5
10 10 10 6 0 10 -4 10 -10z"/>
<path d="M4550 3193 c0 -12 -4 -25 -10 -28 -12 -8 -13 -25 -2 -25 16 0 34 52
22 64 -7 7 -10 4 -10 -11z"/>
<path d="M4580 3170 c0 -5 5 -10 11 -10 5 0 7 5 4 10 -3 6 -8 10 -11 10 -2 0
-4 -4 -4 -10z"/>
<path d="M4571 3015 l1 -50 10 38 c7 28 7 42 -1 50 -8 8 -11 -2 -10 -38z"/>
<path d="M4600 2994 c0 -9 5 -12 10 -9 6 3 10 1 10 -5 0 -6 5 -8 11 -5 14 9 6
28 -14 31 -9 1 -17 -4 -17 -12z"/>
<path d="M4500 2944 c0 -8 5 -12 10 -9 6 3 10 10 10 16 0 5 -4 9 -10 9 -5 0
-10 -7 -10 -16z"/>
<path d="M5420 2385 c0 -8 7 -15 16 -15 14 0 14 3 4 15 -7 8 -14 15 -16 15 -2
0 -4 -7 -4 -15z"/>
<path d="M6074 5413 c3 -43 10 -91 15 -108 9 -28 10 -29 16 -8 6 20 45 43 53
32 2 -2 8 4 14 14 10 18 11 18 29 -2 10 -11 26 -24 34 -29 22 -12 22 -39 1
-94 -24 -63 -55 -83 -100 -67 -22 8 -32 17 -29 26 3 7 3 13 0 13 -4 0 -11 -17
-16 -37 -8 -28 -7 -41 3 -52 17 -21 55 -97 73 -146 23 -64 34 -124 38 -210 5
-106 15 -214 22 -244 5 -20 3 -22 -16 -17 -64 18 -60 21 -50 -25 6 -23 14 -49
19 -58 8 -14 9 -14 10 2 0 9 5 17 11 17 8 0 10 -13 6 -36 -6 -33 -5 -35 7 -18
13 17 15 15 25 -20 5 -22 8 -43 5 -48 -3 -4 -1 -8 4 -8 5 0 17 -15 27 -34 17
-31 17 -35 2 -57 -17 -23 -17 -23 -17 19 0 23 -4 42 -10 42 -5 0 -10 -6 -10
-14 0 -8 -6 -16 -12 -18 -10 -4 -10 -10 0 -32 6 -15 12 -35 12 -46 0 -10 20
-49 45 -85 25 -38 42 -72 38 -79 -4 -6 -8 -13 -8 -16 -1 -3 -5 -16 -9 -29 -8
-24 -8 -24 -45 15 -20 22 -45 39 -56 39 -23 0 -42 -24 -28 -34 5 -3 22 -31 38
-62 22 -46 26 -61 18 -84 l-9 -29 -23 37 c-12 20 -24 37 -25 37 -6 0 0 -70 7
-76 11 -12 8 -61 -8 -123 -27 -106 -28 -121 -5 -121 11 0 20 -3 20 -6 0 -4 7
-53 16 -111 12 -82 13 -112 4 -139 -12 -36 -38 -44 -48 -14 -5 13 -3 13 11 1
15 -12 17 -9 17 30 0 41 -18 111 -33 125 -13 13 -18 -66 -7 -101 9 -27 9 -40
1 -48 -6 -6 -11 -40 -11 -75 0 -35 -5 -73 -11 -84 -15 -28 4 -47 30 -31 10 7
22 9 25 5 11 -11 202 -13 230 -2 22 8 26 15 26 53 0 77 52 117 154 117 65 0
94 24 110 91 17 66 57 89 160 90 105 1 213 34 208 64 -2 11 -28 63 -58 116
-57 101 -65 139 -38 177 27 39 54 43 135 21 125 -35 116 -35 124 0 4 18 23 51
43 75 21 24 45 53 54 64 24 30 63 37 127 24 69 -15 111 -52 111 -98 0 -18 -4
-35 -9 -38 -13 -8 -53 -144 -61 -210 -6 -43 -4 -69 5 -88 9 -18 9 -30 2 -37
-19 -19 0 -40 33 -36 38 5 50 12 50 30 0 8 16 22 36 31 32 15 40 16 82 2 31
-10 46 -20 44 -29 -2 -8 0 -11 4 -7 4 4 14 2 22 -4 9 -8 78 -15 196 -20 241
-9 258 -14 293 -81 20 -40 12 -400 -11 -471 -9 -27 -16 -68 -16 -92 0 -76 -25
-73 655 -67 657 7 637 8 655 -55 9 -35 8 -46 -60 -435 -23 -135 -25 -171 -9
-162 6 4 71 6 145 6 l134 -2 0 1686 0 1685 -1846 0 -1847 0 7 -77z m2006 -403
c0 -38 -4 -50 -15 -50 -11 0 -15 11 -15 43 0 24 3 47 7 50 16 17 23 3 23 -43z
m-170 -885 c6 -8 8 -20 4 -26 -4 -7 -6 -43 -5 -81 1 -39 -1 -99 -4 -134 -6
-52 -10 -62 -21 -53 -7 6 -18 8 -24 4 -6 -4 -10 4 -10 19 0 14 -5 26 -11 26
-5 0 -7 5 -4 10 3 6 2 10 -2 10 -10 0 -33 58 -33 84 0 14 6 17 25 13 16 -3 24
0 22 7 -2 6 -13 12 -25 14 -11 2 -21 11 -21 20 -1 9 -2 33 -4 52 l-2 35 45 -2
c30 -1 40 1 30 7 -12 8 -11 10 6 10 12 0 27 -7 34 -15z m-150 -13 c0 -12 -39
-52 -51 -52 -6 0 -7 -5 -4 -10 3 -6 4 -19 0 -30 -9 -29 -35 -13 -35 22 0 17
-4 27 -10 23 -5 -3 -10 -40 -10 -81 0 -41 -3 -74 -7 -74 -5 0 -8 42 -8 94 l-1
95 46 9 c60 13 80 14 80 4z m-100 -229 c0 -5 -5 -15 -10 -23 -8 -12 -10 -11
-10 8 0 12 5 22 10 22 6 0 10 -3 10 -7z m173 -50 c-7 -2 -19 -2 -25 0 -7 3 -2
5 12 5 14 0 19 -2 13 -5z m-1602 -96 c-10 -9 -11 -8 -5 6 3 10 9 15 12 12 3
-3 0 -11 -7 -18z m13 -85 c44 -114 47 -126 41 -173 -4 -26 -13 -56 -22 -66 -8
-10 -12 -13 -9 -6 3 6 2 33 -3 60 -6 26 -15 74 -21 106 -10 52 -22 69 -33 50
-2 -5 -2 -2 0 5 1 8 3 29 3 48 0 47 21 36 44 -24z"/>
<path d="M7813 4058 c5 -18 29 -16 34 2 4 13 3 13 -6 0 -7 -10 -11 -11 -11 -2
0 6 -5 12 -11 12 -6 0 -9 -6 -6 -12z"/>
<path d="M7842 3950 c0 -14 2 -19 5 -12 2 6 2 18 0 25 -3 6 -5 1 -5 -13z"/>
<path d="M5720 5340 c0 -5 9 -10 19 -10 11 0 26 -3 35 -6 11 -4 16 -1 16 10 0
12 -10 16 -35 16 -19 0 -35 -4 -35 -10z"/>
<path d="M5850 5301 c0 -6 9 -15 20 -21 13 -7 20 -7 20 -1 0 6 -9 15 -20 21
-13 7 -20 7 -20 1z"/>
<path d="M3861 4824 c-12 -15 -21 -34 -21 -42 0 -18 0 -18 29 31 26 43 22 49
-8 11z"/>
<path d="M5280 4683 c0 -10 4 -14 8 -8 4 6 11 13 16 18 5 4 2 7 -7 7 -10 0
-17 -8 -17 -17z"/>
<path d="M5325 4680 c-3 -5 1 -10 9 -10 9 0 16 5 16 10 0 6 -4 10 -9 10 -6 0
-13 -4 -16 -10z"/>
<path d="M6120 4661 c0 -6 4 -13 10 -16 6 -3 7 1 4 9 -7 18 -14 21 -14 7z"/>
<path d="M5131 4597 c-55 -15 -66 -37 -19 -37 18 0 39 -4 47 -9 8 -5 -4 -7
-32 -4 -59 7 -107 -13 -107 -44 0 -13 4 -23 9 -23 5 0 12 -15 15 -33 5 -27 15
-36 67 -61 72 -34 140 -44 174 -26 13 7 31 10 39 7 8 -3 18 -2 22 4 4 6 11 6
20 -2 11 -9 23 -7 56 10 72 34 83 47 72 77 -5 15 -18 32 -29 38 -11 6 -33 19
-48 30 -103 68 -207 94 -286 73z m129 -77 c0 -5 6 -7 14 -4 7 3 26 -6 42 -20
23 -20 26 -26 13 -31 -23 -9 -86 21 -92 45 -3 13 0 20 9 20 8 0 14 -4 14 -10z
m40 -75 c7 -9 11 -18 8 -20 -6 -6 -78 23 -78 30 0 12 59 3 70 -10z m-105 -75
c3 -6 -1 -7 -9 -4 -18 7 -21 14 -7 14 6 0 13 -4 16 -10z m42 -6 c-3 -3 -12 -4
-19 -1 -8 3 -5 6 6 6 11 1 17 -2 13 -5z"/>
<path d="M6186 4544 c3 -28 11 -41 19 -32 8 8 -5 58 -15 58 -4 0 -6 -12 -4
-26z"/>
<path d="M1095 4523 c-35 -9 -39 -22 -9 -28 16 -3 49 -10 74 -15 58 -13 100
-7 112 14 7 12 3 18 -17 26 -27 10 -123 12 -160 3z"/>
<path d="M6115 4520 c-3 -5 -1 -10 4 -10 6 0 11 5 11 10 0 6 -2 10 -4 10 -3 0
-8 -4 -11 -10z"/>
<path d="M1762 4488 c2 -12 11 -24 21 -26 14 -3 18 1 15 20 -2 12 -11 24 -21
26 -14 3 -18 -1 -15 -20z"/>
<path d="M1074 4445 c-4 -8 -3 -23 1 -32 6 -16 8 -15 25 7 14 18 15 27 7 32
-18 12 -27 10 -33 -7z"/>
<path d="M6184 4311 c5 -51 26 -81 26 -38 0 15 -5 27 -11 27 -5 0 -7 4 -4 10
3 5 1 18 -5 27 -9 14 -10 9 -6 -26z"/>
<path d="M1781 4277 c0 -16 -6 -38 -13 -50 -23 -44 -37 -48 -143 -42 -103 6
-261 18 -350 26 -5 0 -29 -7 -52 -15 -23 -9 -49 -13 -58 -10 -22 9 -63 -32
-60 -59 1 -12 3 -33 4 -46 0 -13 4 -21 8 -18 3 4 11 -3 17 -15 23 -45 44 -48
323 -44 l262 3 26 -29 c44 -49 52 -38 59 87 2 44 -2 116 -9 160 -7 44 -13 67
-14 52z"/>
<path d="M5210 4124 c-17 -20 -30 -43 -28 -52 2 -10 28 -30 58 -47 46 -25 66
-30 122 -29 37 0 71 3 75 7 15 16 -26 38 -96 51 -40 8 -75 16 -78 19 -9 10 8
47 22 47 23 0 5 36 -20 38 -16 1 -33 -10 -55 -34z"/>
<path d="M5318 4133 c7 -3 16 -2 19 1 4 3 -2 6 -13 5 -11 0 -14 -3 -6 -6z"/>
<path d="M6170 4031 c0 -7 -4 -9 -10 -6 -12 8 -13 -5 -1 -24 7 -11 10 -9 16 8
4 13 4 25 1 28 -3 4 -6 1 -6 -6z"/>
<path d="M5941 3844 c0 -11 3 -14 6 -6 3 7 2 16 -1 19 -3 4 -6 -2 -5 -13z"/>
<path d="M6132 3839 c-8 -12 -11 -24 -8 -27 3 -3 6 -2 6 3 0 4 7 2 15 -5 12
-10 16 -9 21 5 4 9 0 23 -7 31 -12 12 -16 11 -27 -7z"/>
<path d="M780 3679 c0 -16 4 -28 9 -25 8 5 3 56 -5 56 -2 0 -4 -14 -4 -31z"/>
<path d="M816 3685 c-10 -26 -7 -115 3 -115 6 0 11 15 13 33 2 19 8 31 16 30
6 -2 12 4 12 13 0 8 -5 12 -11 8 -7 -4 -9 2 -7 16 4 27 -17 38 -26 15z"/>
<path d="M5944 3668 c1 -7 9 -26 19 -43 16 -30 16 -30 16 -5 0 14 -6 33 -13
43 -15 20 -25 22 -22 5z"/>
<path d="M6104 3563 c-8 -44 -8 -63 3 -83 7 -14 13 -32 14 -40 0 -8 5 -4 10
10 7 17 7 39 -1 69 -6 24 -8 57 -5 72 4 16 3 29 -2 29 -5 0 -13 -26 -19 -57z"/>
<path d="M777 3576 c-3 -8 -2 -18 3 -21 13 -8 20 9 11 24 -6 10 -10 9 -14 -3z"/>
<path d="M5910 3495 c0 -13 24 -55 32 -55 5 0 2 14 -7 30 -14 27 -25 38 -25
25z"/>
<path d="M6086 3475 c4 -8 8 -15 10 -15 2 0 4 7 4 15 0 8 -4 15 -10 15 -5 0
-7 -7 -4 -15z"/>
<path d="M5924 3094 c3 -9 6 -21 6 -27 0 -7 5 -4 11 6 11 18 5 37 -13 37 -5 0
-7 -7 -4 -16z"/>
<path d="M7706 3030 c-4 -33 -6 -101 -5 -150 2 -100 10 -113 62 -103 32 6 31
3 12 62 -8 25 -22 90 -31 144 -9 54 -20 100 -24 102 -4 3 -11 -22 -14 -55z"/>
<path d="M5640 2996 c0 -30 4 -36 21 -36 17 0 20 5 17 32 -2 22 -9 34 -20 36
-15 3 -18 -4 -18 -32z"/>
<path d="M5864 3001 c-22 -27 -54 -85 -54 -97 0 -4 11 3 25 16 16 15 25 19 25
10 0 -9 6 -8 20 5 20 18 26 60 12 81 -4 7 -14 2 -28 -15z"/>
<path d="M5959 3011 l-24 -20 23 -1 c12 0 25 7 29 15 9 25 -2 27 -28 6z"/>
<path d="M5680 2926 c0 -8 5 -18 10 -21 6 -3 10 1 10 9 0 8 -4 18 -10 21 -5 3
-10 -1 -10 -9z"/>
<path d="M5605 2909 c-4 -6 -5 -13 -2 -16 7 -7 27 6 27 18 0 12 -17 12 -25 -2z"/>
<path d="M5731 2894 c0 -11 3 -14 6 -6 3 7 2 16 -1 19 -3 4 -6 -2 -5 -13z"/>
<path d="M5767 2799 c4 -13 8 -18 11 -10 2 7 -1 18 -6 23 -8 8 -9 4 -5 -13z"/>
<path d="M9618 1943 c12 -2 32 -2 45 0 12 2 2 4 -23 4 -25 0 -35 -2 -22 -4z"/>
<path d="M9729 1770 c-9 -5 -27 -11 -40 -13 -13 -2 -24 -10 -24 -17 0 -7 -6
-15 -12 -17 -7 -3 -13 2 -13 11 0 9 -8 16 -20 16 -11 0 -20 -7 -20 -15 0 -8
-6 -15 -12 -16 -7 0 -2 -4 10 -10 13 -5 28 -6 34 -3 5 3 18 -2 28 -11 18 -16
19 -29 15 -134 -2 -64 -7 -207 -10 -318 -6 -199 -6 -201 15 -208 12 -4 32 -4
46 -1 l25 7 0 307 c1 169 3 335 6 370 5 63 1 69 -28 52z"/>
<path d="M9405 1720 c-8 -13 5 -13 25 0 13 8 13 10 -2 10 -9 0 -20 -4 -23 -10z"/>
<path d="M1748 1665 c-7 -21 -23 -347 -33 -670 -3 -104 -10 -284 -16 -398 -7
-125 -8 -212 -2 -218 5 -5 45 -14 89 -20 60 -9 93 -9 138 1 56 11 58 13 51 38
-10 42 -40 216 -59 347 -25 172 -113 616 -132 667 -9 25 -19 92 -23 158 -3 64
-9 106 -13 95z"/>
<path d="M9492 1538 c-19 -19 -15 -66 7 -78 27 -14 27 -14 49 23 14 24 17 39
10 50 -11 20 -49 22 -66 5z"/>
<path d="M9511 799 c13 -8 97 -13 88 -5 -2 2 -26 6 -53 9 -30 3 -43 1 -35 -4z"/>
<path d="M9453 773 c9 -2 25 -2 35 0 9 3 1 5 -18 5 -19 0 -27 -2 -17 -5z"/>
<path d="M9543 756 c-28 -13 -30 -32 -3 -39 20 -5 32 5 43 36 7 19 -6 21 -40
3z"/>
<path d="M9600 749 c0 -12 40 -17 100 -12 88 8 73 23 -20 20 -44 -1 -80 -5
-80 -8z"/>
<path d="M9665 720 c-19 -7 -19 -8 -2 -15 14 -6 15 -10 5 -22 -9 -11 -9 -16 3
-24 21 -13 27 -11 34 11 3 11 10 20 15 20 5 0 12 -9 15 -20 11 -33 25 -22 25
19 0 39 0 40 -37 39 -21 0 -47 -4 -58 -8z"/>
<path d="M9497 674 c-8 -8 1 -24 14 -24 5 0 9 7 9 15 0 15 -12 20 -23 9z"/>
<path d="M9585 670 c-3 -5 -1 -10 4 -10 6 0 11 5 11 10 0 6 -2 10 -4 10 -3 0
-8 -4 -11 -10z"/>
<path d="M9615 670 c4 -6 11 -8 16 -5 14 9 11 15 -7 15 -8 0 -12 -5 -9 -10z"/>
<path d="M9395 660 c3 -5 11 -10 16 -10 6 0 7 5 4 10 -3 6 -11 10 -16 10 -6 0
-7 -4 -4 -10z"/>
<path d="M2755 570 c-3 -5 -1 -10 4 -10 6 0 11 5 11 10 0 6 -2 10 -4 10 -3 0
-8 -4 -11 -10z"/>
<path d="M2691 506 c-20 -20 -20 -20 45 -43 36 -12 69 -22 72 -21 4 1 14 -1
22 -5 37 -14 95 -13 107 2 11 15 12 14 13 -1 0 -14 9 -15 63 -11 34 3 67 9 72
12 18 13 115 0 115 -15 0 -11 5 -11 25 -2 19 8 29 8 36 1 15 -15 39 -5 32 13
-3 8 -9 12 -13 9 -5 -3 -6 3 -3 14 4 15 -5 22 -45 35 -47 16 -109 20 -464 30
-46 1 -62 -2 -77 -18z m489 -26 c0 -5 -2 -10 -4 -10 -3 0 -8 5 -11 10 -3 6 -1
10 4 10 6 0 11 -4 11 -10z"/>
<path d="M9165 510 c-3 -5 -1 -10 4 -10 6 0 11 5 11 10 0 6 -2 10 -4 10 -3 0
-8 -4 -11 -10z"/>
<path d="M3440 461 c-8 -6 -11 -11 -6 -11 20 0 -19 -30 -40 -30 -31 0 -40 -18
-12 -24 20 -5 169 -16 458 -33 198 -12 544 -9 569 6 13 7 21 8 17 2 -4 -7 1
-11 12 -11 26 0 37 27 14 34 -33 9 -78 16 -132 21 -30 2 -75 7 -100 10 -25 3
-76 7 -115 10 -441 33 -644 41 -665 26z"/>
<path d="M8720 424 c-324 -38 -841 -102 -1267 -156 -95 -12 -173 -25 -173 -30
0 -4 6 -5 13 -3 6 2 118 16 247 30 129 14 340 39 469 56 128 16 275 32 325 34
93 4 309 27 426 46 36 5 80 12 98 15 17 3 32 9 32 14 0 12 -24 11 -170 -6z"/>
<path d="M5406 408 c-33 -4 -65 -13 -70 -19 -8 -8 24 -10 124 -4 126 6 150 9
139 19 -10 8 -139 12 -193 4z"/>
<path d="M4480 376 c0 -9 7 -16 16 -16 17 0 14 22 -4 28 -7 2 -12 -3 -12 -12z"/>
<path d="M5821 379 c-19 -8 -22 -14 -18 -39 4 -16 2 -32 -4 -35 -22 -14 -574
-125 -632 -128 -46 -2 -59 5 -70 38 -3 9 -50 2 -229 -37 -27 -5 -48 -13 -48
-18 0 -5 16 -14 35 -20 48 -16 527 -10 521 6 -7 19 47 30 304 64 40 5 69 15
76 25 14 19 119 46 131 34 9 -9 74 -16 223 -24 184 -11 396 -25 495 -35 172
-16 393 -10 380 10 -3 5 -33 11 -67 15 -35 4 -85 13 -113 20 -27 8 -93 19
-145 25 -173 21 -474 60 -535 70 -33 5 -103 14 -155 20 -52 6 -102 12 -110 15
-8 2 -26 -1 -39 -6z"/>
<path d="M3615 151 c14 -14 405 -51 520 -49 101 1 105 1 -215 28 -129 11 -253
23 -275 26 -29 4 -37 3 -30 -5z"/>
<path d="M4240 100 c0 -5 5 -10 11 -10 5 0 7 5 4 10 -3 6 -8 10 -11 10 -2 0
-4 -4 -4 -10z"/>
<path d="M3362 49 c-29 -5 -69 -17 -90 -26 l-37 -18 165 -3 c166 -3 210 2 180
17 -14 8 -99 28 -145 35 -11 2 -44 -1 -73 -5z"/>
</g>
</svg>
