<?xml version="1.0" standalone="no"?>
<!DOCTYPE svg PUBLIC "-//W3C//DTD SVG 20010904//EN"
 "http://www.w3.org/TR/2001/REC-SVG-20010904/DTD/svg10.dtd">
<svg version="1.0" xmlns="http://www.w3.org/2000/svg"
 width="810.000000pt" height="542.000000pt" viewBox="0 0 810.000000 542.000000"
 preserveAspectRatio="xMidYMid meet">

<g transform="translate(0.000000,542.000000) scale(0.100000,-0.100000)"
fill="#000000" stroke="none">
<path d="M0 3870 c0 -1078 3 -1550 11 -1550 5 0 87 23 181 50 94 28 173 48
176 45 3 -3 -2 -40 -11 -82 -9 -43 -19 -100 -22 -126 -4 -27 -12 -50 -18 -52
-7 -2 -81 -23 -164 -46 -128 -35 -153 -45 -153 -60 0 -23 24 -24 64 -4 15 8
38 15 50 15 13 0 26 3 30 7 4 5 11 8 14 9 52 8 94 18 98 25 3 5 9 7 14 4 5 -3
16 5 24 17 9 12 16 20 16 18 0 -7 -112 -553 -155 -755 -20 -93 -42 -204 -50
-245 -7 -41 -34 -166 -59 -277 l-46 -202 0 -330 0 -331 1038 1 c1090 1 1051
-1 899 39 -26 7 -44 16 -40 20 4 4 73 19 153 34 80 15 249 48 375 72 493 97
1026 199 1098 211 l38 6 -3 -192 c-2 -105 0 -191 3 -191 7 0 19 183 19 301 l0
88 58 11 c31 7 98 20 147 30 50 11 104 21 120 24 17 3 199 37 405 76 206 39
436 82 510 96 223 42 326 61 522 100 104 20 194 34 202 31 9 -4 15 -35 21
-107 6 -88 9 -103 25 -107 11 -3 21 -15 23 -27 4 -20 4 -19 6 3 1 19 5 22 24
18 12 -3 50 -11 84 -18 72 -15 69 -9 78 -176 8 -138 11 -181 20 -270 l8 -73
144 0 143 0 -6 83 c-3 45 -7 87 -9 94 -4 12 10 15 175 38 63 8 199 26 301 40
178 24 189 24 256 9 l69 -15 13 -92 c7 -51 15 -107 18 -124 l5 -33 579 0 579
0 0 2682 0 2681 -23 -21 c-31 -29 -44 -16 -15 15 18 19 19 23 5 23 -9 0 -17 5
-17 10 0 6 11 10 25 10 14 0 25 5 25 10 0 7 -1357 10 -4050 10 l-4050 0 0
-1550z m6178 1445 c-9 -9 -168 -85 -168 -80 0 6 152 84 164 85 5 0 7 -2 4 -5z
m1821 -51 c-19 -20 -20 -24 -6 -24 9 0 17 -4 17 -10 0 -5 -16 -10 -35 -10 -33
0 -35 2 -35 35 0 19 5 35 10 35 6 0 10 -8 10 -17 0 -15 3 -15 22 4 29 30 45
17 17 -13z m-1799 -86 c7 -51 21 -132 31 -180 11 -48 19 -106 19 -127 0 -22
16 -151 37 -288 20 -136 36 -271 37 -300 1 -28 3 -49 6 -46 3 2 12 -44 21
-104 9 -59 23 -153 32 -208 9 -55 19 -131 21 -168 3 -37 7 -71 10 -75 3 -5 7
-39 11 -78 3 -38 8 -82 12 -99 3 -16 6 -45 7 -62 0 -18 5 -33 10 -33 4 0 6
-15 4 -32 -3 -18 -2 -40 3 -48 4 -8 14 -67 23 -130 9 -63 25 -173 36 -245 10
-71 22 -157 25 -190 4 -33 13 -105 21 -160 8 -55 17 -122 20 -150 3 -27 8 -53
10 -57 3 -4 11 -56 19 -115 15 -121 63 -456 69 -490 3 -13 0 -25 -6 -29 -11
-7 -506 -129 -668 -166 -80 -18 -333 -80 -540 -133 -30 -8 -183 -46 -340 -84
-157 -39 -458 -112 -670 -165 -596 -146 -844 -206 -859 -206 -12 0 -13 32 -8
190 4 105 3 190 -1 190 -11 0 -22 -134 -22 -277 0 -98 -2 -112 -17 -117 -10
-3 -187 -46 -393 -95 -206 -49 -469 -113 -585 -141 -115 -28 -331 -80 -480
-116 -148 -36 -277 -69 -287 -74 -21 -12 -147 -34 -154 -27 -3 2 4 81 16 173
11 93 25 205 30 249 5 44 14 116 20 160 50 369 57 446 45 433 -6 -5 -17 -77
-54 -353 -11 -82 -28 -202 -37 -265 -9 -63 -20 -151 -25 -195 -5 -44 -14 -107
-19 -140 -7 -41 -6 -61 1 -66 6 -3 -24 -16 -68 -27 -110 -30 -143 -36 -143
-25 0 5 29 225 65 489 36 263 72 526 80 584 8 58 26 188 40 290 14 102 32 232
40 290 36 264 96 696 111 801 l17 117 123 62 c68 35 124 67 124 72 0 5 5 6 12
2 6 -4 8 -3 5 3 -4 6 0 14 9 17 9 4 14 9 11 12 -3 3 -18 -2 -34 -11 l-28 -17
24 22 c14 12 33 19 43 17 10 -3 16 -1 13 4 -6 9 54 43 62 35 3 -3 -6 -11 -21
-17 -24 -11 -36 -29 -18 -29 4 0 923 459 2042 1019 1119 561 2038 1020 2041
1020 3 1 12 -41 19 -91z m-201 48 c-10 -9 -109 -56 -109 -51 0 6 91 54 104 55
5 0 7 -2 5 -4z m-5319 -54 c0 -5 -33 -23 -72 -42 -206 -94 -279 -132 -276
-142 3 -7 16 -21 31 -32 l26 -19 79 36 c43 20 81 37 85 37 13 0 7 -35 -11 -56
-19 -24 -302 -198 -302 -186 1 24 58 224 67 233 7 7 339 167 371 178 1 1 2 -3
2 -7z m5195 -12 c-3 -5 -12 -10 -18 -10 -7 0 -6 4 3 10 19 12 23 12 15 0z
m-5035 -19 c0 -15 -28 -33 -40 -26 -7 5 -5 12 7 21 21 16 33 18 33 5z m-116
-172 c34 -16 52 -65 28 -78 -9 -4 -21 -7 -27 -5 -5 1 -26 5 -46 8 -26 5 -39
14 -48 33 -11 23 -10 29 5 40 22 16 55 17 88 2z m223 -165 c6 -19 -190 -134
-204 -121 -8 9 104 118 126 122 13 2 26 7 29 10 10 9 45 1 49 -11z m4243 12
c0 -2 -7 -7 -16 -10 -8 -3 -12 -2 -9 4 6 10 25 14 25 6z m-5119 -68 l-10 -33
4 40 c4 50 5 53 11 38 3 -6 1 -26 -5 -45z m99 -13 c0 -2 -10 -9 -22 -15 -22
-11 -22 -10 -4 4 21 17 26 19 26 11z m-82 -41 c20 5 17 1 -12 -14 -46 -23 -59
-25 -32 -5 11 8 14 15 8 15 -7 0 -12 8 -12 18 1 16 1 16 11 -1 8 -14 18 -17
37 -13z m826 -139 c-7 -16 -42 -30 -52 -20 -9 9 37 47 49 40 4 -3 6 -12 3 -20z
m3691 -35 c-3 -5 -12 -10 -18 -10 -7 0 -6 4 3 10 19 12 23 12 15 0z m-3700
-40 c17 -7 15 -9 -12 -9 -18 -1 -33 4 -33 9 0 12 17 12 45 0z m3620 0 c-3 -5
-12 -10 -18 -10 -7 0 -6 4 3 10 19 12 23 12 15 0z m-40 -20 c-3 -5 -12 -10
-18 -10 -7 0 -6 4 3 10 19 12 23 12 15 0z m-3435 -5 c0 -2 -10 -9 -22 -15 -22
-11 -22 -10 -4 4 21 17 26 19 26 11z m0 -29 c0 -3 -4 -8 -10 -11 -5 -3 -10 -1
-10 4 0 6 5 11 10 11 6 0 10 -2 10 -4z m56 -26 c8 0 14 -5 14 -11 0 -5 -5 -7
-10 -4 -6 4 -18 1 -27 -7 -15 -11 -16 -11 -10 5 4 10 7 24 8 30 0 8 2 8 6 0 2
-7 11 -13 19 -13z m-111 -10 c16 -17 16 -20 3 -15 -9 4 -19 13 -22 21 -7 19
-2 18 19 -6z m35 -1 c0 -6 -4 -7 -10 -4 -5 3 -10 11 -10 16 0 6 5 7 10 4 6 -3
10 -11 10 -16z m3320 6 c0 -2 -10 -9 -22 -15 -22 -11 -22 -10 -4 4 21 17 26
19 26 11z m-3487 -30 c-10 -13 -22 -25 -27 -25 -5 0 1 11 14 25 30 32 36 32
13 0z m23 -21 c-4 -9 -9 -15 -11 -12 -3 3 -3 13 1 22 4 9 9 15 11 12 3 -3 3
-13 -1 -22z m170 2 c20 -13 35 -28 34 -32 0 -5 7 -10 17 -11 10 -2 12 0 6 3
-20 9 4 44 29 44 17 0 18 -2 8 -15 -7 -8 -9 -15 -4 -15 5 0 -2 -7 -14 -16 -12
-8 -20 -20 -17 -25 4 -5 -3 -9 -14 -9 -16 0 -21 -6 -21 -28 0 -42 -63 -165
-111 -217 -46 -50 -104 -85 -140 -85 -13 0 -33 10 -46 22 -20 19 -23 19 -23 4
0 -12 -7 -17 -22 -15 -13 2 -29 0 -36 -5 -18 -11 -22 -5 -16 20 3 11 21 28 40
39 35 18 47 55 19 55 -8 0 -15 -7 -15 -15 0 -20 -10 -19 -25 2 -11 14 -11 22
0 43 18 36 52 63 68 57 10 -4 20 7 31 31 22 48 99 132 121 132 10 0 33 14 52
30 18 17 36 30 39 30 3 0 21 -11 40 -24z m3174 20 c0 -2 -7 -7 -16 -10 -8 -3
-12 -2 -9 4 6 10 25 14 25 6z m-3360 -50 c0 -2 -7 -7 -16 -10 -8 -3 -12 -2 -9
4 6 10 25 14 25 6z m3325 -6 c-3 -5 -12 -10 -18 -10 -7 0 -6 4 3 10 19 12 23
12 15 0z m-3015 -10 c0 -5 -4 -10 -10 -10 -5 0 -10 5 -10 10 0 6 5 10 10 10 6
0 10 -4 10 -10z m-350 -37 c0 -5 -9 -23 -21 -42 -16 -27 -23 -31 -32 -21 -9
10 -9 14 1 17 6 3 12 11 12 19 0 8 7 14 15 14 8 0 15 5 15 10 0 6 2 10 5 10 3
0 5 -3 5 -7z m3241 -13 c-13 -11 -28 -20 -35 -20 -6 0 3 9 19 19 39 25 46 25
16 1z m-2923 -34 c-8 -6 -20 -21 -27 -34 -7 -12 -17 -20 -23 -16 -7 5 -9 0 -6
-14 4 -12 0 -26 -8 -33 -21 -18 -24 -8 -12 40 8 31 20 48 41 62 32 19 62 15
35 -5z m2667 -96 c-3 -5 -12 -10 -18 -10 -7 0 -6 4 3 10 19 12 23 12 15 0z
m-2437 -22 c-5 -14 -97 -72 -104 -66 -11 12 10 37 49 55 51 25 60 27 55 11z
m2377 -8 c-3 -5 -12 -10 -18 -10 -7 0 -6 4 3 10 19 12 23 12 15 0z m-89 -45
c-11 -8 -25 -15 -30 -15 -6 1 0 7 14 15 32 19 40 18 16 0z m-2246 -25 c0 -5
-5 -10 -11 -10 -5 0 -7 5 -4 10 3 6 8 10 11 10 2 0 4 -4 4 -10z m2100 -45 c0
-2 -13 -11 -30 -20 -38 -19 -40 -11 -2 9 31 17 32 18 32 11z m-2227 -22 c-13
-2 -23 -9 -23 -14 0 -5 -7 -9 -16 -9 -9 0 -12 -5 -8 -11 4 -7 1 -10 -7 -7 -8
3 -18 -1 -24 -8 -21 -26 -575 -292 -575 -276 0 4 -4 2 -8 -4 -13 -21 -78 -43
-93 -32 -11 8 -10 9 4 4 9 -3 17 -2 17 3 0 5 47 32 105 60 58 28 105 56 105
61 0 5 6 7 13 4 16 -6 337 152 337 166 0 6 10 10 23 10 12 1 47 14 77 29 30
16 64 29 75 28 16 0 16 -1 -2 -4z m2137 -27 c0 -2 -7 -7 -16 -10 -8 -3 -12 -2
-9 4 6 10 25 14 25 6z m-60 -30 c0 -2 -7 -7 -16 -10 -8 -3 -12 -2 -9 4 6 10
25 14 25 6z m-40 -20 c0 -2 -7 -7 -16 -10 -8 -3 -12 -2 -9 4 6 10 25 14 25 6z
m-1975 -16 c3 -6 -1 -7 -9 -4 -18 7 -21 14 -7 14 6 0 13 -4 16 -10z m1914 -14
c-2 -2 -15 -9 -29 -15 -24 -11 -24 -11 -6 3 16 13 49 24 35 12z m-2019 -35 c0
-19 -582 -298 -637 -305 -15 -2 -20 -1 -10 1 9 2 15 9 12 14 -4 5 -2 9 3 9 6
0 75 31 154 69 276 132 428 201 428 195 0 -3 10 2 22 10 26 19 28 19 28 7z
m1939 -5 c-2 -2 -15 -9 -29 -15 -24 -11 -24 -11 -6 3 16 13 49 24 35 12z m-60
-30 c-10 -9 -69 -36 -69 -32 0 7 52 35 64 36 5 0 7 -2 5 -4z m-2449 -22 c0
-15 -67 -50 -78 -40 -3 3 1 6 8 6 7 0 10 3 6 7 -4 4 8 15 26 25 41 21 38 21
38 2z m2330 -38 c0 -2 -7 -7 -16 -10 -8 -3 -12 -2 -9 4 6 10 25 14 25 6z m-61
-30 c-10 -9 -69 -36 -69 -32 0 7 52 35 64 36 5 0 7 -2 5 -4z m-99 -50 c0 -2
-7 -7 -16 -10 -8 -3 -12 -2 -9 4 6 10 25 14 25 6z m-61 -30 c-2 -2 -15 -9 -29
-15 -24 -11 -24 -11 -6 3 16 13 49 24 35 12z m-64 -36 c-3 -5 -12 -10 -18 -10
-7 0 -6 4 3 10 19 12 23 12 15 0z m-2238 -16 c-3 -3 -12 -4 -19 -1 -8 3 -5 6
6 6 11 1 17 -2 13 -5z m70 -80 c-3 -3 -12 -4 -19 -1 -8 3 -5 6 6 6 11 1 17 -2
13 -5z m563 -112 c0 -9 -65 -67 -77 -68 -20 -2 -42 -17 -37 -25 3 -5 -4 -9
-16 -9 -32 0 -82 -41 -69 -56 14 -17 -2 -45 -43 -78 -24 -19 -28 -26 -15 -26
9 0 17 -7 17 -15 0 -10 -10 -15 -29 -15 -16 0 -36 -3 -44 -6 -16 -6 -57 28
-57 47 0 7 10 9 25 5 20 -5 25 -3 25 13 0 14 -8 21 -27 23 -40 5 -42 28 -1 28
l33 1 -30 13 c-23 10 -26 14 -13 19 9 3 18 1 20 -4 2 -6 11 -7 20 -4 9 4 15
12 12 19 -5 12 39 35 216 113 80 34 90 37 90 25z m55 -32 c3 -6 -1 -7 -9 -4
-18 7 -21 14 -7 14 6 0 13 -4 16 -10z m-373 -354 c-6 -48 -12 -46 -12 5 0 22
4 38 8 35 4 -3 6 -21 4 -40z m895 -198 c-3 -7 -5 -2 -5 12 0 14 2 19 5 13 2
-7 2 -19 0 -25z m-10 -65 c-3 -10 -5 -4 -5 12 0 17 2 24 5 18 2 -7 2 -21 0
-30z m-20 -135 c-3 -8 -6 -5 -6 6 -1 11 2 17 5 13 3 -3 4 -12 1 -19z m-30
-220 c-3 -8 -6 -5 -6 6 -1 11 2 17 5 13 3 -3 4 -12 1 -19z m5167 -1380 c4 -22
18 -125 32 -227 13 -102 27 -198 30 -212 l5 -27 -398 99 c-219 55 -405 103
-413 108 -21 11 -37 141 -19 152 7 4 33 10 58 14 39 6 520 101 631 125 64 14
67 13 74 -32z m73 -540 c-3 -8 -6 -5 -6 6 -1 11 2 17 5 13 3 -3 4 -12 1 -19z
m-587 -47 c91 -22 220 -52 287 -67 67 -16 121 -29 120 -31 -2 -1 -124 -18
-272 -38 -149 -19 -282 -37 -296 -40 -26 -4 -27 -3 -38 84 -17 131 -16 142 12
136 12 -3 96 -23 187 -44z m-2737 2 c-7 -2 -21 -2 -30 0 -10 3 -4 5 12 5 17 0
24 -2 18 -5z"/>
<path d="M6150 4765 c-8 -9 -8 -15 -2 -15 12 0 26 19 19 26 -2 2 -10 -2 -17
-11z"/>
<path d="M6031 4714 c-30 -13 -61 -22 -67 -20 -7 3 -11 0 -9 -7 5 -14 -64 -48
-100 -51 -13 0 -21 -5 -17 -10 3 -5 -2 -6 -12 -3 -10 4 -15 3 -11 -3 3 -6 -2
-13 -12 -16 -10 -3 -35 -15 -56 -26 -21 -11 -45 -17 -53 -14 -9 4 -12 2 -8 -5
4 -8 -1 -9 -17 -4 -20 5 -21 4 -9 -5 12 -10 11 -11 -8 -7 -12 3 -20 2 -17 -3
6 -10 -24 -22 -36 -14 -5 3 -8 0 -7 -8 2 -8 -6 -13 -19 -12 -12 0 -19 -4 -16
-9 4 -6 -3 -8 -15 -5 -12 4 -25 1 -29 -4 -4 -7 -1 -8 7 -3 9 6 11 4 6 -4 -5
-7 -15 -10 -23 -7 -9 4 -11 2 -7 -6 5 -8 2 -9 -10 -5 -10 4 -15 3 -11 -3 5 -9
-16 -15 -38 -11 -5 1 -6 -3 -2 -9 6 -9 2 -12 -27 -14 -7 -1 -21 -9 -30 -18 -9
-9 -25 -14 -36 -11 -10 2 -26 -3 -35 -12 -9 -9 -22 -13 -28 -9 -8 4 -9 3 -5
-5 5 -7 -3 -13 -23 -17 -18 -4 -28 -11 -24 -17 4 -6 0 -8 -11 -4 -11 4 -15 3
-10 -4 4 -8 -1 -9 -17 -4 -20 5 -21 4 -9 -5 12 -10 11 -11 -8 -7 -12 3 -20 2
-17 -2 2 -5 -7 -13 -22 -20 -24 -11 -25 -11 -12 5 13 16 12 16 -8 4 -12 -8
-19 -18 -16 -23 3 -5 -5 -6 -18 -2 -20 5 -21 4 -9 -5 13 -10 12 -11 -6 -7 -11
2 -29 -2 -39 -9 -10 -8 -15 -14 -9 -14 5 -1 -22 -16 -61 -35 -42 -21 -78 -33
-90 -29 -16 4 -17 3 -5 -5 11 -8 5 -14 -30 -30 -25 -11 -37 -20 -27 -20 11 -1
31 5 45 13 30 16 104 50 112 51 24 4 50 18 50 27 0 6 9 8 20 5 11 -3 18 -1 15
3 -3 5 13 14 35 20 22 6 38 15 35 19 -2 5 1 8 8 8 6 -1 32 5 56 12 34 10 41
15 30 23 -10 7 -5 8 16 4 19 -4 25 -3 16 2 -18 12 2 24 25 15 13 -5 15 -3 9 7
-6 9 -4 11 5 5 7 -4 15 -4 19 1 14 20 111 63 128 58 13 -4 14 -3 5 3 -9 7 4
17 48 34 33 13 60 27 60 32 0 5 10 5 23 2 18 -5 19 -4 7 5 -12 10 -11 11 7 7
14 -3 21 0 20 7 -1 6 8 10 21 9 13 -2 21 1 17 7 -3 6 -1 10 5 10 6 0 24 10 40
21 16 13 36 19 45 15 9 -3 14 -2 11 3 -3 5 9 14 27 21 46 18 337 161 337 166
0 8 -15 3 -69 -22z"/>
<path d="M5980 4710 c-9 -6 -10 -10 -3 -10 6 0 15 5 18 10 8 12 4 12 -15 0z"/>
<path d="M4758 4113 c7 -3 16 -2 19 1 4 3 -2 6 -13 5 -11 0 -14 -3 -6 -6z"/>
<path d="M4715 4090 c-3 -5 -1 -10 4 -10 6 0 11 5 11 10 0 6 -2 10 -4 10 -3 0
-8 -4 -11 -10z"/>
<path d="M4675 4080 c3 -6 1 -10 -6 -10 -7 0 -10 -3 -6 -6 3 -3 13 -2 22 4 16
8 16 9 1 15 -10 4 -15 3 -11 -3z"/>
<path d="M4750 4080 c-8 -5 -10 -10 -5 -10 6 0 17 5 25 10 8 5 11 10 5 10 -5
0 -17 -5 -25 -10z"/>
<path d="M4546 3998 c3 -4 11 -5 19 -1 21 7 19 12 -4 10 -11 0 -18 -5 -15 -9z"/>
<path d="M4500 3990 c12 -8 12 -10 1 -10 -8 0 -12 -2 -10 -5 3 -2 15 -2 28 2
17 4 19 8 9 14 -7 5 -20 9 -28 9 -13 0 -13 -1 0 -10z"/>
<path d="M4428 3963 c7 -3 16 -2 19 1 4 3 -2 6 -13 5 -11 0 -14 -3 -6 -6z"/>
<path d="M4370 3945 c-14 -8 -20 -14 -14 -15 5 0 19 7 30 15 24 18 16 19 -16
0z"/>
<path d="M4375 3925 c-40 -19 -16 -19 26 0 19 8 27 14 19 14 -8 0 -28 -7 -45
-14z"/>
<path d="M4252 3885 c-7 -8 -21 -15 -32 -15 -10 0 -21 -4 -25 -9 -3 -6 6 -6
25 -1 16 5 30 6 30 3 0 -3 7 0 15 7 16 13 20 30 8 30 -5 -1 -14 -7 -21 -15z"/>
<path d="M4290 3879 c0 -5 5 -7 10 -4 6 3 10 8 10 11 0 2 -4 4 -10 4 -5 0 -10
-5 -10 -11z"/>
<path d="M4166 3838 c4 -6 -2 -8 -17 -4 -21 6 -22 6 -5 -5 12 -7 25 -8 39 -2
l21 10 -22 5 c-14 4 -20 2 -16 -4z"/>
<path d="M6381 3834 c0 -11 3 -14 6 -6 3 7 2 16 -1 19 -3 4 -6 -2 -5 -13z"/>
<path d="M4090 3790 c-14 -11 -21 -20 -17 -20 11 0 67 29 67 35 0 11 -27 3
-50 -15z"/>
<path d="M3981 3761 c-10 -6 -9 -10 3 -14 8 -3 18 -2 21 3 8 13 -9 20 -24 11z"/>
<path d="M4038 3763 c7 -3 16 -2 19 1 4 3 -2 6 -13 5 -11 0 -14 -3 -6 -6z"/>
<path d="M3950 3719 c0 -5 5 -7 10 -4 6 3 10 8 10 11 0 2 -4 4 -10 4 -5 0 -10
-5 -10 -11z"/>
<path d="M3877 3699 c7 -7 15 -10 18 -7 3 3 -2 9 -12 12 -14 6 -15 5 -6 -5z"/>
<path d="M3705 3610 c3 -5 10 -10 16 -10 5 0 9 5 9 10 0 6 -7 10 -16 10 -8 0
-12 -4 -9 -10z"/>
<path d="M3885 3374 l0 -206 -55 -21 c-30 -11 -49 -22 -42 -25 20 -6 95 29
161 75 6 4 3 127 -5 271 l-6 112 -27 0 -26 0 0 -206z"/>
<path d="M3513 3513 c0 -8 6 -9 19 -2 10 5 18 11 18 12 0 2 -8 3 -18 3 -10 0
-19 -6 -19 -13z"/>
<path d="M3390 3470 c-8 -5 -10 -10 -5 -10 6 0 17 5 25 10 8 5 11 10 5 10 -5
0 -17 -5 -25 -10z"/>
<path d="M4475 3417 c-30 -10 -103 -53 -75 -44 8 2 26 8 39 12 18 5 22 4 16
-6 -6 -9 -3 -11 9 -6 31 12 36 -37 36 -356 -1 -238 -4 -321 -15 -350 -11 -32
-11 -44 0 -70 15 -39 27 -612 14 -697 -7 -47 -14 -61 -49 -92 -27 -24 -55 -39
-83 -43 -23 -4 -54 -14 -69 -21 -15 -8 -43 -16 -64 -19 -20 -2 -41 -8 -48 -13
-6 -5 -45 -17 -86 -27 -41 -10 -88 -23 -105 -30 -50 -22 -118 -32 -158 -23
-33 7 -43 5 -68 -16 -15 -13 -61 -34 -101 -46 -40 -11 -80 -25 -90 -30 -9 -5
-39 -12 -67 -16 -28 -4 -51 -11 -51 -16 0 -5 -6 -8 -12 -7 -22 4 -98 -12 -104
-22 -3 -5 -18 -9 -34 -9 -16 0 -32 -4 -35 -10 -8 -13 -67 0 -83 19 -22 29 8
649 34 688 12 20 13 27 1 51 -8 15 -12 33 -9 41 2 8 0 11 -5 8 -6 -4 -13 -71
-17 -149 -4 -79 -13 -251 -21 -383 -22 -365 -22 -340 -5 -339 17 2 125 32 340
93 80 23 183 53 230 66 105 30 422 119 634 177 l158 43 -7 520 c-4 286 -10
658 -14 826 l-6 306 -30 -10z"/>
<path d="M3010 3295 c-23 -13 -21 -16 12 -19 6 -1 12 7 14 17 1 9 2 17 1 17
-1 -1 -13 -7 -27 -15z"/>
<path d="M2977 3269 c7 -7 15 -10 18 -7 3 3 -2 9 -12 12 -14 6 -15 5 -6 -5z"/>
<path d="M2897 3243 c-4 -3 -7 -11 -7 -17 0 -6 5 -5 12 2 6 6 9 14 7 17 -3 3
-9 2 -12 -2z"/>
<path d="M2820 3207 c-14 -8 -32 -12 -40 -9 -13 3 -13 2 0 -7 10 -7 18 -7 27
0 6 6 22 8 35 4 16 -4 19 -3 9 3 -11 8 -11 10 0 15 8 3 10 6 4 6 -5 1 -21 -5
-35 -12z"/>
<path d="M2750 3180 c0 -6 7 -10 15 -10 8 0 15 2 15 4 0 2 -7 6 -15 10 -8 3
-15 1 -15 -4z"/>
<path d="M2688 3146 c3 -5 -2 -6 -12 -3 -11 4 -15 3 -11 -4 4 -6 1 -9 -7 -7
-7 2 -26 -7 -42 -20 -21 -16 -24 -22 -12 -22 9 0 19 6 22 13 5 14 10 16 57 20
15 1 27 6 26 12 0 5 8 12 18 16 12 5 8 7 -14 6 -17 -1 -29 -6 -25 -11z"/>
<path d="M3770 3060 c0 -12 -7 -20 -16 -20 -14 0 -14 2 -3 16 12 14 9 14 -26
0 -48 -20 -59 -31 -23 -22 22 5 26 3 22 -9 -5 -12 -1 -13 25 -4 23 8 31 17 31
35 0 13 -2 24 -5 24 -3 0 -5 -9 -5 -20z"/>
<path d="M2490 3056 c-23 -9 -30 -15 -20 -18 8 -3 2 -4 -15 -2 -26 3 -27 2
-11 -7 22 -14 108 7 87 21 -11 6 -11 9 0 13 29 11 -8 5 -41 -7z m27 -12 c-3
-3 -12 -4 -19 -1 -8 3 -5 6 6 6 11 1 17 -2 13 -5z"/>
<path d="M3638 3023 c-10 -2 -18 -9 -18 -14 0 -14 26 -11 40 6 13 15 9 16 -22
8z"/>
<path d="M3665 3001 c-3 -5 -1 -12 5 -16 5 -3 10 1 10 9 0 18 -6 21 -15 7z"/>
<path d="M2315 2981 c-22 -11 -35 -19 -30 -19 14 -1 93 36 80 37 -5 0 -28 -8
-50 -18z"/>
<path d="M3480 2959 c-58 -22 -119 -46 -137 -54 -17 -8 -38 -15 -46 -15 -9 0
-19 -4 -22 -10 -3 -5 -13 -130 -21 -277 -8 -148 -16 -285 -18 -305 -1 -21 -2
-38 -1 -38 3 0 165 58 233 83 34 13 59 26 56 30 -4 4 -2 7 4 7 16 0 15 27 0
37 -7 4 -35 10 -62 13 -77 8 -71 30 7 30 43 0 67 -4 70 -12 4 -10 6 -10 6 0 1
6 8 12 16 12 20 0 19 -36 -1 -44 -9 -3 -14 -13 -11 -20 3 -8 1 -17 -6 -20 -9
-3 -9 -5 0 -5 16 -1 64 44 56 52 -10 10 12 8 43 -3 16 -6 31 -7 38 -1 6 5 26
12 44 16 31 6 32 8 32 57 0 60 -8 59 -18 -2 -4 -25 -14 -45 -22 -47 -13 -4
-13 -3 -1 5 10 7 12 22 8 51 -3 23 -1 41 4 41 5 0 9 5 9 10 0 15 -29 12 -46
-4 -8 -8 -14 -29 -14 -46 l0 -32 -52 7 c-29 4 -57 11 -63 16 -12 12 -45 11
-45 -1 0 -5 -20 -10 -44 -10 -25 0 -48 5 -51 10 -3 6 -14 10 -24 10 -36 0 -58
42 -64 123 -4 63 -3 77 9 77 9 0 14 11 14 34 0 19 9 51 21 71 12 19 18 42 15
50 -4 10 1 15 17 16 21 1 21 1 -3 9 -24 8 -24 8 7 9 37 1 50 16 33 36 -8 9 -8
15 -2 15 6 0 18 3 28 7 13 5 15 3 9 -7 -6 -10 0 -11 31 -5 55 10 80 27 29 20
l-40 -6 50 25 c73 36 45 31 -75 -15z m-50 -43 c0 -11 -19 -15 -25 -6 -3 5 1
10 9 10 9 0 16 -2 16 -4z m-60 -26 c-12 -8 -12 -10 -1 -10 8 0 12 -3 8 -6 -9
-9 -28 6 -22 17 4 5 12 9 18 9 7 0 6 -4 -3 -10z m-103 -422 c-3 -8 -6 -5 -6 6
-1 11 2 17 5 13 3 -3 4 -12 1 -19z m416 -28 c7 0 8 -3 1 -10 -12 -12 -56 -1
-48 12 3 5 13 7 21 4 8 -3 20 -6 26 -6z m-245 -77 c18 -4 20 -8 10 -14 -7 -5
-20 -9 -28 -9 -13 0 -13 1 0 11 11 8 8 9 -15 5 -22 -5 -26 -4 -15 4 18 12 18
12 48 3z m59 1 c-3 -3 -12 -4 -19 -1 -8 3 -5 6 6 6 11 1 17 -2 13 -5z"/>
<path d="M3596 2957 c3 -10 9 -15 12 -12 3 3 0 11 -7 18 -10 9 -11 8 -5 -6z"/>
<path d="M2230 2930 c-8 -5 -10 -10 -5 -10 6 0 17 5 25 10 8 5 11 10 5 10 -5
0 -17 -5 -25 -10z"/>
<path d="M3306 2931 c-3 -4 -19 -11 -36 -14 -28 -6 -30 -9 -29 -49 l1 -43 9
32 c6 20 24 42 47 58 20 14 31 25 25 25 -7 0 -14 -4 -17 -9z"/>
<path d="M3764 2770 c0 -74 1 -105 3 -67 2 37 2 97 0 135 -2 37 -3 6 -3 -68z"/>
<path d="M3233 2740 c0 -30 2 -43 4 -27 2 15 2 39 0 55 -2 15 -4 2 -4 -28z"/>
<path d="M3223 2500 c0 -41 2 -58 4 -37 2 20 2 54 0 75 -2 20 -4 3 -4 -38z"/>
<path d="M3655 2530 c-3 -5 -1 -10 4 -10 6 0 11 5 11 10 0 6 -2 10 -4 10 -3 0
-8 -4 -11 -10z"/>
<path d="M1882 2475 c0 -16 2 -22 5 -12 2 9 2 23 0 30 -3 6 -5 -1 -5 -18z"/>
<path d="M3208 2350 c-2 -39 0 -70 5 -70 4 0 7 32 7 70 0 39 -2 70 -4 70 -2 0
-6 -32 -8 -70z"/>
<path d="M3628 2403 c7 -3 16 -2 19 1 4 3 -2 6 -13 5 -11 0 -14 -3 -6 -6z"/>
<path d="M1835 2152 c-15 -125 -30 -243 -33 -262 -2 -19 -1 -32 2 -29 8 8 12
29 20 104 4 33 11 87 16 120 14 96 33 285 29 290 -3 2 -18 -98 -34 -223z"/>
<path d="M3742 1925 c0 -16 2 -22 5 -12 2 9 2 23 0 30 -3 6 -5 -1 -5 -18z"/>
<path d="M3213 1780 c0 -25 2 -35 4 -22 2 12 2 32 0 45 -2 12 -4 2 -4 -23z"/>
<path d="M3733 1700 c0 -25 2 -35 4 -22 2 12 2 32 0 45 -2 12 -4 2 -4 -23z"/>
<path d="M3708 1714 c-5 -4 -8 -17 -8 -28 0 -17 -2 -18 -10 -6 -8 12 -10 11
-10 -7 0 -12 -6 -23 -12 -26 -7 -2 1 -2 17 1 38 6 37 4 33 42 -2 18 -6 28 -10
24z"/>
<path d="M3200 1660 c0 -20 -3 -64 -6 -98 l-7 -60 87 26 86 26 -40 18 c-28 13
-42 27 -46 46 -4 15 -14 35 -23 46 -9 10 -16 21 -16 24 0 3 -8 7 -17 7 -14 1
-18 -6 -18 -35z m87 -116 c-3 -3 -12 -4 -19 -1 -8 3 -5 6 6 6 11 1 17 -2 13
-5z"/>
<path d="M3575 1625 c-39 -14 -40 -14 -5 -8 41 7 82 22 60 22 -8 0 -33 -7 -55
-14z"/>
<path d="M3475 1603 c-16 -3 -32 -8 -35 -13 -3 -4 -21 -13 -40 -18 -19 -6 -28
-11 -19 -11 8 -1 46 10 85 23 68 24 69 27 9 19z"/>
<path d="M1881 1164 c0 -11 3 -14 6 -6 3 7 2 16 -1 19 -3 4 -6 -2 -5 -13z"/>
<path d="M1871 1084 c0 -11 3 -14 6 -6 3 7 2 16 -1 19 -3 4 -6 -2 -5 -13z"/>
<path d="M1863 980 c0 -25 2 -35 4 -22 2 12 2 32 0 45 -2 12 -4 2 -4 -23z"/>
<path d="M1851 874 c0 -11 3 -14 6 -6 3 7 2 16 -1 19 -3 4 -6 -2 -5 -13z"/>
<path d="M1842 830 c0 -14 2 -19 5 -12 2 6 2 18 0 25 -3 6 -5 1 -5 -13z"/>
<path d="M1822 640 c0 -14 2 -19 5 -12 2 6 2 18 0 25 -3 6 -5 1 -5 -13z"/>
<path d="M305 4980 c3 -5 8 -10 11 -10 2 0 4 5 4 10 0 6 -5 10 -11 10 -5 0 -7
-4 -4 -10z"/>
<path d="M505 4940 c-3 -6 1 -7 9 -4 18 7 21 14 7 14 -6 0 -13 -4 -16 -10z"/>
<path d="M705 4070 c-3 -5 -1 -10 4 -10 6 0 11 5 11 10 0 6 -2 10 -4 10 -3 0
-8 -4 -11 -10z"/>
<path d="M5623 370 c0 -25 2 -35 4 -22 2 12 2 32 0 45 -2 12 -4 2 -4 -23z"/>
<path d="M5629 264 l-2 -39 -8 35 c-5 22 -6 7 -2 -41 l5 -77 -68 -11 c-38 -6
-213 -32 -389 -57 -176 -25 -322 -48 -324 -50 -15 -15 47 -8 389 41 210 30
386 52 391 50 4 -3 10 7 12 22 3 16 2 -9 0 -54 -5 -73 -3 -83 11 -83 14 0 16
10 14 63 l-3 62 75 10 c57 8 69 12 50 18 -14 3 -49 4 -77 0 -41 -4 -53 -3 -53
8 -1 34 -13 134 -16 138 -2 2 -5 -13 -5 -35z m18 -226 c-3 -8 -6 -5 -6 6 -1
11 2 17 5 13 3 -3 4 -12 1 -19z"/>
<path d="M4745 10 c-4 -6 12 -10 42 -10 35 0 44 3 33 10 -20 13 -67 13 -75 0z"/>
</g>
</svg>
