<?xml version="1.0" standalone="no"?>
<!DOCTYPE svg PUBLIC "-//W3C//DTD SVG 20010904//EN"
 "http://www.w3.org/TR/2001/REC-SVG-20010904/DTD/svg10.dtd">
<svg version="1.0" xmlns="http://www.w3.org/2000/svg"
 width="360.000000pt" height="240.000000pt" viewBox="0 0 360.000000 240.000000"
 preserveAspectRatio="xMidYMid meet">

<g transform="translate(0.000000,240.000000) scale(0.100000,-0.100000)"
fill="#000000" stroke="none">
<path d="M44 2365 c0 -19 3 -32 8 -29 5 3 81 5 168 5 l160 -2 0 31 0 30 -168
0 -167 0 -1 -35z"/>
<path d="M720 2361 c0 -22 5 -43 10 -46 6 -4 10 -179 10 -492 0 -475 0 -486
-21 -519 -11 -19 -29 -34 -38 -34 -32 0 -31 -13 0 -32 l32 -19 -34 -31 -33
-31 22 -15 c25 -16 30 -52 7 -52 -8 0 -22 15 -30 33 -8 17 -23 46 -34 62 -10
17 -17 33 -15 36 7 12 -21 28 -34 20 -9 -6 -2 -21 28 -57 25 -30 47 -70 56
-104 9 -30 18 -63 20 -72 3 -10 1 -18 -5 -18 -6 0 -11 -10 -11 -23 0 -13 -6
-29 -12 -36 -11 -11 -10 -13 3 -8 13 4 16 1 12 -16 -4 -18 -3 -19 6 -7 10 14
16 7 12 -14 -1 -5 6 -6 16 -3 16 6 16 5 1 -5 -14 -11 -13 -14 13 -39 l29 -27
-2 -144 c-1 -123 1 -151 19 -198 l21 -55 0 54 c1 58 16 87 32 61 5 -8 7 -24 4
-35 -4 -14 -3 -17 4 -10 12 11 18 185 8 206 -4 8 0 5 9 -6 30 -38 30 -74 -1
-298 -4 -30 -2 -37 12 -37 9 0 28 12 41 28 l25 27 -6 -27 -6 -28 75 0 75 0 0
29 c0 53 22 58 98 22 38 -17 77 -31 88 -31 21 0 5 9 -98 54 -67 29 -70 38 -34
120 20 44 22 56 10 60 -8 3 -14 16 -15 28 0 13 -8 48 -18 78 -13 41 -21 54
-34 52 -22 -4 -22 7 0 23 14 11 15 15 4 28 -7 9 -10 20 -7 25 3 5 -5 7 -17 6
-12 -1 -31 -3 -42 -4 -15 -1 -16 -3 -5 -7 8 -3 26 -14 39 -24 l24 -19 -34 0
c-25 0 -30 -3 -19 -10 8 -5 11 -12 7 -16 -4 -4 -2 -13 4 -21 8 -9 8 -13 1 -13
-6 0 -14 5 -17 10 -3 6 -11 10 -17 10 -6 0 -2 -12 8 -27 l17 -28 -28 19 c-15
10 -24 13 -20 6 6 -9 3 -10 -10 -2 -15 8 -23 4 -43 -19 -13 -16 -28 -27 -33
-23 -17 10 -9 48 18 76 31 32 25 50 -6 19 l-21 -21 0 35 c0 20 15 75 34 123
18 48 37 98 41 112 10 34 74 161 90 180 11 12 26 135 24 190 0 8 -2 40 -4 70
-1 30 -6 156 -10 280 -4 124 -11 230 -15 235 -4 6 -10 23 -14 39 -7 27 -8 28
-23 13 -11 -11 -18 -44 -23 -102 -4 -47 -11 -90 -17 -96 -11 -11 -73 43 -73
66 0 8 -11 22 -24 30 -18 12 -25 28 -29 63 -3 26 -11 75 -18 110 -16 78 -5
117 31 117 43 0 53 13 47 59 -9 60 0 82 39 101 19 9 34 18 34 20 0 3 -47 5
-105 5 l-105 0 0 -39z m203 -978 c11 -7 -1 -151 -14 -175 -19 -36 -79 -9 -65
28 4 10 0 41 -9 71 -21 73 -9 98 43 88 20 -4 41 -9 45 -12z m-213 -374 c0 -10
-4 -19 -10 -19 -5 0 -10 12 -10 26 0 14 4 23 10 19 6 -3 10 -15 10 -26z m41
-434 c-8 -65 -8 -67 -10 -20 -1 47 8 100 15 93 1 -2 -1 -35 -5 -73z m239 -59
c0 -19 -27 -28 -34 -11 -3 9 0 12 10 8 7 -3 14 0 14 6 0 6 2 11 5 11 3 0 5 -6
5 -14z"/>
<path d="M1400 2271 c0 -104 3 -130 15 -134 8 -4 16 -3 18 1 3 4 5 64 6 135 1
121 0 127 -19 127 -19 0 -20 -7 -20 -129z"/>
<path d="M2235 2384 c33 -8 70 -17 83 -21 15 -3 31 -22 44 -49 33 -72 34 -70
29 64 -1 21 -4 22 -108 21 l-108 -1 60 -14z"/>
<path d="M2554 2295 c0 -60 1 -84 3 -52 2 32 2 81 0 110 -2 29 -3 3 -3 -58z"/>
<path d="M2628 2283 l-3 -118 -32 0 -33 0 -1 -135 c-1 -232 -9 -564 -14 -569
-3 -2 -5 154 -5 349 l0 353 -70 -7 c-54 -6 -70 -4 -71 6 0 7 -4 4 -9 -7 -5
-11 -9 -198 -9 -416 -1 -388 -1 -397 19 -402 26 -7 37 -37 19 -51 -12 -9 -6
-19 33 -57 56 -53 62 -50 95 41 11 30 26 56 32 58 15 5 14 -17 -4 -68 -20 -55
-13 -63 9 -10 16 40 36 54 36 25 0 -9 -7 -32 -15 -51 -13 -31 -13 -35 0 -30 8
3 17 1 20 -4 7 -11 -90 -117 -124 -135 -14 -7 -62 -47 -106 -89 -44 -41 -91
-84 -104 -96 -24 -23 -25 -37 -5 -129 5 -25 4 -32 -4 -27 -7 4 -12 1 -12 -9 0
-11 5 -15 14 -12 9 4 16 -3 20 -16 10 -36 7 -87 -5 -87 -7 0 -10 -14 -7 -35 2
-19 2 -32 0 -30 -9 8 -43 -45 -36 -56 4 -7 -1 -10 -12 -7 -16 3 -71 -39 -62
-47 2 -2 41 3 88 11 47 7 104 14 127 14 l41 0 89 263 88 262 60 7 c70 8 508
50 545 52 31 1 31 -3 -15 -129 -77 -209 -118 -321 -135 -365 -10 -25 -28 -72
-40 -105 -28 -74 -34 -82 -68 -88 -15 -2 -148 -33 -297 -67 -148 -34 -277 -63
-285 -64 -10 -1 -14 7 -13 22 3 20 -2 22 -40 22 -23 0 -78 5 -122 10 -192 25
-490 58 -494 54 -2 -2 25 -17 60 -33 46 -21 97 -34 184 -45 403 -53 432 -54
606 -30 63 9 193 18 289 20 157 2 179 1 216 -17 36 -17 59 -19 180 -17 l139 3
13 35 12 35 -5 -37 c-3 -21 -2 -38 2 -38 4 0 26 27 47 60 22 33 43 60 48 60 4
0 5 -28 2 -63 -6 -73 7 -60 25 24 6 31 19 65 27 75 14 17 15 14 9 -36 -3 -30
-11 -70 -18 -88 -11 -31 -10 -35 13 -53 14 -10 29 -19 33 -19 8 0 2 1548 -6
1605 -2 17 -5 48 -7 70 l-2 40 -9 -32 c-5 -18 -15 -32 -22 -30 -9 1 -14 -38
-20 -148 -9 -166 -17 -200 -52 -209 -18 -5 -27 -17 -35 -49 -17 -65 -18 -67
-40 -67 -27 0 -25 -10 7 -36 32 -26 26 -49 -16 -57 -41 -8 -41 -35 -1 -43 39
-8 38 -20 -2 -28 -52 -11 -412 -16 -401 -5 5 5 38 9 73 9 78 1 233 19 250 30
23 14 -1 30 -43 30 -54 0 -111 16 -127 35 -11 13 -9 20 11 41 l23 25 -26 24
c-24 22 -26 29 -17 57 16 58 16 58 -73 58 -91 1 -110 9 -128 56 l-12 29 -19
-50 c-11 -27 -27 -75 -35 -105 -9 -30 -21 -61 -26 -67 -7 -8 -35 -13 -73 -13
-51 0 -64 3 -70 18 -10 27 -6 204 6 218 6 7 25 14 42 16 31 3 32 4 38 63 4 33
9 155 13 270 3 116 9 274 12 353 l7 142 -91 0 -91 0 -3 -117z m-81 -960 c-3
-10 -5 -4 -5 12 0 17 2 24 5 18 2 -7 2 -21 0 -30z m463 -73 c0 -5 -4 -10 -10
-10 -5 0 -10 5 -10 10 0 6 5 10 10 10 6 0 10 -4 10 -10z m-693 -454 c-4 -9
-11 -16 -16 -16 -13 0 -24 37 -15 51 10 16 38 -16 31 -35z m28 -195 c3 -5 1
-12 -5 -16 -5 -3 -10 1 -10 9 0 18 6 21 15 7z m1195 -95 c0 -3 -4 -8 -10 -11
-5 -3 -10 -1 -10 4 0 6 5 11 10 11 6 0 10 -2 10 -4z m4 -35 c4 -5 1 -11 -5
-13 -7 -2 -13 -16 -15 -30 -6 -58 -82 -184 -100 -166 -10 11 -13 141 -3 160 7
13 6 18 -3 19 -10 0 -10 2 0 6 17 7 15 21 -5 26 -10 3 14 5 54 6 39 0 74 -3
77 -8z"/>
<path d="M3448 453 c6 -2 18 -2 25 0 6 3 1 5 -13 5 -14 0 -19 -2 -12 -5z"/>
<path d="M2862 2268 l3 -133 138 2 c99 1 150 6 178 17 26 10 71 16 129 16 49
0 100 4 113 9 15 6 41 6 68 0 54 -12 69 3 69 72 0 31 6 55 20 72 11 14 20 37
20 51 l0 26 -370 0 -371 0 3 -132z"/>
<path d="M1563 2050 c-6 -23 -14 -25 -32 -7 -11 10 -12 9 -6 -3 8 -13 6 -13
-8 -1 -14 11 -18 11 -23 -3 -3 -9 -11 -16 -18 -15 -19 2 -56 -13 -51 -21 3 -4
-8 -10 -24 -13 -18 -4 -32 -15 -36 -27 -4 -11 -10 -18 -15 -15 -4 3 -6 -4 -3
-15 3 -12 0 -20 -6 -20 -7 0 -9 -4 -6 -10 4 -6 -1 -7 -11 -3 -13 5 -16 3 -11
-10 4 -11 1 -17 -9 -17 -11 0 -13 -6 -9 -20 5 -16 3 -19 -11 -13 -14 5 -15 3
-5 -15 7 -14 8 -23 1 -27 -17 -10 -12 -75 5 -75 18 0 21 -60 4 -77 -8 -8 -5
-13 10 -18 12 -3 21 -15 21 -26 0 -11 7 -22 15 -25 8 -4 15 -14 15 -24 0 -10
7 -23 15 -30 8 -6 14 -15 13 -18 -3 -15 15 -42 27 -42 7 0 19 -7 26 -16 7 -9
37 -30 66 -46 29 -16 51 -35 50 -41 -1 -7 15 -13 41 -15 37 -3 42 -6 42 -28 0
-13 -4 -24 -8 -24 -5 0 -9 -7 -9 -16 0 -12 9 -15 44 -12 35 3 40 1 28 -8 -11
-8 -12 -13 -4 -16 7 -2 -10 -18 -37 -36 -81 -51 -111 -83 -124 -131 -9 -35 -9
-45 2 -52 10 -7 10 -9 -3 -9 -11 0 -16 -9 -16 -30 0 -37 8 -38 33 -5 16 22 20
23 25 8 3 -10 10 8 18 45 7 34 16 62 22 62 5 0 26 7 47 17 20 9 50 18 66 20
16 3 39 11 52 20 13 8 27 12 33 9 5 -3 12 0 14 6 4 11 6 11 6 0 1 -8 6 -9 19
-3 9 5 38 15 65 22 26 6 50 16 53 20 3 5 10 9 16 9 6 0 3 -9 -7 -20 -10 -11
-26 -20 -37 -20 -22 0 -24 -16 -3 -27 12 -7 11 -14 -11 -45 -17 -23 -24 -46
-22 -64 l3 -29 20 40 c22 45 99 125 121 125 8 0 14 -10 14 -25 0 -14 5 -25 10
-25 6 0 10 6 10 14 0 8 4 17 9 21 13 7 4 -76 -9 -89 -5 -5 -11 -26 -11 -46 -1
-19 -3 -27 -6 -17 -4 14 -11 10 -43 -23 -21 -22 -42 -39 -47 -38 -18 6 -15 -9
10 -49 29 -45 33 -68 17 -78 -6 -4 -18 11 -27 34 -20 50 -73 87 -104 71 -21
-12 -26 -36 -8 -42 14 -5 -11 -67 -34 -87 -25 -20 -20 -60 15 -121 77 -136 82
-152 50 -169 -10 -5 -72 -12 -138 -15 -65 -3 -126 -7 -135 -9 -41 -7 -62 -51
-40 -85 12 -19 202 -10 253 12 21 9 54 16 75 16 l38 -1 -30 -14 c-29 -13 -29
-13 35 -15 99 -3 164 5 144 18 -6 4 -14 24 -17 44 -5 32 -2 40 21 57 15 11 24
23 19 27 -4 4 -18 -3 -32 -16 -25 -23 -33 -18 -15 10 6 9 5 17 -3 22 -9 6 -8
8 2 8 11 0 11 3 1 15 -10 12 -9 15 6 15 15 0 16 2 5 9 -18 12 -25 71 -8 71 6
0 4 5 -5 11 -19 11 -25 49 -8 49 6 0 10 6 10 14 0 8 7 22 16 30 14 15 13 16
-8 16 -16 0 -19 3 -10 9 8 4 13 11 13 15 -3 18 1 19 10 4 5 -10 19 -18 29 -18
25 0 35 -17 20 -36 -11 -12 -9 -14 11 -12 20 3 24 -1 23 -25 0 -15 3 -24 7
-20 11 14 69 190 69 213 0 16 4 20 15 16 17 -6 21 19 5 29 -16 10 -12 47 10
90 29 58 27 65 -25 65 -34 0 -47 5 -55 19 -5 11 -10 21 -10 24 0 2 28 4 61 4
65 1 88 16 75 50 -4 8 -2 21 4 28 8 10 5 17 -16 27 -29 14 -36 23 -58 81 -10
24 -21 37 -33 37 -10 0 -29 7 -41 16 -18 13 -22 25 -22 73 0 32 -3 99 -6 149
-6 77 -10 91 -25 95 -17 5 -19 16 -19 106 0 99 -1 102 -26 113 -18 9 -30 9
-42 1 -14 -9 -17 -31 -18 -146 -1 -142 -8 -167 -44 -167 -30 0 -50 -11 -43
-24 4 -8 3 -8 -6 0 -9 8 -8 18 4 40 19 37 19 53 -2 76 -9 10 -11 18 -6 18 7 0
8 13 3 37 -5 20 -7 40 -4 45 5 8 -31 48 -43 48 -5 0 -8 17 -8 37 0 29 -4 38
-17 38 -10 0 -30 14 -45 30 -30 33 -73 55 -103 55 -11 0 -20 3 -20 8 0 12 -52
32 -83 32 -20 0 -30 -6 -34 -20z m65 -245 c2 -2 -13 -19 -33 -39 -30 -31 -35
-42 -33 -75 2 -41 -14 -71 -39 -71 -7 0 -25 -7 -38 -16 -20 -13 -25 -14 -25
-3 0 11 -2 11 -9 0 -6 -9 -6 -22 0 -33 8 -14 22 -18 69 -18 63 0 90 -16 42
-26 -23 -5 -28 -10 -25 -25 9 -31 -43 -45 -84 -22 -52 28 -64 54 -66 141 -2
102 20 145 76 150 29 2 40 9 47 26 8 21 13 23 62 18 29 -2 54 -6 56 -7z m-153
-5 c3 -5 -3 -10 -15 -10 -12 0 -18 5 -15 10 3 6 10 10 15 10 5 0 12 -4 15 -10z
m208 -37 c-7 -2 -13 -11 -13 -19 0 -8 -9 -14 -20 -14 -11 0 -20 6 -20 14 0 16
15 24 45 24 11 0 14 -2 8 -5z m-376 -29 c-3 -3 -12 -4 -19 -1 -8 3 -5 6 6 6
11 1 17 -2 13 -5z m359 -32 c26 -21 35 -65 22 -104 l-10 -29 -17 23 c-34 49
-47 85 -40 107 10 25 17 26 45 3z m-286 -123 c0 -22 -6 -24 -24 -7 -9 9 -10
15 -2 24 14 15 26 8 26 -17z m191 12 c-11 -7 -9 -10 10 -14 21 -4 21 -5 -6 -6
-16 -2 -40 -4 -52 -5 -13 -2 -23 2 -23 7 0 5 -8 6 -17 3 -15 -5 -15 -4 1 9 11
8 38 15 60 15 28 0 37 -3 27 -9z m339 -15 c0 -2 -8 -10 -17 -17 -16 -13 -17
-12 -4 4 13 16 21 21 21 13z m-240 -36 c0 -5 -5 -10 -11 -10 -5 0 -7 5 -4 10
3 6 8 10 11 10 2 0 4 -4 4 -10z m200 0 c0 -5 -2 -10 -4 -10 -3 0 -8 5 -11 10
-3 6 -1 10 4 10 6 0 11 -4 11 -10z m-62 -155 c-3 -3 -9 2 -12 12 -6 14 -5 15
5 6 7 -7 10 -15 7 -18z m90 -59 c3 -15 1 -16 -16 -7 -12 6 -31 12 -44 12 -19
1 -18 3 7 9 39 10 49 7 53 -14z m-138 -10 c0 -2 -8 -10 -17 -17 -16 -13 -17
-12 -4 4 13 16 21 21 21 13z m485 -266 c3 -5 1 -10 -4 -10 -6 0 -11 5 -11 10
0 6 2 10 4 10 3 0 8 -4 11 -10z m-146 -109 c0 -3 -6 -22 -13 -41 l-13 -35 -5
33 c-2 17 0 32 5 32 5 0 7 7 4 14 -4 10 -1 13 9 9 7 -3 14 -8 13 -12z m-132
-517 c-3 -3 -12 -4 -19 -1 -8 3 -5 6 6 6 11 1 17 -2 13 -5z m-337 -24 c11 -7
7 -10 -18 -10 -20 0 -31 4 -27 10 8 13 26 13 45 0z"/>
<path d="M1485 1741 c-6 -5 -21 -11 -35 -14 -14 -2 -4 -5 23 -6 34 -1 47 3 45
11 -6 16 -22 20 -33 9z"/>
<path d="M3575 2010 c-3 -5 -1 -10 4 -10 6 0 11 5 11 10 0 6 -2 10 -4 10 -3 0
-8 -4 -11 -10z"/>
<path d="M43 1400 c0 -47 2 -66 4 -42 2 23 2 61 0 85 -2 23 -4 4 -4 -43z"/>
<path d="M1416 1375 c3 -27 7 -68 10 -90 l4 -40 -15 30 c-7 17 -12 38 -9 48
10 33 -4 16 -30 -36 -14 -30 -26 -56 -26 -58 0 -2 23 -2 50 -1 39 3 50 1 48
-10 -2 -7 4 -13 13 -13 9 0 25 -7 35 -15 15 -13 15 -9 -4 21 -25 41 -21 49 25
49 26 0 33 4 33 20 0 11 6 20 13 21 6 1 1 4 -13 8 -14 4 -30 4 -36 0 -12 -10
-78 54 -94 91 -8 21 -9 16 -4 -25z"/>
<path d="M1338 1333 c-10 -2 -18 -11 -18 -18 0 -24 14 -24 33 1 18 24 17 26
-15 17z"/>
<path d="M295 1270 c-26 -10 -9 -17 64 -25 53 -5 87 7 75 26 -6 11 -112 11
-139 -1z"/>
<path d="M2370 1274 c0 -3 5 -14 10 -25 8 -14 7 -25 -2 -41 -7 -13 -13 -30
-14 -38 -1 -8 -4 -22 -8 -30 -4 -10 9 -23 38 -41 l44 -27 7 32 c18 73 16 80
-30 129 -25 25 -45 44 -45 41z"/>
<path d="M510 1241 c0 -6 -9 -30 -19 -51 -16 -33 -17 -41 -5 -51 8 -6 12 -15
9 -19 -3 -4 1 -12 8 -18 9 -8 12 -1 13 26 1 21 -4 40 -9 44 -7 4 -6 17 3 37 7
18 10 34 6 38 -3 3 -6 1 -6 -6z"/>
<path d="M47 1058 c2 -94 5 -174 8 -176 3 -3 5 20 5 52 0 49 2 57 18 54 9 -2
17 -10 17 -19 0 -8 10 -28 23 -43 30 -39 30 -99 0 -120 -30 -21 -58 -20 -59 2
-1 11 -4 9 -9 -8 -4 -14 -8 -127 -9 -252 l-1 -228 58 0 c31 0 195 5 364 12
l306 12 -22 30 c-50 67 -116 227 -148 355 -23 95 -35 128 -45 124 -22 -8 -43
17 -43 52 0 37 -28 55 -85 55 -19 0 -35 4 -35 9 0 4 -28 36 -62 69 -50 49 -60
63 -50 75 10 11 8 19 -8 39 -17 22 -28 26 -87 27 -111 4 -117 5 -129 28 -8 17
-10 -18 -7 -149z m203 -212 c0 -17 -45 -40 -64 -33 -23 9 -19 36 6 46 27 10
58 3 58 -13z"/>
<path d="M330 1214 c0 -6 9 -19 20 -29 11 -10 20 -24 20 -31 0 -19 16 -25 43
-19 31 8 31 35 0 36 -41 2 -44 4 -63 29 -11 14 -20 20 -20 14z"/>
<path d="M306 1155 c16 -25 34 -33 34 -17 0 10 -33 42 -44 42 -3 0 1 -11 10
-25z"/>
<path d="M1517 1149 c4 -13 8 -18 11 -10 2 7 -1 18 -6 23 -8 8 -9 4 -5 -13z"/>
<path d="M1862 1138 c-18 -18 -15 -36 6 -34 21 1 32 15 25 33 -6 16 -15 17
-31 1z"/>
<path d="M352 1108 c2 -6 10 -14 16 -16 7 -2 10 2 6 12 -7 18 -28 22 -22 4z"/>
<path d="M420 1102 c6 -13 14 -21 18 -18 3 4 -2 14 -12 24 -18 16 -18 16 -6
-6z"/>
<path d="M1422 1080 c0 -14 2 -19 5 -12 2 6 2 18 0 25 -3 6 -5 1 -5 -13z"/>
<path d="M2350 1084 c0 -8 5 -12 10 -9 6 4 8 11 5 16 -9 14 -15 11 -15 -7z"/>
<path d="M320 1083 c0 -10 40 -36 46 -30 3 2 -7 12 -21 21 -14 9 -25 13 -25 9z"/>
<path d="M390 1086 c0 -2 7 -9 15 -16 9 -7 15 -8 15 -2 0 5 -7 12 -15 16 -8 3
-15 4 -15 2z"/>
<path d="M477 1050 c-3 -11 -1 -23 4 -26 5 -3 9 6 9 20 0 31 -6 34 -13 6z"/>
<path d="M990 940 c0 -16 31 -73 36 -67 3 3 -2 21 -10 41 -15 35 -26 46 -26
26z"/>
<path d="M1437 844 c-4 -4 -7 -20 -7 -36 0 -17 -4 -27 -10 -23 -6 3 -13 -2
-17 -12 -3 -10 -26 -46 -50 -80 -47 -68 -44 -79 9 -36 66 55 102 122 90 166
-4 16 -11 25 -15 21z"/>
<path d="M933 803 c9 -2 25 -2 35 0 9 3 1 5 -18 5 -19 0 -27 -2 -17 -5z"/>
<path d="M889 761 c-35 -28 -20 -31 26 -5 31 18 35 24 19 24 -12 0 -32 -9 -45
-19z"/>
<path d="M2207 733 c-19 -37 -30 -113 -17 -113 5 0 10 11 10 24 0 13 7 43 15
66 18 50 13 65 -8 23z"/>
<path d="M1225 719 c-4 -6 -5 -12 -2 -15 2 -3 7 2 10 11 7 17 1 20 -8 4z"/>
<path d="M2113 655 c-43 -19 -42 -26 2 -12 19 6 35 14 35 19 0 10 2 10 -37 -7z"/>
<path d="M2275 646 c10 -14 19 -26 22 -26 7 0 -17 39 -28 46 -6 3 -3 -5 6 -20z"/>
<path d="M1533 620 c0 -25 2 -35 4 -22 2 12 2 32 0 45 -2 12 -4 2 -4 -23z"/>
<path d="M1730 593 c0 -13 -4 -23 -10 -23 -5 0 -10 -6 -10 -13 0 -6 -15 -19
-32 -27 -32 -14 -32 -15 -8 -18 27 -4 100 15 100 26 -1 4 -9 23 -20 42 -16 30
-19 32 -20 13z"/>
<path d="M2115 600 c3 -5 8 -10 11 -10 2 0 4 5 4 10 0 6 -5 10 -11 10 -5 0 -7
-4 -4 -10z"/>
<path d="M2080 490 c0 -5 5 -10 10 -10 6 0 10 5 10 10 0 6 -4 10 -10 10 -5 0
-10 -4 -10 -10z"/>
<path d="M2163 445 c0 -22 2 -30 4 -17 2 12 2 30 0 40 -3 9 -5 -1 -4 -23z"/>
<path d="M1060 370 c20 -13 33 -13 25 0 -3 6 -14 10 -23 10 -15 0 -15 -2 -2
-10z"/>
<path d="M2230 343 c-91 -19 -172 -38 -180 -41 -27 -10 204 -33 268 -26 55 5
64 9 72 30 17 44 22 74 14 73 -5 -1 -83 -17 -174 -36z"/>
<path d="M1445 233 c-145 -6 -165 -22 -79 -62 43 -21 50 -21 199 -9 85 7 155
15 155 18 -1 8 -173 61 -190 58 -8 -1 -46 -3 -85 -5z"/>
<path d="M1250 209 c0 -5 11 -9 25 -9 14 0 25 2 25 4 0 2 -11 6 -25 8 -14 3
-25 1 -25 -3z"/>
<path d="M1810 150 c-22 -7 -21 -8 13 -9 20 -1 37 4 37 9 0 11 -14 11 -50 0z"/>
<path d="M1600 130 l-45 -7 58 -1 c37 -1 56 2 52 8 -3 6 -9 9 -13 8 -4 0 -27
-4 -52 -8z"/>
<path d="M1693 133 c9 -2 25 -2 35 0 9 3 1 5 -18 5 -19 0 -27 -2 -17 -5z"/>
<path d="M1120 106 c-8 -8 -42 -22 -75 -30 -259 -65 -269 -68 -238 -73 31 -6
485 71 553 93 12 5 12 7 -3 15 -12 7 -40 7 -88 -1 -52 -9 -74 -9 -82 -1 -15
15 -50 14 -67 -3z"/>
<path d="M508 53 c7 -3 16 -2 19 1 4 3 -2 6 -13 5 -11 0 -14 -3 -6 -6z"/>
<path d="M670 24 c85 -17 133 -16 55 2 -33 7 -73 13 -90 12 -18 0 -4 -6 35
-14z"/>
<path d="M1775 33 c-145 -15 -27 -31 235 -32 194 -1 203 0 187 16 -15 16 -41
18 -200 19 -100 1 -200 0 -222 -3z"/>
</g>
</svg>
