<?xml version="1.0" standalone="no"?>
<!DOCTYPE svg PUBLIC "-//W3C//DTD SVG 20010904//EN"
 "http://www.w3.org/TR/2001/REC-SVG-20010904/DTD/svg10.dtd">
<svg version="1.0" xmlns="http://www.w3.org/2000/svg"
 width="612.000000pt" height="408.000000pt" viewBox="0 0 612.000000 408.000000"
 preserveAspectRatio="xMidYMid meet">

<g transform="translate(0.000000,408.000000) scale(0.100000,-0.100000)"
fill="#000000" stroke="none">
<path d="M3676 4069 c3 -5 10 -7 15 -4 5 4 9 1 9 -5 0 -6 5 -8 12 -4 6 4 8 3
5 -3 -8 -13 17 -36 28 -25 5 4 5 2 2 -4 -4 -6 17 -35 46 -65 28 -30 51 -57 52
-61 0 -10 15 -12 23 -2 4 4 1 4 -7 -1 -10 -6 -12 -4 -7 4 6 9 13 8 27 -5 16
-14 18 -34 3 -34 -3 0 -2 5 2 12 4 7 3 8 -5 4 -8 -5 -2 -16 19 -36 16 -15 30
-33 30 -40 0 -6 5 -8 13 -4 9 6 9 5 0 -8 -7 -8 -9 -19 -5 -23 4 -5 -2 -5 -12
-1 -17 6 -16 3 5 -17 42 -41 865 -874 1103 -1118 126 -129 313 -319 416 -424
102 -104 221 -228 265 -275 43 -47 70 -74 59 -60 -17 22 -17 23 -1 11 22 -17
55 -62 59 -81 2 -8 12 -19 23 -25 15 -8 19 -20 17 -45 -1 -20 4 -40 15 -53 18
-20 17 -20 -19 -14 -23 3 -38 2 -38 -4 0 -6 4 -8 8 -5 5 3 9 -1 9 -9 0 -10 -6
-11 -25 -4 -27 11 -52 1 -31 -12 12 -7 12 -9 0 -9 -8 0 -11 -7 -8 -20 4 -15
-1 -22 -19 -26 -13 -3 -21 -10 -19 -15 3 -4 -17 -18 -45 -30 -27 -12 -47 -26
-44 -31 4 -7 9 -7 13 0 3 5 25 18 48 30 l42 20 14 -22 c8 -11 31 -39 51 -61
20 -22 62 -70 93 -107 87 -102 206 -226 195 -203 -6 11 -24 33 -41 49 -37 36
-38 40 -6 54 15 7 25 8 25 2 0 -6 7 -10 15 -10 26 0 16 28 -12 35 l-28 7 30
13 c37 17 29 19 -14 4 -29 -10 -30 -12 -14 -24 17 -12 16 -14 -9 -20 -15 -4
-32 -4 -38 0 -14 9 -220 238 -220 245 0 13 43 31 52 22 7 -7 20 -7 40 0 23 8
27 13 16 20 -10 8 -9 8 5 4 23 -7 67 13 61 29 -10 24 39 26 65 2 l24 -22 -16
26 c-9 14 -28 35 -42 47 -14 12 -25 28 -25 34 0 10 3 9 9 -1 14 -22 120 25
127 56 7 25 -21 67 -37 57 -5 -3 -9 0 -9 7 0 11 -25 38 -66 69 -10 8 1 -8 26
-35 25 -28 48 -50 53 -50 4 0 6 -4 5 -10 -4 -15 -14 -9 -56 37 -85 93 -96 109
-81 119 8 5 18 9 22 9 9 0 52 -48 77 -86 9 -12 28 -32 43 -44 l27 -21 0 1150
0 1151 -829 0 c-804 0 -829 -1 -824 -19 2 -10 -1 -21 -9 -24 -10 -3 -14 2 -14
17 1 19 -5 21 -58 24 -36 1 -65 -3 -74 -10 -9 -8 -13 -8 -9 -2 5 8 -25 12
-103 12 -66 0 -108 -3 -104 -9 3 -5 9 -7 14 -4 4 3 14 -3 21 -13 13 -15 12
-16 -3 -3 -27 21 -21 0 9 -31 15 -15 21 -28 15 -28 -7 0 -12 3 -12 8 -1 13
-71 83 -81 80 -6 -2 48 -68 120 -148 72 -79 131 -147 131 -152 0 -4 -30 25
-67 66 -65 70 -69 73 -88 57 -19 -16 -20 -15 -3 4 16 20 15 23 -57 100 -69 75
-75 79 -95 67 -13 -8 -19 -9 -15 -2 5 8 -38 10 -154 10 -96 -1 -159 -6 -155
-11z m634 -52 c0 -6 -11 0 -25 13 -14 13 -25 28 -25 33 0 6 11 0 25 -13 14
-13 25 -28 25 -33z m60 24 c0 -5 -10 -7 -22 -4 -22 4 -23 4 -4 -11 18 -14 18
-16 3 -16 -20 0 -32 23 -23 45 4 13 10 14 26 5 11 -6 20 -15 20 -19z m230 -29
c0 -13 -3 -12 -15 4 -19 25 -19 40 0 24 8 -7 15 -20 15 -28z m-195 -2 c3 -6
-1 -7 -9 -4 -18 7 -21 14 -7 14 6 0 13 -4 16 -10z m226 -7 c13 -16 12 -17 -3
-4 -17 13 -22 21 -14 21 2 0 10 -8 17 -17z m-151 -3 c8 -5 11 -10 6 -10 -5 0
-1 -10 10 -22 10 -13 4 -10 -14 6 -17 17 -32 31 -32 33 0 6 15 3 30 -7z m-126
-36 c7 -19 2 -18 -19 6 -16 17 -16 20 -3 15 9 -4 19 -13 22 -21z m-160 -10 c7
-19 2 -18 -19 6 -16 17 -16 20 -3 15 9 -4 19 -13 22 -21z m200 17 c17 -6 17
-8 3 -14 -8 -3 -21 1 -27 9 -13 15 -6 17 24 5z m297 -8 c13 -16 12 -17 -3 -4
-10 7 -18 15 -18 17 0 8 8 3 21 -13z m-457 -17 c17 -27 3 -48 -17 -26 -9 10
-9 11 1 6 17 -10 15 4 -5 26 -9 10 -11 18 -6 18 6 0 18 -11 27 -24z m212 10
c15 -16 18 -26 6 -26 -4 0 -13 9 -20 20 -14 23 -7 26 14 6z m14 -61 c25 -10
52 -25 60 -33 13 -13 13 -13 -5 -4 -11 5 -45 21 -75 36 -59 29 -52 29 20 1z
m-160 -46 c0 -10 5 -21 12 -25 7 -4 8 -3 4 4 -4 7 -2 12 3 12 6 0 11 -7 11
-15 0 -25 -23 -16 -54 21 -22 26 -24 33 -10 28 16 -6 17 -5 7 7 -7 7 -13 18
-13 24 1 18 40 -36 40 -56z m365 -57 c-3 -3 -11 0 -18 7 -9 10 -8 11 6 5 10
-3 15 -9 12 -12z m-679 -69 c-7 -8 -40 26 -42 45 -2 10 7 5 23 -12 14 -15 23
-30 19 -33z m378 41 c3 -8 2 -12 -4 -9 -6 3 -10 10 -10 16 0 14 7 11 14 -7z
m160 -217 c87 -97 162 -174 167 -171 5 3 1 16 -8 29 -10 12 -21 21 -24 19 -4
-2 -19 14 -34 37 -16 22 -35 44 -44 49 -9 5 -11 10 -4 10 6 0 15 -5 18 -10 4
-6 11 -7 17 -4 7 4 8 2 4 -4 -4 -6 4 -18 18 -27 16 -11 23 -22 19 -32 -4 -10
-2 -14 4 -10 6 4 19 -4 29 -18 10 -13 23 -21 28 -18 6 4 2 -3 -8 -15 -11 -12
-16 -25 -13 -29 8 -8 -12 -33 -26 -33 -6 0 -3 6 6 13 14 11 11 17 -30 62 -25
28 -90 102 -146 165 -55 63 -106 121 -113 129 -11 12 -15 12 -31 0 -16 -13
-17 -12 -5 2 13 17 7 49 -9 49 -5 0 -9 6 -9 12 0 15 -7 22 194 -205z m271 183
c3 -6 -1 -7 -9 -4 -18 7 -21 14 -7 14 6 0 13 -4 16 -10z m-770 -30 c10 -11 14
-20 9 -20 -5 0 -15 9 -22 20 -7 11 -11 20 -9 20 2 0 12 -9 22 -20z m849 -6 c5
-14 4 -15 -9 -4 -17 14 -19 20 -6 20 5 0 12 -7 15 -16z m-390 -50 c3 -8 2 -12
-4 -9 -6 3 -10 10 -10 16 0 14 7 11 14 -7z m377 -480 c79 -91 145 -171 147
-177 2 -7 -3 -4 -11 5 -7 10 -74 85 -148 168 -123 138 -148 170 -136 170 2 0
69 -75 148 -166z m9 42 c0 4 6 1 14 -6 8 -6 12 -19 9 -27 -4 -11 -2 -14 5 -9
7 4 12 2 12 -4 0 -6 5 -8 12 -4 8 5 9 2 5 -10 -6 -14 -3 -17 10 -12 10 4 15 4
11 1 -7 -7 2 -18 58 -79 38 -41 39 -42 22 -52 -6 -4 -8 -3 -4 4 3 6 0 12 -8
14 -15 3 -206 221 -206 234 0 5 14 -6 30 -24 17 -18 30 -29 30 -26z m216 -237
c3 -6 2 -15 -3 -20 -5 -5 -14 0 -21 11 -10 17 -10 20 2 20 8 0 18 -5 22 -11z
m64 -123 c0 5 -3 14 -7 20 -5 5 -1 2 7 -7 9 -8 20 -14 25 -13 6 1 37 -28 70
-67 62 -72 87 -107 66 -95 -6 4 -15 -2 -20 -16 -6 -13 -10 -18 -10 -12 -1 5
-9 19 -19 30 -72 79 -220 252 -226 264 -4 8 20 -14 53 -50 34 -35 61 -60 61
-54z m-29 82 c27 -33 23 -45 -6 -18 -24 22 -32 40 -19 40 3 0 14 -10 25 -22z
m486 -468 c51 -62 89 -118 86 -123 -3 -6 -1 -7 5 -3 6 4 19 -6 29 -21 10 -15
20 -30 23 -33 3 -3 14 -16 25 -30 23 -29 -61 35 -111 85 -25 24 -146 172 -259
315 -11 14 8 3 45 -26 36 -28 106 -102 157 -164z m-218 150 c23 -27 39 -55 36
-60 -5 -8 -11 -7 -21 1 -7 6 -11 16 -7 22 3 5 2 8 -3 5 -5 -3 -24 14 -42 38
-46 62 -16 57 37 -6z m13 -67 c133 -155 145 -173 113 -173 -8 0 -12 6 -9 14 3
9 -12 35 -38 63 -104 114 -169 193 -160 193 5 0 48 -44 94 -97z m91 -75 c-2
-4 3 -5 10 -2 25 9 69 -58 47 -71 -10 -6 -131 141 -123 149 8 7 69 -65 66 -76z
m117 -105 c19 -24 19 -28 6 -31 -20 -4 -60 33 -51 47 10 17 22 13 45 -16z m26
-79 c17 -3 18 8 2 26 -7 7 2 3 20 -9 37 -25 43 -52 11 -46 -17 4 -19 2 -9 -11
10 -11 16 -12 27 -2 12 10 18 9 29 -7 8 -10 14 -23 14 -28 0 -5 7 -6 16 -3 8
3 12 2 9 -3 -3 -5 -1 -12 5 -16 15 -9 12 -25 -6 -25 -9 0 -12 5 -8 13 4 6 4 9
-1 5 -9 -9 -37 11 -30 21 2 4 -2 8 -10 8 -10 0 -6 -9 11 -29 13 -16 24 -34 24
-40 0 -6 -10 2 -22 18 -12 16 -57 68 -100 115 -43 48 -78 91 -78 95 1 5 19
-11 41 -36 22 -24 47 -45 55 -46z m188 -165 c14 -17 26 -27 26 -22 0 4 6 -3
13 -17 7 -14 18 -25 24 -25 6 0 15 -4 20 -9 5 -6 2 -6 -6 -1 -11 6 -13 4 -8
-8 3 -10 3 -17 -1 -18 -4 0 -15 -2 -25 -4 -11 -2 -34 14 -60 42 -44 47 -68 81
-49 69 5 -3 12 1 16 9 8 22 21 18 50 -16z m114 -132 l22 -32 -26 -7 c-21 -5
-31 -1 -50 20 -27 31 -32 51 -7 31 9 -8 14 -9 10 -2 -6 10 4 20 23 22 3 0 15
-14 28 -32z m-25 -282 c-4 -5 -2 -7 2 -2 9 7 45 -20 45 -34 0 -4 -9 -11 -20
-14 -11 -4 -17 -11 -14 -17 4 -7 2 -8 -4 -4 -7 4 -12 18 -12 32 0 13 -5 23
-12 22 -11 -3 -13 4 -9 49 1 15 3 15 15 -2 8 -11 12 -24 9 -30z m41 -106 c-3
-5 -10 -7 -15 -3 -5 3 -7 10 -3 15 3 5 10 7 15 3 5 -3 7 -10 3 -15z m-29 -9
c3 -5 1 -10 -4 -10 -6 0 -11 5 -11 10 0 6 2 10 4 10 3 0 8 -4 11 -10z m-65
-32 c0 -6 -3 -8 -7 -5 -3 4 -14 0 -23 -8 -14 -13 -17 -13 -17 0 0 8 4 12 8 9
4 -2 10 0 14 6 8 14 25 13 25 -2z"/>
<path d="M5157 2827 c7 -11 26 -34 98 -115 26 -29 31 -31 31 -14 0 11 -3 20
-6 19 -12 -4 -60 48 -55 61 2 7 1 11 -4 8 -10 -6 -49 33 -41 42 3 3 -3 6 -13
8 -11 1 -14 -2 -10 -9z"/>
<path d="M5801 2083 c18 -21 37 -42 40 -46 3 -4 12 0 20 10 13 16 12 17 -3 4
-10 -7 -18 -10 -18 -5 0 12 -56 74 -66 74 -4 0 8 -17 27 -37z"/>
<path d="M5920 1982 c0 -7 -7 -9 -17 -5 -16 6 -16 5 -4 -11 13 -16 15 -16 24
-1 5 9 6 19 3 22 -3 4 -6 1 -6 -5z"/>
<path d="M2628 4003 c7 -3 16 -2 19 1 4 3 -2 6 -13 5 -11 0 -14 -3 -6 -6z"/>
<path d="M3887 3789 c7 -7 15 -10 18 -7 3 3 -2 9 -12 12 -14 6 -15 5 -6 -5z"/>
<path d="M3670 2980 c0 -18 141 -454 149 -460 3 -3 7 -16 9 -30 1 -13 7 -27
13 -31 6 -4 7 -8 2 -10 -4 -2 1 -33 13 -68 12 -35 23 -58 26 -50 3 8 5 -1 5
-18 0 -41 23 -114 34 -107 5 3 9 0 9 -5 0 -6 -4 -11 -10 -11 -6 0 -5 -10 2
-25 6 -14 15 -25 19 -25 4 0 9 -7 13 -15 5 -13 2 -13 -19 1 -14 9 -25 20 -25
25 0 5 -6 9 -14 9 -7 0 -20 7 -27 16 -11 14 -11 18 4 29 9 7 17 16 17 20 0 4
-7 2 -15 -5 -9 -8 -15 -9 -15 -2 0 6 5 14 10 17 6 3 10 12 10 18 0 8 -3 7 -9
-2 -10 -16 -34 -5 -28 12 2 7 -2 24 -9 39 -12 24 -12 28 3 37 13 7 15 14 7 32
-9 20 -11 21 -17 5 -4 -10 -3 -15 3 -11 6 3 10 2 10 -4 0 -27 -20 -17 -29 15
-11 39 -5 66 10 43 11 -18 10 0 -1 26 -7 15 -9 16 -9 4 -1 -9 -8 -22 -16 -29
-10 -8 -12 -17 -6 -29 5 -9 11 -27 12 -41 2 -14 7 -27 10 -30 12 -10 19 -60 9
-60 -12 0 -28 38 -25 60 1 8 -2 18 -6 21 -5 3 -10 17 -11 32 -1 15 -6 27 -11
27 -4 0 -7 8 -6 18 1 9 -1 26 -5 37 -20 52 -44 140 -49 180 -1 11 -6 26 -10
33 -5 6 -5 12 -1 12 3 0 1 7 -6 15 -7 9 -10 18 -7 22 4 3 2 12 -5 20 -8 10 -8
17 1 26 10 9 12 9 10 -3 -1 -8 0 -22 3 -30 32 -88 39 -113 34 -126 -3 -8 -2
-13 2 -10 9 5 45 -120 38 -132 -2 -4 3 -13 11 -21 13 -11 14 -10 11 10 -2 15
2 23 10 21 6 -1 12 5 12 14 0 13 -3 14 -13 5 -17 -13 -27 -5 -27 22 0 16 3 17
15 7 10 -9 15 -9 15 -1 0 6 -4 11 -10 11 -5 0 -7 8 -3 18 5 15 4 15 -9 -1 -13
-17 -15 -14 -28 35 -7 29 -14 60 -15 68 -1 8 -5 22 -8 30 -15 41 -26 80 -22
80 2 0 12 -12 20 -27 9 -16 13 -19 9 -8 -3 11 -9 30 -11 42 -3 13 -10 20 -16
16 -5 -3 -7 -1 -4 4 10 17 -4 74 -16 66 -6 -4 -8 0 -4 9 6 17 -22 118 -33 118
-4 0 -37 -31 -74 -70 -39 -40 -73 -67 -80 -63 -6 3 -44 33 -83 65 -40 32 -79
58 -88 58 -13 0 -38 -23 -95 -90 -59 -69 -108 -126 -137 -158 -18 -19 -30 -39
-27 -44 3 -5 2 -7 -3 -6 -4 2 -29 -20 -55 -48 -39 -41 -48 -58 -50 -90 -1 -38
-1 -38 -5 -6 l-4 33 -20 -25 c-10 -13 -19 -29 -19 -36 0 -6 -4 -8 -10 -5 -6 4
-11 -13 -12 -42 -1 -44 -2 -45 -5 -10 l-4 38 -20 -25 c-10 -13 -20 -41 -20
-63 l-2 -38 -7 35 c-8 39 -13 25 -11 -35 1 -39 1 -39 -15 -20 -10 12 -15 14
-11 5 2 -9 -3 -26 -13 -38 -18 -22 -19 -22 -25 -2 -9 29 -23 16 -35 -33 -6
-23 -13 -50 -16 -59 -4 -12 0 -18 10 -18 14 0 20 11 18 32 -1 3 23 28 54 54
30 26 52 54 50 60 -3 8 1 11 10 7 8 -3 14 1 14 11 0 19 26 22 34 4 3 -7 3 -1
0 14 -5 20 -2 30 10 34 9 3 16 13 16 21 0 8 5 11 10 8 6 -3 10 -1 10 6 0 6 14
25 30 41 17 15 30 33 30 39 0 5 5 7 10 4 6 -3 10 -1 10 4 0 16 32 51 42 45 4
-3 8 5 8 17 0 12 3 20 6 16 8 -8 44 25 44 41 0 7 5 10 10 7 6 -3 10 4 10 17 0
18 2 20 10 8 8 -12 10 -11 10 8 0 12 5 21 13 20 6 -2 11 3 9 10 -1 8 2 11 8 7
7 -4 14 2 17 14 3 11 9 18 14 15 5 -3 10 5 10 18 1 16 4 12 9 -12 l7 -35 3 45
3 45 7 -55 7 -55 3 65 3 65 7 -50 7 -50 1 48 c1 28 8 55 17 63 9 9 15 34 15
61 0 71 7 47 14 -47 6 -77 25 -293 30 -330 1 -8 5 -21 9 -27 5 -7 4 -13 -1
-13 -5 0 -6 -20 -1 -48 4 -26 10 -95 15 -152 4 -68 10 -98 15 -85 4 11 6 -15
4 -60 -3 -56 -2 -71 4 -50 7 21 8 1 6 -65 -2 -62 -1 -83 4 -60 l8 35 2 -37 c0
-21 -2 -38 -7 -38 -4 0 -6 -19 -4 -42 3 -41 1 -45 -50 -85 l-53 -43 -5 48 -6
47 -4 -61 -5 -61 73 60 c41 34 80 70 88 81 8 11 14 17 14 12 0 -5 14 7 31 25
18 19 26 25 18 14 -13 -20 -13 -20 8 -1 13 10 20 23 16 29 -3 6 -1 7 5 3 6 -3
15 2 21 11 6 10 11 14 11 10 0 -5 24 12 54 37 29 25 56 46 59 46 3 0 8 -10 10
-22 3 -17 5 -14 6 9 1 23 9 38 26 49 14 9 22 21 18 28 -3 6 -3 8 2 4 7 -7 59
26 54 34 -1 2 3 13 9 25 8 14 9 24 2 28 -14 9 -12 37 3 32 6 -2 11 -12 11 -21
-1 -9 2 -16 7 -16 5 0 9 -5 9 -11 0 -5 -4 -8 -9 -5 -5 3 -11 -1 -14 -8 -3 -8
-2 -16 4 -18 7 -2 51 -140 46 -144 -36 -26 -207 -167 -207 -170 0 -3 12 4 27
16 20 16 28 18 35 8 5 -9 8 -7 8 7 1 19 112 115 135 116 9 0 25 -48 48 -142 6
-24 -1 -32 -83 -93 -50 -37 -90 -69 -90 -73 0 -3 3 -3 8 1 4 4 12 -14 19 -41
6 -26 12 -39 12 -28 1 11 -3 34 -8 52 -6 22 -6 33 2 36 7 3 43 28 80 56 42 31
69 46 71 38 2 -6 16 -53 30 -103 30 -104 30 -104 15 -104 -6 0 -38 -20 -72
-44 -77 -55 -88 -58 -98 -26 -7 20 -8 19 -4 -10 4 -34 2 -36 -81 -90 -47 -30
-88 -58 -91 -63 -3 -5 21 8 53 29 33 20 73 46 91 56 l32 20 7 -29 c16 -73 24
-88 18 -38 -3 28 -7 58 -10 68 -3 9 -1 17 5 17 6 0 42 23 81 50 39 28 75 50
80 50 6 0 10 -10 10 -22 0 -13 11 -57 24 -98 41 -133 44 -120 -32 -163 -37
-21 -130 -76 -207 -123 -153 -93 -274 -164 -281 -164 -2 0 -4 24 -5 53 0 28
-3 83 -8 120 -7 65 -6 69 18 88 42 33 3 10 -121 -73 -65 -43 -118 -81 -118
-83 0 -6 56 28 142 87 31 21 59 38 62 38 4 0 6 -24 7 -52 0 -29 3 -83 7 -119
7 -60 6 -68 -11 -79 -21 -13 -30 -18 -179 -103 l-98 -56 0 119 0 119 31 16
c17 9 29 19 26 22 -3 2 -17 -3 -31 -12 l-25 -17 -4 69 c-1 37 -4 -20 -5 -127
l-2 -195 -58 -32 c-31 -17 -66 -39 -77 -48 -11 -9 -2 -7 20 6 22 12 63 35 90
50 28 14 113 63 190 107 l140 81 10 -127 c6 -70 13 -132 17 -138 9 -14 -116
-75 -139 -68 -13 4 -14 3 -5 -3 8 -7 -15 -22 -80 -52 -62 -28 -94 -38 -98 -31
-5 7 -9 4 -12 -8 -4 -13 -39 -37 -101 -68 -53 -26 -95 -50 -93 -52 2 -2 45 17
95 42 50 25 93 46 95 46 7 0 12 -309 6 -313 -3 -1 -3 -54 1 -117 3 -63 6 -100
7 -82 1 20 6 31 12 27 6 -4 8 -10 5 -15 -3 -4 -2 -15 1 -24 5 -14 31 -16 186
-16 l180 0 -9 98 c-4 53 -8 139 -8 190 0 50 0 92 -1 92 0 0 -29 -11 -63 -26
-35 -14 -65 -23 -67 -21 -2 2 27 16 66 31 38 15 70 32 70 36 0 5 -4 19 -10 32
-5 13 -14 59 -19 103 -4 44 -9 63 -10 43 l-1 -37 -36 15 c-33 14 -108 14 -122
0 -3 -3 -10 4 -16 16 -6 12 -18 23 -26 25 -11 3 -11 1 2 -10 13 -10 15 -16 6
-25 -9 -9 -9 -12 2 -12 21 0 -52 -65 -87 -77 -37 -13 -49 -4 -51 42 -2 29 4
33 158 112 l159 83 4 -38 4 -37 2 40 2 40 193 97 c185 93 194 96 199 75 3 -12
13 -64 23 -115 9 -51 19 -90 21 -88 4 3 -17 131 -33 206 -5 23 2 29 93 75 54
27 103 50 108 50 6 0 9 -12 9 -27 -1 -15 2 -26 5 -23 7 3 73 -229 76 -264 0
-9 5 -23 10 -30 6 -11 4 -13 -8 -8 -10 3 -24 4 -33 0 -13 -5 -13 -8 -2 -15 9
-7 7 -8 -10 -5 -13 3 -20 1 -16 -5 4 -6 -2 -8 -17 -3 -19 5 -21 4 -9 -4 16
-12 12 -13 -37 -15 -13 -1 -22 -5 -22 -10 1 -13 -58 -36 -75 -30 -7 3 -17 26
-23 52 l-10 47 1 -56 c1 -50 3 -55 21 -51 15 3 17 1 6 -6 -12 -8 -9 -37 20
-182 18 -94 35 -168 36 -163 4 11 -22 170 -42 257 -8 38 -12 73 -8 77 14 12
227 99 231 94 3 -3 7 -27 10 -55 2 -27 8 -50 13 -50 5 0 8 -10 8 -22 -1 -13 5
-39 14 -58 9 -20 29 -87 46 -148 30 -113 30 -113 8 -107 -18 5 -19 4 -7 -5 12
-9 9 -10 -13 -5 -20 4 -27 2 -22 -6 5 -8 1 -9 -15 -4 -17 5 -21 4 -15 -6 6 -9
2 -11 -13 -7 -14 4 -20 2 -16 -4 5 -7 -3 -9 -22 -4 -23 5 -26 4 -14 -5 12 -8
8 -9 -15 -5 -24 5 -26 4 -13 -4 17 -10 25 -9 170 36 17 5 24 -10 58 -143 l11
-43 143 0 143 0 -1 34 c-1 19 -4 32 -7 31 -6 -4 -43 94 -38 100 8 7 172 45
177 40 3 -3 -2 -5 -11 -5 -10 0 -14 -5 -11 -14 4 -11 0 -13 -15 -9 -12 3 -21
1 -21 -6 0 -5 -6 -8 -14 -5 -16 6 -40 -25 -51 -66 -4 -17 1 -13 17 14 16 28
31 40 50 42 21 2 26 -1 22 -14 -5 -14 -2 -13 10 2 16 20 16 20 16 0 0 -22 38
-89 47 -81 11 12 34 -23 28 -43 -5 -15 -2 -20 13 -20 18 0 16 10 -25 122 -24
67 -45 123 -46 125 -2 1 -45 -9 -96 -24 -60 -17 -87 -29 -79 -34 8 -6 9 -9 2
-9 -6 0 -16 6 -22 13 -8 10 -71 201 -89 272 -5 19 -4 19 9 2 8 -10 31 -19 58
-22 l45 -5 -50 27 c-27 15 -54 27 -60 28 -8 0 -52 102 -54 126 -1 3 23 15 52
27 28 11 102 41 162 67 61 26 160 66 220 90 61 23 117 45 126 49 13 6 26 -12
63 -83 48 -95 53 -111 35 -111 -6 0 -9 6 -6 13 3 8 -1 14 -9 14 -7 0 -16 -7
-18 -14 -3 -8 -2 -12 2 -9 5 3 9 -1 9 -9 0 -18 -9 -19 -24 -4 -7 7 -16 3 -31
-15 -11 -14 -24 -26 -28 -26 -5 0 -20 -9 -34 -20 -20 -16 -22 -22 -11 -29 8
-5 29 -7 46 -4 18 3 41 0 53 -6 19 -10 20 -8 15 20 -3 24 -2 29 9 23 17 -11
79 -13 72 -2 -3 4 -2 8 1 8 3 0 16 -22 29 -50 13 -27 28 -55 33 -62 6 -7 13
-24 17 -38 3 -14 3 -19 0 -12 -3 6 -13 12 -23 12 -24 0 -63 -29 -55 -42 4 -6
3 -9 -2 -5 -5 3 -18 -1 -29 -10 -19 -14 -18 -14 10 -9 l30 6 -32 -12 c-18 -7
-32 -17 -32 -23 0 -10 -128 -53 -162 -54 -10 -1 -63 61 -132 152 -63 84 -122
159 -130 166 -18 14 -84 11 -79 -4 2 -5 10 -9 18 -7 8 2 14 -1 14 -6 0 -4 7
-17 15 -27 28 -36 103 -149 135 -201 16 -29 37 -57 45 -64 8 -7 13 -16 10 -20
-5 -8 34 -99 52 -122 13 -16 63 -140 63 -156 0 -8 148 -11 560 -12 l560 0 0
269 c0 268 0 270 -24 298 -43 52 -49 71 -26 83 17 9 20 8 20 -9 0 -10 6 -31
14 -46 12 -24 14 -6 15 164 l2 191 -222 264 c-150 180 -229 266 -245 269 -13
2 -21 1 -19 -3 7 -11 -112 -63 -125 -55 -9 5 -11 4 -6 -3 4 -7 -2 -16 -16 -21
-13 -5 -94 -43 -181 -85 -87 -42 -164 -76 -171 -76 -7 0 -18 6 -26 13 -12 10
-12 9 -1 -5 11 -15 9 -19 -23 -34 l-35 -17 -58 42 c-32 23 -72 51 -89 62 -20
12 -46 48 -73 100 l-41 80 37 -27 c25 -17 30 -19 13 -4 -14 12 -32 27 -41 34
-25 17 -89 149 -79 161 15 18 -51 11 -97 -10 -24 -10 -43 -24 -43 -31 0 -7 -5
-14 -12 -16 -6 -2 -8 -10 -4 -17 5 -7 14 -10 21 -8 7 3 19 -10 29 -31 l17 -36
-33 26 c-18 14 -37 35 -43 46 -5 12 -13 22 -17 22 -5 0 -8 5 -8 12 0 6 3 8 6
5 11 -10 45 13 38 25 -4 7 -3 8 4 4 7 -4 12 -5 12 -3 0 3 -31 28 -70 57 -38
29 -66 58 -63 63 3 6 1 7 -4 4 -11 -7 -185 117 -192 137 -3 7 2 6 12 -2 27
-22 42 -3 16 21 -21 20 -22 20 -35 2 -8 -10 -14 -14 -14 -9 0 6 5 15 11 21 8
8 3 16 -17 29 -36 24 -58 44 -52 49 2 3 14 -4 26 -15 12 -12 22 -17 22 -13 0
4 7 -2 15 -13 8 -10 15 -15 15 -11 0 4 14 -6 31 -24 22 -22 28 -34 20 -42 -6
-6 -11 -15 -11 -21 0 -5 3 -7 6 -3 5 5 23 -7 58 -38 27 -25 78 -57 82 -52 3 3
1 14 -5 24 -6 10 -11 14 -11 10 0 -4 -11 2 -25 15 -43 41 -55 49 -63 44 -4 -2
-9 5 -9 16 -2 20 -1 20 23 -2 13 -13 24 -20 24 -15 0 4 10 -3 21 -16 l21 -24
-7 25 c-4 14 -11 26 -15 28 -5 2 -21 14 -37 28 -15 13 -31 24 -35 24 -5 0 -8
8 -8 17 0 13 9 8 36 -18 34 -32 36 -32 29 -9 -4 14 -11 27 -16 30 -4 3 -11 18
-14 33 -4 15 -11 30 -16 33 -5 3 -9 14 -9 24 0 10 -6 25 -12 32 -7 7 -14 20
-16 28 -2 8 -18 47 -37 87 -19 39 -35 74 -35 77 0 3 -19 45 -41 93 -71 151
-96 206 -118 258 -17 39 -41 67 -103 120 -45 39 -86 75 -92 80 -7 6 -45 39
-86 74 -41 36 -85 74 -97 85 -16 13 -23 15 -23 6z m-46 -195 c3 -8 1 -15 -4
-15 -6 0 -10 7 -10 15 0 8 2 15 4 15 2 0 6 -7 10 -15z m43 -3 c-10 -10 -15
-21 -12 -24 9 -9 14 -49 6 -43 -26 15 -15 83 13 85 5 0 2 -8 -7 -18z m-280
-354 c-3 -8 -6 -5 -6 6 -1 11 2 17 5 13 3 -3 4 -12 1 -19z m723 -40 c0 -5 -7
-3 -15 6 -8 8 -15 18 -15 22 0 3 7 1 15 -6 8 -7 15 -17 15 -22z m-1240 18 c0
-3 -4 -8 -10 -11 -5 -3 -10 -1 -10 4 0 6 5 11 10 11 6 0 10 -2 10 -4z m1150
-177 c0 -6 -4 -7 -10 -4 -5 3 -10 11 -10 16 0 6 5 7 10 4 6 -3 10 -11 10 -16z
m200 -31 c0 -6 -6 -5 -15 2 -8 7 -15 14 -15 16 0 2 7 1 15 -2 8 -4 15 -11 15
-16z m-155 2 c3 -5 1 -10 -4 -10 -6 0 -11 5 -11 10 0 6 2 10 4 10 3 0 8 -4 11
-10z m-51 -16 c3 -8 2 -12 -4 -9 -6 3 -10 10 -10 16 0 14 7 11 14 -7z m182 -5
c19 -22 19 -22 -3 -8 -13 8 -23 17 -23 21 0 12 6 9 26 -13z m-81 -27 c-6 -6
-35 18 -35 29 0 5 9 1 20 -8 11 -9 17 -19 15 -21z m136 21 c13 -16 12 -17 -3
-4 -17 13 -22 21 -14 21 2 0 10 -8 17 -17z m-268 -13 c3 -11 1 -18 -4 -14 -5
3 -9 12 -9 20 0 20 7 17 13 -6z m82 -18 c-6 -6 -35 18 -35 29 0 5 9 1 20 -8
11 -9 17 -19 15 -21z m99 22 c3 -8 2 -12 -4 -9 -6 3 -10 10 -10 16 0 14 7 11
14 -7z m-124 -52 c0 -1 -9 2 -20 8 -11 6 -20 15 -20 20 0 6 9 2 20 -7 11 -10
20 -19 20 -21z m230 2 c0 -3 -7 -1 -15 6 -8 7 -15 17 -15 22 0 5 7 3 15 -6 8
-8 15 -18 15 -22z m-80 -16 c0 -5 -9 -3 -20 4 -11 7 -20 16 -20 20 0 5 9 3 20
-4 11 -7 20 -16 20 -20z m-120 -10 c0 -4 -6 -5 -14 -2 -8 3 -12 12 -9 21 5 12
7 12 14 1 5 -7 9 -16 9 -20z m190 2 c0 -6 -9 -5 -20 2 -11 7 -20 16 -20 21 0
4 9 3 20 -3 11 -6 20 -15 20 -20z m-255 0 c3 -5 1 -10 -4 -10 -6 0 -11 5 -11
10 0 6 2 10 4 10 3 0 8 -4 11 -10z m136 -52 c9 -9 20 -14 23 -10 3 3 6 0 6 -6
0 -7 -3 -12 -7 -12 -11 0 -83 64 -83 73 0 7 27 -13 61 -45z m99 20 c0 -12 -6
-9 -26 13 -19 22 -19 22 4 8 12 -8 22 -17 22 -21z m-200 1 c0 -6 -4 -7 -10 -4
-5 3 -10 11 -10 16 0 6 5 7 10 4 6 -3 10 -11 10 -16z m260 0 c0 -4 -7 -6 -15
-3 -8 4 -15 10 -15 15 0 4 7 6 15 3 8 -4 15 -10 15 -15z m-236 -15 c3 -8 2
-12 -4 -9 -6 3 -10 10 -10 16 0 14 7 11 14 -7z m156 -16 c0 -5 -9 -3 -20 4
-11 7 -20 16 -20 20 0 5 9 3 20 -4 11 -7 20 -16 20 -20z m-70 -49 c0 -5 -11
-2 -25 7 -14 9 -25 20 -25 25 0 5 11 2 25 -7 14 -9 25 -20 25 -25z m183 13 c9
-8 17 -19 17 -24 0 -5 -10 0 -22 12 -12 11 -25 20 -30 20 -4 0 -8 5 -8 11 0
11 15 4 43 -19z m-57 -2 c8 0 14 -7 14 -15 0 -12 -3 -12 -20 2 -11 10 -20 22
-19 28 0 5 3 4 6 -2 2 -7 11 -13 19 -13z m-76 -54 c0 -5 -9 -1 -20 9 -11 10
-20 22 -20 26 0 5 9 1 20 -8 11 -10 20 -22 20 -27z m24 -12 c3 -8 2 -12 -4 -9
-6 3 -10 10 -10 16 0 14 7 11 14 -7z m126 -245 c14 -11 18 -18 10 -15 -8 3
-23 9 -32 12 -10 4 -18 10 -18 15 0 14 13 10 40 -12z m356 -65 c-3 -7 0 -19 7
-26 11 -12 22 -48 14 -48 -2 0 -18 11 -36 24 -32 24 -32 25 -11 36 13 7 19 17
16 26 -3 9 -2 12 5 9 6 -4 8 -13 5 -21z m-211 -12 c-3 -3 -11 0 -18 7 -9 10
-8 11 6 5 10 -3 15 -9 12 -12z m206 -56 c36 -27 57 -58 116 -174 39 -77 69
-143 65 -146 -30 -30 -106 33 -153 126 -44 87 -47 97 -21 77 25 -21 102 -70
102 -65 0 2 -32 28 -71 56 -53 39 -76 63 -90 96 -19 41 -19 64 0 64 5 0 28
-15 52 -34z m-128 -29 c4 3 7 1 7 -5 0 -20 -19 -13 -30 11 -10 20 -10 20 3 5
8 -10 17 -15 20 -11z m-158 -35 c-3 -3 -11 0 -18 7 -9 10 -8 11 6 5 10 -3 15
-9 12 -12z m215 -4 c0 -5 -9 -4 -20 2 -11 6 -20 12 -20 14 0 2 9 2 20 -1 11
-3 20 -9 20 -15z m-170 -20 c0 -4 6 -8 14 -8 7 0 20 -7 27 -16 11 -13 4 -12
-29 5 -46 23 -50 28 -27 28 8 0 15 -4 15 -9z m221 -66 c13 -31 26 -60 28 -65
2 -5 -8 -1 -23 8 -14 9 -24 21 -21 25 3 5 -5 12 -17 16 -21 6 -21 7 -2 21 16
12 17 15 4 23 -8 5 -18 10 -21 10 -3 0 -6 6 -6 14 0 32 36 0 58 -52z m1119
-96 c0 -4 -7 -5 -16 -2 -9 3 -12 2 -9 -5 4 -6 13 -8 21 -5 7 3 26 -11 43 -31
l30 -37 -157 -63 c-299 -120 -332 -132 -344 -129 -7 1 -9 1 -5 -2 5 -2 -55
-31 -133 -63 -123 -52 -143 -57 -156 -45 -8 8 -14 19 -14 26 0 6 -22 49 -49
97 l-50 86 117 54 c64 30 127 59 139 65 11 6 27 7 34 3 7 -5 10 -4 6 2 -4 6 0
14 9 17 9 4 13 2 8 -5 -4 -8 0 -7 15 0 11 7 21 16 21 20 0 12 33 8 42 -4 5 -6
8 -6 8 2 0 8 14 10 39 8 34 -3 39 -1 33 13 -5 14 -3 14 13 -2 18 -18 19 -18
26 0 4 11 8 13 8 7 1 -14 31 -18 31 -5 0 4 33 7 73 8 47 0 82 6 102 17 17 9
36 17 43 17 8 0 12 6 10 13 -3 6 -10 12 -16 12 -6 0 -17 7 -24 15 -11 12 -11
12 5 1 20 -16 23 -5 5 19 -7 9 11 -8 39 -39 29 -31 53 -60 53 -65z m-1220 88
c0 -2 -9 0 -20 6 -11 6 -20 13 -20 16 0 2 9 0 20 -6 11 -6 20 -13 20 -16z m65
-44 c3 -5 2 -10 -4 -10 -5 0 -13 5 -16 10 -3 6 -2 10 4 10 5 0 13 -4 16 -10z
m-543 -161 c20 -79 35 -145 35 -145 -20 -16 -91 -43 -100 -38 -7 4 -9 3 -4 -1
7 -8 -92 -69 -100 -62 -1 2 -16 68 -32 146 l-29 142 37 23 c20 13 59 37 86 54
28 18 55 30 60 29 6 -2 26 -68 47 -148z m550 121 c-2 -8 3 -10 13 -7 8 4 15 2
15 -4 0 -6 -7 -9 -16 -7 -8 2 -14 7 -14 12 1 5 -4 13 -12 18 -10 8 -10 9 2 5
8 -2 14 -10 12 -17z m95 -45 c29 -52 30 -70 2 -55 -15 9 -18 15 -10 24 8 10 4
16 -15 24 -14 7 -22 17 -18 23 3 6 0 15 -7 21 -11 7 -9 8 6 6 11 -2 30 -21 42
-43z m237 -24 l58 -40 -26 -12 c-22 -11 -28 -9 -46 12 -20 22 -20 22 -11 2 13
-26 14 -33 3 -33 -8 0 -42 63 -42 77 0 3 7 -1 17 -8 15 -13 15 -12 4 9 -7 12
-16 20 -21 17 -5 -3 -14 3 -19 14 -16 29 -13 36 7 19 9 -9 43 -34 76 -57z
m-164 -11 c0 -18 -19 -11 -30 11 -11 19 -10 20 9 9 12 -6 21 -15 21 -20z
m-933 -145 c12 -71 25 -135 27 -142 3 -8 -62 -46 -185 -108 -105 -53 -193 -94
-195 -92 -7 6 -24 172 -24 229 l0 47 73 42 c39 23 115 68 167 100 52 31 99 56
105 55 5 -1 19 -60 32 -131z m943 120 c-7 -9 -15 -13 -19 -10 -3 3 1 10 9 15
21 14 24 12 10 -5z m74 0 c4 -13 2 -14 -14 -5 -23 13 -26 20 -6 20 8 0 16 -7
20 -15z m-34 -9 c0 -3 -4 -8 -10 -11 -5 -3 -10 -1 -10 4 0 6 5 11 10 11 6 0
10 -2 10 -4z m23 -42 c-23 -16 -40 -1 -22 19 10 11 18 12 27 5 10 -8 8 -13 -5
-24z m-346 10 c-3 -3 -12 -4 -19 -1 -8 3 -5 6 6 6 11 1 17 -2 13 -5z m1289 -3
c-14 -5 -16 -10 -8 -15 7 -4 10 -11 7 -16 -3 -5 1 -14 8 -22 7 -7 16 -20 19
-29 6 -16 62 -31 73 -20 10 10 44 7 42 -3 -1 -6 7 -11 18 -11 19 0 105 -77
105 -94 0 -12 -191 -4 -290 13 -47 7 -89 12 -95 11 -5 -2 -28 -6 -50 -9 -36
-5 -41 -3 -42 14 -1 11 -9 27 -17 36 -15 14 -21 11 -17 -10 1 -5 -5 -4 -13 3
-8 7 -12 20 -9 29 4 14 3 15 -6 2 -7 -11 -13 -12 -21 -4 -9 9 3 19 47 40 72
34 233 93 253 93 10 0 8 -3 -4 -8z m-981 -21 c3 -5 1 -10 -4 -10 -6 0 -11 5
-11 10 0 6 2 10 4 10 3 0 8 -4 11 -10z m-80 -38 c-3 -3 -11 0 -18 7 -9 10 -8
11 6 5 10 -3 15 -9 12 -12z m227 -84 c29 -57 54 -106 56 -110 2 -4 -8 -13 -22
-19 -14 -7 -23 -16 -19 -22 3 -6 1 -7 -5 -3 -14 9 -105 -28 -95 -39 4 -4 3 -5
-3 -2 -15 9 -196 -67 -187 -78 5 -4 3 -5 -4 -1 -15 8 -156 -48 -146 -59 4 -4
2 -5 -5 -1 -15 9 -54 -2 -47 -13 2 -5 -6 -6 -18 -4 -18 4 -28 22 -54 102 -18
54 -33 101 -33 105 0 12 111 57 122 50 6 -4 8 -3 5 3 -6 9 85 53 111 53 6 0
12 4 12 8 0 13 140 74 156 68 9 -3 12 -1 9 4 -5 9 83 58 107 59 4 1 31 -45 60
-101z m-332 -2 c0 -2 -7 -7 -16 -10 -8 -3 -12 -2 -9 4 6 10 25 14 25 6z m631
-75 c-8 -5 -20 -7 -28 -4 -21 8 -15 13 15 13 20 0 23 -3 13 -9z m39 -31 c103
-22 141 -50 125 -93 -9 -22 -59 -40 -98 -35 -29 3 -33 1 -29 -15 4 -14 0 -18
-14 -15 -12 2 -20 13 -22 30 l-3 27 -32 -19 c-18 -11 -40 -20 -49 -20 -25 0
-23 -27 2 -35 11 -3 20 -11 20 -17 0 -6 -7 -5 -17 3 -13 11 -17 11 -20 2 -10
-28 -24 -12 -19 20 4 21 3 26 -2 13 -6 -14 -11 -16 -16 -8 -4 7 -4 17 -1 22 4
6 1 9 -5 8 -7 -2 -22 20 -35 49 l-23 51 48 20 c44 18 49 19 64 4 10 -11 16
-12 16 -4 0 7 7 12 16 12 8 0 13 -4 9 -9 -3 -6 4 -9 15 -8 11 1 20 4 20 8 0
11 -46 20 -67 13 -17 -5 -17 -5 0 10 13 10 26 12 40 6 12 -4 47 -13 77 -20z
m315 -90 c17 -7 14 -9 -13 -9 -20 -1 -31 3 -27 9 7 12 13 12 40 0z m-120 -41
c-8 -12 -45 -12 -45 0 0 10 30 20 43 14 4 -3 5 -9 2 -14z m58 -39 c6 -25 -2
-60 -14 -60 -16 0 -27 44 -17 63 12 23 24 22 31 -3z m-378 -50 c3 -5 1 -10 -4
-10 -6 0 -11 5 -11 10 0 6 2 10 4 10 3 0 8 -4 11 -10z m-25 -35 c0 -7 -30 -13
-34 -7 -3 4 4 9 15 9 10 1 19 0 19 -2z m81 -39 c15 -25 19 -27 25 -13 4 10 17
17 33 17 l26 -1 -22 -18 c-13 -11 -23 -26 -23 -35 0 -9 -4 -16 -10 -16 -5 0
-10 -7 -10 -16 0 -8 -5 -12 -11 -9 -6 4 -8 13 -5 21 3 8 0 13 -6 11 -6 -1 -14
13 -18 30 -5 21 -4 30 3 26 5 -3 8 0 5 8 -3 8 -10 14 -15 14 -6 0 -14 3 -17 6
-3 3 1 6 10 6 9 0 25 -14 35 -31z m516 -202 c-3 -3 -12 -4 -19 -1 -8 3 -5 6 6
6 11 1 17 -2 13 -5z m-401 -60 c2 -23 1 -24 -11 -7 -10 13 -10 20 -2 25 7 4
12 8 12 8 0 0 1 -11 1 -26z m-129 10 c-3 -3 -12 -4 -19 -1 -8 3 -5 6 6 6 11 1
17 -2 13 -5z m138 -105 l43 -85 -39 -17 c-22 -9 -45 -17 -53 -17 -7 0 -25 -9
-39 -20 -17 -13 -40 -20 -72 -20 -34 0 -44 -3 -40 -12 4 -7 -10 4 -30 25 -19
21 -33 42 -30 48 4 5 1 8 -6 7 -7 -2 -17 7 -24 18 -6 12 -16 28 -23 36 -10 12
-5 18 26 34 20 10 39 21 42 24 3 3 16 11 30 18 l25 13 -25 -6 c-14 -3 -42 -9
-63 -12 -28 -4 -35 -8 -25 -15 9 -7 8 -8 -6 -4 -11 4 -23 1 -27 -6 -6 -10 -11
-10 -20 -1 -14 14 -24 10 121 51 176 50 174 49 183 38 4 -6 28 -49 52 -97z
m-2175 51 c0 -16 -4 -32 -10 -35 -6 -4 -9 10 -8 34 1 45 18 46 18 1z m190 20
c-8 -5 -19 -10 -25 -10 -5 0 -3 5 5 10 8 5 20 10 25 10 6 0 3 -5 -5 -10z m-41
-14 c-8 -9 -99 -45 -99 -40 0 3 19 13 43 24 40 18 65 25 56 16z m-124 -56
c-27 -12 -43 -12 -25 0 8 5 22 9 30 9 10 0 8 -3 -5 -9z m1600 -90 c3 -5 1 -10
-4 -10 -6 0 -11 5 -11 10 0 6 2 10 4 10 3 0 8 -4 11 -10z m196 -61 c6 -12 5
-20 -3 -25 -7 -4 -8 -3 -4 4 4 7 3 12 -2 12 -5 0 -14 12 -21 27 -11 24 -11 25
4 13 9 -7 20 -21 26 -31z m224 -28 c3 -5 1 -12 -5 -16 -5 -3 -10 -1 -10 5 0 6
-5 8 -12 4 -7 -4 -8 -3 -4 4 9 14 23 15 31 3z"/>
<path d="M5800 1245 c7 -9 15 -13 17 -11 7 7 -7 26 -19 26 -6 0 -6 -6 2 -15z"/>
<path d="M5478 1093 c7 -3 16 -2 19 1 4 3 -2 6 -13 5 -11 0 -14 -3 -6 -6z"/>
<path d="M5450 1070 c-8 -5 -10 -10 -5 -10 6 0 17 5 25 10 8 5 11 10 5 10 -5
0 -17 -5 -25 -10z"/>
<path d="M3875 980 c-3 -5 -1 -10 4 -10 6 0 11 5 11 10 0 6 -2 10 -4 10 -3 0
-8 -4 -11 -10z"/>
<path d="M3880 950 c0 -5 5 -10 11 -10 5 0 7 5 4 10 -3 6 -8 10 -11 10 -2 0
-4 -4 -4 -10z"/>
<path d="M3845 940 c-3 -6 1 -7 9 -4 18 7 21 14 7 14 -6 0 -13 -4 -16 -10z"/>
<path d="M5191 844 c0 -11 3 -14 6 -6 3 7 2 16 -1 19 -3 4 -6 -2 -5 -13z"/>
<path d="M5150 829 c7 -11 14 -18 17 -15 8 8 -5 36 -17 36 -7 0 -7 -6 0 -21z"/>
<path d="M5187 807 c-3 -8 -2 -20 3 -26 5 -9 8 -4 8 13 0 29 -3 32 -11 13z"/>
<path d="M5315 330 c4 -6 11 -8 16 -5 14 9 11 15 -7 15 -8 0 -12 -5 -9 -10z"/>
<path d="M5215 310 c-3 -5 -2 -10 4 -10 5 0 13 5 16 10 3 6 2 10 -4 10 -5 0
-13 -4 -16 -10z"/>
<path d="M3301 2796 c-1 -33 1 -37 14 -26 8 7 15 18 15 24 0 6 -4 5 -9 -3 -7
-11 -10 -7 -14 15 -3 25 -4 23 -6 -10z"/>
<path d="M3312 2748 c-14 -14 -16 -28 -3 -28 9 0 24 30 18 36 -2 2 -9 -2 -15
-8z"/>
<path d="M3187 2688 c-21 -28 -36 -52 -33 -56 3 -3 6 0 6 6 0 7 5 12 11 12 6
0 8 -7 5 -17 -6 -15 -4 -15 14 2 23 21 28 44 5 25 -25 -20 -17 3 11 33 14 15
24 31 22 36 -2 4 -20 -14 -41 -41z"/>
<path d="M3240 2704 c0 -8 -4 -12 -10 -9 -5 3 -10 -1 -10 -10 0 -9 5 -13 10
-10 25 15 11 -6 -52 -78 -15 -18 -25 -38 -23 -46 3 -8 -7 -27 -22 -43 -25 -26
-28 -27 -34 -11 -4 11 -7 3 -7 -21 0 -25 3 -34 8 -25 5 7 12 10 16 6 4 -4 2
-13 -4 -19 -7 -7 -12 -16 -12 -21 0 -5 7 -1 16 7 9 9 13 24 9 35 -4 14 5 29
31 55 20 19 34 41 31 48 -4 10 -6 10 -6 1 -1 -14 -21 -18 -21 -5 0 5 28 36 63
71 58 58 62 60 68 39 5 -17 7 -13 6 15 0 20 -2 37 -4 37 -9 0 -33 -29 -33 -40
0 -6 -4 -9 -9 -6 -5 3 -7 15 -4 26 3 11 3 20 -1 20 -3 0 -6 -7 -6 -16z"/>
<path d="M3317 2591 c2 -63 5 -116 6 -117 2 -2 9 6 16 18 7 11 8 17 3 14 -12
-7 -20 77 -10 105 5 12 4 18 -2 14 -5 -3 -11 14 -13 37 -2 24 -2 -8 0 -71z"/>
<path d="M3735 2691 c-3 -5 -1 -12 5 -16 5 -3 10 1 10 9 0 18 -6 21 -15 7z"/>
<path d="M3331 2664 c0 -11 3 -14 6 -6 3 7 2 16 -1 19 -3 4 -6 -2 -5 -13z"/>
<path d="M3274 2570 c0 -52 1 -74 3 -47 2 26 2 68 0 95 -2 26 -3 4 -3 -48z"/>
<path d="M3751 2643 c-1 -12 4 -25 9 -28 12 -7 12 2 0 30 -8 19 -9 19 -9 -2z"/>
<path d="M3227 2612 c-15 -15 -27 -35 -27 -43 0 -8 3 -10 8 -4 4 6 15 16 25
24 15 12 17 11 17 -4 0 -10 -3 -16 -6 -12 -3 3 -20 -10 -36 -29 -17 -19 -28
-37 -25 -40 2 -3 14 6 25 20 10 14 22 22 26 19 3 -3 7 0 8 8 1 8 4 -11 8 -41
6 -48 7 -44 7 38 1 50 0 92 -1 92 -1 0 -14 -13 -29 -28z"/>
<path d="M3292 2577 c1 -37 6 -67 9 -67 8 0 1 122 -7 130 -3 2 -4 -26 -2 -63z"/>
<path d="M3087 2578 c-15 -17 -26 -32 -24 -34 2 -2 16 10 31 27 15 17 26 32
24 35 -2 2 -16 -11 -31 -28z"/>
<path d="M3771 2584 c0 -11 3 -14 6 -6 3 7 2 16 -1 19 -3 4 -6 -2 -5 -13z"/>
<path d="M3342 2570 c0 -14 2 -19 5 -12 2 6 2 18 0 25 -3 6 -5 1 -5 -13z"/>
<path d="M3027 2512 c-10 -10 -17 -22 -17 -27 0 -5 9 1 21 14 12 12 19 24 17
27 -3 2 -12 -4 -21 -14z"/>
<path d="M3056 2502 l-19 -27 24 22 c12 12 21 24 18 27 -2 2 -13 -8 -23 -22z"/>
<path d="M3231 2504 c0 -11 3 -14 6 -6 3 7 2 16 -1 19 -3 4 -6 -2 -5 -13z"/>
<path d="M3161 2484 c0 -11 3 -14 6 -6 3 7 2 16 -1 19 -3 4 -6 -2 -5 -13z"/>
<path d="M3204 2486 c-3 -9 -10 -13 -15 -10 -5 3 -9 -3 -9 -13 0 -15 2 -15 22
5 12 12 19 24 15 28 -4 4 -9 -1 -13 -10z"/>
<path d="M3302 2475 c0 -16 2 -22 5 -12 2 9 2 23 0 30 -3 6 -5 -1 -5 -18z"/>
<path d="M3071 2474 c0 -11 3 -14 6 -6 3 7 2 16 -1 19 -3 4 -6 -2 -5 -13z"/>
<path d="M3141 2464 c0 -11 3 -14 6 -6 3 7 2 16 -1 19 -3 4 -6 -2 -5 -13z"/>
<path d="M3232 2460 c0 -14 2 -19 5 -12 2 6 2 18 0 25 -3 6 -5 1 -5 -13z"/>
<path d="M3023 2448 c1 -15 6 -23 11 -18 4 4 4 16 -2 26 -9 16 -10 14 -9 -8z"/>
<path d="M3051 2454 c0 -11 3 -14 6 -6 3 7 2 16 -1 19 -3 4 -6 -2 -5 -13z"/>
<path d="M3270 2449 c0 -11 4 -18 10 -14 5 3 7 12 3 20 -7 21 -13 19 -13 -6z"/>
<path d="M3162 2440 c0 -14 2 -19 5 -12 2 6 2 18 0 25 -3 6 -5 1 -5 -13z"/>
<path d="M3320 2445 c0 -8 4 -15 10 -15 5 0 7 7 4 15 -4 8 -8 15 -10 15 -2 0
-4 -7 -4 -15z"/>
<path d="M2965 2440 c-3 -5 -1 -10 4 -10 6 0 11 5 11 10 0 6 -2 10 -4 10 -3 0
-8 -4 -11 -10z"/>
<path d="M2997 2443 c-4 -3 -7 -11 -7 -17 0 -6 5 -5 12 2 6 6 9 14 7 17 -3 3
-9 2 -12 -2z"/>
<path d="M3071 2434 c0 -11 3 -14 6 -6 3 7 2 16 -1 19 -3 4 -6 -2 -5 -13z"/>
<path d="M3252 2425 c0 -16 2 -22 5 -12 2 9 2 23 0 30 -3 6 -5 -1 -5 -18z"/>
<path d="M3303 2390 c0 -30 2 -43 4 -27 2 15 2 39 0 55 -2 15 -4 2 -4 -28z"/>
<path d="M3141 2414 c0 -11 3 -14 6 -6 3 7 2 16 -1 19 -3 4 -6 -2 -5 -13z"/>
<path d="M3232 2400 c0 -14 2 -19 5 -12 2 6 2 18 0 25 -3 6 -5 1 -5 -13z"/>
<path d="M3031 2394 c0 -11 3 -14 6 -6 3 7 2 16 -1 19 -3 4 -6 -2 -5 -13z"/>
<path d="M3121 2394 c0 -11 3 -14 6 -6 3 7 2 16 -1 19 -3 4 -6 -2 -5 -13z"/>
<path d="M3162 2390 c0 -14 2 -19 5 -12 2 6 2 18 0 25 -3 6 -5 1 -5 -13z"/>
<path d="M3277 2390 c3 -11 7 -20 9 -20 2 0 4 9 4 20 0 11 -4 20 -9 20 -5 0
-7 -9 -4 -20z"/>
<path d="M3333 2355 c0 -33 2 -45 4 -27 2 18 2 45 0 60 -2 15 -4 0 -4 -33z"/>
<path d="M2917 2393 c-4 -3 -7 -11 -7 -17 0 -6 5 -5 12 2 6 6 9 14 7 17 -3 3
-9 2 -12 -2z"/>
<path d="M3101 2374 c0 -11 3 -14 6 -6 3 7 2 16 -1 19 -3 4 -6 -2 -5 -13z"/>
<path d="M3142 2370 c0 -14 2 -19 5 -12 2 6 2 18 0 25 -3 6 -5 1 -5 -13z"/>
<path d="M3252 2370 c0 -14 2 -19 5 -12 2 6 2 18 0 25 -3 6 -5 1 -5 -13z"/>
<path d="M2915 2350 c-10 -11 -22 -17 -27 -14 -11 7 -58 -34 -58 -50 0 -5 7
-1 15 10 13 16 16 17 25 4 9 -12 10 -10 5 8 -9 32 24 26 39 -8 3 -8 4 -4 1 10
-2 14 2 32 12 42 9 10 14 18 11 18 -3 0 -13 -9 -23 -20z"/>
<path d="M3081 2354 c0 -11 3 -14 6 -6 3 7 2 16 -1 19 -3 4 -6 -2 -5 -13z"/>
<path d="M3181 2354 c0 -11 3 -14 6 -6 3 7 2 16 -1 19 -3 4 -6 -2 -5 -13z"/>
<path d="M3121 2344 c0 -11 3 -14 6 -6 3 7 2 16 -1 19 -3 4 -6 -2 -5 -13z"/>
<path d="M3231 2344 c0 -11 3 -14 6 -6 3 7 2 16 -1 19 -3 4 -6 -2 -5 -13z"/>
<path d="M3281 2278 c0 -48 2 -89 7 -92 4 -2 6 30 4 72 -4 111 -9 121 -11 20z"/>
<path d="M3162 2330 c0 -14 2 -19 5 -12 2 6 2 18 0 25 -3 6 -5 1 -5 -13z"/>
<path d="M2763 2322 c1 -14 5 -18 11 -12 7 7 6 14 -1 21 -9 9 -12 7 -10 -9z"/>
<path d="M3101 2324 c0 -11 3 -14 6 -6 3 7 2 16 -1 19 -3 4 -6 -2 -5 -13z"/>
<path d="M3041 2314 c0 -11 3 -14 6 -6 3 7 2 16 -1 19 -3 4 -6 -2 -5 -13z"/>
<path d="M3142 2310 c0 -14 2 -19 5 -12 2 6 2 18 0 25 -3 6 -5 1 -5 -13z"/>
<path d="M3847 2317 c-3 -9 -2 -17 4 -17 6 0 8 -4 4 -9 -3 -5 -1 -12 5 -16 12
-7 12 11 1 39 -7 18 -8 18 -14 3z"/>
<path d="M2991 2304 c0 -11 3 -14 6 -6 3 7 2 16 -1 19 -3 4 -6 -2 -5 -13z"/>
<path d="M3081 2304 c0 -11 3 -14 6 -6 3 7 2 16 -1 19 -3 4 -6 -2 -5 -13z"/>
<path d="M3182 2300 c0 -14 2 -19 5 -12 2 6 2 18 0 25 -3 6 -5 1 -5 -13z"/>
<path d="M3308 2248 c5 -107 10 -116 10 -15 0 48 -4 87 -7 87 -4 0 -5 -33 -3
-72z"/>
<path d="M2941 2294 c0 -11 3 -14 6 -6 3 7 2 16 -1 19 -3 4 -6 -2 -5 -13z"/>
<path d="M3122 2290 c0 -14 2 -19 5 -12 2 6 2 18 0 25 -3 6 -5 1 -5 -13z"/>
<path d="M3234 2225 c0 -49 1 -71 3 -48 2 23 2 64 0 90 -2 26 -3 8 -3 -42z"/>
<path d="M3362 2285 c0 -16 2 -22 5 -12 2 9 2 23 0 30 -3 6 -5 -1 -5 -18z"/>
<path d="M2971 2284 c0 -11 3 -14 6 -6 3 7 2 16 -1 19 -3 4 -6 -2 -5 -13z"/>
<path d="M3164 2215 c0 -49 1 -71 3 -48 2 23 2 64 0 90 -2 26 -3 8 -3 -42z"/>
<path d="M3337 2283 c-3 -5 -1 -17 4 -28 7 -17 8 -17 8 8 1 27 -4 34 -12 20z"/>
<path d="M3041 2264 c0 -11 3 -14 6 -6 3 7 2 16 -1 19 -3 4 -6 -2 -5 -13z"/>
<path d="M3142 2255 c0 -16 2 -22 5 -12 2 9 2 23 0 30 -3 6 -5 -1 -5 -18z"/>
<path d="M3258 2268 c-2 -7 -1 -35 3 -63 l6 -50 1 63 c2 59 -1 76 -10 50z"/>
<path d="M2790 2245 c-13 -14 -22 -27 -19 -29 2 -2 14 10 27 25 29 36 24 38
-8 4z"/>
<path d="M3208 2242 c-2 -15 -1 -38 3 -52 5 -18 7 -10 8 28 1 56 -4 69 -11 24z"/>
<path d="M3022 2240 c0 -14 2 -19 5 -12 2 6 2 18 0 25 -3 6 -5 1 -5 -13z"/>
<path d="M3180 2205 c0 -32 3 -56 6 -52 3 3 6 26 6 52 0 26 -3 49 -6 53 -3 3
-6 -21 -6 -53z"/>
<path d="M2815 2240 c-3 -5 -1 -10 4 -10 6 0 11 -6 11 -14 0 -8 4 -17 10 -21
5 -3 5 7 -1 25 -12 33 -15 35 -24 20z"/>
<path d="M3121 2234 c0 -11 3 -14 6 -6 3 7 2 16 -1 19 -3 4 -6 -2 -5 -13z"/>
<path d="M3003 2202 c-1 -35 2 -40 13 -31 15 13 20 44 5 34 -5 -3 -11 5 -14
17 -2 13 -4 4 -4 -20z"/>
<path d="M1820 2197 c0 -13 -9 -33 -19 -44 -11 -12 -17 -24 -14 -27 4 -3 19
13 35 36 56 85 26 24 -76 -155 -57 -100 -188 -333 -291 -517 -180 -321 -290
-515 -343 -608 -19 -33 -27 -40 -34 -30 -7 9 -8 7 -4 -7 4 -15 -43 -105 -165
-315 -94 -162 -176 -299 -182 -305 -6 -5 -1 7 11 28 25 43 26 47 12 47 -5 0
-10 -6 -10 -13 0 -24 -44 -73 -63 -69 -10 2 -17 7 -15 11 17 39 142 241 150
241 5 0 7 4 3 9 -3 6 3 14 12 20 10 6 14 11 9 11 -6 0 -1 7 10 16 10 8 12 12
4 8 -8 -4 -3 5 12 20 15 16 30 37 34 48 4 15 12 18 29 14 14 -4 25 -1 28 7 4
10 -3 12 -26 9 l-30 -5 25 44 c130 228 215 365 226 363 7 -1 8 0 2 3 -6 3 1
25 19 56 16 29 36 63 43 77 38 72 113 190 120 190 5 0 7 3 4 8 -2 4 82 156
188 337 137 234 197 330 210 330 10 0 22 9 29 20 9 18 9 18 -5 7 -25 -20 -29
1 -7 37 11 18 18 35 16 38 -3 2 -25 -31 -50 -74 -227 -399 -854 -1454 -1116
-1878 -103 -166 -110 -180 -89 -184 14 -2 27 4 33 14 61 103 145 223 116 168
-6 -13 -9 -23 -6 -23 3 0 -19 -36 -50 -80 -46 -66 -52 -80 -37 -80 13 0 34 24
65 78 25 42 53 86 62 97 18 22 2 -8 -59 -110 -34 -58 -34 -82 1 -53 12 9 15 9
9 0 -6 -9 20 -12 113 -12 67 0 121 4 121 8 0 5 7 17 16 28 15 18 15 18 5 -3
-6 -12 -11 -24 -11 -27 0 -3 324 -6 719 -6 567 0 720 3 724 12 4 10 6 10 6 1
1 -7 7 -13 15 -13 21 0 31 92 11 103 -17 9 -20 27 -4 27 5 0 7 -4 4 -10 -3 -5
-1 -10 6 -10 7 0 9 10 6 25 -4 22 3 109 17 209 2 16 10 33 19 37 12 7 13 17 5
51 -10 43 -7 97 8 132 6 16 4 18 -11 13 -14 -6 -16 -5 -7 6 7 8 9 17 5 21 -4
4 0 4 10 0 9 -3 14 -10 11 -15 -3 -5 -1 -9 3 -9 5 0 9 21 10 48 2 74 14 136
28 152 7 8 15 45 18 81 6 62 23 119 36 119 3 0 6 30 6 67 l0 67 82 65 c66 54
79 68 67 77 -8 6 -14 20 -13 30 0 16 2 16 9 -3 16 -38 60 -22 60 22 0 16 2 17
10 5 16 -26 63 36 68 92 5 58 18 64 15 8 l-2 -40 25 16 c18 12 24 25 24 53 0
25 3 32 9 22 5 -8 8 -19 7 -25 -2 -6 -1 -8 1 -3 3 4 11 7 18 7 8 0 17 4 20 10
7 11 23 181 17 175 -3 -2 -14 0 -25 6 -15 9 -18 8 -11 -3 14 -22 13 -37 -3
-31 -12 5 -12 7 -1 14 7 5 8 9 3 9 -6 0 -16 14 -22 31 -9 24 -16 30 -30 25 -9
-4 -14 -4 -10 0 4 4 -7 16 -23 26 -35 21 -44 23 -34 6 4 -7 3 -8 -5 -4 -6 4
-9 12 -6 17 4 5 -3 9 -14 9 -11 0 -22 -8 -24 -17 -3 -12 -5 -10 -6 7 -1 19
-17 35 -74 72 -39 26 -90 63 -112 82 -43 38 -50 41 -60 26 -3 -5 -13 -6 -22
-3 -13 5 -12 9 8 24 20 16 22 20 9 28 -8 6 -17 7 -20 4 -3 -3 0 -8 7 -10 8 -3
3 -13 -14 -27 l-26 -23 -41 23 c-47 27 -53 28 -59 12 -2 -7 -3 -6 -2 3 2 15
-25 39 -44 39 -5 0 -15 -16 -21 -36 -7 -19 -14 -33 -17 -31 -2 3 3 21 11 41
15 36 15 36 -15 51 -16 9 -29 13 -29 10 0 -3 -10 3 -22 15 -29 27 -45 25 -52
-6 -4 -15 -9 -24 -12 -22 -2 3 0 17 5 32 9 23 7 27 -21 42 -25 13 -32 14 -40
2 -8 -10 -9 -9 -4 4 6 20 -47 54 -66 42 -6 -4 -8 -3 -5 2 5 9 -152 104 -173
104 -6 0 -10 -10 -10 -23z m95 -76 c-21 -43 -29 -39 -8 4 9 19 18 33 21 31 2
-2 -4 -18 -13 -35z m58 -76 c-3 -9 -8 -14 -10 -11 -3 3 -2 9 2 15 9 16 15 13
8 -4z m-138 -75 c-19 -38 -38 -70 -40 -70 -3 0 11 32 30 70 19 39 38 70 40 70
3 0 -11 -31 -30 -70z m206 13 c-11 -21 -20 -35 -21 -31 0 12 33 78 38 74 2 -2
-6 -21 -17 -43z m70 -50 c-12 -20 -14 -14 -5 12 4 9 9 14 11 11 3 -2 0 -13 -6
-23z m80 0 c-12 -20 -14 -14 -5 12 4 9 9 14 11 11 3 -2 0 -13 -6 -23z m-358
-178 c-70 -142 -76 -158 -60 -167 13 -7 15 -13 8 -22 -8 -9 -7 -13 4 -13 8 0
12 4 9 9 -3 4 2 8 10 8 22 0 26 -12 13 -37 -12 -21 -13 -21 -48 -4 l-37 18
-33 -68 c-18 -38 -34 -67 -36 -65 -2 1 34 79 78 172 45 93 82 175 82 182 0 6
3 12 7 12 3 0 21 31 40 70 18 38 35 68 37 66 2 -2 -31 -74 -74 -161z m258 128
c-12 -20 -14 -14 -5 12 4 9 9 14 11 11 3 -2 0 -13 -6 -23z m80 0 c-12 -20 -14
-14 -5 12 4 9 9 14 11 11 3 -2 0 -13 -6 -23z m-180 -10 c-12 -20 -14 -14 -5
12 4 9 9 14 11 11 3 -2 0 -13 -6 -23z m330 -4 c-5 -13 -10 -19 -10 -12 -1 15
10 45 15 40 3 -2 0 -15 -5 -28z m-602 -120 c-142 -269 -171 -330 -159 -344 7
-9 6 -16 -7 -26 -15 -12 -16 -12 -10 4 3 9 5 17 3 17 -7 0 -51 -79 -146 -265
-51 -99 -97 -184 -103 -190 -5 -5 40 87 102 207 61 119 111 221 111 227 0 6
-7 11 -15 11 -8 0 -15 -5 -15 -11 0 -5 4 -7 10 -4 6 3 7 -1 3 -10 -4 -12 -8
-13 -13 -5 -4 6 -10 11 -14 11 -23 -3 -30 0 -16 9 11 7 11 10 2 10 -7 0 -10 5
-7 10 4 6 10 8 15 5 5 -3 12 0 16 6 5 8 3 9 -6 4 -8 -5 -11 -3 -8 6 6 15 8 15
48 6 29 -7 17 -26 180 286 51 98 94 176 96 174 2 -2 -28 -64 -67 -138z m819
103 c2 -7 -8 -6 -27 4 -17 9 -31 17 -31 19 0 9 54 -13 58 -23z m-151 -4 c-3
-8 -6 -5 -6 6 -1 11 2 17 5 13 3 -3 4 -12 1 -19z m70 0 c-3 -8 -6 -5 -6 6 -1
11 2 17 5 13 3 -3 4 -12 1 -19z m-386 -15 c-12 -20 -14 -14 -5 12 4 9 9 14 11
11 3 -2 0 -13 -6 -23z m542 -22 c22 -17 34 -32 28 -36 -6 -3 -11 -2 -11 4 0 6
-10 15 -21 22 -17 9 -24 8 -31 -2 -8 -11 -9 -10 -4 4 3 9 1 17 -4 17 -6 0 -10
5 -10 10 0 16 12 11 53 -19z m-472 -8 c-12 -20 -14 -14 -5 12 4 9 9 14 11 11
3 -2 0 -13 -6 -23z m80 0 c-12 -20 -14 -14 -5 12 4 9 9 14 11 11 3 -2 0 -13
-6 -23z m-280 -44 c-25 -41 -27 -33 -4 16 10 20 19 32 21 27 2 -6 -6 -25 -17
-43z m496 19 c-3 -8 -6 -5 -6 6 -1 11 2 17 5 13 3 -3 4 -12 1 -19z m-391 -13
c0 -14 -4 -25 -7 -25 -4 0 -12 -13 -19 -30 -7 -16 -16 -27 -21 -24 -5 3 -3 12
5 20 8 7 20 30 26 49 14 41 18 44 16 10z m381 -27 c-3 -8 -6 -5 -6 6 -1 11 2
17 5 13 3 -3 4 -12 1 -19z m200 -10 c-3 -7 -5 -2 -5 12 0 14 2 19 5 13 2 -7 2
-19 0 -25z m-516 -5 c-12 -20 -14 -14 -5 12 4 9 9 14 11 11 3 -2 0 -13 -6 -23z
m576 -5 c-3 -7 -5 -2 -5 12 0 14 2 19 5 13 2 -7 2 -19 0 -25z m-130 -10 c-3
-8 -6 -5 -6 6 -1 11 2 17 5 13 3 -3 4 -12 1 -19z m-656 -35 c-11 -21 -20 -35
-21 -31 0 12 33 78 38 74 2 -2 -6 -21 -17 -43z m586 25 c-3 -8 -6 -5 -6 6 -1
11 2 17 5 13 3 -3 4 -12 1 -19z m130 -20 c-3 -7 -5 -2 -5 12 0 14 2 19 5 13 2
-7 2 -19 0 -25z m92 9 c8 -10 7 -14 -4 -14 -8 0 -12 4 -9 8 2 4 -2 10 -8 12
-8 4 -9 6 -2 6 6 1 17 -5 23 -12z m-302 -19 c-3 -8 -6 -5 -6 6 -1 11 2 17 5
13 3 -3 4 -12 1 -19z m140 0 c-3 -8 -6 -5 -6 6 -1 11 2 17 5 13 3 -3 4 -12 1
-19z m-70 -10 c-3 -8 -6 -5 -6 6 -1 11 2 17 5 13 3 -3 4 -12 1 -19z m200 -10
c-3 -7 -5 -2 -5 12 0 14 2 19 5 13 2 -7 2 -19 0 -25z m60 -5 c-3 -10 -5 -4 -5
12 0 17 2 24 5 18 2 -7 2 -21 0 -30z m-410 5 c-3 -8 -6 -5 -6 6 -1 11 2 17 5
13 3 -3 4 -12 1 -19z m490 -18 c12 0 14 -7 9 -31 -3 -17 -6 -40 -6 -51 0 -15
-5 -18 -20 -13 -26 8 -28 -22 -2 -41 15 -12 15 -12 -7 -7 -20 5 -22 10 -17 42
3 20 9 61 13 91 4 30 9 45 11 33 2 -13 10 -23 19 -23z m-658 -9 c-6 -18 -13
-30 -15 -28 -2 2 1 18 7 36 6 18 13 30 15 28 2 -2 -1 -18 -7 -36z m308 -3 c-3
-8 -6 -5 -6 6 -1 11 2 17 5 13 3 -3 4 -12 1 -19z m70 0 c-3 -8 -6 -5 -6 6 -1
11 2 17 5 13 3 -3 4 -12 1 -19z m-688 -67 c-18 -39 -34 -69 -37 -67 -2 3 11
37 28 76 18 38 35 69 37 67 2 -2 -11 -36 -28 -76z m818 57 c-3 -8 -6 -5 -6 6
-1 11 2 17 5 13 3 -3 4 -12 1 -19z m99 -23 c-4 -17 -11 -22 -26 -18 -11 3 -20
14 -20 24 0 11 5 16 14 13 7 -3 17 3 21 13 10 25 19 0 11 -32z m-795 8 c-12
-20 -14 -14 -5 12 4 9 9 14 11 11 3 -2 0 -13 -6 -23z m88 -12 c-6 -18 -13 -30
-15 -28 -2 2 1 18 7 36 6 18 13 30 15 28 2 -2 -1 -18 -7 -36z m328 17 c-3 -8
-6 -5 -6 6 -1 11 2 17 5 13 3 -3 4 -12 1 -19z m493 -43 c0 -43 -12 -65 -25
-45 -4 6 -11 7 -17 4 -8 -5 -9 1 -5 17 4 13 7 39 7 57 0 30 2 32 20 22 15 -8
20 -21 20 -55z m-666 -19 c-10 -31 -19 -54 -22 -52 -2 2 4 29 14 60 10 31 19
54 22 52 2 -2 -4 -29 -14 -60z m243 42 c-3 -8 -6 -5 -6 6 -1 11 2 17 5 13 3
-3 4 -12 1 -19z m70 0 c-3 -8 -6 -5 -6 6 -1 11 2 17 5 13 3 -3 4 -12 1 -19z
m109 -16 c1 -12 -3 -22 -8 -22 -5 0 -6 -5 -2 -12 5 -8 2 -9 -10 -5 -10 4 -22
7 -27 7 -5 0 -9 4 -9 9 0 5 10 7 23 4 22 -4 22 -4 2 13 -20 16 -20 16 3 11 20
-5 21 -3 10 10 -11 14 -11 15 2 11 8 -2 16 -14 16 -26z m296 -41 c-4 -46 -6
-50 -23 -40 -20 10 -23 27 -13 77 5 25 10 30 23 23 12 -7 15 -21 13 -60z
m-555 37 c-3 -8 -6 -5 -6 6 -1 11 2 17 5 13 3 -3 4 -12 1 -19z m-432 -31 c-8
-20 -15 -38 -15 -39 1 -2 -10 -28 -24 -58 -27 -59 -36 -62 -11 -4 12 30 13 38
1 49 -7 8 -15 13 -17 12 -3 -1 2 4 11 11 8 7 19 11 26 8 6 -2 16 12 23 31 7
19 15 33 17 30 2 -2 -3 -20 -11 -40z m352 21 c-3 -8 -6 -5 -6 6 -1 11 2 17 5
13 3 -3 4 -12 1 -19z m384 12 c10 -6 19 -20 19 -31 0 -16 -4 -19 -22 -14 -23
7 -23 7 -3 -9 20 -17 20 -17 -5 -11 l-25 6 21 -18 c17 -14 21 -26 17 -50 -3
-18 -10 -33 -15 -33 -5 0 -6 5 -3 10 3 6 3 10 -2 10 -13 0 -29 -14 -37 -30 -3
-8 -4 -4 -1 10 2 14 10 58 17 98 6 39 14 72 16 72 2 0 12 -5 23 -10z m-234
-22 c-3 -8 -6 -5 -6 6 -1 11 2 17 5 13 3 -3 4 -12 1 -19z m70 -10 c-3 -7 -5
-2 -5 12 0 14 2 19 5 13 2 -7 2 -19 0 -25z m-498 -52 c-12 -31 -24 -55 -26
-53 -2 2 6 30 18 61 12 31 24 55 26 53 2 -2 -6 -30 -18 -61z m737 42 c4 -6 -3
-8 -17 -4 -21 6 -22 5 -8 -6 24 -20 21 -50 -5 -43 -20 6 -20 5 -3 -8 18 -15
24 -72 7 -82 -6 -4 -7 -12 -4 -18 4 -7 -3 -3 -15 9 -20 18 -21 26 -14 70 7 41
12 49 28 46 18 -2 19 -2 3 8 -26 16 -24 50 2 43 11 -3 23 -10 26 -15z m-319
-20 c-3 -8 -6 -5 -6 6 -1 11 2 17 5 13 3 -3 4 -12 1 -19z m184 12 c6 0 8 -8 6
-17 -3 -10 -8 -31 -12 -47 -5 -23 -8 -27 -16 -15 -7 12 -9 11 -9 -3 0 -10 5
-18 10 -18 6 0 10 -5 10 -10 0 -6 -8 -5 -19 2 -14 8 -17 17 -11 28 5 9 5 22
-1 31 -5 7 -8 21 -8 29 0 10 3 9 10 -5 8 -17 9 -16 5 8 -3 21 0 27 11 23 8 -3
19 -6 24 -6z m-114 -22 c-3 -8 -6 -5 -6 6 -1 11 2 17 5 13 3 -3 4 -12 1 -19z
m-230 -10 c-3 -8 -6 -5 -6 6 -1 11 2 17 5 13 3 -3 4 -12 1 -19z m150 -20 c-3
-8 -6 -5 -6 6 -1 11 2 17 5 13 3 -3 4 -12 1 -19z m373 12 c8 -5 11 -10 5 -10
-5 0 -17 5 -25 10 -8 5 -10 10 -5 10 6 0 17 -5 25 -10z m-1009 -47 c-11 -21
-20 -35 -21 -31 0 12 33 78 38 74 2 -2 -6 -21 -17 -43z m154 37 c3 -5 1 -10
-4 -10 -6 0 -11 5 -11 10 0 6 2 10 4 10 3 0 8 -4 11 -10z m402 -12 c-3 -8 -6
-5 -6 6 -1 11 2 17 5 13 3 -3 4 -12 1 -19z m-256 -15 c-12 -20 -14 -14 -5 12
4 9 9 14 11 11 3 -2 0 -13 -6 -23z m699 -13 c13 0 13 -67 0 -75 -5 -3 -10 -1
-10 4 0 6 -4 11 -9 11 -5 0 -7 -10 -3 -22 3 -13 1 -19 -5 -15 -6 4 -9 24 -8
44 1 21 3 52 4 68 2 28 3 29 11 8 5 -13 14 -23 20 -23z m15 20 c3 -5 2 -10 -4
-10 -5 0 -13 5 -16 10 -3 6 -2 10 4 10 5 0 13 -4 16 -10z m-388 -22 c-3 -8 -6
-5 -6 6 -1 11 2 17 5 13 3 -3 4 -12 1 -19z m70 -20 c-3 -8 -6 -5 -6 6 -1 11 2
17 5 13 3 -3 4 -12 1 -19z m-410 -10 c-3 -8 -6 -5 -6 6 -1 11 2 17 5 13 3 -3
4 -12 1 -19z m486 -3 c-7 -21 -13 -19 -13 6 0 11 4 18 10 14 5 -3 7 -12 3 -20z
m-908 -4 c-4 -14 1 -20 22 -26 50 -12 59 -48 11 -43 -21 2 -33 -2 -35 -12 -4
-13 -3 -13 6 0 6 8 11 10 11 4 0 -16 -10 -23 -26 -17 -17 6 -18 30 -1 36 9 4
9 6 0 6 -7 1 -33 -38 -57 -86 -63 -122 -57 -99 9 41 50 105 76 147 60 97z
m752 -3 c-3 -8 -6 -5 -6 6 -1 11 2 17 5 13 3 -3 4 -12 1 -19z m263 1 c0 -4 -7
-6 -15 -3 -8 4 -15 10 -15 15 0 4 7 6 15 3 8 -4 15 -10 15 -15z m-699 -26
c-12 -20 -14 -14 -5 12 4 9 9 14 11 11 3 -2 0 -13 -6 -23z m506 5 c-3 -8 -6
-5 -6 6 -1 11 2 17 5 13 3 -3 4 -12 1 -19z m-748 -77 c-18 -39 -34 -70 -36
-68 -2 2 11 36 28 76 18 39 34 69 36 67 2 -2 -10 -36 -28 -75z m588 57 c-3 -8
-6 -5 -6 6 -1 11 2 17 5 13 3 -3 4 -12 1 -19z m80 0 c-3 -8 -6 -5 -6 6 -1 11
2 17 5 13 3 -3 4 -12 1 -19z m150 -10 c-3 -7 -5 -2 -5 12 0 14 2 19 5 13 2 -7
2 -19 0 -25z m147 -2 c2 -14 -1 -23 -5 -20 -5 3 -9 17 -9 31 0 32 11 24 14
-11z m-833 -3 c-12 -20 -14 -14 -5 12 4 9 9 14 11 11 3 -2 0 -13 -6 -23z m780
-8 c27 -9 19 -16 -9 -8 -15 3 -22 13 -21 27 1 16 2 17 6 4 2 -9 13 -20 24 -23z
m-690 -12 c-12 -20 -14 -14 -5 12 4 9 9 14 11 11 3 -2 0 -13 -6 -23z m273 -7
c-3 -15 -8 -25 -11 -23 -2 3 -1 17 3 31 3 15 8 25 11 23 2 -3 1 -17 -3 -31z
m243 12 c-3 -8 -6 -5 -6 6 -1 11 2 17 5 13 3 -3 4 -12 1 -19z m-160 -10 c-3
-8 -6 -5 -6 6 -1 11 2 17 5 13 3 -3 4 -12 1 -19z m230 -10 c-3 -8 -6 -5 -6 6
-1 11 2 17 5 13 3 -3 4 -12 1 -19z m-708 -47 c-12 -28 -24 -50 -26 -48 -2 2 6
27 18 56 12 28 24 50 26 48 2 -2 -6 -27 -18 -56z m750 2 c-9 -42 -15 -49 -22
-28 -4 8 -1 15 5 15 9 0 9 3 0 12 -7 7 -12 22 -12 35 0 20 2 22 19 12 15 -10
17 -18 10 -46z m35 43 c-3 -9 3 -17 15 -21 12 -3 21 -15 21 -26 0 -21 -20 -25
-38 -7 -14 14 -16 68 -2 68 5 0 7 -6 4 -14z m-500 -60 c-10 -31 -19 -54 -22
-52 -2 2 4 29 14 60 10 31 19 54 22 52 2 -2 -4 -29 -14 -60z m541 54 c3 -6 -1
-7 -9 -4 -18 7 -21 14 -7 14 6 0 13 -4 16 -10z m-361 -34 c-3 -15 -8 -25 -11
-23 -2 3 -1 17 3 31 3 15 8 25 11 23 2 -3 1 -17 -3 -31z m83 12 c-3 -8 -6 -5
-6 6 -1 11 2 17 5 13 3 -3 4 -12 1 -19z m80 0 c-3 -8 -6 -5 -6 6 -1 11 2 17 5
13 3 -3 4 -12 1 -19z m70 -20 c-3 -8 -6 -5 -6 6 -1 11 2 17 5 13 3 -3 4 -12 1
-19z m-608 -27 c-6 -18 -13 -30 -15 -28 -2 2 1 18 7 36 6 18 13 30 15 28 2 -2
-1 -18 -7 -36z m448 7 c-3 -8 -6 -5 -6 6 -1 11 2 17 5 13 3 -3 4 -12 1 -19z
m77 -22 c-3 -21 -8 -35 -11 -32 -2 2 -1 20 3 40 3 21 8 35 11 32 2 -2 1 -20
-3 -40z m-445 -35 c-12 -34 -23 -60 -25 -58 -2 2 6 32 17 66 12 34 23 60 25
58 2 -2 -6 -32 -17 -66z m195 35 c-3 -15 -8 -25 -11 -23 -2 3 -1 17 3 31 3 15
8 25 11 23 2 -3 1 -17 -3 -31z m416 14 c9 -16 8 -20 -5 -20 -8 0 -15 9 -15 20
0 11 2 20 5 20 2 0 9 -9 15 -20z m-333 -22 c-3 -8 -6 -5 -6 6 -1 11 2 17 5 13
3 -3 4 -12 1 -19z m240 -10 c-3 -7 -5 -2 -5 12 0 14 2 19 5 13 2 -7 2 -19 0
-25z m-160 0 c-3 -8 -6 -5 -6 6 -1 11 2 17 5 13 3 -3 4 -12 1 -19z m203 12 c8
-5 12 -11 10 -14 -3 -2 -14 2 -24 10 -22 15 -10 19 14 4z m-894 -47 c-8 -15
-15 -25 -16 -21 0 12 23 58 27 54 3 -2 -2 -17 -11 -33z m223 -12 c-6 -18 -13
-30 -15 -28 -2 2 1 18 7 36 6 18 13 30 15 28 2 -2 -1 -18 -7 -36z m378 17 c-3
-8 -6 -5 -6 6 -1 11 2 17 5 13 3 -3 4 -12 1 -19z m293 6 c0 -2 -7 -4 -15 -4
-8 0 -15 4 -15 10 0 5 7 7 15 4 8 -4 15 -8 15 -10z m-1069 -110 c-27 -55 -50
-96 -50 -92 -1 11 93 198 97 194 2 -2 -19 -48 -47 -102z m290 79 c-12 -20 -14
-14 -5 12 4 9 9 14 11 11 3 -2 0 -13 -6 -23z m646 5 c-3 -8 -6 -5 -6 6 -1 11
2 17 5 13 3 -3 4 -12 1 -19z m86 2 c3 -11 1 -18 -4 -14 -5 3 -9 12 -9 20 0 20
7 17 13 -6z m34 4 c-3 -3 -12 -4 -19 -1 -8 3 -5 6 6 6 11 1 17 -2 13 -5z
m-380 -26 c-3 -8 -6 -5 -6 6 -1 11 2 17 5 13 3 -3 4 -12 1 -19z m170 -10 c-3
-8 -6 -5 -6 6 -1 11 2 17 5 13 3 -3 4 -12 1 -19z m-706 -35 c-11 -21 -20 -35
-21 -31 0 12 33 78 38 74 2 -2 -6 -21 -17 -43z m616 15 c-3 -8 -6 -5 -6 6 -1
11 2 17 5 13 3 -3 4 -12 1 -19z m170 0 c-3 -8 -6 -5 -6 6 -1 11 2 17 5 13 3
-3 4 -12 1 -19z m-1102 2 c-3 -5 -12 -10 -18 -10 -7 0 -6 4 3 10 19 12 23 12
15 0z m546 -17 c-12 -20 -14 -14 -5 12 4 9 9 14 11 11 3 -2 0 -13 -6 -23z
m-529 -5 c-7 -7 -12 -8 -12 -2 0 14 12 26 19 19 2 -3 -1 -11 -7 -17z m419 -5
c-12 -20 -14 -14 -5 12 4 9 9 14 11 11 3 -2 0 -13 -6 -23z m749 7 c0 -5 -7 -7
-15 -4 -8 4 -15 8 -15 10 0 2 7 4 15 4 8 0 15 -4 15 -10z m-263 -22 c-3 -8 -6
-5 -6 6 -1 11 2 17 5 13 3 -3 4 -12 1 -19z m170 0 c-3 -8 -6 -5 -6 6 -1 11 2
17 5 13 3 -3 4 -12 1 -19z m73 -3 c0 -8 -2 -15 -4 -15 -2 0 -6 7 -10 15 -3 8
-1 15 4 15 6 0 10 -7 10 -15z m10 -42 c-11 -17 -11 -17 -6 0 3 10 7 26 7 35 1
15 2 15 6 0 2 -10 -1 -25 -7 -35z m-759 10 c-12 -20 -14 -14 -5 12 4 9 9 14
11 11 3 -2 0 -13 -6 -23z m406 5 c-3 -8 -6 -5 -6 6 -1 11 2 17 5 13 3 -3 4
-12 1 -19z m180 0 c-3 -8 -6 -5 -6 6 -1 11 2 17 5 13 3 -3 4 -12 1 -19z m-726
-35 c-11 -21 -20 -35 -21 -31 0 12 33 78 38 74 2 -2 -6 -21 -17 -43z m853 15
c4 -17 2 -28 -4 -28 -5 0 -10 14 -10 32 0 36 4 35 14 -4z m-904 18 c0 -2 -8
-10 -17 -17 -16 -13 -17 -12 -4 4 13 16 21 21 21 13z m497 -18 c-3 -8 -6 -5
-6 6 -1 11 2 17 5 13 3 -3 4 -12 1 -19z m456 -22 c22 6 22 6 2 -9 -23 -18 -35
-6 -33 33 1 23 1 23 5 -3 4 -23 8 -27 26 -21z m-369 -10 c-3 -15 -8 -25 -11
-23 -2 3 -1 17 3 31 3 15 8 25 11 23 2 -3 1 -17 -3 -31z m93 12 c-3 -8 -6 -5
-6 6 -1 11 2 17 5 13 3 -3 4 -12 1 -19z m90 0 c-3 -8 -6 -5 -6 6 -1 11 2 17 5
13 3 -3 4 -12 1 -19z m-596 -15 c-12 -20 -14 -14 -5 12 4 9 9 14 11 11 3 -2 0
-13 -6 -23z m496 -25 c-3 -8 -6 -5 -6 6 -1 11 2 17 5 13 3 -3 4 -12 1 -19z
m-924 -13 c-3 -9 -8 -14 -10 -11 -3 3 -2 9 2 15 9 16 15 13 8 -4z m408 -12
c-12 -20 -14 -14 -5 12 4 9 9 14 11 11 3 -2 0 -13 -6 -23z m108 -12 c-6 -18
-13 -30 -15 -28 -2 2 1 18 7 36 6 18 13 30 15 28 2 -2 -1 -18 -7 -36z m-376
14 c-3 -9 -8 -14 -10 -11 -3 3 -2 9 2 15 9 16 15 13 8 -4z m128 -22 c-12 -20
-14 -14 -5 12 4 9 9 14 11 11 3 -2 0 -13 -6 -23z m646 5 c-3 -8 -6 -5 -6 6 -1
11 2 17 5 13 3 -3 4 -12 1 -19z m130 0 c-3 -8 -6 -5 -6 6 -1 11 2 17 5 13 3
-3 4 -12 1 -19z m146 7 c-3 -9 -8 -14 -10 -11 -3 3 -2 9 2 15 9 16 15 13 8 -4z
m-1220 -40 c-9 -19 -18 -33 -21 -31 -4 5 26 66 33 66 3 0 -3 -16 -12 -35z
m137 -24 c-28 -56 -35 -52 -8 4 12 24 23 43 26 41 2 -2 -6 -22 -18 -45z m927
7 c-3 -8 -6 -5 -6 6 -1 11 2 17 5 13 3 -3 4 -12 1 -19z m90 0 c-3 -8 -6 -5 -6
6 -1 11 2 17 5 13 3 -3 4 -12 1 -19z m-636 -15 c-12 -20 -14 -14 -5 12 4 9 9
14 11 11 3 -2 0 -13 -6 -23z m-255 -20 c-8 -15 -15 -25 -16 -21 0 12 23 58 27
54 3 -2 -2 -17 -11 -33z m-301 -23 c-17 -34 -19 -44 -5 -35 6 3 10 2 10 -4 0
-5 -9 -9 -19 -8 -19 1 -19 2 0 39 11 21 22 38 24 38 3 0 -1 -13 -10 -30z m426
3 c-12 -20 -14 -14 -5 12 4 9 9 14 11 11 3 -2 0 -13 -6 -23z m824 7 c3 -5 1
-10 -4 -10 -6 0 -11 5 -11 10 0 6 2 10 4 10 3 0 8 -4 11 -10z m-498 -22 c-3
-8 -6 -5 -6 6 -1 11 2 17 5 13 3 -3 4 -12 1 -19z m-636 -54 c-16 -33 -30 -56
-31 -52 0 11 53 118 58 114 2 -2 -10 -30 -27 -62z m160 33 c-10 -9 -11 -8 -5
6 3 10 9 15 12 12 3 -3 0 -11 -7 -18z m250 -4 c-12 -20 -14 -14 -5 12 4 9 9
14 11 11 3 -2 0 -13 -6 -23z m546 5 c-3 -8 -6 -5 -6 6 -1 11 2 17 5 13 3 -3 4
-12 1 -19z m-35 -30 c-8 -8 -9 -4 -5 13 4 13 8 18 11 10 2 -7 -1 -18 -6 -23z
m-835 0 c40 -14 41 -21 8 -46 -13 -11 -21 -23 -17 -27 4 -4 -3 -3 -15 4 -12 6
-32 10 -44 8 -30 -3 -34 15 -9 46 24 31 30 32 77 15z m-269 -63 c-18 -35 -34
-63 -36 -61 -4 5 56 126 63 126 3 0 -10 -29 -27 -65z m453 28 c-12 -20 -14
-14 -5 12 4 9 9 14 11 11 3 -2 0 -13 -6 -23z m676 -5 c-3 -8 -6 -5 -6 6 -1 11
2 17 5 13 3 -3 4 -12 1 -19z m-1157 -3 c0 -8 -4 -15 -10 -15 -5 0 -7 7 -4 15
4 8 8 15 10 15 2 0 4 -7 4 -15z m1280 -20 c0 -14 -4 -25 -9 -25 -4 0 -6 11 -3
25 2 14 6 25 8 25 2 0 4 -11 4 -25z m-959 -22 c-12 -20 -14 -14 -5 12 4 9 9
14 11 11 3 -2 0 -13 -6 -23z m140 0 c-12 -20 -14 -14 -5 12 4 9 9 14 11 11 3
-2 0 -13 -6 -23z m-211 7 c0 -5 -5 -10 -11 -10 -5 0 -7 5 -4 10 3 6 8 10 11
10 2 0 4 -4 4 -10z m321 -27 c-12 -20 -14 -14 -5 12 4 9 9 14 11 11 3 -2 0
-13 -6 -23z m-356 -12 c-3 -6 -11 -11 -17 -11 -6 0 -6 6 2 15 14 17 26 13 15
-4z m260 -20 c-3 -6 -11 -8 -17 -5 -6 4 -5 9 3 15 16 10 23 4 14 -10z m-35
-31 c0 -5 -4 -10 -9 -10 -5 0 -13 -9 -16 -21 -4 -11 -9 -18 -11 -16 -7 7 18
57 28 57 4 0 8 -4 8 -10z m-364 -119 c-20 -39 -38 -71 -41 -71 -3 0 12 34 32
75 20 41 39 73 41 71 2 -2 -13 -36 -32 -75z m-151 29 c-9 -16 -18 -30 -21 -30
-2 0 2 14 11 30 9 17 18 30 21 30 2 0 -2 -13 -11 -30z m1175 -40 c-6 -11 -15
-20 -20 -20 -14 0 -12 6 6 24 21 22 27 20 14 -4z m-163 4 c-3 -3 -12 -4 -19
-1 -8 3 -5 6 6 6 11 1 17 -2 13 -5z m203 -12 c0 -5 -7 -9 -15 -9 -8 0 -12 4
-9 9 3 4 9 8 15 8 5 0 9 -4 9 -8z m129 -35 c-2 -1 -13 -9 -24 -17 -19 -14 -19
-14 -6 3 7 9 18 17 24 17 6 0 8 -1 6 -3z m-1078 -34 c-12 -20 -14 -14 -5 12 4
9 9 14 11 11 3 -2 0 -13 -6 -23z m150 0 c-12 -20 -14 -14 -5 12 4 9 9 14 11
11 3 -2 0 -13 -6 -23z m-481 -3 c-6 -11 -13 -20 -16 -20 -2 0 0 9 6 20 6 11
13 20 16 20 2 0 0 -9 -6 -20z m162 -16 c-9 -16 -10 -14 -9 8 1 15 6 23 11 18
4 -4 4 -16 -2 -26z m-212 -34 c-6 -11 -13 -20 -16 -20 -2 0 0 9 6 20 6 11 13
20 16 20 2 0 0 -9 -6 -20z m193 -5 c-3 -9 -8 -14 -10 -11 -3 3 -2 9 2 15 9 16
15 13 8 -4z m140 -50 c-3 -9 -8 -14 -10 -11 -3 3 -2 9 2 15 9 16 15 13 8 -4z
m108 -112 c-12 -20 -14 -14 -5 12 4 9 9 14 11 11 3 -2 0 -13 -6 -23z m-450
-50 c-12 -20 -14 -14 -5 12 4 9 9 14 11 11 3 -2 0 -13 -6 -23z m-231 -7 c0 -2
-8 -10 -17 -17 -16 -13 -17 -12 -4 4 13 16 21 21 21 13z"/>
<path d="M2714 1413 c3 -6 0 -13 -6 -16 -7 -2 -11 -7 -8 -10 3 -3 12 -2 20 3
13 8 13 11 1 22 -8 8 -11 8 -7 1z"/>
<path d="M2982 2200 c0 -14 2 -19 5 -12 2 6 2 18 0 25 -3 6 -5 1 -5 -13z"/>
<path d="M3142 2195 c0 -16 2 -22 5 -12 2 9 2 23 0 30 -3 6 -5 -1 -5 -18z"/>
<path d="M1786 2178 l-18 -33 21 25 c18 22 26 40 18 40 -1 0 -11 -15 -21 -32z"/>
<path d="M2937 2175 c3 -22 7 -42 9 -44 8 -9 2 45 -6 64 -7 14 -8 8 -3 -20z"/>
<path d="M3342 2157 c2 -31 6 -57 9 -57 7 0 0 102 -7 109 -2 3 -3 -21 -2 -52z"/>
<path d="M3071 2184 c0 -11 3 -14 6 -6 3 7 2 16 -1 19 -3 4 -6 -2 -5 -13z"/>
<path d="M2911 2174 c0 -11 3 -14 6 -6 3 7 2 16 -1 19 -3 4 -6 -2 -5 -13z"/>
<path d="M2961 2174 c0 -11 3 -14 6 -6 3 7 2 16 -1 19 -3 4 -6 -2 -5 -13z"/>
<path d="M3052 2170 c0 -14 2 -19 5 -12 2 6 2 18 0 25 -3 6 -5 1 -5 -13z"/>
<path d="M2716 2163 c-6 -14 -5 -15 5 -6 7 7 10 15 7 18 -3 3 -9 -2 -12 -12z"/>
<path d="M2886 2155 c-3 -8 -1 -15 4 -15 6 0 10 7 10 15 0 8 -2 15 -4 15 -2 0
-6 -7 -10 -15z"/>
<path d="M2980 2156 c0 -9 -4 -15 -8 -12 -5 3 -9 -1 -9 -9 0 -8 4 -15 8 -15
10 0 23 40 15 47 -3 4 -6 -1 -6 -11z"/>
<path d="M3032 2150 c0 -14 2 -19 5 -12 2 6 2 18 0 25 -3 6 -5 1 -5 -13z"/>
<path d="M3092 2150 c0 -14 2 -19 5 -12 2 6 2 18 0 25 -3 6 -5 1 -5 -13z"/>
<path d="M3286 2162 c-2 -4 -1 -14 5 -22 7 -12 9 -10 9 8 0 23 -5 28 -14 14z"/>
<path d="M2731 2146 c-7 -8 -8 -15 -2 -18 5 -1 3 -11 -5 -22 -13 -18 -14 -18
-14 -2 0 20 -15 13 -29 -13 -7 -13 -6 -18 4 -18 8 0 11 7 7 16 -5 14 -4 14 14
1 10 -8 20 -15 22 -16 2 -1 -4 -13 -12 -26 -15 -23 -15 -25 1 -25 21 0 43 15
43 30 0 6 -6 2 -14 -9 -8 -10 -18 -16 -21 -12 -4 4 1 15 10 25 11 11 14 18 6
21 -27 9 3 50 32 43 5 -1 5 3 2 9 -4 6 -14 9 -22 6 -11 -4 -13 -2 -9 9 7 19 2
19 -13 1z"/>
<path d="M2776 2153 c6 -4 14 -15 17 -23 5 -11 6 -9 4 4 -1 11 -9 21 -17 23
-10 3 -11 2 -4 -4z"/>
<path d="M3072 2135 c0 -16 2 -22 5 -12 2 9 2 23 0 30 -3 6 -5 -1 -5 -18z"/>
<path d="M3142 2140 c0 -14 2 -19 5 -12 2 6 2 18 0 25 -3 6 -5 1 -5 -13z"/>
<path d="M3212 2140 c0 -14 2 -19 5 -12 2 6 2 18 0 25 -3 6 -5 1 -5 -13z"/>
<path d="M2918 2145 c-8 -12 11 -116 24 -130 6 -6 7 -5 4 5 -4 8 -10 42 -14
75 -4 33 -10 55 -14 50z"/>
<path d="M3012 2130 c0 -14 2 -19 5 -12 2 6 2 18 0 25 -3 6 -5 1 -5 -13z"/>
<path d="M3262 2120 c0 -19 2 -27 5 -17 2 9 2 25 0 35 -3 9 -5 1 -5 -18z"/>
<path d="M2993 2090 c0 -30 -3 -44 -11 -42 -7 1 -11 -1 -10 -5 0 -5 -2 -15 -6
-25 -4 -9 -6 -31 -3 -50 3 -30 4 -28 7 12 l3 45 7 -40 8 -40 -1 44 c-1 28 4
47 14 55 15 11 23 50 8 40 -4 -2 -10 8 -12 23 -3 16 -5 9 -4 -17z"/>
<path d="M3052 2110 c0 -14 2 -19 5 -12 2 6 2 18 0 25 -3 6 -5 1 -5 -13z"/>
<path d="M3112 2110 c0 -14 2 -19 5 -12 2 6 2 18 0 25 -3 6 -5 1 -5 -13z"/>
<path d="M3182 2110 c0 -14 2 -19 5 -12 2 6 2 18 0 25 -3 6 -5 1 -5 -13z"/>
<path d="M5458 2123 c6 -2 9 -10 6 -15 -4 -7 -2 -8 5 -4 13 9 5 26 -12 25 -9
0 -8 -2 1 -6z"/>
<path d="M2890 2110 c0 -5 5 -10 11 -10 5 0 7 5 4 10 -3 6 -8 10 -11 10 -2 0
-4 -4 -4 -10z"/>
<path d="M2940 2110 c0 -5 5 -10 11 -10 5 0 7 5 4 10 -3 6 -8 10 -11 10 -2 0
-4 -4 -4 -10z"/>
<path d="M3234 2105 c-3 -8 -4 -20 -2 -27 3 -7 7 -1 10 15 6 29 1 36 -8 12z"/>
<path d="M3318 2113 c-2 -5 0 -39 3 -78 l5 -70 2 78 c2 70 -1 90 -10 70z"/>
<path d="M5268 2097 c-32 -11 -58 -25 -58 -30 0 -4 10 -5 21 -2 16 5 19 4 14
-5 -6 -9 -4 -10 6 -4 8 5 31 20 52 33 61 38 50 40 -35 8z"/>
<path d="M1775 2099 c-4 -6 -5 -12 -2 -15 2 -3 7 2 10 11 7 17 1 20 -8 4z"/>
<path d="M2755 2100 c-3 -5 -2 -10 4 -10 5 0 13 5 16 10 3 6 2 10 -4 10 -5 0
-13 -4 -16 -10z"/>
<path d="M2972 2090 c0 -14 2 -19 5 -12 2 6 2 18 0 25 -3 6 -5 1 -5 -13z"/>
<path d="M3092 2090 c0 -14 2 -19 5 -12 2 6 2 18 0 25 -3 6 -5 1 -5 -13z"/>
<path d="M2871 2095 c0 -5 6 -32 13 -60 8 -27 14 -41 14 -30 0 21 -25 107 -27
90z"/>
<path d="M2775 2080 c-3 -5 -1 -10 4 -10 6 0 11 5 11 10 0 6 -2 10 -4 10 -3 0
-8 -4 -11 -10z"/>
<path d="M2902 2075 c0 -11 4 -33 8 -50 7 -27 8 -27 8 -5 0 14 -4 36 -8 50 -6
20 -8 21 -8 5z"/>
<path d="M2952 2065 c0 -16 2 -22 5 -12 2 9 2 23 0 30 -3 6 -5 -1 -5 -18z"/>
<path d="M3212 2070 c0 -14 2 -19 5 -12 2 6 2 18 0 25 -3 6 -5 1 -5 -13z"/>
<path d="M3292 2065 c0 -16 2 -22 5 -12 2 9 2 23 0 30 -3 6 -5 -1 -5 -18z"/>
<path d="M3351 2029 c1 -35 5 -93 9 -129 6 -47 7 -30 4 60 -6 129 -15 182 -13
69z"/>
<path d="M2852 2070 c0 -8 4 -26 8 -40 6 -20 8 -21 8 -5 0 11 -3 29 -8 40 -5
12 -8 14 -8 5z"/>
<path d="M3262 2050 c0 -19 2 -27 5 -17 2 9 2 25 0 35 -3 9 -5 1 -5 -18z"/>
<path d="M3112 2050 c0 -14 2 -19 5 -12 2 6 2 18 0 25 -3 6 -5 1 -5 -13z"/>
<path d="M3182 2045 c0 -16 2 -22 5 -12 2 9 2 23 0 30 -3 6 -5 -1 -5 -18z"/>
<path d="M5135 2030 c-56 -54 -40 -57 18 -4 27 24 43 44 35 43 -7 -1 -31 -18
-53 -39z"/>
<path d="M2681 2046 c-9 -11 -9 -16 1 -22 7 -4 10 -4 6 1 -4 4 -3 14 3 22 6 7
9 13 6 13 -2 0 -10 -6 -16 -14z"/>
<path d="M2825 2030 c-4 -6 -10 -8 -14 -6 -4 3 -8 -1 -8 -9 0 -13 4 -12 19 2
18 16 22 23 14 23 -3 0 -8 -5 -11 -10z"/>
<path d="M3161 2024 c0 -11 3 -14 6 -6 3 7 2 16 -1 19 -3 4 -6 -2 -5 -13z"/>
<path d="M3233 2021 c0 -11 5 -18 9 -15 4 3 5 11 1 19 -7 21 -12 19 -10 -4z"/>
<path d="M5190 2031 c0 -7 -5 -9 -12 -5 -7 5 -8 3 -3 -5 5 -9 10 -10 18 -2 6
6 8 14 4 18 -4 3 -7 1 -7 -6z"/>
<path d="M3002 2000 c0 -19 2 -27 5 -17 2 9 2 25 0 35 -3 9 -5 1 -5 -18z"/>
<path d="M5290 2019 c0 -5 5 -7 10 -4 6 3 10 8 10 11 0 2 -4 4 -10 4 -5 0 -10
-5 -10 -11z"/>
<path d="M3021 2004 c0 -11 3 -14 6 -6 3 7 2 16 -1 19 -3 4 -6 -2 -5 -13z"/>
<path d="M3133 1955 c0 -38 2 -53 4 -32 2 20 2 52 0 70 -2 17 -4 1 -4 -38z"/>
<path d="M3212 2000 c0 -14 2 -19 5 -12 2 6 2 18 0 25 -3 6 -5 1 -5 -13z"/>
<path d="M3290 1988 c0 -23 3 -29 9 -19 8 12 4 51 -5 51 -2 0 -4 -15 -4 -32z"/>
<path d="M2676 2002 c-3 -4 4 -9 15 -9 23 -2 25 3 4 10 -8 4 -16 3 -19 -1z"/>
<path d="M2781 1994 c0 -11 3 -14 6 -6 3 7 2 16 -1 19 -3 4 -6 -2 -5 -13z"/>
<path d="M3042 1980 c0 -19 2 -27 5 -17 2 9 2 25 0 35 -3 9 -5 1 -5 -18z"/>
<path d="M3712 1990 c0 -14 2 -19 5 -12 2 6 2 18 0 25 -3 6 -5 1 -5 -13z"/>
<path d="M2935 1990 c-4 -6 -10 -8 -15 -5 -4 3 -5 -5 -2 -17 6 -22 6 -22 10
-3 l5 20 8 -20 c7 -17 8 -16 8 8 1 28 -4 34 -14 17z"/>
<path d="M3060 1989 c0 -5 5 -7 10 -4 6 3 10 8 10 11 0 2 -4 4 -10 4 -5 0 -10
-5 -10 -11z"/>
<path d="M3112 1975 c0 -16 2 -22 5 -12 2 9 2 23 0 30 -3 6 -5 -1 -5 -18z"/>
<path d="M5226 1992 c-3 -6 -1 -14 5 -17 15 -10 25 3 12 16 -7 7 -13 7 -17 1z"/>
<path d="M3086 1975 c-3 -9 -5 -29 -5 -43 1 -20 3 -17 9 13 8 43 7 57 -4 30z"/>
<path d="M3182 1960 c0 -19 2 -27 5 -17 2 9 2 25 0 35 -3 9 -5 1 -5 -18z"/>
<path d="M3260 1973 c0 -13 5 -23 10 -23 13 0 13 11 0 30 -8 12 -10 11 -10 -7z"/>
<path d="M2890 1975 c0 -5 5 -17 10 -25 5 -8 10 -10 10 -5 0 6 -5 17 -10 25
-5 8 -10 11 -10 5z"/>
<path d="M3022 1960 c0 -14 2 -19 5 -12 2 6 2 18 0 25 -3 6 -5 1 -5 -13z"/>
<path d="M5196 1971 c-3 -5 1 -11 9 -14 9 -4 12 -1 8 9 -6 16 -10 17 -17 5z"/>
<path d="M3162 1950 c0 -14 2 -19 5 -12 2 6 2 18 0 25 -3 6 -5 1 -5 -13z"/>
<path d="M3235 1960 c-3 -5 -1 -10 4 -10 6 0 11 5 11 10 0 6 -2 10 -4 10 -3 0
-8 -4 -11 -10z"/>
<path d="M3320 1951 c0 -6 5 -11 11 -11 8 0 8 -4 1 -13 -6 -7 -7 -19 -3 -26 6
-9 10 -5 13 13 3 15 0 31 -8 37 -10 8 -14 8 -14 0z"/>
<path d="M3722 1940 c0 -14 2 -19 5 -12 2 6 2 18 0 25 -3 6 -5 1 -5 -13z"/>
<path d="M3062 1925 c0 -16 2 -22 5 -12 2 9 2 23 0 30 -3 6 -5 -1 -5 -18z"/>
<path d="M3293 1911 c5 -56 17 -64 17 -13 0 22 -5 44 -11 47 -7 5 -9 -7 -6
-34z"/>
<path d="M2995 1929 c-4 -6 -5 -12 -2 -15 2 -3 7 2 10 11 7 17 1 20 -8 4z"/>
<path d="M3212 1910 c0 -19 2 -27 5 -17 2 9 2 25 0 35 -3 9 -5 1 -5 -18z"/>
<path d="M3242 1920 c0 -14 2 -19 5 -12 2 6 2 18 0 25 -3 6 -5 1 -5 -13z"/>
<path d="M3105 1920 c-3 -5 -1 -10 4 -10 6 0 11 5 11 10 0 6 -2 10 -4 10 -3 0
-8 -4 -11 -10z"/>
<path d="M2743 1905 c0 -8 4 -12 9 -9 5 3 6 10 3 15 -9 13 -12 11 -12 -6z"/>
<path d="M3182 1890 c0 -19 2 -27 5 -17 2 9 2 25 0 35 -3 9 -5 1 -5 -18z"/>
<path d="M3266 1912 c-3 -5 -1 -22 4 -38 8 -29 8 -29 9 9 1 36 -3 45 -13 29z"/>
<path d="M2781 1894 c0 -11 3 -14 6 -6 3 7 2 16 -1 19 -3 4 -6 -2 -5 -13z"/>
<path d="M2951 1894 c0 -11 3 -14 6 -6 3 7 2 16 -1 19 -3 4 -6 -2 -5 -13z"/>
<path d="M5960 1900 c0 -13 18 -22 24 -11 3 5 -1 11 -9 15 -8 3 -15 1 -15 -4z"/>
<path d="M3082 1880 c0 -14 2 -19 5 -12 2 6 2 18 0 25 -3 6 -5 1 -5 -13z"/>
<path d="M2992 1870 c0 -14 2 -19 5 -12 2 6 2 18 0 25 -3 6 -5 1 -5 -13z"/>
<path d="M3243 1850 c0 -25 2 -35 4 -22 2 12 2 32 0 45 -2 12 -4 2 -4 -23z"/>
<path d="M3132 1850 c0 -14 2 -19 5 -12 2 6 2 18 0 25 -3 6 -5 1 -5 -13z"/>
<path d="M3333 1835 c0 -22 2 -30 4 -17 2 12 2 30 0 40 -3 9 -5 -1 -4 -23z"/>
<path d="M5103 1855 c0 -8 4 -12 9 -9 5 3 6 10 3 15 -9 13 -12 11 -12 -6z"/>
<path d="M3212 1830 c0 -19 2 -27 5 -17 2 9 2 25 0 35 -3 9 -5 1 -5 -18z"/>
<path d="M3742 1840 c0 -14 2 -19 5 -12 2 6 2 18 0 25 -3 6 -5 1 -5 -13z"/>
<path d="M3639 1833 c-13 -16 -12 -17 4 -4 16 13 21 21 13 21 -2 0 -10 -8 -17
-17z"/>
<path d="M4982 1838 c-7 -7 -12 -16 -12 -21 0 -5 7 -1 16 8 9 9 14 18 12 20
-2 3 -10 -1 -16 -7z"/>
<path d="M5066 1835 c4 -8 10 -12 15 -9 11 6 2 24 -11 24 -5 0 -7 -7 -4 -15z"/>
<path d="M3182 1805 c0 -16 2 -22 5 -12 2 9 2 23 0 30 -3 6 -5 -1 -5 -18z"/>
<path d="M3271 1815 c-2 -5 -2 -27 -1 -47 3 -60 -14 -70 -21 -13 l-6 50 0 -58
c0 -57 1 -58 19 -39 15 15 18 30 15 68 -2 27 -5 45 -6 39z"/>
<path d="M3432 1800 c0 -14 2 -19 5 -12 2 6 2 18 0 25 -3 6 -5 1 -5 -13z"/>
<path d="M3575 1784 l-40 -36 43 32 c36 27 49 40 40 40 -2 0 -21 -16 -43 -36z"/>
<path d="M3752 1785 c0 -16 2 -22 5 -12 2 9 2 23 0 30 -3 6 -5 -1 -5 -18z"/>
<path d="M5546 1790 c4 -8 21 -26 36 -40 15 -13 28 -30 28 -37 0 -7 5 -13 10
-13 19 0 10 16 -36 60 -26 25 -43 38 -38 30z"/>
<path d="M5650 1790 c8 -5 20 -10 25 -10 6 0 3 5 -5 10 -8 5 -19 10 -25 10 -5
0 -3 -5 5 -10z"/>
<path d="M3127 1783 c-2 -5 -1 -19 4 -33 7 -23 7 -23 8 8 1 31 -3 40 -12 25z"/>
<path d="M5065 1780 c-4 -6 -11 -8 -16 -5 -5 4 -9 1 -9 -4 0 -16 16 -13 30 4
7 8 10 15 7 15 -3 0 -9 -5 -12 -10z"/>
<path d="M2808 1755 c2 -14 6 -25 8 -25 2 0 4 11 4 25 0 14 -4 25 -9 25 -4 0
-6 -11 -3 -25z"/>
<path d="M3151 1764 c0 -11 3 -14 6 -6 3 7 2 16 -1 19 -3 4 -6 -2 -5 -13z"/>
<path d="M3211 1730 c3 -50 -6 -74 -23 -64 -7 5 -8 2 -3 -5 15 -26 39 16 36
61 -1 24 -5 45 -8 48 -3 3 -4 -15 -2 -40z"/>
<path d="M5210 1754 c0 -8 5 -12 10 -9 6 4 8 11 5 16 -9 14 -15 11 -15 -7z"/>
<path d="M2861 1744 c0 -11 3 -14 6 -6 3 7 2 16 -1 19 -3 4 -6 -2 -5 -13z"/>
<path d="M3102 1730 c0 -19 2 -27 5 -17 2 9 2 25 0 35 -3 9 -5 1 -5 -18z"/>
<path d="M3180 1713 c0 -43 8 -40 14 5 2 18 -1 32 -5 32 -5 0 -9 -16 -9 -37z"/>
<path d="M3490 1719 l-35 -30 -6 28 -7 28 -1 -30 c0 -22 -12 -40 -43 -69 l-43
-38 42 31 c37 28 42 29 46 14 4 -16 5 -15 6 2 0 11 20 36 44 57 23 20 40 37
37 37 -3 0 -21 -13 -40 -30z"/>
<path d="M5270 1740 c0 -5 5 -10 11 -10 5 0 7 5 4 10 -3 6 -8 10 -11 10 -2 0
-4 -4 -4 -10z"/>
<path d="M2981 1724 c0 -11 3 -14 6 -6 3 7 2 16 -1 19 -3 4 -6 -2 -5 -13z"/>
<path d="M3070 1729 c0 -5 5 -7 10 -4 6 3 10 8 10 11 0 2 -4 4 -10 4 -5 0 -10
-5 -10 -11z"/>
<path d="M3001 1714 c0 -11 3 -14 6 -6 3 7 2 16 -1 19 -3 4 -6 -2 -5 -13z"/>
<path d="M5140 1720 c0 -5 5 -10 10 -10 6 0 10 5 10 10 0 6 -4 10 -10 10 -5 0
-10 -4 -10 -10z"/>
<path d="M5720 1721 c0 -5 5 -13 10 -16 6 -3 10 -2 10 4 0 5 -4 13 -10 16 -5
3 -10 2 -10 -4z"/>
<path d="M3052 1700 c0 -14 2 -19 5 -12 2 6 2 18 0 25 -3 6 -5 1 -5 -13z"/>
<path d="M5200 1705 c0 -8 4 -15 10 -15 5 0 7 7 4 15 -4 8 -8 15 -10 15 -2 0
-4 -7 -4 -15z"/>
<path d="M5500 1699 c0 -5 5 -7 10 -4 6 3 10 8 10 11 0 2 -4 4 -10 4 -5 0 -10
-5 -10 -11z"/>
<path d="M5676 1702 c-3 -6 -1 -14 5 -17 15 -10 25 3 12 16 -7 7 -13 7 -17 1z"/>
<path d="M5797 1704 c-9 -10 2 -24 18 -24 9 0 12 6 9 15 -6 16 -17 19 -27 9z"/>
<path d="M3024 1686 c-3 -8 -4 -23 -2 -33 3 -11 6 -6 9 15 6 34 2 42 -7 18z"/>
<path d="M3120 1689 c0 -5 5 -7 10 -4 6 3 10 8 10 11 0 2 -4 4 -10 4 -5 0 -10
-5 -10 -11z"/>
<path d="M5567 1689 c7 -7 15 -10 18 -7 3 3 -2 9 -12 12 -14 6 -15 5 -6 -5z"/>
<path d="M5636 1684 c-3 -8 -2 -13 3 -10 8 5 23 -16 25 -36 3 -22 76 -19 76 3
0 5 -11 7 -24 3 -18 -4 -29 2 -49 25 -20 24 -26 27 -31 15z"/>
<path d="M2932 1665 c0 -16 2 -22 5 -12 2 9 2 23 0 30 -3 6 -5 -1 -5 -18z"/>
<path d="M3151 1674 c0 -11 3 -14 6 -6 3 7 2 16 -1 19 -3 4 -6 -2 -5 -13z"/>
<path d="M5170 1679 c0 -5 5 -7 10 -4 6 3 10 8 10 11 0 2 -4 4 -10 4 -5 0 -10
-5 -10 -11z"/>
<path d="M5752 1678 c3 -7 13 -15 24 -17 16 -3 17 -1 5 13 -16 19 -34 21 -29
4z"/>
<path d="M6105 1680 c3 -5 8 -10 11 -10 2 0 4 5 4 10 0 6 -5 10 -11 10 -5 0
-7 -4 -4 -10z"/>
<path d="M5530 1670 c0 -5 5 -10 11 -10 5 0 7 5 4 10 -3 6 -8 10 -11 10 -2 0
-4 -4 -4 -10z"/>
<path d="M3689 1653 c-13 -16 -12 -17 4 -4 16 13 21 21 13 21 -2 0 -10 -8 -17
-17z"/>
<path d="M5705 1660 c-3 -6 1 -7 9 -4 18 7 21 14 7 14 -6 0 -13 -4 -16 -10z"/>
<path d="M5187 1649 c7 -7 15 -10 18 -7 3 3 -2 9 -12 12 -14 6 -15 5 -6 -5z"/>
<path d="M5287 1649 c7 -7 15 -10 18 -7 3 3 -2 9 -12 12 -14 6 -15 5 -6 -5z"/>
<path d="M5485 1650 c3 -5 11 -10 16 -10 6 0 7 5 4 10 -3 6 -11 10 -16 10 -6
0 -7 -4 -4 -10z"/>
<path d="M5600 1650 c0 -6 7 -10 15 -10 8 0 15 2 15 4 0 2 -7 6 -15 10 -8 3
-15 1 -15 -4z"/>
<path d="M2971 1635 c-8 -59 -7 -76 6 -86 17 -15 17 -24 -2 -42 -12 -13 -12
-16 0 -21 15 -6 23 12 27 61 1 17 5 30 9 27 4 -2 6 -13 4 -24 -2 -11 0 -22 6
-25 5 -4 9 -2 9 3 0 5 10 13 23 16 22 6 22 7 -5 21 -19 11 -26 21 -22 33 4 12
3 13 -3 4 -14 -19 -41 -4 -46 26 -3 20 -5 22 -6 7z"/>
<path d="M5073 1635 c-3 -9 -3 -18 -1 -21 3 -3 8 4 11 16 6 23 -1 27 -10 5z"/>
<path d="M5155 1641 c-6 -11 13 -26 22 -17 4 3 1 6 -6 6 -7 0 -9 5 -6 10 3 6
4 10 1 10 -3 0 -7 -4 -11 -9z"/>
<path d="M5555 1641 c-6 -11 13 -26 22 -17 4 3 1 6 -6 6 -7 0 -9 5 -6 10 3 6
4 10 1 10 -3 0 -7 -4 -11 -9z"/>
<path d="M3120 1599 l-45 -41 48 37 c41 33 53 45 45 45 -2 0 -23 -18 -48 -41z"/>
<path d="M3570 1570 c-52 -38 -110 -79 -128 -92 -19 -13 -46 -34 -60 -47 -48
-42 201 132 266 186 53 44 15 21 -78 -47z"/>
<path d="M5450 1630 c0 -5 5 -10 10 -10 6 0 10 5 10 10 0 6 -4 10 -10 10 -5 0
-10 -4 -10 -10z"/>
<path d="M5310 1616 c0 -9 5 -16 10 -16 6 0 10 4 10 9 0 6 -4 13 -10 16 -5 3
-10 -1 -10 -9z"/>
<path d="M5416 1615 c4 -8 11 -15 16 -15 6 0 5 6 -2 15 -7 8 -14 15 -16 15 -2
0 -1 -7 2 -15z"/>
<path d="M5516 1622 c-3 -6 -1 -14 5 -17 15 -10 25 3 12 16 -7 7 -13 7 -17 1z"/>
<path d="M5626 1622 c-3 -6 1 -13 10 -16 23 -9 28 -2 10 13 -8 7 -17 8 -20 3z"/>
<path d="M3071 1604 c0 -11 3 -14 6 -6 3 7 2 16 -1 19 -3 4 -6 -2 -5 -13z"/>
<path d="M3452 1590 c0 -19 2 -27 5 -17 2 9 2 25 0 35 -3 9 -5 1 -5 -18z"/>
<path d="M5707 1607 c-3 -8 -2 -19 3 -26 5 -9 9 -7 13 8 6 23 -8 39 -16 18z"/>
<path d="M5476 1602 c-3 -6 -1 -14 5 -17 14 -9 20 -2 10 14 -6 8 -11 9 -15 3z"/>
<path d="M5585 1600 c-7 -11 22 -26 32 -16 4 3 -1 6 -11 6 -9 0 -14 5 -11 10
3 6 4 10 1 10 -3 0 -8 -5 -11 -10z"/>
<path d="M3791 1584 c0 -11 3 -14 6 -6 3 7 2 16 -1 19 -3 4 -6 -2 -5 -13z"/>
<path d="M5380 1590 c0 -5 5 -10 11 -10 5 0 7 5 4 10 -3 6 -8 10 -11 10 -2 0
-4 -4 -4 -10z"/>
<path d="M5440 1577 c0 -10 8 -17 18 -17 9 0 13 4 7 8 -5 4 -13 11 -17 16 -5
5 -8 2 -8 -7z"/>
<path d="M5545 1581 c-6 -11 13 -26 22 -17 4 3 1 6 -6 6 -7 0 -9 5 -6 10 3 6
4 10 1 10 -3 0 -7 -4 -11 -9z"/>
<path d="M3289 1563 c-13 -16 -12 -17 4 -4 9 7 17 15 17 17 0 8 -8 3 -21 -13z"/>
<path d="M5505 1561 c-6 -11 13 -26 22 -17 4 3 1 6 -6 6 -7 0 -9 5 -6 10 3 6
4 10 1 10 -3 0 -7 -4 -11 -9z"/>
<path d="M5620 1560 c-12 -8 -12 -10 3 -16 10 -3 21 -4 24 0 4 3 1 6 -6 6 -7
0 -9 5 -6 10 8 12 4 12 -15 0z"/>
<path d="M5670 1560 c0 -5 7 -7 15 -4 8 4 15 8 15 10 0 2 -7 4 -15 4 -8 0 -15
-4 -15 -10z"/>
<path d="M5362 1541 c2 -7 7 -12 11 -12 12 1 9 15 -3 20 -7 2 -11 -2 -8 -8z"/>
<path d="M5465 1540 c-3 -5 -4 -10 -1 -10 2 0 12 -3 20 -6 12 -5 15 -2 10 10
-7 18 -20 21 -29 6z"/>
<path d="M5577 1543 c-3 -4 1 -14 9 -20 7 -7 15 -9 18 -4 3 5 -1 14 -8 20 -8
7 -16 8 -19 4z"/>
<path d="M5977 1539 c-10 -6 -25 -8 -33 -5 -8 3 -14 -1 -14 -8 0 -8 -6 -17
-12 -20 -7 -3 -2 -3 11 0 27 7 92 44 76 44 -5 0 -18 -5 -28 -11z"/>
<path d="M5136 1517 c3 -10 9 -15 12 -12 3 3 0 11 -7 18 -10 9 -11 8 -5 -6z"/>
<path d="M5326 1515 c4 -8 10 -15 15 -15 5 0 9 7 9 15 0 8 -7 15 -15 15 -9 0
-12 -6 -9 -15z"/>
<path d="M5430 1521 c0 -6 5 -13 10 -16 6 -3 10 1 10 9 0 9 -4 16 -10 16 -5 0
-10 -4 -10 -9z"/>
<path d="M5543 1515 c0 -8 7 -15 15 -15 12 0 12 3 2 15 -7 8 -13 15 -15 15 -1
0 -2 -7 -2 -15z"/>
<path d="M3200 1500 c-8 -5 -12 -12 -9 -15 4 -3 12 1 19 10 14 17 11 19 -10 5z"/>
<path d="M5290 1500 c0 -5 5 -10 10 -10 6 0 10 5 10 10 0 6 -4 10 -10 10 -5 0
-10 -4 -10 -10z"/>
<path d="M5392 1498 c5 -15 28 -23 28 -10 0 5 -7 13 -16 16 -10 4 -14 1 -12
-6z"/>
<path d="M5357 1475 c3 -8 9 -12 14 -9 12 7 11 11 -5 17 -10 4 -13 1 -9 -8z"/>
<path d="M6015 1465 c-27 -13 -47 -24 -43 -24 10 -1 98 38 98 44 0 7 3 8 -55
-20z"/>
<path d="M3462 1450 c0 -14 2 -19 5 -12 2 6 2 18 0 25 -3 6 -5 1 -5 -13z"/>
<path d="M5325 1460 c3 -5 8 -10 11 -10 2 0 4 5 4 10 0 6 -5 10 -11 10 -5 0
-7 -4 -4 -10z"/>
<path d="M5428 1463 c6 -2 9 -10 6 -15 -4 -7 -2 -8 5 -4 13 9 5 26 -12 25 -9
0 -8 -2 1 -6z"/>
<path d="M5386 1435 c4 -8 8 -15 10 -15 2 0 4 7 4 15 0 8 -4 15 -10 15 -5 0
-7 -7 -4 -15z"/>
<path d="M3080 1399 l-35 -30 38 26 c33 24 43 35 34 35 -1 0 -18 -14 -37 -31z"/>
<path d="M4870 1426 c0 -2 8 -10 18 -17 15 -13 16 -12 3 4 -13 16 -21 21 -21
13z"/>
<path d="M6052 1392 c-34 -14 -60 -27 -58 -29 5 -5 108 36 121 48 12 12 11 11
-63 -19z"/>
<path d="M3276 1360 c-38 -27 -72 -47 -77 -44 -5 3 -8 -12 -8 -33 2 -26 3 -30
6 -13 3 16 21 37 51 57 52 36 110 82 102 82 -3 0 -36 -22 -74 -49z"/>
<path d="M4912 1394 c4 -5 28 -25 54 -44 26 -18 45 -29 42 -24 -4 5 -28 25
-54 44 -26 18 -45 29 -42 24z"/>
<path d="M5375 1380 c3 -5 11 -10 16 -10 6 0 7 5 4 10 -3 6 -11 10 -16 10 -6
0 -7 -4 -4 -10z"/>
<path d="M1353 1355 c0 -8 4 -12 9 -9 4 3 8 9 8 15 0 5 -4 9 -8 9 -5 0 -9 -7
-9 -15z"/>
<path d="M3019 1353 c-13 -16 -12 -17 4 -4 9 7 17 15 17 17 0 8 -8 3 -21 -13z"/>
<path d="M3473 1315 c0 -22 2 -30 4 -17 2 12 2 30 0 40 -3 9 -5 -1 -4 -23z"/>
<path d="M3842 1330 c0 -14 4 -38 8 -55 7 -27 8 -27 8 -5 0 14 -4 39 -8 55 -7
27 -8 27 -8 5z"/>
<path d="M0 1324 c0 -14 3 -14 15 -4 8 7 15 14 15 16 0 2 -7 4 -15 4 -8 0 -15
-7 -15 -16z"/>
<path d="M5020 1316 c0 -2 8 -10 18 -17 15 -13 16 -12 3 4 -13 16 -21 21 -21
13z"/>
<path d="M817 1231 c-30 -45 -351 -480 -501 -680 -56 -73 -116 -154 -135 -180
-19 -25 -37 -48 -40 -51 -4 -3 -37 -45 -74 -94 l-67 -89 0 -68 0 -69 160 0
c100 0 160 4 160 10 0 6 5 10 11 10 5 0 8 -3 6 -7 -3 -5 24 -9 59 -11 60 -2
64 -1 77 25 8 16 12 34 10 41 -3 7 1 11 9 10 8 -2 12 4 10 16 -2 10 1 15 6 12
13 -8 116 153 115 176 -1 10 4 17 10 15 7 -1 12 5 12 13 0 10 -8 14 -22 12
-13 -2 -23 2 -23 7 0 6 7 11 15 11 9 0 12 6 9 15 -4 10 0 15 12 15 16 0 17 2
4 10 -10 6 -11 10 -2 10 21 0 26 -4 29 -22 2 -12 -2 -15 -12 -12 -16 7 -22
-21 -6 -30 9 -6 124 180 124 201 0 7 4 13 8 13 4 0 24 28 44 62 20 35 54 92
75 127 22 34 40 69 40 76 0 8 11 26 25 41 21 23 43 58 104 164 14 25 41 90 37
90 -2 0 -16 -20 -30 -45 -25 -41 -56 -60 -56 -34 0 6 7 9 14 6 10 -4 13 -1 9
9 -3 8 0 22 7 32 7 9 -1 2 -18 -17 -17 -18 -35 -30 -41 -26 -6 3 -9 11 -5 16
3 5 10 6 16 3 6 -4 8 -2 4 4 -10 16 15 64 31 58 7 -3 13 -1 13 5 0 5 -10 14
-22 19 -21 8 -21 9 -3 9 32 0 61 -14 47 -23 -7 -4 -12 -13 -12 -19 0 -7 7 -4
15 6 9 13 20 17 36 12 14 -5 19 -3 15 3 -4 6 2 15 11 21 15 8 16 11 3 15 -102
37 -182 68 -215 84 -75 37 -80 36 -108 -7z m77 -7 c12 -5 13 -11 6 -24 -9 -16
-15 -17 -40 -8 -25 8 -28 13 -19 24 12 15 28 17 53 8z m166 -53 c48 -19 70
-31 59 -35 -8 -4 -46 5 -85 19 -38 14 -75 28 -82 30 -19 7 -3 27 16 20 10 -2
51 -18 92 -34z m-198 -9 c15 -4 -5 -32 -21 -32 -17 0 -41 18 -41 31 0 5 39 6
62 1z m114 -5 c8 3 14 0 14 -6 0 -6 -4 -11 -8 -11 -5 0 -9 -6 -9 -12 0 -7 -4
-22 -7 -33 -6 -18 -5 -17 10 3 24 32 47 30 32 -3 -6 -14 -17 -25 -25 -25 -12
0 -17 -12 -14 -32 0 -4 -7 -4 -16 -1 -11 4 -13 8 -5 11 7 2 12 11 12 20 0 12
-3 13 -12 4 -15 -15 -28 -15 -28 -1 0 5 5 7 11 3 7 -4 9 0 5 13 -4 13 0 25 9
33 9 7 13 22 10 34 -3 12 -2 16 1 9 3 -7 12 -9 20 -6z m-36 -22 c0 -12 -19
-12 -23 0 -4 9 -1 12 9 8 7 -3 14 -7 14 -8z m-33 -37 c-3 -7 -5 -2 -5 12 0 14
2 19 5 13 2 -7 2 -19 0 -25z m-123 -41 c16 -12 15 -14 -5 -35 -25 -27 -36 -23
-19 8 6 12 10 24 7 26 -2 2 -10 -7 -17 -21 -7 -14 -19 -25 -27 -25 -17 0 -16
5 3 35 18 28 32 31 58 12z m186 -42 c8 -2 27 -8 42 -14 l27 -10 -17 -33 c-24
-46 -38 -59 -56 -52 -9 3 -14 10 -11 14 3 5 -4 6 -14 3 -16 -4 -19 -1 -14 16
8 33 27 43 57 31 17 -6 25 -6 21 0 -3 5 -24 15 -45 21 -22 7 -40 16 -40 20 0
4 -9 6 -20 4 -11 -2 -20 0 -20 5 0 5 -6 7 -14 4 -16 -6 -30 11 -22 25 4 5 29
1 59 -10 28 -11 59 -22 67 -24z m-110 -12 c0 -3 -8 -2 -17 1 -15 5 -15 4 1 -9
23 -18 40 -20 30 -3 -5 8 0 9 17 5 13 -4 30 -7 37 -7 17 0 15 -11 -7 -39 -17
-22 -20 -23 -54 -10 -30 11 -34 15 -25 28 10 13 10 14 -2 4 -33 -30 -54 -5
-24 28 14 15 44 17 44 2z m-189 -56 c-10 -9 -11 -8 -5 6 3 10 9 15 12 12 3 -3
0 -11 -7 -18z m50 -15 c-5 -10 -18 -25 -27 -33 -16 -12 -16 -10 1 19 20 33 43
46 26 14z m89 8 c0 -5 6 -7 14 -4 14 5 32 -13 23 -23 -9 -9 -78 18 -72 28 8
12 35 12 35 -1z m80 -30 c0 -5 -7 -10 -15 -10 -8 0 -15 5 -15 10 0 6 7 10 15
10 8 0 15 -4 15 -10z m40 -15 c0 -9 -6 -12 -15 -9 -8 4 -12 10 -9 15 8 14 24
10 24 -6z m34 -1 c18 -7 12 -24 -10 -24 -8 0 -14 7 -14 15 0 17 2 18 24 9z
m-101 -39 c-3 -9 -8 -14 -10 -11 -3 3 -2 9 2 15 9 16 15 13 8 -4z m76 -29
c-14 -30 -18 -31 -45 -11 -18 14 -18 14 4 8 16 -4 22 -1 22 10 0 8 6 17 13 20
18 6 19 2 6 -27z m-207 10 c7 4 8 2 4 -4 -11 -18 -26 -14 -25 6 0 10 3 12 6 4
2 -6 10 -9 15 -6z m43 -16 c-3 -5 -11 -10 -16 -10 -6 0 -7 5 -4 10 3 6 11 10
16 10 6 0 7 -4 4 -10z m48 -17 c-6 -15 -19 -17 -27 -4 -7 11 0 18 18 18 8 0
12 -6 9 -14z m39 -15 c-12 -12 -35 -1 -27 12 3 5 13 6 21 3 10 -4 12 -9 6 -15z
m-108 -3 c8 -8 26 -16 40 -17 28 -3 37 -18 10 -18 -8 0 -13 -4 -9 -9 9 -15
-30 -22 -59 -11 -25 9 -26 11 -11 33 8 13 12 27 8 30 -3 4 -4 7 0 7 3 0 12 -7
21 -15z m156 -5 c0 -5 -9 -8 -19 -7 -10 0 -17 7 -14 13 5 13 33 8 33 -6z m-43
-42 c-1 -23 -14 -38 -32 -38 -5 0 -3 5 5 10 8 5 11 10 7 10 -8 0 10 40 18 40
2 0 3 -10 2 -22z m-212 -17 c-9 -8 -36 -10 -30 -2 2 4 11 8 20 8 8 0 13 -3 10
-6z m42 -17 c-3 -3 -12 -4 -19 -1 -8 3 -5 6 6 6 11 1 17 -2 13 -5z m88 -24 c3
-5 1 -10 -4 -10 -6 0 -11 5 -11 10 0 6 2 10 4 10 3 0 8 -4 11 -10z m50 -10
c-3 -5 -14 -10 -23 -10 -15 0 -15 2 -2 10 20 13 33 13 25 0z m-407 -73 c-16
-13 -28 -28 -28 -35 0 -7 -7 -12 -16 -12 -11 0 -9 8 12 35 14 19 34 35 43 35
12 -1 9 -7 -11 -23z m150 5 c2 -7 -5 -12 -17 -12 -14 0 -19 5 -14 15 6 17 25
15 31 -3z m49 -19 c3 -7 -4 -9 -16 -6 -12 3 -18 9 -15 15 7 11 26 6 31 -9z
m47 -7 c-3 -8 -12 -12 -20 -9 -17 6 -9 23 11 23 8 0 12 -6 9 -14z m43 -9 c0
-8 -6 -14 -14 -14 -17 0 -17 14 0 20 6 3 12 6 13 6 0 1 1 -5 1 -12z m-287 -17
c0 -5 -5 -10 -11 -10 -5 0 -7 5 -4 10 3 6 8 10 11 10 2 0 4 -4 4 -10z m166 -7
c-4 -9 -1 -21 6 -26 9 -6 8 -7 -5 -3 -11 3 -20 0 -23 -9 -8 -20 -31 -19 -31 0
0 10 6 14 14 10 10 -3 13 1 8 14 -4 14 0 21 12 24 10 3 20 5 22 6 2 0 0 -7 -3
-16z m159 6 c11 -16 1 -19 -13 -3 -7 8 -8 14 -3 14 5 0 13 -5 16 -11z m-111
-15 c-10 -8 -14 -13 -7 -10 6 4 14 3 17 -2 2 -4 -4 -9 -15 -9 -21 -2 -26 22
-6 30 25 11 30 7 11 -9z m-289 -54 c-4 -6 -10 -8 -15 -5 -5 3 -12 0 -16 -6 -4
-8 -3 -9 4 -5 21 12 13 -12 -10 -34 -15 -13 -25 -17 -32 -10 -7 7 -3 17 12 30
12 12 22 25 22 30 0 6 9 10 21 10 11 0 17 -5 14 -10z m169 0 c31 -11 26 -41
-5 -33 -14 4 -18 11 -14 22 5 13 4 14 -6 4 -15 -15 -49 -17 -49 -5 0 23 32 28
74 12z m-144 -30 c-12 -17 -26 -28 -31 -25 -5 4 -6 -1 -3 -9 4 -10 1 -16 -10
-16 -13 0 -14 4 -4 25 6 14 13 23 16 21 6 -7 31 18 25 27 -2 4 3 7 12 7 14 0
13 -4 -5 -30z m209 11 c19 -12 5 -30 -18 -24 -12 3 -17 11 -14 19 6 16 13 17
32 5z m54 -27 c-5 -14 -25 -19 -36 -8 -12 12 5 32 23 27 11 -3 16 -11 13 -19z
m-148 1 c6 -1 17 -5 25 -8 8 -3 27 -8 42 -11 19 -4 26 -11 22 -21 -4 -8 -13
-15 -21 -15 -8 0 -11 -5 -8 -10 4 -7 -2 -9 -19 -4 -17 4 -26 2 -26 -6 0 -6 5
-8 10 -5 6 3 10 1 10 -4 0 -16 -16 -13 -30 4 -10 12 -10 15 0 15 9 0 9 4 -1
17 -13 15 -12 15 9 4 23 -12 42 -8 42 10 0 5 -5 9 -11 9 -5 0 -7 -4 -4 -10 3
-5 1 -10 -4 -10 -6 0 -11 4 -11 9 0 15 -33 22 -43 9 -6 -10 -8 -9 -4 3 10 31
-41 18 -54 -13 -6 -16 -18 -28 -26 -28 -10 0 -6 11 14 40 23 34 32 39 53 34
14 -3 30 -7 35 -9z m198 -12 c-6 -14 -43 -18 -43 -5 0 14 11 21 30 19 10 -1
16 -7 13 -14z m-90 -41 c-3 -12 -9 -22 -14 -22 -5 0 -9 -7 -9 -15 0 -8 -5 -15
-10 -15 -6 0 0 18 12 39 25 43 30 47 21 13z m-125 -15 c2 -9 -2 -17 -8 -17 -6
0 -8 5 -4 11 3 6 0 16 -7 21 -12 8 -11 9 1 5 8 -2 16 -11 18 -20z m-234 -29
c-22 -39 -57 -78 -70 -78 -11 0 -6 12 17 45 18 25 39 45 46 45 9 0 11 -5 7
-12z m164 0 c-5 -15 -58 -24 -58 -10 0 15 12 22 38 22 14 0 22 -5 20 -12z m52
-7 c0 -15 -23 -28 -40 -24 -15 4 -17 8 -8 23 10 16 48 17 48 1z m-170 2 c0
-16 -54 -83 -67 -83 -8 0 -13 6 -10 13 2 6 10 11 16 9 7 -1 10 2 7 7 -7 10 31
61 45 61 5 0 9 -3 9 -7z m211 -18 c0 -5 -9 -11 -21 -13 -20 -3 -27 8 -13 22
10 9 34 3 34 -9z m59 -1 c0 -18 -15 -31 -31 -27 -31 9 -22 33 12 30 10 -1 19
-2 19 -3z m36 -16 c-4 6 -2 12 3 12 13 0 14 -11 3 -25 -8 -12 -32 -14 -32 -2
0 4 0 12 0 18 0 8 6 7 17 -2 11 -10 14 -10 9 -1z m-261 -14 c-9 -9 -13 -19 -9
-23 4 -3 9 0 11 7 3 6 9 12 15 12 6 0 6 -6 -2 -15 -7 -8 -19 -15 -26 -15 -8 0
-14 -5 -14 -11 0 -5 6 -7 13 -3 9 5 9 4 0 -6 -6 -7 -19 -10 -28 -6 -15 5 -15
7 -1 22 9 8 21 24 26 35 6 10 15 19 21 19 6 0 3 -7 -6 -16z m61 0 c-5 -14 -4
-15 9 -4 28 23 25 5 -4 -27 -16 -18 -26 -34 -23 -37 3 -3 -8 -6 -24 -6 -25 1
-27 2 -13 13 9 7 17 17 19 22 4 15 32 55 37 55 3 0 2 -7 -1 -16z m79 -6 c4 4
0 -8 -9 -26 -9 -18 -21 -30 -26 -27 -5 3 -12 0 -16 -6 -5 -8 -3 -9 6 -4 9 5
11 4 6 -3 -8 -13 -50 -17 -44 -4 16 36 54 79 64 71 6 -5 14 -5 19 -1z m58 -15
c-7 -2 -13 -10 -13 -16 -1 -19 -37 -57 -54 -57 -20 0 -20 9 1 40 22 32 33 40
58 39 11 0 14 -3 8 -6z m-229 -77 c-3 -7 2 -13 10 -13 8 0 12 6 9 13 -3 9 2
11 17 7 16 -4 18 -8 8 -14 -7 -5 -11 -9 -8 -10 3 0 13 -2 23 -4 10 -2 14 1 11
7 -4 7 9 8 37 5 24 -3 47 -6 51 -6 19 -2 -7 -31 -28 -31 -18 0 -22 4 -17 18 5
14 3 15 -8 5 -14 -14 -51 -17 -63 -6 -7 7 -12 8 -74 11 -20 1 -31 6 -27 12 4
6 11 8 16 5 5 -3 6 0 3 8 -4 11 1 13 20 10 14 -3 23 -10 20 -17z m-151 -48
c-17 -23 -37 -44 -44 -46 -11 -3 -11 -2 -1 6 7 5 10 16 7 24 -4 10 6 25 26 42
43 37 49 25 12 -26z m365 10 c-5 -15 -48 -24 -48 -10 0 14 12 22 33 22 10 0
17 -5 15 -12z m-221 -8 c26 -5 62 -11 78 -14 68 -9 105 -19 105 -27 0 -4 -12
-21 -26 -36 -14 -16 -24 -21 -21 -12 4 13 1 15 -13 12 -11 -3 -25 -11 -31 -19
-15 -19 -39 -18 -39 2 0 8 4 13 9 10 5 -3 11 1 15 9 9 24 -15 29 -31 6 -12
-17 -18 -20 -29 -10 -20 16 -17 32 4 24 14 -5 15 -4 4 7 -11 11 -16 9 -30 -10
-14 -18 -20 -20 -30 -10 -6 6 -12 8 -12 3 0 -6 -4 -4 -9 4 -8 13 -12 13 -27 0
-15 -12 -17 -12 -9 0 6 11 4 13 -9 8 -14 -6 -15 -4 -5 16 27 52 30 53 106 37z
m-233 -26 c3 -8 2 -12 -4 -9 -6 3 -10 10 -10 16 0 14 7 11 14 -7z m359 -92
c-18 -5 -27 3 -18 17 4 7 10 7 20 -2 11 -10 11 -13 -2 -15z m-269 3 c3 -9 0
-15 -9 -15 -9 0 -12 6 -9 15 4 8 7 15 9 15 2 0 5 -7 9 -15z m26 5 c0 -5 -2
-10 -4 -10 -3 0 -8 5 -11 10 -3 6 -1 10 4 10 6 0 11 -4 11 -10z"/>
<path d="M740 752 c0 -4 9 -8 19 -8 11 0 17 4 15 8 -7 10 -34 10 -34 0z"/>
<path d="M252 118 c-7 -7 -12 -16 -12 -22 0 -5 3 -6 7 -3 3 4 11 -1 18 -9 11
-15 12 -15 12 0 0 9 -5 16 -10 16 -5 0 -7 7 -3 15 7 18 4 19 -12 3z"/>
<path d="M205 100 c3 -5 8 -10 11 -10 2 0 4 5 4 10 0 6 -5 10 -11 10 -5 0 -7
-4 -4 -10z"/>
<path d="M419 83 c-13 -16 -12 -17 4 -4 16 13 21 21 13 21 -2 0 -10 -8 -17
-17z"/>
<path d="M3119 1243 c-13 -16 -12 -17 4 -4 9 7 17 15 17 17 0 8 -8 3 -21 -13z"/>
<path d="M5910 1250 c-9 -6 -10 -10 -3 -10 6 0 15 5 18 10 8 12 4 12 -15 0z"/>
<path d="M2849 1223 c-13 -16 -12 -17 4 -4 9 7 17 15 17 17 0 8 -8 3 -21 -13z"/>
<path d="M2764 1158 l-19 -23 23 19 c21 18 27 26 19 26 -2 0 -12 -10 -23 -22z"/>
<path d="M2907 1095 c-96 -70 -90 -74 8 -6 28 19 52 36 54 38 2 2 2 5 0 7 -2
2 -30 -16 -62 -39z"/>
<path d="M3143 1050 c-18 -11 -33 -22 -33 -25 0 -2 16 5 35 16 19 12 35 23 35
25 0 6 -3 5 -37 -16z"/>
<path d="M3069 999 l-24 -20 28 17 c15 9 27 18 27 20 0 8 -8 4 -31 -17z"/>
<path d="M2753 984 c-20 -18 -22 -22 -7 -15 21 10 52 41 41 41 -3 0 -19 -12
-34 -26z"/>
<path d="M2997 955 c-20 -14 -37 -28 -37 -31 0 -2 18 8 40 22 35 23 47 34 37
34 -1 0 -19 -11 -40 -25z"/>
<path d="M2887 886 c-57 -34 -69 -51 -15 -21 26 15 50 31 53 36 8 12 7 11 -38
-15z"/>
<path d="M2740 790 c-9 -6 -10 -10 -3 -10 6 0 15 5 18 10 8 12 4 12 -15 0z"/>
<path d="M3194 715 c0 -49 1 -71 3 -48 2 23 2 64 0 90 -2 26 -3 8 -3 -42z"/>
<path d="M2482 730 c0 -14 2 -19 5 -12 2 6 2 18 0 25 -3 6 -5 1 -5 -13z"/>
<path d="M2594 694 c-18 -14 -18 -15 4 -4 12 6 22 13 22 15 0 8 -5 6 -26 -11z"/>
<path d="M2920 680 c-9 -6 -10 -10 -3 -10 6 0 15 5 18 10 8 12 4 12 -15 0z"/>
<path d="M2921 584 c0 -11 3 -14 6 -6 3 7 2 16 -1 19 -3 4 -6 -2 -5 -13z"/>
<path d="M890 540 c-6 -11 -8 -20 -6 -20 3 0 10 9 16 20 6 11 8 20 6 20 -3 0
-10 -9 -16 -20z"/>
<path d="M5158 553 c7 -3 16 -2 19 1 4 3 -2 6 -13 5 -11 0 -14 -3 -6 -6z"/>
<path d="M3947 539 c-10 -6 -25 -8 -33 -5 -8 3 -13 2 -10 -3 8 -12 -122 -63
-136 -55 -6 4 -8 3 -5 -3 4 -6 -13 -18 -39 -28 -25 -9 -43 -19 -41 -21 4 -4
286 112 296 121 8 9 -14 5 -32 -6z"/>
<path d="M5214 505 c0 -12 6 -22 11 -22 6 0 11 10 11 22 1 12 -4 22 -11 22 -7
0 -12 -10 -11 -22z"/>
<path d="M2441 504 c0 -11 3 -14 6 -6 3 7 2 16 -1 19 -3 4 -6 -2 -5 -13z"/>
<path d="M0 409 c0 -65 4 -98 10 -94 18 11 50 83 50 113 0 29 -33 82 -51 82
-5 0 -9 -45 -9 -101z"/>
<path d="M854 478 c-9 -18 -24 -44 -33 -58 -10 -15 -11 -21 -3 -16 13 8 66
106 57 106 -2 0 -12 -15 -21 -32z"/>
<path d="M2960 440 c-9 -6 -10 -10 -3 -10 6 0 15 5 18 10 8 12 4 12 -15 0z"/>
<path d="M3640 410 c-8 -5 -10 -10 -5 -10 6 0 17 5 25 10 8 5 11 10 5 10 -5 0
-17 -5 -25 -10z"/>
<path d="M776 353 c-13 -21 -21 -42 -19 -46 5 -9 33 32 46 66 11 28 -1 19 -27
-20z"/>
<path d="M3068 182 c-49 -19 -86 -37 -84 -39 4 -4 186 67 186 73 0 7 -14 3
-102 -34z"/>
<path d="M4062 180 c0 -14 2 -19 5 -12 2 6 2 18 0 25 -3 6 -5 1 -5 -13z"/>
<path d="M4076 127 c2 -15 -2 -18 -19 -14 -12 3 -31 1 -42 -3 -14 -6 -15 -9
-5 -10 11 -1 9 -4 -5 -11 -17 -8 -17 -9 5 -4 14 3 35 8 47 11 17 5 22 1 26
-18 4 -22 4 -22 6 3 1 21 8 28 43 38 30 10 38 15 27 22 -20 12 -37 11 -19 -2
11 -8 8 -9 -15 -5 -22 5 -26 4 -15 -4 12 -8 11 -10 -7 -10 -12 0 -23 6 -26 13
-2 6 -3 4 -1 -6z"/>
<path d="M3950 80 c8 -5 20 -10 25 -10 6 0 3 5 -5 10 -8 5 -19 10 -25 10 -5 0
-3 -5 5 -10z"/>
<path d="M3917 67 c4 -6 -2 -8 -17 -4 -16 4 -20 3 -12 -5 7 -7 20 -7 38 -1 27
9 28 10 6 15 -14 4 -20 2 -15 -5z"/>
<path d="M3850 50 c8 -5 20 -10 25 -10 6 0 3 5 -5 10 -8 5 -19 10 -25 10 -5 0
-3 -5 5 -10z"/>
<path d="M3820 40 c8 -5 20 -10 25 -10 6 0 3 5 -5 10 -8 5 -19 10 -25 10 -5 0
-3 -5 5 -10z"/>
<path d="M3785 30 c27 -12 43 -12 25 0 -8 5 -22 9 -30 9 -10 0 -8 -3 5 -9z"/>
<path d="M4092 20 c0 -14 2 -19 5 -12 2 6 2 18 0 25 -3 6 -5 1 -5 -13z"/>
<path d="M3750 20 c13 -8 12 -10 -4 -10 -11 0 -17 -2 -14 -5 3 -4 18 -3 34 1
25 6 26 8 9 15 -28 11 -43 10 -25 -1z"/>
</g>
</svg>
