<?xml version="1.0" standalone="no"?>
<!DOCTYPE svg PUBLIC "-//W3C//DTD SVG 20010904//EN"
 "http://www.w3.org/TR/2001/REC-SVG-20010904/DTD/svg10.dtd">
<svg version="1.0" xmlns="http://www.w3.org/2000/svg"
 width="612.000000pt" height="379.000000pt" viewBox="0 0 612.000000 379.000000"
 preserveAspectRatio="xMidYMid meet">

<g transform="translate(0.000000,379.000000) scale(0.100000,-0.100000)"
fill="#000000" stroke="none">
<path d="M500 3341 l0 -450 -57 -11 c-60 -12 -120 -42 -163 -82 -14 -13 -63
-52 -110 -87 -108 -82 -107 -81 -88 -81 9 0 40 20 70 45 68 56 81 58 25 5
l-42 -41 170 6 c165 7 585 -8 622 -22 10 -3 2 8 -17 25 -19 18 -43 34 -52 38
-10 3 -18 9 -18 13 0 4 -22 20 -50 35 -50 27 -65 41 -32 29 9 -3 15 -4 12 -2
-42 35 -52 42 -45 29 5 -8 -7 1 -26 21 -37 37 -65 51 -136 69 l-43 11 0 449
c0 293 -3 450 -10 450 -7 0 -10 -156 -10 -449z"/>
<path d="M1098 2668 l-3 -1122 -100 -1 -100 0 -3 -32 c-2 -19 1 -33 7 -33 6 0
11 -14 11 -30 0 -24 6 -33 26 -40 34 -13 644 -13 678 0 20 7 26 17 26 39 0 16
4 32 8 35 11 6 22 -187 22 -367 0 -72 2 -128 5 -125 3 3 6 33 6 67 1 38 5 61
13 61 8 0 10 -64 8 -236 -1 -130 -5 -234 -8 -231 -3 3 -9 27 -14 54 l-8 48 -2
-55 c-2 -53 -2 -53 -10 -20 -5 19 -10 168 -11 330 -1 162 -4 311 -6 330 l-5
35 -321 0 c-177 0 -340 3 -362 7 l-40 7 7 -92 c9 -128 7 -659 -2 -622 -4 17
-8 114 -9 218 0 103 -4 187 -8 187 -10 0 -6 -441 4 -450 4 -4 42 -15 83 -25
41 -9 83 -19 93 -22 14 -3 17 -16 17 -68 l0 -64 -327 -3 c-236 -2 -342 0 -378
9 -60 15 -58 15 -50 4 3 -5 1 -12 -5 -16 -6 -4 -10 6 -10 25 0 18 -4 29 -10
25 -6 -4 -10 8 -10 29 0 25 4 36 15 36 9 0 15 9 15 25 0 20 5 25 25 25 21 0
25 5 25 28 0 26 4 28 108 55 116 30 166 53 97 43 -30 -4 -36 -3 -22 5 9 6 15
14 12 20 -8 12 2 12 26 -1 18 -10 19 -7 20 47 l2 58 6 -50 c4 -27 10 -55 14
-62 4 -6 1 -14 -5 -16 -8 -3 -6 -6 5 -6 31 -2 40 47 43 239 l3 185 106 3 106
3 -3 27 -3 27 -105 0 -105 0 0 152 c0 83 -2 153 -5 156 -3 3 -116 2 -253 -1
-231 -7 -247 -6 -247 11 0 15 -10 17 -72 17 -118 0 -118 -1 -118 -81 l0 -69
64 0 c89 0 116 12 116 50 0 16 4 30 9 30 10 0 21 -116 31 -340 4 -85 8 -135
10 -110 1 25 3 50 5 55 1 6 3 16 3 23 1 6 9 12 16 12 12 0 13 -6 6 -27 -11
-36 -19 -289 -11 -375 7 -76 -3 -78 -17 -3 l-10 50 -2 -45 c-1 -33 -3 -40 -9
-25 -5 11 -11 167 -14 347 -3 180 -7 331 -10 335 -3 5 -46 4 -96 -1 l-91 -9 0
-373 0 -374 63 6 62 5 -60 -24 c-58 -23 -60 -25 -61 -63 -1 -21 0 -27 3 -13 3
22 12 27 68 41 61 14 64 14 55 -3 -14 -25 -12 -39 4 -39 7 0 17 15 22 32 8 28
17 34 59 46 28 8 57 20 65 27 29 23 45 26 18 3 -31 -27 -35 -38 -13 -38 12 0
15 -15 15 -71 0 -38 -4 -68 -9 -65 -4 3 -23 1 -42 -5 -19 -6 -82 -10 -141 -9
l-108 1 0 -36 0 -35 76 0 c41 0 73 4 70 9 -6 10 28 21 59 20 12 -1 7 -5 -15
-12 l-35 -12 52 -3 c52 -3 52 -3 46 -33 -3 -16 -1 -29 4 -29 5 0 10 17 12 37
4 69 5 73 16 73 5 0 3 5 -5 10 -12 8 -9 9 12 8 l27 -2 -19 -33 -20 -34 163 0
c89 0 291 1 449 1 l287 1 -9 -31 c-10 -33 -10 -36 -10 -49 0 -5 -6 -11 -12
-14 -14 -4 33 2 67 9 59 12 -62 -32 -130 -48 -52 -12 -64 -17 -35 -14 l45 4
-34 -17 c-27 -15 -30 -19 -16 -24 22 -9 27 -9 21 2 -6 10 112 56 133 52 7 -1
10 2 7 7 -3 5 14 16 37 25 29 12 37 12 24 3 -16 -12 -16 -14 -1 -20 29 -11 44
-6 44 15 0 13 -4 18 -12 13 -7 -5 -8 -3 -3 6 4 7 8 40 9 74 1 55 3 61 24 64
17 3 22 -2 22 -17 0 -16 7 -21 28 -22 24 0 25 -1 7 -9 -14 -6 5 -9 58 -9 69
-1 77 1 77 18 0 18 -18 31 -43 31 -7 0 -6 -5 3 -11 11 -8 5 -9 -25 -4 -29 4
-36 3 -25 -4 13 -9 12 -11 -5 -11 -47 0 -46 17 2 29 26 7 56 14 67 18 13 4 16
2 11 -8 -6 -9 -2 -11 13 -7 27 8 36 -5 22 -32 -9 -17 -8 -20 8 -20 15 0 18 7
16 43 -3 72 -5 92 -11 79 -2 -6 -9 -10 -13 -7 -5 3 -7 -2 -6 -12 3 -12 -3 -19
-18 -20 -129 -14 -166 -14 -166 -3 0 16 30 39 52 40 11 0 18 10 20 27 3 24 9
29 56 39 l52 12 1 -27 c1 -17 3 -20 6 -8 2 9 9 17 15 17 6 0 16 7 22 16 7 8
43 23 81 33 59 16 70 22 78 46 6 18 6 30 -1 34 -6 4 -7 43 -2 111 l7 105 3
-80 c1 -44 1 -90 0 -102 -1 -13 2 -23 7 -23 22 1 133 37 129 41 -3 3 -2 32 3
65 l9 59 1 -69 c0 -38 4 -66 8 -62 4 3 8 95 10 204 2 108 6 203 8 209 8 23 25
14 25 -12 0 -14 -4 -25 -10 -25 -6 0 -10 -66 -10 -178 0 -99 -3 -247 -7 -330
l-6 -151 -120 -3 c-75 -2 -135 2 -161 9 -23 7 -42 13 -43 13 -1 0 -1 -20 0
-45 l1 -46 121 0 c214 0 201 3 197 -35 -3 -21 -11 -35 -27 -42 -28 -13 -24
-44 8 -61 l22 -11 -22 6 c-13 3 -23 1 -23 -5 0 -6 10 -11 23 -12 21 -1 21 -1
-3 -9 -24 -8 -24 -8 -2 -9 20 -1 22 -6 22 -50 0 -80 -2 -79 108 -73 55 3 100
10 104 16 4 6 8 73 8 149 l0 138 435 -2 c337 -1 439 2 450 11 13 11 14 10 9
-5 -5 -13 -4 -16 4 -11 7 4 12 3 12 -1 0 -5 -9 -14 -21 -21 -12 -8 -18 -9 -15
-3 4 5 2 13 -4 16 -6 4 -9 1 -8 -7 2 -8 -5 -12 -17 -10 -15 2 -16 0 -7 -6 11
-7 6 -15 -20 -35 -27 -22 -30 -29 -20 -39 11 -11 12 -10 7 3 -6 15 9 29 26 25
4 0 17 8 29 19 12 11 24 15 28 10 16 -23 28 -11 31 31 1 32 -2 46 -14 50 -8 4
-14 14 -13 23 3 14 -24 16 -279 19 l-283 2 0 353 0 353 35 13 c49 17 49 51 0
51 l-35 0 0 1285 0 1285 -30 0 -30 0 0 -1285 c0 -1021 -3 -1285 -12 -1286 -82
-6 -332 -8 -396 -3 l-83 6 1 141 c1 78 1 148 1 156 -1 11 -22 12 -120 6 -103
-6 -119 -5 -124 9 -6 15 -32 16 -247 10 l-240 -7 0 1126 0 1127 -35 0 -35 0
-2 -1122z m-462 -1524 c-3 -9 -6 -22 -6 -30 0 -8 -4 -14 -10 -14 -11 0 -14 43
-3 53 12 13 25 7 19 -9z m1250 0 c-3 -9 -6 -22 -6 -30 0 -8 -4 -14 -10 -14
-11 0 -14 43 -3 53 12 13 25 7 19 -9z m504 -339 l0 -355 -134 0 -134 0 -6 82
c-3 46 -7 195 -10 332 -3 158 -8 252 -15 259 -6 6 -11 17 -11 24 0 10 34 13
155 13 l155 0 0 -355z m-2043 183 c-2 -24 -4 -5 -4 42 0 47 2 66 4 43 2 -24 2
-62 0 -85z m1400 -35 c-2 -27 -3 -5 -3 47 0 52 1 74 3 48 2 -27 2 -69 0 -95z
m132 47 c-1 -79 -6 -69 -12 24 -3 42 -1 63 4 55 5 -8 8 -43 8 -79z m-1249 71
c0 -6 -4 -13 -10 -16 -5 -3 -10 1 -10 9 0 9 5 16 10 16 6 0 10 -4 10 -9z m-3
-123 c-3 -8 -6 -5 -6 6 -1 11 2 17 5 13 3 -3 4 -12 1 -19z m-280 -60 c-3 -8
-6 -5 -6 6 -1 11 2 17 5 13 3 -3 4 -12 1 -19z m-9 -134 c-2 -19 0 -34 7 -34 5
0 3 -4 -5 -10 -8 -5 -11 -12 -8 -15 11 -11 30 6 24 21 -8 21 11 25 85 22 l64
-3 -83 -29 c-53 -18 -87 -25 -93 -19 -6 6 -7 34 -3 69 4 32 9 53 12 46 2 -7 2
-29 0 -48z m762 -136 c0 -7 -17 -8 -47 -3 -68 10 -72 21 -8 17 30 -2 55 -8 55
-14z m400 4 c0 -5 -17 -14 -37 -21 -21 -7 -44 -15 -51 -18 -9 -3 -13 1 -10 13
2 13 15 21 38 25 53 10 60 10 60 1z m-112 -24 c-22 -34 -80 -35 -148 -4 l-55
25 109 0 108 1 -14 -22z m-125 -54 c26 -8 20 -24 -10 -25 l-28 -2 28 -4 c15
-2 27 -11 27 -19 0 -8 5 -14 10 -14 6 0 10 -7 10 -15 0 -12 -14 -15 -65 -15
-63 0 -65 1 -65 25 0 20 5 25 28 26 l27 2 -27 4 c-22 3 -28 10 -28 30 0 24 2
25 38 19 20 -4 45 -9 55 -12z m-1026 -110 c-3 -3 -12 -4 -19 -1 -8 3 -5 6 6 6
11 1 17 -2 13 -5z m-57 -14 c-14 -4 -34 -8 -45 -8 -16 0 -15 2 5 8 14 4 34 8
45 8 16 0 15 -2 -5 -8z m170 -10 c0 -11 -4 -20 -10 -20 -5 0 -10 9 -10 20 0
11 5 20 10 20 6 0 10 -9 10 -20z m1357 4 c-3 -3 -12 -4 -19 -1 -8 3 -5 6 6 6
11 1 17 -2 13 -5z m-1600 -10 c-3 -3 -12 -4 -19 -1 -8 3 -5 6 6 6 11 1 17 -2
13 -5z m420 0 c-3 -3 -12 -4 -19 -1 -8 3 -5 6 6 6 11 1 17 -2 13 -5z m763 -44
c0 -38 -36 -57 -97 -51 -14 1 -14 51 0 51 4 0 5 4 2 10 -3 5 0 8 7 5 7 -3 27
-1 43 4 44 14 45 13 45 -19z m1700 -24 c0 -2 -8 -10 -17 -17 -16 -13 -17 -12
-4 4 13 16 21 21 21 13z"/>
<path d="M1762 3355 c-2 -242 -6 -447 -10 -455 -4 -8 -20 -16 -37 -18 -59 -6
-109 -34 -241 -139 -74 -59 -133 -107 -131 -109 1 -1 74 3 162 8 153 9 477 4
615 -9 l65 -6 -90 72 c-49 40 -105 86 -122 102 -44 40 -104 70 -153 76 -22 3
-41 6 -42 7 -1 0 -5 206 -8 456 l-5 455 -3 -440z"/>
<path d="M3670 2120 l0 -1670 -297 -2 -298 -3 -1 -25 c-1 -14 -5 -33 -9 -43
-4 -10 -4 -22 1 -26 9 -8 261 -71 283 -71 6 0 11 4 11 10 0 5 -60 29 -133 52
l-134 43 1514 -3 1513 -2 0 35 0 35 -547 0 -548 -1 -3 1671 -2 1670 -35 0 -35
0 0 -1670 0 -1670 -610 0 -610 0 0 1670 0 1670 -30 0 -30 0 0 -1670z"/>
<path d="M3467 1528 c-23 -18 -81 -149 -116 -265 -37 -121 -40 -145 -21 -160
13 -10 17 0 32 67 9 43 35 125 58 181 23 57 48 120 55 139 14 38 32 39 27 3
-2 -18 2 -23 18 -23 31 0 37 30 11 52 -27 21 -41 23 -64 6z"/>
<path d="M3315 1065 c3 -16 6 -75 8 -130 1 -84 -1 -105 -18 -133 -33 -55 -81
-73 -194 -73 -111 1 -238 16 -258 32 -7 6 -20 35 -30 65 -18 59 -37 65 -21 6
19 -69 45 -109 80 -121 47 -17 255 -35 308 -27 95 14 170 92 170 177 0 74 -21
196 -37 216 -13 16 -13 15 -8 -12z"/>
<path d="M2761 1024 c0 -11 3 -14 6 -6 3 7 2 16 -1 19 -3 4 -6 -2 -5 -13z"/>
<path d="M2765 990 c-3 -5 -1 -10 4 -10 6 0 11 5 11 10 0 6 -2 10 -4 10 -3 0
-8 -4 -11 -10z"/>
<path d="M2785 910 c-3 -5 -1 -10 4 -10 6 0 11 5 11 10 0 6 -2 10 -4 10 -3 0
-8 -4 -11 -10z"/>
<path d="M2532 763 c-12 -15 -22 -30 -22 -34 0 -14 30 -31 45 -25 22 8 18 28
-4 21 -19 -6 -39 9 -24 18 5 3 73 -6 153 -19 80 -12 150 -23 157 -23 7 -1 3
12 -10 33 -12 18 -25 32 -29 30 -4 -3 -59 2 -123 11 -64 8 -117 15 -119 15 -1
0 -12 -12 -24 -27z"/>
<path d="M2811 672 c13 -10 41 -28 61 -41 28 -17 38 -29 40 -54 2 -26 8 -33
28 -35 23 -3 25 -7 22 -37 -3 -28 -1 -35 13 -35 14 0 16 7 13 35 -3 29 -1 35
14 35 15 0 18 -9 19 -47 1 -30 4 -37 6 -20 3 17 10 27 21 27 14 0 18 10 20 51
3 62 5 67 51 87 l36 17 -39 3 c-28 2 -44 -2 -60 -17 -34 -32 -115 -29 -155 5
-17 14 -29 30 -25 35 3 5 -16 9 -42 9 l-47 0 24 -18z"/>
<path d="M661 354 c0 -11 3 -14 6 -6 3 7 2 16 -1 19 -3 4 -6 -2 -5 -13z"/>
<path d="M1517 363 c-10 -9 -9 -83 1 -83 5 0 12 90 6 90 0 0 -4 -3 -7 -7z"/>
<path d="M2795 344 c-49 -13 -72 -21 -50 -18 50 6 187 42 160 42 -11 0 -60
-11 -110 -24z"/>
<path d="M144 343 c4 -7 2 -13 -4 -13 -6 0 -10 -12 -8 -27 2 -20 9 -29 24 -31
34 -5 38 25 8 56 -15 15 -23 21 -20 15z"/>
<path d="M2895 340 c-16 -6 -14 -8 13 -7 17 0 32 4 32 9 0 10 -18 9 -45 -2z"/>
<path d="M563 318 c-28 -13 -29 -24 -4 -38 15 -7 24 -6 36 6 29 29 7 51 -32
32z"/>
<path d="M655 319 c-5 -5 -18 -16 -29 -23 -15 -10 -16 -17 -8 -33 8 -14 8 -23
0 -31 -8 -8 -4 -13 16 -18 17 -4 26 -13 27 -28 0 -20 1 -20 8 -1 5 11 7 23 5
27 -8 13 -12 88 -5 88 4 0 8 7 8 15 0 17 -8 18 -22 4z"/>
<path d="M1337 323 c-11 -10 -8 -63 3 -63 6 0 10 -7 10 -15 0 -8 -7 -15 -16
-15 -8 0 -12 5 -9 10 3 6 1 10 -4 10 -6 0 -11 -5 -11 -11 0 -5 -4 -7 -10 -4
-5 3 -10 1 -10 -4 0 -6 14 -11 31 -11 31 0 32 -1 24 -37 -10 -53 -6 -116 8
-130 22 -22 37 1 38 61 1 44 -2 60 -16 70 -20 14 -15 43 9 52 9 3 40 -6 71
-20 l56 -25 -4 -78 c-5 -82 4 -132 16 -100 3 9 16 17 27 17 15 0 20 7 20 25 0
18 -5 25 -20 25 -25 0 -27 30 -2 31 13 0 12 3 -5 11 -26 12 -31 49 -9 67 8 7
12 21 9 31 -5 17 0 20 28 20 48 0 32 6 -36 14 -41 4 -55 3 -45 -4 11 -7 11
-10 2 -10 -7 0 -15 7 -18 15 -4 8 -14 15 -23 15 -21 0 -81 40 -61 41 10 0 8 3
-5 9 -25 11 -40 12 -48 3z"/>
<path d="M1776 315 c-18 -14 -16 -45 3 -45 15 0 42 31 38 43 -5 17 -20 18 -41
2z"/>
<path d="M2833 323 c9 -2 23 -2 30 0 6 3 -1 5 -18 5 -16 0 -22 -2 -12 -5z"/>
<path d="M2690 310 c8 -5 24 -10 34 -10 26 0 18 6 -19 14 -22 5 -26 4 -15 -4z"/>
<path d="M2773 313 c9 -2 23 -2 30 0 6 3 -1 5 -18 5 -16 0 -22 -2 -12 -5z"/>
<path d="M10 301 c8 -5 38 -11 65 -14 31 -4 40 -3 25 2 -39 12 -107 21 -90 12z"/>
<path d="M247 288 c-7 -25 -2 -33 30 -42 18 -6 20 -4 16 14 -4 16 -8 18 -19 9
-8 -7 -18 -9 -21 -5 -4 4 -1 11 7 16 11 7 12 12 4 20 -8 8 -13 5 -17 -12z"/>
<path d="M1418 303 c7 -3 16 -2 19 1 4 3 -2 6 -13 5 -11 0 -14 -3 -6 -6z"/>
<path d="M2632 293 c-19 -37 -24 -93 -9 -108 9 -8 12 -25 9 -40 -4 -23 -2 -26
19 -23 20 3 24 9 26 51 3 41 1 47 -16 47 -22 0 -35 30 -26 59 4 13 12 17 27
13 14 -3 19 -1 14 6 -11 18 -34 14 -44 -5z"/>
<path d="M1468 293 c7 -3 16 -2 19 1 4 3 -2 6 -13 5 -11 0 -14 -3 -6 -6z"/>
<path d="M0 246 c0 -19 9 -27 41 -40 55 -22 69 -10 24 21 -20 14 -35 26 -33
28 8 8 101 -14 110 -26 7 -11 11 -11 15 -1 2 6 12 13 21 13 17 1 -129 27 -160
28 -12 1 -18 -7 -18 -23z"/>
<path d="M1058 263 c7 -3 16 -2 19 1 4 3 -2 6 -13 5 -11 0 -14 -3 -6 -6z"/>
<path d="M1230 263 c9 -4 -21 -18 -70 -34 -47 -15 -79 -28 -72 -29 8 0 12 -21
12 -69 0 -102 8 -131 36 -131 19 0 24 7 33 53 6 28 12 72 13 97 2 32 7 45 18
45 8 0 21 12 28 28 7 15 18 27 23 27 6 0 7 5 4 10 -3 6 -14 10 -23 9 -14 0
-14 -2 -2 -6z"/>
<path d="M3361 257 c-1 -11 -10 -21 -21 -24 -15 -4 -20 -14 -20 -37 1 -28 29
-96 30 -70 0 7 8 14 18 17 11 2 21 14 25 26 3 11 1 19 -4 15 -15 -9 -31 6 -20
20 7 8 7 23 2 42 -6 17 -10 22 -10 11z"/>
<path d="M587 254 c-4 -4 -7 -17 -7 -28 1 -19 1 -20 11 -3 11 19 8 43 -4 31z"/>
<path d="M1018 253 c7 -3 16 -2 19 1 4 3 -2 6 -13 5 -11 0 -14 -3 -6 -6z"/>
<path d="M2902 240 c0 -14 2 -19 5 -12 2 6 2 18 0 25 -3 6 -5 1 -5 -13z"/>
<path d="M944 236 c-25 -19 -17 -23 26 -15 29 5 31 7 10 9 l-25 2 25 8 c22 7
22 8 4 9 -11 1 -29 -5 -40 -13z"/>
<path d="M2920 240 c0 -5 5 -10 11 -10 5 0 7 5 4 10 -3 6 -8 10 -11 10 -2 0
-4 -4 -4 -10z"/>
<path d="M221 233 c20 -5 29 -32 29 -85 0 -21 5 -38 11 -38 7 0 9 18 7 48 -2
34 1 46 10 45 6 -2 12 1 12 6 0 5 10 12 23 14 14 3 9 5 -14 6 -20 0 -49 3 -65
5 -16 2 -22 1 -13 -1z"/>
<path d="M1623 233 c9 -2 23 -2 30 0 6 3 -1 5 -18 5 -16 0 -22 -2 -12 -5z"/>
<path d="M1683 223 c9 -2 23 -2 30 0 6 3 -1 5 -18 5 -16 0 -22 -2 -12 -5z"/>
<path d="M2920 210 c0 -5 4 -10 9 -10 5 0 7 -9 4 -20 -3 -11 -12 -20 -20 -20
-10 0 -14 7 -10 20 3 11 1 20 -4 20 -5 0 -9 -19 -9 -43 0 -39 3 -43 23 -43 26
1 35 18 36 69 1 26 -3 37 -14 37 -8 0 -15 -4 -15 -10z"/>
<path d="M2396 192 c-8 -7 -8 -66 0 -86 3 -9 15 -16 26 -16 17 0 19 6 16 52
-2 39 -7 52 -20 54 -9 1 -19 -1 -22 -4z"/>
<path d="M4968 159 c-3 -13 -6 -54 -7 -92 -2 -66 -2 -67 23 -67 26 0 26 0 25
88 0 56 -3 80 -9 67 -8 -19 -8 -19 -17 4 l-10 25 -5 -25z m32 -39 c0 -5 -4
-10 -10 -10 -5 0 -10 5 -10 10 0 6 5 10 10 10 6 0 10 -4 10 -10z"/>
<path d="M325 160 c-34 -13 -46 -34 -39 -69 4 -17 11 -34 17 -38 13 -8 47 34
47 59 0 12 4 17 12 12 8 -5 9 -2 5 10 -4 10 -7 22 -7 27 0 11 -8 11 -35 -1z"/>
<path d="M903 154 c-3 -8 -1 -26 6 -40 6 -14 8 -36 5 -50 -5 -19 -2 -24 12
-24 31 0 49 17 50 50 1 16 -2 30 -7 30 -5 0 -6 7 -3 15 4 10 -3 18 -21 25 -34
13 -35 13 -42 -6z"/>
<path d="M2 140 c0 -14 2 -19 5 -12 2 6 2 18 0 25 -3 6 -5 1 -5 -13z"/>
<path d="M1700 134 c-7 -18 -7 -30 0 -39 5 -6 7 -15 3 -18 -3 -4 0 -13 6 -21
23 -27 46 0 47 55 1 45 -1 49 -23 49 -16 0 -27 -8 -33 -26z"/>
<path d="M63 115 c-10 -8 -12 -21 -7 -55 4 -25 9 -40 11 -34 2 6 14 9 26 7 19
-4 23 0 25 25 2 26 -1 29 -18 25 -14 -4 -20 0 -20 12 0 12 6 16 20 12 12 -3
20 0 20 7 0 15 -37 15 -57 1z"/>
<path d="M1036 107 c4 -18 1 -24 -11 -24 -11 0 -15 6 -11 20 3 14 2 17 -6 9
-6 -6 -7 -21 -3 -39 5 -15 9 -31 9 -34 2 -10 35 -39 45 -39 6 0 11 8 11 18 0
9 3 33 6 52 5 32 3 37 -20 48 -25 11 -26 10 -20 -11z"/>
</g>
</svg>
